<svg version="1.1" viewBox="0.0 0.0 960.0 720.0" fill="none" stroke="none" stroke-linecap="square" stroke-miterlimit="10" xmlns:xlink="http://www.w3.org/1999/xlink" xmlns="http://www.w3.org/2000/svg"><clipPath id="g39c13bfc4c4_0_73.0"><path d="m0 0l960.0 0l0 720.0l-960.0 0l0 -720.0z" clip-rule="nonzero"/></clipPath><g clip-path="url(#g39c13bfc4c4_0_73.0)"><path fill="#000000" fill-opacity="0.0" d="m0 0l960.0 0l0 720.0l-960.0 0z" fill-rule="evenodd"/><path fill="#000000" fill-opacity="0.0" d="m86.74016 41.204723l786.51965 0l0 81.07086l-786.51965 0z" fill-rule="evenodd"/><path fill="#000000" d="m288.84683 96.86285q-3.984375 0 -7.71875 -1.078125q-3.71875 -1.078125 -5.96875 -2.8125l2.640625 -5.859375q2.15625 1.59375 5.125 2.5625q2.984375 0.953125 5.96875 0.953125q3.3125 0 4.890625 -0.984375q1.578125 -0.984375 1.578125 -2.625q0 -1.203125 -0.9375 -1.984375q-0.921875 -0.796875 -2.390625 -1.28125q-1.46875 -0.484375 -3.96875 -1.046875q-3.828125 -0.921875 -6.28125 -1.828125q-2.453125 -0.90625 -4.203125 -2.921875q-1.75 -2.03125 -1.75 -5.390625q0 -2.921875 1.578125 -5.296875q1.59375 -2.375 4.78125 -3.765625q3.1875 -1.390625 7.796875 -1.390625q3.21875 0 6.28125 0.765625q3.078125 0.765625 5.390625 2.203125l-2.40625 5.90625q-4.65625 -2.640625 -9.3125 -2.640625q-3.265625 0 -4.828125 1.0625q-1.546875 1.046875 -1.546875 2.78125q0 1.71875 1.796875 2.5625q1.796875 0.84375 5.5 1.65625q3.828125 0.921875 6.28125 1.828125q2.453125 0.90625 4.203125 2.875q1.75 1.96875 1.75 5.328125q0 2.890625 -1.609375 5.265625q-1.609375 2.375 -4.828125 3.765625q-3.21875 1.390625 -7.8125 1.390625zm34.60846 -1.828125q-1.109375 0.8125 -2.71875 1.234375q-1.609375 0.40625 -3.34375 0.40625q-4.65625 0 -7.15625 -2.34375q-2.484375 -2.359375 -2.484375 -6.921875l0 -22.65625l7.484375 0l0 6.28125l6.390625 0l0 5.765625l-6.390625 0l0 10.515625q0 1.625 0.8125 2.515625q0.828125 0.890625 2.359375 0.890625q1.734375 0 3.078125 -0.96875l1.96875 5.28125zm29.600647 -24.578125l0 25.828125l-7.140625 0l0 -2.96875q-2.78125 3.359375 -8.0624695 3.359375q-3.65625 0 -6.609375 -1.625q-2.953125 -1.640625 -4.640625 -4.65625q-1.671875 -3.03125 -1.671875 -7.015625q0 -3.984375 1.671875 -7.0q1.6875 -3.03125 4.640625 -4.65625q2.953125 -1.640625 6.609375 -1.640625q4.9374695 0 7.7187195 3.109375l0 -2.734375l7.484375 0zm-13.9062195 20.0625q2.828125 0 4.6874695 -1.9375q1.875 -1.9375 1.875 -5.203125q0 -3.265625 -1.875 -5.203125q-1.8593445 -1.953125 -4.6874695 -1.953125q-2.890625 0 -4.765625 1.953125q-1.859375 1.9375 -1.859375 5.203125q0 3.265625 1.859375 5.203125q1.875 1.9375 4.765625 1.9375zm46.838806 -20.0625l0 21.515625q0 7.09375 -3.609375 10.546875q-3.59375 3.4687576 -10.453125 3.4687576q-3.640625 0 -6.890625 -0.9218826q-3.234375 -0.90625 -5.4375 -2.640625l2.96875 -5.375q1.640625 1.34375 3.984375 2.109375q2.359375 0.765625 4.75 0.765625q3.75 0 5.46875 -1.734375q1.734375 -1.71875 1.734375 -5.265625l0 -0.859375q-1.4375 1.4375 -3.40625 2.203125q-1.96875 0.765625 -4.21875 0.765625q-5.09375 0 -8.078125 -2.90625q-2.96875 -2.90625 -2.96875 -8.703125l0 -12.96875l7.484375 0l0 11.859375q0 6.28125 5.234375 6.28125q2.6875 0 4.3125 -1.75q1.640625 -1.75 1.640625 -5.203125l0 -11.1875l7.484375 0zm20.544464 0l7.484375 0l0 25.828125l-7.484375 0l0 -25.828125zm3.734375 -3.59375q-2.0625 0 -3.359375 -1.203125q-1.296875 -1.203125 -1.296875 -2.96875q0 -1.78125 1.296875 -2.984375q1.296875 -1.203125 3.359375 -1.203125q2.0625 0 3.359375 1.15625q1.296875 1.15625 1.296875 2.875q0 1.875 -1.296875 3.109375q-1.296875 1.21875 -3.359375 1.21875zm26.41681 3.21875q4.796875 0 7.75 2.875q2.953125 2.875 2.953125 8.546875l0 14.78125l-7.484375 0l0 -13.625q0 -3.078125 -1.34375 -4.59375q-1.34375 -1.515625 -3.890625 -1.515625q-2.84375 0 -4.53125 1.765625q-1.671875 1.75 -1.671875 5.203125l0 12.765625l-7.484375 0l0 -25.828125l7.15625 0l0 3.03125q1.484375 -1.640625 3.6875 -2.515625q2.21875 -0.890625 4.859375 -0.890625zm46.61145 24.953125q-1.109375 0.8125 -2.71875 1.234375q-1.609375 0.40625 -3.34375 0.40625q-4.65625 0 -7.15625 -2.34375q-2.484375 -2.359375 -2.484375 -6.921875l0 -22.65625l7.484375 0l0 6.28125l6.390625 0l0 5.765625l-6.390625 0l0 10.515625q0 1.625 0.8125 2.515625q0.828125 0.890625 2.359375 0.890625q1.734375 0 3.078125 -0.96875l1.96875 5.28125zm19.916687 -24.953125q4.796875 0 7.75 2.875q2.9531555 2.875 2.9531555 8.546875l0 14.78125l-7.4844055 0l0 -13.625q0 -3.078125 -1.34375 -4.59375q-1.34375 -1.515625 -3.890625 -1.515625q-2.84375 0 -4.53125 1.765625q-1.671875 1.75 -1.671875 5.203125l0 12.765625l-7.484375 0l0 -35.609375l7.484375 0l0 12.46875q1.5 -1.484375 3.609375 -2.265625q2.109375 -0.796875 4.609375 -0.796875zm30.768585 20.59375q2.015625 0 3.5625 -0.59375q1.5625 -0.609375 2.90625 -1.90625l3.984375 4.3125q-3.640625 4.1875 -10.65625 4.1875q-4.359375 0 -7.71875 -1.703125q-3.359375 -1.71875 -5.1875 -4.734375q-1.828125 -3.03125 -1.828125 -6.859375q0 -3.796875 1.796875 -6.84375q1.8125 -3.046875 4.953125 -4.75q3.140625 -1.703125 7.078125 -1.703125q3.703125 0 6.71875 1.5625q3.03125 1.546875 4.828125 4.5q1.796875 2.953125 1.796875 6.984375l-19.109375 3.703125q0.828125 1.921875 2.578125 2.890625q1.75 0.953125 4.296875 0.953125zm-1.109375 -14.9375q-2.828125 0 -4.609375 1.828125q-1.78125 1.828125 -1.875 5.03125l12.578125 -2.4375q-0.53125 -2.015625 -2.171875 -3.21875q-1.625 -1.203125 -3.921875 -1.203125zm32.49707 -13.046875l7.78125 0l0 27.25l16.84375 0l0 6.34375l-24.625 0l0 -33.59375zm40.565674 33.984375q-4.09375 0 -7.328125 -1.703125q-3.234375 -1.71875 -5.0625 -4.734375q-1.828125 -3.03125 -1.828125 -6.859375q0 -3.84375 1.828125 -6.859375q1.828125 -3.03125 5.0625 -4.734375q3.234375 -1.703125 7.328125 -1.703125q4.078125 0 7.28125 1.703125q3.21875 1.703125 5.046875 4.734375q1.828125 3.015625 1.828125 6.859375q0 3.828125 -1.828125 6.859375q-1.828125 3.015625 -5.046875 4.734375q-3.203125 1.703125 -7.28125 1.703125zm0 -6.15625q2.875 0 4.71875 -1.9375q1.84375 -1.9375 1.84375 -5.203125q0 -3.265625 -1.84375 -5.203125q-1.84375 -1.953125 -4.71875 -1.953125q-2.890625 0 -4.765625 1.953125q-1.859375 1.9375 -1.859375 5.203125q0 3.265625 1.859375 5.203125q1.875 1.9375 4.765625 1.9375zm31.440063 6.15625q-4.09375 0 -7.328125 -1.703125q-3.234375 -1.71875 -5.0625 -4.734375q-1.828125 -3.03125 -1.828125 -6.859375q0 -3.84375 1.828125 -6.859375q1.828125 -3.03125 5.0625 -4.734375q3.234375 -1.703125 7.328125 -1.703125q4.078125 0 7.28125 1.703125q3.21875 1.703125 5.046875 4.734375q1.828125 3.015625 1.828125 6.859375q0 3.828125 -1.828125 6.859375q-1.828125 3.015625 -5.046875 4.734375q-3.203125 1.703125 -7.28125 1.703125zm0 -6.15625q2.875 0 4.71875 -1.9375q1.84375 -1.9375 1.84375 -5.203125q0 -3.265625 -1.84375 -5.203125q-1.84375 -1.953125 -4.71875 -1.953125q-2.890625 0 -4.765625 1.953125q-1.859375 1.9375 -1.859375 5.203125q0 3.265625 1.859375 5.203125q1.875 1.9375 4.765625 1.9375zm34.408813 -20.4375q3.59375 0 6.546875 1.65625q2.953125 1.65625 4.625 4.65625q1.6875 3.0 1.6875 6.984375q0 3.984375 -1.6875 6.984375q-1.671875 3.0 -4.625 4.65625q-2.953125 1.65625 -6.546875 1.65625q-4.9375 0 -7.78125 -3.125l0 12.046883l-7.484375 0l0 -35.140633l7.15625 0l0 2.984375q2.78125 -3.359375 8.109375 -3.359375zm-1.296875 20.4375q2.875 0 4.71875 -1.9375q1.859375 -1.9375 1.859375 -5.203125q0 -3.265625 -1.859375 -5.203125q-1.84375 -1.953125 -4.71875 -1.953125q-2.875 0 -4.734375 1.953125q-1.84375 1.9375 -1.84375 5.203125q0 3.265625 1.84375 5.203125q1.859375 1.9375 4.734375 1.9375z" fill-rule="nonzero"/><path fill="#29caab" d="m386.56055 423.1273l0 0c0 -52.80191 42.881958 -95.59924 95.77954 -95.590546l0 0c25.402313 0.004180908 49.76422 10.080963 67.72638 28.01355c17.962097 17.932617 28.053162 42.252106 28.053162 67.60849l0 0c0 52.80191 -42.881958 95.59927 -95.77954 95.590546l0 0c-52.897583 -0.008666992 -95.77954 -42.82013 -95.77954 -95.62204z" fill-rule="evenodd"/><path fill="#ffffff" d="m430.34912 435.6792q-2.828125 -4.5776367E-4 -5.1875 -0.8914795q-2.359375 -0.9066467 -4.109375 -2.5631714q-1.75 -1.6721802 -2.71875 -3.9067078q-0.96875 -2.2501526 -0.96875 -4.9376526q0 -2.6875 0.96875 -4.9217224q0.96875 -2.2498474 2.734375 -3.9057922q1.765625 -1.6716003 4.140625 -2.5774536q2.390625 -0.9058533 5.234375 -0.9053955q3.15625 5.187988E-4 5.6875 1.063446q2.546875 1.0473022 4.265625 3.063202l-3.53125 3.2494202q-1.28125 -1.3595886 -2.8125 -2.0160828q-1.53125 -0.65649414 -3.328125 -0.6567993q-1.734375 -2.746582E-4 -3.171875 0.5463562q-1.421875 0.53100586 -2.46875 1.5621033q-1.03125 1.0154419 -1.59375 2.4059753q-0.546875 1.3905334 -0.546875 3.0936584q0 1.65625 0.546875 3.0625916q0.5625 1.3907166 1.59375 2.4221497q1.046875 1.0314026 2.453125 1.5785217q1.421875 0.5470886 3.109375 0.5473938q1.640625 2.4414062E-4 3.1875 -0.5151062q1.546875 -0.53100586 3.0 -1.7963867l3.125 3.9848938q-1.9375 1.4527893 -4.5 2.233612q-2.5625 0.7808533 -5.109375 0.780426zm9.609375 -3.014038l-5.03125 -0.719574l0 -8.9375l5.03125 8.239746E-4l0 9.65625zm4.733246 2.610138l0 -18.28125l5.0625 8.239746E-4l0 5.15625l-0.71875 -1.4844666q0.8125 -1.9373779 2.609375 -2.9370728q1.8125 -1.0153503 4.390625 -1.0149231l0 4.90625q-0.34375 -0.046936035 -0.609375 -0.06259155q-0.265625 -0.015655518 -0.578125 -0.015716553q-2.171875 -3.6621094E-4 -3.515625 1.2494202q-1.34375 1.2341614 -1.34375 3.8591614l0 8.625l-5.296875 -8.8500977E-4zm23.028809 0.26940918q-2.921875 -4.5776367E-4 -5.1875 -1.2196045q-2.25 -1.2191162 -3.5625 -3.3443298q-1.296875 -2.1252136 -1.296875 -4.8439636q0 -2.75 1.296875 -4.8747864q1.3125 -2.1247864 3.5625 -3.3275452q2.265625 -1.2183533 5.1875 -1.2178955q2.890625 4.8828125E-4 5.171875 1.2196045q2.28125 1.2034912 3.5625 3.3130798q1.296875 2.1095886 1.296875 4.8908386q0 2.71875 -1.296875 4.8435364q-1.28125 2.1247864 -3.5625 3.3431702q-2.28125 1.2183838 -5.171875 1.2178955zm0 -4.34375q1.328125 2.1362305E-4 2.375 -0.6089783q1.0625 -0.6091919 1.671875 -1.7497253q0.609375 -1.1405334 0.609375 -2.7030334q0 -1.59375 -0.609375 -2.7188416q-0.609375 -1.1250916 -1.671875 -1.7346497q-1.046875 -0.6095581 -2.375 -0.6097717q-1.3125 -2.1362305E-4 -2.375 0.6089783q-1.046875 0.6092224 -1.6875 1.7341003q-0.625 1.1249084 -0.625 2.7186584q0 1.5625 0.625 2.7032166q0.640625 1.1407471 1.6875 1.7502747q1.0625 0.6095581 2.375 0.6097717zm17.234192 4.080963l-6.59375 -18.282318l5.0 8.239746E-4l5.46875 15.73526l-2.375 -3.9672852E-4l5.703125 -15.733429l4.484375 7.324219E-4l5.546875 15.735291l-2.375 -3.9672852E-4l5.640625 -15.733429l4.6875 7.6293945E-4l-6.625 18.280151l-5.140625 -8.544922E-4l-4.859375 -13.485168l1.5625 2.746582E-4l-5.03125 13.483551l-5.09375 -8.544922E-4zm35.34427 0.27145386q-3.234375 -5.493164E-4 -5.03125 -1.6414795q-1.796875 -1.6565247 -1.796875 -4.9065247l0 -16.046875l5.296875 8.544922E-4l0 15.96875q0 1.15625 0.609375 1.7969971q0.625 0.62509155 1.671875 0.62527466q1.25 1.8310547E-4 2.140625 -0.6871643l1.421875 3.7346191q-0.8125 0.5779724 -1.953125 0.8746643q-1.140625 0.2810669 -2.359375 0.2808838zm-9.65625 -14.470337l0 -4.078125l12.6875 0.0020751953l0 4.078125l-12.6875 -0.0020751953zm16.970703 14.205902l0 -25.21875l5.296875 8.544922E-4l0 12.0000305l-1.1875 -1.5314636q0.984375 -1.8279724 2.8125 -2.8120422q1.84375 -0.9996948 4.1875 -0.9992981q2.171875 3.6621094E-4 3.890625 0.87564087q1.71875 0.85964966 2.703125 2.6566772q0.984375 1.7814331 0.984375 4.562683l0 10.46875l-5.296875 -8.8500977E-4l0 -9.65625q0 -2.203125 -0.96875 -3.2501526q-0.96875 -1.0626526 -2.75 -1.0629578q-1.25 -2.1362305E-4 -2.25 0.5308838q-1.0 0.5154724 -1.5625 1.6091309q-0.5625 1.0936584 -0.5625 2.7811584l0 9.046875l-5.296875 -8.8500977E-4z" fill-rule="nonzero"/><path fill="#21caab" fill-opacity="0.5" d="m693.1153 298.3135c47.414856 80.68567 47.08264 184.93835 -10.886536 266.7084c-43.88324 61.900635 -111.74231 97.62097 -181.58325 102.0827c4.400757 10.008667 8.801483 20.017334 13.744019 29.26184c75.163574 -8.726501 145.7315 -48.267883 192.32355 -113.98956c67.72101 -95.52573 65.467834 -218.83432 5.3640747 -310.81058c-6.5012207 9.170441 -12.237305 18.88327 -18.961853 26.747192z" fill-rule="evenodd"/><path stroke="#ffffff" stroke-width="1.0" stroke-miterlimit="8.0" stroke-linecap="butt" d="m693.1153 298.3135c47.414856 80.68567 47.08264 184.93835 -10.886536 266.7084c-43.88324 61.900635 -111.74231 97.62097 -181.58325 102.0827c4.400757 10.008667 8.801483 20.017334 13.744019 29.26184c75.163574 -8.726501 145.7315 -48.267883 192.32355 -113.98956c67.72101 -95.52573 65.467834 -218.83432 5.3640747 -310.81058c-6.5012207 9.170441 -12.237305 18.88327 -18.961853 26.747192z" fill-rule="evenodd"/><path fill="#111c28" d="m591.58734 433.90817c-5.607239 57.662415 -56.20343 101.046234 -112.74109 98.39365c-3.99115 44.49933 4.546936 86.87305 20.693298 124.7337c66.95685 -4.270569 132.01074 -38.507202 174.07611 -97.84375c55.567932 -78.382904 55.876526 -178.32413 10.411743 -255.67752c-25.87555 33.389893 -59.820618 61.059906 -99.757935 80.079865c5.291382 15.85788 8.810425 32.660828 7.317871 50.314056z" fill-rule="evenodd"/><path stroke="#ffffff" stroke-width="1.0" stroke-miterlimit="8.0" stroke-linecap="butt" d="m591.58734 433.90817c-5.607239 57.662415 -56.20343 101.046234 -112.74109 98.39365c-3.99115 44.49933 4.546936 86.87305 20.693298 124.7337c66.95685 -4.270569 132.01074 -38.507202 174.07611 -97.84375c55.567932 -78.382904 55.876526 -178.32413 10.411743 -255.67752c-25.87555 33.389893 -59.820618 61.059906 -99.757935 80.079865c5.291382 15.85788 8.810425 32.660828 7.317871 50.314056z" fill-rule="evenodd"/><path fill="#000000" fill-opacity="0.0" d="m532.27405 590.03424l103.74805 -203.49606l72.62988 36.97638l-103.747986 203.49606z" fill-rule="evenodd"/><path fill="#ffffff" d="m597.51697 584.3882q-1.5258179 2.992859 -3.7992554 5.0440674q-2.2663574 2.0372314 -4.9718018 3.0093384q-2.7122803 0.95111084 -5.6185303 0.76898193q-2.89917 -0.19604492 -5.711853 -1.6279907q-2.8127441 -1.4320068 -4.661804 -3.6533203q-1.855896 -2.2423096 -2.6661987 -5.0218506q-0.81030273 -2.779541 -0.50042725 -5.795288q0.30981445 -3.015808 1.8143921 -5.966919q1.5258179 -2.992859 3.7780151 -5.0022583q2.2521362 -2.0094604 4.9644165 -2.9605103q2.7122803 -0.95111084 5.6116943 -0.79003906q2.885498 0.15405273 5.726074 1.6002197q2.812683 1.4319458 4.675415 3.6952515q1.8627319 2.2633667 2.6732788 5.0079346q0.79663086 2.7375488 0.49389648 5.73938q-0.30273438 3.001892 -1.807312 5.953003zm-4.9922485 -2.4890137q0.8658447 -1.6982422 1.0187988 -3.4087524q0.13909912 -1.7176514 -0.3795166 -3.3492432q-0.53253174 -1.6387329 -1.7104492 -2.9748535q-1.1708374 -1.3499756 -2.981018 -2.2715454q-1.7962036 -0.91448975 -3.5773926 -1.0673218q-1.7740479 -0.16680908 -3.4065552 0.35211182q-1.6254883 0.5050049 -2.9344482 1.6621094q-1.3158569 1.1360474 -2.1816406 2.8342896q-0.8658447 1.6983032 -1.0049438 3.4158936q-0.1529541 1.7105103 0.37957764 3.3492432q0.5396118 1.6247559 1.7104492 2.9747925q1.1707764 1.3499756 2.967041 2.2644653q1.7683716 0.9003296 3.5773926 1.0673218q1.795044 0.15997314 3.4205322 -0.34503174q1.6115723 -0.51208496 2.9273682 -1.6481323q1.30896 -1.1570435 2.1748047 -2.8553467zm19.744324 -26.790344q-1.2490845 2.4499512 -3.2719727 3.734497q-2.0228882 1.2845459 -4.762024 1.1875q-2.7320557 -0.110961914 -6.1156616 -1.8336182q-3.425354 -1.7438965 -5.128662 -3.838379q-1.7032471 -2.0944214 -1.838623 -4.477783q-0.14929199 -2.3903809 1.1494751 -4.937805q1.3980713 -2.7423096 3.7583618 -4.275879q2.3535156 -1.5545654 5.234314 -1.7009888q2.8807983 -0.14642334 5.916321 1.3989868q3.0633545 1.5595703 4.6522827 3.9815674q1.5749512 2.414917 1.6860962 5.224182q0.1182251 2.7954102 -1.2799072 5.5377197zm0.8568115 14.86615l-26.37268 -13.426514l2.739441 -5.37323l3.9544678 2.0133057l5.707947 3.0462036l5.9213257 2.5587158l10.916687 5.5577393l-2.8671875 5.6237793zm-5.9764404 -16.2453q0.71673584 -1.4059448 0.63690186 -2.831726q-0.093811035 -1.4328613 -0.95062256 -2.7106934q-0.8707886 -1.2849121 -2.527771 -2.12854q-1.6987915 -0.8648071 -3.2229614 -0.79919434q-1.538147 0.05847168 -2.7393188 0.8320923q-1.2151489 0.7665405 -1.9319458 2.1724854q-0.70965576 1.3920288 -0.6300659 2.8527222q0.072753906 1.4397583 0.93670654 2.7036133q0.8571167 1.2429199 2.5558472 2.107788q1.6569824 0.8435669 3.1948853 0.8200073q1.5310669 -0.0446167 2.7532349 -0.82507324q1.2153931 -0.80145264 1.9251099 -2.1934814zm15.997253 -19.956726q-1.7458496 3.4243774 -4.458679 4.4453735q-2.7267456 1.013855 -6.1939087 -0.75128174l-17.001587 -8.65564l2.8600464 -5.6098633l16.932007 8.620178q1.2253418 0.62384033 2.2201538 0.32373047q1.0019531 -0.31396484 1.5767822 -1.4415283q0.67419434 -1.3223877 0.43273926 -2.6376343l4.7349243 0.5169678q0.17266846 1.1749878 -0.13848877 2.5420532q-0.30395508 1.3530884 -0.96398926 2.647644zm-20.57483 2.4122925l-4.3165283 -2.1975708l6.848572 -13.433105l4.3165283 2.1975708l-6.848572 13.433105zm24.226746 -10.2977295l-19.38269 -9.867859l2.8671875 -5.62381l19.38269 9.867889l-2.8671875 5.6237793zm-20.65039 -14.055023q-0.78778076 1.5451355 -2.1896362 2.0588074q-1.4018555 0.51361084 -2.7385864 -0.16693115q-1.322815 -0.6734619 -1.7311401 -2.1086426q-0.40826416 -1.4352112 0.37945557 -2.9803467q0.79486084 -1.559082 2.1339722 -2.0871582q1.3461304 -0.5419922 2.6828613 0.1385498q1.4063721 0.7159729 1.8356934 2.1443481q0.43640137 1.4144592 -0.37261963 3.0013733zm26.178833 3.2112732l-19.38269 -9.867828l2.739441 -5.37323l5.29126 2.6938171l-2.0637207 0.22930908q-1.4730835 -2.0299072 -1.5456543 -4.3988037q-0.07940674 -2.3898926 1.1270752 -4.7563477q1.3626099 -2.672699 3.7281494 -3.9756775q2.3726196 -1.316864 5.477112 -0.5604248l-1.5440063 1.7212219q-1.7868042 -2.137024 -2.0166626 -4.954193q-0.24383545 -2.8242493 1.168457 -5.594391q1.1781006 -2.3107605 3.0054932 -3.6246948q1.8274536 -1.3139038 4.246338 -1.3799133q2.4188843 -0.06600952 5.3708496 1.4368591l11.097656 5.6499023l-2.8671265 5.62381l-10.234436 -5.2104187q-2.3392334 -1.190918 -3.9500122 -0.7836304q-1.6246338 0.40020752 -2.5188599 2.1541748q-0.6245117 1.2249756 -0.55041504 2.4900513q0.060180664 1.2579651 0.89733887 2.367981q0.8371582 1.1100159 2.5637817 1.9890442l9.733154 4.9551697l-2.8671875 5.62381l-10.234375 -5.210388q-2.3392944 -1.1909485 -3.9429321 -0.7975769q-1.6104736 0.3723755 -2.5117798 2.1402588q-0.6245117 1.2249756 -0.55041504 2.4900513q0.06726074 1.2440491 0.90441895 2.354065q0.8371582 1.1099854 2.5637817 1.9890137l9.733154 4.9552l-2.8671875 5.6237793zm19.266846 -37.790863l-19.38269 -9.867859l2.8671875 -5.6237793l19.38269 9.867828l-2.8671875 5.62381zm-20.65039 -14.055023q-0.78778076 1.545166 -2.1896362 2.0588074q-1.4018555 0.51361084 -2.7385864 -0.16693115q-1.322815 -0.6734314 -1.7311401 -2.1086426q-0.40826416 -1.4352112 0.37945557 -2.9803467q0.79486084 -1.559082 2.1339722 -2.0871582q1.3461304 -0.5419922 2.6828613 0.1385498q1.4063721 0.7160034 1.8356934 2.1443787q0.43640137 1.4144287 -0.37261963 3.0013428zm29.799744 -3.1684265q-1.2703857 2.4917297 -3.03302 4.469818q-1.7626343 1.9780884 -3.335144 2.8607483l-3.0870361 -3.921112q1.5028076 -0.9180908 2.9545898 -2.4583435q1.4448853 -1.5612793 2.3461914 -3.3291626q0.9935913 -1.948822 0.9456787 -2.9901428q-0.0546875 -1.0623169 -0.8762207 -1.4805603q-0.696228 -0.35446167 -1.3568726 0.115753174q-0.66748047 0.44918823 -1.3807373 1.4010315q-0.7133179 0.9518738 -1.533081 2.1125488q-0.8126221 1.1467285 -1.7647705 2.2575378q-0.94506836 1.0968628 -2.0900269 1.828949q-1.1448975 0.7321167 -2.515686 0.8407898q-1.3637085 0.09472656 -3.020691 -0.74887085q-1.8380127 -0.93573 -2.705017 -2.7096558q-0.8598633 -1.7878418 -0.63842773 -4.2174683q0.22143555 -2.429596 1.6550293 -5.2414856q1.0077515 -1.9766846 2.482666 -3.8031921q1.4819946 -1.8404541 3.0200195 -2.793213l3.038208 3.9137573q-1.5522461 0.98062134 -2.5824585 2.2445374q-1.0302124 1.263916 -1.7115479 2.6002502q-0.95806885 1.879242 -0.88287354 3.0045776q0.061279297 1.1182556 0.85491943 1.5223389q0.71014404 0.36154175 1.3915405 -0.080566406q0.6885376 -0.45602417 1.4436035 -1.3865967q0.74108887 -0.9376831 1.539856 -2.0915222q0.79870605 -1.1538391 1.7576904 -2.2436218q0.96606445 -1.1036987 2.0899658 -1.8289795q1.1239624 -0.72528076 2.480835 -0.84103394q1.3499756 -0.13674927 3.007019 0.70684814q1.8101196 0.9215698 2.6489868 2.7162476q0.8320923 1.7736511 0.58251953 4.223999q-0.24249268 2.436432 -1.725708 5.3457947zm11.328308 -22.21991q-1.6890869 3.3130188 -4.2614746 5.1593933q-2.5792847 1.8253479 -5.5236816 2.0621338q-2.951233 0.2157898 -5.833557 -1.251648q-2.9241333 -1.488678 -4.477539 -3.9802551q-1.5673218 -2.4986877 -1.6560669 -5.4894714q-0.08880615 -2.9907837 1.4228516 -5.9558105q1.447815 -2.8397522 3.82312 -4.5059204q2.3684692 -1.6871948 5.298462 -1.861206q2.9370117 -0.18792725 6.0700073 1.407074q0.32025146 0.16305542 0.7166748 0.41748047q0.40356445 0.24050903 0.74432373 0.46658325l-8.026672 15.743835l-3.2861328 -1.6730042l6.5220947 -12.792725l-0.12536621 2.6538696q-1.5177002 -0.7727051 -2.9439087 -0.72732544q-1.4262695 0.04537964 -2.6063843 0.8121643q-1.1870117 0.74575806 -1.9251099 2.193451q-0.73095703 1.4338074 -0.65112305 2.8595886q0.065979004 1.4187012 0.8955078 2.6124878q0.8156128 1.1867065 2.361206 1.9736023l0.86328125 0.43951416q1.5874023 0.808136 3.1536255 0.7288513q1.5733643 -0.09320068 2.8458252 -1.0409241q1.27948 -0.9616699 2.166626 -2.7016907q0.7877197 -1.545166 0.92437744 -2.9483948q0.1227417 -1.4103394 -0.31341553 -2.8597107l4.7702026 -1.3411255q0.82250977 2.1019592 0.61499023 4.5386353q-0.22143555 2.429596 -1.5627441 5.060547z" fill-rule="nonzero"/><path fill="#21caab" fill-opacity="0.5" d="m283.6609 282.55014c78.04651 -110.090805 230.13928 -136.68149 340.22467 -58.650757c25.227905 17.882034 44.91046 38.725555 61.11853 62.849792c6.5039062 -9.174225 12.465759 -17.583954 18.2052 -27.30008c-17.292114 -22.595184 -37.5166 -42.67418 -61.98004 -60.014343c-123.081604 -87.24268 -294.22946 -58.076935 -382.0318 65.77521c-8.129837 11.467804 -15.495209 23.477478 -22.096085 36.029022c10.896759 0.83169556 21.793533 1.6633606 32.690292 2.4950562c4.1134033 -7.4225464 8.991333 -14.303223 13.869232 -21.183899z" fill-rule="evenodd"/><path stroke="#ffffff" stroke-width="1.0" stroke-miterlimit="8.0" stroke-linecap="butt" d="m283.6609 282.55014c78.04651 -110.090805 230.13928 -136.68149 340.22467 -58.650757c25.227905 17.882034 44.91046 38.725555 61.11853 62.849792c6.5039062 -9.174225 12.465759 -17.583954 18.2052 -27.30008c-17.292114 -22.595184 -37.5166 -42.67418 -61.98004 -60.014343c-123.081604 -87.24268 -294.22946 -58.076935 -382.0318 65.77521c-8.129837 11.467804 -15.495209 23.477478 -22.096085 36.029022c10.896759 0.83169556 21.793533 1.6633606 32.690292 2.4950562c4.1134033 -7.4225464 8.991333 -14.303223 13.869232 -21.183899z" fill-rule="evenodd"/><path fill="#111c28" d="m291.65607 288.29144c-4.683075 6.6058655 -9.36615 13.2117 -13.315857 20.337433c41.730103 6.4200134 82.96445 21.311188 120.15491 46.569702c21.760162 -27.585693 56.414307 -43.826233 94.477356 -40.005463c37.329712 3.3009338 68.86597 25.65451 86.42261 56.846832c39.97638 -19.08493 72.71301 -46.609985 97.3822 -79.853424c-15.544922 -23.149475 -34.424927 -43.14888 -58.627197 -60.30394c-105.609924 -74.85841 -251.56464 -49.28488 -326.49402 56.40886z" fill-rule="evenodd"/><path stroke="#ffffff" stroke-width="1.0" stroke-miterlimit="8.0" stroke-linecap="butt" d="m291.65607 288.29144c-4.683075 6.6058655 -9.36615 13.2117 -13.315857 20.337433c41.730103 6.4200134 82.96445 21.311188 120.15491 46.569702c21.760162 -27.585693 56.414307 -43.826233 94.477356 -40.005463c37.329712 3.3009338 68.86597 25.65451 86.42261 56.846832c39.97638 -19.08493 72.71301 -46.609985 97.3822 -79.853424c-15.544922 -23.149475 -34.424927 -43.14888 -58.627197 -60.30394c-105.609924 -74.85841 -251.56464 -49.28488 -326.49402 56.40886z" fill-rule="evenodd"/><path fill="#000000" fill-opacity="0.0" d="m368.71762 218.43552l228.40945 0l0 81.51181l-228.40945 0z" fill-rule="evenodd"/><path fill="#ffffff" d="m396.1265 273.51703l0 -28.3125l5.421875 0l12.046875 19.984375l-2.875 0l11.84375 -19.984375l5.390625 0l0.078125 28.3125l-6.15625 0l-0.03125 -18.890625l1.125 0l-9.453125 15.890625l-2.953125 0l-9.671875 -15.890625l1.375 0l0 18.890625l-6.140625 0zm48.961517 0.328125q-3.71875 0 -6.53125 -1.453125q-2.796875 -1.46875 -4.34375 -3.984375q-1.53125 -2.53125 -1.53125 -5.765625q0 -3.28125 1.515625 -5.796875q1.515625 -2.53125 4.140625 -3.96875q2.625 -1.4375 5.953125 -1.4375q3.1875 0 5.75 1.359375q2.578125 1.34375 4.0625 3.875q1.5 2.53125 1.5 6.046875q0 0.359375 -0.046875 0.828125q-0.03125 0.46875 -0.078125 0.875l-17.671875 0l0 -3.6875l14.359375 0l-2.421875 1.09375q0 -1.703125 -0.6875 -2.953125q-0.6875 -1.25 -1.90625 -1.953125q-1.203125 -0.71875 -2.828125 -0.71875q-1.609375 0 -2.84375 0.71875q-1.234375 0.703125 -1.921875 1.984375q-0.6875 1.265625 -0.6875 3.0l0 0.96875q0 1.78125 0.78125 3.140625q0.796875 1.359375 2.21875 2.0625q1.4375 0.703125 3.390625 0.703125q1.734375 0 3.046875 -0.515625q1.3125 -0.53125 2.40625 -1.578125l3.359375 3.640625q-1.5 1.6875 -3.765625 2.609375q-2.265625 0.90625 -5.21875 0.90625zm27.456268 -0.328125l0 -4.25l-0.40625 -0.921875l0 -7.609375q0 -2.015625 -1.234375 -3.140625q-1.21875 -1.140625 -3.765625 -1.140625q-1.75 0 -3.4375 0.546875q-1.671875 0.546875 -2.84375 1.46875l-2.25 -4.40625q1.765625 -1.25 4.265625 -1.9375q2.515625 -0.6875 5.109375 -0.6875q4.96875 0 7.71875 2.34375q2.75 2.34375 2.75 7.3125l0 12.421875l-5.90625 0zm-6.625 0.328125q-2.546875 0 -4.375 -0.875q-1.8125 -0.875 -2.78125 -2.359375q-0.96875 -1.5 -0.96875 -3.359375q0 -1.9375 0.9375 -3.390625q0.953125 -1.46875 3.015625 -2.296875q2.0625 -0.828125 5.390625 -0.828125l5.78125 0l0 3.6875l-5.09375 0q-2.234375 0 -3.0625 0.734375q-0.828125 0.71875 -0.828125 1.8125q0 1.203125 0.953125 1.921875q0.953125 0.703125 2.609375 0.703125q1.578125 0 2.828125 -0.75q1.25 -0.75 1.8125 -2.203125l0.984375 2.90625q-0.6875 2.109375 -2.515625 3.203125q-1.8125 1.09375 -4.6875 1.09375zm25.559265 0q-2.796875 0 -5.359375 -0.671875q-2.5625 -0.671875 -4.0625 -1.671875l2.09375 -4.53125q1.5 0.921875 3.53125 1.515625q2.046875 0.578125 4.03125 0.578125q2.1875 0 3.09375 -0.515625q0.921875 -0.53125 0.921875 -1.453125q0 -0.78125 -0.71875 -1.15625q-0.703125 -0.390625 -1.875 -0.59375q-1.171875 -0.203125 -2.578125 -0.40625q-1.390625 -0.203125 -2.8125 -0.546875q-1.40625 -0.34375 -2.578125 -1.03125q-1.171875 -0.6875 -1.890625 -1.859375q-0.703125 -1.171875 -0.703125 -3.03125q0 -2.0625 1.1875 -3.640625q1.203125 -1.578125 3.46875 -2.484375q2.265625 -0.90625 5.421875 -0.90625q2.21875 0 4.515625 0.484375q2.3125 0.484375 3.859375 1.421875l-2.109375 4.484375q-1.578125 -0.9375 -3.171875 -1.28125q-1.59375 -0.34375 -3.09375 -0.34375q-2.109375 0 -3.078125 0.578125q-0.96875 0.5625 -0.96875 1.453125q0 0.796875 0.703125 1.203125q0.71875 0.40625 1.890625 0.65625q1.171875 0.234375 2.5625 0.421875q1.390625 0.1875 2.796875 0.546875q1.421875 0.359375 2.578125 1.03125q1.15625 0.671875 1.875 1.828125q0.734375 1.140625 0.734375 3.0q0 2.03125 -1.21875 3.59375q-1.203125 1.546875 -3.5 2.4375q-2.28125 0.890625 -5.546875 0.890625zm23.331696 0q-2.71875 0 -4.8437805 -1.046875q-2.109375 -1.0625 -3.28125 -3.21875q-1.171875 -2.171875 -1.171875 -5.53125l0 -12.28125l6.296875 0l0 11.359375q0 2.703125 1.1562805 3.984375q1.15625 1.265625 3.25 1.265625q1.46875 0 2.59375 -0.625q1.125 -0.625 1.765625 -1.9375q0.65625 -1.3125 0.65625 -3.296875l0 -10.75l6.3125 0l0 21.75l-5.984375 0l0 -5.984375l1.09375 1.734375q-1.09375 2.265625 -3.21875 3.421875q-2.125 1.15625 -4.625 1.15625zm18.593018 -0.328125l0 -21.75l6.03125 0l0 6.140625l-0.84375 -1.78125q0.96875 -2.296875 3.109375 -3.484375q2.140625 -1.203125 5.21875 -1.203125l0 5.828125q-0.40625 -0.046875 -0.734375 -0.0625q-0.328125 -0.03125 -0.6875 -0.03125q-2.578125 0 -4.1875 1.484375q-1.59375 1.46875 -1.59375 4.59375l0 10.265625l-6.3125 0zm27.86145 0.328125q-3.71875 0 -6.53125 -1.453125q-2.796875 -1.46875 -4.34375 -3.984375q-1.53125 -2.53125 -1.53125 -5.765625q0 -3.28125 1.515625 -5.796875q1.515625 -2.53125 4.140625 -3.96875q2.625 -1.4375 5.953125 -1.4375q3.1875 0 5.75 1.359375q2.578125 1.34375 4.0625 3.875q1.5 2.53125 1.5 6.046875q0 0.359375 -0.046875 0.828125q-0.03125 0.46875 -0.078125 0.875l-17.671875 0l0 -3.6875l14.359375 0l-2.421875 1.09375q0 -1.703125 -0.6875 -2.953125q-0.6875 -1.25 -1.90625 -1.953125q-1.203125 -0.71875 -2.828125 -0.71875q-1.609375 0 -2.84375 0.71875q-1.234375 0.703125 -1.921875 1.984375q-0.6875 1.265625 -0.6875 3.0l0 0.96875q0 1.78125 0.78125 3.140625q0.796875 1.359375 2.21875 2.0625q1.4375 0.703125 3.390625 0.703125q1.734375 0 3.046875 -0.515625q1.3125 -0.53125 2.40625 -1.578125l3.359375 3.640625q-1.5 1.6875 -3.765625 2.609375q-2.265625 0.90625 -5.21875 0.90625z" fill-rule="nonzero"/><path fill="#21caab" fill-opacity="0.5" d="m341.0496 623.026c-98.71912 -69.97406 -129.88557 -201.17664 -77.993164 -306.813c-10.904129 -0.8378296 -21.808289 -1.6756897 -31.947159 -1.9710999c-50.647568 116.85556 -15.303314 256.76212 92.59898 333.24545c53.568512 37.970398 116.09338 53.575867 176.0333 50.12091c-4.943054 -9.246399 -9.344208 -19.257263 -13.745361 -29.268127c-49.70581 0.37225342 -100.56125 -13.852905 -144.9466 -45.314148z" fill-rule="evenodd"/><path stroke="#ffffff" stroke-width="1.0" stroke-miterlimit="8.0" stroke-linecap="butt" d="m341.0496 623.026c-98.71912 -69.97406 -129.88557 -201.17664 -77.993164 -306.813c-10.904129 -0.8378296 -21.808289 -1.6756897 -31.947159 -1.9710999c-50.647568 116.85556 -15.303314 256.76212 92.59898 333.24545c53.568512 37.970398 116.09338 53.575867 176.0333 50.12091c-4.943054 -9.246399 -9.344208 -19.257263 -13.745361 -29.268127c-49.70581 0.37225342 -100.56125 -13.852905 -144.9466 -45.314148z" fill-rule="evenodd"/><path fill="#111c28" d="m465.12283 531.62964c-56.31015 -9.09729 -95.9686 -60.320374 -90.85727 -117.22974c1.4999084 -17.64685 6.969635 -34.68097 15.584106 -48.385468c-36.42679 -24.719452 -76.36737 -39.82309 -117.83688 -45.004578c-49.73622 101.218994 -19.926025 226.905 74.60596 293.91122c42.502747 30.12677 91.20804 43.73889 138.8168 43.3667c-16.329926 -39.08972 -23.070068 -82.38788 -20.312714 -126.65814z" fill-rule="evenodd"/><path stroke="#ffffff" stroke-width="1.0" stroke-miterlimit="8.0" stroke-linecap="butt" d="m465.12283 531.62964c-56.31015 -9.09729 -95.9686 -60.320374 -90.85727 -117.22974c1.4999084 -17.64685 6.969635 -34.68097 15.584106 -48.385468c-36.42679 -24.719452 -76.36737 -39.82309 -117.83688 -45.004578c-49.73622 101.218994 -19.926025 226.905 74.60596 293.91122c42.502747 30.12677 91.20804 43.73889 138.8168 43.3667c-16.329926 -39.08972 -23.070068 -82.38788 -20.312714 -126.65814z" fill-rule="evenodd"/><path fill="#000000" fill-opacity="0.0" d="m439.70972 588.6332l-106.92914 -201.79529l-72.031494 38.11023l106.92914 201.79529z" fill-rule="evenodd"/><path fill="#ffffff" d="m304.814 451.67935l30.929657 -2.0987244l3.028778 5.7158813l-19.099854 24.423767l-3.2189941 -6.0748596l17.240845 -20.823975l1.2071228 2.2780762l-26.949036 2.5028076l-3.1385193 -5.9229736zm8.307037 2.7288208l5.2250977 -0.78463745l6.811096 12.853821l-3.5717163 3.9049072l-8.464478 -15.974091zm12.263947 36.793274q-1.6460571 -3.1064758 -1.6630554 -6.2086487q-0.016967773 -3.1022034 1.502655 -5.6739197q1.526947 -2.5578918 4.3858337 -4.070465q2.9003296 -1.5345154 5.848175 -1.3441162q2.9689941 0.19689941 5.5272217 1.9545593q2.5582275 1.7576904 4.2042847 4.8641357q1.6094971 3.0374146 1.5313721 5.960144q-0.078125 2.922699 -1.8692017 5.249115l-4.610138 -3.093811q0.9649353 -1.4827576 1.0003357 -2.9510193q0.056549072 -1.4617615 -0.63845825 -2.7733765q-0.76086426 -1.435852 -2.017212 -2.2383728q-1.2425232 -0.80981445 -2.781433 -0.8440857q-1.5177917 -0.027801514 -3.2027588 0.86364746q-1.6711426 0.8841858 -2.5150452 2.161499q-0.8227844 1.2838135 -0.86468506 2.7731934q-0.028076172 1.4820557 0.73275757 2.9179382q0.6950073 1.311615 1.9091187 2.1011047q1.221405 0.8033142 3.0186768 0.824646l-0.07180786 5.5709534q-2.8908997 0.1506958 -5.3540344 -1.4275208q-2.4631042 -1.578186 -4.0726013 -4.6156006zm10.587677 19.980896q-1.7997131 -3.3963928 -1.075592 -6.2012634q0.73791504 -2.8121948 4.17688 -4.6316833l16.863342 -8.921997l2.9483032 5.5639954l-16.794281 8.885468q-1.2153931 0.6430359 -1.5417786 1.6288757q-0.3190918 0.9996643 0.27349854 2.117981q0.6950073 1.311615 1.9106445 1.8704834l-3.1460266 3.5736084q-1.0612793 -0.53448486 -2.0016174 -1.5748901q-0.9330139 -1.0266113 -1.6133728 -2.3105774zm9.856445 -18.20752l4.281433 -2.2652283l7.059845 13.323242l-4.281433 2.2651978l-7.059845 -13.323212zm-5.5003967 25.727386l19.225037 -10.171509l2.9556274 5.57782l-19.225037 10.171509l-2.9556274 -5.57782zm23.382202 -8.800201q-0.81204224 -1.5325012 -0.42645264 -2.973938q0.38562012 -1.4414062 1.7114868 -2.1428833q1.3120422 -0.69418335 2.7218933 -0.20269775q1.4098206 0.4914856 2.2218933 2.0240173q0.81936646 1.5462952 0.48168945 2.9447021q-0.33035278 1.4121704 -1.6562195 2.1136475q-1.394928 0.7380371 -2.8112488 0.26766968q-1.4090271 -0.4565735 -2.243042 -2.0305176zm-13.122803 28.862396q-1.6314697 -3.0788574 -1.6053467 -6.1331177q0.039886475 -3.0615845 1.5318909 -5.6186523q1.5131226 -2.5505981 4.37204 -4.0631714q2.9003296 -1.5345459 5.848175 -1.3441162q2.9689941 0.19689941 5.4979553 1.899353q2.5289307 1.7024536 4.1604004 4.78125q1.6094971 3.0374756 1.6045227 6.0982056q0.0023498535 3.074585 -1.504303 5.604065q-1.4927979 2.5222168 -4.420746 4.071289q-2.8589172 1.5125732 -5.813263 1.3433228q-2.9405518 -0.1765747 -5.5117493 -1.8920288q-2.5500793 -1.7089844 -4.1595764 -4.746399zm4.585266 -2.4259644q0.7389221 1.3944702 1.9595032 2.1628418q1.234375 0.7611084 2.758667 0.76776123q1.5454102 0.013183594 3.1889343 -0.8563843q1.684967 -0.89141846 2.5150452 -2.161438q0.8512268 -1.2635498 0.90127563 -2.7041626q0.06384277 -1.447937 -0.6750488 -2.8424072q-0.7389221 -1.3944702 -1.9806213 -2.1693726q-1.220581 -0.7683716 -2.759491 -0.80267334q-1.5177917 -0.027770996 -3.2027588 0.8637085q-1.6435242 0.86950684 -2.5012512 2.1541748q-0.83657837 1.2910767 -0.90042114 2.7390747q-0.04272461 1.4544067 0.696167 2.848877zm3.2557678 16.522705l19.225067 -10.171509l2.8239136 5.3292847l-5.3172607 2.8132324l1.0680237 -1.8555298q2.489563 0.026306152 4.5422974 1.3973999q2.0600586 1.3848267 3.3695984 3.8562012q1.2071228 2.2780762 1.2539673 4.5689697q0.046875 2.2909546 -1.2827454 4.3201904q-1.3296204 2.0292358 -4.2575684 3.5783691l-11.007446 5.8237915l-2.9556274 -5.57782l10.151154 -5.3707275q2.3202515 -1.2276001 2.883789 -2.8338623q0.577301 -1.6135254 -0.40301514 -3.463623q-0.70233154 -1.3254395 -1.8319092 -2.0889282q-1.1084595 -0.75701904 -2.5693665 -0.74420166q-1.4397583 0.019348145 -3.235199 0.9692383l-9.502045 5.0273438l-2.9556274 -5.57782z" fill-rule="nonzero"/></g></svg>