<svg version="1.1" viewBox="0.0 0.0 960.0 720.0" fill="none" stroke="none" stroke-linecap="square" stroke-miterlimit="10" xmlns:xlink="http://www.w3.org/1999/xlink" xmlns="http://www.w3.org/2000/svg"><clipPath id="p.0"><path d="m0 0l960.0 0l0 720.0l-960.0 0l0 -720.0z" clip-rule="nonzero"/></clipPath><g clip-path="url(#p.0)"><path fill="#ffffff" d="m0 0l960.0 0l0 720.0l-960.0 0z" fill-rule="evenodd"/><path fill="#ffb1ff" d="m121.8842 438.74036c22.022873 -30.959259 92.393005 -147.72449 132.13724 -185.75558c39.744247 -38.031113 69.370285 -46.506943 106.32817 -42.43109c36.957886 4.0758667 74.31143 52.673126 115.41922 66.88623c41.107758 14.213135 87.33621 -6.255249 131.22745 18.392548c43.891174 24.647766 85.541016 104.42517 132.11981 129.49414c46.578735 25.069 122.79401 17.433075 147.35284 20.919708" fill-rule="evenodd"/><path stroke="#ff00ff" stroke-width="4.0" stroke-linejoin="round" stroke-linecap="butt" d="m121.8842 438.74036c22.022873 -30.959259 92.393005 -147.72449 132.13724 -185.75558c39.744247 -38.031113 69.370285 -46.506943 106.32817 -42.43109c36.957886 4.0758667 74.31143 52.673126 115.41922 66.88623c41.107758 14.213135 87.33621 -6.255249 131.22745 18.392548c43.891174 24.647766 85.541016 104.42517 132.11981 129.49414c46.578735 25.069 122.79401 17.433075 147.35284 20.919708" fill-rule="evenodd"/><path fill="#8afbe6" d="m107.94317 462.95483c24.561165 -19.773773 104.0835 -99.3696 147.367 -118.64261c43.283493 -19.27301 74.30324 0.32443237 112.33397 3.0045776c38.0307 2.6801758 70.149414 -7.52652 115.8504 13.076416c45.70096 20.602966 131.96292 92.11774 158.3555 110.54129" fill-rule="evenodd"/><path stroke="#21caab" stroke-width="4.0" stroke-linejoin="round" stroke-linecap="butt" d="m107.94317 462.95483c24.561165 -19.773773 104.0835 -99.3696 147.367 -118.64261c43.283493 -19.27301 74.30324 0.32443237 112.33397 3.0045776c38.0307 2.6801758 70.149414 -7.52652 115.8504 13.076416c45.70096 20.602966 131.96292 92.11774 158.3555 110.54129" fill-rule="evenodd"/><path fill="#000000" fill-opacity="0.0" d="m68.650925 41.204723l764.5984 0l0 81.07086l-764.5984 0z" fill-rule="evenodd"/><path fill="#000000" d="m93.150925 68.92535l0 21.125l5.8125 0l0 6.234375l-19.4375 0l0 -6.234375l5.859375 0l0 -21.125l-5.859375 0l0 -6.234375l19.4375 0l0 6.234375l-5.8125 0zm26.840302 1.15625q4.796875 0 7.75 2.875q2.953125 2.875 2.953125 8.546875l0 14.78125l-7.484375 0l0 -13.625q0 -3.078125 -1.34375 -4.59375q-1.34375 -1.515625 -3.890625 -1.515625q-2.84375 0 -4.53125 1.765625q-1.671875 1.75 -1.671875 5.203125l0 12.765625l-7.484375 0l0 -25.828125l7.15625 0l0 3.03125q1.484375 -1.640625 3.6875 -2.515625q2.21875 -0.890625 4.859375 -0.890625zm30.237305 26.59375q-4.125 0 -7.421875 -1.703125q-3.28125 -1.71875 -5.140625 -4.734375q-1.84375 -3.03125 -1.84375 -6.859375q0 -3.84375 1.84375 -6.859375q1.859375 -3.03125 5.140625 -4.734375q3.296875 -1.703125 7.421875 -1.703125q4.078125 0 7.125 1.703125q3.046875 1.703125 4.4375 4.875l-5.796875 3.109375q-2.015625 -3.546875 -5.8125 -3.546875q-2.9375 0 -4.859375 1.921875q-1.90625 1.921875 -1.90625 5.234375q0 3.3125 1.90625 5.234375q1.921875 1.90625 4.859375 1.90625q3.84375 0 5.8125 -3.546875l5.796875 3.171875q-1.390625 3.0625 -4.4375 4.796875q-3.046875 1.734375 -7.125 1.734375zm23.039932 -22.8125q1.34375 -1.859375 3.625 -2.8125q2.28125 -0.96875 5.25 -0.96875l0 6.90625q-1.25 -0.09375 -1.671875 -0.09375q-3.21875 0 -5.046875 1.796875q-1.828125 1.796875 -1.828125 5.40625l0 12.1875l-7.484375 0l0 -25.828125l7.15625 0l0 3.40625zm26.115417 16.8125q2.015625 0 3.5625 -0.59375q1.5625 -0.609375 2.90625 -1.90625l3.984375 4.3125q-3.640625 4.1875 -10.65625 4.1875q-4.359375 0 -7.71875 -1.703125q-3.359375 -1.71875 -5.1875 -4.734375q-1.828125 -3.03125 -1.828125 -6.859375q0 -3.796875 1.796875 -6.84375q1.8125 -3.046875 4.953125 -4.75q3.140625 -1.703125 7.078125 -1.703125q3.703125 0 6.71875 1.5625q3.03125 1.546875 4.828125 4.5q1.796875 2.953125 1.796875 6.984375l-19.109375 3.703125q0.828125 1.921875 2.578125 2.890625q1.75 0.953125 4.296875 0.953125zm-1.109375 -14.9375q-2.828125 0 -4.609375 1.828125q-1.78125 1.828125 -1.875 5.03125l12.578125 -2.4375q-0.53125 -2.015625 -2.171875 -3.21875q-1.625 -1.203125 -3.921875 -1.203125zm51.45993 -5.65625q4.84375 0 7.703125 2.859375q2.859375 2.84375 2.859375 8.5625l0 14.78125l-7.5 0l0 -13.625q0 -3.078125 -1.265625 -4.59375q-1.265625 -1.515625 -3.625 -1.515625q-2.640625 0 -4.1875 1.71875q-1.53125 1.703125 -1.53125 5.0625l0 12.953125l-7.484375 0l0 -13.625q0 -6.109375 -4.890625 -6.109375q-2.59375 0 -4.140625 1.71875q-1.53125 1.703125 -1.53125 5.0625l0 12.953125l-7.484375 0l0 -25.828125l7.15625 0l0 2.984375q1.4375 -1.640625 3.515625 -2.5q2.09375 -0.859375 4.59375 -0.859375q2.734375 0 4.9375 1.078125q2.21875 1.078125 3.5625 3.140625q1.578125 -2.015625 4.0 -3.109375q2.421875 -1.109375 5.3125 -1.109375zm30.577576 20.59375q2.015625 0 3.5625 -0.59375q1.5625 -0.609375 2.90625 -1.90625l3.984375 4.3125q-3.640625 4.1875 -10.65625 4.1875q-4.359375 0 -7.71875 -1.703125q-3.359375 -1.71875 -5.1875 -4.734375q-1.828125 -3.03125 -1.828125 -6.859375q0 -3.796875 1.796875 -6.84375q1.8125 -3.046875 4.953125 -4.75q3.140625 -1.703125 7.078125 -1.703125q3.703125 0 6.71875 1.5625q3.03125 1.546875 4.828125 4.5q1.796875 2.953125 1.796875 6.984375l-19.109375 3.703125q0.828125 1.921875 2.578125 2.890625q1.75 0.953125 4.296875 0.953125zm-1.109375 -14.9375q-2.828125 0 -4.609375 1.828125q-1.78125 1.828125 -1.875 5.03125l12.578125 -2.4375q-0.53125 -2.015625 -2.171875 -3.21875q-1.625 -1.203125 -3.921875 -1.203125zm34.08493 -5.65625q4.796875 0 7.75 2.875q2.953125 2.875 2.953125 8.546875l0 14.78125l-7.484375 0l0 -13.625q0 -3.078125 -1.34375 -4.59375q-1.34375 -1.515625 -3.890625 -1.515625q-2.84375 0 -4.53125 1.765625q-1.671875 1.75 -1.671875 5.203125l0 12.765625l-7.484375 0l0 -25.828125l7.15625 0l0 3.03125q1.484375 -1.640625 3.6875 -2.515625q2.21875 -0.890625 4.859375 -0.890625zm33.027435 24.953125q-1.109375 0.8125 -2.71875 1.234375q-1.609375 0.40625 -3.34375 0.40625q-4.65625 0 -7.15625 -2.34375q-2.484375 -2.359375 -2.484375 -6.921875l0 -22.65625l7.484375 0l0 6.28125l6.390625 0l0 5.765625l-6.390625 0l0 10.515625q0 1.625 0.8125 2.515625q0.828125 0.890625 2.359375 0.890625q1.734375 0 3.078125 -0.96875l1.96875 5.28125zm29.600677 -24.578125l0 25.828125l-7.140625 0l0 -2.96875q-2.78125 3.359375 -8.0625 3.359375q-3.65625 0 -6.609375 -1.625q-2.953125 -1.640625 -4.640625 -4.65625q-1.671875 -3.03125 -1.671875 -7.015625q0 -3.984375 1.671875 -7.0q1.6875 -3.03125 4.640625 -4.65625q2.953125 -1.640625 6.609375 -1.640625q4.9375 0 7.71875 3.109375l0 -2.734375l7.484375 0zm-13.90625 20.0625q2.828125 0 4.6875 -1.9375q1.875 -1.9375 1.875 -5.203125q0 -3.265625 -1.875 -5.203125q-1.859375 -1.953125 -4.6875 -1.953125q-2.890625 0 -4.765625 1.953125q-1.859375 1.9375 -1.859375 5.203125q0 3.265625 1.859375 5.203125q1.875 1.9375 4.765625 1.9375zm30.088806 6.15625q-4.359375 0 -6.8125 -2.328125q-2.453125 -2.328125 -2.453125 -6.609375l0 -27.0625l7.484375 0l0 26.640625q0 1.625 0.84375 2.515625q0.84375 0.890625 2.375 0.890625q0.578125 0 1.171875 -0.140625q0.609375 -0.15625 0.9375 -0.34375l0.34375 5.8125q-1.875 0.625 -3.890625 0.625zm33.213318 -27.75l0 21.125l5.8125 0l0 6.234375l-19.4375 0l0 -6.234375l5.859375 0l0 -21.125l-5.859375 0l0 -6.234375l19.4375 0l0 6.234375l-5.8125 0zm44.2153 1.15625q4.84375 0 7.703125 2.859375q2.859375 2.84375 2.859375 8.5625l0 14.78125l-7.5 0l0 -13.625q0 -3.078125 -1.265625 -4.59375q-1.265625 -1.515625 -3.625 -1.515625q-2.640625 0 -4.1875 1.71875q-1.53125 1.703125 -1.53125 5.0625l0 12.953125l-7.484375 0l0 -13.625q0 -6.109375 -4.890625 -6.109375q-2.59375 0 -4.140625 1.71875q-1.53125 1.703125 -1.53125 5.0625l0 12.953125l-7.484375 0l0 -25.828125l7.15625 0l0 2.984375q1.4375 -1.640625 3.515625 -2.5q2.09375 -0.859375 4.59375 -0.859375q2.734375 0 4.9375 1.078125q2.21875 1.078125 3.5625 3.140625q1.578125 -2.015625 4.0 -3.109375q2.421875 -1.109375 5.3125 -1.109375zm32.53958 0q3.59375 0 6.546875 1.65625q2.953125 1.65625 4.6250305 4.65625q1.6875 3.0 1.6875 6.984375q0 3.984375 -1.6875 6.984375q-1.6719055 3.0 -4.6250305 4.65625q-2.953125 1.65625 -6.546875 1.65625q-4.9375 0 -7.78125 -3.125l0 12.046883l-7.484375 0l0 -35.140633l7.15625 0l0 2.984375q2.78125 -3.359375 8.109375 -3.359375zm-1.296875 20.4375q2.875 0 4.71875 -1.9375q1.859375 -1.9375 1.859375 -5.203125q0 -3.265625 -1.859375 -5.203125q-1.84375 -1.953125 -4.71875 -1.953125q-2.875 0 -4.734375 1.953125q-1.84375 1.9375 -1.84375 5.203125q0 3.265625 1.84375 5.203125q1.859375 1.9375 4.734375 1.9375zm45.35446 -20.0625l0 25.828125l-7.140625 0l0 -2.96875q-2.78125 3.359375 -8.0625 3.359375q-3.65625 0 -6.609375 -1.625q-2.953125 -1.640625 -4.640625 -4.65625q-1.671875 -3.03125 -1.671875 -7.015625q0 -3.984375 1.671875 -7.0q1.6875 -3.03125 4.640625 -4.65625q2.953125 -1.640625 6.609375 -1.640625q4.9375 0 7.71875 3.109375l0 -2.734375l7.484375 0zm-13.90625 20.0625q2.828125 0 4.6875 -1.9375q1.875 -1.9375 1.875 -5.203125q0 -3.265625 -1.875 -5.203125q-1.859375 -1.953125 -4.6875 -1.953125q-2.890625 0 -4.765625 1.953125q-1.859375 1.9375 -1.859375 5.203125q0 3.265625 1.859375 5.203125q1.875 1.9375 4.765625 1.9375zm33.307556 6.15625q-4.125 0 -7.421875 -1.703125q-3.28125 -1.71875 -5.140625 -4.734375q-1.84375 -3.03125 -1.84375 -6.859375q0 -3.84375 1.84375 -6.859375q1.859375 -3.03125 5.140625 -4.734375q3.296875 -1.703125 7.421875 -1.703125q4.078125 0 7.125 1.703125q3.046875 1.703125 4.4375 4.875l-5.796875 3.109375q-2.015625 -3.546875 -5.8125 -3.546875q-2.9375 0 -4.859375 1.921875q-1.90625 1.921875 -1.90625 5.234375q0 3.3125 1.90625 5.234375q1.921875 1.90625 4.859375 1.90625q3.84375 0 5.8125 -3.546875l5.796875 3.171875q-1.390625 3.0625 -4.4375 4.796875q-3.046875 1.734375 -7.125 1.734375zm31.25415 -1.640625q-1.109375 0.8125 -2.71875 1.234375q-1.609375 0.40625 -3.34375 0.40625q-4.65625 0 -7.15625 -2.34375q-2.484375 -2.359375 -2.484375 -6.921875l0 -22.65625l7.484375 0l0 6.28125l6.390625 0l0 5.765625l-6.390625 0l0 10.515625q0 1.625 0.8125 2.515625q0.828125 0.890625 2.359375 0.890625q1.734375 0 3.078125 -0.96875l1.96875 5.28125z" fill-rule="nonzero"/><path fill="#eeeeee" d="m98.81102 443.94095l791.46454 0l0 198.83463l-791.46454 0z" fill-rule="evenodd"/><path fill="#eeeeee" d="m100.177635 445.63773c13.374359 -8.205658 42.980354 -48.626038 80.24613 -49.233887c37.265778 -0.60787964 89.303925 40.434296 143.34857 45.58667c54.044647 5.152405 129.97983 -9.1354065 180.91931 -14.672302c50.939453 -5.5369263 83.76849 -20.953522 124.71753 -18.549103c40.949036 2.4044495 77.526855 26.911255 120.976746 32.975647c43.44995 6.064392 116.43573 2.8422546 139.72284 3.4107056" fill-rule="evenodd"/><path stroke="#595959" stroke-width="4.0" stroke-linejoin="round" stroke-linecap="butt" d="m100.177635 445.63773c13.374359 -8.205658 42.980354 -48.626038 80.24613 -49.233887c37.265778 -0.60787964 89.303925 40.434296 143.34857 45.58667c54.044647 5.152405 129.97983 -9.1354065 180.91931 -14.672302c50.939453 -5.5369263 83.76849 -20.953522 124.71753 -18.549103c40.949036 2.4044495 77.526855 26.911255 120.976746 32.975647c43.44995 6.064392 116.43573 2.8422546 139.72284 3.4107056" fill-rule="evenodd"/><path fill="#000000" fill-opacity="0.0" d="m98.81078 642.7848l791.46454 0l0 46.58264l-791.46454 0z" fill-rule="evenodd"/><path fill="#595959" d="m464.3171 676.9159l0 -19.15625l-7.40625 0l0 -1.921875l17.03125 0l0 1.921875l-7.40625 0l0 19.15625l-2.21875 0zm12.735931 0l0 -15.8125l2.140625 0l0 15.8125l-2.140625 0zm1.078125 -19.296875q-0.65625 0 -1.109375 -0.453125q-0.453125 -0.453125 -0.453125 -1.078125q0 -0.640625 0.453125 -1.078125q0.453125 -0.4375 1.109375 -0.4375q0.65625 0 1.109375 0.421875q0.453125 0.421875 0.453125 1.0625q0 0.65625 -0.4375 1.109375q-0.4375 0.453125 -1.125 0.453125zm7.0213013 19.296875l0 -15.8125l2.046875 0l0 4.28125l-0.328125 -0.75q0.71875 -1.71875 2.328125 -2.6875q1.609375 -0.984375 3.8125 -0.984375q2.3125 0 3.9375 1.15625q1.625 1.15625 2.109375 3.46875l-0.84375 -0.328125q0.6875 -1.921875 2.453125 -3.109375q1.765625 -1.1875 4.234375 -1.1875q1.921875 0 3.34375 0.734375q1.4375 0.734375 2.234375 2.25q0.796875 1.5 0.796875 3.78125l0 9.1875l-2.125 0l0 -8.96875q0 -2.5 -1.203125 -3.78125q-1.1875 -1.28125 -3.34375 -1.28125q-1.625 0 -2.828125 0.6875q-1.1875 0.671875 -1.84375 1.953125q-0.640625 1.28125 -0.640625 3.078125l0 8.3125l-2.125 0l0 -8.96875q0 -2.5 -1.21875 -3.78125q-1.203125 -1.28125 -3.359375 -1.28125q-1.59375 0 -2.8125 0.6875q-1.203125 0.671875 -1.84375 1.953125q-0.640625 1.28125 -0.640625 3.078125l0 8.3125l-2.140625 0zm38.64917 0.15625q-2.46875 0 -4.328125 -1.03125q-1.859375 -1.046875 -2.921875 -2.859375q-1.046875 -1.828125 -1.046875 -4.1875q0 -2.34375 1.0 -4.140625q1.015625 -1.8125 2.765625 -2.84375q1.765625 -1.046875 3.96875 -1.046875q2.21875 0 3.953125 1.015625q1.734375 1.0 2.71875 2.828125q1.0 1.8125 1.0 4.1875q0 0.15625 -0.015625 0.328125q-0.015625 0.15625 -0.015625 0.34375l-13.75 0l0 -1.609375l12.609375 0l-0.84375 0.640625q0 -1.71875 -0.734375 -3.046875q-0.734375 -1.34375 -2.0 -2.09375q-1.265625 -0.765625 -2.921875 -0.765625q-1.625 0 -2.921875 0.765625q-1.296875 0.75 -2.015625 2.109375q-0.71875 1.34375 -0.71875 3.09375l0 0.328125q0 1.8125 0.796875 3.1875q0.796875 1.359375 2.21875 2.125q1.4375 0.765625 3.265625 0.765625q1.453125 0 2.703125 -0.5q1.25 -0.515625 2.15625 -1.578125l1.203125 1.390625q-1.0625 1.265625 -2.640625 1.9375q-1.578125 0.65625 -3.484375 0.65625z" fill-rule="nonzero"/><path fill="#000000" fill-opacity="0.0" d="m41.771652 645.30444l0 -433.16534l51.086617 0l0 433.16534z" fill-rule="evenodd"/><path fill="#595959" d="m78.154755 491.525l-21.078129 0l0 -7.890625q0 -4.0 1.921875 -6.296875q1.90625 -2.3125 5.312504 -2.3125q2.21875 0 3.828125 1.046875q1.609375 1.03125 2.46875 2.96875q0.859375 1.921875 0.859375 4.59375l0 6.65625l-1.015625 -0.984375l7.703125 0l0 2.21875zm0 -14.390625l-7.640625 5.421875l0 -2.40625l7.640625 -5.453125l0 2.4375zm-7.53125 12.171875l-1.046875 0.984375l0 -6.59375q0 -3.15625 -1.375 -4.796875q-1.390625 -1.640625 -3.890625 -1.640625q-2.5312538 0 -3.9218788 1.640625q-1.390625 1.640625 -1.390625 4.796875l0 6.59375l-1.046875 -0.984375l12.671879 0zm7.6875 -25.800354q0 2.46875 -1.03125 4.328125q-1.046875 1.859375 -2.859375 2.921875q-1.828125 1.046875 -4.1875 1.046875q-2.34375 0 -4.140625 -1.0q-1.8125 -1.015625 -2.8437538 -2.765625q-1.046875 -1.765625 -1.046875 -3.96875q0 -2.21875 1.015625 -3.953125q1.0000038 -1.734375 2.8281288 -2.71875q1.8125 -1.0 4.1875 -1.0q0.15625 0 0.328125 0.015625q0.15625 0.015625 0.34375 0.015625l0 13.75l-1.609375 0l0 -12.609375l0.640625 0.84375q-1.71875 0 -3.046875 0.734375q-1.34375 0.734375 -2.09375 2.0q-0.765625 1.265625 -0.765625 2.921875q0 1.625 0.765625 2.921875q0.75 1.296875 2.109375 2.015625q1.34375 0.71875 3.09375 0.71875l0.328125 0q1.8125 0 3.1875 -0.796875q1.359375 -0.796875 2.125 -2.21875q0.765625 -1.4375 0.765625 -3.265625q0 -1.453125 -0.5 -2.703125q-0.515625 -1.25 -1.578125 -2.15625l1.390625 -1.203125q1.265625 1.0625 1.9375 2.640625q0.65625 1.578125 0.65625 3.484375zm-0.15625 -15.244354l-15.812504 7.015625l0 -2.234375l14.671879 -6.4375l0 1.0625l-14.671879 -6.546875l0 -2.109375l15.812504 7.046875l0 2.203125zm0.15625 -18.50827q0 2.46875 -1.03125 4.328125q-1.046875 1.859375 -2.859375 2.921875q-1.828125 1.046875 -4.1875 1.046875q-2.34375 0 -4.140625 -1.0q-1.8125 -1.015625 -2.8437538 -2.765625q-1.046875 -1.765625 -1.046875 -3.96875q0 -2.21875 1.015625 -3.953125q1.0000038 -1.734375 2.8281288 -2.71875q1.8125 -1.0 4.1875 -1.0q0.15625 0 0.328125 0.015625q0.15625 0.015625 0.34375 0.015625l0 13.75l-1.609375 0l0 -12.609375l0.640625 0.84375q-1.71875 0 -3.046875 0.734375q-1.34375 0.734375 -2.09375 2.0q-0.765625 1.265625 -0.765625 2.921875q0 1.625 0.765625 2.921875q0.75 1.296875 2.109375 2.015625q1.34375 0.71875 3.09375 0.71875l0.328125 0q1.8125 0 3.1875 -0.796875q1.359375 -0.796875 2.125 -2.21875q0.765625 -1.4375 0.765625 -3.265625q0 -1.453125 -0.5 -2.703125q-0.515625 -1.25 -1.578125 -2.15625l1.390625 -1.203125q1.265625 1.0625 1.9375 2.640625q0.65625 1.578125 0.65625 3.484375zm-0.15625 -11.482971l-15.812504 0l0 -2.046875l4.343754 0l-0.8125 0.328125q-1.71875 -0.75 -2.6875038 -2.40625q-0.984375 -1.65625 -0.984375 -3.9375q0 -1.9375 0.734375 -3.390625q0.734375 -1.453125 2.2500038 -2.28125q1.5 -0.828125 3.78125 -0.828125l9.1875 0l0 2.125l-8.96875 0q-2.5 0 -3.78125 1.25q-1.28125 1.25 -1.28125 3.515625q0 1.6875 0.6875 2.9375q0.671875 1.25 1.953125 1.921875q1.28125 0.671875 3.078125 0.671875l8.3125 0l0 2.140625zm0.15625 -26.885193q0 2.015625 -0.75 3.53125q-0.765625 1.5 -2.265625 2.328125q-1.5 0.828125 -3.765625 0.828125l-9.187504 0l0 -2.140625l8.953129 0q2.53125 0 3.8125 -1.25q1.265625 -1.25 1.265625 -3.5q0 -1.65625 -0.671875 -2.875q-0.671875 -1.21875 -1.96875 -1.859375q-1.296875 -0.65625 -3.109375 -0.65625l-8.281254 0l0 -2.140625l15.812504 0l0 2.046875l-4.328125 0l0.78125 -0.328125q1.734375 0.75 2.71875 2.328125q0.984375 1.578125 0.984375 3.6875zm0 -20.405396q0 2.46875 -1.03125 4.328125q-1.046875 1.859375 -2.859375 2.921875q-1.828125 1.046875 -4.1875 1.046875q-2.34375 0 -4.140625 -1.0q-1.8125 -1.015625 -2.8437538 -2.765625q-1.046875 -1.765625 -1.046875 -3.96875q0 -2.21875 1.015625 -3.953125q1.0000038 -1.734375 2.8281288 -2.71875q1.8125 -1.0 4.1875 -1.0q0.15625 0 0.328125 0.015625q0.15625 0.015625 0.34375 0.015625l0 13.75l-1.609375 0l0 -12.609375l0.640625 0.84375q-1.71875 0 -3.046875 0.734375q-1.34375 0.734375 -2.09375 2.0q-0.765625 1.265625 -0.765625 2.921875q0 1.625 0.765625 2.921875q0.75 1.296875 2.109375 2.015625q1.34375 0.71875 3.09375 0.71875l0.328125 0q1.8125 0 3.1875 -0.796875q1.359375 -0.796875 2.125 -2.21875q0.765625 -1.4375 0.765625 -3.265625q0 -1.453125 -0.5 -2.703125q-0.515625 -1.25 -1.578125 -2.15625l1.390625 -1.203125q1.265625 1.0625 1.9375 2.640625q0.65625 1.578125 0.65625 3.484375z" fill-rule="nonzero"/><path fill="#29caab" d="m694.34906 212.19652l0 0c0 -3.98349 3.229248 -7.212738 7.2127686 -7.212738l181.51154 0c1.9129028 0 3.7474976 0.7599182 5.1001587 2.112564c1.3526611 1.3526459 2.1125488 3.1872406 2.1125488 5.100174l0 28.850113c0 3.98349 -3.229248 7.212738 -7.2127075 7.212738l-181.51154 0c-3.9835205 0 -7.2127686 -3.229248 -7.2127686 -7.212738z" fill-rule="evenodd"/><path fill="#ffffff" d="m731.6101 234.19955l0 -14.265625l6.1875 0q1.90625 0 3.296875 0.625q1.390625 0.609375 2.140625 1.78125q0.75 1.15625 0.75 2.765625q0 1.59375 -0.75 2.765625q-0.75 1.15625 -2.140625 1.78125q-1.390625 0.609375 -3.296875 0.609375l-4.34375 0l1.46875 -1.484375l0 5.421875l-3.3125 0zm3.3125 -5.0625l-1.46875 -1.5625l4.15625 0q1.53125 0 2.28125 -0.65625q0.75 -0.65625 0.75 -1.8125q0 -1.1875 -0.75 -1.828125q-0.75 -0.65625 -2.28125 -0.65625l-4.15625 0l1.46875 -1.578125l0 8.09375zm11.190674 5.0625l0 -10.96875l3.03125 0l0 3.09375l-0.421875 -0.890625q0.484375 -1.171875 1.5625 -1.765625q1.09375 -0.609375 2.640625 -0.609375l0 2.9375q-0.203125 -0.015625 -0.375 -0.015625q-0.15625 -0.015625 -0.34375 -0.015625q-1.296875 0 -2.109375 0.75q-0.796875 0.734375 -0.796875 2.3125l0 5.171875l-3.1875 0zm13.823547 0.15625q-1.75 0 -3.109375 -0.734375q-1.359375 -0.734375 -2.140625 -2.0q-0.78125 -1.28125 -0.78125 -2.90625q0 -1.65625 0.78125 -2.921875q0.78125 -1.28125 2.140625 -2.0q1.359375 -0.734375 3.109375 -0.734375q1.734375 0 3.09375 0.734375q1.375 0.71875 2.140625 1.984375q0.78125 1.265625 0.78125 2.9375q0 1.625 -0.78125 2.90625q-0.765625 1.265625 -2.140625 2.0q-1.359375 0.734375 -3.09375 0.734375zm0 -2.609375q0.796875 0 1.421875 -0.359375q0.640625 -0.375 1.0 -1.046875q0.375 -0.6875 0.375 -1.625q0 -0.953125 -0.375 -1.625q-0.359375 -0.6875 -1.0 -1.046875q-0.625 -0.359375 -1.421875 -0.359375q-0.796875 0 -1.4375 0.359375q-0.625 0.359375 -1.0 1.046875q-0.375 0.671875 -0.375 1.625q0 0.9375 0.375 1.625q0.375 0.671875 1.0 1.046875q0.640625 0.359375 1.4375 0.359375zm8.137024 2.453125l0 -10.96875l3.03125 0l0 3.0l-0.5625 -0.875q0.5625 -1.125 1.609375 -1.703125q1.0625 -0.59375 2.40625 -0.59375q1.515625 0 2.640625 0.765625q1.125 0.765625 1.5 2.34375l-1.125 -0.3125q0.546875 -1.28125 1.765625 -2.03125q1.21875 -0.765625 2.78125 -0.765625q1.3125 0 2.3125 0.53125q1.015625 0.515625 1.59375 1.59375q0.578125 1.0625 0.578125 2.734375l0 6.28125l-3.171875 0l0 -5.796875q0 -1.3125 -0.5625 -1.9375q-0.546875 -0.640625 -1.546875 -0.640625q-0.6875 0 -1.25 0.3125q-0.546875 0.3125 -0.859375 0.953125q-0.296875 0.625 -0.296875 1.609375l0 5.5l-3.171875 0l0 -5.796875q0 -1.3125 -0.546875 -1.9375q-0.546875 -0.640625 -1.53125 -0.640625q-0.703125 0 -1.25 0.3125q-0.546875 0.3125 -0.859375 0.953125q-0.296875 0.625 -0.296875 1.609375l0 5.5l-3.1875 0zm26.690002 0.15625q-1.75 0 -3.109375 -0.734375q-1.359375 -0.734375 -2.140625 -2.0q-0.78125 -1.28125 -0.78125 -2.90625q0 -1.65625 0.78125 -2.921875q0.78125 -1.28125 2.140625 -2.0q1.359375 -0.734375 3.109375 -0.734375q1.734375 0 3.09375 0.734375q1.375 0.71875 2.140625 1.984375q0.78125 1.265625 0.78125 2.9375q0 1.625 -0.78125 2.90625q-0.765625 1.265625 -2.140625 2.0q-1.359375 0.734375 -3.09375 0.734375zm0 -2.609375q0.796875 0 1.421875 -0.359375q0.640625 -0.375 1.0 -1.046875q0.375 -0.6875 0.375 -1.625q0 -0.953125 -0.375 -1.625q-0.359375 -0.6875 -1.0 -1.046875q-0.625 -0.359375 -1.421875 -0.359375q-0.796875 0 -1.4375 0.359375q-0.625 0.359375 -1.0 1.046875q-0.375 0.671875 -0.375 1.625q0 0.9375 0.375 1.625q0.375 0.671875 1.0 1.046875q0.640625 0.359375 1.4375 0.359375zm12.621399 2.609375q-1.9375 0 -3.015625 -0.984375q-1.078125 -0.984375 -1.078125 -2.9375l0 -9.625l3.171875 0l0 9.578125q0 0.6875 0.359375 1.078125q0.375 0.375 1.015625 0.375q0.75 0 1.28125 -0.40625l0.859375 2.234375q-0.5 0.34375 -1.1875 0.515625q-0.671875 0.171875 -1.40625 0.171875zm-5.796875 -8.671875l0 -2.453125l7.609375 0l0 2.453125l-7.609375 0zm10.182373 8.515625l0 -10.96875l3.1875 0l0 10.96875l-3.1875 0zm1.578125 -12.5q-0.875 0 -1.421875 -0.5q-0.546875 -0.515625 -0.546875 -1.265625q0 -0.765625 0.546875 -1.265625q0.546875 -0.515625 1.421875 -0.515625q0.890625 0 1.4375 0.484375q0.546875 0.46875 0.546875 1.234375q0 0.78125 -0.546875 1.3125q-0.53125 0.515625 -1.4375 0.515625zm9.778137 12.65625q-1.75 0 -3.109375 -0.734375q-1.359375 -0.734375 -2.140625 -2.0q-0.78125 -1.28125 -0.78125 -2.90625q0 -1.65625 0.78125 -2.921875q0.78125 -1.28125 2.140625 -2.0q1.359375 -0.734375 3.109375 -0.734375q1.734375 0 3.09375 0.734375q1.375 0.71875 2.140625 1.984375q0.78125 1.265625 0.78125 2.9375q0 1.625 -0.78125 2.90625q-0.765625 1.265625 -2.140625 2.0q-1.359375 0.734375 -3.09375 0.734375zm0 -2.609375q0.796875 0 1.421875 -0.359375q0.640625 -0.375 1.0 -1.046875q0.375 -0.6875 0.375 -1.625q0 -0.953125 -0.375 -1.625q-0.359375 -0.6875 -1.0 -1.046875q-0.625 -0.359375 -1.421875 -0.359375q-0.796875 0 -1.4375 0.359375q-0.625 0.359375 -1.0 1.046875q-0.375 0.671875 -0.375 1.625q0 0.9375 0.375 1.625q0.375 0.671875 1.0 1.046875q0.640625 0.359375 1.4375 0.359375zm8.137085 2.453125l0 -10.96875l3.03125 0l0 3.03125l-0.5625 -0.90625q0.59375 -1.109375 1.6875 -1.703125q1.109375 -0.59375 2.515625 -0.59375q1.296875 0 2.328125 0.53125q1.03125 0.515625 1.625 1.59375q0.59375 1.0625 0.59375 2.734375l0 6.28125l-3.1875 0l0 -5.796875q0 -1.3125 -0.578125 -1.9375q-0.578125 -0.640625 -1.640625 -0.640625q-0.75 0 -1.359375 0.3125q-0.59375 0.3125 -0.9375 0.96875q-0.328125 0.65625 -0.328125 1.671875l0 5.421875l-3.1875 0zm17.777344 0.15625q-1.40625 0 -2.703125 -0.328125q-1.296875 -0.34375 -2.046875 -0.84375l1.0625 -2.28125q0.75 0.46875 1.78125 0.765625q1.03125 0.28125 2.03125 0.28125q1.09375 0 1.546875 -0.25q0.46875 -0.265625 0.46875 -0.734375q0 -0.390625 -0.359375 -0.578125q-0.34375 -0.203125 -0.9375 -0.296875q-0.59375 -0.109375 -1.296875 -0.203125q-0.703125 -0.109375 -1.421875 -0.28125q-0.71875 -0.171875 -1.3125 -0.515625q-0.578125 -0.359375 -0.9375 -0.9375q-0.359375 -0.59375 -0.359375 -1.53125q0 -1.046875 0.59375 -1.84375q0.609375 -0.796875 1.75 -1.25q1.140625 -0.46875 2.734375 -0.46875q1.125 0 2.28125 0.25q1.171875 0.25 1.9375 0.71875l-1.0625 2.265625q-0.796875 -0.46875 -1.609375 -0.640625q-0.796875 -0.1875 -1.546875 -0.1875q-1.0625 0 -1.546875 0.296875q-0.484375 0.28125 -0.484375 0.734375q0 0.40625 0.34375 0.609375q0.359375 0.203125 0.953125 0.328125q0.59375 0.125 1.296875 0.21875q0.703125 0.078125 1.40625 0.265625q0.71875 0.1875 1.296875 0.53125q0.59375 0.328125 0.953125 0.90625q0.375 0.578125 0.375 1.515625q0 1.03125 -0.625 1.8125q-0.609375 0.78125 -1.765625 1.234375q-1.140625 0.4375 -2.796875 0.4375z" fill-rule="nonzero"/><path fill="#ff00ff" d="m694.3499 160.68733l0 0c0 -3.98349 3.229248 -7.2127533 7.2127686 -7.2127533l181.51154 0c1.9129028 0 3.7474976 0.7599182 5.1001587 2.112564c1.3526611 1.3526611 2.1125488 3.1872406 2.1125488 5.100189l0 28.850098c0 3.98349 -3.229248 7.212738 -7.2127075 7.212738l-181.51154 0c-3.9835205 0 -7.2127686 -3.229248 -7.2127686 -7.212738z" fill-rule="evenodd"/><path fill="#ffffff" d="m733.3113 183.29199l0 -15.8125l3.03125 0l6.71875 11.15625l-1.59375 0l6.609375 -11.15625l3.0 0l0.046875 15.8125l-3.4375 0l-0.015625 -10.546875l0.625 0l-5.28125 8.875l-1.640625 0l-5.40625 -8.875l0.78125 0l0 10.546875l-3.4375 0zm28.76532 0l0 -2.375l-0.234375 -0.515625l0 -4.25q0 -1.125 -0.6875 -1.75q-0.6875 -0.640625 -2.109375 -0.640625q-0.96875 0 -1.90625 0.3125q-0.9375 0.296875 -1.59375 0.8125l-1.265625 -2.453125q1.0 -0.703125 2.390625 -1.078125q1.40625 -0.390625 2.859375 -0.390625q2.765625 0 4.296875 1.3125q1.546875 1.3125 1.546875 4.078125l0 6.9375l-3.296875 0zm-3.703125 0.1875q-1.421875 0 -2.4375 -0.484375q-1.015625 -0.5 -1.5625 -1.328125q-0.546875 -0.84375 -0.546875 -1.875q0 -1.078125 0.53125 -1.890625q0.53125 -0.8125 1.6875 -1.28125q1.15625 -0.46875 3.0 -0.46875l3.234375 0l0 2.0625l-2.84375 0q-1.25 0 -1.71875 0.40625q-0.453125 0.40625 -0.453125 1.015625q0 0.671875 0.53125 1.078125q0.53125 0.390625 1.453125 0.390625q0.890625 0 1.578125 -0.421875q0.703125 -0.421875 1.015625 -1.234375l0.546875 1.625q-0.375 1.1875 -1.390625 1.796875q-1.015625 0.609375 -2.625 0.609375zm10.180786 -0.1875l0 -12.140625l3.359375 0l0 3.421875l-0.46875 -0.984375q0.546875 -1.296875 1.734375 -1.953125q1.203125 -0.671875 2.921875 -0.671875l0 3.25q-0.234375 -0.015625 -0.421875 -0.03125q-0.171875 -0.015625 -0.375 -0.015625q-1.4375 0 -2.34375 0.828125q-0.890625 0.828125 -0.890625 2.5625l0 5.734375l-3.515625 0zm12.547119 -2.484375l0.09375 -4.296875l5.671875 -5.359375l4.203125 0l-5.453125 5.53125l-1.828125 1.484375l-2.6875 2.640625zm-2.90625 2.484375l0 -16.75l3.515625 0l0 16.75l-3.515625 0zm9.046875 0l-4.109375 -5.109375l2.21875 -2.71875l6.171875 7.828125l-4.28125 0zm11.253723 0.1875q-2.078125 0 -3.65625 -0.8125q-1.5625 -0.8125 -2.421875 -2.21875q-0.859375 -1.421875 -0.859375 -3.234375q0 -1.828125 0.84375 -3.234375q0.859375 -1.40625 2.3125 -2.203125q1.46875 -0.8125 3.328125 -0.8125q1.78125 0 3.21875 0.765625q1.4375 0.75 2.265625 2.15625q0.84375 1.40625 0.84375 3.375q0 0.203125 -0.03125 0.46875q-0.015625 0.25 -0.046875 0.484375l-9.859375 0l0 -2.0625l8.015625 0l-1.359375 0.609375q0 -0.9375 -0.390625 -1.640625q-0.375 -0.703125 -1.0625 -1.09375q-0.671875 -0.390625 -1.578125 -0.390625q-0.890625 0 -1.59375 0.390625q-0.6875 0.390625 -1.078125 1.109375q-0.375 0.703125 -0.375 1.671875l0 0.546875q0 1.0 0.4375 1.75q0.453125 0.75 1.25 1.15625q0.796875 0.390625 1.890625 0.390625q0.96875 0 1.703125 -0.296875q0.734375 -0.296875 1.34375 -0.875l1.875 2.03125q-0.84375 0.953125 -2.109375 1.46875q-1.265625 0.5 -2.90625 0.5zm13.184387 0q-2.140625 0 -3.34375 -1.09375q-1.203125 -1.109375 -1.203125 -3.265625l0 -10.65625l3.53125 0l0 10.609375q0 0.765625 0.40625 1.1875q0.40625 0.40625 1.109375 0.40625q0.828125 0 1.421875 -0.453125l0.9375 2.484375q-0.53125 0.390625 -1.296875 0.59375q-0.75 0.1875 -1.5625 0.1875zm-6.40625 -9.625l0 -2.703125l8.421875 0l0 2.703125l-8.421875 0zm11.259033 9.4375l0 -12.140625l3.515625 0l0 12.140625l-3.515625 0zm1.765625 -13.84375q-0.984375 0 -1.59375 -0.5625q-0.609375 -0.5625 -0.609375 -1.40625q0 -0.828125 0.609375 -1.390625q0.609375 -0.5625 1.59375 -0.5625q0.96875 0 1.578125 0.53125q0.609375 0.53125 0.609375 1.359375q0 0.890625 -0.609375 1.46875q-0.59375 0.5625 -1.578125 0.5625zm5.0303955 13.84375l0 -12.140625l3.359375 0l0 3.359375l-0.625 -1.015625q0.65625 -1.21875 1.875 -1.875q1.21875 -0.65625 2.78125 -0.65625q1.4375 0 2.578125 0.578125q1.140625 0.578125 1.796875 1.765625q0.65625 1.171875 0.65625 3.03125l0 6.953125l-3.53125 0l0 -6.40625q0 -1.46875 -0.640625 -2.171875q-0.640625 -0.703125 -1.8125 -0.703125q-0.84375 0 -1.515625 0.359375q-0.65625 0.34375 -1.03125 1.0625q-0.375 0.71875 -0.375 1.859375l0 6.0l-3.515625 0zm21.410645 4.5625q-1.71875 0 -3.3125 -0.421875q-1.59375 -0.421875 -2.65625 -1.25l1.40625 -2.53125q0.765625 0.640625 1.953125 1.0q1.1875 0.375 2.328125 0.375q1.875 0 2.71875 -0.84375q0.859375 -0.828125 0.859375 -2.46875l0 -1.828125l0.21875 -3.046875l-0.046875 -3.078125l0 -2.609375l3.34375 0l0 10.109375q0 3.390625 -1.765625 4.984375q-1.75 1.609375 -5.046875 1.609375zm-0.546875 -5.15625q-1.6875 0 -3.0625 -0.71875q-1.359375 -0.734375 -2.1875 -2.0625q-0.828125 -1.328125 -0.828125 -3.078125q0 -1.78125 0.828125 -3.09375q0.828125 -1.328125 2.1875 -2.046875q1.375 -0.734375 3.0625 -0.734375q1.53125 0 2.703125 0.625q1.171875 0.625 1.828125 1.921875q0.65625 1.296875 0.65625 3.328125q0 2.0 -0.65625 3.3125q-0.65625 1.296875 -1.828125 1.921875q-1.171875 0.625 -2.703125 0.625zm0.703125 -2.890625q0.921875 0 1.640625 -0.359375q0.71875 -0.375 1.125 -1.046875q0.40625 -0.6875 0.40625 -1.5625q0 -0.90625 -0.40625 -1.5625q-0.40625 -0.671875 -1.125 -1.046875q-0.71875 -0.375 -1.640625 -0.375q-0.9375 0 -1.65625 0.375q-0.71875 0.375 -1.140625 1.046875q-0.40625 0.65625 -0.40625 1.5625q0 0.875 0.40625 1.5625q0.421875 0.671875 1.140625 1.046875q0.71875 0.359375 1.65625 0.359375z" fill-rule="nonzero"/><path fill="#666666" d="m694.3499 263.70572l0 0c0 -3.98349 3.229248 -7.212738 7.2127686 -7.212738l181.51154 0c1.9129028 0 3.7474976 0.7599182 5.1001587 2.1125488c1.3526611 1.3526611 2.1125488 3.1872559 2.1125488 5.100189l0 28.850098c0 3.98349 -3.229248 7.212738 -7.2127075 7.212738l-181.51154 0c-3.9835205 0 -7.2127686 -3.229248 -7.2127686 -7.212738z" fill-rule="evenodd"/><path fill="#ffffff" d="m743.7085 286.3104l0 -15.8125l7.71875 0q2.984375 0 4.484375 1.140625q1.5 1.125 1.5 2.96875q0 1.25 -0.609375 2.171875q-0.609375 0.90625 -1.671875 1.40625q-1.0625 0.5 -2.4375 0.5l0.4375 -0.9375q1.484375 0 2.625 0.484375q1.15625 0.484375 1.796875 1.4375q0.65625 0.953125 0.65625 2.328125q0 2.03125 -1.609375 3.171875q-1.609375 1.140625 -4.71875 1.140625l-8.171875 0zm3.640625 -2.75l4.265625 0q1.421875 0 2.15625 -0.46875q0.734375 -0.46875 0.734375 -1.484375q0 -0.984375 -0.734375 -1.46875q-0.734375 -0.484375 -2.15625 -0.484375l-4.546875 0l0 -2.671875l3.90625 0q1.328125 0 2.046875 -0.453125q0.71875 -0.46875 0.71875 -1.421875q0 -0.921875 -0.71875 -1.375q-0.71875 -0.46875 -2.046875 -0.46875l-3.625 0l0 10.296875zm20.834839 2.75l0 -2.375l-0.234375 -0.515625l0 -4.25q0 -1.125 -0.6875 -1.75q-0.6875 -0.640625 -2.109375 -0.640625q-0.96875 0 -1.90625 0.3125q-0.9375 0.296875 -1.59375 0.8125l-1.265625 -2.453125q1.0 -0.703125 2.390625 -1.078125q1.40625 -0.390625 2.859375 -0.390625q2.765625 0 4.296875 1.3125q1.546875 1.3125 1.546875 4.078125l0 6.9375l-3.296875 0zm-3.703125 0.1875q-1.421875 0 -2.4375 -0.484375q-1.015625 -0.5 -1.5625 -1.328125q-0.546875 -0.84375 -0.546875 -1.875q0 -1.078125 0.53125 -1.890625q0.53125 -0.8125 1.6875 -1.28125q1.15625 -0.46875 3.0 -0.46875l3.234375 0l0 2.0625l-2.84375 0q-1.25 0 -1.71875 0.40625q-0.453125 0.40625 -0.453125 1.015625q0 0.671875 0.53125 1.078125q0.53125 0.390625 1.453125 0.390625q0.890625 0 1.578125 -0.421875q0.703125 -0.421875 1.015625 -1.234375l0.546875 1.625q-0.375 1.1875 -1.390625 1.796875q-1.015625 0.609375 -2.625 0.609375zm14.274536 0q-1.5625 0 -3.0 -0.375q-1.4375 -0.375 -2.265625 -0.9375l1.171875 -2.53125q0.84375 0.515625 1.96875 0.84375q1.140625 0.328125 2.25 0.328125q1.21875 0 1.71875 -0.296875q0.515625 -0.296875 0.515625 -0.8125q0 -0.421875 -0.390625 -0.640625q-0.390625 -0.21875 -1.046875 -0.328125q-0.65625 -0.109375 -1.4375 -0.21875q-0.78125 -0.125 -1.578125 -0.3125q-0.78125 -0.1875 -1.4375 -0.5625q-0.65625 -0.390625 -1.046875 -1.046875q-0.390625 -0.65625 -0.390625 -1.703125q0 -1.140625 0.65625 -2.015625q0.671875 -0.890625 1.9375 -1.390625q1.265625 -0.515625 3.015625 -0.515625q1.25 0 2.53125 0.28125q1.296875 0.265625 2.15625 0.78125l-1.1875 2.5q-0.875 -0.515625 -1.765625 -0.703125q-0.890625 -0.1875 -1.734375 -0.1875q-1.171875 0 -1.71875 0.3125q-0.53125 0.3125 -0.53125 0.8125q0 0.453125 0.390625 0.6875q0.40625 0.21875 1.046875 0.359375q0.65625 0.125 1.4375 0.234375q0.78125 0.09375 1.5625 0.296875q0.796875 0.203125 1.4375 0.578125q0.65625 0.375 1.0625 1.015625q0.40625 0.640625 0.40625 1.671875q0 1.140625 -0.6875 2.015625q-0.671875 0.859375 -1.953125 1.359375q-1.265625 0.5 -3.09375 0.5zm13.926514 0q-2.078125 0 -3.65625 -0.8125q-1.5625 -0.8125 -2.421875 -2.21875q-0.859375 -1.421875 -0.859375 -3.234375q0 -1.828125 0.84375 -3.234375q0.859375 -1.40625 2.3125 -2.203125q1.46875 -0.8125 3.328125 -0.8125q1.78125 0 3.21875 0.765625q1.4375 0.75 2.265625 2.15625q0.84375 1.40625 0.84375 3.375q0 0.203125 -0.03125 0.46875q-0.015625 0.25 -0.046875 0.484375l-9.859375 0l0 -2.0625l8.015625 0l-1.359375 0.609375q0 -0.9375 -0.390625 -1.640625q-0.375 -0.703125 -1.0625 -1.09375q-0.671875 -0.390625 -1.578125 -0.390625q-0.890625 0 -1.59375 0.390625q-0.6875 0.390625 -1.078125 1.109375q-0.375 0.703125 -0.375 1.671875l0 0.546875q0 1.0 0.4375 1.75q0.453125 0.75 1.25 1.15625q0.796875 0.390625 1.890625 0.390625q0.96875 0 1.703125 -0.296875q0.734375 -0.296875 1.34375 -0.875l1.875 2.03125q-0.84375 0.953125 -2.109375 1.46875q-1.265625 0.5 -2.90625 0.5zm8.215637 -0.1875l0 -16.75l3.515625 0l0 16.75l-3.515625 0zm6.7960815 0l0 -12.140625l3.515625 0l0 12.140625l-3.515625 0zm1.765625 -13.84375q-0.984375 0 -1.59375 -0.5625q-0.609375 -0.5625 -0.609375 -1.40625q0 -0.828125 0.609375 -1.390625q0.609375 -0.5625 1.59375 -0.5625q0.96875 0 1.578125 0.53125q0.609375 0.53125 0.609375 1.359375q0 0.890625 -0.609375 1.46875q-0.59375 0.5625 -1.578125 0.5625zm5.0303955 13.84375l0 -12.140625l3.359375 0l0 3.359375l-0.625 -1.015625q0.65625 -1.21875 1.875 -1.875q1.21875 -0.65625 2.78125 -0.65625q1.4375 0 2.578125 0.578125q1.140625 0.578125 1.796875 1.765625q0.65625 1.171875 0.65625 3.03125l0 6.953125l-3.53125 0l0 -6.40625q0 -1.46875 -0.640625 -2.171875q-0.640625 -0.703125 -1.8125 -0.703125q-0.84375 0 -1.515625 0.359375q-0.65625 0.34375 -1.03125 1.0625q-0.375 0.71875 -0.375 1.859375l0 6.0l-3.515625 0zm21.723145 0.1875q-2.078125 0 -3.65625 -0.8125q-1.5625 -0.8125 -2.421875 -2.21875q-0.859375 -1.421875 -0.859375 -3.234375q0 -1.828125 0.84375 -3.234375q0.859375 -1.40625 2.3125 -2.203125q1.46875 -0.8125 3.328125 -0.8125q1.78125 0 3.21875 0.765625q1.4375 0.75 2.265625 2.15625q0.84375 1.40625 0.84375 3.375q0 0.203125 -0.03125 0.46875q-0.015625 0.25 -0.046875 0.484375l-9.859375 0l0 -2.0625l8.015625 0l-1.359375 0.609375q0 -0.9375 -0.390625 -1.640625q-0.375 -0.703125 -1.0625 -1.09375q-0.671875 -0.390625 -1.578125 -0.390625q-0.890625 0 -1.59375 0.390625q-0.6875 0.390625 -1.078125 1.109375q-0.375 0.703125 -0.375 1.671875l0 0.546875q0 1.0 0.4375 1.75q0.453125 0.75 1.25 1.15625q0.796875 0.390625 1.890625 0.390625q0.96875 0 1.703125 -0.296875q0.734375 -0.296875 1.34375 -0.875l1.875 2.03125q-0.84375 0.953125 -2.109375 1.46875q-1.265625 0.5 -2.90625 0.5z" fill-rule="nonzero"/></g></svg>