<svg version="1.1" viewBox="0.0 0.0 960.0 960.0" fill="none" stroke="none" stroke-linecap="square" stroke-miterlimit="10" xmlns:xlink="http://www.w3.org/1999/xlink" xmlns="http://www.w3.org/2000/svg"><clipPath id="g389a18d1f0b_0_0.0"><path d="m0 0l960.0 0l0 960.0l-960.0 0l0 -960.0z" clip-rule="nonzero"/></clipPath><g clip-path="url(#g389a18d1f0b_0_0.0)"><path fill="#000000" fill-opacity="0.0" d="m0 0l960.0 0l0 960.0l-960.0 0z" fill-rule="evenodd"/><path fill="#ffb1ff" d="m147.82677 543.9596c16.582245 -44.082703 69.56781 -210.34384 99.49344 -264.4961c29.925644 -54.15222 52.23271 -66.2209 80.06038 -60.417313c27.827637 5.803589 55.953186 75.00087 86.90552 95.238846c30.952301 20.237976 65.760254 -8.90683 98.80838 26.188965c33.048096 35.095795 64.40857 148.6903 99.48035 184.38586c35.071716 35.695496 92.458435 24.822815 110.950134 29.787354" fill-rule="evenodd"/><path stroke="#ff00ff" stroke-width="4.0" stroke-linejoin="round" stroke-linecap="butt" d="m147.82677 543.9596c16.582245 -44.082703 69.56781 -210.34384 99.49344 -264.4961c29.925644 -54.15222 52.23271 -66.2209 80.06038 -60.417313c27.827637 5.803589 55.953186 75.00087 86.90552 95.238846c30.952301 20.237976 65.760254 -8.90683 98.80838 26.188965c33.048096 35.095795 64.40857 148.6903 99.48035 184.38586c35.071716 35.695496 92.458435 24.822815 110.950134 29.787354" fill-rule="evenodd"/><path fill="#8afbe6" d="m137.93176 578.44824c25.479004 -40.08618 117.4335 -213.07434 152.87402 -240.51706c35.44049 -27.442688 33.997803 60.114197 59.769012 75.8609c25.77121 15.746735 57.438324 -10.71698 94.85828 18.619415c37.419952 29.336395 108.05118 131.16577 129.6614 157.39899" fill-rule="evenodd"/><path stroke="#21caab" stroke-width="4.0" stroke-linejoin="round" stroke-linecap="butt" d="m137.93176 578.44824c25.479004 -40.08618 117.4335 -213.07434 152.87402 -240.51706c35.44049 -27.442688 33.997803 60.114197 59.769012 75.8609c25.77121 15.746735 57.438324 -10.71698 94.85828 18.619415c37.419952 29.336395 108.05118 131.16577 129.6614 157.39899" fill-rule="evenodd"/><path fill="#000000" fill-opacity="0.0" d="m77.826775 55.125984l791.46454 0l0 109.66929l-791.46454 0z" fill-rule="evenodd"/><path fill="#000000" d="m102.326775 82.84661l0 21.125l5.8125 0l0 6.234375l-19.4375 0l0 -6.234375l5.859375 0l0 -21.125l-5.859375 0l0 -6.234375l19.4375 0l0 6.234375l-5.8125 0zm26.840294 1.15625q4.796875 0 7.75 2.875q2.953125 2.875 2.953125 8.546875l0 14.78125l-7.484375 0l0 -13.625q0 -3.078125 -1.34375 -4.59375q-1.34375 -1.515625 -3.8906174 -1.515625q-2.84375 0 -4.53125 1.765625q-1.671875 1.75 -1.671875 5.203125l0 12.765625l-7.484375 0l0 -25.828125l7.15625 0l0 3.03125q1.484375 -1.640625 3.6875 -2.515625q2.21875 -0.890625 4.8593674 -0.890625zm30.237305 26.59375q-4.125 0 -7.421875 -1.703125q-3.28125 -1.71875 -5.140625 -4.734375q-1.84375 -3.03125 -1.84375 -6.859375q0 -3.84375 1.84375 -6.859375q1.859375 -3.03125 5.140625 -4.734375q3.296875 -1.703125 7.421875 -1.703125q4.078125 0 7.125 1.703125q3.046875 1.703125 4.4375 4.875l-5.796875 3.109375q-2.015625 -3.546875 -5.8125 -3.546875q-2.9375 0 -4.859375 1.921875q-1.90625 1.921875 -1.90625 5.234375q0 3.3125 1.90625 5.234375q1.921875 1.90625 4.859375 1.90625q3.84375 0 5.8125 -3.546875l5.796875 3.171875q-1.390625 3.0625 -4.4375 4.796875q-3.046875 1.734375 -7.125 1.734375zm23.039932 -22.8125q1.34375 -1.859375 3.625 -2.8125q2.28125 -0.96875 5.25 -0.96875l0 6.90625q-1.25 -0.09375 -1.671875 -0.09375q-3.21875 0 -5.046875 1.796875q-1.828125 1.796875 -1.828125 5.40625l0 12.1875l-7.484375 0l0 -25.828125l7.15625 0l0 3.40625zm26.115417 16.8125q2.015625 0 3.5625 -0.59375q1.5625 -0.609375 2.90625 -1.90625l3.984375 4.3125q-3.640625 4.1875 -10.65625 4.1875q-4.359375 0 -7.71875 -1.703125q-3.359375 -1.71875 -5.1875 -4.734375q-1.828125 -3.03125 -1.828125 -6.859375q0 -3.796875 1.796875 -6.84375q1.8125 -3.046875 4.953125 -4.75q3.140625 -1.703125 7.078125 -1.703125q3.703125 0 6.71875 1.5625q3.03125 1.546875 4.828125 4.5q1.796875 2.953125 1.796875 6.984375l-19.109375 3.703125q0.828125 1.921875 2.578125 2.890625q1.75 0.953125 4.296875 0.953125zm-1.109375 -14.9375q-2.828125 0 -4.609375 1.828125q-1.78125 1.828125 -1.875 5.03125l12.578125 -2.4375q-0.53125 -2.015625 -2.171875 -3.21875q-1.625 -1.203125 -3.921875 -1.203125zm51.45993 -5.65625q4.84375 0 7.703125 2.859375q2.859375 2.84375 2.859375 8.5625l0 14.78125l-7.5 0l0 -13.625q0 -3.078125 -1.265625 -4.59375q-1.265625 -1.515625 -3.625 -1.515625q-2.640625 0 -4.1875 1.71875q-1.53125 1.703125 -1.53125 5.0625l0 12.953125l-7.484375 0l0 -13.625q0 -6.109375 -4.890625 -6.109375q-2.59375 0 -4.140625 1.71875q-1.53125 1.703125 -1.53125 5.0625l0 12.953125l-7.484375 0l0 -25.828125l7.15625 0l0 2.984375q1.4375 -1.640625 3.515625 -2.5q2.09375 -0.859375 4.59375 -0.859375q2.734375 0 4.9375 1.078125q2.21875 1.078125 3.5625 3.140625q1.578125 -2.015625 4.0 -3.109375q2.421875 -1.109375 5.3125 -1.109375zm30.577606 20.59375q2.015625 0 3.5625 -0.59375q1.5625 -0.609375 2.90625 -1.90625l3.984375 4.3125q-3.640625 4.1875 -10.65625 4.1875q-4.359375 0 -7.71875 -1.703125q-3.359375 -1.71875 -5.1875 -4.734375q-1.828125 -3.03125 -1.828125 -6.859375q0 -3.796875 1.796875 -6.84375q1.8125 -3.046875 4.953125 -4.75q3.140625 -1.703125 7.078125 -1.703125q3.703125 0 6.71875 1.5625q3.03125 1.546875 4.828125 4.5q1.796875 2.953125 1.796875 6.984375l-19.109375 3.703125q0.828125 1.921875 2.578125 2.890625q1.75 0.953125 4.296875 0.953125zm-1.109375 -14.9375q-2.828125 0 -4.609375 1.828125q-1.78125 1.828125 -1.875 5.03125l12.578125 -2.4375q-0.53125 -2.015625 -2.171875 -3.21875q-1.625 -1.203125 -3.921875 -1.203125zm34.08493 -5.65625q4.796875 0 7.75 2.875q2.953125 2.875 2.953125 8.546875l0 14.78125l-7.484375 0l0 -13.625q0 -3.078125 -1.34375 -4.59375q-1.34375 -1.515625 -3.890625 -1.515625q-2.84375 0 -4.53125 1.765625q-1.671875 1.75 -1.671875 5.203125l0 12.765625l-7.484375 0l0 -25.828125l7.15625 0l0 3.03125q1.484375 -1.640625 3.6875 -2.515625q2.21875 -0.890625 4.859375 -0.890625zm33.027435 24.953125q-1.109375 0.8125 -2.71875 1.234375q-1.609375 0.40625 -3.34375 0.40625q-4.65625 0 -7.15625 -2.34375q-2.484375 -2.359375 -2.484375 -6.921875l0 -22.65625l7.484375 0l0 6.28125l6.390625 0l0 5.765625l-6.390625 0l0 10.515625q0 1.625 0.8125 2.515625q0.828125 0.890625 2.359375 0.890625q1.734375 0 3.078125 -0.96875l1.96875 5.28125zm29.600677 -24.578125l0 25.828125l-7.140625 0l0 -2.96875q-2.78125 3.359375 -8.0625 3.359375q-3.65625 0 -6.609375 -1.625q-2.953125 -1.640625 -4.640625 -4.65625q-1.671875 -3.03125 -1.671875 -7.015625q0 -3.984375 1.671875 -7.0q1.6875 -3.03125 4.640625 -4.65625q2.953125 -1.640625 6.609375 -1.640625q4.9375 0 7.71875 3.109375l0 -2.734375l7.484375 0zm-13.90625 20.0625q2.828125 0 4.6875 -1.9375q1.875 -1.9375 1.875 -5.203125q0 -3.265625 -1.875 -5.203125q-1.859375 -1.953125 -4.6875 -1.953125q-2.890625 0 -4.765625 1.953125q-1.859375 1.9375 -1.859375 5.203125q0 3.265625 1.859375 5.203125q1.875 1.9375 4.765625 1.9375zm30.088806 6.15625q-4.359375 0 -6.8125 -2.328125q-2.453125 -2.328125 -2.453125 -6.609375l0 -27.0625l7.484375 0l0 26.640625q0 1.625 0.84375 2.515625q0.84375 0.890625 2.375 0.890625q0.578125 0 1.171875 -0.140625q0.609375 -0.15625 0.9375 -0.34375l0.34375 5.8125q-1.875 0.625 -3.890625 0.625zm33.213318 -27.75l0 21.125l5.8125 0l0 6.234375l-19.4375 0l0 -6.234375l5.859375 0l0 -21.125l-5.859375 0l0 -6.234375l19.4375 0l0 6.234375l-5.8125 0zm44.2153 1.15625q4.84375 0 7.703125 2.859375q2.859375 2.84375 2.859375 8.5625l0 14.78125l-7.5 0l0 -13.625q0 -3.078125 -1.265625 -4.59375q-1.265625 -1.515625 -3.625 -1.515625q-2.640625 0 -4.1875 1.71875q-1.53125 1.703125 -1.53125 5.0625l0 12.953125l-7.484375 0l0 -13.625q0 -6.109375 -4.890625 -6.109375q-2.59375 0 -4.140625 1.71875q-1.53125 1.703125 -1.53125 5.0625l0 12.953125l-7.484375 0l0 -25.828125l7.15625 0l0 2.984375q1.4375 -1.640625 3.515625 -2.5q2.09375 -0.859375 4.59375 -0.859375q2.734375 0 4.9375 1.078125q2.21875 1.078125 3.5625 3.140625q1.578125 -2.015625 4.0 -3.109375q2.421875 -1.109375 5.3125 -1.109375zm32.53958 0q3.59375 0 6.546875 1.65625q2.953125 1.65625 4.625 4.65625q1.6875 3.0 1.6875 6.984375q0 3.984375 -1.6875 6.984375q-1.671875 3.0 -4.625 4.65625q-2.953125 1.65625 -6.546875 1.65625q-4.9375 0 -7.78125 -3.125l0 12.046875l-7.484375 0l0 -35.140625l7.15625 0l0 2.984375q2.78125 -3.359375 8.109375 -3.359375zm-1.296875 20.4375q2.875 0 4.71875 -1.9375q1.859375 -1.9375 1.859375 -5.203125q0 -3.265625 -1.859375 -5.203125q-1.84375 -1.953125 -4.71875 -1.953125q-2.875 0 -4.734375 1.953125q-1.84375 1.9375 -1.84375 5.203125q0 3.265625 1.84375 5.203125q1.859375 1.9375 4.734375 1.9375zm45.35443 -20.0625l0 25.828125l-7.140625 0l0 -2.96875q-2.78125 3.359375 -8.0625 3.359375q-3.65625 0 -6.609375 -1.625q-2.953125 -1.640625 -4.640625 -4.65625q-1.671875 -3.03125 -1.671875 -7.015625q0 -3.984375 1.671875 -7.0q1.6875 -3.03125 4.640625 -4.65625q2.953125 -1.640625 6.609375 -1.640625q4.9375 0 7.71875 3.109375l0 -2.734375l7.484375 0zm-13.90625 20.0625q2.828125 0 4.6875 -1.9375q1.875 -1.9375 1.875 -5.203125q0 -3.265625 -1.875 -5.203125q-1.859375 -1.953125 -4.6875 -1.953125q-2.890625 0 -4.765625 1.953125q-1.859375 1.9375 -1.859375 5.203125q0 3.265625 1.859375 5.203125q1.875 1.9375 4.765625 1.9375zm33.307556 6.15625q-4.125 0 -7.421875 -1.703125q-3.28125 -1.71875 -5.140625 -4.734375q-1.84375 -3.03125 -1.84375 -6.859375q0 -3.84375 1.84375 -6.859375q1.859375 -3.03125 5.140625 -4.734375q3.296875 -1.703125 7.421875 -1.703125q4.078125 0 7.125 1.703125q3.046875 1.703125 4.4375 4.875l-5.796875 3.109375q-2.015625 -3.546875 -5.8125 -3.546875q-2.9375 0 -4.859375 1.921875q-1.90625 1.921875 -1.90625 5.234375q0 3.3125 1.90625 5.234375q1.921875 1.90625 4.859375 1.90625q3.84375 0 5.8125 -3.546875l5.796875 3.171875q-1.390625 3.0625 -4.4375 4.796875q-3.046875 1.734375 -7.125 1.734375zm31.25415 -1.640625q-1.109375 0.8125 -2.71875 1.234375q-1.609375 0.40625 -3.34375 0.40625q-4.65625 0 -7.15625 -2.34375q-2.484375 -2.359375 -2.484375 -6.921875l0 -22.65625l7.484375 0l0 6.28125l6.390625 0l0 5.765625l-6.390625 0l0 10.515625q0 1.625 0.8125 2.515625q0.828125 0.890625 2.359375 0.890625q1.734375 0 3.078125 -0.96875l1.96875 5.28125z" fill-rule="nonzero"/><path fill="#eeeeee" d="m130.45407 551.38025l595.937 0l0 283.14966l-595.937 0z" fill-rule="evenodd"/><path fill="#eeeeee" d="m131.48305 553.80054c10.06955 -11.685181 32.35988 -69.245544 60.41725 -70.111176c28.057388 -0.8656311 67.23688 57.58017 107.92706 64.91739c40.690155 7.3372803 97.861725 -13.009216 136.21402 -20.893982c38.352295 -7.8848267 63.069244 -29.838715 93.89978 -26.414734c30.830505 3.4240112 58.369873 38.322815 91.08331 46.95874c32.71344 8.635986 87.66437 4.0474854 105.197205 4.8569946" fill-rule="evenodd"/><path stroke="#595959" stroke-width="4.0" stroke-linejoin="round" stroke-linecap="butt" d="m131.48305 553.80054c10.06955 -11.685181 32.35988 -69.245544 60.41725 -70.111176c28.057388 -0.8656311 67.23688 57.58017 107.92706 64.91739c40.690155 7.3372803 97.861725 -13.009216 136.21402 -20.893982c38.352295 -7.8848267 63.069244 -29.838715 93.89978 -26.414734c30.830505 3.4240112 58.369873 38.322815 91.08331 46.95874c32.71344 8.635986 87.66437 4.0474854 105.197205 4.8569946" fill-rule="evenodd"/><path fill="#000000" fill-opacity="0.0" d="m130.45508 834.52905l595.937 0l0 62.992126l-595.937 0z" fill-rule="evenodd"/><path fill="#595959" d="m398.19763 876.86487l0 -19.15625l-7.40625 0l0 -1.921875l17.03125 0l0 1.921875l-7.40625 0l0 19.15625l-2.21875 0zm12.735931 0l0 -15.8125l2.140625 0l0 15.8125l-2.140625 0zm1.078125 -19.296875q-0.65625 0 -1.109375 -0.453125q-0.453125 -0.453125 -0.453125 -1.078125q0 -0.640625 0.453125 -1.078125q0.453125 -0.4375 1.109375 -0.4375q0.65625 0 1.109375 0.421875q0.453125 0.421875 0.453125 1.0625q0 0.65625 -0.4375 1.109375q-0.4375 0.453125 -1.125 0.453125zm7.0213013 19.296875l0 -15.8125l2.046875 0l0 4.28125l-0.328125 -0.75q0.71875 -1.71875 2.328125 -2.6875q1.609375 -0.984375 3.8125 -0.984375q2.3125 0 3.9375 1.15625q1.625 1.15625 2.109375 3.46875l-0.84375 -0.328125q0.6875 -1.921875 2.453125 -3.109375q1.765625 -1.1875 4.234375 -1.1875q1.921875 0 3.34375 0.734375q1.4375 0.734375 2.234375 2.25q0.796875 1.5 0.796875 3.78125l0 9.1875l-2.125 0l0 -8.96875q0 -2.5 -1.203125 -3.78125q-1.1875 -1.28125 -3.34375 -1.28125q-1.625 0 -2.828125 0.6875q-1.1875 0.671875 -1.84375 1.953125q-0.640625 1.28125 -0.640625 3.078125l0 8.3125l-2.125 0l0 -8.96875q0 -2.5 -1.21875 -3.78125q-1.203125 -1.28125 -3.359375 -1.28125q-1.59375 0 -2.8125 0.6875q-1.203125 0.671875 -1.84375 1.953125q-0.640625 1.28125 -0.640625 3.078125l0 8.3125l-2.140625 0zm38.6492 0.15625q-2.46875 0 -4.328125 -1.03125q-1.859375 -1.046875 -2.921875 -2.859375q-1.046875 -1.828125 -1.046875 -4.1875q0 -2.34375 1.0 -4.140625q1.015625 -1.8125 2.765625 -2.84375q1.765625 -1.046875 3.96875 -1.046875q2.21875 0 3.953125 1.015625q1.734375 1.0 2.71875 2.828125q1.0 1.8125 1.0 4.1875q0 0.15625 -0.015625 0.328125q-0.015625 0.15625 -0.015625 0.34375l-13.75 0l0 -1.609375l12.609375 0l-0.84375 0.640625q0 -1.71875 -0.734375 -3.046875q-0.734375 -1.34375 -2.0 -2.09375q-1.265625 -0.765625 -2.921875 -0.765625q-1.625 0 -2.921875 0.765625q-1.296875 0.75 -2.015625 2.109375q-0.71875 1.34375 -0.71875 3.09375l0 0.328125q0 1.8125 0.796875 3.1875q0.796875 1.359375 2.21875 2.125q1.4375 0.765625 3.265625 0.765625q1.453125 0 2.703125 -0.5q1.25 -0.515625 2.15625 -1.578125l1.203125 1.390625q-1.0625 1.265625 -2.640625 1.9375q-1.578125 0.65625 -3.484375 0.65625z" fill-rule="nonzero"/><path fill="#000000" fill-opacity="0.0" d="m51.13378 837.9346l0 -585.8583l73.35433 0l0 585.8583z" fill-rule="evenodd"/><path fill="#595959" d="m98.65074 607.80865l-21.078125 0l0 -7.890625q0 -4.0 1.921875 -6.296875q1.90625 -2.3125 5.3125 -2.3125q2.21875 0 3.828125 1.046875q1.609375 1.03125 2.46875 2.96875q0.859375 1.921875 0.859375 4.59375l0 6.65625l-1.015625 -0.984375l7.703125 0l0 2.21875zm0 -14.390625l-7.640625 5.421875l0 -2.40625l7.640625 -5.453125l0 2.4375zm-7.53125 12.171875l-1.046875 0.984375l0 -6.59375q0 -3.15625 -1.375 -4.796875q-1.390625 -1.640625 -3.890625 -1.640625q-2.53125 0 -3.921875 1.640625q-1.390625 1.640625 -1.390625 4.796875l0 6.59375l-1.046875 -0.984375l12.671875 0zm7.6875 -25.800354q0 2.46875 -1.03125 4.328125q-1.046875 1.859375 -2.859375 2.921875q-1.828125 1.046875 -4.1875 1.046875q-2.34375 0 -4.140625 -1.0q-1.8125 -1.015625 -2.84375 -2.765625q-1.046875 -1.765625 -1.046875 -3.96875q0 -2.21875 1.015625 -3.953125q1.0 -1.734375 2.828125 -2.71875q1.8125 -1.0 4.1875 -1.0q0.15625 0 0.328125 0.015625q0.15625 0.015625 0.34375 0.015625l0 13.75l-1.609375 0l0 -12.609375l0.640625 0.84375q-1.71875 0 -3.046875 0.734375q-1.34375 0.734375 -2.09375 2.0q-0.765625 1.265625 -0.765625 2.921875q0 1.625 0.765625 2.921875q0.75 1.296875 2.109375 2.015625q1.34375 0.71875 3.09375 0.71875l0.328125 0q1.8125 0 3.1875 -0.796875q1.359375 -0.796875 2.125 -2.21875q0.765625 -1.4375 0.765625 -3.265625q0 -1.453125 -0.5 -2.703125q-0.515625 -1.25 -1.578125 -2.15625l1.390625 -1.203125q1.265625 1.0625 1.9375 2.640625q0.65625 1.578125 0.65625 3.484375zm-0.15625 -15.244385l-15.8125 7.015625l0 -2.234375l14.671875 -6.4375l0 1.0625l-14.671875 -6.546875l0 -2.109375l15.8125 7.046875l0 2.203125zm0.15625 -18.50824q0 2.46875 -1.03125 4.328125q-1.046875 1.859375 -2.859375 2.921875q-1.828125 1.046875 -4.1875 1.046875q-2.34375 0 -4.140625 -1.0q-1.8125 -1.015625 -2.84375 -2.765625q-1.046875 -1.765625 -1.046875 -3.96875q0 -2.21875 1.015625 -3.953125q1.0 -1.734375 2.828125 -2.71875q1.8125 -1.0 4.1875 -1.0q0.15625 0 0.328125 0.015625q0.15625 0.015625 0.34375 0.015625l0 13.75l-1.609375 0l0 -12.609375l0.640625 0.84375q-1.71875 0 -3.046875 0.734375q-1.34375 0.734375 -2.09375 2.0q-0.765625 1.265625 -0.765625 2.921875q0 1.625 0.765625 2.921875q0.75 1.296875 2.109375 2.015625q1.34375 0.71875 3.09375 0.71875l0.328125 0q1.8125 0 3.1875 -0.796875q1.359375 -0.796875 2.125 -2.21875q0.765625 -1.4375 0.765625 -3.265625q0 -1.453125 -0.5 -2.703125q-0.515625 -1.25 -1.578125 -2.15625l1.390625 -1.203125q1.265625 1.0625 1.9375 2.640625q0.65625 1.578125 0.65625 3.484375zm-0.15625 -11.482971l-15.8125 0l0 -2.046875l4.34375 0l-0.8125 0.328125q-1.71875 -0.75 -2.6875 -2.40625q-0.984375 -1.65625 -0.984375 -3.9375q0 -1.9375 0.734375 -3.390625q0.734375 -1.453125 2.25 -2.28125q1.5 -0.828125 3.78125 -0.828125l9.1875 0l0 2.125l-8.96875 0q-2.5 0 -3.78125 1.25q-1.28125 1.25 -1.28125 3.515625q0 1.6875 0.6875 2.9375q0.671875 1.25 1.953125 1.921875q1.28125 0.671875 3.078125 0.671875l8.3125 0l0 2.140625zm0.15625 -26.885223q0 2.015625 -0.75 3.53125q-0.765625 1.5000305 -2.265625 2.3281555q-1.5 0.828125 -3.765625 0.828125l-9.1875 0l0 -2.140625l8.953125 0q2.53125 0 3.8125 -1.2500305q1.265625 -1.25 1.265625 -3.5q0 -1.65625 -0.671875 -2.875q-0.671875 -1.21875 -1.96875 -1.859375q-1.296875 -0.65625 -3.109375 -0.65625l-8.28125 0l0 -2.140625l15.8125 0l0 2.046875l-4.328125 0l0.78125 -0.328125q1.734375 0.75 2.71875 2.328125q0.984375 1.578125 0.984375 3.6875zm0 -20.405396q0 2.46875 -1.03125 4.328125q-1.046875 1.859375 -2.859375 2.921875q-1.828125 1.046875 -4.1875 1.046875q-2.34375 0 -4.140625 -1.0q-1.8125 -1.015625 -2.84375 -2.765625q-1.046875 -1.765625 -1.046875 -3.96875q0 -2.21875 1.015625 -3.953125q1.0 -1.734375 2.828125 -2.71875q1.8125 -1.0 4.1875 -1.0q0.15625 0 0.328125 0.015625q0.15625 0.015625 0.34375 0.015625l0 13.75l-1.609375 0l0 -12.609375l0.640625 0.84375q-1.71875 0 -3.046875 0.734375q-1.34375 0.734375 -2.09375 2.0q-0.765625 1.265625 -0.765625 2.921875q0 1.625 0.765625 2.921875q0.75 1.296875 2.109375 2.015625q1.34375 0.71875 3.09375 0.71875l0.328125 0q1.8125 0 3.1875 -0.796875q1.359375 -0.796875 2.125 -2.21875q0.765625 -1.4375 0.765625 -3.265625q0 -1.453125 -0.5 -2.703125q-0.515625 -1.25 -1.578125 -2.15625l1.390625 -1.203125q1.265625 1.0625 1.9375 2.640625q0.65625 1.578125 0.65625 3.484375z" fill-rule="nonzero"/><path fill="#29caab" d="m678.06305 314.6582l0 0c0 -4.5923157 3.7227783 -8.3151245 8.3151245 -8.3151245l163.52722 0c2.2053223 0 4.3203125 0.8760376 5.8796997 2.4354248c1.5593872 1.5593872 2.4354248 3.6743774 2.4354248 5.8796997l0 33.25949c0 4.5923157 -3.7228394 8.3151245 -8.3151245 8.3151245l-163.52722 0c-4.592346 0 -8.3151245 -3.7228088 -8.3151245 -8.3151245z" fill-rule="evenodd"/><path fill="#ffffff" d="m707.4343 338.86594l0 -14.265625l6.1875 0q1.90625 0 3.296875 0.625q1.390625 0.609375 2.140625 1.78125q0.75 1.15625 0.75 2.765625q0 1.59375 -0.75 2.765625q-0.75 1.15625 -2.140625 1.78125q-1.390625 0.609375 -3.296875 0.609375l-4.34375 0l1.46875 -1.484375l0 5.421875l-3.3125 0zm3.3125 -5.0625l-1.46875 -1.5625l4.15625 0q1.53125 0 2.28125 -0.65625q0.75 -0.65625 0.75 -1.8125q0 -1.1875 -0.75 -1.828125q-0.75 -0.65625 -2.28125 -0.65625l-4.15625 0l1.46875 -1.578125l0 8.09375zm11.190674 5.0625l0 -10.96875l3.03125 0l0 3.09375l-0.421875 -0.890625q0.484375 -1.171875 1.5625 -1.765625q1.09375 -0.609375 2.640625 -0.609375l0 2.9375q-0.203125 -0.015625 -0.375 -0.015625q-0.15625 -0.015625 -0.34375 -0.015625q-1.296875 0 -2.109375 0.75q-0.796875 0.734375 -0.796875 2.3125l0 5.171875l-3.1875 0zm13.823486 0.15625q-1.75 0 -3.109375 -0.734375q-1.359375 -0.734375 -2.140625 -2.0q-0.78125 -1.28125 -0.78125 -2.90625q0 -1.65625 0.78125 -2.921875q0.78125 -1.28125 2.140625 -2.0q1.359375 -0.734375 3.109375 -0.734375q1.734375 0 3.09375 0.734375q1.375 0.71875 2.140625 1.984375q0.78125 1.265625 0.78125 2.9375q0 1.625 -0.78125 2.90625q-0.765625 1.265625 -2.140625 2.0q-1.359375 0.734375 -3.09375 0.734375zm0 -2.609375q0.796875 0 1.421875 -0.359375q0.640625 -0.375 1.0 -1.046875q0.375 -0.6875 0.375 -1.625q0 -0.953125 -0.375 -1.625q-0.359375 -0.6875 -1.0 -1.046875q-0.625 -0.359375 -1.421875 -0.359375q-0.796875 0 -1.4375 0.359375q-0.625 0.359375 -1.0 1.046875q-0.375 0.671875 -0.375 1.625q0 0.9375 0.375 1.625q0.375 0.671875 1.0 1.046875q0.640625 0.359375 1.4375 0.359375zm8.137085 2.453125l0 -10.96875l3.03125 0l0 3.0l-0.5625 -0.875q0.5625 -1.125 1.609375 -1.703125q1.0625 -0.59375 2.40625 -0.59375q1.515625 0 2.640625 0.765625q1.125 0.765625 1.5 2.34375l-1.125 -0.3125q0.546875 -1.28125 1.765625 -2.03125q1.21875 -0.765625 2.78125 -0.765625q1.3125 0 2.3125 0.53125q1.015625 0.515625 1.59375 1.59375q0.578125 1.0625 0.578125 2.734375l0 6.28125l-3.171875 0l0 -5.796875q0 -1.3125 -0.5625 -1.9375q-0.546875 -0.640625 -1.546875 -0.640625q-0.6875 0 -1.25 0.3125q-0.546875 0.3125 -0.859375 0.953125q-0.296875 0.625 -0.296875 1.609375l0 5.5l-3.171875 0l0 -5.796875q0 -1.3125 -0.546875 -1.9375q-0.546875 -0.640625 -1.53125 -0.640625q-0.703125 0 -1.25 0.3125q-0.546875 0.3125 -0.859375 0.953125q-0.296875 0.625 -0.296875 1.609375l0 5.5l-3.1875 0zm26.689941 0.15625q-1.75 0 -3.109375 -0.734375q-1.359375 -0.734375 -2.140625 -2.0q-0.78125 -1.28125 -0.78125 -2.90625q0 -1.65625 0.78125 -2.921875q0.78125 -1.28125 2.140625 -2.0q1.359375 -0.734375 3.109375 -0.734375q1.734375 0 3.09375 0.734375q1.375 0.71875 2.140625 1.984375q0.78125 1.265625 0.78125 2.9375q0 1.625 -0.78125 2.90625q-0.765625 1.265625 -2.140625 2.0q-1.359375 0.734375 -3.09375 0.734375zm0 -2.609375q0.796875 0 1.421875 -0.359375q0.640625 -0.375 1.0 -1.046875q0.375 -0.6875 0.375 -1.625q0 -0.953125 -0.375 -1.625q-0.359375 -0.6875 -1.0 -1.046875q-0.625 -0.359375 -1.421875 -0.359375q-0.796875 0 -1.4375 0.359375q-0.625 0.359375 -1.0 1.046875q-0.375 0.671875 -0.375 1.625q0 0.9375 0.375 1.625q0.375 0.671875 1.0 1.046875q0.640625 0.359375 1.4375 0.359375zm12.621399 2.609375q-1.9375 0 -3.015625 -0.984375q-1.078125 -0.984375 -1.078125 -2.9375l0 -9.625l3.171875 0l0 9.578125q0 0.6875 0.359375 1.078125q0.375 0.375 1.015625 0.375q0.75 0 1.28125 -0.40625l0.859375 2.234375q-0.5 0.34375 -1.1875 0.515625q-0.671875 0.171875 -1.40625 0.171875zm-5.796875 -8.671875l0 -2.453125l7.609375 0l0 2.453125l-7.609375 0zm10.182373 8.515625l0 -10.96875l3.1875 0l0 10.96875l-3.1875 0zm1.578125 -12.5q-0.875 0 -1.421875 -0.5q-0.546875 -0.515625 -0.546875 -1.265625q0 -0.765625 0.546875 -1.265625q0.546875 -0.515625 1.421875 -0.515625q0.890625 0 1.4375 0.484375q0.546875 0.46875 0.546875 1.234375q0 0.78125 -0.546875 1.3125q-0.53125 0.515625 -1.4375 0.515625zm9.778198 12.65625q-1.75 0 -3.109375 -0.734375q-1.359375 -0.734375 -2.140625 -2.0q-0.78125 -1.28125 -0.78125 -2.90625q0 -1.65625 0.78125 -2.921875q0.78125 -1.28125 2.140625 -2.0q1.359375 -0.734375 3.109375 -0.734375q1.734375 0 3.09375 0.734375q1.375 0.71875 2.140625 1.984375q0.78125 1.265625 0.78125 2.9375q0 1.625 -0.78125 2.90625q-0.765625 1.265625 -2.140625 2.0q-1.359375 0.734375 -3.09375 0.734375zm0 -2.609375q0.796875 0 1.421875 -0.359375q0.640625 -0.375 1.0 -1.046875q0.375 -0.6875 0.375 -1.625q0 -0.953125 -0.375 -1.625q-0.359375 -0.6875 -1.0 -1.046875q-0.625 -0.359375 -1.421875 -0.359375q-0.796875 0 -1.4375 0.359375q-0.625 0.359375 -1.0 1.046875q-0.375 0.671875 -0.375 1.625q0 0.9375 0.375 1.625q0.375 0.671875 1.0 1.046875q0.640625 0.359375 1.4375 0.359375zm8.137024 2.453125l0 -10.96875l3.03125 0l0 3.03125l-0.5625 -0.90625q0.59375 -1.109375 1.6875 -1.703125q1.109375 -0.59375 2.515625 -0.59375q1.296875 0 2.328125 0.53125q1.03125 0.515625 1.625 1.59375q0.59375 1.0625 0.59375 2.734375l0 6.28125l-3.1875 0l0 -5.796875q0 -1.3125 -0.578125 -1.9375q-0.578125 -0.640625 -1.640625 -0.640625q-0.75 0 -1.359375 0.3125q-0.59375 0.3125 -0.9375 0.96875q-0.328125 0.65625 -0.328125 1.671875l0 5.421875l-3.1875 0zm17.777344 0.15625q-1.40625 0 -2.703125 -0.328125q-1.296875 -0.34375 -2.046875 -0.84375l1.0625 -2.28125q0.75 0.46875 1.78125 0.765625q1.03125 0.28125 2.03125 0.28125q1.09375 0 1.546875 -0.25q0.46875 -0.265625 0.46875 -0.734375q0 -0.390625 -0.359375 -0.578125q-0.34375 -0.203125 -0.9375 -0.296875q-0.59375 -0.109375 -1.296875 -0.203125q-0.703125 -0.109375 -1.421875 -0.28125q-0.71875 -0.171875 -1.3125 -0.515625q-0.578125 -0.359375 -0.9375 -0.9375q-0.359375 -0.59375 -0.359375 -1.53125q0 -1.046875 0.59375 -1.84375q0.609375 -0.796875 1.75 -1.25q1.140625 -0.46875 2.734375 -0.46875q1.125 0 2.28125 0.25q1.171875 0.25 1.9375 0.71875l-1.0625 2.265625q-0.796875 -0.46875 -1.609375 -0.640625q-0.796875 -0.1875 -1.546875 -0.1875q-1.0625 0 -1.546875 0.296875q-0.484375 0.28125 -0.484375 0.734375q0 0.40625 0.34375 0.609375q0.359375 0.203125 0.953125 0.328125q0.59375 0.125 1.296875 0.21875q0.703125 0.078125 1.40625 0.265625q0.71875 0.1875 1.296875 0.53125q0.59375 0.328125 0.953125 0.90625q0.375 0.578125 0.375 1.515625q0 1.03125 -0.625 1.8125q-0.609375 0.78125 -1.765625 1.234375q-1.140625 0.4375 -2.796875 0.4375z" fill-rule="nonzero"/><path fill="#ff00ff" d="m678.06384 255.29144l0 0c0 -4.5923157 3.7227783 -8.3151245 8.3151245 -8.3151245l163.52722 0c2.2052612 0 4.3202515 0.87605286 5.8796387 2.43544c1.5593872 1.5593872 2.4354858 3.6743774 2.4354858 5.8796844l0 33.25949c0 4.592346 -3.7228394 8.315155 -8.3151245 8.315155l-163.52722 0c-4.592346 0 -8.3151245 -3.7228088 -8.3151245 -8.315155z" fill-rule="evenodd"/><path fill="#ffffff" d="m709.1354 280.1008l0 -15.8125l3.03125 0l6.71875 11.15625l-1.59375 0l6.609375 -11.15625l3.0 0l0.046875 15.8125l-3.4375 0l-0.015625 -10.546875l0.625 0l-5.28125 8.875l-1.640625 0l-5.40625 -8.875l0.78125 0l0 10.546875l-3.4375 0zm28.76538 0l0 -2.375l-0.234375 -0.515625l0 -4.25q0 -1.125 -0.6875 -1.75q-0.6875 -0.640625 -2.109375 -0.640625q-0.96875 0 -1.90625 0.3125q-0.9375 0.296875 -1.59375 0.8125l-1.265625 -2.453125q1.0 -0.703125 2.390625 -1.078125q1.40625 -0.390625 2.859375 -0.390625q2.765625 0 4.296875 1.3125q1.546875 1.3125 1.546875 4.078125l0 6.9375l-3.296875 0zm-3.703125 0.1875q-1.421875 0 -2.4375 -0.484375q-1.015625 -0.5 -1.5625 -1.328125q-0.546875 -0.84375 -0.546875 -1.875q0 -1.078125 0.53125 -1.890625q0.53125 -0.8125 1.6875 -1.28125q1.15625 -0.46875 3.0 -0.46875l3.234375 0l0 2.0625l-2.84375 0q-1.25 0 -1.71875 0.40625q-0.453125 0.40625 -0.453125 1.015625q0 0.671875 0.53125 1.078125q0.53125 0.390625 1.453125 0.390625q0.890625 0 1.578125 -0.421875q0.703125 -0.421875 1.015625 -1.234375l0.546875 1.625q-0.375 1.1875 -1.390625 1.796875q-1.015625 0.609375 -2.625 0.609375zm10.180786 -0.1875l0 -12.140625l3.359375 0l0 3.421875l-0.46875 -0.984375q0.546875 -1.296875 1.734375 -1.953125q1.203125 -0.671875 2.921875 -0.671875l0 3.25q-0.234375 -0.015625 -0.421875 -0.03125q-0.171875 -0.015625 -0.375 -0.015625q-1.4375 0 -2.34375 0.828125q-0.890625 0.828125 -0.890625 2.5625l0 5.734375l-3.515625 0zm12.547119 -2.484375l0.09375 -4.296875l5.671875 -5.359375l4.203125 0l-5.453125 5.53125l-1.828125 1.484375l-2.6875 2.640625zm-2.90625 2.484375l0 -16.75l3.515625 0l0 16.75l-3.515625 0zm9.046875 0l-4.109375 -5.109375l2.21875 -2.71875l6.171875 7.828125l-4.28125 0zm11.253723 0.1875q-2.078125 0 -3.65625 -0.8125q-1.5625 -0.8125 -2.421875 -2.21875q-0.859375 -1.421875 -0.859375 -3.234375q0 -1.828125 0.84375 -3.234375q0.859375 -1.40625 2.3125 -2.203125q1.46875 -0.8125 3.328125 -0.8125q1.78125 0 3.21875 0.765625q1.4375 0.75 2.265625 2.15625q0.84375 1.40625 0.84375 3.375q0 0.203125 -0.03125 0.46875q-0.015625 0.25 -0.046875 0.484375l-9.859375 0l0 -2.0625l8.015625 0l-1.359375 0.609375q0 -0.9375 -0.390625 -1.640625q-0.375 -0.703125 -1.0625 -1.09375q-0.671875 -0.390625 -1.578125 -0.390625q-0.890625 0 -1.59375 0.390625q-0.6875 0.390625 -1.078125 1.109375q-0.375 0.703125 -0.375 1.671875l0 0.546875q0 1.0 0.4375 1.75q0.453125 0.75 1.25 1.15625q0.796875 0.390625 1.890625 0.390625q0.96875 0 1.703125 -0.296875q0.734375 -0.296875 1.34375 -0.875l1.875 2.03125q-0.84375 0.953125 -2.109375 1.46875q-1.265625 0.5 -2.90625 0.5zm13.184326 0q-2.140625 0 -3.34375 -1.09375q-1.203125 -1.109375 -1.203125 -3.265625l0 -10.65625l3.53125 0l0 10.609375q0 0.765625 0.40625 1.1875q0.40625 0.40625 1.109375 0.40625q0.828125 0 1.421875 -0.453125l0.9375 2.484375q-0.53125 0.390625 -1.296875 0.59375q-0.75 0.1875 -1.5625 0.1875zm-6.40625 -9.625l0 -2.703125l8.421875 0l0 2.703125l-8.421875 0zm11.259033 9.4375l0 -12.140625l3.515625 0l0 12.140625l-3.515625 0zm1.765625 -13.84375q-0.984375 0 -1.59375 -0.5625q-0.609375 -0.5625 -0.609375 -1.40625q0 -0.828125 0.609375 -1.390625q0.609375 -0.5625 1.59375 -0.5625q0.96875 0 1.578125 0.53125q0.609375 0.53125 0.609375 1.359375q0 0.890625 -0.609375 1.46875q-0.59375 0.5625 -1.578125 0.5625zm5.0304565 13.84375l0 -12.140625l3.359375 0l0 3.359375l-0.625 -1.015625q0.65625 -1.21875 1.875 -1.875q1.21875 -0.65625 2.78125 -0.65625q1.4375 0 2.578125 0.578125q1.140625 0.578125 1.796875 1.765625q0.65625 1.171875 0.65625 3.03125l0 6.953125l-3.53125 0l0 -6.40625q0 -1.46875 -0.640625 -2.171875q-0.640625 -0.703125 -1.8125 -0.703125q-0.84375 0 -1.515625 0.359375q-0.65625 0.34375 -1.03125 1.0625q-0.375 0.71875 -0.375 1.859375l0 6.0l-3.515625 0zm21.410645 4.5625q-1.71875 0 -3.3125 -0.421875q-1.59375 -0.421875 -2.65625 -1.25l1.40625 -2.53125q0.765625 0.640625 1.953125 1.0q1.1875 0.375 2.328125 0.375q1.875 0 2.71875 -0.84375q0.859375 -0.828125 0.859375 -2.46875l0 -1.828125l0.21875 -3.046875l-0.046875 -3.078125l0 -2.609375l3.34375 0l0 10.109375q0 3.390625 -1.765625 4.984375q-1.75 1.609375 -5.046875 1.609375zm-0.546875 -5.15625q-1.6875 0 -3.0625 -0.71875q-1.359375 -0.734375 -2.1875 -2.0625q-0.828125 -1.328125 -0.828125 -3.078125q0 -1.78125 0.828125 -3.09375q0.828125 -1.328125 2.1875 -2.046875q1.375 -0.734375 3.0625 -0.734375q1.53125 0 2.703125 0.625q1.171875 0.625 1.828125 1.921875q0.65625 1.296875 0.65625 3.328125q0 2.0 -0.65625 3.3125q-0.65625 1.296875 -1.828125 1.921875q-1.171875 0.625 -2.703125 0.625zm0.703125 -2.890625q0.921875 0 1.640625 -0.359375q0.71875 -0.375 1.125 -1.046875q0.40625 -0.6875 0.40625 -1.5625q0 -0.90625 -0.40625 -1.5625q-0.40625 -0.671875 -1.125 -1.046875q-0.71875 -0.375 -1.640625 -0.375q-0.9375 0 -1.65625 0.375q-0.71875 0.375 -1.140625 1.046875q-0.40625 0.65625 -0.40625 1.5625q0 0.875 0.40625 1.5625q0.421875 0.671875 1.140625 1.046875q0.71875 0.359375 1.65625 0.359375z" fill-rule="nonzero"/><path fill="#666666" d="m678.06384 374.02493l0 0c0 -4.5923157 3.7227783 -8.3151245 8.3151245 -8.3151245l163.52722 0c2.2052612 0 4.3202515 0.8760681 5.8796387 2.4354553c1.5593872 1.5593872 2.4354858 3.6743774 2.4354858 5.879669l0 33.25952c0 4.5923157 -3.7228394 8.3151245 -8.3151245 8.3151245l-163.52722 0c-4.592346 0 -8.3151245 -3.7228088 -8.3151245 -8.3151245z" fill-rule="evenodd"/><path fill="#ffffff" d="m719.5326 398.83432l0 -15.8125l7.71875 0q2.984375 0 4.484375 1.140625q1.5 1.125 1.5 2.96875q0 1.25 -0.609375 2.171875q-0.609375 0.90625 -1.671875 1.40625q-1.0625 0.5 -2.4375 0.5l0.4375 -0.9375q1.484375 0 2.625 0.484375q1.15625 0.484375 1.796875 1.4375q0.65625 0.953125 0.65625 2.328125q0 2.03125 -1.609375 3.171875q-1.609375 1.140625 -4.71875 1.140625l-8.171875 0zm3.640625 -2.75l4.265625 0q1.421875 0 2.15625 -0.46875q0.734375 -0.46875 0.734375 -1.484375q0 -0.984375 -0.734375 -1.46875q-0.734375 -0.484375 -2.15625 -0.484375l-4.546875 0l0 -2.671875l3.90625 0q1.328125 0 2.046875 -0.453125q0.71875 -0.46875 0.71875 -1.421875q0 -0.921875 -0.71875 -1.375q-0.71875 -0.46875 -2.046875 -0.46875l-3.625 0l0 10.296875zm20.834839 2.75l0 -2.375l-0.234375 -0.515625l0 -4.25q0 -1.125 -0.6875 -1.75q-0.6875 -0.640625 -2.109375 -0.640625q-0.96875 0 -1.90625 0.3125q-0.9375 0.296875 -1.59375 0.8125l-1.265625 -2.453125q1.0 -0.703125 2.390625 -1.078125q1.40625 -0.390625 2.859375 -0.390625q2.765625 0 4.296875 1.3125q1.546875 1.3125 1.546875 4.078125l0 6.9375l-3.296875 0zm-3.703125 0.1875q-1.421875 0 -2.4375 -0.484375q-1.015625 -0.5 -1.5625 -1.328125q-0.546875 -0.84375 -0.546875 -1.875q0 -1.078125 0.53125 -1.890625q0.53125 -0.8125 1.6875 -1.28125q1.15625 -0.46875 3.0 -0.46875l3.234375 0l0 2.0625l-2.84375 0q-1.25 0 -1.71875 0.40625q-0.453125 0.40625 -0.453125 1.015625q0 0.671875 0.53125 1.078125q0.53125 0.390625 1.453125 0.390625q0.890625 0 1.578125 -0.421875q0.703125 -0.421875 1.015625 -1.234375l0.546875 1.625q-0.375 1.1875 -1.390625 1.796875q-1.015625 0.609375 -2.625 0.609375zm14.274536 0q-1.5625 0 -3.0 -0.375q-1.4375 -0.375 -2.265625 -0.9375l1.171875 -2.53125q0.84375 0.515625 1.96875 0.84375q1.140625 0.328125 2.25 0.328125q1.21875 0 1.71875 -0.296875q0.515625 -0.296875 0.515625 -0.8125q0 -0.421875 -0.390625 -0.640625q-0.390625 -0.21875 -1.046875 -0.328125q-0.65625 -0.109375 -1.4375 -0.21875q-0.78125 -0.125 -1.578125 -0.3125q-0.78125 -0.1875 -1.4375 -0.5625q-0.65625 -0.390625 -1.046875 -1.046875q-0.390625 -0.65625 -0.390625 -1.703125q0 -1.140625 0.65625 -2.015625q0.671875 -0.890625 1.9375 -1.390625q1.265625 -0.515625 3.015625 -0.515625q1.25 0 2.53125 0.28125q1.296875 0.265625 2.15625 0.78125l-1.1875 2.5q-0.875 -0.515625 -1.765625 -0.703125q-0.890625 -0.1875 -1.734375 -0.1875q-1.171875 0 -1.71875 0.3125q-0.53125 0.3125 -0.53125 0.8125q0 0.453125 0.390625 0.6875q0.40625 0.21875 1.046875 0.359375q0.65625 0.125 1.4375 0.234375q0.78125 0.09375 1.5625 0.296875q0.796875 0.203125 1.4375 0.578125q0.65625 0.375 1.0625 1.015625q0.40625 0.640625 0.40625 1.671875q0 1.140625 -0.6875 2.015625q-0.671875 0.859375 -1.953125 1.359375q-1.265625 0.5 -3.09375 0.5zm13.926575 0q-2.078125 0 -3.65625 -0.8125q-1.5625 -0.8125 -2.421875 -2.21875q-0.859375 -1.421875 -0.859375 -3.234375q0 -1.828125 0.84375 -3.234375q0.859375 -1.40625 2.3125 -2.203125q1.46875 -0.8125 3.328125 -0.8125q1.78125 0 3.21875 0.765625q1.4375 0.75 2.265625 2.15625q0.84375 1.40625 0.84375 3.375q0 0.203125 -0.03125 0.46875q-0.015625 0.25 -0.046875 0.484375l-9.859375 0l0 -2.0625l8.015625 0l-1.359375 0.609375q0 -0.9375 -0.390625 -1.640625q-0.375 -0.703125 -1.0625 -1.09375q-0.671875 -0.390625 -1.578125 -0.390625q-0.890625 0 -1.59375 0.390625q-0.6875 0.390625 -1.078125 1.109375q-0.375 0.703125 -0.375 1.671875l0 0.546875q0 1.0 0.4375 1.75q0.453125 0.75 1.25 1.15625q0.796875 0.390625 1.890625 0.390625q0.96875 0 1.703125 -0.296875q0.734375 -0.296875 1.34375 -0.875l1.875 2.03125q-0.84375 0.953125 -2.109375 1.46875q-1.265625 0.5 -2.90625 0.5zm8.215576 -0.1875l0 -16.75l3.515625 0l0 16.75l-3.515625 0zm6.7960815 0l0 -12.140625l3.515625 0l0 12.140625l-3.515625 0zm1.765625 -13.84375q-0.984375 0 -1.59375 -0.5625q-0.609375 -0.5625 -0.609375 -1.40625q0 -0.828125 0.609375 -1.390625q0.609375 -0.5625 1.59375 -0.5625q0.96875 0 1.578125 0.53125q0.609375 0.53125 0.609375 1.359375q0 0.890625 -0.609375 1.46875q-0.59375 0.5625 -1.578125 0.5625zm5.0303955 13.84375l0 -12.140625l3.359375 0l0 3.359375l-0.625 -1.015625q0.65625 -1.21875 1.875 -1.875q1.21875 -0.65625 2.78125 -0.65625q1.4375 0 2.578125 0.578125q1.140625 0.578125 1.796875 1.765625q0.65625 1.171875 0.65625 3.03125l0 6.953125l-3.53125 0l0 -6.40625q0 -1.46875 -0.640625 -2.171875q-0.640625 -0.703125 -1.8125 -0.703125q-0.84375 0 -1.515625 0.359375q-0.65625 0.34375 -1.03125 1.0625q-0.375 0.71875 -0.375 1.859375l0 6.0l-3.515625 0zm21.723145 0.1875q-2.078125 0 -3.65625 -0.8125q-1.5625 -0.8125 -2.421875 -2.21875q-0.859375 -1.421875 -0.859375 -3.234375q0 -1.828125 0.84375 -3.234375q0.859375 -1.40625 2.3125 -2.203125q1.46875 -0.8125 3.328125 -0.8125q1.78125 0 3.21875 0.765625q1.4375 0.75 2.265625 2.15625q0.84375 1.40625 0.84375 3.375q0 0.203125 -0.03125 0.46875q-0.015625 0.25 -0.046875 0.484375l-9.859375 0l0 -2.0625l8.015625 0l-1.359375 0.609375q0 -0.9375 -0.390625 -1.640625q-0.375 -0.703125 -1.0625 -1.09375q-0.671875 -0.390625 -1.578125 -0.390625q-0.890625 0 -1.59375 0.390625q-0.6875 0.390625 -1.078125 1.109375q-0.375 0.703125 -0.375 1.671875l0 0.546875q0 1.0 0.4375 1.75q0.453125 0.75 1.25 1.15625q0.796875 0.390625 1.890625 0.390625q0.96875 0 1.703125 -0.296875q0.734375 -0.296875 1.34375 -0.875l1.875 2.03125q-0.84375 0.953125 -2.109375 1.46875q-1.265625 0.5 -2.90625 0.5z" fill-rule="nonzero"/></g></svg>