<svg version="1.1" viewBox="0.0 0.0 960.0 960.0" fill="none" stroke="none" stroke-linecap="square" stroke-miterlimit="10" xmlns:xlink="http://www.w3.org/1999/xlink" xmlns="http://www.w3.org/2000/svg"><clipPath id="g389a18d1f0b_0_115.0"><path d="m0 0l960.0 0l0 960.0l-960.0 0l0 -960.0z" clip-rule="nonzero"/></clipPath><g clip-path="url(#g389a18d1f0b_0_115.0)"><path fill="#000000" fill-opacity="0.0" d="m0 0l960.0 0l0 960.0l-960.0 0z" fill-rule="evenodd"/><path fill="#000000" fill-opacity="0.0" d="m77.83202 55.125984l667.5275 0l0 71.62205l-667.5275 0z" fill-rule="evenodd"/><path fill="#000000" d="m105.36327 76.612236q4.453125 0 7.734375 1.484375q3.296875 1.484375 5.078125 4.21875q1.78125 2.734375 1.78125 6.484375q0 3.6875 -1.78125 6.453125q-1.78125 2.765625 -5.078125 4.234375q-3.28125 1.453125 -7.734375 1.453125l-6.765625 0l0 9.265625l-7.78125 0l0 -33.59375l14.546875 0zm-0.4375 18.0q3.5 0 5.328125 -1.515625q1.828125 -1.515625 1.828125 -4.296875q0 -2.828125 -1.828125 -4.34375q-1.828125 -1.515625 -5.328125 -1.515625l-6.328125 0l0 11.671875l6.328125 0zm29.76107 15.984375q-4.359375 0 -6.8124924 -2.328125q-2.453125 -2.328125 -2.453125 -6.609375l0 -27.0625l7.4843674 0l0 26.640625q0 1.625 0.84375 2.515625q0.84375 0.890625 2.375 0.890625q0.578125 0 1.171875 -0.140625q0.609375 -0.15625 0.9375 -0.34375l0.34375 5.8125q-1.875 0.625 -3.890625 0.625zm33.305542 -26.21875l0 25.828125l-7.140625 0l0 -2.96875q-2.78125 3.359375 -8.0625 3.359375q-3.65625 0 -6.609375 -1.625q-2.953125 -1.640625 -4.640625 -4.65625q-1.671875 -3.03125 -1.671875 -7.015625q0 -3.984375 1.671875 -7.0q1.6875 -3.03125 4.640625 -4.65625q2.953125 -1.640625 6.609375 -1.640625q4.9375 0 7.71875 3.109375l0 -2.734375l7.484375 0zm-13.90625 20.0625q2.828125 0 4.6875 -1.9375q1.875 -1.9375 1.875 -5.203125q0 -3.265625 -1.875 -5.203125q-1.859375 -1.953125 -4.6875 -1.953125q-2.890625 0 -4.765625 1.953125q-1.859375 1.9375 -1.859375 5.203125q0 3.265625 1.859375 5.203125q1.875 1.9375 4.765625 1.9375zm36.52632 -20.4375q4.796875 0 7.75 2.875q2.953125 2.875 2.953125 8.546875l0 14.78125l-7.484375 0l0 -13.625q0 -3.078125 -1.34375 -4.59375q-1.34375 -1.515625 -3.890625 -1.515625q-2.84375 0 -4.53125 1.765625q-1.671875 1.75 -1.671875 5.203125l0 12.765625l-7.484375 0l0 -25.828125l7.15625 0l0 3.03125q1.484375 -1.640625 3.6875 -2.515625q2.21875 -0.890625 4.859375 -0.890625zm38.34584 0.953125l6.625 0l0 5.765625l-6.4375 0l0 19.484375l-7.484375 0l0 -26.40625q0 -4.40625 2.609375 -7.0q2.625 -2.59375 7.375 -2.59375q1.6875 0 3.1875 0.359375q1.515625 0.359375 2.53125 1.03125l-1.96875 5.421875q-1.296875 -0.90625 -3.03125 -0.90625q-3.40625 0 -3.40625 3.734375l0 1.109375zm22.328033 25.640625q-4.09375 0 -7.328125 -1.703125q-3.234375 -1.71875 -5.0625 -4.734375q-1.828125 -3.03125 -1.828125 -6.859375q0 -3.84375 1.828125 -6.859375q1.828125 -3.03125 5.0625 -4.734375q3.234375 -1.703125 7.328125 -1.703125q4.078125 0 7.2812653 1.703125q3.21875 1.703125 5.046875 4.734375q1.828125 3.015625 1.828125 6.859375q0 3.828125 -1.828125 6.859375q-1.828125 3.015625 -5.046875 4.734375q-3.2031403 1.703125 -7.2812653 1.703125zm0 -6.15625q2.875 0 4.7187653 -1.9375q1.84375 -1.9375 1.84375 -5.203125q0 -3.265625 -1.84375 -5.203125q-1.8437653 -1.953125 -4.7187653 -1.953125q-2.890625 0 -4.765625 1.953125q-1.859375 1.9375 -1.859375 5.203125q0 3.265625 1.859375 5.203125q1.875 1.9375 4.765625 1.9375zm26.299454 -16.65625q1.34375 -1.859375 3.625 -2.8125q2.28125 -0.96875 5.25 -0.96875l0 6.90625q-1.25 -0.09375 -1.671875 -0.09375q-3.21875 0 -5.046875 1.796875q-1.828125 1.796875 -1.828125 5.40625l0 12.1875l-7.484375 0l0 -25.828125l7.15625 0l0 3.40625zm53.31894 -3.40625l0 25.828125l-7.140625 0l0 -2.96875q-2.78125 3.359375 -8.0625 3.359375q-3.65625 0 -6.609375 -1.625q-2.953125 -1.640625 -4.640625 -4.65625q-1.671875 -3.03125 -1.671875 -7.015625q0 -3.984375 1.671875 -7.0q1.6875 -3.03125 4.640625 -4.65625q2.953125 -1.640625 6.609375 -1.640625q4.9375 0 7.71875 3.109375l0 -2.734375l7.484375 0zm-13.90625 20.0625q2.828125 0 4.6875 -1.9375q1.875 -1.9375 1.875 -5.203125q0 -3.265625 -1.875 -5.203125q-1.859375 -1.953125 -4.6875 -1.953125q-2.890625 0 -4.765625 1.953125q-1.859375 1.9375 -1.859375 5.203125q0 3.265625 1.859375 5.203125q1.875 1.9375 4.765625 1.9375zm36.526337 -20.4375q4.796875 0 7.75 2.875q2.953125 2.875 2.953125 8.546875l0 14.78125l-7.484375 0l0 -13.625q0 -3.078125 -1.34375 -4.59375q-1.34375 -1.515625 -3.890625 -1.515625q-2.84375 0 -4.53125 1.765625q-1.671875 1.75 -1.671875 5.203125l0 12.765625l-7.484375 0l0 -25.828125l7.15625 0l0 3.03125q1.484375 -1.640625 3.6875 -2.515625q2.21875 -0.890625 4.859375 -0.890625zm43.48056 0.375l0 21.515625q0 7.09375 -3.609375 10.546875q-3.59375 3.46875 -10.453125 3.46875q-3.640625 0 -6.890625 -0.921875q-3.234375 -0.90625 -5.4375 -2.640625l2.96875 -5.375q1.640625 1.34375 3.984375 2.109375q2.359375 0.765625 4.75 0.765625q3.75 0 5.46875 -1.734375q1.734375 -1.71875 1.734375 -5.265625l0 -0.859375q-1.4375 1.4375 -3.40625 2.203125q-1.96875 0.765625 -4.21875 0.765625q-5.09375 0 -8.078125 -2.90625q-2.96875 -2.90625 -2.96875 -8.703125l0 -12.96875l7.484375 0l0 11.859375q0 6.28125 5.234375 6.28125q2.6875 0 4.3125 -1.75q1.640625 -1.75 1.640625 -5.203125l0 -11.1875l7.484375 0zm32.12262 26.40625q-3.984375 0 -7.71875 -1.078125q-3.71875 -1.078125 -5.96875 -2.8125l2.640625 -5.859375q2.15625 1.59375 5.125 2.5625q2.984375 0.953125 5.96875 0.953125q3.3125 0 4.890625 -0.984375q1.578125 -0.984375 1.578125 -2.625q0 -1.203125 -0.9375 -1.984375q-0.921875 -0.796875 -2.390625 -1.28125q-1.46875 -0.484375 -3.96875 -1.046875q-3.828125 -0.921875 -6.28125 -1.828125q-2.453125 -0.90625 -4.203125 -2.921875q-1.75 -2.03125 -1.75 -5.390625q0 -2.921875 1.578125 -5.296875q1.59375 -2.375 4.78125 -3.765625q3.1875 -1.390625 7.796875 -1.390625q3.21875 0 6.28125 0.765625q3.078125 0.765625 5.390625 2.203125l-2.40625 5.90625q-4.65625 -2.640625 -9.3125 -2.640625q-3.265625 0 -4.828125 1.0625q-1.546875 1.046875 -1.546875 2.78125q0 1.71875 1.796875 2.5625q1.796875 0.84375 5.5 1.65625q3.828125 0.921875 6.28125 1.828125q2.453125 0.90625 4.203125 2.875q1.75 1.96875 1.75 5.328125q0 2.890625 -1.609375 5.265625q-1.609375 2.375 -4.828125 3.765625q-3.21875 1.390625 -7.8125 1.390625zm31.530334 -0.1875q-4.125 0 -7.421875 -1.703125q-3.28125 -1.71875 -5.140625 -4.734375q-1.84375 -3.03125 -1.84375 -6.859375q0 -3.84375 1.84375 -6.859375q1.859375 -3.03125 5.140625 -4.734375q3.296875 -1.703125 7.421875 -1.703125q4.078125 0 7.125 1.703125q3.046875 1.703125 4.4375 4.875l-5.796875 3.109375q-2.015625 -3.546875 -5.8125 -3.546875q-2.9375 0 -4.859375 1.921875q-1.90625 1.921875 -1.90625 5.234375q0 3.3125 1.90625 5.234375q1.921875 1.90625 4.859375 1.90625q3.84375 0 5.8125 -3.546875l5.796875 3.171875q-1.390625 3.0625 -4.4375 4.796875q-3.046875 1.734375 -7.125 1.734375zm28.563293 -6.0q2.015625 0 3.5625 -0.59375q1.5625 -0.609375 2.90625 -1.90625l3.984375 4.3125q-3.640625 4.1875 -10.65625 4.1875q-4.359375 0 -7.71875 -1.703125q-3.359375 -1.71875 -5.1875 -4.734375q-1.828125 -3.03125 -1.828125 -6.859375q0 -3.796875 1.796875 -6.84375q1.8125 -3.046875 4.953125 -4.75q3.140625 -1.703125 7.078125 -1.703125q3.703125 0 6.71875 1.5625q3.03125 1.546875 4.828125 4.5q1.796875 2.953125 1.796875 6.984375l-19.109375 3.703125q0.828125 1.921875 2.578125 2.890625q1.75 0.953125 4.296875 0.953125zm-1.109375 -14.9375q-2.828125 0 -4.609375 1.828125q-1.78125 1.828125 -1.875 5.03125l12.578125 -2.4375q-0.53125 -2.015625 -2.171875 -3.21875q-1.625 -1.203125 -3.921875 -1.203125zm34.0849 -5.65625q4.796875 0 7.75 2.875q2.953125 2.875 2.953125 8.546875l0 14.78125l-7.484375 0l0 -13.625q0 -3.078125 -1.34375 -4.59375q-1.34375 -1.515625 -3.890625 -1.515625q-2.84375 0 -4.53125 1.765625q-1.671875 1.75 -1.671875 5.203125l0 12.765625l-7.4843445 0l0 -25.828125l7.1562195 0l0 3.03125q1.484375 -1.640625 3.6875 -2.515625q2.21875 -0.890625 4.859375 -0.890625zm43.956055 0.375l0 25.828125l-7.140625 0l0 -2.96875q-2.78125 3.359375 -8.0625 3.359375q-3.65625 0 -6.609375 -1.625q-2.953125 -1.640625 -4.640625 -4.65625q-1.671875 -3.03125 -1.671875 -7.015625q0 -3.984375 1.671875 -7.0q1.6875 -3.03125 4.640625 -4.65625q2.953125 -1.640625 6.609375 -1.640625q4.9375 0 7.71875 3.109375l0 -2.734375l7.484375 0zm-13.90625 20.0625q2.828125 0 4.6875 -1.9375q1.875 -1.9375 1.875 -5.203125q0 -3.265625 -1.875 -5.203125q-1.859375 -1.953125 -4.6875 -1.953125q-2.890625 0 -4.765625 1.953125q-1.859375 1.9375 -1.859375 5.203125q0 3.265625 1.859375 5.203125q1.875 1.9375 4.765625 1.9375zm27.979492 -16.65625q1.34375 -1.859375 3.625 -2.8125q2.28125 -0.96875 5.25 -0.96875l0 6.90625q-1.25 -0.09375 -1.671875 -0.09375q-3.21875 0 -5.046875 1.796875q-1.828125 1.796875 -1.828125 5.40625l0 12.1875l-7.484375 0l0 -25.828125l7.15625 0l0 3.40625zm13.339783 -3.40625l7.484375 0l0 25.828125l-7.484375 0l0 -25.828125zm3.734375 -3.59375q-2.0625 0 -3.359375 -1.203125q-1.296875 -1.203125 -1.296875 -2.96875q0 -1.78125 1.296875 -2.984375q1.296875 -1.203125 3.359375 -1.203125q2.0625 0 3.359375 1.15625q1.296875 1.15625 1.296875 2.875q0 1.875 -1.296875 3.109375q-1.296875 1.21875 -3.359375 1.21875zm23.01056 29.8125q-4.09375 0 -7.328125 -1.703125q-3.234375 -1.71875 -5.0625 -4.734375q-1.828125 -3.03125 -1.828125 -6.859375q0 -3.84375 1.828125 -6.859375q1.828125 -3.03125 5.0625 -4.734375q3.234375 -1.703125 7.328125 -1.703125q4.078125 0 7.28125 1.703125q3.21875 1.703125 5.046875 4.734375q1.828125 3.015625 1.828125 6.859375q0 3.828125 -1.828125 6.859375q-1.828125 3.015625 -5.046875 4.734375q-3.203125 1.703125 -7.28125 1.703125zm0 -6.15625q2.875 0 4.71875 -1.9375q1.84375 -1.9375 1.84375 -5.203125q0 -3.265625 -1.84375 -5.203125q-1.84375 -1.953125 -4.71875 -1.953125q-2.890625 0 -4.765625 1.953125q-1.859375 1.9375 -1.859375 5.203125q0 3.265625 1.859375 5.203125q1.875 1.9375 4.765625 1.9375z" fill-rule="nonzero"/><path fill="#8afbe6" d="m589.2572 413.22308l0 -113.22308l44.62732 29.753296l54.5459 -62.811035l100.0 -71.0735l0 161.15486l-93.38843 20.661407l-52.065613 55.37271z" fill-rule="evenodd"/><path fill="#eeeeee" d="m589.2572 595.33856l0 -113.22308l44.62732 29.753296l54.5459 -62.811035l100.0 -71.07349l0 161.15485l-93.38843 20.661438l-52.065613 55.37268z" fill-rule="evenodd"/><path fill="#21caab" fill-opacity="0.5" d="m130.5001 534.5065l-0.046035767 295.27612l458.99564 0l0 -463.73383l-49.022705 82.20358l-67.068634 42.43567l-55.030853 68.43948l-67.92804 -53.382996l-130.8577 67.07135z" fill-rule="evenodd"/><path fill="#d9d9d9" d="m130.45737 593.36847l0 241.12l458.98947 0l0 -308.70667l-154.94547 147.04669l-42.87802 -14.613342l-76.01099 46.579956l-59.44449 -36.533325l-56.52101 13.700012z" fill-rule="evenodd"/><path fill="#000000" fill-opacity="0.0" d="m131.95276 591.48816l67.66141 87.61682l57.716553 -14.4487915l56.259827 36.789978l76.31497 -46.538025l46.77426 17.795288l156.32022 -153.30975l52.288696 39.212646l43.910767 -56.863556l98.60632 -48.083984" fill-rule="evenodd"/><path stroke="#999999" stroke-width="4.0" stroke-linejoin="round" stroke-linecap="butt" d="m131.95276 591.48816l67.66141 87.61682l57.716553 -14.4487915l56.259827 36.789978l76.31497 -46.538025l46.77426 17.795288l156.32022 -153.30975l52.288696 39.212646l43.910767 -56.863556l98.60632 -48.083984" fill-rule="evenodd"/><path fill="#000000" fill-opacity="0.0" d="m130.67717 535.12335l89.19948 36.398987l131.17322 -67.79532l67.979004 53.624664l53.467194 -67.51965l65.11551 -42.70343l51.695496 -83.49869l46.078735 27.13913l53.845154 -63.07614l99.28351 -58.503937" fill-rule="evenodd"/><path stroke="#21caab" stroke-width="4.0" stroke-linejoin="round" stroke-linecap="butt" d="m130.67717 535.12335l89.19948 36.398987l131.17322 -67.79532l67.979004 53.624664l53.467194 -67.51965l65.11551 -42.70343l51.695496 -83.49869l46.078735 27.13913l53.845154 -63.07614l99.28351 -58.503937" fill-rule="evenodd"/><path fill="#000000" fill-opacity="0.0" d="m130.45396 834.5302l655.8425 0l0 62.992126l-655.8425 0z" fill-rule="evenodd"/><path fill="#595959" d="m428.1493 876.866l0 -19.15625l-7.40625 0l0 -1.921875l17.03125 0l0 1.921875l-7.40625 0l0 19.15625l-2.21875 0zm12.735931 0l0 -15.8125l2.140625 0l0 15.8125l-2.140625 0zm1.078125 -19.296875q-0.65625 0 -1.109375 -0.453125q-0.453125 -0.453125 -0.453125 -1.078125q0 -0.640625 0.453125 -1.078125q0.453125 -0.4375 1.109375 -0.4375q0.65625 0 1.109375 0.421875q0.453125 0.421875 0.453125 1.0625q0 0.65625 -0.4375 1.109375q-0.4375 0.453125 -1.125 0.453125zm7.0213013 19.296875l0 -15.8125l2.046875 0l0 4.28125l-0.328125 -0.75q0.71875 -1.71875 2.328125 -2.6875q1.609375 -0.984375 3.8125 -0.984375q2.3125 0 3.9375 1.15625q1.625 1.15625 2.109375 3.46875l-0.84375 -0.328125q0.6875 -1.921875 2.453125 -3.109375q1.765625 -1.1875 4.234375 -1.1875q1.921875 0 3.34375 0.734375q1.4375 0.734375 2.234375 2.25q0.796875 1.5 0.796875 3.78125l0 9.1875l-2.125 0l0 -8.96875q0 -2.5 -1.203125 -3.78125q-1.1875 -1.28125 -3.34375 -1.28125q-1.625 0 -2.828125 0.6875q-1.1875 0.671875 -1.84375 1.953125q-0.640625 1.28125 -0.640625 3.078125l0 8.3125l-2.125 0l0 -8.96875q0 -2.5 -1.21875 -3.78125q-1.203125 -1.28125 -3.359375 -1.28125q-1.59375 0 -2.8125 0.6875q-1.203125 0.671875 -1.84375 1.953125q-0.640625 1.28125 -0.640625 3.078125l0 8.3125l-2.140625 0zm38.6492 0.15625q-2.46875 0 -4.328125 -1.03125q-1.859375 -1.046875 -2.921875 -2.859375q-1.046875 -1.828125 -1.046875 -4.1875q0 -2.34375 1.0 -4.140625q1.015625 -1.8125 2.765625 -2.84375q1.765625 -1.046875 3.96875 -1.046875q2.21875 0 3.953125 1.015625q1.734375 1.0 2.71875 2.828125q1.0 1.8125 1.0 4.1875q0 0.15625 -0.015625 0.328125q-0.015625 0.15625 -0.015625 0.34375l-13.75 0l0 -1.609375l12.609375 0l-0.84375 0.640625q0 -1.71875 -0.734375 -3.046875q-0.734375 -1.34375 -2.0 -2.09375q-1.265625 -0.765625 -2.921875 -0.765625q-1.625 0 -2.921875 0.765625q-1.296875 0.75 -2.015625 2.109375q-0.71875 1.34375 -0.71875 3.09375l0 0.328125q0 1.8125 0.796875 3.1875q0.796875 1.359375 2.21875 2.125q1.4375 0.765625 3.265625 0.765625q1.453125 0 2.703125 -0.5q1.25 -0.515625 2.15625 -1.578125l1.203125 1.390625q-1.0625 1.265625 -2.640625 1.9375q-1.578125 0.65625 -3.484375 0.65625z" fill-rule="nonzero"/><path fill="#000000" fill-opacity="0.0" d="m51.13378 837.9346l0 -585.8583l73.35433 0l0 585.8583z" fill-rule="evenodd"/><path fill="#595959" d="m98.65074 607.80865l-21.078125 0l0 -7.890625q0 -4.0 1.921875 -6.296875q1.90625 -2.3125 5.3125 -2.3125q2.21875 0 3.828125 1.046875q1.609375 1.03125 2.46875 2.96875q0.859375 1.921875 0.859375 4.59375l0 6.65625l-1.015625 -0.984375l7.703125 0l0 2.21875zm0 -14.390625l-7.640625 5.421875l0 -2.40625l7.640625 -5.453125l0 2.4375zm-7.53125 12.171875l-1.046875 0.984375l0 -6.59375q0 -3.15625 -1.375 -4.796875q-1.390625 -1.640625 -3.890625 -1.640625q-2.53125 0 -3.921875 1.640625q-1.390625 1.640625 -1.390625 4.796875l0 6.59375l-1.046875 -0.984375l12.671875 0zm7.6875 -25.800354q0 2.46875 -1.03125 4.328125q-1.046875 1.859375 -2.859375 2.921875q-1.828125 1.046875 -4.1875 1.046875q-2.34375 0 -4.140625 -1.0q-1.8125 -1.015625 -2.84375 -2.765625q-1.046875 -1.765625 -1.046875 -3.96875q0 -2.21875 1.015625 -3.953125q1.0 -1.734375 2.828125 -2.71875q1.8125 -1.0 4.1875 -1.0q0.15625 0 0.328125 0.015625q0.15625 0.015625 0.34375 0.015625l0 13.75l-1.609375 0l0 -12.609375l0.640625 0.84375q-1.71875 0 -3.046875 0.734375q-1.34375 0.734375 -2.09375 2.0q-0.765625 1.265625 -0.765625 2.921875q0 1.625 0.765625 2.921875q0.75 1.296875 2.109375 2.015625q1.34375 0.71875 3.09375 0.71875l0.328125 0q1.8125 0 3.1875 -0.796875q1.359375 -0.796875 2.125 -2.21875q0.765625 -1.4375 0.765625 -3.265625q0 -1.453125 -0.5 -2.703125q-0.515625 -1.25 -1.578125 -2.15625l1.390625 -1.203125q1.265625 1.0625 1.9375 2.640625q0.65625 1.578125 0.65625 3.484375zm-0.15625 -15.244385l-15.8125 7.015625l0 -2.234375l14.671875 -6.4375l0 1.0625l-14.671875 -6.546875l0 -2.109375l15.8125 7.046875l0 2.203125zm0.15625 -18.50824q0 2.46875 -1.03125 4.328125q-1.046875 1.859375 -2.859375 2.921875q-1.828125 1.046875 -4.1875 1.046875q-2.34375 0 -4.140625 -1.0q-1.8125 -1.015625 -2.84375 -2.765625q-1.046875 -1.765625 -1.046875 -3.96875q0 -2.21875 1.015625 -3.953125q1.0 -1.734375 2.828125 -2.71875q1.8125 -1.0 4.1875 -1.0q0.15625 0 0.328125 0.015625q0.15625 0.015625 0.34375 0.015625l0 13.75l-1.609375 0l0 -12.609375l0.640625 0.84375q-1.71875 0 -3.046875 0.734375q-1.34375 0.734375 -2.09375 2.0q-0.765625 1.265625 -0.765625 2.921875q0 1.625 0.765625 2.921875q0.75 1.296875 2.109375 2.015625q1.34375 0.71875 3.09375 0.71875l0.328125 0q1.8125 0 3.1875 -0.796875q1.359375 -0.796875 2.125 -2.21875q0.765625 -1.4375 0.765625 -3.265625q0 -1.453125 -0.5 -2.703125q-0.515625 -1.25 -1.578125 -2.15625l1.390625 -1.203125q1.265625 1.0625 1.9375 2.640625q0.65625 1.578125 0.65625 3.484375zm-0.15625 -11.482971l-15.8125 0l0 -2.046875l4.34375 0l-0.8125 0.328125q-1.71875 -0.75 -2.6875 -2.40625q-0.984375 -1.65625 -0.984375 -3.9375q0 -1.9375 0.734375 -3.390625q0.734375 -1.453125 2.25 -2.28125q1.5 -0.828125 3.78125 -0.828125l9.1875 0l0 2.125l-8.96875 0q-2.5 0 -3.78125 1.25q-1.28125 1.25 -1.28125 3.515625q0 1.6875 0.6875 2.9375q0.671875 1.25 1.953125 1.921875q1.28125 0.671875 3.078125 0.671875l8.3125 0l0 2.140625zm0.15625 -26.885223q0 2.015625 -0.75 3.53125q-0.765625 1.5000305 -2.265625 2.3281555q-1.5 0.828125 -3.765625 0.828125l-9.1875 0l0 -2.140625l8.953125 0q2.53125 0 3.8125 -1.2500305q1.265625 -1.25 1.265625 -3.5q0 -1.65625 -0.671875 -2.875q-0.671875 -1.21875 -1.96875 -1.859375q-1.296875 -0.65625 -3.109375 -0.65625l-8.28125 0l0 -2.140625l15.8125 0l0 2.046875l-4.328125 0l0.78125 -0.328125q1.734375 0.75 2.71875 2.328125q0.984375 1.578125 0.984375 3.6875zm0 -20.405396q0 2.46875 -1.03125 4.328125q-1.046875 1.859375 -2.859375 2.921875q-1.828125 1.046875 -4.1875 1.046875q-2.34375 0 -4.140625 -1.0q-1.8125 -1.015625 -2.84375 -2.765625q-1.046875 -1.765625 -1.046875 -3.96875q0 -2.21875 1.015625 -3.953125q1.0 -1.734375 2.828125 -2.71875q1.8125 -1.0 4.1875 -1.0q0.15625 0 0.328125 0.015625q0.15625 0.015625 0.34375 0.015625l0 13.75l-1.609375 0l0 -12.609375l0.640625 0.84375q-1.71875 0 -3.046875 0.734375q-1.34375 0.734375 -2.09375 2.0q-0.765625 1.265625 -0.765625 2.921875q0 1.625 0.765625 2.921875q0.75 1.296875 2.109375 2.015625q1.34375 0.71875 3.09375 0.71875l0.328125 0q1.8125 0 3.1875 -0.796875q1.359375 -0.796875 2.125 -2.21875q0.765625 -1.4375 0.765625 -3.265625q0 -1.453125 -0.5 -2.703125q-0.515625 -1.25 -1.578125 -2.15625l1.390625 -1.203125q1.265625 1.0625 1.9375 2.640625q0.65625 1.578125 0.65625 3.484375z" fill-rule="nonzero"/><path fill="#000000" fill-opacity="0.0" d="m589.0111 270.33078l0 565.92126" fill-rule="evenodd"/><path stroke="#111c28" stroke-width="4.0" stroke-linejoin="round" stroke-linecap="butt" stroke-dasharray="4.0,12.0" d="m589.0111 270.33078l0 565.92126" fill-rule="evenodd"/><path fill="#29caab" d="m136.65923 199.65056l0 0c0 -4.592331 3.7228088 -8.31514 8.3151245 -8.31514l163.52724 0c2.2052917 0 4.320282 0.8760681 5.879669 2.4354553c1.5593872 1.5593872 2.4354553 3.6743622 2.4354553 5.8796844l0 33.259506c0 4.5923157 -3.7228088 8.3151245 -8.3151245 8.3151245l-163.52724 0c-4.5923157 0 -8.3151245 -3.7228088 -8.3151245 -8.3151245z" fill-rule="evenodd"/><path fill="#ffffff" d="m168.33923 223.85829l0 -14.265625l5.5625 0q1.875 0 3.203125 0.59375q1.328125 0.578125 2.03125 1.703125q0.71875 1.125 0.71875 2.671875q0 1.546875 -0.71875 2.65625q-0.703125 1.109375 -2.03125 1.71875q-1.328125 0.59375 -3.203125 0.59375l-4.4375 0l0.921875 -0.953125l0 5.28125l-2.046875 0zm2.046875 -5.078125l-0.921875 -1.015625l4.375 0q1.96875 0 2.96875 -0.828125q1.015625 -0.84375 1.015625 -2.375q0 -1.53125 -1.015625 -2.359375q-1.0 -0.84375 -2.96875 -0.84375l-4.375 0l0.921875 -1.015625l0 8.4375zm12.006348 5.078125l0 -10.8125l1.875 0l0 2.9375l-0.1875 -0.734375q0.453125 -1.109375 1.5 -1.703125q1.0625 -0.59375 2.625 -0.59375l0 1.890625q-0.125 -0.015625 -0.25 -0.015625q-0.109375 0 -0.203125 0q-1.578125 0 -2.5 0.9375q-0.90625 0.9375 -0.90625 2.703125l0 5.390625l-1.953125 0zm12.740387 0.125q-1.625 0 -2.890625 -0.71875q-1.265625 -0.71875 -2.0 -1.96875q-0.734375 -1.25 -0.734375 -2.84375q0 -1.609375 0.734375 -2.84375q0.734375 -1.25 2.0 -1.953125q1.265625 -0.703125 2.890625 -0.703125q1.609375 0 2.875 0.703125q1.28125 0.703125 2.0 1.9375q0.734375 1.234375 0.734375 2.859375q0 1.609375 -0.734375 2.859375q-0.71875 1.234375 -2.0 1.953125q-1.265625 0.71875 -2.875 0.71875zm0 -1.71875q1.046875 0 1.859375 -0.46875q0.828125 -0.46875 1.296875 -1.328125q0.46875 -0.875 0.46875 -2.015625q0 -1.15625 -0.46875 -2.0q-0.46875 -0.859375 -1.296875 -1.328125q-0.8125 -0.46875 -1.859375 -0.46875q-1.046875 0 -1.859375 0.46875q-0.8125 0.46875 -1.3125 1.328125q-0.484375 0.84375 -0.484375 2.0q0 1.140625 0.484375 2.015625q0.5 0.859375 1.3125 1.328125q0.8125 0.46875 1.859375 0.46875zm8.322968 1.59375l0 -10.8125l1.875 0l0 2.875l-0.3125 -0.734375q0.515625 -1.046875 1.578125 -1.640625q1.0625 -0.59375 2.46875 -0.59375q1.546875 0 2.65625 0.765625q1.125 0.765625 1.484375 2.3125l-0.796875 -0.328125q0.484375 -1.25 1.703125 -2.0q1.234375 -0.75 2.859375 -0.75q1.296875 0 2.296875 0.515625q1.0 0.5 1.5625 1.546875q0.5625 1.03125 0.5625 2.625l0 6.21875l-1.953125 0l0 -6.0q0 -1.5625 -0.734375 -2.359375q-0.734375 -0.796875 -2.0625 -0.796875q-0.984375 0 -1.71875 0.40625q-0.734375 0.40625 -1.125 1.203125q-0.390625 0.796875 -0.390625 1.984375l0 5.5625l-1.96875 0l0 -6.0q0 -1.5625 -0.71875 -2.359375q-0.71875 -0.796875 -2.0625 -0.796875q-0.96875 0 -1.703125 0.40625q-0.734375 0.40625 -1.140625 1.203125q-0.40625 0.796875 -0.40625 1.984375l0 5.5625l-1.953125 0zm26.177765 0.125q-1.625 0 -2.890625 -0.71875q-1.265625 -0.71875 -2.0 -1.96875q-0.734375 -1.25 -0.734375 -2.84375q0 -1.609375 0.734375 -2.84375q0.734375 -1.25 2.0 -1.953125q1.265625 -0.703125 2.890625 -0.703125q1.609375 0 2.875 0.703125q1.28125 0.703125 2.0 1.9375q0.734375 1.234375 0.734375 2.859375q0 1.609375 -0.734375 2.859375q-0.71875 1.234375 -2.0 1.953125q-1.265625 0.71875 -2.875 0.71875zm0 -1.71875q1.046875 0 1.859375 -0.46875q0.828125 -0.46875 1.296875 -1.328125q0.46875 -0.875 0.46875 -2.015625q0 -1.15625 -0.46875 -2.0q-0.46875 -0.859375 -1.296875 -1.328125q-0.8125 -0.46875 -1.859375 -0.46875q-1.046875 0 -1.859375 0.46875q-0.8125 0.46875 -1.3125 1.328125q-0.484375 0.84375 -0.484375 2.0q0 1.140625 0.484375 2.015625q0.5 0.859375 1.3125 1.328125q0.8125 0.46875 1.859375 0.46875zm12.026093 1.71875q-1.625 0 -2.53125 -0.875q-0.890625 -0.875 -0.890625 -2.515625l0 -9.90625l1.953125 0l0 9.828125q0 0.875 0.4375 1.34375q0.4375 0.46875 1.265625 0.46875q0.90625 0 1.515625 -0.5l0.625 1.40625q-0.453125 0.375 -1.078125 0.5625q-0.625 0.1875 -1.296875 0.1875zm-5.25 -9.328125l0 -1.609375l6.890625 0l0 1.609375l-6.890625 0zm9.988541 9.203125l0 -10.8125l1.953125 0l0 10.8125l-1.953125 0zm0.96875 -12.890625q-0.5625 0 -0.9375 -0.359375q-0.375 -0.375 -0.375 -0.90625q0 -0.546875 0.375 -0.90625q0.375 -0.375 0.9375 -0.375q0.578125 0 0.953125 0.359375q0.375 0.359375 0.375 0.890625q0 0.546875 -0.375 0.921875q-0.359375 0.375 -0.953125 0.375zm9.3452 13.015625q-1.625 0 -2.890625 -0.71875q-1.265625 -0.71875 -2.0 -1.96875q-0.734375 -1.25 -0.734375 -2.84375q0 -1.609375 0.734375 -2.84375q0.734375 -1.25 2.0 -1.953125q1.265625 -0.703125 2.890625 -0.703125q1.609375 0 2.875 0.703125q1.28125 0.703125 2.0 1.9375q0.734375 1.234375 0.734375 2.859375q0 1.609375 -0.734375 2.859375q-0.71875 1.234375 -2.0 1.953125q-1.265625 0.71875 -2.875 0.71875zm0 -1.71875q1.046875 0 1.859375 -0.46875q0.828125 -0.46875 1.296875 -1.328125q0.46875 -0.875 0.46875 -2.015625q0 -1.15625 -0.46875 -2.0q-0.46875 -0.859375 -1.296875 -1.328125q-0.8125 -0.46875 -1.859375 -0.46875q-1.046875 0 -1.859375 0.46875q-0.8125 0.46875 -1.3125 1.328125q-0.484375 0.84375 -0.484375 2.0q0 1.140625 0.484375 2.015625q0.5 0.859375 1.3125 1.328125q0.8125 0.46875 1.859375 0.46875zm8.322968 1.59375l0 -10.8125l1.875 0l0 2.921875l-0.3125 -0.78125q0.53125 -1.046875 1.625 -1.640625q1.109375 -0.59375 2.578125 -0.59375q1.328125 0 2.328125 0.515625q1.015625 0.5 1.578125 1.546875q0.578125 1.03125 0.578125 2.625l0 6.21875l-1.953125 0l0 -6.0q0 -1.5625 -0.765625 -2.359375q-0.765625 -0.796875 -2.15625 -0.796875q-1.03125 0 -1.8125 0.40625q-0.765625 0.40625 -1.1875 1.203125q-0.421875 0.796875 -0.421875 1.984375l0 5.5625l-1.953125 0zm16.979675 0.125q-1.34375 0 -2.5625 -0.359375q-1.203125 -0.375 -1.90625 -0.90625l0.828125 -1.546875q0.6875 0.46875 1.703125 0.796875q1.015625 0.328125 2.078125 0.328125q1.375 0 1.96875 -0.390625q0.609375 -0.390625 0.609375 -1.078125q0 -0.515625 -0.375 -0.796875q-0.359375 -0.296875 -0.96875 -0.4375q-0.59375 -0.140625 -1.328125 -0.25q-0.734375 -0.109375 -1.46875 -0.28125q-0.734375 -0.171875 -1.359375 -0.484375q-0.609375 -0.328125 -0.96875 -0.890625q-0.359375 -0.5625 -0.359375 -1.5q0 -0.96875 0.546875 -1.703125q0.546875 -0.734375 1.546875 -1.125q1.015625 -0.40625 2.40625 -0.40625q1.0625 0 2.140625 0.25q1.09375 0.25 1.796875 0.71875l-0.84375 1.5625q-0.734375 -0.5 -1.53125 -0.671875q-0.796875 -0.1875 -1.578125 -0.1875q-1.296875 0 -1.9375 0.421875q-0.625 0.40625 -0.625 1.0625q0 0.546875 0.375 0.84375q0.390625 0.296875 0.984375 0.46875q0.609375 0.15625 1.34375 0.265625q0.734375 0.109375 1.46875 0.296875q0.734375 0.171875 1.328125 0.484375q0.609375 0.296875 0.984375 0.84375q0.375 0.546875 0.375 1.46875q0 0.984375 -0.578125 1.703125q-0.5625 0.703125 -1.609375 1.109375q-1.03125 0.390625 -2.484375 0.390625z" fill-rule="nonzero"/><path fill="#666666" d="m136.65923 259.88846l0 0c0 -4.5923157 3.7228088 -8.3151245 8.3151245 -8.3151245l163.52724 0c2.2052917 0 4.320282 0.87605286 5.879669 2.43544c1.5593872 1.5593872 2.4354553 3.6743927 2.4354553 5.8796844l0 33.25952c0 4.5923157 -3.7228088 8.3151245 -8.3151245 8.3151245l-163.52724 0c-4.5923157 0 -8.3151245 -3.7228088 -8.3151245 -8.3151245z" fill-rule="evenodd"/><path fill="#ffffff" d="m180.35527 284.69785l0 -15.8125l7.078125 0q2.734375 0 4.203125 1.109375q1.46875 1.09375 1.46875 2.984375q0 1.28125 -0.578125 2.171875q-0.578125 0.875 -1.546875 1.359375q-0.96875 0.46875 -2.09375 0.46875l0.40625 -0.6875q1.359375 0 2.390625 0.484375q1.046875 0.46875 1.65625 1.390625q0.609375 0.90625 0.609375 2.265625q0 2.03125 -1.53125 3.15625q-1.515625 1.109375 -4.53125 1.109375l-7.53125 0zm2.25 -1.828125l5.203125 0q1.875 0 2.859375 -0.625q1.0 -0.640625 1.0 -2.0q0 -1.375 -1.0 -2.0q-0.984375 -0.640625 -2.859375 -0.640625l-5.40625 0l0 -1.828125l4.828125 0q1.71875 0 2.671875 -0.625q0.953125 -0.640625 0.953125 -1.90625q0 -1.265625 -0.953125 -1.890625q-0.953125 -0.625 -2.671875 -0.625l-4.625 0l0 12.140625zm21.951096 1.828125l0 -2.53125l-0.109375 -0.46875l0 -4.3125q0 -1.375 -0.8125 -2.125q-0.796875 -0.765625 -2.40625 -0.765625q-1.046875 0 -2.0625 0.359375q-1.015625 0.34375 -1.71875 0.921875l-0.90625 -1.625q0.921875 -0.75 2.21875 -1.140625q1.296875 -0.390625 2.71875 -0.390625q2.46875 0 3.796875 1.203125q1.328125 1.1875 1.328125 3.65625l0 7.21875l-2.046875 0zm-3.9375 0.140625q-1.328125 0 -2.328125 -0.453125q-1.0 -0.453125 -1.546875 -1.25q-0.546875 -0.8125 -0.546875 -1.828125q0 -0.96875 0.453125 -1.75q0.46875 -0.796875 1.515625 -1.265625q1.0625 -0.484375 2.84375 -0.484375l3.796875 0l0 1.5625l-3.703125 0q-1.625 0 -2.1875 0.546875q-0.5625 0.53125 -0.5625 1.296875q0 0.890625 0.6875 1.421875q0.703125 0.53125 1.953125 0.53125q1.21875 0 2.125 -0.546875q0.921875 -0.546875 1.328125 -1.578125l0.421875 1.484375q-0.421875 1.0625 -1.515625 1.6875q-1.078125 0.625 -2.734375 0.625zm13.439285 0q-1.484375 0 -2.828125 -0.40625q-1.34375 -0.40625 -2.109375 -1.0l0.890625 -1.71875q0.78125 0.515625 1.90625 0.890625q1.125 0.359375 2.296875 0.359375q1.515625 0 2.171875 -0.421875q0.671875 -0.4375 0.671875 -1.203125q0 -0.5625 -0.40625 -0.875q-0.40625 -0.328125 -1.078125 -0.484375q-0.65625 -0.15625 -1.46875 -0.28125q-0.8125 -0.125 -1.625 -0.3125q-0.8125 -0.203125 -1.5 -0.546875q-0.671875 -0.34375 -1.078125 -0.96875q-0.40625 -0.625 -0.40625 -1.65625q0 -1.09375 0.609375 -1.90625q0.609375 -0.8125 1.71875 -1.25q1.125 -0.4375 2.671875 -0.4375q1.171875 0 2.375 0.28125q1.203125 0.28125 1.96875 0.796875l-0.921875 1.71875q-0.8125 -0.546875 -1.6875 -0.75q-0.875 -0.203125 -1.765625 -0.203125q-1.421875 0 -2.125 0.46875q-0.6875 0.46875 -0.6875 1.1875q0 0.609375 0.40625 0.9375q0.421875 0.328125 1.078125 0.515625q0.671875 0.171875 1.484375 0.296875q0.8125 0.125 1.625 0.3125q0.8125 0.1875 1.484375 0.53125q0.671875 0.34375 1.078125 0.953125q0.421875 0.609375 0.421875 1.625q0 1.078125 -0.640625 1.875q-0.625 0.78125 -1.78125 1.234375q-1.140625 0.4375 -2.75 0.4375zm13.217941 0q-1.921875 0 -3.390625 -0.78125q-1.453125 -0.796875 -2.25 -2.171875q-0.796875 -1.390625 -0.796875 -3.171875q0 -1.78125 0.765625 -3.15625q0.78125 -1.375 2.140625 -2.15625q1.375 -0.78125 3.09375 -0.78125q1.734375 0 3.0625 0.765625q1.34375 0.765625 2.09375 2.15625q0.765625 1.390625 0.765625 3.234375q0 0.140625 -0.015625 0.328125q-0.015625 0.171875 -0.03125 0.328125l-10.1875 0l0 -1.546875l9.0625 0l-0.890625 0.53125q0.03125 -1.140625 -0.46875 -2.046875q-0.5 -0.90625 -1.375 -1.40625q-0.859375 -0.515625 -2.015625 -0.515625q-1.125 0 -2.015625 0.515625q-0.875 0.5 -1.375 1.421875q-0.484375 0.90625 -0.484375 2.078125l0 0.359375q0 1.203125 0.546875 2.140625q0.546875 0.9375 1.53125 1.453125q1.0 0.515625 2.296875 0.515625q1.0625 0 1.921875 -0.359375q0.875 -0.359375 1.53125 -1.078125l1.203125 1.390625q-0.8125 0.953125 -2.03125 1.453125q-1.203125 0.5 -2.6875 0.5zm8.474136 -0.140625l0 -16.75l2.171875 0l0 16.75l-2.171875 0zm6.2993317 0l0 -11.96875l2.171875 0l0 11.96875l-2.171875 0zm1.09375 -14.265625q-0.640625 0 -1.0625 -0.40625q-0.40625 -0.40625 -0.40625 -1.0q0 -0.609375 0.40625 -1.015625q0.421875 -0.40625 1.0625 -0.40625q0.625 0 1.03125 0.40625q0.421875 0.390625 0.421875 0.96875q0 0.609375 -0.40625 1.03125q-0.40625 0.421875 -1.046875 0.421875zm5.2055817 14.265625l0 -11.96875l2.078125 0l0 3.234375l-0.328125 -0.859375q0.578125 -1.171875 1.796875 -1.828125q1.21875 -0.65625 2.84375 -0.65625q1.4687347 0 2.5781097 0.5625q1.125 0.5625 1.75 1.71875q0.640625 1.15625 0.640625 2.90625l0 6.890625l-2.15625 0l0 -6.640625q0 -1.734375 -0.859375 -2.609375q-0.84373474 -0.890625 -2.3749847 -0.890625q-1.15625 0 -2.015625 0.453125q-0.859375 0.453125 -1.328125 1.34375q-0.453125 0.875 -0.453125 2.1875l0 6.15625l-2.171875 0zm20.719528 0.140625q-1.921875 0 -3.390625 -0.78125q-1.453125 -0.796875 -2.25 -2.171875q-0.796875 -1.390625 -0.796875 -3.171875q0 -1.78125 0.765625 -3.15625q0.78125 -1.375 2.140625 -2.15625q1.375 -0.78125 3.09375 -0.78125q1.734375 0 3.0625 0.765625q1.34375 0.765625 2.09375 2.15625q0.765625 1.390625 0.765625 3.234375q0 0.140625 -0.015625 0.328125q-0.015625 0.171875 -0.03125 0.328125l-10.1875 0l0 -1.546875l9.0625 0l-0.890625 0.53125q0.03125 -1.140625 -0.46875 -2.046875q-0.5 -0.90625 -1.375 -1.40625q-0.859375 -0.515625 -2.015625 -0.515625q-1.125 0 -2.015625 0.515625q-0.875 0.5 -1.375 1.421875q-0.484375 0.90625 -0.484375 2.078125l0 0.359375q0 1.203125 0.546875 2.140625q0.546875 0.9375 1.53125 1.453125q1.0 0.515625 2.296875 0.515625q1.0625 0 1.921875 -0.359375q0.875 -0.359375 1.53125 -1.078125l1.203125 1.390625q-0.8125 0.953125 -2.03125 1.453125q-1.203125 0.5 -2.6875 0.5z" fill-rule="nonzero"/></g></svg>