<svg version="1.1" viewBox="0.0 0.0 960.0 960.0" fill="none" stroke="none" stroke-linecap="square" stroke-miterlimit="10" xmlns:xlink="http://www.w3.org/1999/xlink" xmlns="http://www.w3.org/2000/svg"><clipPath id="g38af3f2a765_0_18.0"><path d="m0 0l960.0 0l0 960.0l-960.0 0l0 -960.0z" clip-rule="nonzero"/></clipPath><g clip-path="url(#g38af3f2a765_0_18.0)"><path fill="#000000" fill-opacity="0.0" d="m0 0l960.0 0l0 960.0l-960.0 0z" fill-rule="evenodd"/><path fill="#000000" fill-opacity="0.0" d="m31.35424 18.721785l897.2913 0l0 78.42519l-897.2913 0z" fill-rule="evenodd"/><path fill="#000000" d="m87.76049 45.364914l0 44.796875l-10.375 0l0 -18.375l-20.34375 0l0 18.375l-10.375 0l0 -44.796875l10.375 0l0 17.65625l20.34375 0l0 -17.65625l10.375 0zm27.25879 37.3125q2.6875 0 4.765625 -0.796875q2.078125 -0.8125 3.875 -2.53125l5.3124924 5.75q-4.8593674 5.578125 -14.203117 5.578125q-5.828125 0 -10.3125 -2.265625q-4.484375 -2.28125 -6.921875 -6.3125q-2.421875 -4.03125 -2.421875 -9.15625q0 -5.046875 2.390625 -9.109375q2.40625 -4.078125 6.59375 -6.34375q4.203125 -2.265625 9.453125 -2.265625q4.921875 0 8.953125 2.078125q4.03125 2.078125 6.4218674 6.015625q2.40625 3.9375 2.40625 9.3125l-25.468742 4.921875q1.09375 2.5625 3.421875 3.84375q2.34375 1.28125 5.734375 1.28125zm-1.46875 -19.90625q-3.78125 0 -6.15625 2.4375q-2.359375 2.421875 -2.484375 6.71875l16.765625 -3.265625q-0.703125 -2.6875 -2.890625 -4.28125q-2.171875 -1.609375 -5.234375 -1.609375zm36.85267 27.90625q-5.8125 0 -9.078125 -3.109375q-3.265625 -3.109375 -3.265625 -8.796875l0 -36.09375l9.984375 0l0 35.515625q0 2.171875 1.109375 3.359375q1.125 1.1875 3.171875 1.1875q0.765625 0 1.5625 -0.1875q0.8125 -0.203125 1.265625 -0.453125l0.4375 7.75q-2.5 0.828125 -5.1875 0.828125zm30.463959 -35.453125q4.8125 0 8.734375 2.203125q3.9375 2.203125 6.171875 6.203125q2.25 4.0 2.25 9.3125q0 5.3125 -2.25 9.3125q-2.234375 4.0 -6.171875 6.21875q-3.921875 2.203125 -8.734375 2.203125q-6.578125 0 -10.359375 -4.15625l0 16.0625l-9.984375 0l0 -46.859375l9.53125 0l0 3.96875q3.71875 -4.46875 10.8125 -4.46875zm-1.71875 27.25q3.84375 0 6.296875 -2.578125q2.46875 -2.59375 2.46875 -6.953125q0 -4.34375 -2.46875 -6.9375q-2.453125 -2.59375 -6.296875 -2.59375q-3.84375 0 -6.3125 2.59375q-2.453125 2.59375 -2.453125 6.9375q0 4.359375 2.453125 6.953125q2.46875 2.578125 6.3125 2.578125zm25.534927 -26.75l9.984375 0l0 34.4375l-9.984375 0l0 -34.4375zm4.984375 -4.796875q-2.75 0 -4.484375 -1.59375q-1.71875 -1.609375 -1.71875 -3.96875q0 -2.375 1.71875 -3.96875q1.734375 -1.609375 4.484375 -1.609375q2.75 0 4.484375 1.546875q1.734375 1.53125 1.734375 3.84375q0 2.484375 -1.734375 4.125q-1.734375 1.625 -4.484375 1.625zm35.20146 4.296875q6.40625 0 10.34375 3.84375q3.9375 3.828125 3.9375 11.375l0 19.71875l-9.984375 0l0 -18.171875q0 -4.09375 -1.796875 -6.109375q-1.796875 -2.015625 -5.1875 -2.015625q-3.765625 0 -6.015625 2.34375q-2.234375 2.328125 -2.234375 6.921875l0 17.03125l-9.984375 0l0 -34.4375l9.53125 0l0 4.03125q1.984375 -2.171875 4.921875 -3.34375q2.953125 -1.1875 6.46875 -1.1875zm59.20169 0.5l0 28.671875q0 9.484375 -4.9375 14.078125q-4.921875 4.609375 -14.390625 4.609375q-4.984375 0 -9.46875 -1.21875q-4.484375 -1.203125 -7.421875 -3.515625l3.96875 -7.15625q2.171875 1.78125 5.5 2.828125q3.328125 1.0625 6.65625 1.0625q5.1875 0 7.640625 -2.34375q2.46875 -2.328125 2.46875 -7.0625l0 -1.46875q-3.90625 4.296875 -10.875 4.296875q-4.734375 0 -8.671875 -2.078125q-3.9375 -2.09375 -6.25 -5.859375q-2.296875 -3.78125 -2.296875 -8.703125q0 -4.9375 2.296875 -8.703125q2.3125 -3.78125 6.25 -5.859375q3.9375 -2.078125 8.671875 -2.078125q7.484375 0 11.390625 4.921875l0 -4.421875l9.46875 0zm-18.875 24.578125q3.96875 0 6.484375 -2.328125q2.53125 -2.34375 2.53125 -6.109375q0 -3.78125 -2.53125 -6.109375q-2.515625 -2.34375 -6.484375 -2.34375q-3.96875 0 -6.53125 2.34375q-2.5625 2.328125 -2.5625 6.109375q0 3.765625 2.5625 6.109375q2.5625 2.328125 6.53125 2.328125zm80.95877 -24.578125l0 28.671875q0 9.484375 -4.796875 14.078125q-4.796875 4.609375 -13.953125 4.609375q-4.859375 0 -9.1875 -1.21875q-4.3125 -1.203125 -7.265625 -3.515625l3.96875 -7.15625q2.171875 1.78125 5.3125 2.796875q3.140625 1.03125 6.34375 1.03125q4.984375 0 7.28125 -2.3125q2.3125 -2.296875 2.3125 -7.03125l0 -1.140625q-1.921875 1.90625 -4.546875 2.9375q-2.625 1.03125 -5.625 1.03125q-6.78125 0 -10.75 -3.875q-3.96875 -3.875 -3.96875 -11.625l0 -17.28125l9.984375 0l0 15.8125q0 8.390625 6.96875 8.390625q3.578125 0 5.75 -2.328125q2.1875 -2.34375 2.1875 -6.953125l0 -14.921875l9.984375 0zm25.655426 34.953125q-5.4375 0 -9.765625 -2.265625q-4.3125 -2.28125 -6.75 -6.3125q-2.421875 -4.03125 -2.421875 -9.15625q0 -5.125 2.421875 -9.15625q2.4375 -4.03125 6.75 -6.296875q4.328125 -2.265625 9.765625 -2.265625q5.453125 0 9.734375 2.265625q4.296875 2.265625 6.71875 6.296875q2.4375 4.03125 2.4375 9.15625q0 5.125 -2.4375 9.15625q-2.421875 4.03125 -6.71875 6.3125q-4.28125 2.265625 -9.734375 2.265625zm0 -8.203125q3.84375 0 6.3125 -2.578125q2.46875 -2.59375 2.46875 -6.953125q0 -4.34375 -2.46875 -6.9375q-2.46875 -2.59375 -6.3125 -2.59375q-3.828125 0 -6.328125 2.59375q-2.5 2.59375 -2.5 6.9375q0 4.359375 2.5 6.953125q2.5 2.578125 6.328125 2.578125zm60.23242 -26.75l0 34.4375l-9.46875 0l0 -4.09375q-1.984375 2.234375 -4.734375 3.421875q-2.75 1.1875 -5.953125 1.1875q-6.78125 0 -10.75 -3.90625q-3.96875 -3.90625 -3.96875 -11.578125l0 -19.46875l9.984375 0l0 17.984375q0 8.328125 6.96875 8.328125q3.578125 0 5.75 -2.328125q2.1875 -2.34375 2.1875 -6.953125l0 -17.03125l9.984375 0zm62.90802 0l0 28.671875q0 9.484375 -4.9375 14.078125q-4.921875 4.609375 -14.390625 4.609375q-4.984375 0 -9.46875 -1.21875q-4.484375 -1.203125 -7.421875 -3.515625l3.96875 -7.15625q2.171875 1.78125 5.5 2.828125q3.328125 1.0625 6.65625 1.0625q5.1875 0 7.640625 -2.34375q2.46875 -2.328125 2.46875 -7.0625l0 -1.46875q-3.90625 4.296875 -10.875 4.296875q-4.734375 0 -8.671875 -2.078125q-3.9375 -2.09375 -6.25 -5.859375q-2.296875 -3.78125 -2.296875 -8.703125q0 -4.9375 2.296875 -8.703125q2.3125 -3.78125 6.25 -5.859375q3.9375 -2.078125 8.671875 -2.078125q7.484375 0 11.390625 4.921875l0 -4.421875l9.46875 0zm-18.875 24.578125q3.96875 0 6.484375 -2.328125q2.53125 -2.34375 2.53125 -6.109375q0 -3.78125 -2.53125 -6.109375q-2.515625 -2.34375 -6.484375 -2.34375q-3.96875 0 -6.53125 2.34375q-2.5625 2.328125 -2.5625 6.109375q0 3.765625 2.5625 6.109375q2.5625 2.328125 6.53125 2.328125zm37.69055 -20.03125q1.796875 -2.5 4.828125 -3.765625q3.046875 -1.28125 7.015625 -1.28125l0 9.203125q-1.671875 -0.125 -2.234375 -0.125q-4.296875 0 -6.734375 2.40625q-2.421875 2.390625 -2.421875 7.203125l0 16.25l-9.984375 0l0 -34.4375l9.53125 0l0 4.546875zm33.851685 30.40625q-5.4375 0 -9.765625 -2.265625q-4.3125 -2.28125 -6.75 -6.3125q-2.421875 -4.03125 -2.421875 -9.15625q0 -5.125 2.421875 -9.15625q2.4375 -4.03125 6.75 -6.296875q4.328125 -2.265625 9.765625 -2.265625q5.453125 0 9.734375 2.265625q4.296875 2.265625 6.71875 6.296875q2.4375 4.03125 2.4375 9.15625q0 5.125 -2.4375 9.15625q-2.421875 4.03125 -6.71875 6.3125q-4.28125 2.265625 -9.734375 2.265625zm0 -8.203125q3.84375 0 6.3125 -2.578125q2.46875 -2.59375 2.46875 -6.953125q0 -4.34375 -2.46875 -6.9375q-2.46875 -2.59375 -6.3125 -2.59375q-3.828125 0 -6.328125 2.59375q-2.5 2.59375 -2.5 6.9375q0 4.359375 2.5 6.953125q2.5 2.578125 6.328125 2.578125zm80.01367 -26.75l0 19.015625q0 7.609375 -4.171875 11.78125q-4.15625 4.15625 -11.828125 4.15625q-3.71875 0 -6.578125 -1.15625q-2.84375 -1.15625 -4.75 -3.71875q-1.921875 2.5625 -4.75 3.71875q-2.8125 1.15625 -6.640625 1.15625q-7.75 0 -11.84375 -4.15625q-4.09375 -4.171875 -4.09375 -11.78125l0 -19.015625l9.984375 0l0 18.25q0 4.28125 1.46875 6.296875q1.46875 2.015625 4.609375 2.015625q3.203125 0 4.734375 -2.046875q1.53125 -2.046875 1.53125 -6.265625l0 -18.25l9.984375 0l0 18.25q0 4.21875 1.53125 6.265625q1.546875 2.046875 4.75 2.046875q3.125 0 4.59375 -2.015625q1.484375 -2.015625 1.484375 -6.296875l0 -18.25l9.984375 0z" fill-rule="nonzero"/><path fill="#8afbe6" d="m657.87695 372.93292l0 -104.22186l60.871582 27.387909l74.400696 -57.81755l136.39996 -65.42316l0 148.34306l-127.381836 19.01883l-71.01752 50.97058z" fill-rule="evenodd"/><path fill="#eeeeee" d="m658.03674 528.5958l-0.16009521 -92.23099l60.8714 27.385834l74.40155 -57.816284l136.97113 -38.46457l-0.57214355 121.38321l-127.380615 19.018372l-71.01837 50.97113z" fill-rule="evenodd"/><defs><linearGradient id="g38af3f2a765_0_18.1" gradientUnits="userSpaceOnUse" gradientTransform="matrix(20.6621151582979 0.0 0.0 20.6621151582979 0.0 0.0)" spreadMethod="pad" x1="31.85267799279936" y1="36.610298046951556" x2="31.85290624665009" y2="15.948182889914417"><stop offset="0.0" stop-color="#8afbe6"/><stop offset="1.0" stop-color="#29caab"/></linearGradient></defs><path fill="url(#g38af3f2a765_0_18.1)" d="m32.16064 484.60635l-0.06279373 271.83298l626.0459 0l0 -426.91614l-66.86444 75.67709l-91.47806 39.06656l-75.05917 63.005768l-92.65027 -49.144684l-178.483 61.746277z" fill-rule="evenodd"/><defs><linearGradient id="g38af3f2a765_0_18.2" gradientUnits="userSpaceOnUse" gradientTransform="matrix(16.85848564975268 0.0 0.0 16.85848564975268 0.0 0.0)" spreadMethod="pad" x1="39.03908449868272" y1="45.12738447110884" x2="39.03926937874639" y2="28.268898822369913"><stop offset="0.0" stop-color="#efefef"/><stop offset="1.0" stop-color="#b7b7b7"/></linearGradient></defs><path fill="url(#g38af3f2a765_0_18.2)" d="m32.10234 538.7925l0 221.98004l626.0375 0l0 -284.2017l-211.3375 135.37418l-58.483337 -13.453369l-103.67499 42.882507l-81.07918 -33.6333l-77.09166 12.612488z" fill-rule="evenodd"/><path fill="#29caab" d="m32.09974 178.79024l0 0c0 -6.0245056 4.883835 -10.90834 10.908352 -10.90834l237.61636 0c2.8930664 0 5.6676636 1.1492615 7.713379 3.1949768c2.0457153 2.0457153 3.1949768 4.8202972 3.1949768 7.7133636l0 43.63211c0 6.024521 -4.8838196 10.908356 -10.908356 10.908356l-237.61636 0c-6.024517 0 -10.908352 -4.883835 -10.908352 -10.908356z" fill-rule="evenodd"/><path fill="#ffffff" d="m66.087456 212.3263l0 -22.40625l3.203125 0l0 22.40625l-3.203125 0zm9.466888 0l0 -16.953125l2.953125 0l0 4.5625l-0.484375 -1.203125q0.828125 -1.671875 2.546875 -2.59375q1.734375 -0.9375 4.046875 -0.9375q2.078125 0 3.65625 0.8125q1.59375 0.796875 2.484375 2.4375q0.90625 1.625 0.90625 4.109375l0 9.765625l-3.078125 0l0 -9.40625q0 -2.46875 -1.203125 -3.71875q-1.203125 -1.25 -3.375 -1.25q-1.625 0 -2.84375 0.640625q-1.21875 0.640625 -1.875 1.890625q-0.65625 1.25 -0.65625 3.109375l0 8.734375l-3.078125 0zm29.182663 0.1875q-2.578125 0 -4.625 -1.109375q-2.03125 -1.125 -3.1875 -3.078125q-1.140625 -1.953125 -1.140625 -4.484375q0 -2.53125 1.140625 -4.46875q1.15625 -1.953125 3.1875 -3.0625q2.046875 -1.109375 4.625 -1.109375q2.3125 0 4.109375 0.921875q1.8125 0.90625 2.8125 2.703125l-2.34375 1.5q-0.828125 -1.25 -2.03125 -1.84375q-1.203125 -0.59375 -2.578125 -0.59375q-1.65625 0 -2.96875 0.75q-1.3125 0.734375 -2.078125 2.0625q-0.765625 1.328125 -0.765625 3.140625q0 1.828125 0.765625 3.171875q0.765625 1.34375 2.078125 2.078125q1.3125 0.734375 2.96875 0.734375q1.375 0 2.578125 -0.59375q1.203125 -0.59375 2.03125 -1.828125l2.34375 1.46875q-1.0 1.75 -2.8125 2.703125q-1.796875 0.9375 -4.109375 0.9375zm10.881409 -0.1875l0 -16.953125l2.953125 0l0 4.59375l-0.296875 -1.140625q0.703125 -1.765625 2.359375 -2.6875q1.671875 -0.9375 4.109375 -0.9375l0 2.984375q-0.1875 -0.03125 -0.375 -0.03125q-0.171875 0 -0.328125 0q-2.46875 0 -3.90625 1.46875q-1.4375 1.46875 -1.4375 4.25l0 8.453125l-3.078125 0zm20.29853 0.1875q-2.71875 0 -4.796875 -1.109375q-2.0625 -1.125 -3.2031326 -3.078125q-1.125 -1.953125 -1.125 -4.484375q0 -2.53125 1.09375 -4.46875q1.1093826 -1.953125 3.0468826 -3.0625q1.9375 -1.109375 4.375 -1.109375q2.453125 0 4.34375 1.09375q1.890625 1.09375 2.953125 3.0625q1.078125 1.953125 1.078125 4.578125q0 0.203125 -0.015625 0.453125q-0.015625 0.25 -0.046875 0.484375l-14.421875 0l0 -2.203125l12.828125 0l-1.25 0.765625q0.03125 -1.640625 -0.671875 -2.921875q-0.703125 -1.28125 -1.9375 -2.0q-1.234375 -0.71875 -2.859375 -0.71875q-1.609375 0 -2.859375 0.71875q-1.234375 0.71875 -1.9375 2.015625q-0.703125 1.296875 -0.703125 2.96875l0 0.515625q0 1.6875 0.78125 3.015625q0.78125 1.328125 2.1875 2.0625q1.40625 0.734375 3.234375 0.734375q1.5 0 2.734375 -0.5q1.234375 -0.515625 2.15625 -1.546875l1.703125 1.984375q-1.15625 1.34375 -2.875 2.046875q-1.703125 0.703125 -3.8125 0.703125zm12.021545 -0.1875l0 -16.953125l2.953125 0l0 4.5l-0.484375 -1.140625q0.796875 -1.671875 2.453125 -2.59375q1.671875 -0.9375 3.890625 -0.9375q2.421875 0 4.171875 1.203125q1.765625 1.203125 2.3125 3.640625l-1.25 -0.515625q0.78125 -1.953125 2.6875 -3.140625q1.921875 -1.1875 4.484375 -1.1875q2.046875 0 3.609375 0.8125q1.578125 0.796875 2.453125 2.4375q0.890625 1.625 0.890625 4.109375l0 9.765625l-3.078125 0l0 -9.40625q0 -2.46875 -1.15625 -3.71875q-1.140625 -1.25 -3.234375 -1.25q-1.53125 0 -2.6875 0.640625q-1.140625 0.640625 -1.765625 1.890625q-0.625 1.25 -0.625 3.109375l0 8.734375l-3.078125 0l0 -9.40625q0 -2.46875 -1.140625 -3.71875q-1.125 -1.25 -3.234375 -1.25q-1.515625 0 -2.671875 0.640625q-1.140625 0.640625 -1.78125 1.890625q-0.640625 1.25 -0.640625 3.109375l0 8.734375l-3.078125 0zm41.386566 0.1875q-2.71875 0 -4.796875 -1.109375q-2.0625 -1.125 -3.203125 -3.078125q-1.125 -1.953125 -1.125 -4.484375q0 -2.53125 1.09375 -4.46875q1.109375 -1.953125 3.046875 -3.0625q1.9375 -1.109375 4.375 -1.109375q2.453125 0 4.34375 1.09375q1.890625 1.09375 2.953125 3.0625q1.078125 1.953125 1.078125 4.578125q0 0.203125 -0.015625 0.453125q-0.015625 0.25 -0.046875 0.484375l-14.421875 0l0 -2.203125l12.828125 0l-1.25 0.765625q0.03125 -1.640625 -0.671875 -2.921875q-0.703125 -1.28125 -1.9375 -2.0q-1.234375 -0.71875 -2.859375 -0.71875q-1.609375 0 -2.859375 0.71875q-1.234375 0.71875 -1.9375 2.015625q-0.703125 1.296875 -0.703125 2.96875l0 0.515625q0 1.6875 0.78125 3.015625q0.78125 1.328125 2.1875 2.0625q1.40625 0.734375 3.234375 0.734375q1.5 0 2.734375 -0.5q1.234375 -0.515625 2.15625 -1.546875l1.703125 1.984375q-1.15625 1.34375 -2.875 2.046875q-1.703125 0.703125 -3.8125 0.703125zm12.021545 -0.1875l0 -16.953125l2.953125 0l0 4.5625l-0.484375 -1.203125q0.828125 -1.671875 2.546875 -2.59375q1.734375 -0.9375 4.046875 -0.9375q2.078125 0 3.65625 0.8125q1.59375 0.796875 2.484375 2.4375q0.90625 1.625 0.90625 4.109375l0 9.765625l-3.078125 0l0 -9.40625q0 -2.46875 -1.203125 -3.71875q-1.203125 -1.25 -3.375 -1.25q-1.625 0 -2.84375 0.640625q-1.21875 0.640625 -1.875 1.890625q-0.65625 1.25 -0.65625 3.109375l0 8.734375l-3.078125 0zm27.620163 0.1875q-2.5625 0 -3.96875 -1.375q-1.40625 -1.375 -1.40625 -3.9375l0 -15.546875l3.078125 0l0 15.421875q0 1.375 0.6875 2.109375q0.6875 0.734375 1.96875 0.734375q1.4375 0 2.390625 -0.796875l0.96875 2.21875q-0.703125 0.59375 -1.6875 0.890625q-0.96875 0.28125 -2.03125 0.28125zm-8.25 -14.625l0 -2.515625l10.8125 0l0 2.515625l-10.8125 0zm25.561157 14.4375l0 -3.578125l-0.15625 -0.671875l0 -6.125q0 -1.9375 -1.140625 -3.015625q-1.125 -1.078125 -3.40625 -1.078125q-1.5 0 -2.9375 0.5q-1.4375 0.5 -2.4375 1.328125l-1.28125 -2.296875q1.3125 -1.0625 3.15625 -1.625q1.84375 -0.5625 3.859375 -0.5625q3.484375 0 5.375 1.703125q1.890625 1.6875 1.890625 5.1875l0 10.234375l-2.921875 0zm-5.5625 0.1875q-1.890625 0 -3.3125 -0.640625q-1.421875 -0.640625 -2.203125 -1.765625q-0.765625 -1.140625 -0.765625 -2.578125q0 -1.375 0.65625 -2.5q0.65625 -1.125 2.140625 -1.796875q1.5 -0.671875 4.03125 -0.671875l5.375 0l0 2.21875l-5.25 0q-2.3125 0 -3.109375 0.765625q-0.796875 0.765625 -0.796875 1.859375q0 1.234375 0.984375 2.0q1.0 0.75 2.765625 0.75q1.71875 0 3.015625 -0.765625q1.296875 -0.78125 1.875 -2.25l0.609375 2.109375q-0.609375 1.515625 -2.15625 2.390625q-1.53125 0.875 -3.859375 0.875zm14.167282 -0.1875l0 -23.75l3.0781097 0l0 23.75l-3.0781097 0z" fill-rule="nonzero"/><path fill="#666666" d="m32.09974 257.78558l0 0c0 -6.024536 4.883835 -10.908371 10.908352 -10.908371l237.61636 0c2.8930664 0 5.6676636 1.1492767 7.713379 3.194992c2.0457153 2.0457153 3.1949768 4.8202972 3.1949768 7.713379l0 43.63211c0 6.0245056 -4.8838196 10.908356 -10.908356 10.908356l-237.61636 0c-6.024517 0 -10.908352 -4.88385 -10.908352 -10.908356z" fill-rule="evenodd"/><path fill="#ffffff" d="m96.07151 291.32162l0 -22.40625l10.046875 0q3.875 0 5.953125 1.5625q2.078125 1.546875 2.078125 4.234375q0 1.828125 -0.8125 3.078125q-0.8125 1.25 -2.1875 1.921875q-1.375 0.671875 -2.984375 0.671875l0.578125 -0.96875q1.921875 0 3.390625 0.671875q1.46875 0.671875 2.328125 1.96875q0.875 1.296875 0.875 3.21875q0 2.875 -2.171875 4.46875q-2.15625 1.578125 -6.40625 1.578125l-10.6875 0zm3.203125 -2.59375l7.359375 0q2.65625 0 4.0625 -0.890625q1.40625 -0.90625 1.40625 -2.8125q0 -1.953125 -1.40625 -2.84375q-1.40625 -0.90625 -4.0625 -0.90625l-7.65625 0l0 -2.59375l6.859375 0q2.421875 0 3.765625 -0.890625q1.34375 -0.90625 1.34375 -2.6875q0 -1.796875 -1.34375 -2.6875q-1.34375 -0.90625 -3.765625 -0.90625l-6.5625 0l0 17.21875zm31.099052 2.59375l0 -3.578125l-0.15625 -0.671875l0 -6.125q0 -1.9375 -1.140625 -3.015625q-1.1250076 -1.078125 -3.4062576 -1.078125q-1.5 0 -2.9375 0.5q-1.4375 0.5 -2.4375 1.328125l-1.28125 -2.296875q1.3125 -1.0625 3.15625 -1.625q1.84375 -0.5625 3.859375 -0.5625q3.4843826 0 5.3750076 1.703125q1.890625 1.6875 1.890625 5.1875l0 10.234375l-2.921875 0zm-5.5625076 0.1875q-1.890625 0 -3.3125 -0.640625q-1.421875 -0.640625 -2.203125 -1.765625q-0.765625 -1.140625 -0.765625 -2.578125q0 -1.375 0.65625 -2.5q0.65625 -1.125 2.140625 -1.796875q1.5 -0.671875 4.03125 -0.671875l5.3750076 0l0 2.21875l-5.2500076 0q-2.3125 0 -3.109375 0.765625q-0.796875 0.765625 -0.796875 1.859375q0 1.234375 0.984375 2.0q1.0 0.75 2.765625 0.75q1.71875 0 3.0156326 -0.765625q1.296875 -0.78125 1.875 -2.25l0.609375 2.109375q-0.609375 1.515625 -2.15625 2.390625q-1.5312576 0.875 -3.8593826 0.875zm19.04229 0q-2.125 0 -4.03125 -0.5625q-1.890625 -0.578125 -2.984375 -1.421875l1.28125 -2.421875q1.09375 0.734375 2.6875 1.25q1.609375 0.5 3.265625 0.5q2.140625 0 3.078125 -0.609375q0.953125 -0.609375 0.953125 -1.6875q0 -0.796875 -0.578125 -1.25q-0.578125 -0.453125 -1.53125 -0.671875q-0.9375 -0.21875 -2.09375 -0.390625q-1.140625 -0.1875 -2.296875 -0.453125q-1.140625 -0.28125 -2.109375 -0.765625q-0.953125 -0.5 -1.53125 -1.375q-0.578125 -0.890625 -0.578125 -2.359375q0 -1.53125 0.859375 -2.6875q0.875 -1.15625 2.453125 -1.78125q1.578125 -0.625 3.765625 -0.625q1.65625 0 3.359375 0.40625q1.71875 0.40625 2.8125 1.140625l-1.3125 2.421875q-1.15625 -0.765625 -2.40625 -1.046875q-1.25 -0.296875 -2.484375 -0.296875q-2.015625 0 -3.015625 0.65625q-0.984375 0.65625 -0.984375 1.6875q0 0.859375 0.578125 1.328125q0.59375 0.453125 1.53125 0.71875q0.953125 0.25 2.109375 0.4375q1.15625 0.171875 2.296875 0.453125q1.15625 0.265625 2.09375 0.75q0.953125 0.46875 1.546875 1.34375q0.59375 0.859375 0.59375 2.296875q0 1.53125 -0.90625 2.65625q-0.890625 1.109375 -2.53125 1.734375q-1.625 0.625 -3.890625 0.625zm18.719528 0q-2.71875 0 -4.796875 -1.109375q-2.0625 -1.125 -3.203125 -3.078125q-1.125 -1.953125 -1.125 -4.484375q0 -2.53125 1.09375 -4.46875q1.109375 -1.953125 3.046875 -3.0625q1.9375 -1.109375 4.375 -1.109375q2.453125 0 4.34375 1.09375q1.890625 1.09375 2.953125 3.0625q1.078125 1.953125 1.078125 4.578125q0 0.203125 -0.015625 0.453125q-0.015625 0.25 -0.046875 0.484375l-14.421875 0l0 -2.203125l12.828125 0l-1.25 0.765625q0.03125 -1.640625 -0.671875 -2.921875q-0.703125 -1.28125 -1.9375 -2.0q-1.234375 -0.71875 -2.859375 -0.71875q-1.609375 0 -2.859375 0.71875q-1.234375 0.71875 -1.9375 2.015625q-0.703125 1.296875 -0.703125 2.96875l0 0.515625q0 1.6875 0.78125 3.015625q0.78125 1.328125 2.1875 2.0625q1.40625 0.734375 3.234375 0.734375q1.5 0 2.734375 -0.5q1.234375 -0.515625 2.15625 -1.546875l1.703125 1.984375q-1.15625 1.34375 -2.875 2.046875q-1.703125 0.703125 -3.8125 0.703125zm12.021545 -0.1875l0 -23.75l3.078125 0l0 23.75l-3.078125 0zm8.928024 0l0 -16.953125l3.078125 0l0 16.953125l-3.078125 0zm1.53125 -20.21875q-0.890625 0 -1.484375 -0.578125q-0.59375 -0.578125 -0.59375 -1.40625q0 -0.875 0.59375 -1.4375q0.59375 -0.578125 1.484375 -0.578125q0.90625 0 1.5 0.5625q0.59375 0.546875 0.59375 1.390625q0 0.859375 -0.578125 1.453125q-0.578125 0.59375 -1.515625 0.59375zm7.3967743 20.21875l0 -16.953125l2.953125 0l0 4.5625l-0.484375 -1.203125q0.828125 -1.671875 2.546875 -2.59375q1.734375 -0.9375 4.046875 -0.9375q2.078125 0 3.65625 0.8125q1.59375 0.796875 2.484375 2.4375q0.90625 1.625 0.90625 4.109375l0 9.765625l-3.078125 0l0 -9.40625q0 -2.46875 -1.203125 -3.71875q-1.203125 -1.25 -3.375 -1.25q-1.625 0 -2.84375 0.640625q-1.21875 0.640625 -1.875 1.890625q-0.65625 1.25 -0.65625 3.109375l0 8.734375l-3.078125 0zm29.354538 0.1875q-2.71875 0 -4.796875 -1.109375q-2.0625 -1.125 -3.203125 -3.078125q-1.125 -1.953125 -1.125 -4.484375q0 -2.53125 1.09375 -4.46875q1.109375 -1.953125 3.046875 -3.0625q1.9375 -1.109375 4.375 -1.109375q2.453125 0 4.34375 1.09375q1.890625 1.09375 2.953125 3.0625q1.078125 1.953125 1.078125 4.578125q0 0.203125 -0.015625 0.453125q-0.015625 0.25 -0.046875 0.484375l-14.421875 0l0 -2.203125l12.828125 0l-1.25 0.765625q0.03125 -1.640625 -0.671875 -2.921875q-0.703125 -1.28125 -1.9375 -2.0q-1.234375 -0.71875 -2.859375 -0.71875q-1.609375 0 -2.859375 0.71875q-1.234375 0.71875 -1.9375 2.015625q-0.703125 1.296875 -0.703125 2.96875l0 0.515625q0 1.6875 0.78125 3.015625q0.78125 1.328125 2.1875 2.0625q1.40625 0.734375 3.234375 0.734375q1.5 0 2.734375 -0.5q1.234375 -0.515625 2.15625 -1.546875l1.703125 1.984375q-1.15625 1.34375 -2.875 2.046875q-1.703125 0.703125 -3.8125 0.703125z" fill-rule="nonzero"/><path fill="#f3f3f3" d="m454.96024 174.74036l199.811 0l0 137.5748l-199.811 0z" fill-rule="evenodd"/><path fill="#595959" d="m500.50757 216.64777l0 -22.40625l8.390625 0q2.84375 0 4.890625 0.921875q2.046875 0.90625 3.15625 2.625q1.109375 1.703125 1.109375 4.140625q0 2.359375 -1.109375 4.078125q-1.109375 1.71875 -3.15625 2.640625q-2.046875 0.921875 -4.890625 0.921875l-7.078125 0l1.0625 -1.109375l0 8.1875l-2.375 0zm2.375 -8.0l-1.0625 -1.15625l7.015625 0q3.359375 0 5.09375 -1.453125q1.75 -1.453125 1.75 -4.109375q0 -2.6875 -1.75 -4.15625q-1.734375 -1.484375 -5.09375 -1.484375l-7.015625 0l1.0625 -1.109375l0 13.46875zm19.396301 8.0l0 -16.796875l2.171875 0l0 4.578125l-0.21875 -0.8125q0.703125 -1.90625 2.359375 -2.90625q1.671875 -1.015625 4.125 -1.015625l0 2.203125q-0.125 0 -0.25 -0.015625q-0.125 -0.015625 -0.25 -0.015625q-2.65625 0 -4.171875 1.625q-1.5 1.609375 -1.5 4.578125l0 8.578125l-2.265625 0zm19.541016 0.15625q-2.609375 0 -4.59375 -1.09375q-1.984375 -1.109375 -3.109375 -3.046875q-1.125 -1.9375 -1.125 -4.4375q0 -2.484375 1.0625 -4.40625q1.078125 -1.921875 2.953125 -3.015625q1.875 -1.109375 4.21875 -1.109375q2.359375 0 4.203125 1.078125q1.84375 1.0625 2.890625 3.0q1.0625 1.9375 1.0625 4.453125q0 0.171875 -0.015625 0.34375q-0.015625 0.171875 -0.015625 0.359375l-14.625 0l0 -1.6875l13.40625 0l-0.890625 0.671875q0 -1.828125 -0.796875 -3.25q-0.78125 -1.421875 -2.125 -2.21875q-1.34375 -0.8125 -3.09375 -0.8125q-1.734375 0 -3.109375 0.8125q-1.375 0.796875 -2.140625 2.234375q-0.765625 1.4375 -0.765625 3.296875l0 0.359375q0 1.90625 0.84375 3.375q0.84375 1.453125 2.359375 2.265625q1.53125 0.8125 3.484375 0.8125q1.53125 0 2.859375 -0.53125q1.328125 -0.546875 2.28125 -1.671875l1.28125 1.46875q-1.109375 1.34375 -2.796875 2.046875q-1.6875 0.703125 -3.703125 0.703125zm20.874939 0q-2.1875 0 -3.953125 -1.0q-1.75 -1.015625 -2.796875 -2.90625q-1.03125 -1.90625 -1.03125 -4.671875q0 -2.75 1.015625 -4.640625q1.03125 -1.90625 2.78125 -2.890625q1.765625 -1.0 3.984375 -1.0q2.390625 0 4.296875 1.078125q1.90625 1.0625 2.984375 3.0q1.09375 1.9375 1.09375 4.453125q0 2.5625 -1.09375 4.484375q-1.078125 1.921875 -2.984375 3.015625q-1.90625 1.078125 -4.296875 1.078125zm-8.671875 6.046875l0 -23.0l2.171875 0l0 5.046875l-0.21875 3.359375l0.3125 3.40625l0 11.1875l-2.265625 0zm8.515625 -8.0625q1.78125 0 3.1875 -0.8125q1.40625 -0.8125 2.234375 -2.296875q0.84375 -1.5 0.84375 -3.453125q0 -1.953125 -0.84375 -3.421875q-0.828125 -1.46875 -2.234375 -2.296875q-1.40625 -0.828125 -3.1875 -0.828125q-1.796875 0 -3.21875 0.828125q-1.421875 0.828125 -2.25 2.296875q-0.8125 1.46875 -0.8125 3.421875q0 1.953125 0.8125 3.453125q0.828125 1.484375 2.25 2.296875q1.421875 0.8125 3.21875 0.8125zm23.615662 1.859375l0 -3.71875l-0.109375 -0.59375l0 -6.21875q0 -2.140625 -1.203125 -3.28125q-1.1875 -1.15625 -3.5625 -1.15625q-1.625 0 -3.109375 0.546875q-1.46875 0.53125 -2.484375 1.4375l-1.03125 -1.703125q1.28125 -1.09375 3.078125 -1.671875q1.796875 -0.59375 3.78125 -0.59375q3.25 0 5.03125 1.609375q1.78125 1.609375 1.78125 4.90625l0 10.4375l-2.171875 0zm-5.796875 0.15625q-1.890625 0 -3.28125 -0.625q-1.390625 -0.625 -2.125 -1.71875q-0.734375 -1.109375 -0.734375 -2.546875q0 -1.3125 0.625 -2.375q0.625 -1.078125 2.046875 -1.734375q1.421875 -0.65625 3.8125 -0.65625l5.796875 0l0 1.6875l-5.734375 0q-2.421875 0 -3.375 0.875q-0.9375 0.859375 -0.9375 2.140625q0 1.4375 1.109375 2.3125q1.125 0.859375 3.140625 0.859375q1.921875 0 3.3125 -0.875q1.390625 -0.890625 2.03125 -2.5625l0.515625 1.578125q-0.640625 1.65625 -2.234375 2.65625q-1.578125 0.984375 -3.96875 0.984375zm14.145691 -0.15625l0 -16.796875l2.171875 0l0 4.578125l-0.21875 -0.8125q0.703125 -1.90625 2.359375 -2.90625q1.671875 -1.015625 4.125 -1.015625l0 2.203125q-0.125 0 -0.25 -0.015625q-0.125 -0.015625 -0.25 -0.015625q-2.65625 0 -4.171875 1.625q-1.5 1.609375 -1.5 4.578125l0 8.578125l-2.265625 0zm19.541016 0.15625q-2.609375 0 -4.59375 -1.09375q-1.984375 -1.109375 -3.109375 -3.046875q-1.125 -1.9375 -1.125 -4.4375q0 -2.484375 1.0625 -4.40625q1.078125 -1.921875 2.953125 -3.015625q1.875 -1.109375 4.21875 -1.109375q2.359375 0 4.203125 1.078125q1.84375 1.0625 2.890625 3.0q1.0625 1.9375 1.0625 4.453125q0 0.171875 -0.015625 0.34375q-0.015625 0.171875 -0.015625 0.359375l-14.625 0l0 -1.6875l13.40625 0l-0.890625 0.671875q0 -1.828125 -0.796875 -3.25q-0.78125 -1.421875 -2.125 -2.21875q-1.34375 -0.8125 -3.09375 -0.8125q-1.734375 0 -3.109375 0.8125q-1.375 0.796875 -2.140625 2.234375q-0.765625 1.4375 -0.765625 3.296875l0 0.359375q0 1.90625 0.84375 3.375q0.84375 1.453125 2.359375 2.265625q1.53125 0.8125 3.484375 0.8125q1.53125 0 2.859375 -0.53125q1.328125 -0.546875 2.28125 -1.671875l1.28125 1.46875q-1.109375 1.34375 -2.796875 2.046875q-1.6875 0.703125 -3.703125 0.703125zm18.890503 0q-2.40625 0 -4.3125 -1.078125q-1.90625 -1.09375 -3.0 -3.03125q-1.078125 -1.9375 -1.078125 -4.46875q0 -2.546875 1.078125 -4.46875q1.09375 -1.921875 3.0 -2.984375q1.90625 -1.078125 4.3125 -1.078125q2.203125 0 3.9375 1.0q1.75 0.984375 2.78125 2.890625q1.046875 1.890625 1.046875 4.640625q0 2.71875 -1.03125 4.640625q-1.015625 1.921875 -2.765625 2.9375q-1.734375 1.0 -3.96875 1.0zm0.15625 -2.015625q1.796875 0 3.21875 -0.8125q1.421875 -0.8125 2.234375 -2.296875q0.8125 -1.5 0.8125 -3.453125q0 -1.984375 -0.8125 -3.453125q-0.8125 -1.46875 -2.234375 -2.28125q-1.421875 -0.8125 -3.21875 -0.8125q-1.765625 0 -3.171875 0.8125q-1.40625 0.8125 -2.234375 2.28125q-0.828125 1.46875 -0.828125 3.453125q0 1.953125 0.828125 3.453125q0.828125 1.484375 2.234375 2.296875q1.40625 0.8125 3.171875 0.8125zm6.34375 1.859375l0 -5.0625l0.21875 -3.390625l-0.328125 -3.390625l0 -11.90625l2.28125 0l0 23.75l-2.171875 0z" fill-rule="nonzero"/><path fill="#595959" d="m511.29385 255.04776l0 -18.90625q0 -2.25 1.3124695 -3.625q1.3125 -1.375 3.78125 -1.375q0.953125 0 1.84375 0.265625q0.90625 0.25 1.515625 0.796875l-0.765625 1.6875q-0.484375 -0.40625 -1.125 -0.609375q-0.640625 -0.21875 -1.375 -0.21875q-1.4375 0 -2.203125 0.796875q-0.765625 0.796875 -0.765625 2.375l0 2.5625l0.0625 1.046875l0 15.203125l-2.2812195 0zm-3.0 -14.90625l0 -1.890625l10.3905945 0l0 1.890625l-10.3905945 0zm20.028778 15.0625q-2.4375 0 -4.375 -1.09375q-1.921875 -1.109375 -3.046875 -3.046875q-1.125 -1.9375 -1.125 -4.4375q0 -2.515625 1.125 -4.4375q1.125 -1.921875 3.03125 -3.0q1.921875 -1.09375 4.390625 -1.09375q2.5 0 4.4375 1.09375q1.9375 1.078125 3.03125 3.0q1.109375 1.921875 1.109375 4.4375q0 2.5 -1.109375 4.4375q-1.09375 1.9375 -3.046875 3.046875q-1.953125 1.09375 -4.421875 1.09375zm0 -2.015625q1.828125 0 3.234375 -0.8125q1.40625 -0.8125 2.21875 -2.296875q0.8125 -1.5 0.8125 -3.453125q0 -1.984375 -0.8125 -3.453125q-0.8125 -1.46875 -2.21875 -2.28125q-1.40625 -0.8125 -3.203125 -0.8125q-1.796875 0 -3.203125 0.8125q-1.40625 0.8125 -2.234375 2.28125q-0.828125 1.46875 -0.828125 3.453125q0 1.953125 0.828125 3.453125q0.828125 1.484375 2.234375 2.296875q1.40625 0.8125 3.171875 0.8125zm13.220276 1.859375l0 -16.796875l2.171875 0l0 4.578125l-0.21875 -0.8125q0.703125 -1.90625 2.359375 -2.90625q1.671875 -1.015625 4.125 -1.015625l0 2.203125q-0.125 0 -0.25 -0.015625q-0.125 -0.015625 -0.25 -0.015625q-2.65625 0 -4.171875 1.625q-1.5 1.609375 -1.5 4.578125l0 8.578125l-2.265625 0zm28.341064 0.15625q-2.609375 0 -4.59375 -1.09375q-1.984375 -1.109375 -3.109375 -3.046875q-1.125 -1.9375 -1.125 -4.4375q0 -2.484375 1.0625 -4.40625q1.078125 -1.921875 2.953125 -3.015625q1.875 -1.109375 4.21875 -1.109375q2.359375 0 4.203125 1.078125q1.84375 1.0625 2.890625 3.0q1.0625 1.9375 1.0625 4.453125q0 0.171875 -0.015625 0.34375q-0.015625 0.171875 -0.015625 0.359375l-14.625 0l0 -1.6875l13.40625 0l-0.890625 0.671875q0 -1.828125 -0.796875 -3.25q-0.78125 -1.421875 -2.125 -2.21875q-1.34375 -0.8125 -3.09375 -0.8125q-1.734375 0 -3.109375 0.8125q-1.375 0.796875 -2.140625 2.234375q-0.765625 1.4375 -0.765625 3.296875l0 0.359375q0 1.90625 0.84375 3.375q0.84375 1.453125 2.359375 2.265625q1.53125 0.8125 3.484375 0.8125q1.53125 0 2.859375 -0.53125q1.328125 -0.546875 2.28125 -1.671875l1.28125 1.46875q-1.109375 1.34375 -2.796875 2.046875q-1.6875 0.703125 -3.703125 0.703125zm16.195496 -0.15625l-7.453125 -16.796875l2.375 0l6.84375 15.578125l-1.125 0l6.953125 -15.578125l2.234375 0l-7.484375 16.796875l-2.34375 0zm19.676575 0.15625q-2.609375 0 -4.59375 -1.09375q-1.984375 -1.109375 -3.109375 -3.046875q-1.125 -1.9375 -1.125 -4.4375q0 -2.484375 1.0625 -4.40625q1.078125 -1.921875 2.953125 -3.015625q1.875 -1.109375 4.21875 -1.109375q2.359375 0 4.203125 1.078125q1.84375 1.0625 2.890625 3.0q1.0625 1.9375 1.0625 4.453125q0 0.171875 -0.015625 0.34375q-0.015625 0.171875 -0.015625 0.359375l-14.625 0l0 -1.6875l13.40625 0l-0.890625 0.671875q0 -1.828125 -0.796875 -3.25q-0.78125 -1.421875 -2.125 -2.21875q-1.34375 -0.8125 -3.09375 -0.8125q-1.734375 0 -3.109375 0.8125q-1.375 0.796875 -2.140625 2.234375q-0.765625 1.4375 -0.765625 3.296875l0 0.359375q0 1.90625 0.84375 3.375q0.84375 1.453125 2.359375 2.265625q1.53125 0.8125 3.484375 0.8125q1.53125 0 2.859375 -0.53125q1.328125 -0.546875 2.28125 -1.671875l1.28125 1.46875q-1.109375 1.34375 -2.796875 2.046875q-1.6875 0.703125 -3.703125 0.703125zm12.203003 -0.15625l0 -16.796875l2.171875 0l0 4.578125l-0.21875 -0.8125q0.703125 -1.90625 2.359375 -2.90625q1.671875 -1.015625 4.125 -1.015625l0 2.203125q-0.125 0 -0.25 -0.015625q-0.125 -0.015625 -0.25 -0.015625q-2.65625 0 -4.171875 1.625q-1.5 1.609375 -1.5 4.578125l0 8.578125l-2.265625 0zm12.765076 6.375q-1.1875 0 -2.265625 -0.390625q-1.0625 -0.390625 -1.828125 -1.15625l1.046875 -1.6875q0.640625 0.609375 1.390625 0.9375q0.765625 0.34375 1.6875 0.34375q1.125 0 1.9375 -0.625q0.8125 -0.625 1.546875 -2.203125l1.09375 -2.453125l0.25 -0.359375l6.921875 -15.578125l2.234375 0l-8.421875 18.8125q-0.703125 1.625 -1.546875 2.578125q-0.84375 0.96875 -1.84375 1.375q-0.984375 0.40625 -2.203125 0.40625zm4.484375 -5.890625l-7.75 -17.28125l2.375 0l6.84375 15.421875l-1.46875 1.859375z" fill-rule="nonzero"/><path fill="#595959" d="m518.0265 293.604q-2.09375 0 -3.953125 -0.59375q-1.84375 -0.59375 -2.90625 -1.484375l1.03125 -1.796875q1.015625 0.78125 2.609375 1.34375q1.609375 0.546875 3.375 0.546875q2.390625 0 3.453125 -0.75q1.0625 -0.75 1.0625 -2.0q0 -0.921875 -0.59375 -1.453125q-0.59375 -0.53125 -1.5625 -0.796875q-0.953125 -0.28125 -2.140625 -0.46875q-1.1875 -0.1875 -2.359375 -0.4375q-1.15625 -0.265625 -2.125 -0.75q-0.953125 -0.5 -1.546875 -1.359375q-0.59375 -0.875 -0.59375 -2.3125q0 -1.375 0.765625 -2.46875q0.765625 -1.09375 2.25 -1.703125q1.5 -0.625 3.640625 -0.625q1.640625 0 3.265625 0.4375q1.625 0.421875 2.6875 1.125l-0.984375 1.828125q-1.125 -0.78125 -2.40625 -1.109375q-1.28125 -0.34375 -2.5625 -0.34375q-2.265625 0 -3.34375 0.796875q-1.0625 0.78125 -1.0625 2.0q0 0.953125 0.578125 1.5q0.59375 0.546875 1.5625 0.859375q0.984375 0.296875 2.15625 0.484375q1.171875 0.1875 2.328125 0.46875q1.171875 0.265625 2.140625 0.734375q0.984375 0.453125 1.578125 1.3125q0.59375 0.84375 0.59375 2.21875q0 1.46875 -0.828125 2.546875q-0.8125 1.0625 -2.359375 1.65625q-1.546875 0.59375 -3.75 0.59375zm18.069153 0q-2.5 0 -4.46875 -1.09375q-1.953125 -1.109375 -3.078125 -3.046875q-1.125 -1.9375 -1.125 -4.4375q0 -2.515625 1.125 -4.4375q1.125 -1.921875 3.078125 -3.0q1.96875 -1.09375 4.46875 -1.09375q2.140625 0 3.875 0.828125q1.734375 0.828125 2.71875 2.5l-1.6875 1.140625q-0.875 -1.28125 -2.15625 -1.875q-1.28125 -0.609375 -2.78125 -0.609375q-1.796875 0 -3.234375 0.8125q-1.4375 0.8125 -2.265625 2.28125q-0.828125 1.46875 -0.828125 3.453125q0 1.984375 0.828125 3.46875q0.828125 1.46875 2.265625 2.28125q1.4375 0.8125 3.234375 0.8125q1.5 0 2.78125 -0.609375q1.28125 -0.609375 2.15625 -1.84375l1.6875 1.140625q-0.984375 1.640625 -2.71875 2.484375q-1.734375 0.84375 -3.875 0.84375zm17.884277 0q-2.609375 0 -4.59375 -1.09375q-1.984375 -1.109375 -3.109375 -3.046875q-1.125 -1.9375 -1.125 -4.4375q0 -2.484375 1.0625 -4.40625q1.078125 -1.921875 2.953125 -3.015625q1.875 -1.109375 4.21875 -1.109375q2.359375 0 4.203125 1.078125q1.84375 1.0625 2.890625 3.0q1.0625 1.9375 1.0625 4.453125q0 0.171875 -0.015625 0.34375q-0.015625 0.171875 -0.015625 0.359375l-14.625 0l0 -1.6875l13.40625 0l-0.890625 0.671875q0 -1.828125 -0.796875 -3.25q-0.78125 -1.421875 -2.125 -2.21875q-1.34375 -0.8125 -3.09375 -0.8125q-1.734375 0 -3.109375 0.8125q-1.375 0.796875 -2.140625 2.234375q-0.765625 1.4375 -0.765625 3.296875l0 0.359375q0 1.90625 0.84375 3.375q0.84375 1.453125 2.359375 2.265625q1.53125 0.8125 3.484375 0.8125q1.53125 0 2.859375 -0.53125q1.328125 -0.546875 2.28125 -1.671875l1.28125 1.46875q-1.109375 1.34375 -2.796875 2.046875q-1.6875 0.703125 -3.703125 0.703125zm12.203064 -0.15625l0 -16.796875l2.171875 0l0 4.609375l-0.359375 -0.875q0.8125 -1.8125 2.5625 -2.84375q1.765625 -1.046875 4.203125 -1.046875q2.046875 0 3.59375 0.78125q1.546875 0.78125 2.421875 2.390625q0.890625 1.59375 0.890625 4.015625l0 9.765625l-2.265625 0l0 -9.53125q0 -2.65625 -1.328125 -4.015625q-1.328125 -1.359375 -3.734375 -1.359375q-1.796875 0 -3.125 0.71875q-1.328125 0.71875 -2.046875 2.078125q-0.71875 1.359375 -0.71875 3.28125l0 8.828125l-2.265625 0zm32.16327 0l0 -3.71875l-0.109375 -0.59375l0 -6.21875q0 -2.140625 -1.203125 -3.28125q-1.1875 -1.15625 -3.5625 -1.15625q-1.625 0 -3.109375 0.546875q-1.46875 0.53125 -2.484375 1.4375l-1.03125 -1.703125q1.28125 -1.09375 3.078125 -1.671875q1.796875 -0.59375 3.78125 -0.59375q3.25 0 5.03125 1.609375q1.78125 1.609375 1.78125 4.90625l0 10.4375l-2.171875 0zm-5.796875 0.15625q-1.890625 0 -3.28125 -0.625q-1.390625 -0.625 -2.125 -1.71875q-0.734375 -1.109375 -0.734375 -2.546875q0 -1.3125 0.625 -2.375q0.625 -1.078125 2.046875 -1.734375q1.421875 -0.65625 3.8125 -0.65625l5.796875 0l0 1.6875l-5.734375 0q-2.421875 0 -3.375 0.875q-0.9375 0.859375 -0.9375 2.140625q0 1.4375 1.109375 2.3125q1.125 0.859375 3.140625 0.859375q1.921875 0 3.3125 -0.875q1.390625 -0.890625 2.03125 -2.5625l0.515625 1.578125q-0.640625 1.65625 -2.234375 2.65625q-1.578125 0.984375 -3.96875 0.984375zm14.145691 -0.15625l0 -16.796875l2.171875 0l0 4.578125l-0.21875 -0.8125q0.703125 -1.90625 2.359375 -2.90625q1.671875 -1.015625 4.125 -1.015625l0 2.203125q-0.125 0 -0.25 -0.015625q-0.125 -0.015625 -0.25 -0.015625q-2.65625 0 -4.171875 1.625q-1.5 1.609375 -1.5 4.578125l0 8.578125l-2.265625 0zm12.575989 0l0 -16.796875l2.265625 0l0 16.796875l-2.265625 0zm1.140625 -20.515625q-0.703125 0 -1.1875 -0.46875q-0.46875 -0.484375 -0.46875 -1.15625q0 -0.671875 0.46875 -1.140625q0.484375 -0.46875 1.1875 -0.46875q0.703125 0 1.1875 0.453125q0.484375 0.453125 0.484375 1.125q0 0.703125 -0.46875 1.1875q-0.453125 0.46875 -1.203125 0.46875zm14.311157 20.671875q-2.4375 0 -4.375 -1.09375q-1.921875 -1.109375 -3.046875 -3.046875q-1.125 -1.9375 -1.125 -4.4375q0 -2.515625 1.125 -4.4375q1.125 -1.921875 3.03125 -3.0q1.921875 -1.09375 4.390625 -1.09375q2.5 0 4.4375 1.09375q1.9375 1.078125 3.03125 3.0q1.109375 1.921875 1.109375 4.4375q0 2.5 -1.109375 4.4375q-1.09375 1.9375 -3.046875 3.046875q-1.953125 1.09375 -4.421875 1.09375zm0 -2.015625q1.828125 0 3.234375 -0.8125q1.40625 -0.8125 2.21875 -2.296875q0.8125 -1.5 0.8125 -3.453125q0 -1.984375 -0.8125 -3.453125q-0.8125 -1.46875 -2.21875 -2.28125q-1.40625 -0.8125 -3.203125 -0.8125q-1.796875 0 -3.203125 0.8125q-1.40625 0.8125 -2.234375 2.28125q-0.828125 1.46875 -0.828125 3.453125q0 1.953125 0.828125 3.453125q0.828125 1.484375 2.234375 2.296875q1.40625 0.8125 3.171875 0.8125z" fill-rule="nonzero"/><path fill="#efefef" d="m55.026707 789.10236l258.6452 0c6.4086914E-4 0 0.0012207031 2.4414062E-4 0.0016784668 6.713867E-4c4.272461E-4 4.8828125E-4 6.713867E-4 0.0010375977 6.713867E-4 0.0017089844l-0.0023498535 114.64282c0 12.663696 -10.26593 22.929626 -22.929596 22.929626l-258.6452 0l0 0c-0.0012969971 0 -0.0023498535 -0.0010986328 -0.0023498535 -0.002380371l0.0023498535 -114.64282l0 0c0 -12.663696 10.265926 -22.929626 22.929592 -22.929626z" fill-rule="evenodd"/><path fill="#111c28" d="m79.53241 827.92975l0 -16.796875l6.5625 0q2.203125 0 3.765625 0.703125q1.5625 0.6875 2.390625 2.015625q0.84375 1.3125 0.84375 3.140625q0 1.8125 -0.84375 3.125q-0.828125 1.3125 -2.390625 2.015625q-1.5625 0.703125 -3.765625 0.703125l-5.234375 0l1.078125 -1.125l0 6.21875l-2.40625 0zm2.40625 -5.96875l-1.078125 -1.203125l5.15625 0q2.296875 0 3.484375 -0.984375q1.203125 -0.984375 1.203125 -2.78125q0 -1.8125 -1.203125 -2.796875q-1.1875 -0.984375 -3.484375 -0.984375l-5.15625 0l1.078125 -1.1875l0 9.9375zm14.137573 5.96875l0 -12.71875l2.203125 0l0 3.453125l-0.21875 -0.859375q0.53125 -1.328125 1.78125 -2.015625q1.25 -0.703125 3.078125 -0.703125l0 2.234375q-0.15625 -0.015625 -0.296875 -0.015625q-0.125 0 -0.234375 0q-1.859375 0 -2.9375 1.109375q-1.078125 1.09375 -1.078125 3.171875l0 6.34375l-2.296875 0zm15.208221 0.140625q-2.03125 0 -3.578125 -0.828125q-1.546875 -0.84375 -2.40625 -2.3125q-0.84375 -1.46875 -0.84375 -3.359375q0 -1.890625 0.8125 -3.359375q0.828125 -1.46875 2.28125 -2.296875q1.453125 -0.828125 3.28125 -0.828125q1.84375 0 3.265625 0.828125q1.421875 0.8125 2.21875 2.296875q0.8125 1.46875 0.8125 3.4375q0 0.140625 -0.015625 0.328125q-0.015625 0.1875 -0.046875 0.359375l-10.8125 0l0 -1.65625l9.625 0l-0.9375 0.578125q0.015625 -1.21875 -0.515625 -2.171875q-0.515625 -0.96875 -1.453125 -1.5q-0.921875 -0.546875 -2.140625 -0.546875q-1.203125 0 -2.140625 0.546875q-0.9375 0.53125 -1.46875 1.5q-0.515625 0.96875 -0.515625 2.21875l0 0.390625q0 1.265625 0.578125 2.265625q0.59375 1.0 1.640625 1.546875q1.0625 0.546875 2.4375 0.546875q1.125 0 2.046875 -0.375q0.921875 -0.390625 1.625 -1.15625l1.265625 1.484375q-0.859375 1.015625 -2.140625 1.546875q-1.28125 0.515625 -2.875 0.515625zm12.119827 -0.140625l-5.5625 -12.71875l2.40625 0l4.9375 11.515625l-1.15625 0l5.046875 -11.515625l2.25 0l-5.5625 12.71875l-2.359375 0zm10.08783 0l0 -12.71875l2.296875 0l0 12.71875l-2.296875 0zm1.15625 -15.171875q-0.671875 0 -1.125 -0.421875q-0.4375 -0.4375 -0.4375 -1.0625q0 -0.640625 0.4375 -1.078125q0.453125 -0.4375 1.125 -0.4375q0.671875 0 1.109375 0.421875q0.453125 0.421875 0.453125 1.046875q0 0.640625 -0.4375 1.09375q-0.4375 0.4375 -1.125 0.4375zm10.977234 15.3125q-1.90625 0 -3.40625 -0.828125q-1.484375 -0.84375 -2.34375 -2.3125q-0.859375 -1.484375 -0.859375 -3.359375q0 -1.890625 0.859375 -3.359375q0.859375 -1.46875 2.34375 -2.296875q1.5 -0.828125 3.40625 -0.828125q1.90625 0 3.40625 0.828125q1.5 0.828125 2.34375 2.28125q0.859375 1.453125 0.859375 3.375q0 1.890625 -0.859375 3.359375q-0.84375 1.46875 -2.34375 2.3125q-1.5 0.828125 -3.40625 0.828125zm0 -2.015625q1.234375 0 2.203125 -0.546875q0.96875 -0.546875 1.515625 -1.5625q0.5625 -1.03125 0.5625 -2.375q0 -1.375 -0.5625 -2.359375q-0.546875 -1.0 -1.515625 -1.546875q-0.96875 -0.5625 -2.203125 -0.5625q-1.21875 0 -2.1875 0.5625q-0.953125 0.546875 -1.53125 1.546875q-0.5625 0.984375 -0.5625 2.359375q0 1.34375 0.5625 2.375q0.578125 1.015625 1.53125 1.5625q0.96875 0.546875 2.1875 0.546875zm15.14621 2.015625q-1.625 0 -2.859375 -0.59375q-1.234375 -0.609375 -1.921875 -1.84375q-0.6875 -1.234375 -0.6875 -3.109375l0 -7.3125l2.3125 0l0 7.0625q0 1.859375 0.890625 2.796875q0.90625 0.9375 2.53125 0.9375q1.203125 0 2.09375 -0.484375q0.890625 -0.5 1.359375 -1.4375q0.484375 -0.953125 0.484375 -2.296875l0 -6.578125l2.3125 0l0 12.71875l-2.1875 0l0 -3.4375l0.359375 0.921875q-0.625 1.265625 -1.875 1.96875q-1.25 0.6875 -2.8125 0.6875zm14.54483 0q-1.578125 0 -3.015625 -0.421875q-1.421875 -0.4375 -2.234375 -1.0625l0.953125 -1.828125q0.828125 0.5625 2.015625 0.953125q1.203125 0.375 2.453125 0.375q1.609375 0 2.3125 -0.453125q0.71875 -0.46875 0.71875 -1.28125q0 -0.59375 -0.4375 -0.921875q-0.4375 -0.34375 -1.140625 -0.515625q-0.703125 -0.171875 -1.578125 -0.296875q-0.859375 -0.140625 -1.734375 -0.34375q-0.859375 -0.203125 -1.578125 -0.5625q-0.71875 -0.375 -1.15625 -1.03125q-0.421875 -0.671875 -0.421875 -1.78125q0 -1.140625 0.640625 -2.0q0.65625 -0.875 1.84375 -1.34375q1.1875 -0.46875 2.8125 -0.46875q1.25 0 2.53125 0.3125q1.296875 0.296875 2.109375 0.84375l-0.984375 1.828125q-0.859375 -0.578125 -1.796875 -0.796875q-0.9375 -0.21875 -1.875 -0.21875q-1.515625 0 -2.265625 0.5q-0.734375 0.484375 -0.734375 1.25q0 0.65625 0.4375 1.0q0.453125 0.34375 1.15625 0.546875q0.703125 0.1875 1.5625 0.328125q0.875 0.125 1.734375 0.328125q0.875 0.203125 1.578125 0.5625q0.703125 0.359375 1.140625 1.015625q0.453125 0.640625 0.453125 1.71875q0 1.15625 -0.671875 2.0q-0.671875 0.828125 -1.90625 1.296875q-1.21875 0.46875 -2.921875 0.46875zm15.16745 -0.140625l0 -16.796875l1.96875 0l7.546875 12.6875l-1.0625 0l7.4375 -12.6875l1.96875 0l0.03125 16.796875l-2.3125 0l-0.015625 -13.171875l0.546875 0l-6.625 11.125l-1.109375 0l-6.671875 -11.125l0.609375 0l0 13.171875l-2.3125 0zm28.029312 0.140625q-1.90625 0 -3.40625 -0.828125q-1.484375 -0.84375 -2.34375 -2.3125q-0.859375 -1.484375 -0.859375 -3.359375q0 -1.890625 0.859375 -3.359375q0.859375 -1.46875 2.34375 -2.296875q1.5 -0.828125 3.40625 -0.828125q1.90625 0 3.40625 0.828125q1.5 0.828125 2.34375 2.28125q0.859375 1.453125 0.859375 3.375q0 1.890625 -0.859375 3.359375q-0.84375 1.46875 -2.34375 2.3125q-1.5 0.828125 -3.40625 0.828125zm0 -2.015625q1.234375 0 2.203125 -0.546875q0.96875 -0.546875 1.515625 -1.5625q0.5625 -1.03125 0.5625 -2.375q0 -1.375 -0.5625 -2.359375q-0.546875 -1.0 -1.515625 -1.546875q-0.96875 -0.5625 -2.203125 -0.5625q-1.21875 0 -2.1875 0.5625q-0.953125 0.546875 -1.53125 1.546875q-0.5625 0.984375 -0.5625 2.359375q0 1.34375 0.5625 2.375q0.578125 1.015625 1.53125 1.5625q0.96875 0.546875 2.1875 0.546875zm9.80246 1.875l0 -12.71875l2.203125 0l0 3.4375l-0.359375 -0.921875q0.625 -1.25 1.921875 -1.9375q1.296875 -0.703125 3.015625 -0.703125q1.5625 0 2.75 0.609375q1.1875 0.59375 1.859375 1.828125q0.671875 1.21875 0.671875 3.09375l0 7.3125l-2.296875 0l0 -7.0625q0 -1.84375 -0.90625 -2.78125q-0.890625 -0.9375 -2.53125 -0.9375q-1.21875 0 -2.140625 0.484375q-0.90625 0.484375 -1.40625 1.421875q-0.484375 0.9375 -0.484375 2.328125l0 6.546875l-2.296875 0zm20.703323 0.140625q-1.921875 0 -2.984375 -1.03125q-1.046875 -1.03125 -1.046875 -2.953125l0 -11.65625l2.3125 0l0 11.5625q0 1.03125 0.515625 1.59375q0.515625 0.546875 1.46875 0.546875q1.078125 0 1.796875 -0.609375l0.734375 1.65625q-0.53125 0.46875 -1.265625 0.6875q-0.734375 0.203125 -1.53125 0.203125zm-6.1875 -10.96875l0 -1.890625l8.109375 0l0 1.890625l-8.109375 0zm11.764099 10.828125l0 -17.8125l2.2968903 0l0 8.53125l-0.453125 -0.921875q0.625 -1.25 1.921875 -1.9375q1.296875 -0.703125 3.015625 -0.703125q1.5625 0 2.75 0.609375q1.1875 0.59375 1.859375 1.828125q0.671875 1.21875 0.671875 3.09375l0 7.3125l-2.296875 0l0 -7.0625q0 -1.84375 -0.90625 -2.78125q-0.890625 -0.9375 -2.53125 -0.9375q-1.21875 0 -2.140625 0.484375q-0.90625 0.484375 -1.40625 1.421875q-0.484375 0.9375 -0.484375 2.328125l0 6.546875l-2.2968903 0z" fill-rule="nonzero"/><path fill="#111c28" d="m91.661156 894.236l0 -26.109375q0 -5.75 2.46875 -9.84375q2.46875 -4.109375 7.140625 -6.3125q4.671875 -2.203125 11.203125 -2.203125q3.96875 0 7.15625 0.734375q3.203125 0.734375 5.703125 2.203125l-3.140625 8.1875q-2.046875 -1.28125 -4.546875 -1.78125q-2.484375 -0.515625 -5.046875 -0.515625q-5.125 0 -7.8125 2.34375q-2.6875 2.328125 -2.6875 7.0l0 26.296875l-10.4375 0zm-6.390625 1.09375l0 -8.3125l38.78125 0l0 8.3125l-38.78125 0zm0 -19.265625l0 -6.265625l32.1875 0l0 6.265625l-32.1875 0zm42.299423 19.265625l0 -6.71875l17.281258 -16.328125q2.046875 -1.84375 3.0 -3.3125q0.96875 -1.484375 1.3125 -2.6875q0.359375 -1.21875 0.359375 -2.25q0 -2.6875 -1.828125 -4.125q-1.8125 -1.4375 -5.34375 -1.4375q-2.8125 0 -5.21875 1.09375q-2.390625 1.078125 -4.0625 3.375l-7.5468826 -4.859375q2.5625076 -3.84375 7.1718826 -6.078125q4.609375 -2.234375 10.625 -2.234375q4.984375 0 8.734375 1.640625q3.75 1.625 5.828125 4.5625q2.078125 2.9375 2.078125 7.046875q0 2.171875 -0.546875 4.3125q-0.546875 2.140625 -2.1875 4.515625q-1.625 2.359375 -4.75 5.3125l-14.34375 13.5l-1.984375 -3.78125l25.28125 0l0 8.453125l-33.859383 0zm53.38494 0.765625q-4.671875 0 -9.25 -1.25q-4.578125 -1.25 -7.84375 -3.546875l4.09375 -7.9375q2.5625 1.859375 5.921875 2.953125q3.359375 1.078125 6.8125 1.078125q3.90625 0 6.140625 -1.53125q2.25 -1.546875 2.25 -4.296875q0 -1.71875 -0.90625 -3.0625q-0.890625 -1.34375 -3.171875 -2.046875q-2.265625 -0.703125 -6.359375 -0.703125l-11.453125 0l2.296875 -25.21875l27.328125 0l0 8.3125l-23.609375 0l5.375 -4.734375l-1.59375 17.984375l-5.375 -4.734375l9.46875 0q6.65625 0 10.71875 1.828125q4.0625 1.828125 5.921875 4.96875q1.859375 3.125 1.859375 7.09375q0 3.96875 -1.984375 7.328125q-1.984375 3.359375 -6.125 5.4375q-4.125 2.078125 -10.515625 2.078125zm25.65805 -0.765625l0 -44.796875l8.578125 0l19.0625 31.609375l-4.53125 0l18.75 -31.609375l8.515625 0l0.125 44.796875l-9.734375 0l-0.0625 -29.890625l1.796875 0l-14.984375 25.15625l-4.671875 0l-15.296875 -25.15625l2.1875 0l0 29.890625l-9.734375 0z" fill-rule="nonzero"/><path fill="#8afbe6" d="m362.51373 789.10236l258.6452 0c6.1035156E-4 0 0.0012207031 2.4414062E-4 0.0016479492 6.713867E-4c4.272461E-4 4.8828125E-4 6.713867E-4 0.0010375977 6.713867E-4 0.0017089844l-0.002319336 114.64282c0 12.663696 -10.26593 22.929626 -22.929565 22.929626l-258.64523 0l0 0c-0.0013122559 0 -0.0023498535 -0.0010986328 -0.0023498535 -0.002380371l0.0023498535 -114.64282l0 0c0 -12.663696 10.26593 -22.929626 22.929596 -22.929626z" fill-rule="evenodd"/><path fill="#111c28" d="m410.76736 827.92975l0 -16.796875l1.96875 0l11.109375 13.796875l-1.03125 0l0 -13.796875l2.40625 0l0 16.796875l-1.96875 0l-11.109375 -13.796875l1.03125 0l0 13.796875l-2.40625 0zm24.81607 0.140625q-2.03125 0 -3.578125 -0.828125q-1.546875 -0.84375 -2.40625 -2.3125q-0.84375 -1.46875 -0.84375 -3.359375q0 -1.890625 0.8125 -3.359375q0.828125 -1.46875 2.28125 -2.296875q1.453125 -0.828125 3.28125 -0.828125q1.84375 0 3.265625 0.828125q1.421875 0.8125 2.21875 2.296875q0.8125 1.46875 0.8125 3.4375q0 0.140625 -0.015625 0.328125q-0.015625 0.1875 -0.046875 0.359375l-10.8125 0l0 -1.65625l9.625 0l-0.9375 0.578125q0.015625 -1.21875 -0.515625 -2.171875q-0.515625 -0.96875 -1.453125 -1.5q-0.921875 -0.546875 -2.140625 -0.546875q-1.203125 0 -2.140625 0.546875q-0.9375 0.53125 -1.46875 1.5q-0.515625 0.96875 -0.515625 2.21875l0 0.390625q0 1.265625 0.578125 2.265625q0.59375 1.0 1.640625 1.546875q1.0625 0.546875 2.4375 0.546875q1.125 0 2.046875 -0.375q0.921875 -0.390625 1.625 -1.15625l1.265625 1.484375q-0.859375 1.015625 -2.140625 1.546875q-1.28125 0.515625 -2.875 0.515625zm6.8279724 -0.140625l5.46875 -7.109375l-0.03125 1.1875l-5.203125 -6.796875l2.5625 0l3.984375 5.234375l-0.984375 0l3.984375 -5.234375l2.515625 0l-5.265625 6.84375l0.015625 -1.234375l5.515625 7.109375l-2.609375 0l-4.203125 -5.5625l0.9375 0.140625l-4.125 5.421875l-2.5625 0zm19.45108 0.140625q-1.921875 0 -2.984375 -1.03125q-1.046875 -1.03125 -1.046875 -2.953125l0 -11.65625l2.3125 0l0 11.5625q0 1.03125 0.515625 1.59375q0.515625 0.546875 1.46875 0.546875q1.078125 0 1.796875 -0.609375l0.734375 1.65625q-0.53125 0.46875 -1.265625 0.6875q-0.734375 0.203125 -1.53125 0.203125zm-6.1875 -10.96875l0 -1.890625l8.109375 0l0 1.890625l-8.109375 0zm18.548187 10.828125l0 -16.796875l1.96875 0l7.546875 12.6875l-1.0625 0l7.4375 -12.6875l1.96875 0l0.03125 16.796875l-2.3125 0l-0.015625 -13.171875l0.546875 0l-6.625 11.125l-1.109375 0l-6.671875 -11.125l0.609375 0l0 13.171875l-2.3125 0zm28.029327 0.140625q-1.90625 0 -3.40625 -0.828125q-1.484375 -0.84375 -2.34375 -2.3125q-0.859375 -1.484375 -0.859375 -3.359375q0 -1.890625 0.859375 -3.359375q0.859375 -1.46875 2.34375 -2.296875q1.5 -0.828125 3.40625 -0.828125q1.90625 0 3.40625 0.828125q1.5 0.828125 2.34375 2.28125q0.859375 1.453125 0.859375 3.375q0 1.890625 -0.859375 3.359375q-0.84375 1.46875 -2.34375 2.3125q-1.5 0.828125 -3.40625 0.828125zm0 -2.015625q1.234375 0 2.203125 -0.546875q0.96875 -0.546875 1.515625 -1.5625q0.5625 -1.03125 0.5625 -2.375q0 -1.375 -0.5625 -2.359375q-0.546875 -1.0 -1.515625 -1.546875q-0.96875 -0.5625 -2.203125 -0.5625q-1.21875 0 -2.1875 0.5625q-0.953125 0.546875 -1.53125 1.546875q-0.5625 0.984375 -0.5625 2.359375q0 1.34375 0.5625 2.375q0.578125 1.015625 1.53125 1.5625q0.96875 0.546875 2.1875 0.546875zm9.802429 1.875l0 -12.71875l2.203125 0l0 3.4375l-0.359375 -0.921875q0.625 -1.25 1.921875 -1.9375q1.296875 -0.703125 3.015625 -0.703125q1.5625 0 2.75 0.609375q1.1875 0.59375 1.859375 1.828125q0.671875 1.21875 0.671875 3.09375l0 7.3125l-2.296875 0l0 -7.0625q0 -1.84375 -0.90625 -2.78125q-0.890625 -0.9375 -2.53125 -0.9375q-1.21875 0 -2.140625 0.484375q-0.90625 0.484375 -1.40625 1.421875q-0.484375 0.9375 -0.484375 2.328125l0 6.546875l-2.296875 0zm20.703308 0.140625q-1.921875 0 -2.984375 -1.03125q-1.046875 -1.03125 -1.046875 -2.953125l0 -11.65625l2.3125 0l0 11.5625q0 1.03125 0.515625 1.59375q0.515625 0.546875 1.46875 0.546875q1.078125 0 1.796875 -0.609375l0.734375 1.65625q-0.53125 0.46875 -1.265625 0.6875q-0.734375 0.203125 -1.53125 0.203125zm-6.1875 -10.96875l0 -1.890625l8.109375 0l0 1.890625l-8.109375 0zm11.764099 10.828125l0 -17.8125l2.296875 0l0 8.53125l-0.453125 -0.921875q0.625 -1.25 1.921875 -1.9375q1.296875 -0.703125 3.015625 -0.703125q1.5625 0 2.75 0.609375q1.1875 0.59375 1.859375 1.828125q0.671875 1.21875 0.671875 3.09375l0 7.3125l-2.296875 0l0 -7.0625q0 -1.84375 -0.90625 -2.78125q-0.890625 -0.9375 -2.53125 -0.9375q-1.21875 0 -2.140625 0.484375q-0.90625 0.484375 -1.40625 1.421875q-0.484375 0.9375 -0.484375 2.328125l0 6.546875l-2.296875 0z" fill-rule="nonzero"/><path fill="#111c28" d="m399.34018 894.236l0 -26.109375q0 -5.75 2.46875 -9.84375q2.46875 -4.109375 7.140625 -6.3125q4.671875 -2.203125 11.203125 -2.203125q3.96875 0 7.15625 0.734375q3.203125 0.734375 5.703125 2.203125l-3.140625 8.1875q-2.046875 -1.28125 -4.546875 -1.78125q-2.484375 -0.515625 -5.046875 -0.515625q-5.125 0 -7.8125 2.34375q-2.6875 2.328125 -2.6875 7.0l0 26.296875l-10.4375 0zm-6.390625 1.09375l0 -8.3125l38.78125 0l0 8.3125l-38.78125 0zm0 -19.265625l0 -6.265625l32.1875 0l0 6.265625l-32.1875 0zm57.221313 20.03125q-4.671875 0 -9.28125 -1.25q-4.609375 -1.25 -7.8125 -3.546875l4.03125 -7.9375q2.5625 1.859375 5.953125 2.953125q3.390625 1.078125 6.84375 1.078125q3.90625 0 6.140625 -1.53125q2.25 -1.546875 2.25 -4.234375q0 -2.546875 -1.984375 -4.015625q-1.984375 -1.484375 -6.40625 -1.484375l-4.734375 0l0 -6.84375l12.484375 -14.140625l1.140625 3.703125l-23.484375 0l0 -8.3125l31.359375 0l0 6.71875l-12.40625 14.140625l-5.25 -3.0l3.0 0q8.265625 0 12.484375 3.71875q4.21875 3.703125 4.21875 9.515625q0 3.78125 -1.984375 7.078125q-1.984375 3.296875 -6.078125 5.34375q-4.09375 2.046875 -10.484375 2.046875zm37.567932 0q-4.671875 0 -9.28125 -1.25q-4.609375 -1.25 -7.8125 -3.546875l4.03125 -7.9375q2.5625 1.859375 5.953125 2.953125q3.390625 1.078125 6.84375 1.078125q3.90625 0 6.140625 -1.53125q2.25 -1.546875 2.25 -4.234375q0 -2.546875 -1.984375 -4.015625q-1.984375 -1.484375 -6.40625 -1.484375l-4.734375 0l0 -6.84375l12.484375 -14.140625l1.140625 3.703125l-23.484375 0l0 -8.3125l31.359375 0l0 6.71875l-12.40625 14.140625l-5.25 -3.0l3.0 0q8.265625 0 12.484375 3.71875q4.21875 3.703125 4.21875 9.515625q0 3.78125 -1.984375 7.078125q-1.984375 3.296875 -6.078125 5.34375q-4.09375 2.046875 -10.484375 2.046875zm26.169159 -0.765625l0 -44.796875l8.578125 0l19.0625 31.609375l-4.53125 0l18.75 -31.609375l8.515625 0l0.125 44.796875l-9.734375 0l-0.0625 -29.890625l1.796875 0l-14.984375 25.15625l-4.671875 0l-15.296875 -25.15625l2.1875 0l0 29.890625l-9.734375 0z" fill-rule="nonzero"/><path fill="#fff2cc" d="m670.00073 789.10236l258.6452 0c6.713867E-4 0 0.0012207031 2.4414062E-4 0.0017089844 6.713867E-4c4.272461E-4 4.8828125E-4 6.713867E-4 0.0010375977 6.713867E-4 0.0017089844l-0.002380371 114.64282c0 12.663696 -10.26593 22.929626 -22.929565 22.929626l-258.6452 0l0 0c-0.0012817383 0 -0.002380371 -0.0010986328 -0.002380371 -0.002380371l0.002380371 -114.64282l0 0c0 -12.663696 10.26593 -22.929626 22.929565 -22.929626z" fill-rule="evenodd"/><path fill="#111c28" d="m752.5361 828.11725q-1.953125 0 -3.59375 -0.625q-1.625 -0.640625 -2.828125 -1.796875q-1.1875 -1.171875 -1.859375 -2.734375q-0.671875 -1.5625 -0.671875 -3.4375q0 -1.859375 0.671875 -3.421875q0.671875 -1.5625 1.875 -2.71875q1.21875 -1.171875 2.84375 -1.796875q1.640625 -0.640625 3.609375 -0.640625q1.984375 0 3.640625 0.640625q1.65625 0.640625 2.8125 1.9375l-1.484375 1.5q-1.03125 -1.015625 -2.25 -1.484375q-1.21875 -0.46875 -2.625 -0.46875q-1.4375 0 -2.671875 0.484375q-1.234375 0.484375 -2.140625 1.34375q-0.90625 0.859375 -1.40625 2.046875q-0.484375 1.1875 -0.484375 2.578125q0 1.375 0.484375 2.5625q0.5 1.1875 1.40625 2.0625q0.90625 0.875 2.125 1.359375q1.21875 0.484375 2.65625 0.484375q1.34375 0 2.578125 -0.421875q1.25 -0.421875 2.296875 -1.40625l1.375 1.828125q-1.25 1.046875 -2.921875 1.59375q-1.671875 0.53125 -3.4375 0.53125zm6.359375 -2.125l-2.3125 -0.3125l0 -6.25l2.3125 0l0 6.5625zm4.246704 1.9375l0 -12.71875l2.203125 0l0 3.453125l-0.21875 -0.859375q0.53125 -1.328125 1.78125 -2.015625q1.25 -0.703125 3.078125 -0.703125l0 2.234375q-0.15625 -0.015625 -0.296875 -0.015625q-0.125 0 -0.234375 0q-1.859375 0 -2.9375 1.109375q-1.078125 1.09375 -1.078125 3.171875l0 6.34375l-2.296875 0zm14.989441 0.140625q-1.90625 0 -3.40625 -0.828125q-1.484375 -0.84375 -2.34375 -2.3125q-0.859375 -1.484375 -0.859375 -3.359375q0 -1.890625 0.859375 -3.359375q0.859375 -1.46875 2.34375 -2.296875q1.5 -0.828125 3.40625 -0.828125q1.90625 0 3.40625 0.828125q1.5 0.828125 2.34375 2.28125q0.859375 1.453125 0.859375 3.375q0 1.890625 -0.859375 3.359375q-0.84375 1.46875 -2.34375 2.3125q-1.5 0.828125 -3.40625 0.828125zm0 -2.015625q1.234375 0 2.203125 -0.546875q0.96875 -0.546875 1.515625 -1.5625q0.5625 -1.03125 0.5625 -2.375q0 -1.375 -0.5625 -2.359375q-0.546875 -1.0 -1.515625 -1.546875q-0.96875 -0.5625 -2.203125 -0.5625q-1.21875 0 -2.1875 0.5625q-0.953125 0.546875 -1.53125 1.546875q-0.5625 0.984375 -0.5625 2.359375q0 1.34375 0.5625 2.375q0.578125 1.015625 1.53125 1.5625q0.96875 0.546875 2.1875 0.546875zm12.129944 1.875l-4.734375 -12.71875l2.1875 0l4.203125 11.515625l-1.03125 0l4.359375 -11.515625l1.953125 0l4.265625 11.515625l-1.0 0l4.296875 -11.515625l2.0625 0l-4.75 12.71875l-2.21875 0l-4.0 -10.515625l0.671875 0l-4.0625 10.515625l-2.203125 0zm23.295837 0.140625q-1.921875 0 -2.984375 -1.03125q-1.046875 -1.03125 -1.046875 -2.953125l0 -11.65625l2.3125 0l0 11.5625q0 1.03125 0.515625 1.59375q0.515625 0.546875 1.46875 0.546875q1.078125 0 1.796875 -0.609375l0.734375 1.65625q-0.53125 0.46875 -1.265625 0.6875q-0.734375 0.203125 -1.53125 0.203125zm-6.1875 -10.96875l0 -1.890625l8.109375 0l0 1.890625l-8.109375 0zm11.764099 10.828125l0 -17.8125l2.296875 0l0 8.53125l-0.453125 -0.921875q0.625 -1.25 1.921875 -1.9375q1.296875 -0.703125 3.015625 -0.703125q1.5625 0 2.75 0.609375q1.1875 0.59375 1.859375 1.828125q0.671875 1.21875 0.671875 3.09375l0 7.3125l-2.296875 0l0 -7.0625q0 -1.84375 -0.90625 -2.78125q-0.890625 -0.9375 -2.53125 -0.9375q-1.21875 0 -2.140625 0.484375q-0.90625 0.484375 -1.40625 1.421875q-0.484375 0.9375 -0.484375 2.328125l0 6.546875l-2.296875 0z" fill-rule="nonzero"/><path fill="#111c28" d="m718.3296 887.7204l0 -29.578125l8.25 0l0 29.578125l-8.25 0zm-11.078125 -10.890625l0 -7.796875l30.46875 0l0 7.796875l-30.46875 0zm50.11841 19.265625q-4.671875 0 -9.28125 -1.25q-4.609375 -1.25 -7.8125 -3.546875l4.03125 -7.9375q2.5625 1.859375 5.953125 2.953125q3.390625 1.078125 6.84375 1.078125q3.90625 0 6.140625 -1.53125q2.25 -1.546875 2.25 -4.234375q0 -2.546875 -1.984375 -4.015625q-1.984375 -1.484375 -6.40625 -1.484375l-4.734375 0l0 -6.84375l12.484375 -14.140625l1.140625 3.703125l-23.484375 0l0 -8.3125l31.359375 0l0 6.71875l-12.40625 14.140625l-5.25 -3.0l3.0 0q8.265625 0 12.484375 3.71875q4.21875 3.703125 4.21875 9.515625q0 3.78125 -1.984375 7.078125q-1.984375 3.296875 -6.078125 5.34375q-4.09375 2.046875 -10.484375 2.046875zm22.646057 -0.765625l0 -6.71875l17.28125 -16.328125q2.046875 -1.84375 3.0 -3.3125q0.96875 -1.484375 1.3125 -2.6875q0.359375 -1.21875 0.359375 -2.25q0 -2.6875 -1.828125 -4.125q-1.8125 -1.4375 -5.34375 -1.4375q-2.8125 0 -5.21875 1.09375q-2.390625 1.078125 -4.0625 3.375l-7.546875 -4.859375q2.5625 -3.84375 7.171875 -6.078125q4.609375 -2.234375 10.625 -2.234375q4.984375 0 8.734375 1.640625q3.75 1.625 5.828125 4.5625q2.078125 2.9375 2.078125 7.046875q0 2.171875 -0.546875 4.3125q-0.546875 2.140625 -2.1875 4.515625q-1.625 2.359375 -4.75 5.3125l-14.34375 13.5l-1.984375 -3.78125l25.28125 0l0 8.453125l-33.859375 0zm45.243713 0l30.59375 -44.796875l7.625 0l-30.59375 44.796875l-7.625 0zm3.90625 -20.609375q-3.265625 0 -5.765625 -1.5q-2.484375 -1.5 -3.921875 -4.28125q-1.4375 -2.796875 -1.4375 -6.5625q0 -3.78125 1.4375 -6.53125q1.4375 -2.75 3.921875 -4.28125q2.5 -1.546875 5.765625 -1.546875q3.265625 0 5.765625 1.546875q2.5 1.53125 3.90625 4.25q1.40625 2.71875 1.40625 6.5625q0 3.765625 -1.40625 6.5625q-1.40625 2.78125 -3.90625 4.28125q-2.5 1.5 -5.765625 1.5zm0 -5.25q2.109375 0 3.390625 -1.75q1.28125 -1.765625 1.28125 -5.34375q0 -3.59375 -1.28125 -5.34375q-1.28125 -1.765625 -3.390625 -1.765625q-2.046875 0 -3.359375 1.796875q-1.3125 1.78125 -1.3125 5.3125q0 3.515625 1.3125 5.3125q1.3125 1.78125 3.359375 1.78125zm30.40625 26.375q-3.203125 0 -5.734375 -1.5q-2.515625 -1.515625 -3.9375 -4.296875q-1.40625 -2.78125 -1.40625 -6.5625q0 -3.765625 1.40625 -6.515625q1.421875 -2.765625 3.9375 -4.296875q2.53125 -1.53125 5.734375 -1.53125q3.328125 0 5.8125 1.53125q2.5 1.53125 3.90625 4.296875q1.421875 2.75 1.421875 6.515625q0 3.78125 -1.421875 6.5625q-1.40625 2.78125 -3.90625 4.296875q-2.484375 1.5 -5.8125 1.5zm0 -5.25q2.109375 0 3.390625 -1.78125q1.28125 -1.796875 1.28125 -5.328125q0 -3.515625 -1.28125 -5.296875q-1.28125 -1.796875 -3.390625 -1.796875q-2.046875 0 -3.359375 1.765625q-1.3125 1.75 -1.3125 5.328125q0 3.59375 1.3125 5.359375q1.3125 1.75 3.359375 1.75z" fill-rule="nonzero"/><path fill="#000000" fill-opacity="0.0" d="m32.53018 538.25195l93.97638 82.83203l75.90289 -13.553772l83.13385 34.036743l102.70868 -43.073547l58.13385 13.254639l211.14438 -134.93964" fill-rule="evenodd"/><path stroke="#999999" stroke-width="4.0" stroke-linejoin="round" stroke-linecap="butt" d="m32.53018 538.25195l93.97638 82.83203l75.90289 -13.553772l83.13385 34.036743l102.70868 -43.073547l58.13385 13.254639l211.14438 -134.93964" fill-rule="evenodd"/><path fill="#000000" fill-opacity="0.0" d="m33.154854 483.958l121.391075 36.362183l178.60892 -61.496033l91.979004 48.1286l73.79791 -61.498688l94.11548 -40.107605l64.17322 -73.79529" fill-rule="evenodd"/><path stroke="#29caab" stroke-width="4.0" stroke-linejoin="round" stroke-linecap="butt" d="m33.154854 483.958l121.391075 36.362183l178.60892 -61.496033l91.979004 48.1286l73.79791 -61.498688l94.11548 -40.107605l64.17322 -73.79529" fill-rule="evenodd"/><path fill="#000000" fill-opacity="0.0" d="m659.04724 326.66666l67.619446 15.238861l76.19159 -59.04724l126.66669 -29.524948" fill-rule="evenodd"/><path stroke="#29caab" stroke-width="4.0" stroke-linejoin="round" stroke-linecap="butt" stroke-dasharray="16.0,12.0" d="m659.04724 326.66666l67.619446 15.238861l76.19159 -59.04724l126.66669 -29.524948" fill-rule="evenodd"/><path fill="#000000" fill-opacity="0.0" d="m658.0945 480.95276l66.66669 32.380554l74.28607 -54.28607l130.27032 -21.29657" fill-rule="evenodd"/><path stroke="#b7b7b7" stroke-width="4.0" stroke-linejoin="round" stroke-linecap="butt" stroke-dasharray="16.0,12.0" d="m658.0945 480.95276l66.66669 32.380554l74.28607 -54.28607l130.27032 -21.29657" fill-rule="evenodd"/><path fill="#000000" fill-opacity="0.0" d="m657.5412 174.70186l0 584.66144" fill-rule="evenodd"/><path stroke="#111c28" stroke-width="4.380577427821522" stroke-linejoin="round" stroke-linecap="butt" d="m657.5412 174.70186l0 584.66144" fill-rule="evenodd"/><path fill="#000000" fill-opacity="0.0" d="m926.9843 759.59625l-896.69293 0" fill-rule="evenodd"/><path stroke="#d9d9d9" stroke-width="4.380577427821522" stroke-linejoin="round" stroke-linecap="butt" d="m926.9843 759.59625l-896.69293 0" fill-rule="evenodd"/></g></svg>