<svg version="1.1" viewBox="0.0 0.0 960.0 720.0" fill="none" stroke="none" stroke-linecap="square" stroke-miterlimit="10" xmlns:xlink="http://www.w3.org/1999/xlink" xmlns="http://www.w3.org/2000/svg"><clipPath id="g38aff997ae8_0_109.0"><path d="m0 0l960.0 0l0 720.0l-960.0 0l0 -720.0z" clip-rule="nonzero"/></clipPath><g clip-path="url(#g38aff997ae8_0_109.0)"><path fill="#000000" fill-opacity="0.0" d="m0 0l960.0 0l0 720.0l-960.0 0z" fill-rule="evenodd"/><path fill="#000000" fill-opacity="0.0" d="m31.35424 14.041339l897.2913 0l0 58.834644l-897.2913 0z" fill-rule="evenodd"/><path fill="#000000" d="m68.04174 52.793213l7.109375 0l0 17.328125l-5.859375 0l0 -2.015625q-3.5 2.59375 -9.03125 2.59375q-4.65625 0 -8.546875 -2.015625q-3.875 -2.015625 -6.1875 -5.875q-2.296875 -3.875 -2.296875 -9.203125q0 -5.125 2.375 -9.125q2.375 -4.015625 6.59375 -6.265625q4.234375 -2.265625 9.515625 -2.265625q4.40625 0 8.0 1.484375q3.609375 1.484375 6.0625 4.3125l-5.0 4.609375q-3.59375 -3.78125 -8.6875 -3.78125q-3.21875 0 -5.71875 1.375q-2.484375 1.359375 -3.875 3.859375q-1.390625 2.484375 -1.390625 5.75q0 3.40625 1.359375 5.8125q1.375 2.390625 3.671875 3.625q2.3125 1.21875 5.046875 1.21875q4.078125 0 6.859375 -2.296875l0 -9.125zm20.929947 -5.09375q1.34375 -1.859375 3.625 -2.8125q2.28125 -0.96875 5.25 -0.96875l0 6.90625q-1.25 -0.09375 -1.671875 -0.09375q-3.21875 0 -5.046875 1.796875q-1.828125 1.796875 -1.828125 5.40625l0 12.1875l-7.484375 0l0 -25.828125l7.15625 0l0 3.40625zm25.396667 22.8125q-4.09375 0 -7.328125 -1.703125q-3.234375 -1.71875 -5.0625 -4.734375q-1.828125 -3.03125 -1.828125 -6.859375q0 -3.84375 1.828125 -6.859375q1.828125 -3.03125 5.0625 -4.734375q3.234375 -1.703125 7.328125 -1.703125q4.078125 0 7.28125 1.703125q3.21875 1.703125 5.046875 4.734375q1.8281174 3.015625 1.8281174 6.859375q0 3.828125 -1.8281174 6.859375q-1.828125 3.015625 -5.046875 4.734375q-3.203125 1.703125 -7.28125 1.703125zm0 -6.15625q2.875 0 4.71875 -1.9375q1.84375 -1.9375 1.84375 -5.203125q0 -3.265625 -1.84375 -5.203125q-1.84375 -1.953125 -4.71875 -1.953125q-2.890625 0 -4.765625 1.953125q-1.859375 1.9375 -1.859375 5.203125q0 3.265625 1.859375 5.203125q1.875 1.9375 4.765625 1.9375zm59.98693 -20.0625l0 14.265625q0 5.703125 -3.125 8.828125q-3.109375 3.125 -8.875 3.125q-2.78125 0 -4.921875 -0.859375q-2.125 -0.875 -3.5625 -2.796875q-1.4375 1.921875 -3.5625 2.796875q-2.109375 0.859375 -4.984375 0.859375q-5.8125 0 -8.890625 -3.125q-3.0625 -3.125 -3.0625 -8.828125l0 -14.265625l7.484375 0l0 13.6875q0 3.21875 1.109375 4.734375q1.109375 1.5 3.453125 1.5q2.40625 0 3.546875 -1.53125q1.15625 -1.53125 1.15625 -4.703125l0 -13.6875l7.484375 0l0 13.6875q0 3.171875 1.15625 4.703125q1.15625 1.53125 3.546875 1.53125q2.359375 0 3.453125 -1.5q1.109375 -1.515625 1.109375 -4.734375l0 -13.6875l7.484375 0zm35.87088 24.578125q-1.109375 0.8125 -2.71875 1.234375q-1.609375 0.40625 -3.34375 0.40625q-4.65625 0 -7.15625 -2.34375q-2.484375 -2.359375 -2.484375 -6.921875l0 -22.65625l7.484375 0l0 6.28125l6.390625 0l0 5.765625l-6.390625 0l0 10.515625q0 1.625 0.8125 2.515625q0.828125 0.890625 2.359375 0.890625q1.734375 0 3.078125 -0.96875l1.96875 5.28125zm19.916672 -24.953125q4.796875 0 7.75 2.875q2.953125 2.875 2.953125 8.546875l0 14.78125l-7.484375 0l0 -13.625q0 -3.078125 -1.34375 -4.59375q-1.34375 -1.515625 -3.890625 -1.515625q-2.84375 0 -4.53125 1.765625q-1.671875 1.75 -1.671875 5.203125l0 12.765625l-7.484375 0l0 -35.609375l7.484375 0l0 12.46875q1.5 -1.484375 3.609375 -2.265625q2.109375 -0.796875 4.609375 -0.796875zm24.621185 3.78125q1.3437653 -1.859375 3.6250153 -2.8125q2.28125 -0.96875 5.25 -0.96875l0 6.90625q-1.25 -0.09375 -1.671875 -0.09375q-3.21875 0 -5.046875 1.796875q-1.8281403 1.796875 -1.8281403 5.40625l0 12.1875l-7.484375 0l0 -25.828125l7.15625 0l0 3.40625zm25.396683 22.8125q-4.09375 0 -7.328125 -1.703125q-3.234375 -1.71875 -5.0625 -4.734375q-1.828125 -3.03125 -1.828125 -6.859375q0 -3.84375 1.828125 -6.859375q1.828125 -3.03125 5.0625 -4.734375q3.234375 -1.703125 7.328125 -1.703125q4.078125 0 7.28125 1.703125q3.21875 1.703125 5.046875 4.734375q1.828125 3.015625 1.828125 6.859375q0 3.828125 -1.828125 6.859375q-1.828125 3.015625 -5.046875 4.734375q-3.203125 1.703125 -7.28125 1.703125zm0 -6.15625q2.875 0 4.71875 -1.9375q1.84375 -1.9375 1.84375 -5.203125q0 -3.265625 -1.84375 -5.203125q-1.84375 -1.953125 -4.71875 -1.953125q-2.890625 0 -4.765625 1.953125q-1.859375 1.9375 -1.859375 5.203125q0 3.265625 1.859375 5.203125q1.875 1.9375 4.765625 1.9375zm45.158813 -20.0625l0 25.828125l-7.09375 0l0 -3.078125q-1.5 1.6875 -3.5625 2.578125q-2.0625 0.890625 -4.453125 0.890625q-5.09375 0 -8.078125 -2.921875q-2.96875 -2.9375 -2.96875 -8.703125l0 -14.59375l7.484375 0l0 13.484375q0 6.25 5.234375 6.25q2.6875 0 4.3125 -1.75q1.640625 -1.75 1.640625 -5.21875l0 -12.765625l7.484375 0zm33.601074 0l0 21.515625q0 7.09375 -3.703125 10.546875q-3.6875 3.46875 -10.796875 3.46875q-3.734375 0 -7.09375 -0.921875q-3.359375 -0.90625 -5.578125 -2.640625l2.984375 -5.375q1.625 1.34375 4.125 2.140625q2.5 0.796875 5.0 0.796875q3.875 0 5.71875 -1.765625q1.859375 -1.75 1.859375 -5.296875l0 -1.109375q-2.921875 3.21875 -8.15625 3.21875q-3.5625 0 -6.515625 -1.5625q-2.953125 -1.5625 -4.6875 -4.390625q-1.71875 -2.828125 -1.71875 -6.53125q0 -3.6875 1.71875 -6.515625q1.734375 -2.84375 4.6875 -4.390625q2.953125 -1.5625 6.515625 -1.5625q5.609375 0 8.53125 3.6875l0 -3.3125l7.109375 0zm-14.15625 18.4375q2.96875 0 4.859375 -1.75q1.90625 -1.75 1.90625 -4.59375q0 -2.828125 -1.90625 -4.578125q-1.890625 -1.75 -4.859375 -1.75q-2.984375 0 -4.90625 1.75q-1.90625 1.75 -1.90625 4.578125q0 2.84375 1.90625 4.59375q1.921875 1.75 4.90625 1.75zm36.818817 -18.8125q4.796875 0 7.75 2.875q2.953125 2.875 2.953125 8.546875l0 14.78125l-7.484375 0l0 -13.625q0 -3.078125 -1.34375 -4.59375q-1.34375 -1.515625 -3.890625 -1.515625q-2.84375 0 -4.53125 1.765625q-1.671875 1.75 -1.671875 5.203125l0 12.765625l-7.484375 0l0 -35.609375l7.484375 0l0 12.46875q1.5 -1.484375 3.609375 -2.265625q2.109375 -0.796875 4.609375 -0.796875zm69.939606 -7.96875q5.9375 0 9.25 3.484375q3.3125 3.46875 3.3125 10.046875l0 20.640625l-7.765625 0l0 -20.40625q0 -3.546875 -1.859375 -5.34375q-1.84375 -1.796875 -4.859375 -1.796875q-3.3125 0 -5.28125 1.890625q-1.96875 1.890625 -1.96875 5.734375l0 19.921875l-7.78125 0l0 -20.40625q0 -3.546875 -1.734375 -5.34375q-1.71875 -1.796875 -4.703125 -1.796875q-3.25 0 -5.21875 1.890625q-1.96875 1.890625 -1.96875 5.734375l0 19.921875l-7.78125 0l0 -33.59375l7.53125 0l0 4.125q1.546875 -2.265625 4.078125 -3.484375q2.546875 -1.21875 5.859375 -1.21875q3.453125 0 6.046875 1.28125q2.59375 1.265625 3.984375 3.65625q1.734375 -2.390625 4.53125 -3.65625q2.8125 -1.28125 6.328125 -1.28125zm32.733124 28.5625q2.015625 0 3.5625 -0.59375q1.5625 -0.609375 2.90625 -1.90625l3.984375 4.3125q-3.640625 4.1875 -10.65625 4.1875q-4.359375 0 -7.71875 -1.703125q-3.359375 -1.71875 -5.1875 -4.734375q-1.828125 -3.03125 -1.828125 -6.859375q0 -3.796875 1.796875 -6.84375q1.8125 -3.046875 4.953125 -4.75q3.140625 -1.703125 7.078125 -1.703125q3.703125 0 6.71875 1.5625q3.03125 1.546875 4.828125 4.5q1.796875 2.953125 1.796875 6.984375l-19.109375 3.703125q0.828125 1.921875 2.578125 2.890625q1.75 0.953125 4.296875 0.953125zm-1.109375 -14.9375q-2.828125 0 -4.609375 1.828125q-1.78125 1.828125 -1.875 5.03125l12.578125 -2.4375q-0.53125 -2.015625 -2.171875 -3.21875q-1.625 -1.203125 -3.921875 -1.203125zm44.58493 -5.28125l0 25.828125l-7.140625 0l0 -2.96875q-2.78125 3.359375 -8.0625 3.359375q-3.65625 0 -6.609375 -1.625q-2.953125 -1.640625 -4.640625 -4.65625q-1.671875 -3.03125 -1.671875 -7.015625q0 -3.984375 1.671875 -7.0q1.6875 -3.03125 4.640625 -4.65625q2.953125 -1.640625 6.609375 -1.640625q4.9375 0 7.71875 3.109375l0 -2.734375l7.484375 0zm-13.90625 20.0625q2.828125 0 4.6875 -1.9375q1.875 -1.9375 1.875 -5.203125q0 -3.265625 -1.875 -5.203125q-1.859375 -1.953125 -4.6875 -1.953125q-2.890625 0 -4.765625 1.953125q-1.859375 1.9375 -1.859375 5.203125q0 3.265625 1.859375 5.203125q1.875 1.9375 4.765625 1.9375zm29.510681 6.15625q-3.21875 0 -6.296875 -0.796875q-3.0625 -0.796875 -4.890625 -2.0l2.5 -5.375q1.734375 1.109375 4.171875 1.8125q2.453125 0.6875 4.8125 0.6875q4.75 0 4.75 -2.34375q0 -1.109375 -1.296875 -1.59375q-1.296875 -0.484375 -3.984375 -0.8125q-3.171875 -0.484375 -5.234375 -1.109375q-2.0625 -0.625 -3.578125 -2.203125q-1.515625 -1.578125 -1.515625 -4.515625q0 -2.4375 1.421875 -4.328125q1.421875 -1.90625 4.125 -2.953125q2.71875 -1.0625 6.40625 -1.0625q2.734375 0 5.453125 0.59375q2.71875 0.59375 4.484375 1.65625l-2.5 5.328125q-3.40625 -1.921875 -7.4375 -1.921875q-2.390625 0 -3.59375 0.671875q-1.203125 0.671875 -1.203125 1.734375q0 1.203125 1.296875 1.6875q1.296875 0.46875 4.125 0.90625q3.171875 0.515625 5.1875 1.125q2.015625 0.59375 3.5 2.1875q1.5 1.578125 1.5 4.40625q0 2.40625 -1.453125 4.28125q-1.4375 1.859375 -4.203125 2.90625q-2.75 1.03125 -6.546875 1.03125zm42.816162 -26.21875l0 25.828125l-7.09375 0l0 -3.078125q-1.5 1.6875 -3.5625 2.578125q-2.0625 0.890625 -4.453125 0.890625q-5.09375 0 -8.078125 -2.921875q-2.96875 -2.9375 -2.96875 -8.703125l0 -14.59375l7.484375 0l0 13.484375q0 6.25 5.234375 6.25q2.6875 0 4.3125 -1.75q1.640625 -1.75 1.640625 -5.21875l0 -12.765625l7.484375 0zm14.116699 3.40625q1.34375 -1.859375 3.625 -2.8125q2.28125 -0.96875 5.25 -0.96875l0 6.90625q-1.25 -0.09375 -1.671875 -0.09375q-3.21875 0 -5.046875 1.796875q-1.828125 1.796875 -1.828125 5.40625l0 12.1875l-7.484375 0l0 -25.828125l7.15625 0l0 3.40625zm26.115417 16.8125q2.015625 0 3.5625 -0.59375q1.5625 -0.609375 2.90625 -1.90625l3.984375 4.3125q-3.640625 4.1875 -10.65625 4.1875q-4.359375 0 -7.71875 -1.703125q-3.359375 -1.71875 -5.1875 -4.734375q-1.828125 -3.03125 -1.828125 -6.859375q0 -3.796875 1.796875 -6.84375q1.8125 -3.046875 4.953125 -4.75q3.140625 -1.703125 7.078125 -1.703125q3.703125 0 6.71875 1.5625q3.03125 1.546875 4.828125 4.5q1.796875 2.953125 1.796875 6.984375l-19.109375 3.703125q0.828125 1.921875 2.578125 2.890625q1.75 0.953125 4.296875 0.953125zm-1.109375 -14.9375q-2.828125 0 -4.609375 1.828125q-1.78125 1.828125 -1.875 5.03125l12.578125 -2.4375q-0.53125 -2.015625 -2.171875 -3.21875q-1.625 -1.203125 -3.921875 -1.203125zm51.45996 -5.65625q4.84375 0 7.703125 2.859375q2.859375 2.84375 2.859375 8.5625l0 14.78125l-7.5 0l0 -13.625q0 -3.078125 -1.265625 -4.59375q-1.265625 -1.515625 -3.625 -1.515625q-2.640625 0 -4.1875 1.71875q-1.53125 1.703125 -1.53125 5.0625l0 12.953125l-7.484375 0l0 -13.625q0 -6.109375 -4.890625 -6.109375q-2.59375 0 -4.140625 1.71875q-1.53125 1.703125 -1.53125 5.0625l0 12.953125l-7.484375 0l0 -25.828125l7.15625 0l0 2.984375q1.4375 -1.640625 3.515625 -2.5q2.09375 -0.859375 4.59375 -0.859375q2.734375 0 4.9375 1.078125q2.21875 1.078125 3.5625 3.140625q1.578125 -2.015625 4.0 -3.109375q2.421875 -1.109375 5.3125 -1.109375zm30.577576 20.59375q2.015625 0 3.5625 -0.59375q1.5625 -0.609375 2.90625 -1.90625l3.984375 4.3125q-3.640625 4.1875 -10.65625 4.1875q-4.359375 0 -7.71875 -1.703125q-3.359375 -1.71875 -5.1875 -4.734375q-1.828125 -3.03125 -1.828125 -6.859375q0 -3.796875 1.796875 -6.84375q1.8125 -3.046875 4.953125 -4.75q3.140625 -1.703125 7.078125 -1.703125q3.703125 0 6.71875 1.5625q3.03125 1.546875 4.828125 4.5q1.796875 2.953125 1.796875 6.984375l-19.109375 3.703125q0.828125 1.921875 2.578125 2.890625q1.75 0.953125 4.296875 0.953125zm-1.109375 -14.9375q-2.828125 0 -4.609375 1.828125q-1.78125 1.828125 -1.875 5.03125l12.578125 -2.4375q-0.53125 -2.015625 -2.171875 -3.21875q-1.625 -1.203125 -3.921875 -1.203125zm34.0849 -5.65625q4.796875 0 7.75 2.875q2.953125 2.875 2.953125 8.546875l0 14.78125l-7.484375 0l0 -13.625q0 -3.078125 -1.34375 -4.59375q-1.34375 -1.515625 -3.890625 -1.515625q-2.84375 0 -4.53125 1.765625q-1.671875 1.75 -1.671875 5.203125l0 12.765625l-7.484375 0l0 -25.828125l7.15625 0l0 3.03125q1.484375 -1.640625 3.6875 -2.515625q2.21875 -0.890625 4.859375 -0.890625zm33.027466 24.953125q-1.109375 0.8125 -2.71875 1.234375q-1.609375 0.40625 -3.34375 0.40625q-4.65625 0 -7.15625 -2.34375q-2.484375 -2.359375 -2.484375 -6.921875l0 -22.65625l7.484375 0l0 6.28125l6.390625 0l0 5.765625l-6.390625 0l0 10.515625q0 1.625 0.8125 2.515625q0.828125 0.890625 2.359375 0.890625q1.734375 0 3.078125 -0.96875l1.96875 5.28125z" fill-rule="nonzero"/><path fill="#8afbe6" d="m657.87695 279.70514l0 -78.169235l60.871582 20.541672l74.400696 -43.36473l136.39996 -49.069138l0 111.26131l-127.381836 14.264648l-71.01752 38.229294z" fill-rule="evenodd"/><path fill="#eeeeee" d="m658.03674 396.44684l-0.16009521 -69.17322l60.8714 20.539368l74.40155 -43.362213l136.97113 -28.84842l-0.57214355 91.037415l-127.380615 14.263763l-71.01837 38.228363z" fill-rule="evenodd"/><defs><linearGradient id="g38aff997ae8_0_109.1" gradientUnits="userSpaceOnUse" gradientTransform="matrix(17.894313255048854 0.0 0.0 17.894313255048854 0.0 0.0)" spreadMethod="pad" x1="36.77948918222426" y1="31.70553835821336" x2="36.779686278521666" y2="13.81122510424996"><stop offset="0.0" stop-color="#8afbe6"/><stop offset="1.0" stop-color="#29caab"/></linearGradient></defs><path fill="url(#g38aff997ae8_0_109.1)" d="m32.16064 363.4593l-0.06279373 203.88269l626.0459 0l0 -320.1996l-66.86444 56.760025l-91.47806 29.301056l-75.05917 47.256134l-92.65027 -36.859924l-178.483 46.311523z" fill-rule="evenodd"/><defs><linearGradient id="g38aff997ae8_0_109.2" gradientUnits="userSpaceOnUse" gradientTransform="matrix(14.600417908293116 0.0 0.0 14.600417908293116 0.0 0.0)" spreadMethod="pad" x1="45.076781358888226" y1="39.08109447714411" x2="45.07694146378658" y2="24.480676569728832"><stop offset="0.0" stop-color="#efefef"/><stop offset="1.0" stop-color="#b7b7b7"/></linearGradient></defs><path fill="url(#g38aff997ae8_0_109.2)" d="m32.10234 404.09744l0 166.496l626.0375 0l0 -213.16531l-211.3375 101.53732l-58.483337 -10.090668l-103.67499 32.164l-81.07918 -25.226654l-77.09166 9.459991z" fill-rule="evenodd"/><path fill="#29caab" d="m32.09974 134.09465l0 0c0 -4.5198364 3.664051 -8.183891 8.1838875 -8.183891l197.11253 0c2.1705017 0 4.2521057 0.8622284 5.7868805 2.3970108c1.5347748 1.5347748 2.3970032 3.6163788 2.3970032 5.7868805l0 32.73459c0 4.5198364 -3.6640472 8.183884 -8.183884 8.183884l-197.11253 0c-4.5198364 0 -8.1838875 -3.6640472 -8.1838875 -8.183884z" fill-rule="evenodd"/><path fill="#ffffff" d="m64.300514 159.00194l0 -16.796875l3.890625 0l0 16.796875l-3.890625 0zm7.6219788 0l0 -12.90625l3.5625 0l0 3.5625l-0.671875 -1.078125q0.703125 -1.296875 2.0 -1.984375q1.296875 -0.703125 2.953125 -0.703125q1.53125 0 2.734375 0.625q1.21875 0.609375 1.90625 1.875q0.703125 1.25 0.703125 3.21875l0 7.390625l-3.734375 0l0 -6.8125q0 -1.5625 -0.6875 -2.296875q-0.6875 -0.75 -1.9375 -0.75q-0.875 0 -1.59375 0.375q-0.703125 0.359375 -1.109375 1.140625q-0.390625 0.765625 -0.390625 1.953125l0 6.390625l-3.734375 0zm22.914322 0.1875q-2.09375 0 -3.734375 -0.84375q-1.625 -0.859375 -2.546875 -2.359375q-0.921875 -1.515625 -0.921875 -3.4375q0 -1.953125 0.921875 -3.453125q0.921875 -1.5 2.546875 -2.34375q1.640625 -0.859375 3.734375 -0.859375q2.046875 0 3.546875 0.859375q1.515625 0.84375 2.234375 2.4375l-2.90625 1.5625q-0.5 -0.921875 -1.265625 -1.34375q-0.75 -0.4375 -1.640625 -0.4375q-0.953125 0 -1.71875 0.4375q-0.765625 0.421875 -1.21875 1.21875q-0.4375 0.796875 -0.4375 1.921875q0 1.125 0.4375 1.921875q0.453125 0.78125 1.21875 1.21875q0.765625 0.4375 1.71875 0.4375q0.890625 0 1.640625 -0.421875q0.765625 -0.421875 1.265625 -1.359375l2.90625 1.578125q-0.71875 1.5625 -2.234375 2.421875q-1.5 0.84375 -3.546875 0.84375zm7.949585 -0.1875l0 -12.90625l3.5625 0l0 3.640625l-0.5 -1.046875q0.578125 -1.375 1.84375 -2.078125q1.28125 -0.71875 3.109375 -0.71875l0 3.46875q-0.25 -0.03125 -0.4375 -0.046875q-0.1875 -0.015625 -0.40625 -0.015625q-1.53125 0 -2.484375 0.890625q-0.953125 0.875 -0.953125 2.71875l0 6.09375l-3.734375 0zm16.53421 0.1875q-2.21875 0 -3.890625 -0.859375q-1.65625 -0.859375 -2.578125 -2.359375q-0.90625 -1.5 -0.90625 -3.421875q0 -1.953125 0.890625 -3.453125q0.90625 -1.5 2.46875 -2.34375q1.5625 -0.859375 3.53125 -0.859375q1.890625 0 3.40625 0.8125q1.53125 0.796875 2.421875 2.296875q0.890625 1.5 0.890625 3.59375q0 0.21875 -0.03125 0.5q-0.015625 0.265625 -0.046875 0.5l-10.484375 0l0 -2.171875l8.53125 0l-1.453125 0.640625q0 -1.0 -0.40625 -1.75q-0.40625 -0.75 -1.125 -1.15625q-0.71875 -0.421875 -1.671875 -0.421875q-0.96875 0 -1.703125 0.421875q-0.734375 0.40625 -1.140625 1.171875q-0.40625 0.75 -0.40625 1.78125l0 0.578125q0 1.0625 0.46875 1.875q0.46875 0.796875 1.3125 1.21875q0.859375 0.40625 2.015625 0.40625q1.03125 0 1.8125 -0.3125q0.78125 -0.3125 1.421875 -0.9375l2.0 2.171875q-0.890625 1.0 -2.234375 1.546875q-1.34375 0.53125 -3.09375 0.53125zm8.737694 -0.1875l0 -12.90625l3.5625 0l0 3.515625l-0.671875 -1.03125q0.671875 -1.3125 1.90625 -2.0q1.25 -0.6875 2.828125 -0.6875q1.78125 0 3.109375 0.90625q1.328125 0.90625 1.765625 2.75l-1.328125 -0.359375q0.65625 -1.515625 2.078125 -2.40625q1.4375 -0.890625 3.28125 -0.890625q1.53125 0 2.71875 0.625q1.1875 0.609375 1.875 1.875q0.6875 1.25 0.6875 3.21875l0 7.390625l-3.75 0l0 -6.8125q0 -1.5625 -0.65625 -2.296875q-0.640625 -0.75 -1.8125 -0.75q-0.8125 0 -1.46875 0.375q-0.640625 0.359375 -1.0 1.109375q-0.359375 0.75 -0.359375 1.890625l0 6.484375l-3.75 0l0 -6.8125q0 -1.5625 -0.640625 -2.296875q-0.625 -0.75 -1.8125 -0.75q-0.8125 0 -1.46875 0.375q-0.640625 0.359375 -1.0 1.109375q-0.359375 0.75 -0.359375 1.890625l0 6.484375l-3.734375 0zm31.678162 0.1875q-2.21875 0 -3.890625 -0.859375q-1.65625 -0.859375 -2.578125 -2.359375q-0.90625 -1.5 -0.90625 -3.421875q0 -1.953125 0.890625 -3.453125q0.90625 -1.5 2.46875 -2.34375q1.5625 -0.859375 3.53125 -0.859375q1.890625 0 3.40625 0.8125q1.53125 0.796875 2.421875 2.296875q0.890625 1.5 0.890625 3.59375q0 0.21875 -0.03125 0.5q-0.015625 0.265625 -0.046875 0.5l-10.484375 0l0 -2.171875l8.53125 0l-1.453125 0.640625q0 -1.0 -0.40625 -1.75q-0.40625 -0.75 -1.125 -1.15625q-0.71875 -0.421875 -1.671875 -0.421875q-0.96875 0 -1.703125 0.421875q-0.734375 0.40625 -1.140625 1.171875q-0.40625 0.75 -0.40625 1.78125l0 0.578125q0 1.0625 0.46875 1.875q0.46875 0.796875 1.3125 1.21875q0.859375 0.40625 2.015625 0.40625q1.03125 0 1.8125 -0.3125q0.78125 -0.3125 1.421875 -0.9375l2.0 2.171875q-0.890625 1.0 -2.234375 1.546875q-1.34375 0.53125 -3.09375 0.53125zm8.737701 -0.1875l0 -12.90625l3.5625 0l0 3.5625l-0.671875 -1.078125q0.703125 -1.296875 2.0 -1.984375q1.296875 -0.703125 2.953125 -0.703125q1.53125 0 2.734375 0.625q1.21875 0.609375 1.90625 1.875q0.703125 1.25 0.703125 3.21875l0 7.390625l-3.734375 0l0 -6.8125q0 -1.5625 -0.6875 -2.296875q-0.6875 -0.75 -1.9375 -0.75q-0.875 0 -1.59375 0.375q-0.703125 0.359375 -1.109375 1.140625q-0.390625 0.765625 -0.390625 1.953125l0 6.390625l-3.734375 0zm21.865204 0.1875q-2.28125 0 -3.5625 -1.15625q-1.265625 -1.171875 -1.265625 -3.46875l0 -11.328125l3.734375 0l0 11.28125q0 0.8125 0.4375 1.265625q0.4375 0.4375 1.171875 0.4375q0.890625 0 1.515625 -0.484375l1.015625 2.640625q-0.578125 0.40625 -1.390625 0.609375q-0.796875 0.203125 -1.65625 0.203125zm-6.828125 -10.21875l0 -2.875l8.953125 0l0 2.875l-8.953125 0zm19.46109 10.03125l0 -2.515625l-0.234375 -0.5625l0 -4.5q0 -1.203125 -0.734375 -1.875q-0.734375 -0.671875 -2.234375 -0.671875q-1.03125 0 -2.03125 0.328125q-1.0 0.3125 -1.6875 0.875l-1.34375 -2.625q1.046875 -0.734375 2.53125 -1.140625q1.5 -0.421875 3.03125 -0.421875q2.953125 0 4.578125 1.40625q1.640625 1.390625 1.640625 4.328125l0 7.375l-3.515625 0zm-3.921875 0.1875q-1.515625 0 -2.59375 -0.515625q-1.078125 -0.515625 -1.65625 -1.390625q-0.578125 -0.890625 -0.578125 -2.0q0 -1.15625 0.5625 -2.015625q0.5625 -0.859375 1.78125 -1.34375q1.234375 -0.5 3.203125 -0.5l3.421875 0l0 2.171875l-3.015625 0q-1.328125 0 -1.828125 0.4375q-0.484375 0.4375 -0.484375 1.078125q0 0.71875 0.5625 1.140625q0.5625 0.421875 1.546875 0.421875q0.9375 0 1.6875 -0.4375q0.75 -0.453125 1.078125 -1.3125l0.578125 1.71875q-0.40625 1.25 -1.484375 1.90625q-1.078125 0.640625 -2.78125 0.640625zm10.823578 -0.1875l0 -17.8125l3.734375 0l0 17.8125l-3.734375 0z" fill-rule="nonzero"/><path fill="#666666" d="m32.09974 193.34126l0 0c0 -4.5198364 3.664051 -8.183884 8.1838875 -8.183884l197.11253 0c2.1705017 0 4.2521057 0.8622284 5.7868805 2.3970032c1.5347748 1.5347748 2.3970032 3.6163788 2.3970032 5.7868805l0 32.73459c0 4.5198364 -3.6640472 8.183884 -8.183884 8.183884l-197.11253 0c-4.5198364 0 -8.1838875 -3.6640472 -8.1838875 -8.183884z" fill-rule="evenodd"/><path fill="#ffffff" d="m87.16044 218.24857l0 -16.796875l8.21875 0q3.171875 0 4.765625 1.203125q1.59375 1.1875 1.59375 3.15625q0 1.328125 -0.65625 2.296875q-0.640625 0.96875 -1.765625 1.5q-1.125 0.53125 -2.59375 0.53125l0.453125 -0.984375q1.578125 0 2.796875 0.515625q1.234375 0.515625 1.921875 1.53125q0.6875 1.0 0.6875 2.46875q0 2.15625 -1.71875 3.375q-1.703125 1.203125 -5.0 1.203125l-8.703125 0zm3.875 -2.921875l4.53125 0q1.515625 0 2.296875 -0.484375q0.78125 -0.5 0.78125 -1.578125q0 -1.0625 -0.78125 -1.578125q-0.78125 -0.515625 -2.296875 -0.515625l-4.828125 0l0 -2.828125l4.15625 0q1.421875 0 2.171875 -0.484375q0.75 -0.5 0.75 -1.515625q0 -0.984375 -0.75 -1.46875q-0.75 -0.5 -2.171875 -0.5l-3.859375 0l0 10.953125zm22.14119 2.921875l0 -2.515625l-0.234375 -0.5625l0 -4.5q0 -1.203125 -0.734375 -1.875q-0.734375 -0.671875 -2.234375 -0.671875q-1.03125 0 -2.03125 0.328125q-1.0 0.3125 -1.6875 0.875l-1.34375 -2.625q1.046875 -0.734375 2.53125 -1.140625q1.5 -0.421875 3.03125 -0.421875q2.953125 0 4.578125 1.40625q1.640625 1.390625 1.640625 4.328125l0 7.375l-3.515625 0zm-3.921875 0.1875q-1.515625 0 -2.59375 -0.515625q-1.078125 -0.515625 -1.65625 -1.390625q-0.578125 -0.890625 -0.578125 -2.0q0 -1.15625 0.5625 -2.015625q0.5625 -0.859375 1.78125 -1.34375q1.234375 -0.5 3.203125 -0.5l3.421875 0l0 2.171875l-3.015625 0q-1.328125 0 -1.828125 0.4375q-0.484375 0.4375 -0.484375 1.078125q0 0.71875 0.5625 1.140625q0.5625 0.421875 1.546875 0.421875q0.9375 0 1.6875 -0.4375q0.75 -0.453125 1.078125 -1.3125l0.578125 1.71875q-0.40625 1.25 -1.484375 1.90625q-1.078125 0.640625 -2.78125 0.640625zm15.167328 0q-1.65625 0 -3.1875 -0.390625q-1.515625 -0.390625 -2.40625 -1.0l1.25 -2.6875q0.875 0.546875 2.09375 0.90625q1.21875 0.34375 2.390625 0.34375q1.296875 0 1.828125 -0.3125q0.546875 -0.3125 0.546875 -0.859375q0 -0.453125 -0.421875 -0.6875q-0.421875 -0.234375 -1.125 -0.34375q-0.6875 -0.125 -1.515625 -0.234375q-0.828125 -0.125 -1.671875 -0.328125q-0.828125 -0.203125 -1.53125 -0.609375q-0.703125 -0.421875 -1.125 -1.109375q-0.40625 -0.703125 -0.40625 -1.796875q0 -1.234375 0.703125 -2.171875q0.703125 -0.9375 2.046875 -1.46875q1.34375 -0.546875 3.21875 -0.546875q1.328125 0 2.6875 0.296875q1.3749924 0.28125 2.2812424 0.84375l-1.25 2.65625q-0.9374924 -0.546875 -1.8906174 -0.75q-0.9375 -0.203125 -1.828125 -0.203125q-1.25 0 -1.828125 0.34375q-0.5625 0.328125 -0.5625 0.84375q0 0.484375 0.40625 0.734375q0.421875 0.234375 1.109375 0.375q0.703125 0.140625 1.53125 0.25q0.828125 0.109375 1.671875 0.328125q0.8437424 0.21875 1.5156174 0.609375q0.6875 0.390625 1.125 1.078125q0.4375 0.6875 0.4375 1.796875q0 1.1875 -0.71875 2.125q-0.71875 0.921875 -2.0781174 1.453125q-1.359375 0.515625 -3.296875 0.515625zm14.80645 0q-2.21875 0 -3.890625 -0.859375q-1.65625 -0.859375 -2.578125 -2.359375q-0.90625 -1.5 -0.90625 -3.421875q0 -1.953125 0.890625 -3.453125q0.90625 -1.5 2.46875 -2.34375q1.5625 -0.859375 3.53125 -0.859375q1.890625 0 3.40625 0.8125q1.53125 0.796875 2.421875 2.296875q0.890625 1.5 0.890625 3.59375q0 0.21875 -0.03125 0.5q-0.015625 0.265625 -0.046875 0.5l-10.484375 0l0 -2.171875l8.53125 0l-1.453125 0.640625q0 -1.0 -0.40625 -1.75q-0.40625 -0.75 -1.125 -1.15625q-0.71875 -0.421875 -1.671875 -0.421875q-0.96875 0 -1.703125 0.421875q-0.734375 0.40625 -1.140625 1.171875q-0.40625 0.75 -0.40625 1.78125l0 0.578125q0 1.0625 0.46875 1.875q0.46875 0.796875 1.3125 1.21875q0.859375 0.40625 2.015625 0.40625q1.03125 0 1.8125 -0.3125q0.78125 -0.3125 1.421875 -0.9375l2.0 2.171875q-0.890625 1.0 -2.234375 1.546875q-1.34375 0.53125 -3.09375 0.53125zm8.737701 -0.1875l0 -17.8125l3.734375 0l0 17.8125l-3.734375 0zm7.223984 0l0 -12.90625l3.734375 0l0 12.90625l-3.734375 0zm1.875 -14.71875q-1.03125 0 -1.6875 -0.59375q-0.640625 -0.59375 -0.640625 -1.484375q0 -0.890625 0.640625 -1.484375q0.65625 -0.609375 1.6875 -0.609375q1.03125 0 1.671875 0.5625q0.65625 0.5625 0.65625 1.453125q0 0.9375 -0.640625 1.546875q-0.640625 0.609375 -1.6875 0.609375zm5.348984 14.71875l0 -12.90625l3.5625 0l0 3.5625l-0.671875 -1.078125q0.703125 -1.296875 2.0 -1.984375q1.296875 -0.703125 2.953125 -0.703125q1.53125 0 2.734375 0.625q1.21875 0.609375 1.90625 1.875q0.703125 1.25 0.703125 3.21875l0 7.390625l-3.734375 0l0 -6.8125q0 -1.5625 -0.6875 -2.296875q-0.6875 -0.75 -1.9375 -0.75q-0.875 0 -1.59375 0.375q-0.703125 0.359375 -1.109375 1.140625q-0.390625 0.765625 -0.390625 1.953125l0 6.390625l-3.734375 0zm23.086212 0.1875q-2.21875 0 -3.890625 -0.859375q-1.65625 -0.859375 -2.578125 -2.359375q-0.90625 -1.5 -0.90625 -3.421875q0 -1.953125 0.890625 -3.453125q0.90625 -1.5 2.46875 -2.34375q1.5625 -0.859375 3.53125 -0.859375q1.890625 0 3.40625 0.8125q1.53125 0.796875 2.421875 2.296875q0.890625 1.5 0.890625 3.59375q0 0.21875 -0.03125 0.5q-0.015625 0.265625 -0.046875 0.5l-10.484375 0l0 -2.171875l8.53125 0l-1.453125 0.640625q0 -1.0 -0.40625 -1.75q-0.40625 -0.75 -1.125 -1.15625q-0.71875 -0.421875 -1.671875 -0.421875q-0.96875 0 -1.703125 0.421875q-0.734375 0.40625 -1.140625 1.171875q-0.40625 0.75 -0.40625 1.78125l0 0.578125q0 1.0625 0.46875 1.875q0.46875 0.796875 1.3125 1.21875q0.859375 0.40625 2.015625 0.40625q1.03125 0 1.8125 -0.3125q0.78125 -0.3125 1.421875 -0.9375l2.0 2.171875q-0.890625 1.0 -2.234375 1.546875q-1.34375 0.53125 -3.09375 0.53125z" fill-rule="nonzero"/><path fill="#f3f3f3" d="m454.96024 131.05527l199.811 0l0 79.40158l-199.811 0z" fill-rule="evenodd"/><path fill="#595959" d="m497.69806 164.99606l0 -16.796875l6.296875 0q2.125 0 3.65625 0.6875q1.546875 0.671875 2.375 1.96875q0.828125 1.28125 0.828125 3.09375q0 1.78125 -0.828125 3.0625q-0.828125 1.28125 -2.375 1.984375q-1.53125 0.703125 -3.65625 0.703125l-5.3125 0l0.796875 -0.84375l0 6.140625l-1.78125 0zm1.78125 -6.0l-0.796875 -0.859375l5.25 0q2.53125 0 3.828125 -1.09375q1.3125 -1.09375 1.3125 -3.09375q0 -2.015625 -1.3125 -3.109375q-1.296875 -1.109375 -3.828125 -1.109375l-5.25 0l0.796875 -0.84375l0 10.109375zm14.539307 6.0l0 -12.59375l1.640625 0l0 3.421875l-0.171875 -0.59375q0.53125 -1.4375 1.765625 -2.1875q1.25 -0.765625 3.109375 -0.765625l0 1.65625q-0.109375 0 -0.203125 -0.015625q-0.09375 -0.015625 -0.1875 -0.015625q-1.984375 0 -3.125 1.21875q-1.125 1.21875 -1.125 3.4375l0 6.4375l-1.703125 0zm14.671387 0.125q-1.96875 0 -3.46875 -0.828125q-1.484375 -0.828125 -2.328125 -2.28125q-0.828125 -1.453125 -0.828125 -3.328125q0 -1.875 0.796875 -3.3125q0.8125 -1.4375 2.203125 -2.265625q1.40625 -0.828125 3.15625 -0.828125q1.78125 0 3.15625 0.8125q1.390625 0.796875 2.171875 2.25q0.796875 1.453125 0.796875 3.34375q0 0.125 -0.015625 0.265625q0 0.125 0 0.265625l-10.96875 0l0 -1.28125l10.046875 0l-0.671875 0.515625q0 -1.375 -0.59375 -2.4375q-0.578125 -1.078125 -1.59375 -1.671875q-1.0 -0.59375 -2.328125 -0.59375q-1.296875 0 -2.328125 0.59375q-1.03125 0.59375 -1.609375 1.6875q-0.5625 1.078125 -0.5625 2.46875l0 0.265625q0 1.4375 0.625 2.53125q0.640625 1.09375 1.78125 1.703125q1.140625 0.609375 2.609375 0.609375q1.140625 0 2.140625 -0.40625q1.0 -0.40625 1.71875 -1.25l0.953125 1.109375q-0.828125 1.0 -2.09375 1.53125q-1.265625 0.53125 -2.765625 0.53125zm15.636597 0q-1.625 0 -2.953125 -0.75q-1.3125 -0.765625 -2.09375 -2.1875q-0.78125 -1.4375 -0.78125 -3.5q0 -2.0625 0.765625 -3.484375q0.765625 -1.4375 2.078125 -2.171875q1.328125 -0.75 2.984375 -0.75q1.8125 0 3.234375 0.8125q1.421875 0.796875 2.234375 2.25q0.828125 1.453125 0.828125 3.34375q0 1.921875 -0.828125 3.359375q-0.8125 1.4375 -2.234375 2.265625q-1.421875 0.8125 -3.234375 0.8125zm-6.5 4.53125l0 -17.25l1.640625 0l0 3.78125l-0.171875 2.53125l0.234375 2.53125l0 8.40625l-1.703125 0zm6.390625 -6.046875q1.34375 0 2.390625 -0.609375q1.0625 -0.609375 1.6875 -1.71875q0.625 -1.125 0.625 -2.59375q0 -1.46875 -0.625 -2.5625q-0.625 -1.109375 -1.6875 -1.734375q-1.046875 -0.625 -2.390625 -0.625q-1.34375 0 -2.421875 0.625q-1.0625 0.625 -1.671875 1.734375q-0.609375 1.09375 -0.609375 2.5625q0 1.46875 0.609375 2.59375q0.609375 1.109375 1.671875 1.71875q1.078125 0.609375 2.421875 0.609375zm17.699951 1.390625l0 -2.78125l-0.0625 -0.453125l0 -4.65625q0 -1.609375 -0.90625 -2.46875q-0.890625 -0.875 -2.671875 -0.875q-1.21875 0 -2.328125 0.40625q-1.109375 0.40625 -1.875 1.078125l-0.765625 -1.265625q0.953125 -0.8125 2.296875 -1.25q1.34375 -0.453125 2.84375 -0.453125q2.4375 0 3.765625 1.21875q1.34375 1.203125 1.34375 3.671875l0 7.828125l-1.640625 0zm-4.34375 0.125q-1.40625 0 -2.453125 -0.46875q-1.046875 -0.46875 -1.609375 -1.296875q-0.546875 -0.828125 -0.546875 -1.90625q0 -0.984375 0.46875 -1.78125q0.46875 -0.8125 1.53125 -1.296875q1.078125 -0.5 2.875 -0.5l4.34375 0l0 1.265625l-4.296875 0q-1.8125 0 -2.53125 0.65625q-0.703125 0.640625 -0.703125 1.609375q0 1.078125 0.84375 1.734375q0.84375 0.640625 2.34375 0.640625q1.4375 0 2.484375 -0.65625q1.046875 -0.671875 1.53125 -1.921875l0.375 1.1875q-0.46875 1.234375 -1.65625 1.984375q-1.1875 0.75 -3.0 0.75zm10.613037 -0.125l0 -12.59375l1.640625 0l0 3.421875l-0.171875 -0.59375q0.53125 -1.4375 1.765625 -2.1875q1.25 -0.765625 3.109375 -0.765625l0 1.65625q-0.109375 0 -0.203125 -0.015625q-0.09375 -0.015625 -0.1875 -0.015625q-1.984375 0 -3.125 1.21875q-1.125 1.21875 -1.125 3.4375l0 6.4375l-1.703125 0zm14.671387 0.125q-1.96875 0 -3.46875 -0.828125q-1.484375 -0.828125 -2.328125 -2.28125q-0.828125 -1.453125 -0.828125 -3.328125q0 -1.875 0.796875 -3.3125q0.8125 -1.4375 2.203125 -2.265625q1.40625 -0.828125 3.15625 -0.828125q1.78125 0 3.15625 0.8125q1.390625 0.796875 2.171875 2.25q0.796875 1.453125 0.796875 3.34375q0 0.125 -0.015625 0.265625q0 0.125 0 0.265625l-10.96875 0l0 -1.28125l10.046875 0l-0.671875 0.515625q0 -1.375 -0.59375 -2.4375q-0.578125 -1.078125 -1.59375 -1.671875q-1.0 -0.59375 -2.328125 -0.59375q-1.296875 0 -2.328125 0.59375q-1.03125 0.59375 -1.609375 1.6875q-0.5625 1.078125 -0.5625 2.46875l0 0.265625q0 1.4375 0.625 2.53125q0.640625 1.09375 1.78125 1.703125q1.140625 0.609375 2.609375 0.609375q1.140625 0 2.140625 -0.40625q1.0 -0.40625 1.71875 -1.25l0.953125 1.109375q-0.828125 1.0 -2.09375 1.53125q-1.265625 0.53125 -2.765625 0.53125zm14.152222 0q-1.796875 0 -3.234375 -0.8125q-1.421875 -0.828125 -2.234375 -2.28125q-0.8125 -1.453125 -0.8125 -3.34375q0 -1.921875 0.8125 -3.359375q0.8125 -1.4375 2.234375 -2.234375q1.4375 -0.8125 3.234375 -0.8125q1.65625 0 2.953125 0.75q1.3125 0.734375 2.09375 2.171875q0.78125 1.421875 0.78125 3.484375q0 2.046875 -0.765625 3.484375q-0.765625 1.4375 -2.078125 2.203125q-1.296875 0.75 -2.984375 0.75zm0.125 -1.515625q1.34375 0 2.40625 -0.609375q1.0625 -0.609375 1.671875 -1.71875q0.625 -1.125 0.625 -2.59375q0 -1.484375 -0.625 -2.59375q-0.609375 -1.109375 -1.671875 -1.71875q-1.0625 -0.609375 -2.40625 -0.609375q-1.328125 0 -2.390625 0.609375q-1.046875 0.609375 -1.671875 1.71875q-0.625 1.109375 -0.625 2.59375q0 1.46875 0.625 2.59375q0.625 1.109375 1.671875 1.71875q1.0625 0.609375 2.390625 0.609375zm4.75 1.390625l0 -3.796875l0.171875 -2.546875l-0.25 -2.53125l0 -8.9375l1.703125 0l0 17.8125l-1.625 0zm12.950562 0l0 -14.1875q0 -1.671875 0.984375 -2.703125q0.984375 -1.03125 2.84375 -1.03125q0.71875 0 1.390625 0.1875q0.671875 0.1875 1.125 0.59375l-0.578125 1.28125q-0.359375 -0.3125 -0.84375 -0.46875q-0.46875 -0.15625 -1.03125 -0.15625q-1.078125 0 -1.65625 0.609375q-0.578125 0.59375 -0.578125 1.765625l0 1.921875l0.0625 0.78125l0 11.40625l-1.71875 0zm-2.25 -11.1875l0 -1.40625l7.796875 0l0 1.40625l-7.796875 0zm15.029297 11.3125q-1.828125 0 -3.28125 -0.828125q-1.453125 -0.828125 -2.296875 -2.28125q-0.828125 -1.453125 -0.828125 -3.328125q0 -1.890625 0.828125 -3.328125q0.84375 -1.453125 2.28125 -2.265625q1.4375 -0.8125 3.296875 -0.8125q1.875 0 3.3125 0.8125q1.453125 0.8125 2.28125 2.265625q0.828125 1.4375 0.828125 3.328125q0 1.875 -0.828125 3.328125q-0.828125 1.453125 -2.296875 2.28125q-1.453125 0.828125 -3.296875 0.828125zm0 -1.515625q1.359375 0 2.40625 -0.609375q1.0625 -0.609375 1.671875 -1.71875q0.625 -1.125 0.625 -2.59375q0 -1.484375 -0.625 -2.59375q-0.609375 -1.109375 -1.671875 -1.71875q-1.046875 -0.609375 -2.390625 -0.609375q-1.34375 0 -2.40625 0.609375q-1.046875 0.609375 -1.671875 1.71875q-0.625 1.109375 -0.625 2.59375q0 1.46875 0.625 2.59375q0.625 1.109375 1.671875 1.71875q1.0625 0.609375 2.390625 0.609375zm9.907349 1.390625l0 -12.59375l1.640625 0l0 3.421875l-0.171875 -0.59375q0.53125 -1.4375 1.765625 -2.1875q1.25 -0.765625 3.109375 -0.765625l0 1.65625q-0.109375 0 -0.203125 -0.015625q-0.09375 -0.015625 -0.1875 -0.015625q-1.984375 0 -3.125 1.21875q-1.125 1.21875 -1.125 3.4375l0 6.4375l-1.703125 0z" fill-rule="nonzero"/><path fill="#595959" d="m481.50613 193.92107q-1.96875 0 -3.46875 -0.828125q-1.484375 -0.828125 -2.328125 -2.28125q-0.828125 -1.453125 -0.828125 -3.328125q0 -1.875 0.796875 -3.3125q0.8125 -1.4375 2.203125 -2.265625q1.40625 -0.828125 3.15625 -0.828125q1.78125 0 3.15625 0.8125q1.390625 0.796875 2.171875 2.25q0.796875 1.453125 0.796875 3.34375q0 0.125 -0.015625 0.265625q0 0.125 0 0.265625l-10.96875 0l0 -1.28125l10.046875 0l-0.671875 0.515625q0 -1.375 -0.59375 -2.4375q-0.578125 -1.078125 -1.59375 -1.671875q-1.0 -0.59375 -2.328125 -0.59375q-1.296875 0 -2.328125 0.59375q-1.03125 0.59375 -1.609375 1.6875q-0.5625 1.078125 -0.5625 2.46875l0 0.265625q0 1.4375 0.625 2.53125q0.640625 1.09375 1.78125 1.703125q1.140625 0.609375 2.609375 0.609375q1.140625 0 2.140625 -0.40625q1.0 -0.40625 1.71875 -1.25l0.953125 1.109375q-0.828125 1.0 -2.09375 1.53125q-1.265625 0.53125 -2.765625 0.53125zm12.130951 -0.125l-5.578125 -12.59375l1.765625 0l5.140625 11.6875l-0.84375 0l5.203125 -11.6875l1.6875 0l-5.609375 12.59375l-1.765625 0zm14.77298 0.125q-1.96875 0 -3.46875 -0.828125q-1.484375 -0.828125 -2.328125 -2.28125q-0.828125 -1.453125 -0.828125 -3.328125q0 -1.875 0.796875 -3.3125q0.8125 -1.4375 2.203125 -2.265625q1.40625 -0.828125 3.15625 -0.828125q1.78125 0 3.15625 0.8125q1.3905945 0.796875 2.1718445 2.25q0.796875 1.453125 0.796875 3.34375q0 0.125 -0.015625 0.265625q0 0.125 0 0.265625l-10.9687195 0l0 -1.28125l10.0468445 0l-0.671875 0.515625q0 -1.375 -0.5937195 -2.4375q-0.578125 -1.078125 -1.59375 -1.671875q-1.0 -0.59375 -2.328125 -0.59375q-1.296875 0 -2.328125 0.59375q-1.03125 0.59375 -1.609375 1.6875q-0.5625 1.078125 -0.5625 2.46875l0 0.265625q0 1.4375 0.625 2.53125q0.640625 1.09375 1.78125 1.703125q1.140625 0.609375 2.609375 0.609375q1.140625 0 2.140625 -0.40625q1.0 -0.40625 1.7187195 -1.25l0.953125 1.109375q-0.828125 1.0 -2.0937195 1.53125q-1.265625 0.53125 -2.765625 0.53125zm9.136566 -0.125l0 -12.59375l1.640625 0l0 3.421875l-0.171875 -0.59375q0.53125 -1.4375 1.765625 -2.1875q1.25 -0.765625 3.109375 -0.765625l0 1.65625q-0.109375 0 -0.203125 -0.015625q-0.09375 -0.015625 -0.1875 -0.015625q-1.984375 0 -3.125 1.21875q-1.125 1.21875 -1.125 3.4375l0 6.4375l-1.703125 0zm9.57373 4.78125q-0.890625 0 -1.703125 -0.296875q-0.796875 -0.28125 -1.359375 -0.859375l0.78125 -1.265625q0.484375 0.453125 1.046875 0.703125q0.5625 0.25 1.265625 0.25q0.84375 0 1.453125 -0.46875q0.609375 -0.46875 1.15625 -1.640625l0.8125 -1.84375l0.203125 -0.265625l5.171875 -11.6875l1.6875 0l-6.3125 14.109375q-0.53125 1.21875 -1.171875 1.9375q-0.625 0.71875 -1.375 1.015625q-0.734375 0.3125 -1.65625 0.3125zm3.359375 -4.421875l-5.796875 -12.953125l1.765625 0l5.140625 11.5625l-1.109375 1.390625zm19.23346 -0.234375q-1.5625 0 -2.953125 -0.4375q-1.390625 -0.453125 -2.1875 -1.125l0.765625 -1.34375q0.765625 0.578125 1.96875 1.0q1.203125 0.40625 2.515625 0.40625q1.8125 0 2.59375 -0.5625q0.796875 -0.5625 0.796875 -1.5q0 -0.6875 -0.453125 -1.078125q-0.4375 -0.40625 -1.15625 -0.609375q-0.71875 -0.203125 -1.609375 -0.34375q-0.890625 -0.140625 -1.765625 -0.328125q-0.875 -0.203125 -1.59375 -0.578125q-0.71875 -0.375 -1.171875 -1.015625q-0.4375 -0.65625 -0.4375 -1.734375q0 -1.03125 0.578125 -1.84375q0.578125 -0.8125 1.6875 -1.28125q1.125 -0.46875 2.734375 -0.46875q1.21875 0 2.4375 0.328125q1.234375 0.3125 2.015625 0.84375l-0.734375 1.375q-0.84375 -0.578125 -1.8125 -0.828125q-0.953125 -0.25 -1.90625 -0.25q-1.703125 0 -2.515625 0.59375q-0.796875 0.578125 -0.796875 1.484375q0 0.71875 0.4375 1.140625q0.4375 0.40625 1.171875 0.640625q0.734375 0.21875 1.609375 0.359375q0.875 0.140625 1.75 0.34375q0.875 0.203125 1.609375 0.5625q0.734375 0.34375 1.171875 0.984375q0.453125 0.625 0.453125 1.65625q0 1.109375 -0.609375 1.921875q-0.609375 0.796875 -1.78125 1.25q-1.15625 0.4375 -2.8125 0.4375zm13.555725 0q-1.875 0 -3.359375 -0.828125q-1.46875 -0.828125 -2.3125 -2.28125q-0.828125 -1.453125 -0.828125 -3.328125q0 -1.890625 0.828125 -3.328125q0.84375 -1.453125 2.3125 -2.265625q1.484375 -0.8125 3.359375 -0.8125q1.609375 0 2.90625 0.625q1.296875 0.625 2.03125 1.875l-1.265625 0.859375q-0.65625 -0.953125 -1.609375 -1.40625q-0.953125 -0.46875 -2.09375 -0.46875q-1.34375 0 -2.421875 0.609375q-1.078125 0.609375 -1.703125 1.71875q-0.625 1.109375 -0.625 2.59375q0 1.484375 0.625 2.59375q0.625 1.109375 1.703125 1.71875q1.078125 0.609375 2.421875 0.609375q1.140625 0 2.09375 -0.453125q0.953125 -0.453125 1.609375 -1.390625l1.265625 0.859375q-0.734375 1.21875 -2.03125 1.859375q-1.296875 0.640625 -2.90625 0.640625zm13.420959 0q-1.96875 0 -3.46875 -0.828125q-1.484375 -0.828125 -2.328125 -2.28125q-0.828125 -1.453125 -0.828125 -3.328125q0 -1.875 0.796875 -3.3125q0.8125 -1.4375 2.203125 -2.265625q1.40625 -0.828125 3.15625 -0.828125q1.78125 0 3.15625 0.8125q1.390625 0.796875 2.171875 2.25q0.796875 1.453125 0.796875 3.34375q0 0.125 -0.015625 0.265625q0 0.125 0 0.265625l-10.96875 0l0 -1.28125l10.046875 0l-0.671875 0.515625q0 -1.375 -0.59375 -2.4375q-0.578125 -1.078125 -1.59375 -1.671875q-1.0 -0.59375 -2.328125 -0.59375q-1.296875 0 -2.328125 0.59375q-1.03125 0.59375 -1.609375 1.6875q-0.5625 1.078125 -0.5625 2.46875l0 0.265625q0 1.4375 0.625 2.53125q0.640625 1.09375 1.78125 1.703125q1.140625 0.609375 2.609375 0.609375q1.140625 0 2.140625 -0.40625q1.0 -0.40625 1.71875 -1.25l0.953125 1.109375q-0.828125 1.0 -2.09375 1.53125q-1.265625 0.53125 -2.765625 0.53125zm9.136536 -0.125l0 -12.59375l1.640625 0l0 3.453125l-0.265625 -0.65625q0.59375 -1.359375 1.90625 -2.140625q1.328125 -0.78125 3.15625 -0.78125q1.53125 0 2.6875 0.59375q1.171875 0.578125 1.828125 1.78125q0.65625 1.203125 0.65625 3.03125l0 7.3125l-1.703125 0l0 -7.15625q0 -1.984375 -1.0 -3.0q-0.984375 -1.03125 -2.78125 -1.03125q-1.34375 0 -2.34375 0.546875q-1.0 0.53125 -1.546875 1.5625q-0.53125 1.015625 -0.53125 2.453125l0 6.625l-1.703125 0zm24.114624 0l0 -2.78125l-0.0625 -0.453125l0 -4.65625q0 -1.609375 -0.90625 -2.46875q-0.890625 -0.875 -2.671875 -0.875q-1.21875 0 -2.328125 0.40625q-1.109375 0.40625 -1.875 1.078125l-0.765625 -1.265625q0.953125 -0.8125 2.296875 -1.25q1.34375 -0.453125 2.84375 -0.453125q2.4375 0 3.765625 1.21875q1.34375 1.203125 1.34375 3.671875l0 7.828125l-1.640625 0zm-4.34375 0.125q-1.40625 0 -2.453125 -0.46875q-1.046875 -0.46875 -1.609375 -1.296875q-0.546875 -0.828125 -0.546875 -1.90625q0 -0.984375 0.46875 -1.78125q0.46875 -0.8125 1.53125 -1.296875q1.078125 -0.5 2.875 -0.5l4.34375 0l0 1.265625l-4.296875 0q-1.8125 0 -2.53125 0.65625q-0.703125 0.640625 -0.703125 1.609375q0 1.078125 0.84375 1.734375q0.84375 0.640625 2.34375 0.640625q1.4375 0 2.484375 -0.65625q1.046875 -0.671875 1.53125 -1.921875l0.375 1.1875q-0.46875 1.234375 -1.65625 1.984375q-1.1875 0.75 -3.0 0.75zm10.613037 -0.125l0 -12.59375l1.640625 0l0 3.421875l-0.171875 -0.59375q0.53125 -1.4375 1.765625 -2.1875q1.25 -0.765625 3.109375 -0.765625l0 1.65625q-0.109375 0 -0.203125 -0.015625q-0.09375 -0.015625 -0.1875 -0.015625q-1.984375 0 -3.125 1.21875q-1.125 1.21875 -1.125 3.4375l0 6.4375l-1.703125 0zm9.432007 0l0 -12.59375l1.703125 0l0 12.59375l-1.703125 0zm0.875 -15.390625q-0.53125 0 -0.890625 -0.359375q-0.359375 -0.359375 -0.359375 -0.859375q0 -0.5 0.359375 -0.84375q0.359375 -0.359375 0.890625 -0.359375q0.53125 0 0.890625 0.34375q0.359375 0.328125 0.359375 0.84375q0 0.515625 -0.359375 0.875q-0.34375 0.359375 -0.890625 0.359375zm10.721619 15.515625q-1.828125 0 -3.28125 -0.828125q-1.453125 -0.828125 -2.296875 -2.28125q-0.828125 -1.453125 -0.828125 -3.328125q0 -1.890625 0.828125 -3.328125q0.84375 -1.453125 2.28125 -2.265625q1.4375 -0.8125 3.296875 -0.8125q1.875 0 3.3125 0.8125q1.453125 0.8125 2.28125 2.265625q0.828125 1.4375 0.828125 3.328125q0 1.875 -0.828125 3.328125q-0.828125 1.453125 -2.296875 2.28125q-1.453125 0.828125 -3.296875 0.828125zm0 -1.515625q1.359375 0 2.40625 -0.609375q1.0625 -0.609375 1.671875 -1.71875q0.625 -1.125 0.625 -2.59375q0 -1.484375 -0.625 -2.59375q-0.609375 -1.109375 -1.671875 -1.71875q-1.046875 -0.609375 -2.390625 -0.609375q-1.34375 0 -2.40625 0.609375q-1.046875 0.609375 -1.671875 1.71875q-0.625 1.109375 -0.625 2.59375q0 1.46875 0.625 2.59375q0.625 1.109375 1.671875 1.71875q1.0625 0.609375 2.390625 0.609375z" fill-rule="nonzero"/><path fill="#efefef" d="m49.294308 591.8268l264.3776 0c6.4086914E-4 0 0.0012207031 2.4414062E-4 0.0016784668 6.713867E-4c4.272461E-4 4.272461E-4 6.713867E-4 0.0010375977 6.713867E-4 0.0016479492l-0.0023498535 85.98157c0 9.497742 -7.6994324 17.197205 -17.197174 17.197205l-264.37762 0l0 0c-0.0012969971 0 -0.0023498535 -0.0010375977 -0.0023498535 -0.002319336l0.0023498535 -85.98157l0 0c0 -9.497742 7.699444 -17.197205 17.197193 -17.197205z" fill-rule="evenodd"/><path fill="#111c28" d="m100.31543 615.33734l0 -13.0625l5.09375 0q1.71875 0 2.921875 0.546875q1.21875 0.53125 1.875 1.5625q0.65625 1.03125 0.65625 2.453125q0 1.40625 -0.65625 2.421875q-0.65625 1.015625 -1.875 1.578125q-1.203125 0.546875 -2.921875 0.546875l-4.0625 0l0.84375 -0.875l0 4.828125l-1.875 0zm1.875 -4.640625l-0.84375 -0.9375l4.015625 0q1.78125 0 2.703125 -0.765625q0.9375 -0.765625 0.9375 -2.15625q0 -1.40625 -0.9375 -2.171875q-0.921875 -0.765625 -2.703125 -0.765625l-4.015625 0l0.84375 -0.9375l0 7.734375zm10.990158 4.640625l0 -9.890625l1.71875 0l0 2.6875l-0.171875 -0.671875q0.40625 -1.03125 1.375 -1.5625q0.96875 -0.546875 2.390625 -0.546875l0 1.734375q-0.109375 -0.015625 -0.21875 -0.015625q-0.09375 0 -0.1875 0q-1.4375 0 -2.28125 0.859375q-0.84375 0.859375 -0.84375 2.484375l0 4.921875l-1.78125 0zm11.815689 0.109375q-1.578125 0 -2.78125 -0.640625q-1.203125 -0.65625 -1.875 -1.796875q-0.65625 -1.140625 -0.65625 -2.609375q0 -1.484375 0.640625 -2.609375q0.65625 -1.140625 1.78125 -1.78125q1.125 -0.65625 2.546875 -0.65625q1.4375 0 2.53125 0.640625q1.109375 0.625 1.734375 1.78125q0.625 1.140625 0.625 2.671875q0 0.109375 -0.015625 0.265625q-0.015625 0.140625 -0.03125 0.28125l-8.40625 0l0 -1.296875l7.46875 0l-0.71875 0.453125q0.015625 -0.953125 -0.390625 -1.6875q-0.40625 -0.75 -1.125 -1.171875q-0.71875 -0.421875 -1.671875 -0.421875q-0.9375 0 -1.671875 0.421875q-0.71875 0.421875 -1.140625 1.171875q-0.40625 0.75 -0.40625 1.71875l0 0.3125q0 0.984375 0.453125 1.765625q0.46875 0.765625 1.28125 1.203125q0.828125 0.421875 1.890625 0.421875q0.875 0 1.59375 -0.296875q0.71875 -0.296875 1.265625 -0.90625l0.984375 1.15625q-0.671875 0.796875 -1.671875 1.203125q-1.0 0.40625 -2.234375 0.40625zm9.434097 -0.109375l-4.328125 -9.890625l1.859375 0l3.84375 8.953125l-0.890625 0l3.90625 -8.953125l1.765625 0l-4.328125 9.890625l-1.828125 0zm7.8350983 0l0 -9.890625l1.78125 0l0 9.890625l-1.78125 0zm0.890625 -11.796875q-0.515625 0 -0.859375 -0.328125q-0.34375 -0.34375 -0.34375 -0.828125q0 -0.5 0.34375 -0.828125q0.34375 -0.34375 0.859375 -0.34375q0.53125 0 0.875 0.328125q0.34375 0.328125 0.34375 0.8125q0 0.5 -0.34375 0.84375q-0.328125 0.34375 -0.875 0.34375zm8.548843 11.90625q-1.5 0 -2.65625 -0.640625q-1.15625 -0.65625 -1.828125 -1.796875q-0.671875 -1.15625 -0.671875 -2.609375q0 -1.484375 0.671875 -2.609375q0.671875 -1.140625 1.828125 -1.78125q1.15625 -0.65625 2.65625 -0.65625q1.46875 0 2.625 0.65625q1.171875 0.640625 1.828125 1.765625q0.671875 1.125 0.671875 2.625q0 1.46875 -0.671875 2.609375q-0.65625 1.140625 -1.828125 1.796875q-1.15625 0.640625 -2.625 0.640625zm0 -1.5625q0.953125 0 1.703125 -0.421875q0.75 -0.4375 1.171875 -1.234375q0.4375 -0.796875 0.4375 -1.828125q0 -1.0625 -0.4375 -1.84375q-0.421875 -0.78125 -1.171875 -1.203125q-0.75 -0.421875 -1.703125 -0.421875q-0.953125 0 -1.703125 0.421875q-0.75 0.421875 -1.203125 1.203125q-0.4375 0.78125 -0.4375 1.84375q0 1.03125 0.4375 1.828125q0.453125 0.796875 1.203125 1.234375q0.75 0.421875 1.703125 0.421875zm11.7686 1.5625q-1.265625 0 -2.234375 -0.46875q-0.953125 -0.46875 -1.484375 -1.421875q-0.53125 -0.96875 -0.53125 -2.421875l0 -5.6875l1.78125 0l0 5.484375q0 1.453125 0.703125 2.1875q0.703125 0.71875 1.96875 0.71875q0.9375 0 1.625 -0.375q0.6875 -0.375 1.0625 -1.109375q0.375 -0.75 0.375 -1.796875l0 -5.109375l1.78125 0l0 9.890625l-1.6875 0l0 -2.671875l0.28125 0.71875q-0.484375 0.984375 -1.453125 1.53125q-0.96875 0.53125 -2.1875 0.53125zm11.302155 0q-1.234375 0 -2.34375 -0.328125q-1.109375 -0.34375 -1.734375 -0.828125l0.734375 -1.421875q0.640625 0.4375 1.5625 0.734375q0.9375 0.296875 1.921875 0.296875q1.234375 0 1.78125 -0.34375q0.5625 -0.359375 0.5625 -1.0q0 -0.46875 -0.34375 -0.71875q-0.328125 -0.265625 -0.875 -0.390625q-0.546875 -0.140625 -1.21875 -0.234375q-0.671875 -0.109375 -1.34375 -0.265625q-0.671875 -0.15625 -1.234375 -0.4375q-0.5625 -0.296875 -0.90625 -0.8125q-0.328125 -0.515625 -0.328125 -1.375q0 -0.890625 0.5 -1.5625q0.5 -0.671875 1.421875 -1.03125q0.9375 -0.375 2.203125 -0.375q0.96875 0 1.96875 0.234375q1.0 0.234375 1.625 0.671875l-0.765625 1.40625q-0.671875 -0.4375 -1.40625 -0.609375q-0.71875 -0.171875 -1.4375 -0.171875q-1.1875 0 -1.765625 0.390625q-0.578125 0.375 -0.578125 0.96875q0 0.515625 0.34375 0.78125q0.359375 0.265625 0.90625 0.421875q0.546875 0.140625 1.21875 0.25q0.671875 0.09375 1.34375 0.265625q0.671875 0.15625 1.21875 0.4375q0.546875 0.265625 0.890625 0.78125q0.359375 0.5 0.359375 1.34375q0 0.890625 -0.53125 1.546875q-0.515625 0.65625 -1.46875 1.015625q-0.953125 0.359375 -2.28125 0.359375zm11.787201 -0.109375l0 -13.0625l1.53125 0l5.859375 9.875l-0.8125 0l5.78125 -9.875l1.53125 0l0.015625 13.0625l-1.796875 0l-0.015625 -10.25l0.4375 0l-5.15625 8.671875l-0.859375 0l-5.1875 -8.671875l0.46875 0l0 10.25l-1.796875 0zm21.801102 0.109375q-1.5 0 -2.65625 -0.640625q-1.15625 -0.65625 -1.828125 -1.796875q-0.671875 -1.15625 -0.671875 -2.609375q0 -1.484375 0.671875 -2.609375q0.671875 -1.140625 1.828125 -1.78125q1.15625 -0.65625 2.65625 -0.65625q1.46875 0 2.625 0.65625q1.171875 0.640625 1.828125 1.765625q0.671875 1.125 0.671875 2.625q0 1.46875 -0.671875 2.609375q-0.65625 1.140625 -1.828125 1.796875q-1.15625 0.640625 -2.625 0.640625zm0 -1.5625q0.953125 0 1.703125 -0.421875q0.75 -0.4375 1.171875 -1.234375q0.4375 -0.796875 0.4375 -1.828125q0 -1.0625 -0.4375 -1.84375q-0.421875 -0.78125 -1.171875 -1.203125q-0.75 -0.421875 -1.703125 -0.421875q-0.953125 0 -1.703125 0.421875q-0.75 0.421875 -1.203125 1.203125q-0.4375 0.78125 -0.4375 1.84375q0 1.03125 0.4375 1.828125q0.453125 0.796875 1.203125 1.234375q0.75 0.421875 1.703125 0.421875zm7.6123505 1.453125l0 -9.890625l1.71875 0l0 2.671875l-0.28125 -0.703125q0.484375 -0.984375 1.484375 -1.515625q1.015625 -0.546875 2.359375 -0.546875q1.203125 0 2.125 0.46875q0.921875 0.46875 1.4375 1.421875q0.53125 0.953125 0.53125 2.40625l0 5.6875l-1.78125 0l0 -5.484375q0 -1.4375 -0.703125 -2.15625q-0.703125 -0.734375 -1.96875 -0.734375q-0.953125 0 -1.671875 0.375q-0.703125 0.375 -1.09375 1.109375q-0.375 0.71875 -0.375 1.796875l0 5.09375l-1.78125 0zm16.095535 0.109375q-1.5 0 -2.328125 -0.796875q-0.8125 -0.8125 -0.8125 -2.296875l0 -9.0625l1.796875 0l0 8.984375q0 0.8125 0.390625 1.234375q0.40625 0.421875 1.15625 0.421875q0.84375 0 1.40625 -0.453125l0.546875 1.28125q-0.40625 0.359375 -0.984375 0.53125q-0.5625 0.15625 -1.171875 0.15625zm-4.8125 -8.515625l0 -1.484375l6.296875 0l0 1.484375l-6.296875 0zm9.145569 8.40625l0 -13.84375l1.78125 0l0 6.625l-0.34375 -0.703125q0.484375 -0.984375 1.484375 -1.515625q1.015625 -0.546875 2.359375 -0.546875q1.203125 0 2.125 0.46875q0.921875 0.46875 1.4375 1.421875q0.53125 0.953125 0.53125 2.40625l0 5.6875l-1.78125 0l0 -5.484375q0 -1.4375 -0.703125 -2.15625q-0.703125 -0.734375 -1.96875 -0.734375q-0.953125 0 -1.671875 0.375q-0.703125 0.375 -1.09375 1.109375q-0.375 0.71875 -0.375 1.796875l0 5.09375l-1.78125 0z" fill-rule="nonzero"/><path fill="#111c28" d="m98.449524 674.7373l0 -23.921875q0 -5.28125 2.25 -9.03125q2.265625 -3.765625 6.546875 -5.78125q4.28125 -2.03125 10.265625 -2.03125q3.640625 0 6.5625 0.671875q2.9375 0.671875 5.234375 2.03125l-2.875 7.5q-1.875 -1.171875 -4.171875 -1.640625q-2.28125 -0.46875 -4.625 -0.46875q-4.703125 0 -7.171875 2.140625q-2.453125 2.140625 -2.453125 6.421875l0 24.109375l-9.5625 0zm-5.859375 1.0l0 -7.625l35.546875 0l0 7.625l-35.546875 0zm0 -17.65625l0 -5.75l29.5 0l0 5.75l-29.5 0zm38.767563 17.65625l0 -6.15625l15.828125 -14.953125q1.890625 -1.703125 2.765625 -3.046875q0.875 -1.359375 1.203125 -2.46875q0.328125 -1.125 0.328125 -2.0625q0 -2.453125 -1.671875 -3.765625q-1.671875 -1.328125 -4.90625 -1.328125q-2.578125 0 -4.78125 1.0q-2.203125 0.984375 -3.71875 3.09375l-6.921875 -4.453125q2.34375 -3.515625 6.5625 -5.5625q4.21875 -2.0625 9.734375 -2.0625q4.578125 0 8.0 1.5q3.4375 1.5 5.34375 4.203125q1.90625 2.6875 1.90625 6.4375q0 2.0 -0.5 3.96875q-0.484375 1.953125 -1.984375 4.125q-1.5 2.171875 -4.375 4.875l-13.140625 12.375l-1.8125 -3.46875l23.171875 0l0 7.75l-31.03125 0zm48.919662 0.703125q-4.28125 0 -8.484375 -1.140625q-4.1875 -1.140625 -7.171875 -3.265625l3.75 -7.265625q2.34375 1.703125 5.421875 2.703125q3.078125 1.0 6.25 1.0q3.578125 0 5.625 -1.40625q2.0625 -1.421875 2.0625 -3.9375q0 -1.578125 -0.828125 -2.8125q-0.8125 -1.234375 -2.90625 -1.875q-2.078125 -0.65625 -5.828125 -0.65625l-10.5 0l2.109375 -23.109375l25.046875 0l0 7.625l-21.640625 0l4.921875 -4.34375l-1.46875 16.484375l-4.921875 -4.328125l8.671875 0q6.109375 0 9.828125 1.671875q3.734375 1.65625 5.421875 4.53125q1.703125 2.875 1.703125 6.515625q0 3.640625 -1.8125 6.71875q-1.8125 3.078125 -5.609375 4.984375q-3.78125 1.90625 -9.640625 1.90625zm23.525452 -0.703125l0 -41.0625l7.859375 0l17.46875 28.984375l-4.15625 0l17.1875 -28.984375l7.796875 0l0.109375 41.0625l-8.90625 0l-0.0625 -27.390625l1.640625 0l-13.71875 23.046875l-4.28125 0l-14.015625 -23.046875l1.984375 0l0 27.390625l-8.90625 0z" fill-rule="nonzero"/><path fill="#8afbe6" d="m356.78134 591.8268l264.3776 0c6.1035156E-4 0 0.0012207031 2.4414062E-4 0.0016479492 6.713867E-4c4.272461E-4 4.272461E-4 6.713867E-4 0.0010375977 6.713867E-4 0.0016479492l-0.002319336 85.98157c0 9.497742 -7.699463 17.197205 -17.197205 17.197205l-264.3776 0l0 0c-0.0013122559 0 -0.0023498535 -0.0010375977 -0.0023498535 -0.002319336l0.0023498535 -85.98157l0 0c0 -9.497742 7.6994324 -17.197205 17.197205 -17.197205z" fill-rule="evenodd"/><path fill="#111c28" d="m426.2627 615.33734l0 -13.0625l1.53125 0l8.640625 10.734375l-0.796875 0l0 -10.734375l1.859375 0l0 13.0625l-1.53125 0l-8.640625 -10.734375l0.8125 0l0 10.734375l-1.875 0zm19.28949 0.109375q-1.578125 0 -2.78125 -0.640625q-1.203125 -0.65625 -1.875 -1.796875q-0.65625 -1.140625 -0.65625 -2.609375q0 -1.484375 0.640625 -2.609375q0.65625 -1.140625 1.78125 -1.78125q1.125 -0.65625 2.546875 -0.65625q1.4375 0 2.53125 0.640625q1.109375 0.625 1.734375 1.78125q0.625 1.140625 0.625 2.671875q0 0.109375 -0.015625 0.265625q-0.015625 0.140625 -0.03125 0.28125l-8.40625 0l0 -1.296875l7.46875 0l-0.71875 0.453125q0.015625 -0.953125 -0.390625 -1.6875q-0.40625 -0.75 -1.125 -1.171875q-0.71875 -0.421875 -1.671875 -0.421875q-0.9375 0 -1.671875 0.421875q-0.71875 0.421875 -1.140625 1.171875q-0.40625 0.75 -0.40625 1.71875l0 0.3125q0 0.984375 0.453125 1.765625q0.46875 0.765625 1.28125 1.203125q0.828125 0.421875 1.890625 0.421875q0.875 0 1.59375 -0.296875q0.71875 -0.296875 1.265625 -0.90625l0.984375 1.15625q-0.671875 0.796875 -1.671875 1.203125q-1.0 0.40625 -2.234375 0.40625zm5.3095093 -0.109375l4.25 -5.515625l-0.015625 0.90625l-4.046875 -5.28125l1.984375 0l3.109375 4.0625l-0.765625 0l3.09375 -4.0625l1.953125 0l-4.09375 5.3125l0.015625 -0.9375l4.28125 5.515625l-2.03125 0l-3.265625 -4.328125l0.734375 0.109375l-3.21875 4.21875l-1.984375 0zm15.126373 0.109375q-1.5 0 -2.328125 -0.796875q-0.8125 -0.8125 -0.8125 -2.296875l0 -9.0625l1.796875 0l0 8.984375q0 0.8125 0.390625 1.234375q0.40625 0.421875 1.15625 0.421875q0.84375 0 1.40625 -0.453125l0.546875 1.28125q-0.40625 0.359375 -0.984375 0.53125q-0.5625 0.15625 -1.171875 0.15625zm-4.8125 -8.515625l0 -1.484375l6.296875 0l0 1.484375l-6.296875 0zm14.414124 8.40625l0 -13.0625l1.53125 0l5.859375 9.875l-0.8125 0l5.78125 -9.875l1.53125 0l0.015625 13.0625l-1.796875 0l-0.015625 -10.25l0.4375 0l-5.15625 8.671875l-0.859375 0l-5.1875 -8.671875l0.46875 0l0 10.25l-1.796875 0zm21.801086 0.109375q-1.5 0 -2.65625 -0.640625q-1.15625 -0.65625 -1.828125 -1.796875q-0.671875 -1.15625 -0.671875 -2.609375q0 -1.484375 0.671875 -2.609375q0.671875 -1.140625 1.828125 -1.78125q1.15625 -0.65625 2.65625 -0.65625q1.46875 0 2.625 0.65625q1.171875 0.640625 1.828125 1.765625q0.671875 1.125 0.671875 2.625q0 1.46875 -0.671875 2.609375q-0.65625 1.140625 -1.828125 1.796875q-1.15625 0.640625 -2.625 0.640625zm0 -1.5625q0.953125 0 1.703125 -0.421875q0.75 -0.4375 1.171875 -1.234375q0.4375 -0.796875 0.4375 -1.828125q0 -1.0625 -0.4375 -1.84375q-0.421875 -0.78125 -1.171875 -1.203125q-0.75 -0.421875 -1.703125 -0.421875q-0.953125 0 -1.703125 0.421875q-0.75 0.421875 -1.203125 1.203125q-0.4375 0.78125 -0.4375 1.84375q0 1.03125 0.4375 1.828125q0.453125 0.796875 1.203125 1.234375q0.75 0.421875 1.703125 0.421875zm7.6123657 1.453125l0 -9.890625l1.71875 0l0 2.671875l-0.28125 -0.703125q0.484375 -0.984375 1.484375 -1.515625q1.015625 -0.546875 2.359375 -0.546875q1.203125 0 2.1249695 0.46875q0.921875 0.46875 1.4375 1.421875q0.53125 0.953125 0.53125 2.40625l0 5.6875l-1.78125 0l0 -5.484375q0 -1.4375 -0.7030945 -2.15625q-0.703125 -0.734375 -1.96875 -0.734375q-0.953125 0 -1.671875 0.375q-0.703125 0.375 -1.09375 1.109375q-0.375 0.71875 -0.375 1.796875l0 5.09375l-1.78125 0zm16.09555 0.109375q-1.5 0 -2.328125 -0.796875q-0.8125 -0.8125 -0.8125 -2.296875l0 -9.0625l1.796875 0l0 8.984375q0 0.8125 0.390625 1.234375q0.40625 0.421875 1.15625 0.421875q0.84375 0 1.40625 -0.453125l0.546875 1.28125q-0.40625 0.359375 -0.984375 0.53125q-0.5625 0.15625 -1.171875 0.15625zm-4.8125 -8.515625l0 -1.484375l6.296875 0l0 1.484375l-6.296875 0zm9.145569 8.40625l0 -13.84375l1.78125 0l0 6.625l-0.34375 -0.703125q0.484375 -0.984375 1.484375 -1.515625q1.015625 -0.546875 2.359375 -0.546875q1.203125 0 2.125 0.46875q0.921875 0.46875 1.4375 1.421875q0.53125 0.953125 0.53125 2.40625l0 5.6875l-1.78125 0l0 -5.484375q0 -1.4375 -0.703125 -2.15625q-0.703125 -0.734375 -1.96875 -0.734375q-0.953125 0 -1.671875 0.375q-0.703125 0.375 -1.09375 1.109375q-0.375 0.71875 -0.375 1.796875l0 5.09375l-1.78125 0z" fill-rule="nonzero"/><path fill="#111c28" d="m406.11252 674.7373l0 -23.921875q0 -5.28125 2.25 -9.03125q2.265625 -3.765625 6.546875 -5.78125q4.28125 -2.03125 10.265625 -2.03125q3.640625 0 6.5625 0.671875q2.9375 0.671875 5.234375 2.03125l-2.875 7.5q-1.875 -1.171875 -4.171875 -1.640625q-2.28125 -0.46875 -4.625 -0.46875q-4.703125 0 -7.171875 2.140625q-2.453125 2.140625 -2.453125 6.421875l0 24.109375l-9.5625 0zm-5.859375 1.0l0 -7.625l35.546875 0l0 7.625l-35.546875 0zm0 -17.65625l0 -5.75l29.5 0l0 5.75l-29.5 0zm52.439453 18.359375q-4.28125 0 -8.515625 -1.140625q-4.21875 -1.140625 -7.15625 -3.265625l3.703125 -7.265625q2.34375 1.703125 5.453125 2.703125q3.109375 1.0 6.28125 1.0q3.578125 0 5.625 -1.40625q2.046875 -1.421875 2.046875 -3.875q0 -2.359375 -1.8125 -3.703125q-1.8125 -1.34375 -5.859375 -1.34375l-4.34375 0l0 -6.28125l11.4375 -12.96875l1.046875 3.40625l-21.515625 0l0 -7.625l28.734375 0l0 6.15625l-11.375 12.96875l-4.8125 -2.75l2.75 0q7.578125 0 11.4375 3.40625q3.875 3.390625 3.875 8.734375q0 3.453125 -1.828125 6.484375q-1.8125 3.015625 -5.5625 4.890625q-3.75 1.875 -9.609375 1.875zm34.431152 0q-4.28125 0 -8.515625 -1.140625q-4.21875 -1.140625 -7.15625 -3.265625l3.703125 -7.265625q2.34375 1.703125 5.453125 2.703125q3.109375 1.0 6.28125 1.0q3.578125 0 5.625 -1.40625q2.046875 -1.421875 2.046875 -3.875q0 -2.359375 -1.8125 -3.703125q-1.8125 -1.34375 -5.859375 -1.34375l-4.34375 0l0 -6.28125l11.4375 -12.96875l1.046875 3.40625l-21.515625 0l0 -7.625l28.734375 0l0 6.15625l-11.375 12.96875l-4.8125 -2.75l2.75 0q7.578125 0 11.4375 3.40625q3.875 3.390625 3.875 8.734375q0 3.453125 -1.828125 6.484375q-1.8125 3.015625 -5.5625 4.890625q-3.75 1.875 -9.609375 1.875zm23.990112 -0.703125l0 -41.0625l7.8593445 0l17.46875 28.984375l-4.15625 0l17.1875 -28.984375l7.796875 0l0.109375 41.0625l-8.90625 0l-0.0625 -27.390625l1.640625 0l-13.71875 23.046875l-4.28125 0l-14.015625 -23.046875l1.984375 0l0 27.390625l-8.9062195 0z" fill-rule="nonzero"/><path fill="#fff2cc" d="m664.2684 591.8268l264.37756 0c6.713867E-4 0 0.0012207031 2.4414062E-4 0.0017089844 6.713867E-4c4.272461E-4 4.272461E-4 6.713867E-4 0.0010375977 6.713867E-4 0.0016479492l-0.002380371 85.98157c0 9.497742 -7.699402 17.197205 -17.197144 17.197205l-264.37762 0l0 0c-0.0012817383 0 -0.002380371 -0.0010375977 -0.002380371 -0.002319336l0.002380371 -85.98157l0 0c0 -9.497742 7.699463 -17.197205 17.197205 -17.197205z" fill-rule="evenodd"/><path fill="#111c28" d="m760.4018 615.4936q-1.515625 0 -2.78125 -0.5q-1.265625 -0.5 -2.203125 -1.40625q-0.9375 -0.90625 -1.46875 -2.109375q-0.515625 -1.21875 -0.515625 -2.671875q0 -1.453125 0.515625 -2.65625q0.53125 -1.21875 1.46875 -2.125q0.953125 -0.90625 2.21875 -1.390625q1.265625 -0.5 2.796875 -0.5q1.546875 0 2.828125 0.5q1.296875 0.5 2.1875 1.515625l-1.15625 1.15625q-0.796875 -0.796875 -1.75 -1.15625q-0.9375 -0.359375 -2.03125 -0.359375q-1.125 0 -2.09375 0.375q-0.953125 0.375 -1.65625 1.046875q-0.6875 0.671875 -1.078125 1.59375q-0.375 0.921875 -0.375 2.0q0 1.0625 0.375 1.984375q0.390625 0.921875 1.078125 1.609375q0.703125 0.6875 1.65625 1.0625q0.953125 0.359375 2.078125 0.359375q1.046875 0 2.0 -0.328125q0.953125 -0.328125 1.78125 -1.078125l1.0625 1.40625q-0.96875 0.828125 -2.265625 1.25q-1.296875 0.421875 -2.671875 0.421875zm4.9375 -1.671875l-1.796875 -0.234375l0 -4.859375l1.796875 0l0 5.09375zm3.308838 1.515625l0 -9.890625l1.71875 0l0 2.6875l-0.171875 -0.671875q0.40625 -1.03125 1.375 -1.5625q0.96875 -0.546875 2.390625 -0.546875l0 1.734375q-0.109375 -0.015625 -0.21875 -0.015625q-0.09375 0 -0.1875 0q-1.4375 0 -2.28125 0.859375q-0.84375 0.859375 -0.84375 2.484375l0 4.921875l-1.78125 0zm11.659485 0.109375q-1.5 0 -2.65625 -0.640625q-1.15625 -0.65625 -1.828125 -1.796875q-0.671875 -1.15625 -0.671875 -2.609375q0 -1.484375 0.671875 -2.609375q0.671875 -1.140625 1.828125 -1.78125q1.15625 -0.65625 2.65625 -0.65625q1.46875 0 2.625 0.65625q1.171875 0.640625 1.828125 1.765625q0.671875 1.125 0.671875 2.625q0 1.46875 -0.671875 2.609375q-0.65625 1.140625 -1.828125 1.796875q-1.15625 0.640625 -2.625 0.640625zm0 -1.5625q0.953125 0 1.703125 -0.421875q0.75 -0.4375 1.171875 -1.234375q0.4375 -0.796875 0.4375 -1.828125q0 -1.0625 -0.4375 -1.84375q-0.421875 -0.78125 -1.171875 -1.203125q-0.75 -0.421875 -1.703125 -0.421875q-0.953125 0 -1.703125 0.421875q-0.75 0.421875 -1.203125 1.203125q-0.4375 0.78125 -0.4375 1.84375q0 1.03125 0.4375 1.828125q0.453125 0.796875 1.203125 1.234375q0.75 0.421875 1.703125 0.421875zm9.410461 1.453125l-3.671875 -9.890625l1.703125 0l3.265625 8.953125l-0.8125 0l3.40625 -8.953125l1.5 0l3.328125 8.953125l-0.78125 0l3.34375 -8.953125l1.59375 0l-3.6875 9.890625l-1.71875 0l-3.109375 -8.171875l0.515625 0l-3.15625 8.171875l-1.71875 0zm18.121826 0.109375q-1.5 0 -2.328125 -0.796875q-0.8125 -0.8125 -0.8125 -2.296875l0 -9.0625l1.796875 0l0 8.984375q0 0.8125 0.390625 1.234375q0.40625 0.421875 1.15625 0.421875q0.84375 0 1.40625 -0.453125l0.546875 1.28125q-0.40625 0.359375 -0.984375 0.53125q-0.5625 0.15625 -1.171875 0.15625zm-4.8125 -8.515625l0 -1.484375l6.296875 0l0 1.484375l-6.296875 0zm9.145569 8.40625l0 -13.84375l1.78125 0l0 6.625l-0.34375 -0.703125q0.484375 -0.984375 1.484375 -1.515625q1.015625 -0.546875 2.359375 -0.546875q1.203125 0 2.125 0.46875q0.921875 0.46875 1.4375 1.421875q0.53125 0.953125 0.53125 2.40625l0 5.6875l-1.78125 0l0 -5.484375q0 -1.4375 -0.703125 -2.15625q-0.703125 -0.734375 -1.96875 -0.734375q-0.953125 0 -1.671875 0.375q-0.703125 0.375 -1.09375 1.109375q-0.375 0.71875 -0.375 1.796875l0 5.09375l-1.78125 0z" fill-rule="nonzero"/><path fill="#111c28" d="m724.12573 668.7529l0 -27.09375l7.5625 0l0 27.09375l-7.5625 0zm-10.140625 -9.96875l0 -7.15625l27.921875 0l0 7.15625l-27.921875 0zm45.93048 17.65625q-4.28125 0 -8.515625 -1.140625q-4.21875 -1.140625 -7.15625 -3.265625l3.703125 -7.265625q2.34375 1.703125 5.453125 2.703125q3.109375 1.0 6.28125 1.0q3.578125 0 5.625 -1.40625q2.046875 -1.421875 2.046875 -3.875q0 -2.359375 -1.8125 -3.703125q-1.8125 -1.34375 -5.859375 -1.34375l-4.34375 0l0 -6.28125l11.4375 -12.96875l1.046875 3.40625l-21.515625 0l0 -7.625l28.734375 0l0 6.15625l-11.375 12.96875l-4.8125 -2.75l2.75 0q7.578125 0 11.4375 3.40625q3.875 3.390625 3.875 8.734375q0 3.453125 -1.828125 6.484375q-1.8125 3.015625 -5.5625 4.890625q-3.75 1.875 -9.609375 1.875zm20.759277 -0.703125l0 -6.15625l15.828125 -14.953125q1.890625 -1.703125 2.765625 -3.046875q0.875 -1.359375 1.203125 -2.46875q0.328125 -1.125 0.328125 -2.0625q0 -2.453125 -1.671875 -3.765625q-1.671875 -1.328125 -4.90625 -1.328125q-2.578125 0 -4.78125 1.0q-2.203125 0.984375 -3.71875 3.09375l-6.921875 -4.453125q2.34375 -3.515625 6.5625 -5.5625q4.21875 -2.0625 9.734375 -2.0625q4.578125 0 8.0 1.5q3.4375 1.5 5.34375 4.203125q1.90625 2.6875 1.90625 6.4375q0 2.0 -0.5 3.96875q-0.484375 1.953125 -1.984375 4.125q-1.5 2.171875 -4.375 4.875l-13.140625 12.375l-1.8125 -3.46875l23.171875 0l0 7.75l-31.03125 0zm41.475037 0l28.03125 -41.0625l6.984375 0l-28.046875 41.0625l-6.96875 0zm3.578125 -18.890625q-3.0 0 -5.296875 -1.375q-2.28125 -1.375 -3.609375 -3.921875q-1.3125 -2.5625 -1.3125 -6.015625q0 -3.46875 1.3125 -5.984375q1.328125 -2.53125 3.609375 -3.9375q2.296875 -1.40625 5.296875 -1.40625q2.984375 0 5.265625 1.40625q2.296875 1.40625 3.578125 3.90625q1.296875 2.484375 1.296875 6.015625q0 3.453125 -1.296875 6.015625q-1.28125 2.546875 -3.578125 3.921875q-2.28125 1.375 -5.265625 1.375zm0 -4.8125q1.921875 0 3.09375 -1.609375q1.1875 -1.609375 1.1875 -4.890625q0 -3.296875 -1.1875 -4.90625q-1.171875 -1.609375 -3.09375 -1.609375q-1.890625 0 -3.09375 1.640625q-1.1875 1.640625 -1.1875 4.875q0 3.21875 1.1875 4.859375q1.203125 1.640625 3.09375 1.640625zm27.859375 24.171875q-2.9375 0 -5.265625 -1.375q-2.3125 -1.375 -3.609375 -3.921875q-1.28125 -2.5625 -1.28125 -6.015625q0 -3.46875 1.28125 -5.984375q1.296875 -2.53125 3.609375 -3.9375q2.328125 -1.40625 5.265625 -1.40625q3.046875 0 5.328125 1.40625q2.296875 1.40625 3.578125 3.9375q1.296875 2.515625 1.296875 5.984375q0 3.453125 -1.296875 6.015625q-1.28125 2.546875 -3.578125 3.921875q-2.28125 1.375 -5.328125 1.375zm0 -4.8125q1.9375 0 3.109375 -1.640625q1.171875 -1.640625 1.171875 -4.859375q0 -3.234375 -1.171875 -4.875q-1.171875 -1.640625 -3.109375 -1.640625q-1.875 0 -3.078125 1.609375q-1.203125 1.609375 -1.203125 4.90625q0 3.28125 1.203125 4.890625q1.203125 1.609375 3.078125 1.609375z" fill-rule="nonzero"/><path fill="#000000" fill-opacity="0.0" d="m32.53018 403.68896l93.97638 62.124023l75.90289 -10.165344l83.13385 25.527557l102.70868 -32.305115l58.13385 9.9409485l211.14438 -101.20474" fill-rule="evenodd"/><path stroke="#999999" stroke-width="4.0" stroke-linejoin="round" stroke-linecap="butt" d="m32.53018 403.68896l93.97638 62.124023l75.90289 -10.165344l83.13385 25.527557l102.70868 -32.305115l58.13385 9.9409485l211.14438 -101.20474" fill-rule="evenodd"/><path fill="#000000" fill-opacity="0.0" d="m33.154854 362.9685l121.391075 27.271637l178.60892 -46.12204l91.979004 36.096466l73.79791 -46.124023l94.11548 -30.080688l64.17322 -55.346466" fill-rule="evenodd"/><path stroke="#29caab" stroke-width="4.0" stroke-linejoin="round" stroke-linecap="butt" d="m33.154854 362.9685l121.391075 27.271637l178.60892 -46.12204l91.979004 36.096466l73.79791 -46.124023l94.11548 -30.080688l64.17322 -55.346466" fill-rule="evenodd"/><path fill="#000000" fill-opacity="0.0" d="m659.04724 245.0l67.619446 11.429138l76.19159 -44.28543l126.66669 -22.143707" fill-rule="evenodd"/><path stroke="#29caab" stroke-width="4.0" stroke-linejoin="round" stroke-linecap="butt" stroke-dasharray="16.0,12.0" d="m659.04724 245.0l67.619446 11.429138l76.19159 -44.28543l126.66669 -22.143707" fill-rule="evenodd"/><path fill="#000000" fill-opacity="0.0" d="m658.0945 360.71457l66.66669 24.28543l74.28607 -40.71457l130.27032 -15.972443" fill-rule="evenodd"/><path stroke="#b7b7b7" stroke-width="4.0" stroke-linejoin="round" stroke-linecap="butt" stroke-dasharray="16.0,12.0" d="m658.0945 360.71457l66.66669 24.28543l74.28607 -40.71457l130.27032 -15.972443" fill-rule="evenodd"/><path fill="#000000" fill-opacity="0.0" d="m657.5412 131.02638l0 438.48822" fill-rule="evenodd"/><path stroke="#111c28" stroke-width="4.380577427821522" stroke-linejoin="round" stroke-linecap="butt" d="m657.5412 131.02638l0 438.48822" fill-rule="evenodd"/><path fill="#000000" fill-opacity="0.0" d="m926.9843 569.69714l-896.69293 0" fill-rule="evenodd"/><path stroke="#d9d9d9" stroke-width="4.380577427821522" stroke-linejoin="round" stroke-linecap="butt" d="m926.9843 569.69714l-896.69293 0" fill-rule="evenodd"/></g></svg>