<svg version="1.1" viewBox="0.0 0.0 960.0 960.0" fill="none" stroke="none" stroke-linecap="square" stroke-miterlimit="10" xmlns:xlink="http://www.w3.org/1999/xlink" xmlns="http://www.w3.org/2000/svg"><clipPath id="g389dea38672_0_0.0"><path d="m0 0l960.0 0l0 960.0l-960.0 0l0 -960.0z" clip-rule="nonzero"/></clipPath><g clip-path="url(#g389dea38672_0_0.0)"><path fill="#000000" fill-opacity="0.0" d="m0 0l960.0 0l0 960.0l-960.0 0z" fill-rule="evenodd"/><path fill="#000000" fill-opacity="0.0" d="m98.59707 153.21785l388.50394 0l0 386.5197l-388.50394 0z" fill-rule="evenodd"/><path fill="#000000" d="m219.76433 304.71768l-10.296875 -30.796875l4.53125 0l9.46875 28.421875l-2.296875 0l9.8125 -28.421875l4.046875 0l9.59375 28.421875l-2.203125 0l9.59375 -28.421875l4.1875153 0l-10.29689 30.796875l-4.625 0l-8.96875 -26.359375l1.1875 0l-9.03125 26.359375l-4.703125 0zm41.224777 0l0 -32.640625l4.234375 0l0 15.609375l-0.84375 -1.671875q1.140625 -2.28125 3.515625 -3.5625q2.375 -1.28125 5.546875 -1.28125q2.859375 0 5.03125 1.109375q2.1875 1.09375 3.421875 3.34375q1.234375 2.234375 1.234375 5.671875l0 13.421875l-4.234375 0l0 -12.9375q0 -3.390625 -1.65625 -5.09375q-1.640625 -1.71875 -4.625 -1.71875q-2.25 0 -3.921875 0.875q-1.671875 0.875 -2.578125 2.59375q-0.890625 1.71875 -0.890625 4.265625l0 12.015625l-4.234375 0zm44.448334 0l0 -4.921875l-0.21875 -0.9375l0 -8.390625q0 -2.6875 -1.5625 -4.15625q-1.5625 -1.484375 -4.6875 -1.484375q-2.078125 0 -4.0625 0.6875q-1.96875 0.671875 -3.328125 1.828125l-1.765625 -3.171875q1.796875 -1.453125 4.328125 -2.21875q2.53125 -0.78125 5.3125 -0.78125q4.796875 0 7.390625 2.34375q2.59375 2.328125 2.59375 7.125l0 14.078125l-4.0 0zm-7.65625 0.265625q-2.59375 0 -4.5625 -0.875q-1.953125 -0.890625 -3.015625 -2.453125q-1.046875 -1.5625 -1.046875 -3.53125q0 -1.890625 0.890625 -3.4375q0.90625 -1.546875 2.953125 -2.46875q2.046875 -0.921875 5.53125 -0.921875l7.390625 0l0 3.03125l-7.21875 0q-3.171875 0 -4.28125 1.0625q-1.09375 1.0625 -1.09375 2.546875q0 1.71875 1.359375 2.765625q1.375 1.03125 3.796875 1.03125q2.375 0 4.15625 -1.0625q1.78125 -1.0625 2.578125 -3.078125l0.828125 2.90625q-0.828125 2.0625 -2.953125 3.28125q-2.109375 1.203125 -5.3125 1.203125zm27.49945 0q-3.53125 0 -5.46875 -1.890625q-1.921875 -1.890625 -1.921875 -5.421875l0 -21.375l4.21875 0l0 21.203125q0 1.890625 0.9375 2.90625q0.953125 1.015625 2.71875 1.015625q1.96875 0 3.296875 -1.109375l1.3125 3.046875q-0.96875 0.828125 -2.3125 1.234375q-1.328125 0.390625 -2.78125 0.390625zm-11.359375 -20.109375l0 -3.46875l14.875 0l0 3.46875l-14.875 0zm33.39569 19.84375l0 -23.3125l4.234375 0l0 23.3125l-4.234375 0zm2.125 -27.8125q-1.234375 0 -2.046875 -0.78125q-0.8125 -0.796875 -0.8125 -1.9375q0 -1.1875 0.8125 -1.984375q0.8125 -0.796875 2.046875 -0.796875q1.234375 0 2.046875 0.78125q0.8125 0.765625 0.8125 1.90625q0 1.1875 -0.796875 2.0q-0.796875 0.8125 -2.0625 0.8125zm16.83847 28.078125q-2.90625 0 -5.53125 -0.78125q-2.609375 -0.796875 -4.09375 -1.953125l1.75 -3.34375q1.5 1.015625 3.703125 1.71875q2.203125 0.703125 4.484375 0.703125q2.953125 0 4.25 -0.828125q1.296875 -0.84375 1.296875 -2.34375q0 -1.09375 -0.796875 -1.703125q-0.796875 -0.625 -2.09375 -0.921875q-1.296875 -0.3125 -2.875 -0.546875q-1.578125 -0.25 -3.171875 -0.625q-1.578125 -0.375 -2.90625 -1.046875q-1.3125 -0.6875 -2.109375 -1.890625q-0.796875 -1.21875 -0.796875 -3.25q0 -2.109375 1.1875 -3.6875q1.203125 -1.59375 3.375 -2.453125q2.171875 -0.859375 5.171875 -0.859375q2.28125 0 4.640625 0.5625q2.359375 0.546875 3.84375 1.5625l-1.796875 3.34375q-1.59375 -1.0625 -3.3125 -1.453125q-1.703125 -0.40625 -3.421875 -0.40625q-2.765625 0 -4.140625 0.90625q-1.359375 0.90625 -1.359375 2.3125q0 1.1875 0.8125 1.828125q0.8125 0.640625 2.109375 1.0q1.296875 0.34375 2.875 0.59375q1.59375 0.234375 3.171875 0.609375q1.59375 0.375 2.890625 1.03125q1.296875 0.65625 2.109375 1.84375q0.8125 1.1875 0.8125 3.171875q0 2.109375 -1.234375 3.65625q-1.234375 1.53125 -3.484375 2.390625q-2.234375 0.859375 -5.359375 0.859375z" fill-rule="nonzero"/><path fill="#000000" d="m130.6504 357.7833q-2.9062424 0 -5.3124924 -1.34375q-2.390625 -1.34375 -3.828125 -3.984375q-1.421875 -2.640625 -1.421875 -6.59375q0 -3.96875 1.375 -6.609375q1.390625 -2.640625 3.78125 -3.953125q2.40625 -1.328125 5.4062424 -1.328125q3.421875 0 6.0625 1.5q2.640625 1.5 4.171875 4.171875q1.546875 2.65625 1.546875 6.21875q0 3.5625 -1.546875 6.25q-1.53125 2.671875 -4.171875 4.171875q-2.640625 1.5 -6.0625 1.5zm-12.374992 8.265625l0 -31.84375l4.046875 0l0 6.28125l-0.265625 5.421875l0.453125 5.40625l0 14.734375l-4.234375 0zm12.015617 -11.96875q2.25 0 4.03125 -1.0q1.78125 -1.015625 2.8125 -2.890625q1.03125 -1.875 1.03125 -4.328125q0 -2.515625 -1.03125 -4.328125q-1.03125 -1.828125 -2.8125 -2.84375q-1.78125 -1.015625 -4.03125 -1.015625q-2.203125 0 -3.9843674 1.015625q-1.78125 1.015625 -2.8125 2.84375q-1.03125 1.8125 -1.03125 4.328125q0 2.453125 1.03125 4.328125q1.03125 1.875 2.8125 2.890625q1.7812424 1.0 3.9843674 1.0zm28.382935 3.703125q-3.75 0 -6.59375 -1.53125q-2.828125 -1.546875 -4.390625 -4.234375q-1.5625 -2.6875 -1.5625 -6.15625q0 -3.484375 1.515625 -6.15625q1.53125 -2.6875 4.1875 -4.203125q2.65625 -1.53125 6.0 -1.53125q3.390625 0 5.984375 1.5q2.59375 1.5 4.0625 4.203125q1.484375 2.703125 1.484375 6.3125q0 0.265625 -0.03125 0.625q-0.015625 0.34375 -0.0625 0.65625l-19.84375 0l0 -3.03125l17.65625 0l-1.71875 1.046875q0.046875 -2.234375 -0.921875 -4.0q-0.96875 -1.765625 -2.671875 -2.75q-1.6875 -0.984375 -3.9375 -0.984375q-2.1875 0 -3.90625 0.984375q-1.71875 0.984375 -2.6875 2.765625q-0.96875 1.78125 -0.96875 4.078125l0 0.703125q0 2.328125 1.078125 4.15625q1.078125 1.828125 3.015625 2.84375q1.9375 1.0 4.4375 1.0q2.078125 0 3.765625 -0.703125q1.6875 -0.703125 2.96875 -2.109375l2.328125 2.734375q-1.578125 1.84375 -3.9375 2.8125q-2.34375 0.96875 -5.25 0.96875zm16.537323 -0.265625l0 -23.3125l4.046875 0l0 6.328125l-0.390625 -1.578125q0.96875 -2.421875 3.25 -3.703125q2.296875 -1.28125 5.640625 -1.28125l0 4.09375q-0.265625 -0.03125 -0.515625 -0.03125q-0.234375 0 -0.453125 0q-3.390625 0 -5.375 2.03125q-1.96875 2.015625 -1.96875 5.84375l0 11.609375l-4.234375 0zm18.664963 0l0 -25.390625q0 -3.421875 2.0 -5.46875q2.0 -2.046875 5.6875 -2.046875q1.375 0 2.625 0.328125q1.25 0.328125 2.140625 1.03125l-1.28125 3.203125q-0.65625 -0.515625 -1.5 -0.796875q-0.828125 -0.296875 -1.75 -0.296875q-1.859375 0 -2.828125 1.03125q-0.96875 1.03125 -0.96875 3.0625l0 3.125l0.09375 1.9375l0 20.28125l-4.21875 0zm-3.96875 -19.84375l0 -3.46875l14.875 0l0 3.46875l-14.875 0zm28.508087 20.109375q-3.515625 0 -6.25 -1.53125q-2.71875 -1.546875 -4.3125 -4.25q-1.578125 -2.71875 -1.578125 -6.140625q0 -3.484375 1.578125 -6.15625q1.59375 -2.6875 4.3125 -4.203125q2.734375 -1.53125 6.25 -1.53125q3.484375 0 6.234375 1.53125q2.75 1.515625 4.3125 4.171875q1.5625 2.65625 1.5625 6.1875q0 3.46875 -1.5625 6.15625q-1.5625 2.6875 -4.3125 4.234375q-2.75 1.53125 -6.234375 1.53125zm0 -3.703125q2.25 0 4.03125 -1.0q1.78125 -1.015625 2.796875 -2.890625q1.015625 -1.875 1.015625 -4.328125q0 -2.515625 -1.015625 -4.328125q-1.015625 -1.828125 -2.796875 -2.84375q-1.78125 -1.015625 -4.03125 -1.015625q-2.234375 0 -4.0 1.015625q-1.75 1.015625 -2.8125 2.84375q-1.0625 1.8125 -1.0625 4.328125q0 2.453125 1.0625 4.328125q1.0625 1.875 2.8125 2.890625q1.765625 1.0 4.0 1.0zm17.955566 3.4375l0 -23.3125l4.046875 0l0 6.328125l-0.390625 -1.578125q0.96875 -2.421875 3.25 -3.703125q2.296875 -1.28125 5.640625 -1.28125l0 4.09375q-0.265625 -0.03125 -0.515625 -0.03125q-0.234375 0 -0.453125 0q-3.390625 0 -5.375 2.03125q-1.96875 2.015625 -1.96875 5.84375l0 11.609375l-4.234375 0zm17.731964 0l0 -23.3125l4.046875 0l0 6.203125l-0.65625 -1.59375q1.09375 -2.28125 3.375 -3.5625q2.296875 -1.28125 5.34375 -1.28125q3.34375 0 5.75 1.65625q2.421875 1.65625 3.171875 5.0l-1.71875 -0.703125q1.0625 -2.6875 3.703125 -4.3125q2.640625 -1.640625 6.15625 -1.640625q2.8125 0 4.96875 1.109375q2.15625 1.09375 3.359375 3.34375q1.21875 2.234375 1.21875 5.671875l0 13.421875l-4.21875 0l0 -12.9375q0 -3.390625 -1.59375 -5.09375q-1.578125 -1.71875 -4.4375 -1.71875q-2.109375 0 -3.703125 0.875q-1.578125 0.875 -2.4375 2.59375q-0.859375 1.71875 -0.859375 4.265625l0 12.015625l-4.21875 0l0 -12.9375q0 -3.390625 -1.5625 -5.09375q-1.5625 -1.71875 -4.46875 -1.71875q-2.0625 0 -3.65625 0.875q-1.578125 0.875 -2.453125 2.59375q-0.875 1.71875 -0.875 4.265625l0 12.015625l-4.234375 0zm46.507904 0l0 -23.3125l4.234375 0l0 23.3125l-4.234375 0zm2.125 -27.8125q-1.234375 0 -2.046875 -0.78125q-0.8125 -0.796875 -0.8125 -1.9375q0 -1.1875 0.8125 -1.984375q0.8125 -0.796875 2.046875 -0.796875q1.234375 0 2.046875 0.78125q0.8125 0.765625 0.8125 1.90625q0 1.1875 -0.796875 2.0q-0.796875 0.8125 -2.0625 0.8125zm10.15097 27.8125l0 -23.3125l4.046875 0l0 6.28125l-0.65625 -1.671875q1.140625 -2.28125 3.515625 -3.5625q2.375 -1.28125 5.546875 -1.28125q2.859375 0 5.03125 1.109375q2.1875 1.09375 3.421875 3.34375q1.234375 2.234375 1.234375 5.671875l0 13.421875l-4.234375 0l0 -12.9375q0 -3.390625 -1.65625 -5.09375q-1.640625 -1.71875 -4.625 -1.71875q-2.25 0 -3.921875 0.875q-1.671875 0.875 -2.578125 2.59375q-0.890625 1.71875 -0.890625 4.265625l0 12.015625l-4.234375 0zm40.18271 8.796875q-3.21875 0 -6.234375 -0.90625q-3.015625 -0.890625 -4.90625 -2.5625l2.03125 -3.265625q1.625 1.40625 4.0 2.21875q2.375 0.828125 4.96875 0.828125q4.140625 0 6.078125 -1.9375q1.9375 -1.9375 1.9375 -5.90625l0 -4.921875l0.4375 -4.625l-0.21875 -4.65625l0 -6.375l4.0 0l0 20.140625q0 6.15625 -3.078125 9.0625q-3.078125 2.90625 -9.015625 2.90625zm-0.53125 -9.765625q-3.390625 0 -6.0625 -1.421875q-2.65625 -1.4375 -4.21875 -3.984375q-1.5625 -2.5625 -1.5625 -5.90625q0 -3.375 1.5625 -5.90625q1.5625 -2.53125 4.21875 -3.9375q2.671875 -1.421875 6.0625 -1.421875q2.984375 0 5.453125 1.21875q2.46875 1.203125 3.9375 3.71875q1.46875 2.5 1.46875 6.328125q0 3.796875 -1.46875 6.3125q-1.46875 2.5 -3.9375 3.75q-2.46875 1.25 -5.453125 1.25zm0.484375 -3.6875q2.328125 0 4.125 -0.96875q1.8125 -0.96875 2.84375 -2.6875q1.03125 -1.71875 1.03125 -3.96875q0 -2.234375 -1.03125 -3.953125q-1.03125 -1.71875 -2.84375 -2.65625q-1.796875 -0.953125 -4.125 -0.953125q-2.328125 0 -4.15625 0.953125q-1.828125 0.9375 -2.875 2.65625q-1.03125 1.71875 -1.03125 3.953125q0 2.25 1.03125 3.96875q1.046875 1.71875 2.875 2.6875q1.828125 0.96875 4.15625 0.96875zm36.961548 4.65625l-8.671875 -23.3125l4.0 0l7.703125 21.109375l-1.890625 0l8.0 -21.109375l3.5625 0l7.84375 21.109375l-1.859375 0l7.890625 -21.109375l3.78125 0l-8.71875 23.3125l-4.046875 0l-7.34375 -19.265625l1.234375 0l-7.4375 19.265625l-4.046875 0zm44.34903 0.265625q-3.75 0 -6.59375 -1.53125q-2.828125 -1.546875 -4.390625 -4.234375q-1.5625 -2.6875 -1.5625 -6.15625q0 -3.484375 1.515625 -6.15625q1.53125 -2.6875 4.1875 -4.203125q2.65625 -1.53125 6.0 -1.53125q3.390625 0 5.984375 1.5q2.59375 1.5 4.0625 4.203125q1.484375 2.703125 1.484375 6.3125q0 0.265625 -0.03125 0.625q-0.015625 0.34375 -0.0625 0.65625l-19.84375 0l0 -3.03125l17.65625 0l-1.71875 1.046875q0.046875 -2.234375 -0.921875 -4.0q-0.96875 -1.765625 -2.671875 -2.75q-1.6875 -0.984375 -3.9375 -0.984375q-2.1875 0 -3.90625 0.984375q-1.71875 0.984375 -2.6875 2.765625q-0.96875 1.78125 -0.96875 4.078125l0 0.703125q0 2.328125 1.078125 4.15625q1.078125 1.828125 3.015625 2.84375q1.9375 1.0 4.4375 1.0q2.078125 0 3.765625 -0.703125q1.6875 -0.703125 2.96875 -2.109375l2.328125 2.734375q-1.578125 1.84375 -3.9375 2.8125q-2.34375 0.96875 -5.25 0.96875zm16.537323 -0.265625l0 -32.640625l4.234375 0l0 32.640625l-4.234375 0zm12.27597 0l0 -32.640625l4.234375 0l0 32.640625l-4.234375 0z" fill-rule="nonzero"/><path fill="#000000" d="m130.94324 417.99768l5.5625 -27.96875l8.0625 0l-5.5625 27.96875l-8.0625 0zm11.015625 -31.875q-2.171875 0 -3.484375 -1.21875q-1.296875 -1.21875 -1.296875 -3.0q0 -2.078125 1.484375 -3.453125q1.484375 -1.375 3.875 -1.375q2.1875 0 3.484375 1.171875q1.296875 1.171875 1.296875 2.875q0 2.25 -1.484375 3.625q-1.46875 1.375 -3.875 1.375zm26.428146 3.484375q3.59375 0 6.078125 1.484375q2.5 1.484375 3.53125 4.34375q1.046875 2.859375 0.21875 7.0625l-3.125 15.5l-8.109375 0l3.015625 -14.96875q0.625 -3.078125 -0.5 -4.734375q-1.109375 -1.671875 -4.078125 -1.671875q-3.0625 0 -5.125 1.765625q-2.046875 1.765625 -2.828125 5.40625l-2.8125 14.203125l-8.109375 0l5.5625 -27.96875l7.703125 0l-1.609375 7.890625l-1.15625 -2.390625q2.03125 -3.0625 5.015625 -4.484375q3.0 -1.4375 6.328125 -1.4375zm15.291412 17.0l1.296875 -6.5l14.71875 0l-1.296875 6.5l-14.71875 0zm34.154526 11.8125q-4.3125 0 -7.515625 -1.5625q-3.1875 -1.5625 -4.953125 -4.359375q-1.765625 -2.8125 -1.765625 -6.609375q0 -4.6875 2.171875 -8.34375q2.1875 -3.671875 6.03125 -5.796875q3.859375 -2.140625 8.84375 -2.140625q4.46875 0 7.75 1.84375q3.28125 1.84375 4.828125 5.234375l-6.859375 3.421875q-0.875 -1.96875 -2.46875 -2.875q-1.578125 -0.921875 -3.765625 -0.921875q-2.390625 0 -4.265625 1.171875q-1.875 1.171875 -2.96875 3.234375q-1.09375 2.046875 -1.09375 4.75q0 2.859375 1.6875 4.546875q1.703125 1.6875 4.8125 1.6875q2.140625 0 3.90625 -0.90625q1.765625 -0.90625 2.96875 -2.828125l5.96875 3.734375q-1.96875 3.171875 -5.484375 4.953125q-3.5 1.765625 -7.828125 1.765625zm37.70616 -28.8125q3.5312653 0 6.0312653 1.484375q2.5 1.484375 3.5625 4.34375q1.0625 2.859375 0.234375 7.0625l-3.125 15.5l-8.10939 0l3.0156403 -14.96875q0.625 -3.078125 -0.5 -4.734375q-1.1093903 -1.671875 -4.0781403 -1.671875q-3.0625 0 -5.125 1.765625q-2.046875 1.765625 -2.828125 5.40625l-2.8125 14.203125l-8.109375 0l7.703125 -38.578125l8.109375 0l-3.6875 18.5l-1.625 -2.390625q2.03125 -3.0625 5.015625 -4.484375q3.0 -1.4375 6.328125 -1.4375zm26.936905 28.8125q-3.21875 0 -5.984375 -1.484375q-2.75 -1.484375 -4.421875 -4.28125q-1.65625 -2.8125 -1.65625 -6.765625q0 -3.546875 1.171875 -6.5q1.171875 -2.96875 3.296875 -5.15625q2.125 -2.1875 4.9375 -3.40625q2.8125 -1.21875 6.03125 -1.21875q3.484375 0 5.984375 1.296875q2.5 1.296875 3.71875 4.03125q1.21875 2.734375 0.859375 7.046875q-0.265625 4.9375 -2.03125 8.65625q-1.765625 3.71875 -4.765625 5.75q-2.984375 2.03125 -7.140625 2.03125zm2.5 -6.71875q2.390625 0 4.234375 -1.15625q1.84375 -1.171875 2.90625 -3.21875q1.078125 -2.0625 1.078125 -4.828125q0 -2.859375 -1.703125 -4.515625q-1.6875 -1.671875 -4.703125 -1.671875q-2.34375 0 -4.21875 1.171875q-1.859375 1.171875 -2.9375 3.234375q-1.0625 2.046875 -1.0625 4.796875q0 2.859375 1.6875 4.53125q1.703125 1.65625 4.71875 1.65625zm5.5625 6.296875l1.09375 -5.5625l1.8125 -8.328125l1.09375 -8.3125l1.140625 -5.765625l8.109375 0l-5.5625 27.96875l-7.6875 0zm37.02066 -28.390625q3.59375 0 6.078125 1.484375q2.5 1.484375 3.53125 4.34375q1.046875 2.859375 0.21875 7.0625l-3.125 15.5l-8.109375 0l3.015625 -14.96875q0.625 -3.078125 -0.5 -4.734375q-1.109375 -1.671875 -4.078125 -1.671875q-3.0625 0 -5.125 1.765625q-2.046875 1.765625 -2.828125 5.40625l-2.8125 14.203125l-8.109375 0l5.5625 -27.96875l7.703125 0l-1.609375 7.890625l-1.15625 -2.390625q2.03125 -3.0625 5.015625 -4.484375q3.0 -1.4375 6.328125 -1.4375zm35.932068 0q3.59375 0 6.078125 1.484375q2.5 1.484375 3.53125 4.34375q1.046875 2.859375 0.21875 7.0625l-3.125 15.5l-8.109375 0l3.015625 -14.96875q0.625 -3.078125 -0.5 -4.734375q-1.109375 -1.671875 -4.078125 -1.671875q-3.0625 0 -5.125 1.765625q-2.0469055 1.765625 -2.8281555 5.40625l-2.8125 14.203125l-8.109375 0l5.5625 -27.96875l7.7031555 0l-1.6094055 7.890625l-1.15625 -2.390625q2.03125 -3.0625 5.0156555 -4.484375q3.0 -1.4375 6.328125 -1.4375zm29.171265 28.8125q-4.375 0 -7.578125 -1.5625q-3.1875 -1.5625 -4.953125 -4.359375q-1.765625 -2.8125 -1.765625 -6.609375q0 -4.6875 2.09375 -8.34375q2.109375 -3.671875 5.828125 -5.796875q3.71875 -2.140625 8.5625 -2.140625q4.109375 0 7.0625 1.53125q2.96875 1.53125 4.609375 4.265625q1.640625 2.734375 1.640625 6.53125q0 1.09375 -0.140625 2.1875q-0.125 1.078125 -0.328125 2.078125l-23.140625 0l0.828125 -4.734375l18.515625 0l-3.328125 1.453125q0.421875 -2.34375 -0.265625 -3.921875q-0.671875 -1.59375 -2.1875 -2.453125q-1.5 -0.859375 -3.625 -0.859375q-2.65625 0 -4.5 1.28125q-1.84375 1.265625 -2.78125 3.515625q-0.9375 2.234375 -0.9375 5.03125q0 3.234375 1.78125 4.828125q1.796875 1.578125 5.4375 1.578125q2.140625 0 4.109375 -0.671875q1.984375 -0.6875 3.390625 -1.9375l3.375 5.359375q-2.453125 1.921875 -5.5 2.84375q-3.03125 0.90625 -6.203125 0.90625zm17.781067 -0.421875l7.703125 -38.578125l8.109375 0l-7.703125 38.578125l-8.109375 0zm25.698853 -12.640625q0.359375 -1.96875 1.296875 -3.375q0.9375 -1.40625 2.15625 -2.5q1.21875 -1.09375 2.515625 -2.015625q1.296875 -0.9375 2.390625 -1.828125q1.09375 -0.890625 1.765625 -1.890625q0.6875 -1.015625 0.6875 -2.421875q0 -1.609375 -1.3125 -2.578125q-1.296875 -0.96875 -3.734375 -0.96875q-2.546875 0 -4.609375 1.046875q-2.046875 1.046875 -3.5625 2.90625l-5.453125 -4.0q2.34375 -3.125 6.296875 -4.9375q3.953125 -1.828125 8.984375 -1.828125q3.703125 0 6.40625 1.078125q2.703125 1.0625 4.1875 3.046875q1.484375 1.96875 1.484375 4.625q0 2.234375 -0.765625 3.90625q-0.75 1.65625 -1.953125 2.859375q-1.1875 1.1875 -2.59375 2.203125q-1.40625 1.015625 -2.734375 1.984375q-1.328125 0.953125 -2.296875 2.078125q-0.953125 1.109375 -1.3125 2.609375l-7.84375 0zm2.015625 13.0625q-2.078125 0 -3.4375 -1.265625q-1.34375 -1.28125 -1.34375 -3.109375q0 -2.1875 1.53125 -3.578125q1.546875 -1.40625 3.71875 -1.40625q2.078125 0 3.40625 1.21875q1.328125 1.21875 1.328125 3.03125q0 1.40625 -0.703125 2.578125q-0.703125 1.171875 -1.875 1.859375q-1.15625 0.671875 -2.625 0.671875z" fill-rule="nonzero"/><g filter="url(#shadowFilter-g389dea38672_0_0.1)"><use xlink:href="#g389dea38672_0_0.1" transform="matrix(1.0 0.0 0.0 1.0 0.0 2.0)"/></g><defs><filter id="shadowFilter-g389dea38672_0_0.1" filterUnits="userSpaceOnUse"><feGaussianBlur in="SourceAlpha" stdDeviation="2.0" result="blur"/><feComponentTransfer in="blur" color-interpolation-filters="sRGB"><feFuncR type="linear" slope="0" intercept="0.0"/><feFuncG type="linear" slope="0" intercept="0.0"/><feFuncB type="linear" slope="0" intercept="0.0"/><feFuncA type="linear" slope="0.5" intercept="0"/></feComponentTransfer></filter></defs><g id="g389dea38672_0_0.1"><path fill="#21caab" d="m541.61005 385.25116l0 0c0 -16.826904 13.64093 -30.467804 30.467834 -30.467804l264.04077 0c8.080566 0 15.830139 3.2099915 21.543945 8.923798c5.713867 5.7138367 8.923828 13.46344 8.923828 21.544006l0 121.86752c0 16.826935 -13.640869 30.467804 -30.467773 30.467804l-264.04077 0c-16.826904 0 -30.467834 -13.640869 -30.467834 -30.467804z" fill-rule="evenodd"/><path fill="#ffffff" d="m583.17084 436.58493l0 -28.0l5.375 0l11.90625 19.765625l-2.828125 0l11.71875 -19.765625l5.3125 0l0.078125 28.0l-6.078125 0l-0.03125 -18.6875l1.109375 0l-9.359375 15.734375l-2.921875 0l-9.546875 -15.734375l1.359375 0l0 18.6875l-6.09375 0zm46.840576 0.3125q-2.671875 0 -4.78125 -1.03125q-2.09375 -1.046875 -3.25 -3.1875q-1.15625 -2.140625 -1.15625 -5.453125l0 -12.15625l6.234375 0l0 11.234375q0 2.6875 1.140625 3.953125q1.140625 1.25 3.21875 1.25q1.4375 0 2.5625 -0.609375q1.125 -0.625 1.75 -1.921875q0.640625 -1.3125 0.640625 -3.265625l0 -10.640625l6.25 0l0 21.515625l-5.921875 0l0 -5.921875l1.078125 1.71875q-1.078125 2.25 -3.1875 3.390625q-2.09375 1.125 -4.578125 1.125zm18.401855 -0.3125l0 -29.6875l6.25 0l0 29.6875l-6.25 0zm20.85254 0.3125q-3.8125 0 -5.9375 -1.9375q-2.109375 -1.9375 -2.109375 -5.78125l0 -18.875l6.234375 0l0 18.796875q0 1.359375 0.71875 2.109375q0.71875 0.734375 1.96875 0.734375q1.484375 0 2.515625 -0.796875l1.6875 4.390625q-0.96875 0.6875 -2.3125 1.03125q-1.328125 0.328125 -2.765625 0.328125zm-11.375 -17.03125l0 -4.796875l14.921875 0l0 4.796875l-14.921875 0zm19.962463 16.71875l0 -21.515625l6.25 0l0 21.515625l-6.25 0zm3.125 -24.515625q-1.71875 0 -2.796875 -1.0q-1.078125 -1.0 -1.078125 -2.484375q0 -1.484375 1.078125 -2.484375q1.078125 -1.0 2.796875 -1.0q1.71875 0 2.796875 0.953125q1.078125 0.9375 1.078125 2.40625q0 1.5625 -1.0625 2.59375q-1.046875 1.015625 -2.8125 1.015625zm8.118103 15.75l0 -5.0l11.328125 0l0 5.0l-11.328125 0zm21.046875 8.765625l0 -22.71875l-8.96875 0l0 -5.28125l24.40625 0l0 5.28125l-8.96875 0l0 22.71875l-6.46875 0zm26.519958 0.3125q-3.4375 0 -6.109375 -1.4375q-2.65625 -1.4375 -4.203125 -3.9375q-1.53125 -2.5 -1.53125 -5.703125q0 -3.234375 1.53125 -5.734375q1.546875 -2.5 4.203125 -3.921875q2.671875 -1.421875 6.109375 -1.421875q3.390625 0 6.0625 1.421875q2.6875 1.421875 4.203125 3.90625q1.53125 2.46875 1.53125 5.75q0 3.203125 -1.53125 5.703125q-1.515625 2.5 -4.203125 3.9375q-2.671875 1.4375 -6.0625 1.4375zm0 -5.109375q1.5625 0 2.796875 -0.71875q1.234375 -0.71875 1.953125 -2.0625q0.71875 -1.34375 0.71875 -3.1875q0 -1.875 -0.71875 -3.1875q-0.71875 -1.328125 -1.953125 -2.046875q-1.234375 -0.71875 -2.796875 -0.71875q-1.5625 0 -2.8125 0.71875q-1.234375 0.71875 -1.984375 2.046875q-0.734375 1.3125 -0.734375 3.1875q0 1.84375 0.734375 3.1875q0.75 1.34375 1.984375 2.0625q1.25 0.71875 2.8125 0.71875zm25.028137 5.109375q-2.671875 0 -4.78125 -1.03125q-2.09375 -1.046875 -3.25 -3.1875q-1.15625 -2.140625 -1.15625 -5.453125l0 -12.15625l6.234375 0l0 11.234375q0 2.6875 1.140625 3.953125q1.140625 1.25 3.21875 1.25q1.4375 0 2.5625 -0.609375q1.125 -0.625 1.75 -1.921875q0.640625 -1.3125 0.640625 -3.265625l0 -10.640625l6.25 0l0 21.515625l-5.921875 0l0 -5.921875l1.078125 1.71875q-1.078125 2.25 -3.1875 3.390625q-2.09375 1.125 -4.578125 1.125zm28.808105 0q-3.484375 0 -6.203125 -1.40625q-2.71875 -1.421875 -4.265625 -3.9375q-1.53125 -2.53125 -1.53125 -5.734375q0 -3.234375 1.53125 -5.734375q1.546875 -2.5 4.265625 -3.921875q2.71875 -1.421875 6.203125 -1.421875q3.40625 0 5.921875 1.421875q2.515625 1.421875 3.71875 4.0625l-4.84375 2.59375q-0.84375 -1.515625 -2.109375 -2.234375q-1.25 -0.71875 -2.734375 -0.71875q-1.59375 0 -2.875 0.71875q-1.28125 0.71875 -2.03125 2.046875q-0.734375 1.3125 -0.734375 3.1875q0 1.890625 0.734375 3.21875q0.75 1.3125 2.03125 2.03125q1.28125 0.71875 2.875 0.71875q1.484375 0 2.734375 -0.703125q1.265625 -0.703125 2.109375 -2.265625l4.84375 2.640625q-1.203125 2.609375 -3.71875 4.03125q-2.515625 1.40625 -5.921875 1.40625zm13.07373 -0.3125l0 -29.6875l6.25 0l0 14.125l-1.40625 -1.796875q1.15625 -2.15625 3.3125 -3.3125q2.171875 -1.171875 4.921875 -1.171875q2.5625 0 4.578125 1.03125q2.03125 1.015625 3.1875 3.125q1.15625 2.09375 1.15625 5.375l0 12.3125l-6.234375 0l0 -11.359375q0 -2.59375 -1.140625 -3.828125q-1.140625 -1.25 -3.21875 -1.25q-1.484375 0 -2.671875 0.625q-1.171875 0.609375 -1.828125 1.890625q-0.65625 1.28125 -0.65625 3.28125l0 10.640625l-6.25 0z" fill-rule="nonzero"/><path fill="#ffffff" d="m587.61896 484.58493l12.484375 -28.0l6.390625 0l12.53125 28.0l-6.8125 0l-10.234375 -24.71875l2.5625 0l-10.28125 24.71875l-6.640625 0zm6.234375 -6.0l1.71875 -4.921875l14.40625 0l1.765625 4.921875l-17.890625 0zm36.252502 6.3125q-3.8125 0 -5.9375 -1.9375q-2.109375 -1.9375 -2.109375 -5.78125l0 -18.875l6.234375 0l0 18.796875q0 1.359375 0.71875 2.109375q0.71875 0.734375 1.96875 0.734375q1.484375 0 2.515625 -0.796875l1.6875 4.390625q-0.96875 0.6875 -2.3125 1.03125q-1.328125 0.328125 -2.765625 0.328125zm-11.375 -17.03125l0 -4.796875l14.921875 0l0 4.796875l-14.921875 0zm28.294983 17.03125q-3.8125 0 -5.9375 -1.9375q-2.109375 -1.9375 -2.109375 -5.78125l0 -18.875l6.234375 0l0 18.796875q0 1.359375 0.71875 2.109375q0.71875 0.734375 1.96875 0.734375q1.484375 0 2.515625 -0.796875l1.6875 4.390625q-0.96875 0.6875 -2.3125 1.03125q-1.328125 0.328125 -2.765625 0.328125zm-11.375 -17.03125l0 -4.796875l14.921875 0l0 4.796875l-14.921875 0zm19.962463 16.71875l0 -21.515625l5.96875 0l0 6.078125l-0.84375 -1.765625q0.953125 -2.28125 3.078125 -3.453125q2.125 -1.1875 5.15625 -1.1875l0 5.765625q-0.390625 -0.046875 -0.71875 -0.0625q-0.3125 -0.015625 -0.671875 -0.015625q-2.5625 0 -4.140625 1.46875q-1.578125 1.453125 -1.578125 4.53125l0 10.15625l-6.25 0zm17.079956 0l0 -21.515625l6.25 0l0 21.515625l-6.25 0zm3.125 -24.515625q-1.71875 0 -2.796875 -1.0q-1.078125 -1.0 -1.078125 -2.484375q0 -1.484375 1.078125 -2.484375q1.078125 -1.0 2.796875 -1.0q1.71875 0 2.796875 0.953125q1.078125 0.9375 1.078125 2.40625q0 1.5625 -1.0625 2.59375q-1.046875 1.015625 -2.8125 1.015625zm21.63379 24.828125q-2.828125 0 -4.875 -1.1875q-2.03125 -1.203125 -3.125 -3.65625q-1.078125 -2.46875 -1.078125 -6.234375q0 -3.796875 1.140625 -6.234375q1.140625 -2.4375 3.171875 -3.640625q2.046875 -1.203125 4.765625 -1.203125q3.046875 0 5.46875 1.359375q2.421875 1.359375 3.828125 3.84375q1.421875 2.484375 1.421875 5.875q0 3.359375 -1.421875 5.84375q-1.40625 2.484375 -3.828125 3.859375q-2.421875 1.375 -5.46875 1.375zm-12.71875 -0.3125l0 -29.6875l6.25 0l0 12.53125l-0.40625 6.359375l0.125 6.390625l0 4.40625l-5.96875 0zm11.640625 -4.796875q1.5625 0 2.78125 -0.71875q1.21875 -0.71875 1.953125 -2.0625q0.75 -1.34375 0.75 -3.1875q0 -1.875 -0.75 -3.1875q-0.734375 -1.328125 -1.953125 -2.046875q-1.21875 -0.71875 -2.78125 -0.71875q-1.5625 0 -2.796875 0.71875q-1.234375 0.71875 -1.953125 2.046875q-0.71875 1.3125 -0.71875 3.1875q0 1.84375 0.71875 3.1875q0.71875 1.34375 1.953125 2.0625q1.234375 0.71875 2.796875 0.71875zm25.037476 5.109375q-2.671875 0 -4.78125 -1.03125q-2.09375 -1.046875 -3.25 -3.1875q-1.15625 -2.140625 -1.15625 -5.453125l0 -12.15625l6.234375 0l0 11.234375q0 2.6875 1.140625 3.953125q1.140625 1.25 3.21875 1.25q1.4375 0 2.5625 -0.609375q1.125 -0.625 1.75 -1.921875q0.640625 -1.3125 0.640625 -3.265625l0 -10.640625l6.25 0l0 21.515625l-5.921875 0l0 -5.921875l1.078125 1.71875q-1.078125 2.25 -3.1875 3.390625q-2.09375 1.125 -4.578125 1.125zm27.214355 0q-3.8125 0 -5.9375 -1.9375q-2.109375 -1.9375 -2.109375 -5.78125l0 -18.875l6.234375 0l0 18.796875q0 1.359375 0.71875 2.109375q0.71875 0.734375 1.96875 0.734375q1.484375 0 2.515625 -0.796875l1.6875 4.390625q-0.96875 0.6875 -2.3125 1.03125q-1.328125 0.328125 -2.765625 0.328125zm-11.375 -17.03125l0 -4.796875l14.921875 0l0 4.796875l-14.921875 0zm19.962463 16.71875l0 -21.515625l6.25 0l0 21.515625l-6.25 0zm3.125 -24.515625q-1.71875 0 -2.796875 -1.0q-1.078125 -1.0 -1.078125 -2.484375q0 -1.484375 1.078125 -2.484375q1.078125 -1.0 2.796875 -1.0q1.71875 0 2.796875 0.953125q1.078125 0.9375 1.078125 2.40625q0 1.5625 -1.0625 2.59375q-1.046875 1.015625 -2.8125 1.015625zm19.164978 24.828125q-3.4375 0 -6.109375 -1.4375q-2.65625 -1.4375 -4.203125 -3.9375q-1.53125 -2.5 -1.53125 -5.703125q0 -3.234375 1.53125 -5.734375q1.546875 -2.5 4.203125 -3.921875q2.671875 -1.421875 6.109375 -1.421875q3.390625 0 6.0625 1.421875q2.6875 1.421875 4.203125 3.90625q1.53125 2.46875 1.53125 5.75q0 3.203125 -1.53125 5.703125q-1.515625 2.5 -4.203125 3.9375q-2.671875 1.4375 -6.0625 1.4375zm0 -5.109375q1.5625 0 2.796875 -0.71875q1.234375 -0.71875 1.953125 -2.0625q0.71875 -1.34375 0.71875 -3.1875q0 -1.875 -0.71875 -3.1875q-0.71875 -1.328125 -1.953125 -2.046875q-1.234375 -0.71875 -2.796875 -0.71875q-1.5625 0 -2.8125 0.71875q-1.234375 0.71875 -1.984375 2.046875q-0.734375 1.3125 -0.734375 3.1875q0 1.84375 0.734375 3.1875q0.75 1.34375 1.984375 2.0625q1.25 0.71875 2.8125 0.71875zm15.950012 4.796875l0 -21.515625l5.96875 0l0 5.953125l-1.125 -1.796875q1.15625 -2.15625 3.3125 -3.3125q2.171875 -1.171875 4.921875 -1.171875q2.5625 0 4.578125 1.03125q2.03125 1.015625 3.1875 3.125q1.15625 2.09375 1.15625 5.375l0 12.3125l-6.234375 0l0 -11.359375q0 -2.59375 -1.140625 -3.828125q-1.140625 -1.25 -3.21875 -1.25q-1.484375 0 -2.671875 0.625q-1.171875 0.609375 -1.828125 1.890625q-0.65625 1.28125 -0.65625 3.28125l0 10.640625l-6.25 0z" fill-rule="nonzero"/></g><g filter="url(#shadowFilter-g389dea38672_0_0.2)"><use xlink:href="#g389dea38672_0_0.2" transform="matrix(1.0 0.0 0.0 1.0 0.0 2.0)"/></g><defs><filter id="shadowFilter-g389dea38672_0_0.2" filterUnits="userSpaceOnUse"><feGaussianBlur in="SourceAlpha" stdDeviation="2.0" result="blur"/><feComponentTransfer in="blur" color-interpolation-filters="sRGB"><feFuncR type="linear" slope="0" intercept="0.0"/><feFuncG type="linear" slope="0" intercept="0.0"/><feFuncB type="linear" slope="0" intercept="0.0"/><feFuncA type="linear" slope="0.5" intercept="0"/></feComponentTransfer></filter></defs><g id="g389dea38672_0_0.2"><path fill="#21caab" d="m541.61005 187.851l0 0c0 -16.826904 13.64093 -30.467789 30.467834 -30.467789l264.04077 0c8.080566 0 15.830139 3.2099915 21.543945 8.923798c5.713867 5.7138214 8.923828 13.46344 8.923828 21.543991l0 121.86754c0 16.826904 -13.640869 30.467804 -30.467773 30.467804l-264.04077 0c-16.826904 0 -30.467834 -13.6409 -30.467834 -30.467804z" fill-rule="evenodd"/><path fill="#ffffff" d="m590.339 263.18478l12.484375 -28.000015l6.390625 0l12.53125 28.000015l-6.8125 0l-10.234375 -24.718765l2.5625 0l-10.28125 24.718765l-6.640625 0zm6.234375 -6.0l1.71875 -4.9218903l14.40625 0l1.765625 4.9218903l-17.890625 0zm28.077454 6.0l0 -28.000015l13.6875 0q5.28125 0 7.9375 2.0q2.65625 2.0 2.65625 5.28125q0 2.203125 -1.078125 3.828125q-1.078125 1.609375 -2.953125 2.5q-1.875 0.875 -4.328125 0.875l0.765625 -1.640625q2.640625 0 4.671875 0.859375q2.046875 0.859375 3.1875 2.546875q1.140625 1.671875 1.140625 4.109375q0 3.5937653 -2.84375 5.6250153q-2.84375 2.015625 -8.359375 2.015625l-14.484375 0zm6.453125 -4.875l7.546875 0q2.53125 0 3.828125 -0.8125q1.296875 -0.828125 1.296875 -2.6250153q0 -1.765625 -1.296875 -2.625q-1.296875 -0.859375 -3.828125 -0.859375l-8.03125 0l0 -4.71875l6.921875 0q2.359375 0 3.609375 -0.8125q1.265625 -0.828125 1.265625 -2.515625q0 -1.640625 -1.265625 -2.453125q-1.25 -0.828125 -3.609375 -0.828125l-6.4375 0l0 18.250015zm41.279358 4.875l0 -22.718765l-8.96875 0l0 -5.28125l24.40625 0l0 5.28125l-8.96875 0l0 22.718765l-6.46875 0zm26.957458 0.3125q-3.6875 0 -6.46875 -1.4375q-2.78125 -1.4375 -4.296875 -3.9375q-1.515625 -2.5000153 -1.515625 -5.7031403q0 -3.234375 1.5 -5.734375q1.5 -2.5 4.09375 -3.921875q2.609375 -1.421875 5.890625 -1.421875q3.15625 0 5.6875 1.34375q2.546875 1.34375 4.015625 3.84375q1.484375 2.5 1.484375 5.96875q0 0.375 -0.046875 0.828125q-0.03125 0.453125 -0.0625 0.859375l-17.484375 0l0 -3.640625l14.203125 0l-2.40625 1.078125q0 -1.671875 -0.6875 -2.90625q-0.671875 -1.25 -1.875 -1.953125q-1.1875 -0.703125 -2.796875 -0.703125q-1.59375 0 -2.8125 0.703125q-1.21875 0.703125 -1.90625 1.96875q-0.671875 1.25 -0.671875 2.96875l0 0.96875q0 1.75 0.765625 3.09375q0.78125 1.3437653 2.203125 2.0468903q1.421875 0.6875 3.34375 0.6875q1.71875 0 3.015625 -0.515625q1.3125 -0.515625 2.390625 -1.5625l3.3125 3.609375q-1.484375 1.671875 -3.71875 2.578125q-2.234375 0.890625 -5.15625 0.890625zm21.80249 0q-2.765625 0 -5.3125 -0.65625q-2.53125 -0.65625 -4.015625 -1.65625l2.078125 -4.484375q1.484375 0.921875 3.5 1.5q2.03125 0.578125 3.984375 0.578125q2.15625 0 3.046875 -0.515625q0.90625 -0.515625 0.90625 -1.4375q0 -0.765625 -0.703125 -1.1406403q-0.6875 -0.375 -1.859375 -0.578125q-1.15625 -0.203125 -2.53125 -0.40625q-1.375 -0.203125 -2.78125 -0.53125q-1.390625 -0.34375 -2.5625 -1.015625q-1.15625 -0.6875 -1.859375 -1.84375q-0.703125 -1.171875 -0.703125 -3.0q0 -2.046875 1.1875 -3.609375q1.1875 -1.5625 3.421875 -2.453125q2.234375 -0.90625 5.359375 -0.90625q2.203125 0 4.484375 0.484375q2.28125 0.484375 3.796875 1.40625l-2.078125 4.4375q-1.5625 -0.921875 -3.140625 -1.265625q-1.578125 -0.34375 -3.0625 -0.34375q-2.078125 0 -3.046875 0.5625q-0.953125 0.5625 -0.953125 1.4375q0 0.8125 0.703125 1.21875q0.703125 0.390625 1.859375 0.625q1.15625 0.234375 2.53125 0.421875q1.390625 0.171875 2.78125 0.546875q1.40625 0.359375 2.546875 1.015625q1.140625 0.65625 1.859375 1.796875q0.71875 1.140625 0.71875 2.9843903q0 2.0 -1.203125 3.546875q-1.203125 1.53125 -3.46875 2.40625q-2.25 0.875 -5.484375 0.875zm22.80249 0q-3.8125 0 -5.9375 -1.9375q-2.109375 -1.9375 -2.109375 -5.7812653l0 -18.875l6.234375 0l0 18.796875q0 1.3593903 0.71875 2.1093903q0.71875 0.734375 1.96875 0.734375q1.484375 0 2.515625 -0.796875l1.6875 4.390625q-0.96875 0.6875 -2.3125 1.03125q-1.328125 0.328125 -2.765625 0.328125zm-11.375 -17.031265l0 -4.796875l14.921875 0l0 4.796875l-14.921875 0zm19.962463 16.718765l0 -21.51564l6.25 0l0 21.51564l-6.25 0zm3.125 -24.51564q-1.71875 0 -2.796875 -1.0q-1.078125 -1.0 -1.078125 -2.484375q0 -1.484375 1.078125 -2.484375q1.078125 -1.0 2.796875 -1.0q1.71875 0 2.796875 0.953125q1.078125 0.9375 1.078125 2.40625q0 1.5625 -1.0625 2.59375q-1.046875 1.015625 -2.8125 1.015625zm8.914978 24.51564l0 -21.51564l5.96875 0l0 5.953125l-1.125 -1.796875q1.15625 -2.15625 3.3125 -3.3125q2.171875 -1.171875 4.921875 -1.171875q2.5625 0 4.578125 1.03125q2.03125 1.015625 3.1875 3.125q1.15625 2.09375 1.15625 5.375l0 12.312515l-6.234375 0l0 -11.35939q0 -2.59375 -1.140625 -3.828125q-1.140625 -1.25 -3.21875 -1.25q-1.484375 0 -2.671875 0.625q-1.171875 0.609375 -1.828125 1.890625q-0.65625 1.28125 -0.65625 3.28125l0 10.64064l-6.25 0zm37.924988 8.078125q-3.046875 0 -5.875 -0.75q-2.8125 -0.734375 -4.6875 -2.203125l2.484375 -4.484375q1.359375 1.125 3.453125 1.78125q2.109375 0.65625 4.140625 0.65625q3.328125 0 4.828125 -1.484375q1.5 -1.46875 1.5 -4.390625l0 -3.25l0.390625 -5.3906403l-0.078125 -5.4375l0 -4.640625l5.921875 0l0 17.92189q0 6.0 -3.125 8.828125q-3.109375 2.84375 -8.953125 2.84375zm-0.953125 -9.125q-3.0 0 -5.421875 -1.296875q-2.421875 -1.296875 -3.890625 -3.625q-1.453125 -2.3437653 -1.453125 -5.4687653q0 -3.15625 1.453125 -5.5q1.46875 -2.34375 3.890625 -3.625q2.421875 -1.28125 5.421875 -1.28125q2.71875 0 4.796875 1.109375q2.078125 1.09375 3.234375 3.390625q1.15625 2.296875 1.15625 5.90625q0 3.5625 -1.15625 5.8593903q-1.15625 2.296875 -3.234375 3.421875q-2.078125 1.109375 -4.796875 1.109375zm1.234375 -5.109375q1.640625 0 2.921875 -0.65625q1.28125 -0.67189026 2.0 -1.8593903q0.71875 -1.203125 0.71875 -2.765625q0 -1.609375 -0.71875 -2.78125q-0.71875 -1.1875 -2.0 -1.84375q-1.28125 -0.65625 -2.921875 -0.65625q-1.640625 0 -2.921875 0.65625q-1.28125 0.65625 -2.03125 1.84375q-0.734375 1.171875 -0.734375 2.78125q0 1.5625 0.734375 2.765625q0.75 1.1875 2.03125 1.8593903q1.28125 0.65625 2.921875 0.65625z" fill-rule="nonzero"/></g><path fill="#000000" fill-opacity="0.0" d="m98.59827 572.29956l388.50394 0l0 323.71655l-388.50394 0z" fill-rule="evenodd"/><path fill="#000000" d="m123.889725 661.1978l-10.296875 -30.796875l4.53125 0l9.46875 28.421875l-2.296875 0l9.8125 -28.421875l4.046875 0l9.59375 28.421875l-2.203125 0l9.59375 -28.421875l4.1875 0l-10.296875 30.796875l-4.625 0l-8.96875 -26.359375l1.1875 0l-9.03125 26.359375l-4.703125 0zm41.224777 0l0 -32.640625l4.234375 0l0 15.609375l-0.84375 -1.671875q1.140625 -2.28125 3.515625 -3.5625q2.375 -1.28125 5.546875 -1.28125q2.859375 0 5.03125 1.109375q2.1875 1.09375 3.421875 3.34375q1.234375 2.234375 1.234375 5.671875l0 13.421875l-4.234375 0l0 -12.9375q0 -3.390625 -1.65625 -5.09375q-1.640625 -1.71875 -4.625 -1.71875q-2.25 0 -3.921875 0.875q-1.671875 0.875 -2.578125 2.59375q-0.890625 1.71875 -0.890625 4.265625l0 12.015625l-4.234375 0zm44.44832 0l0 -4.921875l-0.21875 -0.9375l0 -8.390625q0 -2.6875 -1.5625 -4.15625q-1.5625 -1.484375 -4.6875 -1.484375q-2.078125 0 -4.0625 0.6875q-1.96875 0.671875 -3.328125 1.828125l-1.765625 -3.171875q1.796875 -1.453125 4.328125 -2.21875q2.53125 -0.78125 5.3125 -0.78125q4.796875 0 7.390625 2.34375q2.59375 2.328125 2.59375 7.125l0 14.078125l-4.0 0zm-7.65625 0.265625q-2.59375 0 -4.5625 -0.875q-1.953125 -0.890625 -3.015625 -2.453125q-1.046875 -1.5625 -1.046875 -3.53125q0 -1.890625 0.890625 -3.4375q0.90625 -1.546875 2.953125 -2.46875q2.046875 -0.921875 5.53125 -0.921875l7.390625 0l0 3.03125l-7.21875 0q-3.171875 0 -4.28125 1.0625q-1.09375 1.0625 -1.09375 2.546875q0 1.71875 1.359375 2.765625q1.375 1.03125 3.796875 1.03125q2.375 0 4.15625 -1.0625q1.78125 -1.0625 2.578125 -3.078125l0.828125 2.90625q-0.828125 2.0625 -2.953125 3.28125q-2.109375 1.203125 -5.3125 1.203125zm27.49945 0q-3.53125 0 -5.46875 -1.890625q-1.921875 -1.890625 -1.921875 -5.421875l0 -21.375l4.21875 0l0 21.203125q0 1.890625 0.9375 2.90625q0.953125 1.015625 2.71875 1.015625q1.96875 0 3.296875 -1.109375l1.3125 3.046875q-0.96875 0.828125 -2.3125 1.234375q-1.328125 0.390625 -2.78125 0.390625zm-11.359375 -20.109375l0 -3.46875l14.875 0l0 3.46875l-14.875 0zm33.39569 19.84375l0 -23.3125l4.234375 0l0 23.3125l-4.234375 0zm2.125 -27.8125q-1.234375 0 -2.046875 -0.78125q-0.8125 -0.796875 -0.8125 -1.9375q0 -1.1875 0.8125 -1.984375q0.8125 -0.796875 2.046875 -0.796875q1.234375 0 2.046875 0.78125q0.81248474 0.765625 0.81248474 1.90625q0 1.1875 -0.79685974 2.0q-0.796875 0.8125 -2.0625 0.8125zm16.838455 28.078125q-2.90625 0 -5.53125 -0.78125q-2.609375 -0.796875 -4.09375 -1.953125l1.75 -3.34375q1.5 1.015625 3.703125 1.71875q2.203125 0.703125 4.484375 0.703125q2.953125 0 4.25 -0.828125q1.296875 -0.84375 1.296875 -2.34375q0 -1.09375 -0.796875 -1.703125q-0.796875 -0.625 -2.09375 -0.921875q-1.296875 -0.3125 -2.875 -0.546875q-1.578125 -0.25 -3.171875 -0.625q-1.578125 -0.375 -2.90625 -1.046875q-1.3125 -0.6875 -2.109375 -1.890625q-0.796875 -1.21875 -0.796875 -3.25q0 -2.109375 1.1875 -3.6875q1.203125 -1.59375 3.375 -2.453125q2.171875 -0.859375 5.171875 -0.859375q2.28125 0 4.640625 0.5625q2.359375 0.546875 3.84375 1.5625l-1.796875 3.34375q-1.59375 -1.0625 -3.3125 -1.453125q-1.703125 -0.40625 -3.421875 -0.40625q-2.765625 0 -4.140625 0.90625q-1.359375 0.90625 -1.359375 2.3125q0 1.1875 0.8125 1.828125q0.8125 0.640625 2.109375 1.0q1.296875 0.34375 2.875 0.59375q1.59375 0.234375 3.171875 0.609375q1.59375 0.375 2.890625 1.03125q1.296875 0.65625 2.109375 1.84375q0.8125 1.1875 0.8125 3.171875q0 2.109375 -1.234375 3.65625q-1.234375 1.53125 -3.484375 2.390625q-2.234375 0.859375 -5.359375 0.859375zm35.20807 0q-3.53125 0 -5.46875 -1.890625q-1.921875 -1.890625 -1.921875 -5.421875l0 -21.375l4.21875 0l0 21.203125q0 1.890625 0.9375 2.90625q0.953125 1.015625 2.71875 1.015625q1.96875 0 3.296875 -1.109375l1.3125 3.046875q-0.96875 0.828125 -2.3125 1.234375q-1.328125 0.390625 -2.78125 0.390625zm-11.359375 -20.109375l0 -3.46875l14.875 0l0 3.46875l-14.875 0zm21.559723 19.84375l0 -32.640625l4.234375 0l0 15.609375l-0.84375 -1.671875q1.140625 -2.28125 3.515625 -3.5625q2.375 -1.28125 5.546875 -1.28125q2.859375 0 5.03125 1.109375q2.1875 1.09375 3.421875 3.34375q1.234375 2.234375 1.234375 5.671875l0 13.421875l-4.234375 0l0 -12.9375q0 -3.390625 -1.65625 -5.09375q-1.640625 -1.71875 -4.625 -1.71875q-2.25 0 -3.921875 0.875q-1.671875 0.875 -2.578125 2.59375q-0.890625 1.71875 -0.890625 4.265625l0 12.015625l-4.234375 0zm40.354553 0.265625q-3.75 0 -6.59375 -1.53125q-2.828125 -1.546875 -4.390625 -4.234375q-1.5625 -2.6875 -1.5625 -6.15625q0 -3.484375 1.515625 -6.15625q1.53125 -2.6875 4.1875 -4.203125q2.65625 -1.53125 6.0 -1.53125q3.390625 0 5.984375 1.5q2.59375 1.5 4.0625 4.203125q1.484375 2.703125 1.484375 6.3125q0 0.265625 -0.03125 0.625q-0.015625 0.34375 -0.0625 0.65625l-19.84375 0l0 -3.03125l17.65625 0l-1.71875 1.046875q0.046875 -2.234375 -0.921875 -4.0q-0.96875 -1.765625 -2.671875 -2.75q-1.6875 -0.984375 -3.9375 -0.984375q-2.1875 0 -3.90625 0.984375q-1.71875 0.984375 -2.6875 2.765625q-0.96875 1.78125 -0.96875 4.078125l0 0.703125q0 2.328125 1.078125 4.15625q1.078125 1.828125 3.015625 2.84375q1.9375 1.0 4.4375 1.0q2.078125 0 3.765625 -0.703125q1.6875 -0.703125 2.96875 -2.109375l2.328125 2.734375q-1.578125 1.84375 -3.9375 2.8125q-2.34375 0.96875 -5.25 0.96875zm36.388916 0q-3.53125 0 -5.46875 -1.890625q-1.921875 -1.890625 -1.921875 -5.421875l0 -21.375l4.21875 0l0 21.203125q0 1.890625 0.9375 2.90625q0.953125 1.015625 2.71875 1.015625q1.96875 0 3.296875 -1.109375l1.3125 3.046875q-0.96875 0.828125 -2.3125 1.234375q-1.328125 0.390625 -2.78125 0.390625zm-11.359375 -20.109375l0 -3.46875l14.875 0l0 3.46875l-14.875 0zm21.559692 19.84375l0 -23.3125l4.046875 0l0 6.328125l-0.390625 -1.578125q0.96875 -2.421875 3.25 -3.703125q2.296875 -1.28125 5.640625 -1.28125l0 4.09375q-0.265625 -0.03125 -0.515625 -0.03125q-0.234375 0 -0.453125 0q-3.390625 0 -5.375 2.03125q-1.96875 2.015625 -1.96875 5.84375l0 11.609375l-4.234375 0zm27.852478 0.265625q-2.984375 0 -5.25 -1.09375q-2.265625 -1.109375 -3.53125 -3.375q-1.25 -2.265625 -1.25 -5.703125l0 -13.40625l4.234375 0l0 12.921875q0 3.4375 1.640625 5.15625q1.65625 1.71875 4.640625 1.71875q2.203125 0 3.828125 -0.90625q1.625 -0.90625 2.5 -2.640625q0.890625 -1.734375 0.890625 -4.203125l0 -12.046875l4.21875 0l0 23.3125l-4.0 0l0 -6.296875l0.65625 1.671875q-1.140625 2.34375 -3.4375 3.625q-2.28125 1.265625 -5.140625 1.265625zm30.366089 0q-3.75 0 -6.59375 -1.53125q-2.828125 -1.546875 -4.390625 -4.234375q-1.5625 -2.6875 -1.5625 -6.15625q0 -3.484375 1.515625 -6.15625q1.53125 -2.6875 4.1875 -4.203125q2.65625 -1.53125 6.0 -1.53125q3.390625 0 5.984375 1.5q2.59375 1.5 4.0625 4.203125q1.484375 2.703125 1.484375 6.3125q0 0.265625 -0.03125 0.625q-0.015625 0.34375 -0.0625 0.65625l-19.84375 0l0 -3.03125l17.65625 0l-1.71875 1.046875q0.046875 -2.234375 -0.921875 -4.0q-0.96875 -1.765625 -2.671875 -2.75q-1.6875 -0.984375 -3.9375 -0.984375q-2.1875 0 -3.90625 0.984375q-1.71875 0.984375 -2.6875 2.765625q-0.96875 1.78125 -0.96875 4.078125l0 0.703125q0 2.328125 1.078125 4.15625q1.078125 1.828125 3.015625 2.84375q1.9375 1.0 4.4375 1.0q2.078125 0 3.765625 -0.703125q1.6875 -0.703125 2.96875 -2.109375l2.328125 2.734375q-1.578125 1.84375 -3.9375 2.8125q-2.34375 0.96875 -5.25 0.96875z" fill-rule="nonzero"/><path fill="#000000" d="m189.93045 713.99786l0 -23.3125l4.234375 0l0 23.3125l-4.234375 0zm2.125 -27.8125q-1.234375 0 -2.046875 -0.78125q-0.8125 -0.796875 -0.8125 -1.9375q0 -1.1875 0.8125 -1.984375q0.8125 -0.796875 2.046875 -0.796875q1.234375 0 2.046875 0.78125q0.8125 0.765625 0.8125 1.90625q0 1.1875 -0.796875 2.0q-0.796875 0.8125 -2.0625 0.8125zm10.15097 27.8125l0 -23.3125l4.046875 0l0 6.203125l-0.65625 -1.59375q1.09375 -2.28125 3.375 -3.5625q2.296875 -1.28125 5.34375 -1.28125q3.34375 0 5.75 1.65625q2.421875 1.65625 3.171875 5.0l-1.71875 -0.703125q1.0625 -2.6875 3.703125 -4.3125q2.640625 -1.640625 6.15625 -1.640625q2.8125 0 4.96875 1.109375q2.15625 1.09375 3.359375 3.34375q1.21875 2.234375 1.21875 5.671875l0 13.421875l-4.21875 0l0 -12.9375q0 -3.390625 -1.59375 -5.09375q-1.578125 -1.71875 -4.4375 -1.71875q-2.109375 0 -3.703125 0.875q-1.578125 0.875 -2.4375 2.59375q-0.859375 1.71875 -0.859375 4.265625l0 12.015625l-4.21875 0l0 -12.9375q0 -3.390625 -1.5625 -5.09375q-1.5625 -1.71875 -4.46875 -1.71875q-2.0625 0 -3.65625 0.875q-1.578125 0.875 -2.453125 2.59375q-0.875 1.71875 -0.875 4.265625l0 12.015625l-4.234375 0zm58.882904 0.265625q-2.90625 0 -5.3125 -1.34375q-2.390625 -1.34375 -3.828125 -3.984375q-1.421875 -2.640625 -1.421875 -6.59375q0 -3.96875 1.375 -6.609375q1.390625 -2.640625 3.78125 -3.953125q2.40625 -1.328125 5.40625 -1.328125q3.421875 0 6.0625 1.5q2.640625 1.5 4.171875 4.171875q1.546875 2.65625 1.546875 6.21875q0 3.5625 -1.546875 6.25q-1.53125 2.671875 -4.171875 4.171875q-2.640625 1.5 -6.0625 1.5zm-12.375 8.265625l0 -31.84375l4.046875 0l0 6.28125l-0.265625 5.421875l0.453125 5.40625l0 14.734375l-4.234375 0zm12.015625 -11.96875q2.25 0 4.03125 -1.0q1.78125 -1.015625 2.8125 -2.890625q1.03125 -1.875 1.03125 -4.328125q0 -2.515625 -1.03125 -4.328125q-1.03125 -1.828125 -2.8125 -2.84375q-1.78125 -1.015625 -4.03125 -1.015625q-2.203125 0 -3.984375 1.015625q-1.78125 1.015625 -2.8125 2.84375q-1.03125 1.8125 -1.03125 4.328125q0 2.453125 1.03125 4.328125q1.03125 1.875 2.8125 2.890625q1.78125 1.0 3.984375 1.0zm32.256683 3.4375l0 -4.921875l-0.21875 -0.9375l0 -8.390625q0 -2.6875 -1.5625 -4.15625q-1.5625 -1.484375 -4.6875 -1.484375q-2.078125 0 -4.0625 0.6875q-1.96875 0.671875 -3.328125 1.828125l-1.765625 -3.171875q1.796875 -1.453125 4.328125 -2.21875q2.53125 -0.78125 5.3125 -0.78125q4.796875 0 7.390625 2.34375q2.59375 2.328125 2.59375 7.125l0 14.078125l-4.0 0zm-7.65625 0.265625q-2.59375 0 -4.5625 -0.875q-1.953125 -0.890625 -3.015625 -2.453125q-1.046875 -1.5625 -1.046875 -3.53125q0 -1.890625 0.890625 -3.4375q0.90625 -1.546875 2.953125 -2.46875q2.046875 -0.921875 5.53125 -0.921875l7.390625 0l0 3.03125l-7.21875 0q-3.171875 0 -4.28125 1.0625q-1.09375 1.0625 -1.09375 2.546875q0 1.71875 1.359375 2.765625q1.375 1.03125 3.796875 1.03125q2.375 0 4.15625 -1.0625q1.78125 -1.0625 2.578125 -3.078125l0.828125 2.90625q-0.828125 2.0625 -2.953125 3.28125q-2.109375 1.203125 -5.3125 1.203125zm29.6557 0q-3.5625 0 -6.359375 -1.53125q-2.796875 -1.546875 -4.390625 -4.234375q-1.578125 -2.6875 -1.578125 -6.15625q0 -3.484375 1.578125 -6.15625q1.59375 -2.6875 4.390625 -4.203125q2.796875 -1.53125 6.359375 -1.53125q3.171875 0 5.65625 1.265625q2.484375 1.25 3.84375 3.71875l-3.21875 2.0625q-1.140625 -1.71875 -2.796875 -2.53125q-1.640625 -0.8125 -3.53125 -0.8125q-2.28125 0 -4.09375 1.015625q-1.796875 1.015625 -2.859375 2.84375q-1.0625 1.8125 -1.0625 4.328125q0 2.5 1.0625 4.359375q1.0625 1.84375 2.859375 2.859375q1.8125 1.0 4.09375 1.0q1.890625 0 3.53125 -0.8125q1.65625 -0.8125 2.796875 -2.53125l3.21875 2.03125q-1.359375 2.421875 -3.84375 3.71875q-2.484375 1.296875 -5.65625 1.296875zm23.275696 0q-3.53125 0 -5.46875 -1.890625q-1.921875 -1.890625 -1.921875 -5.421875l0 -21.375l4.21875 0l0 21.203125q0 1.890625 0.9375 2.90625q0.953125 1.015625 2.71875 1.015625q1.96875 0 3.296875 -1.109375l1.3125 3.046875q-0.96875 0.828125 -2.3125 1.234375q-1.328125 0.390625 -2.78125 0.390625zm-11.359375 -20.109375l0 -3.46875l14.875 0l0 3.46875l-14.875 0zm43.380066 20.109375q-3.515625 0 -6.25 -1.53125q-2.71875 -1.546875 -4.3125 -4.25q-1.578125 -2.71875 -1.578125 -6.140625q0 -3.484375 1.578125 -6.15625q1.59375 -2.6875 4.3125 -4.203125q2.734375 -1.53125 6.25 -1.53125q3.484375 0 6.234375 1.53125q2.75 1.515625 4.3125 4.171875q1.5625 2.65625 1.5625 6.1875q0 3.46875 -1.5625 6.15625q-1.5625 2.6875 -4.3125 4.234375q-2.75 1.53125 -6.234375 1.53125zm0 -3.703125q2.25 0 4.03125 -1.0q1.78125 -1.015625 2.796875 -2.890625q1.015625 -1.875 1.015625 -4.328125q0 -2.515625 -1.015625 -4.328125q-1.015625 -1.828125 -2.796875 -2.84375q-1.78125 -1.015625 -4.03125 -1.015625q-2.234375 0 -4.0 1.015625q-1.75 1.015625 -2.8125 2.84375q-1.0625 1.8125 -1.0625 4.328125q0 2.453125 1.0625 4.328125q1.0625 1.875 2.8125 2.890625q1.765625 1.0 4.0 1.0zm18.580566 3.4375l0 -25.390625q0 -3.421875 2.0 -5.46875q2.0 -2.046875 5.6875 -2.046875q1.375 0 2.625 0.328125q1.25 0.328125 2.140625 1.03125l-1.28125 3.203125q-0.65625 -0.515625 -1.5 -0.796875q-0.828125 -0.296875 -1.75 -0.296875q-1.859375 0 -2.828125 1.03125q-0.96875 1.03125 -0.96875 3.0625l0 3.125l0.09375 1.9375l0 20.28125l-4.21875 0zm-3.96875 -19.84375l0 -3.46875l14.875 0l0 3.46875l-14.875 0z" fill-rule="nonzero"/><path fill="#000000" d="m222.93716 774.8997q-3.21875 0 -5.984375 -1.484375q-2.75 -1.484375 -4.421875 -4.28125q-1.65625 -2.8125 -1.65625 -6.765625q0 -3.546875 1.171875 -6.5q1.171875 -2.96875 3.296875 -5.15625q2.125 -2.1875 4.9375 -3.40625q2.8125 -1.21875 6.03125 -1.21875q3.484375 0 5.984375 1.296875q2.5 1.296875 3.71875 4.03125q1.21875 2.734375 0.859375 7.046875q-0.265625 4.9375 -2.03125 8.65625q-1.765625 3.71875 -4.765625 5.75q-2.984375 2.03125 -7.140625 2.03125zm2.5 -6.71875q2.390625 0 4.234375 -1.15625q1.84375 -1.171875 2.90625 -3.21875q1.078125 -2.0625 1.078125 -4.828125q0 -2.859375 -1.703125 -4.515625q-1.6875 -1.671875 -4.703125 -1.671875q-2.34375 0 -4.21875 1.171875q-1.859375 1.171875 -2.9375 3.234375q-1.0625 2.046875 -1.0625 4.796875q0 2.859375 1.6875 4.53125q1.703125 1.65625 4.71875 1.65625zm5.5625 6.296875l1.09375 -5.5625l1.8125 -8.328125l1.09375 -8.3125l1.140625 -5.765625l8.109375 0l-5.5625 27.96875l-7.6875 0zm15.17691 0l7.703125 -38.578125l8.109375 0l-7.703125 38.578125l-8.109375 0zm15.652008 0l7.703125 -38.578125l8.109375 0l-7.703125 38.578125l-8.109375 0zm71.03989 -28.390625q3.53125 0 5.96875 1.484375q2.453125 1.484375 3.484375 4.34375q1.046875 2.859375 0.15625 7.0625l-3.0625 15.5l-8.109375 0l2.96875 -14.921875q0.671875 -3.125 -0.421875 -4.78125q-1.09375 -1.671875 -3.796875 -1.671875q-2.859375 0 -4.734375 1.703125q-1.875 1.6875 -2.59375 5.3125l-2.859375 14.359375l-8.109375 0l2.953125 -14.921875q0.625 -3.125 -0.4375 -4.78125q-1.0625 -1.671875 -3.765625 -1.671875q-2.859375 0 -4.734375 1.703125q-1.875 1.6875 -2.65625 5.421875l-2.8125 14.25l-8.109375 0l5.5625 -27.96875l7.703125 0l-1.453125 7.109375l-1.25 -1.609375q1.921875 -3.015625 4.78125 -4.46875q2.859375 -1.453125 6.078125 -1.453125q2.609375 0 4.6875 0.9375q2.078125 0.9375 3.40625 2.78125q1.328125 1.84375 1.53125 4.59375l-3.125 -0.78125q2.078125 -3.6875 5.328125 -5.609375q3.25 -1.921875 7.421875 -1.921875zm15.330048 38.890625q-2.125 0 -4.234375 -0.671875q-2.109375 -0.671875 -3.359375 -1.765625l3.75 -5.828125q0.890625 0.78125 2.0 1.25q1.125 0.46875 2.46875 0.46875q1.5625 0 2.734375 -0.78125q1.171875 -0.78125 2.3125 -2.65625l2.2344055 -3.53125l0.734375 -0.828125l14.765625 -24.125l8.0 0l-18.609375 29.84375q-2.078125 3.265625 -3.984375 5.15625q-1.890625 1.90625 -4.0000305 2.6875q-2.109375 0.78125 -4.8125 0.78125zm6.1875 -9.40625l-6.703125 -29.0625l8.1094055 0l5.09375 23.390625l-6.5000305 5.671875z" fill-rule="nonzero"/><path fill="#000000" d="m168.3301 837.2997q-4.3125 0 -7.515625 -1.5625q-3.1875 -1.5625 -4.953125 -4.359375q-1.765625 -2.8125 -1.765625 -6.609375q0 -4.6875 2.171875 -8.34375q2.1875 -3.671875 6.03125 -5.796875q3.859375 -2.140625 8.84375 -2.140625q4.46875 0 7.75 1.84375q3.28125 1.84375 4.828125 5.234375l-6.859375 3.421875q-0.875 -1.96875 -2.46875 -2.875q-1.578125 -0.921875 -3.765625 -0.921875q-2.390625 0 -4.265625 1.171875q-1.875 1.171875 -2.96875 3.234375q-1.09375 2.046875 -1.09375 4.75q0 2.859375 1.6875 4.546875q1.703125 1.6875 4.8125 1.6875q2.140625 0 3.90625 -0.90625q1.765625 -0.90625 2.96875 -2.828125l5.96875 3.734375q-1.96875 3.171875 -5.484375 4.953125q-3.5 1.765625 -7.828125 1.765625zm37.70616 -28.8125q3.53125 0 6.03125 1.484375q2.5 1.484375 3.5625 4.34375q1.0625 2.859375 0.234375 7.0625l-3.125 15.5l-8.109375 0l3.015625 -14.96875q0.625 -3.078125 -0.5 -4.734375q-1.109375 -1.671875 -4.078125 -1.671875q-3.0625 0 -5.125 1.765625q-2.046875 1.765625 -2.828125 5.40625l-2.8125 14.203125l-8.109375 0l7.703125 -38.578125l8.109375 0l-3.6875 18.5l-1.625 -2.390625q2.03125 -3.0625 5.015625 -4.484375q3.0 -1.4375 6.328125 -1.4375zm26.936905 28.8125q-3.21875 0 -5.984375 -1.484375q-2.75 -1.484375 -4.421875 -4.28125q-1.65625 -2.8125 -1.65625 -6.765625q0 -3.546875 1.171875 -6.5q1.171875 -2.96875 3.296875 -5.15625q2.125 -2.1875 4.9375 -3.40625q2.8125 -1.21875 6.03125 -1.21875q3.484375 0 5.984375 1.296875q2.5 1.296875 3.71875 4.03125q1.21875 2.734375 0.859375 7.046875q-0.265625 4.9375 -2.03125 8.65625q-1.765625 3.71875 -4.765625 5.75q-2.984375 2.03125 -7.140625 2.03125zm2.5 -6.71875q2.390625 0 4.234375 -1.15625q1.84375 -1.171875 2.90625 -3.21875q1.078125 -2.0625 1.078125 -4.828125q0 -2.859375 -1.703125 -4.515625q-1.6875 -1.671875 -4.703125 -1.671875q-2.34375 0 -4.21875 1.171875q-1.859375 1.171875 -2.9375 3.234375q-1.0625 2.046875 -1.0625 4.796875q0 2.859375 1.6875 4.53125q1.703125 1.65625 4.71875 1.65625zm5.5625 6.296875l1.09375 -5.5625l1.8125 -8.328125l1.09375 -8.3125l1.140625 -5.765625l8.109375 0l-5.5625 27.96875l-7.6875 0zm37.020645 -28.390625q3.59375 0 6.078125 1.484375q2.5 1.484375 3.53125 4.34375q1.046875 2.859375 0.21875 7.0625l-3.125 15.5l-8.109375 0l3.015625 -14.96875q0.625 -3.078125 -0.5 -4.734375q-1.109375 -1.671875 -4.078125 -1.671875q-3.0625 0 -5.125 1.765625q-2.046875 1.765625 -2.828125 5.40625l-2.8125 14.203125l-8.109375 0l5.5625 -27.96875l7.703125 0l-1.609375 7.890625l-1.15625 -2.390625q2.03125 -3.0625 5.015625 -4.484375q3.0 -1.4375 6.328125 -1.4375zm35.932037 0q3.59375 0 6.078125 1.484375q2.5 1.484375 3.53125 4.34375q1.046875 2.859375 0.21875 7.0625l-3.125 15.5l-8.109375 0l3.015625 -14.96875q0.625 -3.078125 -0.5 -4.734375q-1.109375 -1.671875 -4.078125 -1.671875q-3.0625 0 -5.125 1.765625q-2.046875 1.765625 -2.828125 5.40625l-2.8125 14.203125l-8.109375 0l5.5625 -27.96875l7.703125 0l-1.609375 7.890625l-1.15625 -2.390625q2.03125 -3.0625 5.015625 -4.484375q3.0 -1.4375 6.328125 -1.4375zm29.171295 28.8125q-4.375 0 -7.578125 -1.5625q-3.1875 -1.5625 -4.953125 -4.359375q-1.765625 -2.8125 -1.765625 -6.609375q0 -4.6875 2.09375 -8.34375q2.109375 -3.671875 5.828125 -5.796875q3.71875 -2.140625 8.5625 -2.140625q4.109375 0 7.0625 1.53125q2.96875 1.53125 4.609375 4.265625q1.640625 2.734375 1.640625 6.53125q0 1.09375 -0.140625 2.1875q-0.125 1.078125 -0.328125 2.078125l-23.140625 0l0.828125 -4.734375l18.515625 0l-3.328125 1.453125q0.421875 -2.34375 -0.265625 -3.921875q-0.671875 -1.59375 -2.1875 -2.453125q-1.5 -0.859375 -3.625 -0.859375q-2.65625 0 -4.5 1.28125q-1.84375 1.265625 -2.78125 3.515625q-0.9375 2.234375 -0.9375 5.03125q0 3.234375 1.78125 4.828125q1.796875 1.578125 5.4375 1.578125q2.140625 0 4.109375 -0.671875q1.984375 -0.6875 3.390625 -1.9375l3.375 5.359375q-2.453125 1.921875 -5.5 2.84375q-3.03125 0.90625 -6.203125 0.90625zm17.781036 -0.421875l7.703125 -38.578125l8.109375 0l-7.703125 38.578125l-8.109375 0zm25.855133 0.421875q-3.703125 0 -6.953125 -0.828125q-3.25 -0.84375 -5.015625 -2.09375l3.125 -5.875q1.8125 1.203125 4.4375 1.9375q2.625 0.71875 5.28125 0.71875q2.859375 0 4.15625 -0.71875q1.3125 -0.734375 1.3125 -1.984375q0 -0.984375 -1.09375 -1.484375q-1.09375 -0.5 -2.765625 -0.8125q-1.65625 -0.3125 -3.5625 -0.71875q-1.890625 -0.421875 -3.578125 -1.171875q-1.6875 -0.75 -2.765625 -2.171875q-1.0625 -1.4375 -1.0625 -3.78125q0 -3.171875 1.796875 -5.359375q1.796875 -2.1875 4.984375 -3.328125q3.203125 -1.140625 7.265625 -1.140625q2.90625 0 5.65625 0.625q2.765625 0.625 4.6875 1.71875l-2.90625 5.921875q-1.984375 -1.25 -4.140625 -1.6875q-2.15625 -0.4375 -4.140625 -0.4375q-2.859375 0 -4.140625 0.8125q-1.265625 0.796875 -1.265625 1.9375q0 0.984375 1.0625 1.53125q1.078125 0.546875 2.734375 0.890625q1.671875 0.328125 3.59375 0.71875q1.921875 0.390625 3.578125 1.15625q1.671875 0.75 2.734375 2.125q1.0625 1.375 1.0625 3.71875q0 3.171875 -1.84375 5.390625q-1.84375 2.203125 -5.015625 3.296875q-3.171875 1.09375 -7.21875 1.09375zm26.727783 -13.0625q0.359375 -1.96875 1.296875 -3.375q0.9375 -1.40625 2.15625 -2.5q1.21875 -1.09375 2.515625 -2.015625q1.296875 -0.9375 2.390625 -1.828125q1.09375 -0.890625 1.765625 -1.890625q0.6875 -1.015625 0.6875 -2.421875q0 -1.609375 -1.3125 -2.578125q-1.296875 -0.96875 -3.734375 -0.96875q-2.546875 0 -4.609375 1.046875q-2.046875 1.046875 -3.5625 2.90625l-5.453125 -4.0q2.34375 -3.125 6.296875 -4.9375q3.953125 -1.828125 8.984375 -1.828125q3.703125 0 6.40625 1.078125q2.703125 1.0625 4.1875 3.046875q1.484375 1.96875 1.484375 4.625q0 2.234375 -0.765625 3.90625q-0.75 1.65625 -1.953125 2.859375q-1.1875 1.1875 -2.59375 2.203125q-1.40625 1.015625 -2.734375 1.984375q-1.328125 0.953125 -2.296875 2.078125q-0.953125 1.109375 -1.3125 2.609375l-7.84375 0zm2.015625 13.0625q-2.078125 0 -3.4375 -1.265625q-1.34375 -1.28125 -1.34375 -3.109375q0 -2.1875 1.53125 -3.578125q1.546875 -1.40625 3.71875 -1.40625q2.078125 0 3.40625 1.21875q1.328125 1.21875 1.328125 3.03125q0 1.40625 -0.703125 2.578125q-0.703125 1.171875 -1.875 1.859375q-1.15625 0.671875 -2.625 0.671875z" fill-rule="nonzero"/><g filter="url(#shadowFilter-g389dea38672_0_0.3)"><use xlink:href="#g389dea38672_0_0.3" transform="matrix(1.0 0.0 0.0 1.0 0.0 2.0)"/></g><defs><filter id="shadowFilter-g389dea38672_0_0.3" filterUnits="userSpaceOnUse"><feGaussianBlur in="SourceAlpha" stdDeviation="2.0" result="blur"/><feComponentTransfer in="blur" color-interpolation-filters="sRGB"><feFuncR type="linear" slope="0" intercept="0.0"/><feFuncG type="linear" slope="0" intercept="0.0"/><feFuncB type="linear" slope="0" intercept="0.0"/><feFuncA type="linear" slope="0.5" intercept="0"/></feComponentTransfer></filter></defs><g id="g389dea38672_0_0.3"><path fill="#21caab" d="m541.61005 607.1924l0 0c0 -16.970154 13.757019 -30.727173 30.727173 -30.727173l263.52203 0c8.149353 0 15.964966 3.2373047 21.727417 8.999756c5.762451 5.762512 8.999756 13.578064 8.999756 21.727417l0 262.2622c0 16.970154 -13.757019 30.727173 -30.727173 30.727173l-263.52203 0c-16.970154 0 -30.727173 -13.757019 -30.727173 -30.727173z" fill-rule="evenodd"/><path fill="#ffffff" d="m599.55084 704.7235l0 -28.0l5.375 0l11.90625 19.765625l-2.828125 0l11.71875 -19.765625l5.3125 0l0.078125 28.0l-6.078125 0l-0.03125 -18.6875l1.109375 0l-9.359375 15.734375l-2.921875 0l-9.546875 -15.734375l1.359375 0l0 18.6875l-6.09375 0zm50.965576 0l0 -4.203125l-0.390625 -0.921875l0 -7.515625q0 -2.0 -1.234375 -3.109375q-1.21875 -1.125 -3.734375 -1.125q-1.71875 0 -3.375 0.546875q-1.65625 0.53125 -2.828125 1.453125l-2.234375 -4.359375q1.765625 -1.25 4.234375 -1.921875q2.484375 -0.6875 5.046875 -0.6875q4.921875 0 7.640625 2.328125q2.71875 2.3125 2.71875 7.234375l0 12.28125l-5.84375 0zm-6.5625 0.3125q-2.515625 0 -4.3125 -0.859375q-1.796875 -0.859375 -2.765625 -2.328125q-0.953125 -1.484375 -0.953125 -3.328125q0 -1.921875 0.9375 -3.359375q0.9375 -1.4375 2.96875 -2.25q2.046875 -0.828125 5.328125 -0.828125l5.71875 0l0 3.640625l-5.03125 0q-2.203125 0 -3.03125 0.71875q-0.8125 0.71875 -0.8125 1.796875q0 1.203125 0.9375 1.90625q0.9375 0.703125 2.578125 0.703125q1.5625 0 2.796875 -0.734375q1.25 -0.75 1.8125 -2.1875l0.953125 2.875q-0.6875 2.078125 -2.484375 3.15625q-1.796875 1.078125 -4.640625 1.078125zm18.039368 -0.3125l0 -21.515625l5.96875 0l0 6.078125l-0.84375 -1.765625q0.953125 -2.28125 3.078125 -3.453125q2.125 -1.1875 5.15625 -1.1875l0 5.765625q-0.390625 -0.046875 -0.71875 -0.0625q-0.3125 -0.015625 -0.671875 -0.015625q-2.5625 0 -4.140625 1.46875q-1.578125 1.453125 -1.578125 4.53125l0 10.15625l-6.25 0zm22.251831 -4.40625l0.15625 -7.59375l10.03125 -9.515625l7.453125 0l-9.640625 9.796875l-3.25 2.640625l-4.75 4.671875zm-5.171875 4.40625l0 -29.6875l6.25 0l0 29.6875l-6.25 0zm16.046875 0l-7.28125 -9.046875l3.921875 -4.828125l10.921875 13.875l-7.5625 0zm19.920654 0.3125q-3.6875 0 -6.46875 -1.4375q-2.78125 -1.4375 -4.296875 -3.9375q-1.515625 -2.5 -1.515625 -5.703125q0 -3.234375 1.5 -5.734375q1.5 -2.5 4.09375 -3.921875q2.609375 -1.421875 5.890625 -1.421875q3.15625 0 5.6875 1.34375q2.546875 1.34375 4.015625 3.84375q1.484375 2.5 1.484375 5.96875q0 0.375 -0.046875 0.828125q-0.03125 0.453125 -0.0625 0.859375l-17.484375 0l0 -3.640625l14.203125 0l-2.40625 1.078125q0 -1.671875 -0.6875 -2.90625q-0.671875 -1.25 -1.875 -1.953125q-1.1875 -0.703125 -2.796875 -0.703125q-1.59375 0 -2.8125 0.703125q-1.21875 0.703125 -1.90625 1.96875q-0.671875 1.25 -0.671875 2.96875l0 0.96875q0 1.75 0.765625 3.09375q0.78125 1.34375 2.203125 2.046875q1.421875 0.6875 3.34375 0.6875q1.71875 0 3.015625 -0.515625q1.3125 -0.515625 2.390625 -1.5625l3.3125 3.609375q-1.484375 1.671875 -3.71875 2.578125q-2.234375 0.890625 -5.15625 0.890625zm23.36493 0q-3.8125 0 -5.9375 -1.9375q-2.109375 -1.9375 -2.109375 -5.78125l0 -18.875l6.234375 0l0 18.796875q0 1.359375 0.71875 2.109375q0.71875 0.734375 1.96875 0.734375q1.484375 0 2.515625 -0.796875l1.6875 4.390625q-0.96875 0.6875 -2.3125 1.03125q-1.328125 0.328125 -2.765625 0.328125zm-11.375 -17.03125l0 -4.796875l14.921875 0l0 4.796875l-14.921875 0zm19.962524 16.71875l0 -21.515625l6.25 0l0 21.515625l-6.25 0zm3.125 -24.515625q-1.71875 0 -2.796875 -1.0q-1.078125 -1.0 -1.078125 -2.484375q0 -1.484375 1.078125 -2.484375q1.078125 -1.0 2.796875 -1.0q1.71875 0 2.796875 0.953125q1.078125 0.9375 1.078125 2.40625q0 1.5625 -1.0625 2.59375q-1.046875 1.015625 -2.8125 1.015625zm8.914978 24.515625l0 -21.515625l5.96875 0l0 5.953125l-1.125 -1.796875q1.15625 -2.15625 3.3125 -3.3125q2.171875 -1.171875 4.921875 -1.171875q2.5625 0 4.578125 1.03125q2.03125 1.015625 3.1875 3.125q1.15625 2.09375 1.15625 5.375l0 12.3125l-6.234375 0l0 -11.359375q0 -2.59375 -1.140625 -3.828125q-1.140625 -1.25 -3.21875 -1.25q-1.484375 0 -2.671875 0.625q-1.171875 0.609375 -1.828125 1.890625q-0.65625 1.28125 -0.65625 3.28125l0 10.640625l-6.25 0zm37.924988 8.078125q-3.046875 0 -5.875 -0.75q-2.8125 -0.734375 -4.6875 -2.203125l2.484375 -4.484375q1.359375 1.125 3.453125 1.78125q2.109375 0.65625 4.140625 0.65625q3.328125 0 4.828125 -1.484375q1.5 -1.46875 1.5 -4.390625l0 -3.25l0.390625 -5.390625l-0.078125 -5.4375l0 -4.640625l5.921875 0l0 17.921875q0 6.0 -3.125 8.828125q-3.109375 2.84375 -8.953125 2.84375zm-0.953125 -9.125q-3.0 0 -5.421875 -1.296875q-2.421875 -1.296875 -3.890625 -3.625q-1.453125 -2.34375 -1.453125 -5.46875q0 -3.15625 1.453125 -5.5q1.46875 -2.34375 3.890625 -3.625q2.421875 -1.28125 5.421875 -1.28125q2.71875 0 4.796875 1.109375q2.078125 1.09375 3.234375 3.390625q1.15625 2.296875 1.15625 5.90625q0 3.5625 -1.15625 5.859375q-1.15625 2.296875 -3.234375 3.421875q-2.078125 1.109375 -4.796875 1.109375zm1.234375 -5.109375q1.640625 0 2.921875 -0.65625q1.28125 -0.671875 2.0 -1.859375q0.71875 -1.203125 0.71875 -2.765625q0 -1.609375 -0.71875 -2.78125q-0.71875 -1.1875 -2.0 -1.84375q-1.28125 -0.65625 -2.921875 -0.65625q-1.640625 0 -2.921875 0.65625q-1.28125 0.65625 -2.03125 1.84375q-0.734375 1.171875 -0.734375 2.78125q0 1.5625 0.734375 2.765625q0.75 1.1875 2.03125 1.859375q1.28125 0.65625 2.921875 0.65625z" fill-rule="nonzero"/><path fill="#ffffff" d="m670.3908 752.7235l0 -28.0l5.375 0l11.906189 19.765625l-2.828125 0l11.71875 -19.765625l5.3125 0l0.078125 28.0l-6.078125 0l-0.03125 -18.6875l1.109375 0l-9.359375 15.734375l-2.921875 0l-9.546814 -15.734375l1.359375 0l0 18.6875l-6.09375 0zm37.76245 0l0 -21.515625l6.25 0l0 21.515625l-6.25 0zm3.125 -24.515625q-1.71875 0 -2.796875 -1.0q-1.078125 -1.0 -1.078125 -2.484375q0 -1.484375 1.078125 -2.484375q1.078125 -1.0 2.796875 -1.0q1.71875 0 2.796875 0.953125q1.078125 0.9375 1.078125 2.40625q0 1.5625 -1.0625 2.59375q-1.046875 1.015625 -2.8125 1.015625zm6.196228 24.515625l9.640625 -12.640625l-0.109375 3.4375l-9.25 -12.3125l7.0 0l5.84375 8.03125l-2.640625 0.078125l6.046875 -8.109375l6.625 0l-9.265625 12.203125l0 -3.375l9.59375 12.6875l-7.078125 0l-6.125 -8.5625l2.609375 0.359375l-6.09375 8.203125l-6.796875 0z" fill-rule="nonzero"/><path fill="#ffffff" d="m602.79083 800.7235l0 -28.0l5.375 0l11.90625 19.765625l-2.828125 0l11.71875 -19.765625l5.3125 0l0.078125 28.0l-6.078125 0l-0.03125 -18.6875l1.109375 0l-9.359375 15.734375l-2.921875 0l-9.546875 -15.734375l1.359375 0l0 18.6875l-6.09375 0zm48.01245 0.3125q-3.4375 0 -6.109375 -1.4375q-2.65625 -1.4375 -4.203125 -3.9375q-1.53125 -2.5 -1.53125 -5.703125q0 -3.234375 1.53125 -5.734375q1.546875 -2.5 4.203125 -3.921875q2.671875 -1.421875 6.109375 -1.421875q3.390625 0 6.0625 1.421875q2.6875 1.421875 4.203125 3.90625q1.53125 2.46875 1.53125 5.75q0 3.203125 -1.53125 5.703125q-1.515625 2.5 -4.203125 3.9375q-2.671875 1.4375 -6.0625 1.4375zm0 -5.109375q1.5625 0 2.796875 -0.71875q1.234375 -0.71875 1.953125 -2.0625q0.71875 -1.34375 0.71875 -3.1875q0 -1.875 -0.71875 -3.1875q-0.71875 -1.328125 -1.953125 -2.046875q-1.234375 -0.71875 -2.796875 -0.71875q-1.5625 0 -2.8125 0.71875q-1.234375 0.71875 -1.984375 2.046875q-0.734375 1.3125 -0.734375 3.1875q0 1.84375 0.734375 3.1875q0.75 1.34375 1.984375 2.0625q1.25 0.71875 2.8125 0.71875zm25.200012 5.109375q-3.046875 0 -5.484375 -1.375q-2.4375 -1.375 -3.859375 -3.859375q-1.421875 -2.484375 -1.421875 -5.84375q0 -3.390625 1.421875 -5.875q1.421875 -2.484375 3.859375 -3.84375q2.4375 -1.359375 5.484375 -1.359375q2.71875 0 4.75 1.203125q2.046875 1.203125 3.15625 3.640625q1.125 2.4375 1.125 6.234375q0 3.765625 -1.078125 6.234375q-1.078125 2.453125 -3.109375 3.65625q-2.015625 1.1875 -4.84375 1.1875zm1.078125 -5.109375q1.515625 0 2.75 -0.71875q1.25 -0.71875 1.984375 -2.0625q0.75 -1.34375 0.75 -3.1875q0 -1.875 -0.75 -3.1875q-0.734375 -1.328125 -1.984375 -2.046875q-1.234375 -0.71875 -2.75 -0.71875q-1.5625 0 -2.8125 0.71875q-1.234375 0.71875 -1.96875 2.046875q-0.734375 1.3125 -0.734375 3.1875q0 1.84375 0.734375 3.1875q0.734375 1.34375 1.96875 2.0625q1.25 0.71875 2.8125 0.71875zm5.640625 4.796875l0 -4.40625l0.109375 -6.390625l-0.390625 -6.359375l0 -12.53125l6.234375 0l0 29.6875l-5.953125 0zm22.398682 0.3125q-3.6875 0 -6.46875 -1.4375q-2.78125 -1.4375 -4.296875 -3.9375q-1.515625 -2.5 -1.515625 -5.703125q0 -3.234375 1.5 -5.734375q1.5 -2.5 4.09375 -3.921875q2.609375 -1.421875 5.890625 -1.421875q3.15625 0 5.6875 1.34375q2.546875 1.34375 4.015625 3.84375q1.484375 2.5 1.484375 5.96875q0 0.375 -0.046875 0.828125q-0.03125 0.453125 -0.0625 0.859375l-17.484375 0l0 -3.640625l14.203125 0l-2.40625 1.078125q0 -1.671875 -0.6875 -2.90625q-0.671875 -1.25 -1.875 -1.953125q-1.1875 -0.703125 -2.796875 -0.703125q-1.59375 0 -2.8125 0.703125q-1.21875 0.703125 -1.90625 1.96875q-0.671875 1.25 -0.671875 2.96875l0 0.96875q0 1.75 0.765625 3.09375q0.78125 1.34375 2.203125 2.046875q1.421875 0.6875 3.34375 0.6875q1.71875 0 3.015625 -0.515625q1.3125 -0.515625 2.390625 -1.5625l3.3125 3.609375q-1.484375 1.671875 -3.71875 2.578125q-2.234375 0.890625 -5.15625 0.890625zm14.55249 -0.3125l0 -29.6875l6.25 0l0 29.6875l-6.25 0zm12.039978 0l0 -29.6875l6.25 0l0 29.6875l-6.25 0zm12.040039 0l0 -21.515625l6.25 0l0 21.515625l-6.25 0zm3.125 -24.515625q-1.71875 0 -2.796875 -1.0q-1.078125 -1.0 -1.078125 -2.484375q0 -1.484375 1.078125 -2.484375q1.078125 -1.0 2.796875 -1.0q1.71875 0 2.796875 0.953125q1.078125 0.9375 1.078125 2.40625q0 1.5625 -1.0625 2.59375q-1.046875 1.015625 -2.8125 1.015625zm8.914978 24.515625l0 -21.515625l5.96875 0l0 5.953125l-1.125 -1.796875q1.15625 -2.15625 3.3125 -3.3125q2.171875 -1.171875 4.921875 -1.171875q2.5625 0 4.578125 1.03125q2.03125 1.015625 3.1875 3.125q1.15625 2.09375 1.15625 5.375l0 12.3125l-6.234375 0l0 -11.359375q0 -2.59375 -1.140625 -3.828125q-1.140625 -1.25 -3.21875 -1.25q-1.484375 0 -2.671875 0.625q-1.171875 0.609375 -1.828125 1.890625q-0.65625 1.28125 -0.65625 3.28125l0 10.640625l-6.25 0zm37.924988 8.078125q-3.046875 0 -5.875 -0.75q-2.8125 -0.734375 -4.6875 -2.203125l2.484375 -4.484375q1.359375 1.125 3.453125 1.78125q2.109375 0.65625 4.140625 0.65625q3.328125 0 4.828125 -1.484375q1.5 -1.46875 1.5 -4.390625l0 -3.25l0.390625 -5.390625l-0.078125 -5.4375l0 -4.640625l5.921875 0l0 17.921875q0 6.0 -3.125 8.828125q-3.109375 2.84375 -8.953125 2.84375zm-0.953125 -9.125q-3.0 0 -5.421875 -1.296875q-2.421875 -1.296875 -3.890625 -3.625q-1.453125 -2.34375 -1.453125 -5.46875q0 -3.15625 1.453125 -5.5q1.46875 -2.34375 3.890625 -3.625q2.421875 -1.28125 5.421875 -1.28125q2.71875 0 4.796875 1.109375q2.078125 1.09375 3.234375 3.390625q1.15625 2.296875 1.15625 5.90625q0 3.5625 -1.15625 5.859375q-1.15625 2.296875 -3.234375 3.421875q-2.078125 1.109375 -4.796875 1.109375zm1.234375 -5.109375q1.640625 0 2.921875 -0.65625q1.28125 -0.671875 2.0 -1.859375q0.71875 -1.203125 0.71875 -2.765625q0 -1.609375 -0.71875 -2.78125q-0.71875 -1.1875 -2.0 -1.84375q-1.28125 -0.65625 -2.921875 -0.65625q-1.640625 0 -2.921875 0.65625q-1.28125 0.65625 -2.03125 1.84375q-0.734375 1.171875 -0.734375 2.78125q0 1.5625 0.734375 2.765625q0.75 1.1875 2.03125 1.859375q1.28125 0.65625 2.921875 0.65625z" fill-rule="nonzero"/></g><path fill="#000000" fill-opacity="0.0" d="m139.57727 59.823685l322.2047 0l0 67.874016l-322.2047 0z" fill-rule="evenodd"/><path fill="#000000" d="m206.32939 110.48181q-3.9375 0 -7.328125 -1.296875q-3.375 -1.296875 -5.84375 -3.640625q-2.46875 -2.359375 -3.84375 -5.53125q-1.359375 -3.171875 -1.359375 -6.90625q0 -3.75 1.359375 -6.90625q1.375 -3.171875 3.859375 -5.515625q2.5 -2.359375 5.859375 -3.65625q3.359375 -1.296875 7.296875 -1.296875q3.984375 0 7.3125 1.296875q3.34375 1.296875 5.8125 3.625q2.484375 2.328125 3.875 5.5q1.390625 3.15625 1.390625 6.953125q0 3.734375 -1.390625 6.9375q-1.390625 3.1875 -3.875 5.515625q-2.46875 2.328125 -5.8125 3.625q-3.328125 1.296875 -7.3125 1.296875zm11.0 7.15625q-1.96875 0 -3.71875 -0.4375q-1.75 -0.4375 -3.453125 -1.40625q-1.703125 -0.953125 -3.5625 -2.578125q-1.84375 -1.625 -4.0 -4.03125l8.15625 -2.0625q1.296875 1.765625 2.390625 2.828125q1.109375 1.0625 2.140625 1.484375q1.03125 0.4375 2.1875 0.4375q3.078125 0 5.46875 -2.5l3.453125 4.125q-3.40625 4.140625 -9.0625 4.140625zm-11.0 -13.78125q2.265625 0 4.15625 -0.765625q1.890625 -0.765625 3.328125 -2.203125q1.453125 -1.453125 2.234375 -3.4375q0.796875 -2.0 0.796875 -4.34375q0 -2.40625 -0.796875 -4.375q-0.78125 -1.96875 -2.234375 -3.40625q-1.4375 -1.4375 -3.328125 -2.203125q-1.890625 -0.765625 -4.15625 -0.765625q-2.25 0 -4.171875 0.765625q-1.921875 0.765625 -3.34375 2.203125q-1.40625 1.4375 -2.203125 3.40625q-0.78125 1.96875 -0.78125 4.375q0 2.34375 0.78125 4.34375q0.796875 1.984375 2.203125 3.4375q1.421875 1.4375 3.34375 2.203125q1.921875 0.765625 4.171875 0.765625zm34.62146 6.4375q-3.21875 0 -5.75 -1.25q-2.515625 -1.25 -3.90625 -3.8125q-1.390625 -2.578125 -1.390625 -6.5625l0 -14.59375l7.484375 0l0 13.484375q0 3.21875 1.359375 4.734375q1.375 1.515625 3.875 1.515625q1.734375 0 3.078125 -0.734375q1.34375 -0.75 2.109375 -2.3125q0.765625 -1.5625 0.765625 -3.921875l0 -12.765625l7.4843903 0l0 25.828125l-7.0937653 0l0 -7.109375l1.28125 2.0625q-1.28125 2.6875 -3.8125 4.0625q-2.515625 1.375 -5.484375 1.375zm34.88234 0q-4.40625 0 -7.75 -1.734375q-3.328125 -1.734375 -5.15625 -4.734375q-1.828125 -3.0 -1.828125 -6.828125q0 -3.890625 1.796875 -6.890625q1.8125 -3.0 4.921875 -4.703125q3.125 -1.703125 7.0625 -1.703125q3.796875 0 6.84375 1.609375q3.046875 1.609375 4.8125 4.609375q1.78125 3.0 1.78125 7.171875q0 0.421875 -0.046875 0.984375q-0.046875 0.546875 -0.09375 1.03125l-20.984375 0l0 -4.375l17.046875 0l-2.875 1.296875q0 -2.015625 -0.828125 -3.5q-0.8125 -1.484375 -2.25 -2.328125q-1.4375 -0.84375 -3.359375 -0.84375q-1.921875 0 -3.390625 0.84375q-1.453125 0.84375 -2.28125 2.359375q-0.8125 1.5 -0.8125 3.5625l0 1.15625q0 2.109375 0.9375 3.71875q0.9375 1.609375 2.640625 2.453125q1.703125 0.84375 4.015625 0.84375q2.0625 0 3.609375 -0.625q1.5625 -0.625 2.859375 -1.875l3.984375 4.3125q-1.765625 2.015625 -4.453125 3.109375q-2.6875 1.078125 -6.203125 1.078125zm26.163055 0q-3.3125 0 -6.359375 -0.796875q-3.046875 -0.796875 -4.828125 -2.0l2.5 -5.375q1.78125 1.109375 4.203125 1.8125q2.421875 0.6875 4.78125 0.6875q2.59375 0 3.671875 -0.625q1.078125 -0.625 1.078125 -1.71875q0 -0.921875 -0.84375 -1.375q-0.84375 -0.453125 -2.234375 -0.6875q-1.390625 -0.25 -3.046875 -0.484375q-1.65625 -0.25 -3.34375 -0.65625q-1.671875 -0.40625 -3.0625 -1.21875q-1.390625 -0.8125 -2.234375 -2.203125q-0.84375 -1.390625 -0.84375 -3.609375q0 -2.4375 1.421875 -4.3125q1.421875 -1.875 4.109375 -2.953125q2.6875 -1.078125 6.421875 -1.078125q2.640625 0 5.375 0.578125q2.734375 0.5625 4.5625 1.671875l-2.5 5.328125q-1.859375 -1.109375 -3.765625 -1.515625q-1.890625 -0.40625 -3.671875 -0.40625q-2.484375 0 -3.640625 0.671875q-1.15625 0.671875 -1.15625 1.734375q0 0.953125 0.84375 1.4375q0.84375 0.484375 2.234375 0.78125q1.390625 0.28125 3.046875 0.5q1.65625 0.203125 3.328125 0.640625q1.6875 0.421875 3.046875 1.21875q1.375 0.796875 2.234375 2.171875q0.875 1.359375 0.875 3.5625q0 2.40625 -1.453125 4.25q-1.4375 1.84375 -4.15625 2.90625q-2.703125 1.0625 -6.59375 1.0625zm27.363037 0q-4.5625 0 -7.109375 -2.328125q-2.53125 -2.328125 -2.53125 -6.9375l0 -22.65625l7.484375 0l0 22.5625q0 1.625 0.859375 2.515625q0.859375 0.890625 2.359375 0.890625q1.765625 0 3.015625 -0.96875l2.015625 5.28125q-1.15625 0.8125 -2.765625 1.234375q-1.59375 0.40625 -3.328125 0.40625zm-13.625 -20.453125l0 -5.765625l17.890625 0l0 5.765625l-17.890625 0zm23.942535 20.0625l0 -25.828125l7.484375 0l0 25.828125l-7.484375 0zm3.75 -29.421875q-2.0625 0 -3.359375 -1.203125q-1.296875 -1.203125 -1.296875 -2.96875q0 -1.78125 1.296875 -2.984375q1.296875 -1.203125 3.359375 -1.203125q2.0625 0 3.359375 1.140625q1.296875 1.125 1.296875 2.890625q0 1.875 -1.28125 3.109375q-1.265625 1.21875 -3.375 1.21875zm22.994904 29.8125q-4.140625 0 -7.328125 -1.734375q-3.1875 -1.734375 -5.046875 -4.734375q-1.84375 -3.0 -1.84375 -6.828125q0 -3.890625 1.84375 -6.890625q1.859375 -3.0 5.046875 -4.703125q3.1875 -1.703125 7.328125 -1.703125q4.078125 0 7.28125 1.703125q3.21875 1.703125 5.046875 4.6875q1.828125 2.96875 1.828125 6.90625q0 3.828125 -1.828125 6.828125q-1.828125 3.0 -5.046875 4.734375q-3.203125 1.734375 -7.28125 1.734375zm0 -6.15625q1.859375 0 3.34375 -0.859375q1.5 -0.859375 2.359375 -2.46875q0.859375 -1.609375 0.859375 -3.8125q0 -2.265625 -0.859375 -3.84375q-0.859375 -1.59375 -2.359375 -2.453125q-1.484375 -0.859375 -3.34375 -0.859375q-1.875 0 -3.375 0.859375q-1.484375 0.859375 -2.375 2.453125q-0.875 1.578125 -0.875 3.84375q0 2.203125 0.875 3.8125q0.890625 1.609375 2.375 2.46875q1.5 0.859375 3.375 0.859375zm19.143188 5.765625l0 -25.828125l7.15625 0l0 7.15625l-1.34375 -2.15625q1.390625 -2.59375 3.984375 -3.984375q2.59375 -1.390625 5.90625 -1.390625q3.0625 0 5.484375 1.21875q2.4375 1.21875 3.828125 3.75q1.390625 2.515625 1.390625 6.453125l0 14.78125l-7.484375 0l0 -13.625q0 -3.125 -1.375 -4.609375q-1.375 -1.5 -3.859375 -1.5q-1.78125 0 -3.203125 0.75q-1.40625 0.75 -2.203125 2.28125q-0.796875 1.53125 -0.796875 3.9375l0 12.765625l-7.484375 0z" fill-rule="nonzero"/><path fill="#000000" fill-opacity="0.0" d="m570.7397 59.823936l248.47247 0l0 67.874016l-248.47247 0z" fill-rule="evenodd"/><path fill="#000000" d="m640.9933 109.90394l0 -27.265625l-10.75 0l0 -6.328125l29.28125 0l0 6.328125l-10.75 0l0 27.265625l-7.78125 0zm31.836548 0.390625q-4.140625 0 -7.328125 -1.734375q-3.1875 -1.734375 -5.046875 -4.734375q-1.84375 -3.0 -1.84375 -6.828125q0 -3.890625 1.84375 -6.890625q1.859375 -3.0 5.046875 -4.703125q3.1875 -1.703125 7.328125 -1.703125q4.078125 0 7.28125 1.703125q3.21875 1.703125 5.046875 4.6875q1.828125 2.96875 1.828125 6.90625q0 3.828125 -1.828125 6.828125q-1.828125 3.0 -5.046875 4.734375q-3.203125 1.734375 -7.28125 1.734375zm0 -6.15625q1.859375 0 3.34375 -0.859375q1.5 -0.859375 2.359375 -2.46875q0.859375 -1.609375 0.859375 -3.8125q0 -2.265625 -0.859375 -3.84375q-0.859375 -1.59375 -2.359375 -2.453125q-1.484375 -0.859375 -3.34375 -0.859375q-1.875 0 -3.375 0.859375q-1.484375 0.859375 -2.375 2.453125q-0.875 1.578125 -0.875 3.84375q0 2.203125 0.875 3.8125q0.890625 1.609375 2.375 2.46875q1.5 0.859375 3.375 0.859375zm31.440063 6.15625q-4.140625 0 -7.328125 -1.734375q-3.1875 -1.734375 -5.046875 -4.734375q-1.84375 -3.0 -1.84375 -6.828125q0 -3.890625 1.84375 -6.890625q1.859375 -3.0 5.046875 -4.703125q3.1875 -1.703125 7.328125 -1.703125q4.078125 0 7.28125 1.703125q3.21875 1.703125 5.046875 4.6875q1.828125 2.96875 1.828125 6.90625q0 3.828125 -1.828125 6.828125q-1.828125 3.0 -5.046875 4.734375q-3.203125 1.734375 -7.28125 1.734375zm0 -6.15625q1.859375 0 3.34375 -0.859375q1.5 -0.859375 2.359375 -2.46875q0.859375 -1.609375 0.859375 -3.8125q0 -2.265625 -0.859375 -3.84375q-0.859375 -1.59375 -2.359375 -2.453125q-1.484375 -0.859375 -3.34375 -0.859375q-1.875 0 -3.375 0.859375q-1.484375 0.859375 -2.375 2.453125q-0.875 1.578125 -0.875 3.84375q0 2.203125 0.875 3.8125q0.890625 1.609375 2.375 2.46875q1.5 0.859375 3.375 0.859375zm19.143188 5.765625l0 -35.609375l7.484375 0l0 35.609375l-7.484375 0zm23.13556 0.390625q-3.3125 0 -6.359375 -0.796875q-3.046875 -0.796875 -4.828125 -2.0l2.5 -5.375q1.78125 1.109375 4.203125 1.8125q2.421875 0.6875 4.78125 0.6875q2.59375 0 3.671875 -0.625q1.078125 -0.625 1.078125 -1.71875q0 -0.921875 -0.84375 -1.375q-0.84375 -0.453125 -2.234375 -0.6875q-1.390625 -0.25 -3.046875 -0.484375q-1.65625 -0.25 -3.34375 -0.65625q-1.671875 -0.40625 -3.0625 -1.21875q-1.390625 -0.8125 -2.234375 -2.203125q-0.84375 -1.390625 -0.84375 -3.609375q0 -2.4375 1.421875 -4.3125q1.421875 -1.875 4.109375 -2.953125q2.6875 -1.078125 6.421875 -1.078125q2.640625 0 5.375 0.578125q2.734375 0.5625 4.5625 1.671875l-2.5 5.328125q-1.859375 -1.109375 -3.765625 -1.515625q-1.890625 -0.40625 -3.671875 -0.40625q-2.484375 0 -3.640625 0.671875q-1.15625 0.671875 -1.15625 1.734375q0 0.953125 0.84375 1.4375q0.84375 0.484375 2.234375 0.78125q1.390625 0.28125 3.046875 0.5q1.65625 0.203125 3.328125 0.640625q1.6875 0.421875 3.046875 1.21875q1.375 0.796875 2.234375 2.171875q0.875 1.359375 0.875 3.5625q0 2.40625 -1.453125 4.25q-1.4375 1.84375 -4.15625 2.90625q-2.703125 1.0625 -6.59375 1.0625z" fill-rule="nonzero"/><path fill="#000000" fill-opacity="0.0" d="m96.09055 136.16258l764.18896 0" fill-rule="evenodd"/><path stroke="#111c28" stroke-width="1.0" stroke-linejoin="round" stroke-linecap="butt" stroke-dasharray="1.0,3.0" d="m96.09055 136.16258l764.18896 0" fill-rule="evenodd"/><path fill="#000000" fill-opacity="0.0" d="m93.41338 557.2684l769.5433 0" fill-rule="evenodd"/><path stroke="#111c28" stroke-width="1.0" stroke-linejoin="round" stroke-linecap="butt" stroke-dasharray="1.0,3.0" d="m93.41338 557.2684l769.5433 0" fill-rule="evenodd"/></g></svg>