<svg version="1.1" viewBox="0.0 0.0 960.0 960.0" fill="none" stroke="none" stroke-linecap="square" stroke-miterlimit="10" xmlns:xlink="http://www.w3.org/1999/xlink" xmlns="http://www.w3.org/2000/svg"><clipPath id="g38047d52ba0_0_0.0"><path d="m0 0l960.0 0l0 960.0l-960.0 0l0 -960.0z" clip-rule="nonzero"/></clipPath><g clip-path="url(#g38047d52ba0_0_0.0)"><path fill="#000000" fill-opacity="0.0" d="m0 0l960.0 0l0 960.0l-960.0 0z" fill-rule="evenodd"/><path fill="#000000" fill-opacity="0.0" d="m77.83202 55.125984l762.1732 0l0 109.66929l-762.1732 0z" fill-rule="evenodd"/><path fill="#000000" d="m105.9414 76.03411q4.65625 0 8.109375 1.828125q3.453125 1.8125 5.375 5.375q1.921875 3.546875 1.921875 8.578125l0 18.390625l-7.78125 0l0 -8.0625l-15.359375 0l0 8.0625l-7.671875 0l0 -18.390625q0 -5.03125 1.90625 -8.578125q1.921875 -3.5625 5.375 -5.375q3.46875 -1.828125 8.125 -1.828125zm7.625 19.875l0 -4.8125q0 -4.171875 -2.0625 -6.296875q-2.0625 -2.140625 -5.609375 -2.140625q-3.609375 0 -5.65625 2.140625q-2.03125 2.125 -2.03125 6.296875l0 4.8125l15.359375 0zm24.192451 14.6875q-4.359375 0 -6.8125 -2.328125q-2.453125 -2.328125 -2.453125 -6.609375l0 -27.0625l7.484375 0l0 26.640625q0 1.625 0.84375 2.515625q0.84375 0.890625 2.375 0.890625q0.578125 0 1.171875 -0.140625q0.609375 -0.15625 0.9375 -0.34375l0.34375 5.8125q-1.875 0.625 -3.890625 0.625zm7.5824127 -26.21875l7.484375 0l0 25.828125l-7.484375 0l0 -25.828125zm3.734375 -3.59375q-2.0625 0 -3.359375 -1.203125q-1.296875 -1.203125 -1.296875 -2.96875q0 -1.78125 1.296875 -2.984375q1.296875 -1.203125 3.359375 -1.203125q2.0625 0 3.359375 1.15625q1.296875 1.15625 1.296875 2.875q0 1.875 -1.296875 3.109375q-1.296875 1.21875 -3.359375 1.21875zm37.35428 3.59375l0 21.515625q0 7.09375 -3.703125 10.546875q-3.6875 3.46875 -10.796875 3.46875q-3.734375 0 -7.09375 -0.921875q-3.359375 -0.90625 -5.578125 -2.640625l2.984375 -5.375q1.625 1.34375 4.125 2.140625q2.5 0.796875 5.0 0.796875q3.875 0 5.71875 -1.765625q1.859375 -1.75 1.859375 -5.296875l0 -1.109375q-2.921875 3.21875 -8.15625 3.21875q-3.5625 0 -6.515625 -1.5625q-2.953125 -1.5625 -4.6875 -4.390625q-1.71875 -2.828125 -1.71875 -6.53125q0 -3.6875 1.71875 -6.515625q1.734375 -2.84375 4.6875 -4.390625q2.953125 -1.5625 6.515625 -1.5625q5.609375 0 8.53125 3.6875l0 -3.3125l7.109375 0zm-14.15625 18.4375q2.96875 0 4.859375 -1.75q1.90625 -1.75 1.90625 -4.59375q0 -2.828125 -1.90625 -4.578125q-1.890625 -1.75 -4.859375 -1.75q-2.984375 0 -4.90625 1.75q-1.90625 1.75 -1.90625 4.578125q0 2.84375 1.90625 4.59375q1.921875 1.75 4.90625 1.75zm36.818817 -18.8125q4.796875 0 7.75 2.875q2.953125 2.875 2.953125 8.546875l0 14.78125l-7.484375 0l0 -13.625q0 -3.078125 -1.34375 -4.59375q-1.34375 -1.515625 -3.890625 -1.515625q-2.84375 0 -4.53125 1.765625q-1.671875 1.75 -1.671875 5.203125l0 12.765625l-7.484375 0l0 -25.828125l7.15625 0l0 3.03125q1.484375 -1.640625 3.6875 -2.515625q2.21875 -0.890625 4.859375 -0.890625zm57.06459 0.375l0 21.515625q0 7.09375 -3.609375 10.546875q-3.59375 3.46875 -10.453125 3.46875q-3.640625 0 -6.890625 -0.921875q-3.234375 -0.90625 -5.4375 -2.640625l2.96875 -5.375q1.640625 1.34375 3.984375 2.109375q2.359375 0.765625 4.75 0.765625q3.75 0 5.46875 -1.734375q1.734375 -1.71875 1.734375 -5.265625l0 -0.859375q-1.4375 1.4375 -3.40625 2.203125q-1.96875 0.765625 -4.21875 0.765625q-5.09375 0 -8.078125 -2.90625q-2.96875 -2.90625 -2.96875 -8.703125l0 -12.96875l7.484375 0l0 11.859375q0 6.28125 5.234375 6.28125q2.6875 0 4.3125 -1.75q1.640625 -1.75 1.640625 -5.203125l0 -11.1875l7.484375 0zm19.257324 26.21875q-4.09375 0 -7.328125 -1.703125q-3.234375 -1.71875 -5.0625 -4.734375q-1.828125 -3.03125 -1.828125 -6.859375q0 -3.84375 1.828125 -6.859375q1.828125 -3.03125 5.0625 -4.734375q3.234375 -1.703125 7.328125 -1.703125q4.078125 0 7.28125 1.703125q3.21875 1.703125 5.046875 4.734375q1.828125 3.015625 1.828125 6.859375q0 3.828125 -1.828125 6.859375q-1.828125 3.015625 -5.046875 4.734375q-3.203125 1.703125 -7.28125 1.703125zm0 -6.15625q2.875 0 4.71875 -1.9375q1.84375 -1.9375 1.84375 -5.203125q0 -3.265625 -1.84375 -5.203125q-1.84375 -1.953125 -4.71875 -1.953125q-2.890625 0 -4.765625 1.953125q-1.859375 1.9375 -1.859375 5.203125q0 3.265625 1.859375 5.203125q1.875 1.9375 4.765625 1.9375zm45.158813 -20.0625l0 25.828125l-7.09375 0l0 -3.078125q-1.5 1.6875 -3.5625 2.578125q-2.0625 0.890625 -4.453125 0.890625q-5.09375 0 -8.078125 -2.921875q-2.96875 -2.9375 -2.96875 -8.703125l0 -14.59375l7.484375 0l0 13.484375q0 6.25 5.234375 6.25q2.6875 0 4.3125 -1.75q1.640625 -1.75 1.640625 -5.21875l0 -12.765625l7.484375 0zm14.11673 3.40625q1.34375 -1.859375 3.625 -2.8125q2.28125 -0.96875 5.25 -0.96875l0 6.90625q-1.25 -0.09375 -1.671875 -0.09375q-3.21875 0 -5.046875 1.796875q-1.828125 1.796875 -1.828125 5.40625l0 12.1875l-7.484375 0l0 -25.828125l7.15625 0l0 3.40625zm52.13147 -1.765625q-4.328125 -2.5 -9.265625 -3.21875l0 27.40625l-7.78125 0l0 -27.40625q-4.9375 0.71875 -9.3125 3.21875l-2.640625 -5.8125q3.453125 -2.0625 7.484375 -3.109375q4.03125 -1.0625 8.3125 -1.0625q4.3125 0 8.375 1.0625q4.0625 1.046875 7.46875 3.109375l-2.640625 5.8125zm15.26532 24.578125q-4.09375 0 -7.328125 -1.703125q-3.234375 -1.71875 -5.0625 -4.734375q-1.828125 -3.03125 -1.828125 -6.859375q0 -3.84375 1.828125 -6.859375q1.828125 -3.03125 5.0625 -4.734375q3.234375 -1.703125 7.328125 -1.703125q4.078125 0 7.28125 1.703125q3.21875 1.703125 5.046875 4.734375q1.828125 3.015625 1.828125 6.859375q0 3.828125 -1.828125 6.859375q-1.828125 3.015625 -5.046875 4.734375q-3.203125 1.703125 -7.28125 1.703125zm0 -6.15625q2.875 0 4.71875 -1.9375q1.84375 -1.9375 1.84375 -5.203125q0 -3.265625 -1.84375 -5.203125q-1.84375 -1.953125 -4.71875 -1.953125q-2.890625 0 -4.765625 1.953125q-1.859375 1.9375 -1.859375 5.203125q0 3.265625 1.859375 5.203125q1.875 1.9375 4.765625 1.9375zm31.440063 6.15625q-4.09375 0 -7.328125 -1.703125q-3.234375 -1.71875 -5.0625 -4.734375q-1.828125 -3.03125 -1.828125 -6.859375q0 -3.84375 1.828125 -6.859375q1.828125 -3.03125 5.0625 -4.734375q3.234375 -1.703125 7.328125 -1.703125q4.078125 0 7.28125 1.703125q3.21875 1.703125 5.046875 4.734375q1.828125 3.015625 1.828125 6.859375q0 3.828125 -1.828125 6.859375q-1.828125 3.015625 -5.046875 4.734375q-3.203125 1.703125 -7.28125 1.703125zm0 -6.15625q2.875 0 4.71875 -1.9375q1.84375 -1.9375 1.84375 -5.203125q0 -3.265625 -1.84375 -5.203125q-1.84375 -1.953125 -4.71875 -1.953125q-2.890625 0 -4.765625 1.953125q-1.859375 1.9375 -1.859375 5.203125q0 3.265625 1.859375 5.203125q1.875 1.9375 4.765625 1.9375zm28.408813 6.15625q-4.359375 0 -6.8125 -2.328125q-2.453125 -2.328125 -2.453125 -6.609375l0 -27.0625l7.484375 0l0 26.640625q0 1.625 0.84375 2.515625q0.84375 0.890625 2.375 0.890625q0.578125 0 1.171875 -0.140625q0.609375 -0.15625 0.9375 -0.34375l0.34375 5.8125q-1.875 0.625 -3.890625 0.625zm16.269897 0q-3.21875 0 -6.296875 -0.796875q-3.0625 -0.796875 -4.890625 -2.0l2.5 -5.375q1.734375 1.109375 4.171875 1.8125q2.453125 0.6875 4.8125 0.6875q4.75 0 4.75 -2.34375q0 -1.109375 -1.296875 -1.59375q-1.296875 -0.484375 -3.984375 -0.8125q-3.171875 -0.484375 -5.234375 -1.109375q-2.0625 -0.625 -3.578125 -2.203125q-1.515625 -1.578125 -1.515625 -4.515625q0 -2.4375 1.421875 -4.328125q1.421875 -1.90625 4.125 -2.953125q2.71875 -1.0625 6.40625 -1.0625q2.734375 0 5.453125 0.59375q2.71875 0.59375 4.484375 1.65625l-2.5 5.328125q-3.40625 -1.921875 -7.4375 -1.921875q-2.390625 0 -3.59375 0.671875q-1.203125 0.671875 -1.203125 1.734375q0 1.203125 1.296875 1.6875q1.296875 0.46875 4.125 0.90625q3.171875 0.515625 5.1875 1.125q2.015625 0.59375 3.5 2.1875q1.5 1.578125 1.5 4.40625q0 2.40625 -1.453125 4.28125q-1.4375 1.859375 -4.203125 2.90625q-2.75 1.03125 -6.546875 1.03125zm71.22833 -26.21875l0 14.265625q0 5.703125 -3.125 8.828125q-3.109375 3.125 -8.875 3.125q-2.78125 0 -4.921875 -0.859375q-2.125 -0.875 -3.5625 -2.796875q-1.4375 1.921875 -3.5625 2.796875q-2.109375 0.859375 -4.984375 0.859375q-5.8125 0 -8.890625 -3.125q-3.0625 -3.125 -3.0625 -8.828125l0 -14.265625l7.484375 0l0 13.6875q0 3.21875 1.109375 4.734375q1.109375 1.5 3.453125 1.5q2.40625 0 3.546875 -1.53125q1.15625 -1.53125 1.15625 -4.703125l0 -13.6875l7.484375 0l0 13.6875q0 3.171875 1.15625 4.703125q1.15625 1.53125 3.546875 1.53125q2.359375 0 3.453125 -1.5q1.109375 -1.515625 1.109375 -4.734375l0 -13.6875l7.484375 0zm6.724365 0l7.484375 0l0 25.828125l-7.484375 0l0 -25.828125zm3.734375 -3.59375q-2.0625 0 -3.359375 -1.203125q-1.296875 -1.203125 -1.296875 -2.96875q0 -1.78125 1.296875 -2.984375q1.296875 -1.203125 3.359375 -1.203125q2.0625 0 3.359375 1.15625q1.296875 1.15625 1.296875 2.875q0 1.875 -1.296875 3.109375q-1.296875 1.21875 -3.359375 1.21875zm26.276123 28.171875q-1.109375 0.8125 -2.71875 1.234375q-1.609375 0.40625 -3.34375 0.40625q-4.65625 0 -7.15625 -2.34375q-2.484375 -2.359375 -2.484375 -6.921875l0 -22.65625l7.484375 0l0 6.28125l6.390625 0l0 5.765625l-6.390625 0l0 10.515625q0 1.625 0.8125 2.515625q0.828125 0.890625 2.359375 0.890625q1.734375 0 3.078125 -0.96875l1.96875 5.28125zm19.916687 -24.953125q4.796875 0 7.75 2.875q2.953125 2.875 2.953125 8.546875l0 14.78125l-7.484375 0l0 -13.625q0 -3.078125 -1.34375 -4.59375q-1.34375 -1.515625 -3.890625 -1.515625q-2.84375 0 -4.53125 1.765625q-1.671875 1.75 -1.671875 5.203125l0 12.765625l-7.484375 0l0 -35.609375l7.484375 0l0 12.46875q1.5 -1.484375 3.609375 -2.265625q2.109375 -0.796875 4.609375 -0.796875z" fill-rule="nonzero"/><path fill="#000000" d="m115.48827 158.97723q2.875 0.90625 4.5 3.046875q1.640625 2.140625 1.640625 5.25q0 4.421875 -3.4375 6.796875q-3.421875 2.375 -10.0 2.375l-17.375 0l0 -33.59375l16.421875 0q6.140625 0 9.421875 2.359375q3.296875 2.34375 3.296875 6.375q0 2.4375 -1.1875 4.359375q-1.171875 1.921875 -3.28125 3.03125zm-16.9375 -10.28125l0 7.921875l7.71875 0q2.875 0 4.359375 -1.0q1.5 -1.015625 1.5 -2.984375q0 -1.96875 -1.5 -2.953125q-1.484375 -0.984375 -4.359375 -0.984375l-7.71875 0zm9.0625 21.890625q3.078125 0 4.625 -1.0q1.5625 -1.015625 1.5625 -3.125q0 -4.171875 -6.1875 -4.171875l-9.0625 0l0 8.296875l9.0625 0zm45.40757 -19.96875l0 25.828125l-7.09375 0l0 -3.078125q-1.5 1.6875 -3.5625 2.578125q-2.0625 0.890625 -4.453125 0.890625q-5.09375 0 -8.078125 -2.921875q-2.9687424 -2.9375 -2.9687424 -8.703125l0 -14.59375l7.4843674 0l0 13.484375q0 6.25 5.234375 6.25q2.6875 0 4.3125 -1.75q1.640625 -1.75 1.640625 -5.21875l0 -12.765625l7.484375 0zm15.647949 26.21875q-3.21875 0 -6.296875 -0.796875q-3.0625 -0.796875 -4.890625 -2.0l2.5 -5.375q1.734375 1.109375 4.171875 1.8125q2.453125 0.6875 4.8125 0.6875q4.75 0 4.75 -2.34375q0 -1.109375 -1.296875 -1.59375q-1.296875 -0.484375 -3.984375 -0.8125q-3.171875 -0.484375 -5.234375 -1.109375q-2.0625 -0.625 -3.578125 -2.203125q-1.515625 -1.578125 -1.515625 -4.515625q0 -2.4375 1.421875 -4.328125q1.421875 -1.90625 4.125 -2.953125q2.71875 -1.0625 6.40625 -1.0625q2.734375 0 5.453125 0.59375q2.71875 0.59375 4.484375 1.65625l-2.5 5.328125q-3.40625 -1.921875 -7.4375 -1.921875q-2.390625 0 -3.59375 0.671875q-1.203125 0.671875 -1.203125 1.734375q0 1.203125 1.296875 1.6875q1.296875 0.46875 4.125 0.90625q3.171875 0.515625 5.1875 1.125q2.015625 0.59375 3.5 2.1875q1.5 1.578125 1.5 4.40625q0 2.40625 -1.453125 4.28125q-1.4375 1.859375 -4.203125 2.90625q-2.75 1.03125 -6.546875 1.03125zm16.800552 -26.21875l7.484375 0l0 25.828125l-7.484375 0l0 -25.828125zm3.734375 -3.59375q-2.0625 0 -3.359375 -1.203125q-1.296875 -1.203125 -1.296875 -2.96875q0 -1.78125 1.296875 -2.984375q1.296875 -1.203125 3.359375 -1.203125q2.0625 0 3.359375 1.15625q1.296875 1.15625 1.296875 2.875q0 1.875 -1.296875 3.109375q-1.296875 1.21875 -3.359375 1.21875zm26.416779 3.21875q4.796875 0 7.75 2.875q2.953125 2.875 2.953125 8.546875l0 14.78125l-7.484375 0l0 -13.625q0 -3.078125 -1.34375 -4.59375q-1.34375 -1.515625 -3.890625 -1.515625q-2.84375 0 -4.53125 1.765625q-1.671875 1.75 -1.671875 5.203125l0 12.765625l-7.484375 0l0 -25.828125l7.15625 0l0 3.03125q1.484375 -1.640625 3.6875 -2.515625q2.21875 -0.890625 4.859375 -0.890625zm30.768555 20.59375q2.015625 0 3.5625 -0.59375q1.5625 -0.609375 2.90625 -1.90625l3.9843903 4.3125q-3.6406403 4.1875 -10.656265 4.1875q-4.359375 0 -7.71875 -1.703125q-3.359375 -1.71875 -5.1875 -4.734375q-1.828125 -3.03125 -1.828125 -6.859375q0 -3.796875 1.796875 -6.84375q1.8125 -3.046875 4.953125 -4.75q3.140625 -1.703125 7.078125 -1.703125q3.703125 0 6.71875 1.5625q3.03125 1.546875 4.8281403 4.5q1.796875 2.953125 1.796875 6.984375l-19.10939 3.703125q0.828125 1.921875 2.578125 2.890625q1.75 0.953125 4.296875 0.953125zm-1.109375 -14.9375q-2.828125 0 -4.609375 1.828125q-1.78125 1.828125 -1.875 5.03125l12.578125 -2.4375q-0.53125 -2.015625 -2.171875 -3.21875q-1.625 -1.203125 -3.921875 -1.203125zm27.06932 20.9375q-3.21875 0 -6.296875 -0.796875q-3.0625 -0.796875 -4.890625 -2.0l2.5 -5.375q1.734375 1.109375 4.171875 1.8125q2.453125 0.6875 4.8125 0.6875q4.75 0 4.75 -2.34375q0 -1.109375 -1.296875 -1.59375q-1.296875 -0.484375 -3.984375 -0.8125q-3.171875 -0.484375 -5.234375 -1.109375q-2.0625 -0.625 -3.578125 -2.203125q-1.515625 -1.578125 -1.515625 -4.515625q0 -2.4375 1.421875 -4.328125q1.421875 -1.90625 4.125 -2.953125q2.71875 -1.0625 6.40625 -1.0625q2.734375 0 5.453125 0.59375q2.71875 0.59375 4.484375 1.65625l-2.5 5.328125q-3.40625 -1.921875 -7.4375 -1.921875q-2.390625 0 -3.59375 0.671875q-1.203125 0.671875 -1.203125 1.734375q0 1.203125 1.296875 1.6875q1.296875 0.46875 4.125 0.90625q3.171875 0.515625 5.1875 1.125q2.015625 0.59375 3.5 2.1875q1.5 1.578125 1.5 4.40625q0 2.40625 -1.453125 4.28125q-1.4375 1.859375 -4.203125 2.90625q-2.75 1.03125 -6.546875 1.03125zm25.488037 0q-3.21875 0 -6.296875 -0.796875q-3.0625 -0.796875 -4.890625 -2.0l2.5 -5.375q1.734375 1.109375 4.171875 1.8125q2.453125 0.6875 4.8125 0.6875q4.75 0 4.75 -2.34375q0 -1.109375 -1.296875 -1.59375q-1.296875 -0.484375 -3.984375 -0.8125q-3.171875 -0.484375 -5.234375 -1.109375q-2.0625 -0.625 -3.578125 -2.203125q-1.515625 -1.578125 -1.515625 -4.515625q0 -2.4375 1.421875 -4.328125q1.421875 -1.90625 4.125 -2.953125q2.71875 -1.0625 6.40625 -1.0625q2.734375 0 5.453125 0.59375q2.71875 0.59375 4.484375 1.65625l-2.5 5.328125q-3.40625 -1.921875 -7.4375 -1.921875q-2.390625 0 -3.59375 0.671875q-1.203125 0.671875 -1.203125 1.734375q0 1.203125 1.296875 1.6875q1.296875 0.46875 4.125 0.90625q3.171875 0.515625 5.1875 1.125q2.015625 0.59375 3.5 2.1875q1.5 1.578125 1.5 4.40625q0 2.40625 -1.453125 4.28125q-1.4375 1.859375 -4.203125 2.90625q-2.75 1.03125 -6.546875 1.03125zm65.57208 -17.1875q0 4.3125 -1.828125 7.890625q-1.828125 3.578125 -5.109375 5.984375q-3.28125 2.390625 -7.5625 3.15625l0 6.25l-7.828125 0l0 -6.25q-4.21875 -0.765625 -7.515625 -3.15625q-3.28125 -2.40625 -5.109375 -6.0q-1.8125 -3.609375 -1.8125 -7.875q0 -4.953125 2.375 -8.90625q2.375 -3.953125 6.578125 -6.203125q4.203125 -2.265625 9.421875 -2.265625q5.234375 0 9.40625 2.265625q4.1875 2.25 6.578125 6.203125q2.40625 3.953125 2.40625 8.90625zm-14.828125 10.21875q3.21875 -1.0 5.078125 -3.71875q1.875 -2.71875 1.875 -6.5q0 -3.125 -1.375 -5.5625q-1.359375 -2.453125 -3.765625 -3.8125q-2.390625 -1.375 -5.375 -1.375q-2.96875 0 -5.375 1.375q-2.390625 1.359375 -3.765625 3.8125q-1.359375 2.4375 -1.359375 5.5625q0 3.78125 1.84375 6.484375q1.84375 2.6875 5.015625 3.734375l0 -6.90625l7.203125 0l0 6.90625zm46.168335 -19.25l0 25.828125l-7.09375 0l0 -3.078125q-1.5 1.6875 -3.5625 2.578125q-2.0625 0.890625 -4.453125 0.890625q-5.09375 0 -8.078125 -2.921875q-2.96875 -2.9375 -2.96875 -8.703125l0 -14.59375l7.484375 0l0 13.484375q0 6.25 5.234375 6.25q2.6875 0 4.3125 -1.75q1.640625 -1.75 1.640625 -5.21875l0 -12.765625l7.484375 0zm19.976074 20.21875q2.015625 0 3.5625 -0.59375q1.5625 -0.609375 2.90625 -1.90625l3.984375 4.3125q-3.640625 4.1875 -10.65625 4.1875q-4.359375 0 -7.71875 -1.703125q-3.359375 -1.71875 -5.1875 -4.734375q-1.828125 -3.03125 -1.828125 -6.859375q0 -3.796875 1.796875 -6.84375q1.8125 -3.046875 4.953125 -4.75q3.140625 -1.703125 7.078125 -1.703125q3.703125 0 6.71875 1.5625q3.03125 1.546875 4.828125 4.5q1.796875 2.953125 1.796875 6.984375l-19.109375 3.703125q0.828125 1.921875 2.578125 2.890625q1.75 0.953125 4.296875 0.953125zm-1.109375 -14.9375q-2.828125 0 -4.609375 1.828125q-1.78125 1.828125 -1.875 5.03125l12.578125 -2.4375q-0.53125 -2.015625 -2.171875 -3.21875q-1.625 -1.203125 -3.921875 -1.203125zm27.069305 20.9375q-3.21875 0 -6.296875 -0.796875q-3.0625 -0.796875 -4.890625 -2.0l2.5 -5.375q1.734375 1.109375 4.171875 1.8125q2.453125 0.6875 4.8125 0.6875q4.75 0 4.75 -2.34375q0 -1.109375 -1.296875 -1.59375q-1.296875 -0.484375 -3.984375 -0.8125q-3.171875 -0.484375 -5.234375 -1.109375q-2.0625 -0.625 -3.578125 -2.203125q-1.515625 -1.578125 -1.515625 -4.515625q0 -2.4375 1.421875 -4.328125q1.421875 -1.90625 4.125 -2.953125q2.71875 -1.0625 6.40625 -1.0625q2.734375 0 5.453125 0.59375q2.71875 0.59375 4.484375 1.65625l-2.5 5.328125q-3.40625 -1.921875 -7.4375 -1.921875q-2.390625 0 -3.59375 0.671875q-1.203125 0.671875 -1.203125 1.734375q0 1.203125 1.296875 1.6875q1.296875 0.46875 4.125 0.90625q3.171875 0.515625 5.1875 1.125q2.015625 0.59375 3.5 2.1875q1.5 1.578125 1.5 4.40625q0 2.40625 -1.453125 4.28125q-1.4375 1.859375 -4.203125 2.90625q-2.75 1.03125 -6.546875 1.03125zm32.363068 -1.640625q-1.109375 0.8125 -2.71875 1.234375q-1.609375 0.40625 -3.34375 0.40625q-4.65625 0 -7.15625 -2.34375q-2.484375 -2.359375 -2.484375 -6.921875l0 -22.65625l7.484375 0l0 6.28125l6.390625 0l0 5.765625l-6.390625 0l0 10.515625q0 1.625 0.8125 2.515625q0.828125 0.890625 2.359375 0.890625q1.734375 0 3.078125 -0.96875l1.96875 5.28125zm4.213562 -24.578125l7.484375 0l0 25.828125l-7.484375 0l0 -25.828125zm3.734375 -3.59375q-2.0625 0 -3.359375 -1.203125q-1.296875 -1.203125 -1.296875 -2.96875q0 -1.78125 1.296875 -2.984375q1.296875 -1.203125 3.359375 -1.203125q2.0625 0 3.359375 1.15625q1.296875 1.15625 1.296875 2.875q0 1.875 -1.296875 3.109375q-1.296875 1.21875 -3.359375 1.21875zm23.010529 29.8125q-4.09375 0 -7.328125 -1.703125q-3.234375 -1.71875 -5.0625 -4.734375q-1.828125 -3.03125 -1.828125 -6.859375q0 -3.84375 1.828125 -6.859375q1.828125 -3.03125 5.0625 -4.734375q3.234375 -1.703125 7.328125 -1.703125q4.078125 0 7.28125 1.703125q3.2187195 1.703125 5.0468445 4.734375q1.828125 3.015625 1.828125 6.859375q0 3.828125 -1.828125 6.859375q-1.828125 3.015625 -5.0468445 4.734375q-3.203125 1.703125 -7.28125 1.703125zm0 -6.15625q2.875 0 4.71875 -1.9375q1.84375 -1.9375 1.84375 -5.203125q0 -3.265625 -1.84375 -5.203125q-1.84375 -1.953125 -4.71875 -1.953125q-2.890625 0 -4.765625 1.953125q-1.859375 1.9375 -1.859375 5.203125q0 3.265625 1.859375 5.203125q1.875 1.9375 4.765625 1.9375zm34.846283 -20.4375q4.796875 0 7.75 2.875q2.953125 2.875 2.953125 8.546875l0 14.78125l-7.484375 0l0 -13.625q0 -3.078125 -1.34375 -4.59375q-1.34375 -1.515625 -3.890625 -1.515625q-2.84375 0 -4.53125 1.765625q-1.671875 1.75 -1.671875 5.203125l0 12.765625l-7.484375 0l0 -25.828125l7.15625 0l0 3.03125q1.484375 -1.640625 3.6875 -2.515625q2.21875 -0.890625 4.859375 -0.890625zm26.152466 26.59375q-3.21875 0 -6.296875 -0.796875q-3.0625 -0.796875 -4.890625 -2.0l2.5 -5.375q1.734375 1.109375 4.171875 1.8125q2.453125 0.6875 4.8125 0.6875q4.75 0 4.75 -2.34375q0 -1.109375 -1.296875 -1.59375q-1.296875 -0.484375 -3.984375 -0.8125q-3.171875 -0.484375 -5.234375 -1.109375q-2.0625 -0.625 -3.578125 -2.203125q-1.515625 -1.578125 -1.515625 -4.515625q0 -2.4375 1.421875 -4.328125q1.421875 -1.90625 4.125 -2.953125q2.71875 -1.0625 6.40625 -1.0625q2.734375 0 5.453125 0.59375q2.71875 0.59375 4.484375 1.65625l-2.5 5.328125q-3.40625 -1.921875 -7.4375 -1.921875q-2.390625 0 -3.59375 0.671875q-1.203125 0.671875 -1.203125 1.734375q0 1.203125 1.296875 1.6875q1.296875 0.46875 4.125 0.90625q3.171875 0.515625 5.1875 1.125q2.015625 0.59375 3.5 2.1875q1.5 1.578125 1.5 4.40625q0 2.40625 -1.453125 4.28125q-1.4375 1.859375 -4.203125 2.90625q-2.75 1.03125 -6.546875 1.03125z" fill-rule="nonzero"/><path fill="#000000" fill-opacity="0.0" d="m116.85565 332.01312l372.8189 0l0 294.6142l-372.8189 0z" fill-rule="evenodd"/><path fill="#000000" d="m239.05586 442.04022l-9.046875 -27.0625l3.984375 0l8.3125 24.96875l-2.015625 0l8.625015 -24.96875l3.5625 0l8.421875 24.96875l-1.9375 0l8.4375 -24.96875l3.671875 0l-9.046875 27.0625l-4.0625 0l-7.890625 -23.15625l1.046875 0l-7.9218903 23.15625l-4.140625 0zm36.219955 0l0 -28.6875l3.71875 0l0 13.734375l-0.734375 -1.46875q1.0 -2.015625 3.078125 -3.140625q2.09375 -1.125 4.875 -1.125q2.515625 0 4.421875 0.96875q1.921875 0.96875 3.0 2.9375q1.09375 1.96875 1.09375 4.984375l0 11.796875l-3.71875 0l0 -11.359375q0 -2.984375 -1.453125 -4.484375q-1.4375 -1.515625 -4.078125 -1.515625q-1.96875 0 -3.4375 0.78125q-1.46875 0.765625 -2.265625 2.28125q-0.78125 1.5 -0.78125 3.75l0 10.546875l-3.71875 0zm39.04364 0l0 -4.328125l-0.1875 -0.8125l0 -7.390625q0 -2.34375 -1.375 -3.640625q-1.375 -1.296875 -4.125 -1.296875q-1.8125 0 -3.5625 0.59375q-1.734375 0.59375 -2.921875 1.609375l-1.546875 -2.78125q1.578125 -1.28125 3.796875 -1.953125q2.234375 -0.6875 4.671875 -0.6875q4.203125 0 6.484375 2.0625q2.28125 2.046875 2.28125 6.25l0 12.375l-3.515625 0zm-6.71875 0.234375q-2.28125 0 -4.015625 -0.765625q-1.71875 -0.78125 -2.640625 -2.15625q-0.921875 -1.375 -0.921875 -3.109375q0 -1.65625 0.78125 -3.015625q0.796875 -1.359375 2.59375 -2.171875q1.796875 -0.8125 4.859375 -0.8125l6.484375 0l0 2.671875l-6.328125 0q-2.796875 0 -3.765625 0.9375q-0.953125 0.921875 -0.953125 2.234375q0 1.5 1.1875 2.421875q1.203125 0.90625 3.328125 0.90625q2.09375 0 3.65625 -0.921875q1.5625 -0.9375 2.265625 -2.71875l0.734375 2.546875q-0.734375 1.828125 -2.59375 2.890625q-1.859375 1.0625 -4.671875 1.0625zm24.147675 0q-3.09375 0 -4.796875 -1.65625q-1.6875 -1.671875 -1.6875 -4.765625l0 -18.78125l3.703125 0l0 18.625q0 1.671875 0.828125 2.5625q0.84375 0.875 2.390625 0.875q1.734375 0 2.890625 -0.953125l1.15625 2.65625q-0.84375 0.734375 -2.03125 1.09375q-1.171875 0.34375 -2.453125 0.34375zm-9.96875 -17.671875l0 -3.046875l13.0625 0l0 3.046875l-13.0625 0zm29.339722 17.4375l0 -20.484375l3.71875 0l0 20.484375l-3.71875 0zm1.859375 -24.4375q-1.078125 0 -1.796875 -0.6875q-0.71875 -0.703125 -0.71875 -1.703125q0 -1.046875 0.71875 -1.734375q0.71875 -0.703125 1.796875 -0.703125q1.078125 0 1.796875 0.6875q0.71875 0.671875 0.71875 1.671875q0 1.046875 -0.703125 1.765625q-0.6875 0.703125 -1.8125 0.703125zm14.80072 24.671875q-2.546875 0 -4.859375 -0.6875q-2.296875 -0.703125 -3.609375 -1.71875l1.546875 -2.9375q1.3125 0.890625 3.25 1.515625q1.9375 0.625 3.9375 0.625q2.59375 0 3.734375 -0.734375q1.140625 -0.75 1.140625 -2.0625q0 -0.953125 -0.703125 -1.5q-0.6875 -0.546875 -1.828125 -0.8125q-1.140625 -0.265625 -2.53125 -0.484375q-1.390625 -0.21875 -2.78125 -0.546875q-1.390625 -0.328125 -2.5625 -0.921875q-1.15625 -0.59375 -1.859375 -1.65625q-0.6875 -1.0625 -0.6875 -2.84375q0 -1.859375 1.046875 -3.25q1.046875 -1.390625 2.953125 -2.140625q1.921875 -0.765625 4.546875 -0.765625q2.015625 0 4.078125 0.484375q2.078125 0.484375 3.390625 1.375l-1.59375 2.9375q-1.390625 -0.921875 -2.90625 -1.265625q-1.5 -0.359375 -3.0 -0.359375q-2.4375 0 -3.640625 0.796875q-1.203125 0.796875 -1.203125 2.03125q0 1.046875 0.71875 1.609375q0.71875 0.546875 1.859375 0.859375q1.140625 0.3125 2.53125 0.53125q1.390625 0.203125 2.78125 0.53125q1.390625 0.328125 2.53125 0.921875q1.140625 0.578125 1.859375 1.625q0.71875 1.03125 0.71875 2.765625q0 1.859375 -1.09375 3.21875q-1.078125 1.34375 -3.046875 2.109375q-1.96875 0.75 -4.71875 0.75z" fill-rule="nonzero"/><path fill="#000000" d="m160.75392 488.6746q-2.546875 0 -4.65625 -1.171875q-2.109375 -1.1875 -3.359375 -3.5q-1.25 -2.328125 -1.25 -5.8125q0 -3.46875 1.203125 -5.78125q1.21875 -2.328125 3.328125 -3.484375q2.109375 -1.171875 4.734375 -1.171875q3.015625 0 5.328125 1.328125q2.328125 1.3125 3.671875 3.65625q1.359375 2.328125 1.359375 5.453125q0 3.140625 -1.359375 5.5q-1.34375 2.359375 -3.671875 3.671875q-2.3125 1.3125 -5.328125 1.3125zm-10.859375 7.265625l0 -27.984375l3.5625 0l0 5.53125l-0.234375 4.75l0.390625 4.75l0 12.953125l-3.71875 0zm10.5625 -10.515625q1.96875 0 3.53125 -0.890625q1.5625 -0.890625 2.46875 -2.53125q0.90625 -1.640625 0.90625 -3.8125q0 -2.203125 -0.90625 -3.796875q-0.90625 -1.609375 -2.46875 -2.5q-1.5625 -0.890625 -3.53125 -0.890625q-1.9375 0 -3.515625 0.890625q-1.5625 0.890625 -2.46875 2.5q-0.90625 1.59375 -0.90625 3.796875q0 2.171875 0.90625 3.8125q0.90625 1.640625 2.46875 2.53125q1.578125 0.890625 3.515625 0.890625zm24.926056 3.25q-3.28125 0 -5.78125 -1.34375q-2.484375 -1.359375 -3.859375 -3.71875q-1.375 -2.359375 -1.375 -5.421875q0 -3.046875 1.328125 -5.40625q1.34375 -2.359375 3.671875 -3.6875q2.34375 -1.34375 5.28125 -1.34375q2.96875 0 5.25 1.328125q2.28125 1.3125 3.578125 3.6875q1.296875 2.375 1.296875 5.546875q0 0.234375 -0.015625 0.546875q-0.015625 0.296875 -0.0625 0.578125l-17.4375 0l0 -2.671875l15.515625 0l-1.515625 0.921875q0.046875 -1.96875 -0.8125 -3.515625q-0.84375 -1.546875 -2.34375 -2.40625q-1.484375 -0.875 -3.453125 -0.875q-1.9375 0 -3.453125 0.875q-1.5 0.859375 -2.359375 2.4375q-0.84375 1.5625 -0.84375 3.5625l0 0.625q0 2.046875 0.953125 3.65625q0.953125 1.59375 2.640625 2.484375q1.703125 0.890625 3.90625 0.890625q1.828125 0 3.3125 -0.609375q1.484375 -0.625 2.609375 -1.859375l2.046875 2.390625q-1.390625 1.625 -3.46875 2.484375q-2.0625 0.84375 -4.609375 0.84375zm14.532623 -0.234375l0 -20.484375l3.5625 0l0 5.5625l-0.359375 -1.390625q0.859375 -2.125 2.859375 -3.25q2.015625 -1.125 4.953125 -1.125l0 3.59375q-0.234375 -0.03125 -0.453125 -0.03125q-0.203125 0 -0.390625 0q-2.984375 0 -4.71875 1.78125q-1.734375 1.78125 -1.734375 5.140625l0 10.203125l-3.71875 0zm16.395935 0l0 -22.296875q0 -3.015625 1.75 -4.8125q1.765625 -1.8125 5.015625 -1.8125q1.1875 0 2.28125 0.296875q1.109375 0.296875 1.890625 0.90625l-1.125 2.828125q-0.578125 -0.46875 -1.3125 -0.71875q-0.734375 -0.25 -1.546875 -0.25q-1.625 0 -2.484375 0.90625q-0.84375 0.90625 -0.84375 2.6875l0 2.75l0.078125 1.6875l0 17.828125l-3.703125 0zm-3.484375 -17.4375l0 -3.046875l13.0625 0l0 3.046875l-13.0625 0zm25.055069 17.671875q-3.09375 0 -5.5 -1.34375q-2.390625 -1.359375 -3.78125 -3.734375q-1.390625 -2.390625 -1.390625 -5.40625q0 -3.046875 1.390625 -5.40625q1.390625 -2.359375 3.78125 -3.6875q2.40625 -1.34375 5.5 -1.34375q3.046875 0 5.453125 1.34375q2.421875 1.328125 3.796875 3.671875q1.375 2.328125 1.375 5.421875q0 3.0625 -1.375 5.421875q-1.375 2.359375 -3.796875 3.71875q-2.40625 1.34375 -5.453125 1.34375zm0 -3.25q1.96875 0 3.53125 -0.890625q1.5625 -0.890625 2.453125 -2.53125q0.890625 -1.640625 0.890625 -3.8125q0 -2.203125 -0.890625 -3.796875q-0.890625 -1.609375 -2.453125 -2.5q-1.5625 -0.890625 -3.53125 -0.890625q-1.96875 0 -3.515625 0.890625q-1.546875 0.890625 -2.484375 2.5q-0.921875 1.59375 -0.921875 3.796875q0 2.171875 0.921875 3.8125q0.9375 1.640625 2.484375 2.53125q1.546875 0.890625 3.515625 0.890625zm15.765457 3.015625l0 -20.484375l3.5624847 0l0 5.5625l-0.359375 -1.390625q0.859375 -2.125 2.859375 -3.25q2.015625 -1.125 4.953125 -1.125l0 3.59375q-0.234375 -0.03125 -0.453125 -0.03125q-0.203125 0 -0.390625 0q-2.984375 0 -4.71875 1.78125q-1.734375 1.78125 -1.734375 5.140625l0 10.203125l-3.7187347 0zm15.578384 0l0 -20.484375l3.5625 0l0 5.453125l-0.578125 -1.390625q0.953125 -2.015625 2.96875 -3.140625q2.015625 -1.125 4.671875 -1.125q2.953125 0 5.078125 1.453125q2.125 1.453125 2.78125 4.390625l-1.515625 -0.625q0.9375 -2.359375 3.25 -3.78125q2.3125 -1.4375 5.40625 -1.4375q2.484375 0 4.375 0.96875q1.890625 0.96875 2.953125 2.9375q1.0625 1.96875 1.0625 4.984375l0 11.796875l-3.703125 0l0 -11.359375q0 -2.984375 -1.390625 -4.484375q-1.390625 -1.515625 -3.90625 -1.515625q-1.859375 0 -3.25 0.78125q-1.390625 0.765625 -2.15625 2.28125q-0.75 1.5 -0.75 3.75l0 10.546875l-3.703125 0l0 -11.359375q0 -2.984375 -1.375 -4.484375q-1.375 -1.515625 -3.921875 -1.515625q-1.8125 0 -3.203125 0.78125q-1.390625 0.765625 -2.171875 2.28125q-0.765625 1.5 -0.765625 3.75l0 10.546875l-3.71875 0zm40.85965 0l0 -20.484375l3.71875 0l0 20.484375l-3.71875 0zm1.859375 -24.4375q-1.078125 0 -1.796875 -0.6875q-0.71875 -0.703125 -0.71875 -1.703125q0 -1.046875 0.71875 -1.734375q0.71875 -0.703125 1.796875 -0.703125q1.078125 0 1.796875 0.6875q0.71875 0.671875 0.71875 1.671875q0 1.046875 -0.703125 1.765625q-0.6875 0.703125 -1.8125 0.703125zm8.92572 24.4375l0 -20.484375l3.5625 0l0 5.53125l-0.578125 -1.46875q1.0 -2.015625 3.078125 -3.140625q2.09375 -1.125 4.875 -1.125q2.515625 0 4.421875 0.96875q1.921875 0.96875 3.0 2.9375q1.09375 1.96875 1.09375 4.984375l0 11.796875l-3.71875 0l0 -11.359375q0 -2.984375 -1.453125 -4.484375q-1.4375 -1.515625 -4.078125 -1.515625q-1.96875 0 -3.4375 0.78125q-1.46875 0.765625 -2.265625 2.28125q-0.78125 1.5 -0.78125 3.75l0 10.546875l-3.71875 0zm35.29364 7.734375q-2.828125 0 -5.46875 -0.796875q-2.640625 -0.796875 -4.3125 -2.265625l1.78125 -2.859375q1.4375 1.234375 3.515625 1.953125q2.09375 0.71875 4.375 0.71875q3.625 0 5.328125 -1.703125q1.703125 -1.703125 1.703125 -5.171875l0 -4.328125l0.390625 -4.0625l-0.203125 -4.09375l0 -5.609375l3.515625 0l0 17.703125q0 5.40625 -2.703125 7.953125q-2.703125 2.5625 -7.921875 2.5625zm-0.46875 -8.578125q-2.96875 0 -5.3125 -1.25q-2.328125 -1.265625 -3.703125 -3.5q-1.375 -2.25 -1.375 -5.1875q0 -2.984375 1.375 -5.203125q1.375 -2.21875 3.703125 -3.453125q2.34375 -1.25 5.3125 -1.25q2.640625 0 4.796875 1.0625q2.171875 1.0625 3.453125 3.28125q1.296875 2.203125 1.296875 5.5625q0 3.328125 -1.296875 5.53125q-1.28125 2.203125 -3.453125 3.3125q-2.15625 1.09375 -4.796875 1.09375zm0.4375 -3.25q2.046875 0 3.625 -0.84375q1.59375 -0.859375 2.5 -2.359375q0.90625 -1.515625 0.90625 -3.484375q0 -1.96875 -0.90625 -3.46875q-0.90625 -1.515625 -2.5 -2.34375q-1.578125 -0.84375 -3.625 -0.84375q-2.046875 0 -3.65625 0.84375q-1.609375 0.828125 -2.515625 2.34375q-0.90625 1.5 -0.90625 3.46875q0 1.96875 0.90625 3.484375q0.90625 1.5 2.515625 2.359375q1.609375 0.84375 3.65625 0.84375zm32.461945 4.09375l-7.609375 -20.484375l3.515625 0l6.765625 18.546875l-1.65625 0l7.03125 -18.546875l3.125 0l6.890625 18.546875l-1.625 0l6.921875 -18.546875l3.3125 0l-7.65625 20.484375l-3.546875 0l-6.453125 -16.9375l1.078125 0l-6.53125 16.9375l-3.5625 0zm38.96881 0.234375q-3.28125 0 -5.78125 -1.34375q-2.484375 -1.359375 -3.859375 -3.71875q-1.375 -2.359375 -1.375 -5.421875q0 -3.046875 1.328125 -5.40625q1.34375 -2.359375 3.671875 -3.6875q2.34375 -1.34375 5.28125 -1.34375q2.96875 0 5.25 1.328125q2.28125 1.3125 3.578125 3.6875q1.296875 2.375 1.296875 5.546875q0 0.234375 -0.015625 0.546875q-0.015625 0.296875 -0.0625 0.578125l-17.4375 0l0 -2.671875l15.515625 0l-1.515625 0.921875q0.046875 -1.96875 -0.8125 -3.515625q-0.84375 -1.546875 -2.34375 -2.40625q-1.484375 -0.875 -3.453125 -0.875q-1.9375 0 -3.453125 0.875q-1.5 0.859375 -2.359375 2.4375q-0.84375 1.5625 -0.84375 3.5625l0 0.625q0 2.046875 0.953125 3.65625q0.953125 1.59375 2.640625 2.484375q1.703125 0.890625 3.90625 0.890625q1.828125 0 3.3125 -0.609375q1.484375 -0.625 2.609375 -1.859375l2.046875 2.390625q-1.390625 1.625 -3.46875 2.484375q-2.0625 0.84375 -4.609375 0.84375zm14.532654 -0.234375l0 -28.6875l3.71875 0l0 28.6875l-3.71875 0zm10.785095 0l0 -28.6875l3.71875 0l0 28.6875l-3.71875 0z" fill-rule="nonzero"/><path fill="#000000" d="m158.00534 542.5202l4.984375 -25.09375l7.234375 0l-4.984375 25.09375l-7.234375 0zm9.890625 -28.59375q-1.96875 0 -3.140625 -1.09375q-1.15625 -1.109375 -1.15625 -2.6875q0 -1.875 1.328125 -3.109375q1.328125 -1.234375 3.484375 -1.234375q1.953125 0 3.109375 1.046875q1.171875 1.046875 1.171875 2.59375q0 2.0 -1.328125 3.25q-1.328125 1.234375 -3.46875 1.234375zm23.699966 3.125q3.21875 0 5.453125 1.328125q2.25 1.328125 3.171875 3.890625q0.9375 2.5625 0.1875 6.34375l-2.796875 13.90625l-7.28125 0l2.703125 -13.4375q0.5625 -2.75 -0.4375 -4.234375q-1.0 -1.5 -3.65625 -1.5q-2.765625 0 -4.609375 1.59375q-1.828125 1.578125 -2.53125 4.84375l-2.515625 12.734375l-7.28125 0l4.984375 -25.09375l6.90625 0l-1.4375 7.078125l-1.03125 -2.140625q1.8125 -2.75 4.5 -4.03125q2.6875 -1.28125 5.671875 -1.28125zm13.70813 15.25l1.171875 -5.828125l13.203125 0l-1.171875 5.828125l-13.203125 0zm30.663422 10.59375q-3.875 0 -6.75 -1.390625q-2.859375 -1.40625 -4.453125 -3.921875q-1.578125 -2.53125 -1.578125 -5.9375q0 -4.1875 1.953125 -7.484375q1.953125 -3.296875 5.40625 -5.203125q3.453125 -1.90625 7.9375 -1.90625q4.015625 0 6.953125 1.65625q2.9375 1.65625 4.34375 4.6875l-6.171875 3.078125q-0.78125 -1.78125 -2.203125 -2.59375q-1.421875 -0.8125 -3.390625 -0.8125q-2.140625 0 -3.828125 1.046875q-1.671875 1.046875 -2.65625 2.890625q-0.984375 1.84375 -0.984375 4.265625q0 2.578125 1.515625 4.09375q1.515625 1.515625 4.328125 1.515625q1.90625 0 3.484375 -0.8125q1.59375 -0.828125 2.671875 -2.546875l5.359375 3.359375q-1.765625 2.84375 -4.921875 4.4375q-3.140625 1.578125 -7.015625 1.578125zm33.824173 -25.84375q3.171875 0 5.40625 1.328125q2.25 1.328125 3.203125 3.890625q0.953125 2.5625 0.203125 6.34375l-2.796875 13.90625l-7.28125 0l2.703125 -13.4375q0.5625 -2.75 -0.4375 -4.234375q-1.0 -1.5 -3.65625 -1.5q-2.765625 0 -4.609375 1.59375q-1.828125 1.578125 -2.53125 4.84375l-2.515625 12.734375l-7.28125 0l6.90625 -34.625l7.265625 0l-3.3125 16.609375l-1.4375 -2.140625q1.8125 -2.75 4.5 -4.03125q2.6875 -1.28125 5.671875 -1.28125zm24.1604 25.84375q-2.890625 0 -5.359375 -1.328125q-2.46875 -1.328125 -3.96875 -3.84375q-1.484375 -2.53125 -1.484375 -6.078125q0 -3.171875 1.046875 -5.828125q1.046875 -2.65625 2.953125 -4.609375q1.921875 -1.96875 4.4375 -3.0625q2.515625 -1.09375 5.40625 -1.09375q3.125 0 5.359375 1.171875q2.25 1.15625 3.34375 3.609375q1.09375 2.4375 0.78125 6.3125q-0.234375 4.4375 -1.828125 7.78125q-1.578125 3.328125 -4.265625 5.15625q-2.6875 1.8125 -6.421875 1.8125zm2.25 -6.015625q2.140625 0 3.796875 -1.046875q1.65625 -1.0625 2.609375 -2.90625q0.953125 -1.84375 0.953125 -4.3125q0 -2.5625 -1.515625 -4.046875q-1.515625 -1.5 -4.21875 -1.5q-2.09375 0 -3.78125 1.046875q-1.671875 1.046875 -2.640625 2.890625q-0.953125 1.84375 -0.953125 4.3125q0 2.578125 1.515625 4.078125q1.515625 1.484375 4.234375 1.484375zm4.984375 5.640625l0.984375 -5.0l1.625 -7.453125l0.984375 -7.46875l1.03125 -5.171875l7.28125 0l-5.0 25.09375l-6.90625 0zm33.224 -25.46875q3.21875 0 5.453125 1.328125q2.25 1.328125 3.171875 3.890625q0.9375 2.5625 0.1875 6.34375l-2.796875 13.90625l-7.28125 0l2.703125 -13.4375q0.5625 -2.75 -0.4375 -4.234375q-1.0 -1.5 -3.65625 -1.5q-2.765625 0 -4.609375 1.59375q-1.828125 1.578125 -2.53125 4.84375l-2.515625 12.734375l-7.28125 0l4.984375 -25.09375l6.90625 0l-1.4375 7.078125l-1.03125 -2.140625q1.8125 -2.75 4.5 -4.03125q2.6875 -1.28125 5.671875 -1.28125zm32.23938 0q3.21875 0 5.453125 1.328125q2.25 1.328125 3.171875 3.890625q0.9375 2.5625 0.1875 6.34375l-2.796875 13.90625l-7.28125 0l2.703125 -13.4375q0.5625 -2.75 -0.4375 -4.234375q-1.0 -1.5 -3.65625 -1.5q-2.765625 0 -4.609375 1.59375q-1.828125 1.578125 -2.53125 4.84375l-2.515625 12.734375l-7.28125 0l4.984375 -25.09375l6.90625 0l-1.4375 7.078125l-1.03125 -2.140625q1.8125 -2.75 4.5 -4.03125q2.6875 -1.28125 5.671875 -1.28125zm26.176056 25.84375q-3.921875 0 -6.796875 -1.390625q-2.859375 -1.40625 -4.453125 -3.921875q-1.578125 -2.53125 -1.578125 -5.9375q0 -4.1875 1.875 -7.484375q1.890625 -3.296875 5.21875 -5.203125q3.34375 -1.90625 7.6875 -1.90625q3.6875 0 6.34375 1.375q2.65625 1.375 4.125 3.828125q1.484375 2.4375 1.484375 5.84375q0 0.984375 -0.125 1.96875q-0.109375 0.96875 -0.296875 1.859375l-20.765625 0l0.75 -4.25l16.609375 0l-2.984375 1.3125q0.359375 -2.09375 -0.25 -3.515625q-0.59375 -1.421875 -1.953125 -2.1875q-1.34375 -0.78125 -3.265625 -0.78125q-2.375 0 -4.03125 1.140625q-1.65625 1.140625 -2.5 3.15625q-0.84375 2.0 -0.84375 4.515625q0 2.890625 1.609375 4.328125q1.609375 1.421875 4.890625 1.421875q1.90625 0 3.671875 -0.609375q1.78125 -0.609375 3.03125 -1.734375l3.046875 4.8125q-2.203125 1.71875 -4.9375 2.546875q-2.71875 0.8125 -5.5625 0.8125zm15.956299 -0.375l6.90625 -34.625l7.265625 0l-6.890625 34.625l-7.28125 0zm23.043488 -11.34375q0.328125 -1.765625 1.15625 -3.015625q0.84375 -1.265625 1.9375 -2.25q1.109375 -0.984375 2.265625 -1.8125q1.171875 -0.84375 2.140625 -1.640625q0.984375 -0.796875 1.59375 -1.703125q0.609375 -0.90625 0.609375 -2.171875q0 -1.4375 -1.171875 -2.296875q-1.15625 -0.875 -3.359375 -0.875q-2.28125 0 -4.125 0.9375q-1.84375 0.9375 -3.1875 2.609375l-4.90625 -3.59375q2.109375 -2.796875 5.640625 -4.421875q3.546875 -1.640625 8.078125 -1.640625q3.3125 0 5.734375 0.953125q2.4375 0.953125 3.765625 2.734375q1.328125 1.765625 1.328125 4.15625q0 2.0 -0.6875 3.5q-0.671875 1.484375 -1.75 2.5625q-1.0625 1.0625 -2.328125 1.984375q-1.25 0.90625 -2.453125 1.765625q-1.1875 0.859375 -2.046875 1.875q-0.859375 1.0 -1.1875 2.34375l-7.046875 0zm1.8125 11.71875q-1.859375 0 -3.078125 -1.140625q-1.203125 -1.140625 -1.203125 -2.78125q0 -1.953125 1.375 -3.21875q1.375 -1.265625 3.328125 -1.265625q1.875 0 3.0625 1.109375q1.1875 1.09375 1.1875 2.71875q0 1.265625 -0.640625 2.3125q-0.625 1.046875 -1.671875 1.65625q-1.046875 0.609375 -2.359375 0.609375z" fill-rule="nonzero"/><path fill="#000000" fill-opacity="0.0" d="m116.8568 651.4452l372.8189 0l0 246.74017l-372.8189 0z" fill-rule="evenodd"/><path fill="#000000" d="m154.82507 732.7353l-9.046875 -27.0625l3.984375 0l8.3125 24.96875l-2.015625 0l8.625 -24.96875l3.5625 0l8.421875 24.96875l-1.9375 0l8.4375 -24.96875l3.671875 0l-9.046875 27.0625l-4.0625 0l-7.890625 -23.15625l1.046875 0l-7.921875 23.15625l-4.140625 0zm36.219955 0l0 -28.6875l3.71875 0l0 13.734375l-0.734375 -1.46875q1.0 -2.015625 3.078125 -3.140625q2.09375 -1.125 4.875 -1.125q2.515625 0 4.421875 0.96875q1.921875 0.96875 3.0 2.9375q1.09375 1.96875 1.09375 4.984375l0 11.796875l-3.71875 0l0 -11.359375q0 -2.984375 -1.453125 -4.484375q-1.4375 -1.515625 -4.078125 -1.515625q-1.96875 0 -3.4375 0.78125q-1.46875 0.765625 -2.265625 2.28125q-0.78125 1.5 -0.78125 3.75l0 10.546875l-3.71875 0zm39.04364 0l0 -4.328125l-0.1875 -0.8125l0 -7.390625q0 -2.34375 -1.375 -3.640625q-1.375 -1.296875 -4.125 -1.296875q-1.8125 0 -3.5625 0.59375q-1.734375 0.59375 -2.921875 1.609375l-1.546875 -2.78125q1.578125 -1.28125 3.796875 -1.953125q2.234375 -0.6875 4.671875 -0.6875q4.203125 0 6.484375 2.0625q2.28125 2.046875 2.28125 6.25l0 12.375l-3.515625 0zm-6.71875 0.234375q-2.28125 0 -4.015625 -0.765625q-1.71875 -0.78125 -2.640625 -2.15625q-0.921875 -1.375 -0.921875 -3.109375q0 -1.65625 0.78125 -3.015625q0.796875 -1.359375 2.59375 -2.171875q1.796875 -0.8125 4.859375 -0.8125l6.484375 0l0 2.671875l-6.328125 0q-2.796875 0 -3.765625 0.9375q-0.953125 0.921875 -0.953125 2.234375q0 1.5 1.1875 2.421875q1.203125 0.90625 3.328125 0.90625q2.09375 0 3.65625 -0.921875q1.5625 -0.9375 2.265625 -2.71875l0.734375 2.546875q-0.734375 1.828125 -2.59375 2.890625q-1.859375 1.0625 -4.671875 1.0625zm24.147675 0q-3.09375 0 -4.796875 -1.65625q-1.6875 -1.671875 -1.6875 -4.765625l0 -18.78125l3.703125 0l0 18.625q0 1.671875 0.828125 2.5625q0.84375 0.875 2.390625 0.875q1.734375 0 2.890625 -0.953125l1.15625 2.65625q-0.84375 0.734375 -2.03125 1.09375q-1.171875 0.34375 -2.453125 0.34375zm-9.96875 -17.671875l0 -3.046875l13.0625 0l0 3.046875l-13.0625 0zm29.339706 17.4375l0 -20.484375l3.71875 0l0 20.484375l-3.71875 0zm1.859375 -24.4375q-1.078125 0 -1.796875 -0.6875q-0.71875 -0.703125 -0.71875 -1.703125q0 -1.046875 0.71875 -1.734375q0.71875 -0.703125 1.796875 -0.703125q1.078125 0 1.796875 0.6875q0.71875 0.671875 0.71875 1.671875q0 1.046875 -0.703125 1.765625q-0.6875 0.703125 -1.8125 0.703125zm14.80072 24.671875q-2.546875 0 -4.859375 -0.6875q-2.296875 -0.703125 -3.609375 -1.71875l1.546875 -2.9375q1.3125 0.890625 3.25 1.515625q1.9375 0.625 3.9375 0.625q2.59375 0 3.734375 -0.734375q1.140625 -0.75 1.140625 -2.0625q0 -0.953125 -0.703125 -1.5q-0.6875 -0.546875 -1.828125 -0.8125q-1.140625 -0.265625 -2.53125 -0.484375q-1.390625 -0.21875 -2.78125 -0.546875q-1.390625 -0.328125 -2.5625 -0.921875q-1.15625 -0.59375 -1.859375 -1.65625q-0.6875 -1.0625 -0.6875 -2.84375q0 -1.859375 1.046875 -3.25q1.046875 -1.390625 2.953125 -2.140625q1.921875 -0.765625 4.546875 -0.765625q2.015625 0 4.078125 0.484375q2.078125 0.484375 3.390625 1.375l-1.59375 2.9375q-1.390625 -0.921875 -2.90625 -1.265625q-1.5 -0.359375 -3.0 -0.359375q-2.4375 0 -3.640625 0.796875q-1.203125 0.796875 -1.203125 2.03125q0 1.046875 0.71875 1.609375q0.71875 0.546875 1.859375 0.859375q1.140625 0.3125 2.53125 0.53125q1.390625 0.203125 2.78125 0.53125q1.390625 0.328125 2.53125 0.921875q1.140625 0.578125 1.859375 1.625q0.71875 1.03125 0.71875 2.765625q0 1.859375 -1.09375 3.21875q-1.078125 1.34375 -3.046875 2.109375q-1.96875 0.75 -4.71875 0.75zm30.92157 0q-3.09375 0 -4.796875 -1.65625q-1.6875 -1.671875 -1.6875 -4.765625l0 -18.78125l3.703125 0l0 18.625q0 1.671875 0.828125 2.5625q0.84375 0.875 2.390625 0.875q1.734375 0 2.890625 -0.953125l1.15625 2.65625q-0.84375 0.734375 -2.03125 1.09375q-1.171875 0.34375 -2.453125 0.34375zm-9.96875 -17.671875l0 -3.046875l13.0625 0l0 3.046875l-13.0625 0zm18.941162 17.4375l0 -28.6875l3.71875 0l0 13.734375l-0.734375 -1.46875q1.0 -2.015625 3.078125 -3.140625q2.09375 -1.125 4.875 -1.125q2.515625 0 4.421875 0.96875q1.921875 0.96875 3.0 2.9375q1.09375 1.96875 1.09375 4.984375l0 11.796875l-3.71875 0l0 -11.359375q0 -2.984375 -1.453125 -4.484375q-1.4375 -1.515625 -4.078125 -1.515625q-1.96875 0 -3.4375 0.78125q-1.46875 0.765625 -2.265625 2.28125q-0.78125 1.5 -0.78125 3.75l0 10.546875l-3.71875 0zm35.44989 0.234375q-3.28125 0 -5.78125 -1.34375q-2.484375 -1.359375 -3.859375 -3.71875q-1.375 -2.359375 -1.375 -5.421875q0 -3.046875 1.328125 -5.40625q1.34375 -2.359375 3.671875 -3.6875q2.34375 -1.34375 5.28125 -1.34375q2.96875 0 5.25 1.328125q2.28125 1.3125 3.578125 3.6875q1.296875 2.375 1.296875 5.546875q0 0.234375 -0.015625 0.546875q-0.015625 0.296875 -0.0625 0.578125l-17.4375 0l0 -2.671875l15.515625 0l-1.515625 0.921875q0.046875 -1.96875 -0.8125 -3.515625q-0.84375 -1.546875 -2.34375 -2.40625q-1.484375 -0.875 -3.453125 -0.875q-1.9375 0 -3.453125 0.875q-1.5 0.859375 -2.359375 2.4375q-0.84375 1.5625 -0.84375 3.5625l0 0.625q0 2.046875 0.953125 3.65625q0.953125 1.59375 2.640625 2.484375q1.703125 0.890625 3.90625 0.890625q1.828125 0 3.3125 -0.609375q1.484375 -0.625 2.609375 -1.859375l2.046875 2.390625q-1.390625 1.625 -3.46875 2.484375q-2.0625 0.84375 -4.609375 0.84375zm31.962402 0q-3.09375 0 -4.796875 -1.65625q-1.6875 -1.671875 -1.6875 -4.765625l0 -18.78125l3.703125 0l0 18.625q0 1.671875 0.828125 2.5625q0.84375 0.875 2.390625 0.875q1.734375 0 2.890625 -0.953125l1.15625 2.65625q-0.84375 0.734375 -2.03125 1.09375q-1.171875 0.34375 -2.453125 0.34375zm-9.96875 -17.671875l0 -3.046875l13.0625 0l0 3.046875l-13.0625 0zm18.941193 17.4375l0 -20.484375l3.5625 0l0 5.5625l-0.359375 -1.390625q0.859375 -2.125 2.859375 -3.25q2.015625 -1.125 4.953125 -1.125l0 3.59375q-0.234375 -0.03125 -0.453125 -0.03125q-0.203125 0 -0.390625 0q-2.984375 0 -4.71875 1.78125q-1.734375 1.78125 -1.734375 5.140625l0 10.203125l-3.71875 0zm24.47403 0.234375q-2.625 0 -4.625 -0.96875q-1.984375 -0.96875 -3.09375 -2.953125q-1.09375 -2.0 -1.09375 -5.015625l0 -11.78125l3.703125 0l0 11.359375q0 3.015625 1.453125 4.53125q1.453125 1.5 4.078125 1.5q1.9375 0 3.359375 -0.78125q1.4375 -0.796875 2.203125 -2.328125q0.78125 -1.53125 0.78125 -3.6875l0 -10.59375l3.703125 0l0 20.484375l-3.515625 0l0 -5.53125l0.578125 1.46875q-1.0 2.046875 -3.015625 3.171875q-2.0 1.125 -4.515625 1.125zm26.670288 0q-3.28125 0 -5.78125 -1.34375q-2.484375 -1.359375 -3.859375 -3.71875q-1.375 -2.359375 -1.375 -5.421875q0 -3.046875 1.328125 -5.40625q1.34375 -2.359375 3.671875 -3.6875q2.34375 -1.34375 5.28125 -1.34375q2.96875 0 5.25 1.328125q2.28125 1.3125 3.578125 3.6875q1.296875 2.375 1.296875 5.546875q0 0.234375 -0.015625 0.546875q-0.015625 0.296875 -0.0625 0.578125l-17.4375 0l0 -2.671875l15.515625 0l-1.515625 0.921875q0.046875 -1.96875 -0.8125 -3.515625q-0.84375 -1.546875 -2.34375 -2.40625q-1.484375 -0.875 -3.453125 -0.875q-1.9375 0 -3.453125 0.875q-1.5 0.859375 -2.359375 2.4375q-0.84375 1.5625 -0.84375 3.5625l0 0.625q0 2.046875 0.953125 3.65625q0.953125 1.59375 2.640625 2.484375q1.703125 0.890625 3.90625 0.890625q1.828125 0 3.3125 -0.609375q1.484375 -0.625 2.609375 -1.859375l2.046875 2.390625q-1.390625 1.625 -3.46875 2.484375q-2.0625 0.84375 -4.609375 0.84375z" fill-rule="nonzero"/><path fill="#000000" d="m132.69492 786.8153l0 -20.484375l3.71875 0l0 20.484375l-3.71875 0zm1.859375 -24.4375q-1.078125 0 -1.796875 -0.6875q-0.71875 -0.703125 -0.71875 -1.703125q0 -1.046875 0.71875 -1.734375q0.71875 -0.703125 1.796875 -0.703125q1.078125 0 1.796875 0.6875q0.71875 0.671875 0.71875 1.671875q0 1.046875 -0.703125 1.765625q-0.6875 0.703125 -1.8125 0.703125zm8.92572 24.4375l0 -20.484375l3.5625 0l0 5.453125l-0.578125 -1.390625q0.953125 -2.015625 2.96875 -3.140625q2.015625 -1.125 4.671875 -1.125q2.953125 0 5.078125 1.453125q2.125 1.453125 2.78125 4.390625l-1.515625 -0.625q0.9375 -2.359375 3.25 -3.78125q2.3125 -1.4375 5.40625 -1.4375q2.484375 0 4.375 0.96875q1.890625 0.96875 2.953125 2.9375q1.0625 1.96875 1.0625 4.984375l0 11.796875l-3.703125 0l0 -11.359375q0 -2.984375 -1.390625 -4.484375q-1.390625 -1.515625 -3.90625 -1.515625q-1.859375 0 -3.25 0.78125q-1.390625 0.765625 -2.15625 2.28125q-0.75 1.5 -0.75 3.75l0 10.546875l-3.703125 0l0 -11.359375q0 -2.984375 -1.375 -4.484375q-1.375 -1.515625 -3.921875 -1.515625q-1.8125 0 -3.203125 0.78125q-1.390625 0.765625 -2.171875 2.28125q-0.765625 1.5 -0.765625 3.75l0 10.546875l-3.71875 0zm51.71901 0.234375q-2.546875 0 -4.65625 -1.171875q-2.109375 -1.1875 -3.359375 -3.5q-1.25 -2.328125 -1.25 -5.8125q0 -3.46875 1.203125 -5.78125q1.21875 -2.328125 3.328125 -3.484375q2.109375 -1.171875 4.734375 -1.171875q3.015625 0 5.328125 1.328125q2.328125 1.3125 3.671875 3.65625q1.359375 2.328125 1.359375 5.453125q0 3.140625 -1.359375 5.5q-1.34375 2.359375 -3.671875 3.671875q-2.3125 1.3125 -5.328125 1.3125zm-10.859375 7.265625l0 -27.984375l3.5625 0l0 5.53125l-0.234375 4.75l0.390625 4.75l0 12.953125l-3.71875 0zm10.5625 -10.515625q1.96875 0 3.53125 -0.890625q1.5625 -0.890625 2.46875 -2.53125q0.90625 -1.640625 0.90625 -3.8125q0 -2.203125 -0.90625 -3.796875q-0.90625 -1.609375 -2.46875 -2.5q-1.5625 -0.890625 -3.53125 -0.890625q-1.9375 0 -3.515625 0.890625q-1.5625 0.890625 -2.46875 2.5q-0.90625 1.59375 -0.90625 3.796875q0 2.171875 0.90625 3.8125q0.90625 1.640625 2.46875 2.53125q1.578125 0.890625 3.515625 0.890625zm28.326477 3.015625l0 -4.328125l-0.1875 -0.8125l0 -7.390625q0 -2.34375 -1.375 -3.640625q-1.375 -1.296875 -4.125 -1.296875q-1.8125 0 -3.5625 0.59375q-1.734375 0.59375 -2.921875 1.609375l-1.546875 -2.78125q1.578125 -1.28125 3.796875 -1.953125q2.234375 -0.6875 4.671875 -0.6875q4.203125 0 6.484375 2.0625q2.28125 2.046875 2.28125 6.25l0 12.375l-3.515625 0zm-6.71875 0.234375q-2.28125 0 -4.015625 -0.765625q-1.71875 -0.78125 -2.640625 -2.15625q-0.921875 -1.375 -0.921875 -3.109375q0 -1.65625 0.78125 -3.015625q0.796875 -1.359375 2.59375 -2.171875q1.796875 -0.8125 4.859375 -0.8125l6.484375 0l0 2.671875l-6.328125 0q-2.796875 0 -3.765625 0.9375q-0.953125 0.921875 -0.953125 2.234375q0 1.5 1.1875 2.421875q1.203125 0.90625 3.328125 0.90625q2.09375 0 3.65625 -0.921875q1.5625 -0.9375 2.265625 -2.71875l0.734375 2.546875q-0.734375 1.828125 -2.59375 2.890625q-1.859375 1.0625 -4.671875 1.0625zm26.053925 0q-3.140625 0 -5.59375 -1.34375q-2.453125 -1.359375 -3.84375 -3.71875q-1.390625 -2.359375 -1.390625 -5.421875q0 -3.046875 1.390625 -5.40625q1.390625 -2.359375 3.84375 -3.6875q2.453125 -1.34375 5.59375 -1.34375q2.78125 0 4.953125 1.109375q2.1875 1.09375 3.390625 3.265625l-2.828125 1.8125q-1.0 -1.5 -2.453125 -2.21875q-1.4375 -0.71875 -3.109375 -0.71875q-2.0 0 -3.59375 0.890625q-1.578125 0.890625 -2.515625 2.5q-0.921875 1.59375 -0.921875 3.796875q0 2.203125 0.921875 3.828125q0.9375 1.625 2.515625 2.515625q1.59375 0.890625 3.59375 0.890625q1.671875 0 3.109375 -0.71875q1.453125 -0.71875 2.453125 -2.21875l2.828125 1.78125q-1.203125 2.125 -3.390625 3.265625q-2.171875 1.140625 -4.953125 1.140625zm20.437119 0q-3.09375 0 -4.796875 -1.65625q-1.6875 -1.671875 -1.6875 -4.765625l0 -18.78125l3.703125 0l0 18.625q0 1.671875 0.828125 2.5625q0.84375 0.875 2.390625 0.875q1.734375 0 2.890625 -0.953125l1.15625 2.65625q-0.84375 0.734375 -2.03125 1.09375q-1.171875 0.34375 -2.453125 0.34375zm-9.96875 -17.671875l0 -3.046875l13.0625 0l0 3.046875l-13.0625 0zm38.12097 17.671875q-3.09375 0 -5.5 -1.34375q-2.390625 -1.359375 -3.78125 -3.734375q-1.390625 -2.390625 -1.390625 -5.40625q0 -3.046875 1.390625 -5.40625q1.390625 -2.359375 3.78125 -3.6875q2.40625 -1.34375 5.5 -1.34375q3.046875 0 5.453125 1.34375q2.421875 1.328125 3.796875 3.671875q1.375 2.328125 1.375 5.421875q0 3.0625 -1.375 5.421875q-1.375 2.359375 -3.796875 3.71875q-2.40625 1.34375 -5.453125 1.34375zm0 -3.25q1.96875 0 3.53125 -0.890625q1.5625 -0.890625 2.453125 -2.53125q0.890625 -1.640625 0.890625 -3.8125q0 -2.203125 -0.890625 -3.796875q-0.890625 -1.609375 -2.453125 -2.5q-1.5625 -0.890625 -3.53125 -0.890625q-1.96875 0 -3.515625 0.890625q-1.546875 0.890625 -2.484375 2.5q-0.921875 1.59375 -0.921875 3.796875q0 2.171875 0.921875 3.8125q0.9375 1.640625 2.484375 2.53125q1.546875 0.890625 3.515625 0.890625zm16.312317 3.015625l0 -22.296875q0 -3.015625 1.75 -4.8125q1.765625 -1.8125 5.015625 -1.8125q1.1875 0 2.28125 0.296875q1.109375 0.296875 1.890625 0.90625l-1.125 2.828125q-0.578125 -0.46875 -1.3125 -0.71875q-0.734375 -0.25 -1.546875 -0.25q-1.625 0 -2.484375 0.90625q-0.84375 0.90625 -0.84375 2.6875l0 2.75l0.078125 1.6875l0 17.828125l-3.703125 0zm-3.484375 -17.4375l0 -3.046875l13.0625 0l0 3.046875l-13.0625 0z" fill-rule="nonzero"/><path fill="#000000" d="m339.6659 787.1903q-2.890625 0 -5.359375 -1.328125q-2.46875 -1.328125 -3.96875 -3.84375q-1.484375 -2.53125 -1.484375 -6.078125q0 -3.171875 1.046875 -5.828125q1.046875 -2.65625 2.953125 -4.609375q1.921875 -1.96875 4.4375 -3.0625q2.515625 -1.09375 5.40625 -1.09375q3.125 0 5.359375 1.171875q2.25 1.15625 3.34375 3.609375q1.09375 2.4375 0.78125 6.3125q-0.234375 4.4375 -1.828125 7.78125q-1.578125 3.328125 -4.265625 5.15625q-2.6875 1.8125 -6.421875 1.8125zm2.25 -6.015625q2.140625 0 3.796875 -1.046875q1.65625 -1.0625 2.609375 -2.90625q0.953125 -1.84375 0.953125 -4.3125q0 -2.5625 -1.515625 -4.046875q-1.515625 -1.5 -4.21875 -1.5q-2.09375 0 -3.78125 1.046875q-1.671875 1.046875 -2.640625 2.890625q-0.953125 1.84375 -0.953125 4.3125q0 2.578125 1.515625 4.078125q1.515625 1.484375 4.234375 1.484375zm4.984375 5.640625l0.984375 -5.0l1.625 -7.453125l0.984375 -7.46875l1.03125 -5.171875l7.28125 0l-5.0 25.09375l-6.90625 0zm13.6302185 0l6.90625 -34.625l7.2656555 0l-6.8906555 34.625l-7.28125 0zm14.043518 0l6.90625 -34.625l7.265625 0l-6.890625 34.625l-7.28125 0zm63.731567 -25.46875q3.171875 0 5.359375 1.328125q2.203125 1.328125 3.125 3.890625q0.9375 2.5625 0.140625 6.34375l-2.75 13.90625l-7.28125 0l2.65625 -13.390625q0.609375 -2.796875 -0.375 -4.28125q-0.96875 -1.5 -3.390625 -1.5q-2.578125 0 -4.265625 1.515625q-1.671875 1.515625 -2.3125 4.78125l-2.578125 12.875l-7.28125 0l2.671875 -13.390625q0.5625 -2.796875 -0.40625 -4.28125q-0.953125 -1.5 -3.375 -1.5q-2.5625 0 -4.25 1.515625q-1.671875 1.515625 -2.375 4.875l-2.515625 12.78125l-7.28125 0l4.984375 -25.09375l6.90625 0l-1.296875 6.390625l-1.125 -1.453125q1.71875 -2.703125 4.28125 -4.0q2.578125 -1.3125 5.46875 -1.3125q2.328125 0 4.1875 0.84375q1.875 0.828125 3.0625 2.484375q1.1875 1.65625 1.375 4.125l-2.796875 -0.6875q1.875 -3.3125 4.78125 -5.03125q2.921875 -1.734375 6.65625 -1.734375zm13.756653 34.890625q-1.90625 0 -3.796875 -0.609375q-1.890625 -0.59375 -3.015625 -1.578125l3.359375 -5.234375q0.796875 0.703125 1.796875 1.125q1.0 0.421875 2.21875 0.421875q1.40625 0 2.453125 -0.703125q1.046875 -0.703125 2.078125 -2.375l2.0 -3.171875l0.65625 -0.75l13.25 -21.640625l7.1875 0l-16.703125 26.765625q-1.875 2.953125 -3.578125 4.65625q-1.703125 1.703125 -3.59375 2.390625q-1.890625 0.703125 -4.3125 0.703125zm5.5625 -8.4375l-6.03125 -26.078125l7.28125 0l4.578125 20.984375l-5.828125 5.09375z" fill-rule="nonzero"/><path fill="#000000" d="m191.55203 843.1903q-3.875 0 -6.75 -1.390625q-2.859375 -1.40625 -4.453125 -3.921875q-1.578125 -2.53125 -1.578125 -5.9375q0 -4.1875 1.953125 -7.484375q1.953125 -3.296875 5.40625 -5.203125q3.453125 -1.90625 7.9375 -1.90625q4.015625 0 6.953125 1.65625q2.9375 1.65625 4.34375 4.6875l-6.171875 3.078125q-0.78125 -1.78125 -2.203125 -2.59375q-1.421875 -0.8125 -3.390625 -0.8125q-2.140625 0 -3.828125 1.046875q-1.671875 1.046875 -2.65625 2.890625q-0.984375 1.84375 -0.984375 4.265625q0 2.578125 1.515625 4.09375q1.515625 1.515625 4.328125 1.515625q1.90625 0 3.484375 -0.8125q1.59375 -0.828125 2.671875 -2.546875l5.359375 3.359375q-1.765625 2.84375 -4.921875 4.4375q-3.140625 1.578125 -7.015625 1.578125zm33.824173 -25.84375q3.171875 0 5.40625 1.328125q2.25 1.328125 3.203125 3.890625q0.953125 2.5625 0.203125 6.34375l-2.796875 13.90625l-7.28125 0l2.703125 -13.4375q0.5625 -2.75 -0.4375 -4.234375q-1.0 -1.5 -3.65625 -1.5q-2.765625 0 -4.609375 1.59375q-1.828125 1.578125 -2.53125 4.84375l-2.515625 12.734375l-7.28125 0l6.90625 -34.625l7.265625 0l-3.3125 16.609375l-1.4375 -2.140625q1.8125 -2.75 4.5 -4.03125q2.6875 -1.28125 5.671875 -1.28125zm24.1604 25.84375q-2.890625 0 -5.3593597 -1.328125q-2.46875 -1.328125 -3.96875 -3.84375q-1.484375 -2.53125 -1.484375 -6.078125q0 -3.171875 1.046875 -5.828125q1.046875 -2.65625 2.953125 -4.609375q1.921875 -1.96875 4.4374847 -3.0625q2.515625 -1.09375 5.40625 -1.09375q3.125 0 5.3593903 1.171875q2.25 1.15625 3.34375 3.609375q1.09375 2.4375 0.78125 6.3125q-0.234375 4.4375 -1.828125 7.78125q-1.578125 3.328125 -4.2656403 5.15625q-2.6875 1.8125 -6.421875 1.8125zm2.25 -6.015625q2.140625 0 3.796875 -1.046875q1.6562653 -1.0625 2.6093903 -2.90625q0.953125 -1.84375 0.953125 -4.3125q0 -2.5625 -1.515625 -4.046875q-1.515625 -1.5 -4.2187653 -1.5q-2.09375 0 -3.78125 1.046875q-1.671875 1.046875 -2.640625 2.890625q-0.953125 1.84375 -0.953125 4.3125q0 2.578125 1.515625 4.078125q1.515625 1.484375 4.234375 1.484375zm4.9843903 5.640625l0.984375 -5.0l1.625 -7.453125l0.984375 -7.46875l1.03125 -5.171875l7.28125 0l-5.0 25.09375l-6.90625 0zm33.224 -25.46875q3.21875 0 5.453125 1.328125q2.25 1.328125 3.171875 3.890625q0.9375 2.5625 0.1875 6.34375l-2.796875 13.90625l-7.28125 0l2.703125 -13.4375q0.5625 -2.75 -0.4375 -4.234375q-1.0 -1.5 -3.65625 -1.5q-2.765625 0 -4.609375 1.59375q-1.828125 1.578125 -2.53125 4.84375l-2.515625 12.734375l-7.28125 0l4.984375 -25.09375l6.90625 0l-1.4375 7.078125l-1.03125 -2.140625q1.8125 -2.75 4.5 -4.03125q2.6875 -1.28125 5.671875 -1.28125zm32.23938 0q3.21875 0 5.453125 1.328125q2.25 1.328125 3.171875 3.890625q0.9375 2.5625 0.1875 6.34375l-2.796875 13.90625l-7.28125 0l2.703125 -13.4375q0.5625 -2.75 -0.4375 -4.234375q-1.0 -1.5 -3.65625 -1.5q-2.765625 0 -4.609375 1.59375q-1.828125 1.578125 -2.53125 4.84375l-2.515625 12.734375l-7.28125 0l4.984375 -25.09375l6.90625 0l-1.4375 7.078125l-1.03125 -2.140625q1.8125 -2.75 4.5 -4.03125q2.6875 -1.28125 5.671875 -1.28125zm26.176025 25.84375q-3.921875 0 -6.796875 -1.390625q-2.859375 -1.40625 -4.453125 -3.921875q-1.578125 -2.53125 -1.578125 -5.9375q0 -4.1875 1.875 -7.484375q1.890625 -3.296875 5.21875 -5.203125q3.34375 -1.90625 7.6875 -1.90625q3.6875 0 6.34375 1.375q2.65625 1.375 4.125 3.828125q1.484375 2.4375 1.484375 5.84375q0 0.984375 -0.125 1.96875q-0.109375 0.96875 -0.296875 1.859375l-20.765625 0l0.75 -4.25l16.609375 0l-2.984375 1.3125q0.359375 -2.09375 -0.25 -3.515625q-0.59375 -1.421875 -1.953125 -2.1875q-1.34375 -0.78125 -3.265625 -0.78125q-2.375 0 -4.03125 1.140625q-1.65625 1.140625 -2.5 3.15625q-0.84375 2.0 -0.84375 4.515625q0 2.890625 1.609375 4.328125q1.609375 1.421875 4.890625 1.421875q1.90625 0 3.671875 -0.609375q1.78125 -0.609375 3.03125 -1.734375l3.046875 4.8125q-2.203125 1.71875 -4.9375 2.546875q-2.71875 0.8125 -5.5625 0.8125zm15.956299 -0.375l6.90625 -34.625l7.265625 0l-6.890625 34.625l-7.28125 0zm23.184143 0.375q-3.3125 0 -6.234375 -0.75q-2.90625 -0.75 -4.5 -1.859375l2.796875 -5.28125q1.640625 1.078125 3.984375 1.734375q2.359375 0.65625 4.75 0.65625q2.5625 0 3.71875 -0.65625q1.171875 -0.65625 1.171875 -1.78125q0 -0.875 -0.984375 -1.3125q-0.96875 -0.453125 -2.46875 -0.734375q-1.484375 -0.28125 -3.1875 -0.65625q-1.703125 -0.375 -3.21875 -1.046875q-1.515625 -0.671875 -2.484375 -1.953125q-0.953125 -1.296875 -0.953125 -3.390625q0 -2.84375 1.609375 -4.796875q1.609375 -1.96875 4.484375 -2.984375q2.875 -1.03125 6.5 -1.03125q2.625 0 5.09375 0.5625q2.46875 0.546875 4.203125 1.53125l-2.625 5.3125q-1.765625 -1.109375 -3.703125 -1.5q-1.9375 -0.40625 -3.703125 -0.40625q-2.578125 0 -3.71875 0.734375q-1.140625 0.71875 -1.140625 1.734375q0 0.890625 0.953125 1.390625q0.96875 0.484375 2.453125 0.796875q1.5 0.296875 3.21875 0.640625q1.734375 0.34375 3.21875 1.03125q1.5 0.671875 2.453125 1.90625q0.953125 1.234375 0.953125 3.34375q0 2.84375 -1.65625 4.828125q-1.65625 1.96875 -4.5 2.953125q-2.84375 0.984375 -6.484375 0.984375zm23.980438 -11.71875q0.328125 -1.765625 1.15625 -3.015625q0.84375 -1.265625 1.9375 -2.25q1.109375 -0.984375 2.265625 -1.8125q1.171875 -0.84375 2.140625 -1.640625q0.984375 -0.796875 1.59375 -1.703125q0.609375 -0.90625 0.609375 -2.171875q0 -1.4375 -1.171875 -2.296875q-1.15625 -0.875 -3.359375 -0.875q-2.28125 0 -4.125 0.9375q-1.84375 0.9375 -3.1875 2.609375l-4.90625 -3.59375q2.109375 -2.796875 5.640625 -4.421875q3.546875 -1.640625 8.078125 -1.640625q3.3125 0 5.734375 0.953125q2.4375 0.953125 3.765625 2.734375q1.328125 1.765625 1.328125 4.15625q0 2.0 -0.6875 3.5q-0.671875 1.484375 -1.75 2.5625q-1.0625 1.0625 -2.328125 1.984375q-1.25 0.90625 -2.453125 1.765625q-1.1875 0.859375 -2.046875 1.875q-0.859375 1.0 -1.1875 2.34375l-7.046875 0zm1.8125 11.71875q-1.859375 0 -3.078125 -1.140625q-1.203125 -1.140625 -1.203125 -2.78125q0 -1.953125 1.375 -3.21875q1.375 -1.265625 3.328125 -1.265625q1.875 0 3.0625 1.109375q1.1875 1.09375 1.1875 2.71875q0 1.265625 -0.640625 2.3125q-0.625 1.046875 -1.671875 1.65625q-1.046875 0.609375 -2.359375 0.609375z" fill-rule="nonzero"/><g filter="url(#shadowFilter-g38047d52ba0_0_0.1)"><use xlink:href="#g38047d52ba0_0_0.1" transform="matrix(1.0 0.0 0.0 1.0 0.0 2.0)"/></g><defs><filter id="shadowFilter-g38047d52ba0_0_0.1" filterUnits="userSpaceOnUse"><feGaussianBlur in="SourceAlpha" stdDeviation="2.0" result="blur"/><feComponentTransfer in="blur" color-interpolation-filters="sRGB"><feFuncR type="linear" slope="0" intercept="0.0"/><feFuncG type="linear" slope="0" intercept="0.0"/><feFuncB type="linear" slope="0" intercept="0.0"/><feFuncA type="linear" slope="0.5" intercept="0"/></feComponentTransfer></filter></defs><g id="g38047d52ba0_0_0.1"><path fill="#21caab" d="m544.1977 508.87335l0 0c0 -12.826019 10.397583 -23.223541 23.223572 -23.223541l224.38751 0c6.1593018 0 12.066284 2.4467468 16.42157 6.8020325c4.3552246 4.355255 6.802002 10.262238 6.802002 16.421509l0 92.89148c0 12.825989 -10.397522 23.223572 -23.223572 23.223572l-224.38751 0c-12.825989 0 -23.223572 -10.397583 -23.223572 -23.223572z" fill-rule="evenodd"/><path fill="#ffffff" d="m574.8481 546.5991l0 -24.265625l4.640625 0l10.328125 17.125l-2.453125 0l10.15625 -17.125l4.609375 0l0.0625 24.265625l-5.265625 0l-0.03125 -16.1875l0.96875 0l-8.109375 13.625l-2.53125 0l-8.28125 -13.625l1.171875 0l0 16.1875l-5.265625 0zm40.581116 0.28125q-2.3125 0 -4.140625 -0.90625q-1.8125 -0.90625 -2.828125 -2.75q-1.0 -1.859375 -1.0 -4.734375l0 -10.53125l5.40625 0l0 9.734375q0 2.328125 0.984375 3.421875q0.984375 1.078125 2.796875 1.078125q1.25 0 2.21875 -0.53125q0.96875 -0.53125 1.515625 -1.65625q0.5625 -1.140625 0.5625 -2.828125l0 -9.21875l5.40625 0l0 18.640625l-5.125 0l0 -5.125l0.921875 1.484375q-0.921875 1.9375 -2.75 2.9375q-1.8125 0.984375 -3.96875 0.984375zm15.949524 -0.28125l0 -25.71875l5.40625 0l0 25.71875l-5.40625 0zm18.056519 0.28125q-3.296875 0 -5.140625 -1.671875q-1.828125 -1.6875 -1.828125 -5.015625l0 -16.359375l5.40625 0l0 16.28125q0 1.1875 0.625 1.828125q0.625 0.640625 1.6875 0.640625q1.296875 0 2.1875 -0.703125l1.453125 3.8125q-0.828125 0.59375 -1.984375 0.890625q-1.15625 0.296875 -2.40625 0.296875zm-9.84375 -14.765625l0 -4.15625l12.921875 0l0 4.15625l-12.921875 0zm17.29425 14.484375l0 -18.640625l5.40625 0l0 18.640625l-5.40625 0zm2.6875 -21.25q-1.484375 0 -2.421875 -0.859375q-0.9375 -0.875 -0.9375 -2.15625q0 -1.28125 0.9375 -2.140625q0.9375 -0.875 2.421875 -0.875q1.5 0 2.4375 0.828125q0.9375 0.8125 0.9375 2.09375q0 1.34375 -0.921875 2.234375q-0.921875 0.875 -2.453125 0.875zm7.0409546 13.65625l0 -4.328125l9.8125 0l0 4.328125l-9.8125 0zm18.238647 7.59375l0 -19.6875l-7.765625 0l0 -4.578125l21.140625 0l0 4.578125l-7.765625 0l0 19.6875l-5.609375 0zm22.979675 0.28125q-2.984375 0 -5.296875 -1.25q-2.296875 -1.25 -3.640625 -3.40625q-1.328125 -2.171875 -1.328125 -4.953125q0 -2.796875 1.328125 -4.96875q1.34375 -2.171875 3.640625 -3.390625q2.3125 -1.234375 5.296875 -1.234375q2.9375 0 5.25 1.234375q2.328125 1.21875 3.640625 3.375q1.328125 2.140625 1.328125 4.984375q0 2.78125 -1.328125 4.953125q-1.3125 2.15625 -3.640625 3.40625q-2.3125 1.25 -5.25 1.25zm0 -4.4375q1.34375 0 2.421875 -0.625q1.078125 -0.625 1.6875 -1.78125q0.625 -1.171875 0.625 -2.765625q0 -1.625 -0.625 -2.765625q-0.609375 -1.140625 -1.6875 -1.765625q-1.078125 -0.625 -2.421875 -0.625q-1.359375 0 -2.4375 0.625q-1.078125 0.625 -1.71875 1.765625q-0.640625 1.140625 -0.640625 2.765625q0 1.59375 0.640625 2.765625q0.640625 1.15625 1.71875 1.78125q1.078125 0.625 2.4375 0.625zm21.684265 4.4375q-2.3125 0 -4.140625 -0.90625q-1.8125 -0.90625 -2.828125 -2.75q-1.0 -1.859375 -1.0 -4.734375l0 -10.53125l5.40625 0l0 9.734375q0 2.328125 0.984375 3.421875q0.984375 1.078125 2.796875 1.078125q1.25 0 2.21875 -0.53125q0.96875 -0.53125 1.515625 -1.65625q0.5625 -1.140625 0.5625 -2.828125l0 -9.21875l5.40625 0l0 18.640625l-5.125 0l0 -5.125l0.921875 1.484375q-0.921875 1.9375 -2.75 2.9375q-1.8125 0.984375 -3.96875 0.984375zm24.949463 0q-3.015625 0 -5.375 -1.234375q-2.34375 -1.234375 -3.6875 -3.40625q-1.328125 -2.1875 -1.328125 -4.96875q0 -2.796875 1.328125 -4.96875q1.34375 -2.171875 3.6875 -3.390625q2.359375 -1.234375 5.375 -1.234375q2.953125 0 5.125 1.234375q2.1875 1.21875 3.234375 3.515625l-4.1875 2.25q-0.734375 -1.3125 -1.828125 -1.9375q-1.09375 -0.625 -2.375 -0.625q-1.390625 0 -2.5 0.625q-1.109375 0.625 -1.75 1.765625q-0.640625 1.140625 -0.640625 2.765625q0 1.640625 0.640625 2.78125q0.640625 1.140625 1.75 1.765625q1.109375 0.625 2.5 0.625q1.28125 0 2.375 -0.609375q1.09375 -0.609375 1.828125 -1.953125l4.1875 2.28125q-1.046875 2.25 -3.234375 3.484375q-2.171875 1.234375 -5.125 1.234375zm11.343201 -0.28125l0 -25.71875l5.40625 0l0 12.234375l-1.21875 -1.5625q1.0 -1.859375 2.875 -2.859375q1.875 -1.015625 4.265625 -1.015625q2.21875 0 3.96875 0.890625q1.75 0.875 2.75 2.703125q1.015625 1.8125 1.015625 4.65625l0 10.671875l-5.40625 0l0 -9.84375q0 -2.25 -1.0 -3.328125q-0.984375 -1.078125 -2.78125 -1.078125q-1.28125 0 -2.3125 0.546875q-1.015625 0.53125 -1.59375 1.640625q-0.5625 1.109375 -0.5625 2.84375l0 9.21875l-5.40625 0z" fill-rule="nonzero"/><path fill="#ffffff" d="m578.69543 588.5991l10.8125 -24.265625l5.546875 0l10.84375 24.265625l-5.890625 0l-8.875 -21.421875l2.21875 0l-8.90625 21.421875l-5.75 0zm5.40625 -5.203125l1.484375 -4.265625l12.484375 0l1.515625 4.265625l-15.484375 0zm31.404602 5.484375q-3.296875 0 -5.140625 -1.671875q-1.828125 -1.6875 -1.828125 -5.015625l0 -16.359375l5.40625 0l0 16.28125q0 1.1875 0.625 1.828125q0.625 0.640625 1.6875 0.640625q1.296875 0 2.1875 -0.703125l1.453125 3.8125q-0.828125 0.59375 -1.984375 0.890625q-1.15625 0.296875 -2.40625 0.296875zm-9.84375 -14.765625l0 -4.15625l12.921875 0l0 4.15625l-12.921875 0zm24.503235 14.765625q-3.296875 0 -5.140625 -1.671875q-1.828125 -1.6875 -1.828125 -5.015625l0 -16.359375l5.40625 0l0 16.28125q0 1.1875 0.625 1.828125q0.625 0.640625 1.6875 0.640625q1.296875 0 2.1875 -0.703125l1.453125 3.8125q-0.828125 0.59375 -1.984375 0.890625q-1.15625 0.296875 -2.40625 0.296875zm-9.84375 -14.765625l0 -4.15625l12.921875 0l0 4.15625l-12.921875 0zm17.29425 14.484375l0 -18.640625l5.15625 0l0 5.265625l-0.71875 -1.53125q0.828125 -1.96875 2.65625 -2.984375q1.84375 -1.03125 4.484375 -1.03125l0 4.984375q-0.359375 -0.03125 -0.640625 -0.046875q-0.265625 -0.015625 -0.578125 -0.015625q-2.21875 0 -3.59375 1.265625q-1.359375 1.265625 -1.359375 3.9375l0 8.796875l-5.40625 0zm14.798218 0l0 -18.640625l5.40625 0l0 18.640625l-5.40625 0zm2.6875 -21.25q-1.484375 0 -2.421875 -0.859375q-0.9375 -0.875 -0.9375 -2.15625q0 -1.28125 0.9375 -2.140625q0.9375 -0.875 2.421875 -0.875q1.5 0 2.4375 0.828125q0.9375 0.8125 0.9375 2.09375q0 1.34375 -0.921875 2.234375q-0.921875 0.875 -2.453125 0.875zm18.759644 21.53125q-2.453125 0 -4.234375 -1.03125q-1.765625 -1.046875 -2.703125 -3.171875q-0.921875 -2.140625 -0.921875 -5.40625q0 -3.28125 0.984375 -5.390625q0.984375 -2.125 2.75 -3.15625q1.765625 -1.046875 4.125 -1.046875q2.640625 0 4.734375 1.1875q2.09375 1.171875 3.3125 3.328125q1.234375 2.140625 1.234375 5.078125q0 2.921875 -1.234375 5.078125q-1.21875 2.140625 -3.3125 3.34375q-2.09375 1.1875 -4.734375 1.1875zm-11.015625 -0.28125l0 -25.71875l5.40625 0l0 10.84375l-0.34375 5.515625l0.09375 5.546875l0 3.8125l-5.15625 0zm10.078125 -4.15625q1.359375 0 2.40625 -0.625q1.0625 -0.625 1.703125 -1.78125q0.640625 -1.171875 0.640625 -2.765625q0 -1.625 -0.640625 -2.765625q-0.640625 -1.140625 -1.703125 -1.765625q-1.046875 -0.625 -2.40625 -0.625q-1.34375 0 -2.421875 0.625q-1.078125 0.625 -1.703125 1.765625q-0.625 1.140625 -0.625 2.765625q0 1.59375 0.625 2.765625q0.625 1.15625 1.703125 1.78125q1.078125 0.625 2.421875 0.625zm21.694092 4.4375q-2.3125 0 -4.140625 -0.90625q-1.8125 -0.90625 -2.828125 -2.75q-1.0 -1.859375 -1.0 -4.734375l0 -10.53125l5.40625 0l0 9.734375q0 2.328125 0.984375 3.421875q0.984375 1.078125 2.796875 1.078125q1.25 0 2.21875 -0.53125q0.96875 -0.53125 1.515625 -1.65625q0.5625 -1.140625 0.5625 -2.828125l0 -9.21875l5.40625 0l0 18.640625l-5.125 0l0 -5.125l0.921875 1.484375q-0.921875 1.9375 -2.75 2.9375q-1.8125 0.984375 -3.96875 0.984375zm23.574524 0q-3.296875 0 -5.140625 -1.671875q-1.828125 -1.6875 -1.828125 -5.015625l0 -16.359375l5.40625 0l0 16.28125q0 1.1875 0.625 1.828125q0.625 0.640625 1.6875 0.640625q1.296875 0 2.1875 -0.703125l1.453125 3.8125q-0.828125 0.59375 -1.984375 0.890625q-1.15625 0.296875 -2.40625 0.296875zm-9.84375 -14.765625l0 -4.15625l12.921875 0l0 4.15625l-12.921875 0zm17.29419 14.484375l0 -18.640625l5.40625 0l0 18.640625l-5.40625 0zm2.6875 -21.25q-1.484375 0 -2.421875 -0.859375q-0.9375 -0.875 -0.9375 -2.15625q0 -1.28125 0.9375 -2.140625q0.9375 -0.875 2.421875 -0.875q1.5 0 2.4375 0.828125q0.9375 0.8125 0.9375 2.09375q0 1.34375 -0.921875 2.234375q-0.921875 0.875 -2.453125 0.875zm16.61908 21.53125q-2.984375 0 -5.296875 -1.25q-2.296875 -1.25 -3.640625 -3.40625q-1.328125 -2.171875 -1.328125 -4.953125q0 -2.796875 1.328125 -4.96875q1.34375 -2.171875 3.640625 -3.390625q2.3125 -1.234375 5.296875 -1.234375q2.9375 0 5.25 1.234375q2.328125 1.21875 3.640625 3.375q1.328125 2.140625 1.328125 4.984375q0 2.78125 -1.328125 4.953125q-1.3125 2.15625 -3.640625 3.40625q-2.3125 1.25 -5.25 1.25zm0 -4.4375q1.34375 0 2.421875 -0.625q1.078125 -0.625 1.6875 -1.78125q0.625 -1.171875 0.625 -2.765625q0 -1.625 -0.625 -2.765625q-0.609375 -1.140625 -1.6875 -1.765625q-1.078125 -0.625 -2.421875 -0.625q-1.359375 0 -2.4375 0.625q-1.078125 0.625 -1.71875 1.765625q-0.640625 1.140625 -0.640625 2.765625q0 1.59375 0.640625 2.765625q0.640625 1.15625 1.71875 1.78125q1.078125 0.625 2.4375 0.625zm13.82489 4.15625l0 -18.640625l5.15625 0l0 5.15625l-0.96875 -1.5625q1.0 -1.859375 2.875 -2.859375q1.875 -1.015625 4.265625 -1.015625q2.21875 0 3.96875 0.890625q1.75 0.875 2.75 2.703125q1.015625 1.8125 1.015625 4.65625l0 10.671875l-5.40625 0l0 -9.84375q0 -2.25 -1.0 -3.328125q-0.984375 -1.078125 -2.78125 -1.078125q-1.28125 0 -2.3125 0.546875q-1.015625 0.53125 -1.59375 1.640625q-0.5625 1.109375 -0.5625 2.84375l0 9.21875l-5.40625 0z" fill-rule="nonzero"/></g><g filter="url(#shadowFilter-g38047d52ba0_0_0.2)"><use xlink:href="#g38047d52ba0_0_0.2" transform="matrix(1.0 0.0 0.0 1.0 0.0 2.0)"/></g><defs><filter id="shadowFilter-g38047d52ba0_0_0.2" filterUnits="userSpaceOnUse"><feGaussianBlur in="SourceAlpha" stdDeviation="2.0" result="blur"/><feComponentTransfer in="blur" color-interpolation-filters="sRGB"><feFuncR type="linear" slope="0" intercept="0.0"/><feFuncG type="linear" slope="0" intercept="0.0"/><feFuncB type="linear" slope="0" intercept="0.0"/><feFuncA type="linear" slope="0.5" intercept="0"/></feComponentTransfer></filter></defs><g id="g38047d52ba0_0_0.2"><path fill="#21caab" d="m544.1977 358.41107l0 0c0 -12.826019 10.397583 -23.223541 23.223572 -23.223541l224.38751 0c6.1593018 0 12.066284 2.4467468 16.42157 6.802002c4.3552246 4.3552856 6.802002 10.262268 6.802002 16.42154l0 92.89148c0 12.826019 -10.397522 23.223541 -23.223572 23.223541l-224.38751 0c-12.825989 0 -23.223572 -10.397522 -23.223572 -23.223541z" fill-rule="evenodd"/><path fill="#ffffff" d="m581.05225 417.1368l10.8125 -24.265625l5.546875 0l10.84375 24.265625l-5.890625 0l-8.875 -21.421875l2.21875 0l-8.90625 21.421875l-5.75 0zm5.40625 -5.203125l1.484375 -4.265625l12.484375 0l1.515625 4.265625l-15.484375 0zm24.327942 5.203125l0 -24.265625l11.859375 0q4.5625 0 6.859375 1.734375q2.3125 1.734375 2.3125 4.578125q0 1.90625 -0.9375 3.3125q-0.921875 1.40625 -2.5625 2.171875q-1.625 0.75 -3.734375 0.75l0.65625 -1.421875q2.28125 0 4.046875 0.75q1.78125 0.75 2.765625 2.203125q0.984375 1.453125 0.984375 3.5625q0 3.125 -2.46875 4.875q-2.453125 1.75 -7.234375 1.75l-12.546875 0zm5.578125 -4.234375l6.546875 0q2.1875 0 3.3125 -0.703125q1.125 -0.71875 1.125 -2.265625q0 -1.53125 -1.125 -2.265625q-1.125 -0.75 -3.3125 -0.75l-6.953125 0l0 -4.09375l5.984375 0q2.046875 0 3.140625 -0.703125q1.09375 -0.71875 1.09375 -2.171875q0 -1.421875 -1.09375 -2.125q-1.09375 -0.71875 -3.140625 -0.71875l-5.578125 0l0 15.796875zm35.77289 4.234375l0 -19.6875l-7.765625 0l0 -4.578125l21.140625 0l0 4.578125l-7.765625 0l0 19.6875l-5.609375 0zm23.354675 0.28125q-3.1875 0 -5.59375 -1.25q-2.40625 -1.25 -3.734375 -3.40625q-1.3125 -2.171875 -1.3125 -4.953125q0 -2.796875 1.296875 -4.96875q1.296875 -2.171875 3.546875 -3.390625q2.265625 -1.234375 5.109375 -1.234375q2.734375 0 4.921875 1.171875q2.203125 1.15625 3.484375 3.328125q1.296875 2.15625 1.296875 5.171875q0 0.3125 -0.046875 0.71875q-0.03125 0.390625 -0.0625 0.734375l-15.140625 0l0 -3.15625l12.296875 0l-2.078125 0.9375q0 -1.453125 -0.59375 -2.53125q-0.578125 -1.078125 -1.625 -1.671875q-1.046875 -0.609375 -2.421875 -0.609375q-1.390625 0 -2.453125 0.609375q-1.046875 0.59375 -1.640625 1.6875q-0.59375 1.09375 -0.59375 2.578125l0 0.84375q0 1.515625 0.671875 2.6875q0.6875 1.15625 1.90625 1.765625q1.234375 0.59375 2.90625 0.59375q1.484375 0 2.609375 -0.4375q1.125 -0.453125 2.0625 -1.359375l2.875 3.125q-1.28125 1.453125 -3.21875 2.234375q-1.9375 0.78125 -4.46875 0.78125zm18.883728 0q-2.390625 0 -4.59375 -0.5625q-2.203125 -0.578125 -3.484375 -1.453125l1.8125 -3.875q1.28125 0.796875 3.03125 1.296875q1.75 0.5 3.4375 0.5q1.875 0 2.65625 -0.453125q0.78125 -0.453125 0.78125 -1.25q0 -0.65625 -0.609375 -0.984375q-0.609375 -0.328125 -1.609375 -0.5q-1.0 -0.171875 -2.203125 -0.34375q-1.1875 -0.171875 -2.40625 -0.46875q-1.21875 -0.296875 -2.21875 -0.875q-1.0 -0.59375 -1.609375 -1.59375q-0.609375 -1.015625 -0.609375 -2.609375q0 -1.765625 1.015625 -3.109375q1.03125 -1.359375 2.96875 -2.140625q1.9375 -0.78125 4.640625 -0.78125q1.90625 0 3.875 0.421875q1.984375 0.40625 3.3125 1.203125l-1.8125 3.84375q-1.34375 -0.796875 -2.71875 -1.078125q-1.359375 -0.296875 -2.65625 -0.296875q-1.796875 0 -2.625 0.484375q-0.828125 0.484375 -0.828125 1.25q0 0.6875 0.59375 1.03125q0.609375 0.34375 1.609375 0.5625q1.015625 0.203125 2.203125 0.359375q1.203125 0.15625 2.40625 0.46875q1.21875 0.3125 2.203125 0.890625q1.0 0.5625 1.625 1.546875q0.625 0.984375 0.625 2.578125q0 1.734375 -1.046875 3.078125q-1.046875 1.328125 -3.0 2.09375q-1.953125 0.765625 -4.765625 0.765625zm19.761902 0q-3.296875 0 -5.140625 -1.671875q-1.828125 -1.6875 -1.828125 -5.015625l0 -16.359375l5.40625 0l0 16.28125q0 1.1875 0.625 1.828125q0.625 0.640625 1.6875 0.640625q1.296875 0 2.1875 -0.703125l1.453125 3.8125q-0.828125 0.59375 -1.984375 0.890625q-1.15625 0.296875 -2.40625 0.296875zm-9.84375 -14.765625l0 -4.15625l12.921875 0l0 4.15625l-12.921875 0zm17.29419 14.484375l0 -18.640625l5.40625 0l0 18.640625l-5.40625 0zm2.6875 -21.25q-1.484375 0 -2.421875 -0.859375q-0.9375 -0.875 -0.9375 -2.15625q0 -1.28125 0.9375 -2.140625q0.9375 -0.875 2.421875 -0.875q1.5 0 2.4375 0.828125q0.9375 0.8125 0.9375 2.09375q0 1.34375 -0.921875 2.234375q-0.921875 0.875 -2.453125 0.875zm7.7440796 21.25l0 -18.640625l5.15625 0l0 5.15625l-0.96875 -1.5625q1.0 -1.859375 2.875 -2.859375q1.875 -1.015625 4.265625 -1.015625q2.21875 0 3.96875 0.890625q1.75 0.875 2.75 2.703125q1.015625 1.8125 1.015625 4.65625l0 10.671875l-5.40625 0l0 -9.84375q0 -2.25 -1.0 -3.328125q-0.984375 -1.078125 -2.78125 -1.078125q-1.28125 0 -2.3125 0.546875q-1.015625 0.53125 -1.59375 1.640625q-0.5625 1.109375 -0.5625 2.84375l0 9.21875l-5.40625 0zm32.851807 7.0q-2.640625 0 -5.078125 -0.640625q-2.4375 -0.640625 -4.078125 -1.921875l2.15625 -3.890625q1.171875 0.984375 2.984375 1.546875q1.828125 0.578125 3.59375 0.578125q2.875 0 4.171875 -1.28125q1.3125 -1.28125 1.3125 -3.8125l0 -2.8125l0.34375 -4.671875l-0.078125 -4.71875l0 -4.015625l5.140625 0l0 15.515625q0 5.203125 -2.703125 7.65625q-2.703125 2.46875 -7.765625 2.46875zm-0.828125 -7.90625q-2.609375 0 -4.703125 -1.125q-2.09375 -1.125 -3.359375 -3.140625q-1.265625 -2.03125 -1.265625 -4.734375q0 -2.75 1.265625 -4.765625q1.265625 -2.03125 3.359375 -3.140625q2.09375 -1.109375 4.703125 -1.109375q2.34375 0 4.140625 0.953125q1.8125 0.953125 2.8125 2.953125q1.015625 1.984375 1.015625 5.109375q0 3.078125 -1.015625 5.078125q-1.0 1.984375 -2.8125 2.953125q-1.796875 0.96875 -4.140625 0.96875zm1.0625 -4.4375q1.421875 0 2.53125 -0.5625q1.109375 -0.578125 1.734375 -1.609375q0.625 -1.046875 0.625 -2.390625q0 -1.390625 -0.625 -2.40625q-0.625 -1.03125 -1.734375 -1.59375q-1.109375 -0.578125 -2.53125 -0.578125q-1.421875 0 -2.53125 0.578125q-1.109375 0.5625 -1.75 1.59375q-0.640625 1.015625 -0.640625 2.40625q0 1.34375 0.640625 2.390625q0.640625 1.03125 1.75 1.609375q1.109375 0.5625 2.53125 0.5625z" fill-rule="nonzero"/></g><g filter="url(#shadowFilter-g38047d52ba0_0_0.3)"><use xlink:href="#g38047d52ba0_0_0.3" transform="matrix(1.0 0.0 0.0 1.0 0.0 2.0)"/></g><defs><filter id="shadowFilter-g38047d52ba0_0_0.3" filterUnits="userSpaceOnUse"><feGaussianBlur in="SourceAlpha" stdDeviation="2.0" result="blur"/><feComponentTransfer in="blur" color-interpolation-filters="sRGB"><feFuncR type="linear" slope="0" intercept="0.0"/><feFuncG type="linear" slope="0" intercept="0.0"/><feFuncB type="linear" slope="0" intercept="0.0"/><feFuncA type="linear" slope="0.5" intercept="0"/></feComponentTransfer></filter></defs><g id="g38047d52ba0_0_0.3"><path fill="#21caab" d="m544.1977 678.04065l0 0c0 -12.934814 10.485779 -23.420532 23.420593 -23.420532l223.99347 0c6.211548 0 12.16864 2.4674683 16.560852 6.85968c4.392212 4.392212 6.859741 10.349365 6.859741 16.560852l0 199.89905c0 12.934814 -10.485718 23.420532 -23.420593 23.420532l-223.99347 0c-12.934814 0 -23.420593 -10.485718 -23.420593 -23.420532z" fill-rule="evenodd"/><path fill="#ffffff" d="m589.0395 748.27014l0 -24.265625l4.640625 0l10.328125 17.125l-2.453125 0l10.15625 -17.125l4.609375 0l0.0625 24.265625l-5.265625 0l-0.03125 -16.1875l0.96875 0l-8.109375 13.625l-2.53125 0l-8.28125 -13.625l1.171875 0l0 16.1875l-5.265625 0zm44.15924 0l0 -3.640625l-0.359375 -0.796875l0 -6.515625q0 -1.734375 -1.0625 -2.703125q-1.046875 -0.96875 -3.234375 -0.96875q-1.484375 0 -2.921875 0.46875q-1.4375 0.46875 -2.4375 1.265625l-1.953125 -3.78125q1.53125 -1.078125 3.671875 -1.65625q2.15625 -0.59375 4.375 -0.59375q4.265625 0 6.609375 2.015625q2.359375 2.0 2.359375 6.265625l0 10.640625l-5.046875 0zm-5.6875 0.28125q-2.1875 0 -3.75 -0.75q-1.546875 -0.75 -2.390625 -2.03125q-0.828125 -1.28125 -0.828125 -2.875q0 -1.65625 0.8125 -2.90625q0.8125 -1.25 2.578125 -1.953125q1.78125 -0.71875 4.609375 -0.71875l4.96875 0l0 3.15625l-4.375 0q-1.90625 0 -2.625 0.625q-0.703125 0.625 -0.703125 1.5625q0 1.03125 0.8125 1.640625q0.8125 0.609375 2.234375 0.609375q1.359375 0 2.421875 -0.640625q1.078125 -0.640625 1.5625 -1.890625l0.84375 2.5q-0.59375 1.796875 -2.15625 2.734375q-1.5625 0.9375 -4.015625 0.9375zm15.632935 -0.28125l0 -18.640625l5.15625 0l0 5.265625l-0.71875 -1.53125q0.828125 -1.96875 2.65625 -2.984375q1.84375 -1.03125 4.484375 -1.03125l0 4.984375q-0.359375 -0.03125 -0.640625 -0.046875q-0.265625 -0.015625 -0.578125 -0.015625q-2.21875 0 -3.59375 1.265625q-1.359375 1.265625 -1.359375 3.9375l0 8.796875l-5.40625 0zm19.266907 -3.8125l0.140625 -6.578125l8.6875 -8.25l6.453125 0l-8.359375 8.484375l-2.796875 2.296875l-4.125 4.046875zm-4.46875 3.8125l0 -25.71875l5.40625 0l0 25.71875l-5.40625 0zm13.890625 0l-6.3125 -7.828125l3.40625 -4.203125l9.453125 12.03125l-6.546875 0zm17.261963 0.28125q-3.1875 0 -5.59375 -1.25q-2.40625 -1.25 -3.734375 -3.40625q-1.3125 -2.171875 -1.3125 -4.953125q0 -2.796875 1.296875 -4.96875q1.296875 -2.171875 3.546875 -3.390625q2.265625 -1.234375 5.109375 -1.234375q2.734375 0 4.921875 1.171875q2.203125 1.15625 3.484375 3.328125q1.296875 2.15625 1.296875 5.171875q0 0.3125 -0.046875 0.71875q-0.03125 0.390625 -0.0625 0.734375l-15.140625 0l0 -3.15625l12.296875 0l-2.078125 0.9375q0 -1.453125 -0.59375 -2.53125q-0.578125 -1.078125 -1.625 -1.671875q-1.046875 -0.609375 -2.421875 -0.609375q-1.390625 0 -2.453125 0.609375q-1.046875 0.59375 -1.640625 1.6875q-0.59375 1.09375 -0.59375 2.578125l0 0.84375q0 1.515625 0.671875 2.6875q0.6875 1.15625 1.90625 1.765625q1.234375 0.59375 2.90625 0.59375q1.484375 0 2.609375 -0.4375q1.125 -0.453125 2.0625 -1.359375l2.875 3.125q-1.28125 1.453125 -3.21875 2.234375q-1.9375 0.78125 -4.46875 0.78125zm20.243103 0q-3.296875 0 -5.140625 -1.671875q-1.828125 -1.6875 -1.828125 -5.015625l0 -16.359375l5.40625 0l0 16.28125q0 1.1875 0.625 1.828125q0.625 0.640625 1.6875 0.640625q1.296875 0 2.1875 -0.703125l1.453125 3.8125q-0.828125 0.59375 -1.984375 0.890625q-1.15625 0.296875 -2.40625 0.296875zm-9.84375 -14.765625l0 -4.15625l12.921875 0l0 4.15625l-12.921875 0zm17.29425 14.484375l0 -18.640625l5.40625 0l0 18.640625l-5.40625 0zm2.6875 -21.25q-1.484375 0 -2.421875 -0.859375q-0.9375 -0.875 -0.9375 -2.15625q0 -1.28125 0.9375 -2.140625q0.9375 -0.875 2.421875 -0.875q1.5 0 2.4375 0.828125q0.9375 0.8125 0.9375 2.09375q0 1.34375 -0.921875 2.234375q-0.921875 0.875 -2.453125 0.875zm7.7440186 21.25l0 -18.640625l5.15625 0l0 5.15625l-0.96875 -1.5625q1.0 -1.859375 2.875 -2.859375q1.875 -1.015625 4.265625 -1.015625q2.21875 0 3.96875 0.890625q1.75 0.875 2.75 2.703125q1.015625 1.8125 1.015625 4.65625l0 10.671875l-5.40625 0l0 -9.84375q0 -2.25 -1.0 -3.328125q-0.984375 -1.078125 -2.78125 -1.078125q-1.28125 0 -2.3125 0.546875q-1.015625 0.53125 -1.59375 1.640625q-0.5625 1.109375 -0.5625 2.84375l0 9.21875l-5.40625 0zm32.851807 7.0q-2.640625 0 -5.078125 -0.640625q-2.4375 -0.640625 -4.078125 -1.921875l2.15625 -3.890625q1.171875 0.984375 2.984375 1.546875q1.828125 0.578125 3.59375 0.578125q2.875 0 4.171875 -1.28125q1.3125 -1.28125 1.3125 -3.8125l0 -2.8125l0.34375 -4.671875l-0.078125 -4.71875l0 -4.015625l5.140625 0l0 15.515625q0 5.203125 -2.703125 7.65625q-2.703125 2.46875 -7.765625 2.46875zm-0.828125 -7.90625q-2.609375 0 -4.703125 -1.125q-2.09375 -1.125 -3.359375 -3.140625q-1.265625 -2.03125 -1.265625 -4.734375q0 -2.75 1.265625 -4.765625q1.265625 -2.03125 3.359375 -3.140625q2.09375 -1.109375 4.703125 -1.109375q2.34375 0 4.140625 0.953125q1.8125 0.953125 2.8125 2.953125q1.015625 1.984375 1.015625 5.109375q0 3.078125 -1.015625 5.078125q-1.0 1.984375 -2.8125 2.953125q-1.796875 0.96875 -4.140625 0.96875zm1.0625 -4.4375q1.421875 0 2.53125 -0.5625q1.109375 -0.578125 1.734375 -1.609375q0.625 -1.046875 0.625 -2.390625q0 -1.390625 -0.625 -2.40625q-0.625 -1.03125 -1.734375 -1.59375q-1.109375 -0.578125 -2.53125 -0.578125q-1.421875 0 -2.53125 0.578125q-1.109375 0.5625 -1.75 1.59375q-0.640625 1.015625 -0.640625 2.40625q0 1.34375 0.640625 2.390625q0.640625 1.03125 1.75 1.609375q1.109375 0.5625 2.53125 0.5625z" fill-rule="nonzero"/><path fill="#ffffff" d="m650.41565 790.27014l0 -24.265625l4.640625 0l10.328125 17.125l-2.453125 0l10.15625 -17.125l4.609375 0l0.0625 24.265625l-5.265625 0l-0.03125 -16.1875l0.96875 0l-8.109375 13.625l-2.53125 0l-8.28125 -13.625l1.171875 0l0 16.1875l-5.265625 0zm32.72174 0l0 -18.640625l5.40625 0l0 18.640625l-5.40625 0zm2.6875 -21.25q-1.484375 0 -2.421875 -0.859375q-0.9375 -0.875 -0.9375 -2.15625q0 -1.28125 0.9375 -2.140625q0.9375 -0.875 2.421875 -0.875q1.5 0 2.4375 0.828125q0.9375 0.8125 0.9375 2.09375q0 1.34375 -0.921875 2.234375q-0.921875 0.875 -2.453125 0.875zm5.3847046 21.25l8.34375 -10.953125l-0.09375 2.984375l-8.015625 -10.671875l6.078125 0l5.046875 6.96875l-2.28125 0.0625l5.234375 -7.03125l5.75 0l-8.03125 10.5625l0 -2.90625l8.3125 10.984375l-6.140625 0l-5.296875 -7.421875l2.25 0.3125l-5.265625 7.109375l-5.890625 0z" fill-rule="nonzero"/><path fill="#ffffff" d="m591.8465 832.27014l0 -24.265625l4.640625 0l10.328125 17.125l-2.453125 0l10.15625 -17.125l4.609375 0l0.0625 24.265625l-5.265625 0l-0.03125 -16.1875l0.96875 0l-8.109375 13.625l-2.53125 0l-8.28125 -13.625l1.171875 0l0 16.1875l-5.265625 0zm41.59674 0.28125q-2.984375 0 -5.296875 -1.25q-2.296875 -1.25 -3.640625 -3.40625q-1.328125 -2.171875 -1.328125 -4.953125q0 -2.796875 1.328125 -4.96875q1.34375 -2.171875 3.640625 -3.390625q2.3125 -1.234375 5.296875 -1.234375q2.9375 0 5.25 1.234375q2.328125 1.21875 3.640625 3.375q1.328125 2.140625 1.328125 4.984375q0 2.78125 -1.328125 4.953125q-1.3125 2.15625 -3.640625 3.40625q-2.3125 1.25 -5.25 1.25zm0 -4.4375q1.34375 0 2.421875 -0.625q1.078125 -0.625 1.6875 -1.78125q0.625 -1.171875 0.625 -2.765625q0 -1.625 -0.625 -2.765625q-0.609375 -1.140625 -1.6875 -1.765625q-1.078125 -0.625 -2.421875 -0.625q-1.359375 0 -2.4375 0.625q-1.078125 0.625 -1.71875 1.765625q-0.640625 1.140625 -0.640625 2.765625q0 1.59375 0.640625 2.765625q0.640625 1.15625 1.71875 1.78125q1.078125 0.625 2.4375 0.625zm21.82489 4.4375q-2.640625 0 -4.75 -1.1875q-2.109375 -1.203125 -3.34375 -3.34375q-1.234375 -2.15625 -1.234375 -5.078125q0 -2.9375 1.234375 -5.078125q1.234375 -2.15625 3.34375 -3.328125q2.109375 -1.1875 4.75 -1.1875q2.359375 0 4.125 1.046875q1.765625 1.03125 2.734375 3.15625q0.96875 2.109375 0.96875 5.390625q0 3.265625 -0.9375 5.40625q-0.921875 2.125 -2.671875 3.171875q-1.75 1.03125 -4.21875 1.03125zm0.9375 -4.4375q1.3125 0 2.390625 -0.625q1.078125 -0.625 1.71875 -1.78125q0.640625 -1.171875 0.640625 -2.765625q0 -1.625 -0.640625 -2.765625q-0.640625 -1.140625 -1.71875 -1.765625q-1.078125 -0.625 -2.390625 -0.625q-1.359375 0 -2.4375 0.625q-1.0625 0.625 -1.703125 1.765625q-0.640625 1.140625 -0.640625 2.765625q0 1.59375 0.640625 2.765625q0.640625 1.15625 1.703125 1.78125q1.078125 0.625 2.4375 0.625zm4.890625 4.15625l0 -3.8125l0.09375 -5.546875l-0.34375 -5.515625l0 -10.84375l5.40625 0l0 25.71875l-5.15625 0zm19.403992 0.28125q-3.1875 0 -5.59375 -1.25q-2.40625 -1.25 -3.734375 -3.40625q-1.3125 -2.171875 -1.3125 -4.953125q0 -2.796875 1.296875 -4.96875q1.296875 -2.171875 3.546875 -3.390625q2.265625 -1.234375 5.109375 -1.234375q2.734375 0 4.921875 1.171875q2.203125 1.15625 3.484375 3.328125q1.296875 2.15625 1.296875 5.171875q0 0.3125 -0.046875 0.71875q-0.03125 0.390625 -0.0625 0.734375l-15.140625 0l0 -3.15625l12.296875 0l-2.078125 0.9375q0 -1.453125 -0.59375 -2.53125q-0.578125 -1.078125 -1.625 -1.671875q-1.046875 -0.609375 -2.421875 -0.609375q-1.390625 0 -2.453125 0.609375q-1.046875 0.59375 -1.640625 1.6875q-0.59375 1.09375 -0.59375 2.578125l0 0.84375q0 1.515625 0.671875 2.6875q0.6875 1.15625 1.90625 1.765625q1.234375 0.59375 2.90625 0.59375q1.484375 0 2.609375 -0.4375q1.125 -0.453125 2.0625 -1.359375l2.875 3.125q-1.28125 1.453125 -3.21875 2.234375q-1.9375 0.78125 -4.46875 0.78125zm12.618103 -0.28125l0 -25.71875l5.40625 0l0 25.71875l-5.40625 0zm10.43158 0l0 -25.71875l5.40625 0l0 25.71875l-5.40625 0zm10.431519 0l0 -18.640625l5.40625 0l0 18.640625l-5.40625 0zm2.6875 -21.25q-1.484375 0 -2.421875 -0.859375q-0.9375 -0.875 -0.9375 -2.15625q0 -1.28125 0.9375 -2.140625q0.9375 -0.875 2.421875 -0.875q1.5 0 2.4375 0.828125q0.9375 0.8125 0.9375 2.09375q0 1.34375 -0.921875 2.234375q-0.921875 0.875 -2.453125 0.875zm7.7440796 21.25l0 -18.640625l5.15625 0l0 5.15625l-0.96875 -1.5625q1.0 -1.859375 2.875 -2.859375q1.875 -1.015625 4.265625 -1.015625q2.21875 0 3.96875 0.890625q1.75 0.875 2.75 2.703125q1.015625 1.8125 1.015625 4.65625l0 10.671875l-5.40625 0l0 -9.84375q0 -2.25 -1.0 -3.328125q-0.984375 -1.078125 -2.78125 -1.078125q-1.28125 0 -2.3125 0.546875q-1.015625 0.53125 -1.59375 1.640625q-0.5625 1.109375 -0.5625 2.84375l0 9.21875l-5.40625 0zm32.851807 7.0q-2.640625 0 -5.078125 -0.640625q-2.4375 -0.640625 -4.078125 -1.921875l2.15625 -3.890625q1.171875 0.984375 2.984375 1.546875q1.828125 0.578125 3.59375 0.578125q2.875 0 4.171875 -1.28125q1.3125 -1.28125 1.3125 -3.8125l0 -2.8125l0.34375 -4.671875l-0.078125 -4.71875l0 -4.015625l5.140625 0l0 15.515625q0 5.203125 -2.703125 7.65625q-2.703125 2.46875 -7.765625 2.46875zm-0.828125 -7.90625q-2.609375 0 -4.703125 -1.125q-2.09375 -1.125 -3.359375 -3.140625q-1.265625 -2.03125 -1.265625 -4.734375q0 -2.75 1.265625 -4.765625q1.265625 -2.03125 3.359375 -3.140625q2.09375 -1.109375 4.703125 -1.109375q2.34375 0 4.140625 0.953125q1.8125 0.953125 2.8125 2.953125q1.015625 1.984375 1.015625 5.109375q0 3.078125 -1.015625 5.078125q-1.0 1.984375 -2.8125 2.953125q-1.796875 0.96875 -4.140625 0.96875zm1.0625 -4.4375q1.421875 0 2.53125 -0.5625q1.109375 -0.578125 1.734375 -1.609375q0.625 -1.046875 0.625 -2.390625q0 -1.390625 -0.625 -2.40625q-0.625 -1.03125 -1.734375 -1.59375q-1.109375 -0.578125 -2.53125 -0.578125q-1.421875 0 -2.53125 0.578125q-1.109375 0.5625 -1.75 1.59375q-0.640625 1.015625 -0.640625 2.40625q0 1.34375 0.640625 2.390625q0.640625 1.03125 1.75 1.609375q1.109375 0.5625 2.53125 0.5625z" fill-rule="nonzero"/></g><path fill="#000000" fill-opacity="0.0" d="m142.16388 257.14563l322.20474 0l0 38.771637l-322.20474 0z" fill-rule="evenodd"/><path fill="#000000" d="m257.70776 284.3731q-1.921875 0 -3.578125 -0.640625q-1.640625 -0.65625 -2.84375 -1.8125q-1.1875 -1.171875 -1.859375 -2.71875q-0.671875 -1.5625 -0.671875 -3.421875q0 -1.84375 0.671875 -3.40625q0.671875 -1.5625 1.859375 -2.71875q1.203125 -1.171875 2.828125 -1.8125q1.640625 -0.640625 3.59375 -0.640625q1.921875 0 3.53125 0.640625q1.625 0.625 2.828125 1.796875q1.21875 1.15625 1.875 2.71875q0.671875 1.5625 0.671875 3.421875q0 1.875 -0.671875 3.4375q-0.65625 1.5625 -1.875 2.734375q-1.203125 1.15625 -2.828125 1.796875q-1.609375 0.625 -3.53125 0.625zm5.484375 3.3125q-0.828125 0 -1.609375 -0.203125q-0.765625 -0.203125 -1.53125 -0.65625q-0.765625 -0.4375 -1.578125 -1.140625q-0.8125 -0.703125 -1.78125 -1.734375l2.5625 -0.671875q0.734375 0.875 1.390625 1.4375q0.65625 0.578125 1.296875 0.828125q0.65625 0.25 1.28125 0.25q1.796875 0 3.078125 -1.4375l1.125 1.359375q-1.640625 1.96875 -4.234375 1.96875zm-5.484375 -5.4375q1.390625 0 2.578125 -0.484375q1.1875 -0.484375 2.0625 -1.375q0.875 -0.890625 1.359375 -2.0625q0.5 -1.171875 0.5 -2.546875q0 -1.390625 -0.5 -2.5625q-0.484375 -1.171875 -1.359375 -2.046875q-0.875 -0.875 -2.0625 -1.359375q-1.1875 -0.484375 -2.578125 -0.484375q-1.421875 0 -2.609375 0.484375q-1.1875 0.484375 -2.078125 1.359375q-0.890625 0.875 -1.390625 2.046875q-0.484375 1.171875 -0.484375 2.5625q0 1.375 0.484375 2.546875q0.5 1.171875 1.390625 2.0625q0.890625 0.890625 2.078125 1.375q1.1875 0.484375 2.609375 0.484375zm17.581818 2.078125q-1.625 0 -2.859375 -0.59375q-1.234375 -0.609375 -1.921875 -1.84375q-0.6875 -1.234375 -0.6875 -3.109375l0 -7.3125l2.3125 0l0 7.0625q0 1.859375 0.890625 2.796875q0.90625 0.9375 2.53125 0.9375q1.203125 0 2.09375 -0.484375q0.890625 -0.5 1.359375 -1.4375q0.484375 -0.953125 0.484375 -2.296875l0 -6.578125l2.3125 0l0 12.71875l-2.1875 0l0 -3.4375l0.359375 0.921875q-0.625 1.265625 -1.875 1.96875q-1.25 0.6875 -2.8125 0.6875zm16.560455 0q-2.03125 0 -3.578125 -0.828125q-1.546875 -0.84375 -2.40625 -2.3125q-0.84375 -1.46875 -0.84375 -3.359375q0 -1.890625 0.8125 -3.359375q0.828125 -1.46875 2.28125 -2.296875q1.453125 -0.828125 3.28125 -0.828125q1.84375 0 3.265625 0.828125q1.421875 0.8125 2.21875 2.296875q0.8125 1.46875 0.8125 3.4375q0 0.140625 -0.015625 0.328125q-0.015625 0.1875 -0.046875 0.359375l-10.8125 0l0 -1.65625l9.625 0l-0.9375 0.578125q0.015625 -1.21875 -0.515625 -2.171875q-0.515625 -0.96875 -1.453125 -1.5q-0.921875 -0.546875 -2.140625 -0.546875q-1.203125 0 -2.140625 0.546875q-0.9375 0.53125 -1.46875 1.5q-0.515625 0.96875 -0.515625 2.21875l0 0.390625q0 1.265625 0.578125 2.265625q0.59375 1.0 1.640625 1.546875q1.0625 0.546875 2.4375 0.546875q1.125 0 2.046875 -0.375q0.921875 -0.390625 1.625 -1.15625l1.265625 1.484375q-0.859375 1.015625 -2.140625 1.546875q-1.28125 0.515625 -2.875 0.515625zm12.672333 0q-1.578125 0 -3.015625 -0.421875q-1.421875 -0.4375 -2.234375 -1.0625l0.953125 -1.828125q0.828125 0.5625 2.015625 0.953125q1.203125 0.375 2.453125 0.375q1.609375 0 2.3125 -0.453125q0.71875 -0.46875 0.71875 -1.28125q0 -0.59375 -0.4375 -0.921875q-0.4375 -0.34375 -1.140625 -0.515625q-0.703125 -0.171875 -1.578125 -0.296875q-0.859375 -0.140625 -1.734375 -0.34375q-0.859375 -0.203125 -1.578125 -0.5625q-0.71875 -0.375 -1.15625 -1.03125q-0.421875 -0.671875 -0.421875 -1.78125q0 -1.140625 0.640625 -2.0q0.65625 -0.875 1.84375 -1.34375q1.1875 -0.46875 2.8125 -0.46875q1.25 0 2.53125 0.3125q1.296875 0.296875 2.109375 0.84375l-0.984375 1.828125q-0.859375 -0.578125 -1.796875 -0.796875q-0.9375 -0.21875 -1.875 -0.21875q-1.515625 0 -2.265625 0.5q-0.734375 0.484375 -0.734375 1.25q0 0.65625 0.4375 1.0q0.453125 0.34375 1.15625 0.546875q0.703125 0.1875 1.5625 0.328125q0.875 0.125 1.734375 0.328125q0.875 0.203125 1.578125 0.5625q0.703125 0.359375 1.140625 1.015625q0.453125 0.640625 0.453125 1.71875q0 1.15625 -0.671875 2.0q-0.671875 0.828125 -1.90625 1.296875q-1.21875 0.46875 -2.921875 0.46875zm12.742737 0q-1.921875 0 -2.984375 -1.03125q-1.046875 -1.03125 -1.046875 -2.953125l0 -11.65625l2.3125 0l0 11.5625q0 1.03125 0.515625 1.59375q0.515625 0.546875 1.46875 0.546875q1.078125 0 1.796875 -0.609375l0.734375 1.65625q-0.53125 0.46875 -1.265625 0.6875q-0.734375 0.203125 -1.53125 0.203125zm-6.1875 -10.96875l0 -1.890625l8.109375 0l0 1.890625l-8.109375 0zm11.764099 10.828125l0 -12.71875l2.296875 0l0 12.71875l-2.296875 0zm1.15625 -15.171875q-0.671875 0 -1.125 -0.421875q-0.4375 -0.4375 -0.4375 -1.0625q0 -0.640625 0.4375 -1.078125q0.453125 -0.4375 1.125 -0.4375q0.671875 0 1.109375 0.421875q0.453125 0.421875 0.453125 1.046875q0 0.640625 -0.4375 1.09375q-0.4375 0.4375 -1.125 0.4375zm10.977234 15.3125q-1.90625 0 -3.40625 -0.828125q-1.484375 -0.84375 -2.34375 -2.3125q-0.859375 -1.484375 -0.859375 -3.359375q0 -1.890625 0.859375 -3.359375q0.859375 -1.46875 2.34375 -2.296875q1.5 -0.828125 3.40625 -0.828125q1.90625 0 3.40625 0.828125q1.5 0.828125 2.34375 2.28125q0.859375 1.453125 0.859375 3.375q0 1.890625 -0.859375 3.359375q-0.84375 1.46875 -2.34375 2.3125q-1.5 0.828125 -3.40625 0.828125zm0 -2.015625q1.234375 0 2.203125 -0.546875q0.96875 -0.546875 1.515625 -1.5625q0.5625 -1.03125 0.5625 -2.375q0 -1.375 -0.5625 -2.359375q-0.546875 -1.0 -1.515625 -1.546875q-0.96875 -0.5625 -2.203125 -0.5625q-1.21875 0 -2.1875 0.5625q-0.953125 0.546875 -1.53125 1.546875q-0.5625 0.984375 -0.5625 2.359375q0 1.34375 0.5625 2.375q0.578125 1.015625 1.53125 1.5625q0.96875 0.546875 2.1875 0.546875zm9.80246 1.875l0 -12.71875l2.203125 0l0 3.4375l-0.359375 -0.921875q0.625 -1.25 1.921875 -1.9375q1.296875 -0.703125 3.015625 -0.703125q1.5625 0 2.75 0.609375q1.1875 0.59375 1.859375 1.828125q0.671875 1.21875 0.671875 3.09375l0 7.3125l-2.296875 0l0 -7.0625q0 -1.84375 -0.90625 -2.78125q-0.890625 -0.9375 -2.53125 -0.9375q-1.21875 0 -2.140625 0.484375q-0.90625 0.484375 -1.40625 1.421875q-0.484375 0.9375 -0.484375 2.328125l0 6.546875l-2.296875 0z" fill-rule="nonzero"/><path fill="#000000" fill-opacity="0.0" d="m555.3788 257.1418l248.47247 0l0 38.771637l-248.47247 0z" fill-rule="evenodd"/><path fill="#000000" d="m654.4905 284.18182l0 -14.71875l-5.765625 0l0 -2.078125l13.890625 0l0 2.078125l-5.75 0l0 14.71875l-2.375 0zm14.533569 0.140625q-1.90625 0 -3.40625 -0.828125q-1.484375 -0.84375 -2.34375 -2.3125q-0.859375 -1.484375 -0.859375 -3.359375q0 -1.890625 0.859375 -3.359375q0.859375 -1.46875 2.34375 -2.296875q1.5 -0.828125 3.40625 -0.828125q1.90625 0 3.40625 0.828125q1.5 0.828125 2.34375 2.28125q0.859375 1.453125 0.859375 3.375q0 1.890625 -0.859375 3.359375q-0.84375 1.46875 -2.34375 2.3125q-1.5 0.828125 -3.40625 0.828125zm0 -2.015625q1.234375 0 2.203125 -0.546875q0.96875 -0.546875 1.515625 -1.5625q0.5625 -1.03125 0.5625 -2.375q0 -1.375 -0.5625 -2.359375q-0.546875 -1.0 -1.515625 -1.546875q-0.96875 -0.5625 -2.203125 -0.5625q-1.21875 0 -2.1875 0.5625q-0.953125 0.546875 -1.53125 1.546875q-0.5625 0.984375 -0.5625 2.359375q0 1.34375 0.5625 2.375q0.578125 1.015625 1.53125 1.5625q0.96875 0.546875 2.1875 0.546875zm15.23999 2.015625q-1.90625 0 -3.40625 -0.828125q-1.484375 -0.84375 -2.34375 -2.3125q-0.859375 -1.484375 -0.859375 -3.359375q0 -1.890625 0.859375 -3.359375q0.859375 -1.46875 2.34375 -2.296875q1.5 -0.828125 3.40625 -0.828125q1.90625 0 3.40625 0.828125q1.5 0.828125 2.34375 2.28125q0.859375 1.453125 0.859375 3.375q0 1.890625 -0.859375 3.359375q-0.84375 1.46875 -2.34375 2.3125q-1.5 0.828125 -3.40625 0.828125zm0 -2.015625q1.234375 0 2.203125 -0.546875q0.96875 -0.546875 1.515625 -1.5625q0.5625 -1.03125 0.5625 -2.375q0 -1.375 -0.5625 -2.359375q-0.546875 -1.0 -1.515625 -1.546875q-0.96875 -0.5625 -2.203125 -0.5625q-1.21875 0 -2.1875 0.5625q-0.953125 0.546875 -1.53125 1.546875q-0.5625 0.984375 -0.5625 2.359375q0 1.34375 0.5625 2.375q0.578125 1.015625 1.53125 1.5625q0.96875 0.546875 2.1875 0.546875zm9.802429 1.875l0 -17.8125l2.296875 0l0 17.8125l-2.296875 0zm10.336609 0.140625q-1.578125 0 -3.015625 -0.421875q-1.421875 -0.4375 -2.234375 -1.0625l0.953125 -1.828125q0.828125 0.5625 2.015625 0.953125q1.203125 0.375 2.453125 0.375q1.609375 0 2.3125 -0.453125q0.71875 -0.46875 0.71875 -1.28125q0 -0.59375 -0.4375 -0.921875q-0.4375 -0.34375 -1.140625 -0.515625q-0.703125 -0.171875 -1.578125 -0.296875q-0.859375 -0.140625 -1.734375 -0.34375q-0.859375 -0.203125 -1.578125 -0.5625q-0.71875 -0.375 -1.15625 -1.03125q-0.421875 -0.671875 -0.421875 -1.78125q0 -1.140625 0.640625 -2.0q0.65625 -0.875 1.84375 -1.34375q1.1875 -0.46875 2.8125 -0.46875q1.25 0 2.53125 0.3125q1.296875 0.296875 2.109375 0.84375l-0.984375 1.828125q-0.859375 -0.578125 -1.796875 -0.796875q-0.9375 -0.21875 -1.875 -0.21875q-1.515625 0 -2.265625 0.5q-0.734375 0.484375 -0.734375 1.25q0 0.65625 0.4375 1.0q0.453125 0.34375 1.15625 0.546875q0.703125 0.1875 1.5625 0.328125q0.875 0.125 1.734375 0.328125q0.875 0.203125 1.578125 0.5625q0.703125 0.359375 1.140625 1.015625q0.453125 0.640625 0.453125 1.71875q0 1.15625 -0.671875 2.0q-0.671875 0.828125 -1.90625 1.296875q-1.21875 0.46875 -2.921875 0.46875z" fill-rule="nonzero"/><path fill="#000000" fill-opacity="0.0" d="m101.18372 312.7848l768.0 3.0551147" fill-rule="evenodd"/><path stroke="#111c28" stroke-width="1.0" stroke-linejoin="round" stroke-linecap="butt" stroke-dasharray="1.0,3.0" d="m101.18372 312.7848l768.0 3.0551147" fill-rule="evenodd"/><path fill="#000000" fill-opacity="0.0" d="m90.81628 636.8362l768.0 3.0551147" fill-rule="evenodd"/><path stroke="#111c28" stroke-width="1.0" stroke-linejoin="round" stroke-linecap="butt" stroke-dasharray="1.0,3.0" d="m90.81628 636.8362l768.0 3.0551147" fill-rule="evenodd"/></g></svg>