<svg version="1.1" viewBox="0.0 0.0 960.0 960.0" fill="none" stroke="none" stroke-linecap="square" stroke-miterlimit="10" xmlns:xlink="http://www.w3.org/1999/xlink" xmlns="http://www.w3.org/2000/svg"><clipPath id="g3804b09a7da_0_0.0"><path d="m0 0l960.0 0l0 960.0l-960.0 0l0 -960.0z" clip-rule="nonzero"/></clipPath><g clip-path="url(#g3804b09a7da_0_0.0)"><path fill="#000000" fill-opacity="0.0" d="m0 0l960.0 0l0 960.0l-960.0 0z" fill-rule="evenodd"/><defs><radialGradient id="g3804b09a7da_0_0.1" gradientUnits="userSpaceOnUse" gradientTransform="matrix(29.72495306380936 0.0 0.0 29.72495306380936 0.0 0.0)" spreadMethod="pad" cx="4.18810039487033" cy="28.075245901152588" fx="4.18810039487033" fy="28.075245901152588" r="29.724952697753906"><stop offset="0.0" stop-color="#ffab40" stop-opacity="0.5019608"/><stop offset="0.48" stop-color="#21caab" stop-opacity="0.5019608"/><stop offset="0.6" stop-color="#ff0061" stop-opacity="0.5019608"/><stop offset="0.68" stop-color="#ff0061" stop-opacity="0.0"/><stop offset="1.0" stop-color="#ff0061" stop-opacity="0.0"/></radialGradient></defs><path fill="url(#g3804b09a7da_0_0.1)" d="m124.49109 246.97632l366.12598 0l0 0c77.91516 0 152.63916 30.95169 207.73352 86.04602c55.09436 55.09436 86.04602 129.81833 86.04602 207.73352l0 293.77948l-659.9055 0z" fill-rule="evenodd"/><path fill="#000000" fill-opacity="0.0" d="m124.490776 837.9347c97.62188 0 129.33826 -100.07086 195.24374 -200.14172c65.90552 -100.07086 166.00018 -200.14172 332.00034 -200.14172" fill-rule="evenodd"/><path stroke="#111c28" stroke-width="4.0" stroke-linejoin="round" stroke-linecap="butt" d="m124.490776 837.9347c97.62188 0 129.33826 -100.07086 195.24374 -200.14172c65.90552 -100.07086 166.00018 -200.14172 332.00034 -200.14172" fill-rule="evenodd"/><path fill="#21caab" d="m384.92905 531.8537l0 0c0 -13.254822 10.745178 -24.0 24.0 -24.0l0 0c6.365204 0 12.469696 2.5285645 16.970581 7.029419c4.5008545 4.5008545 7.029419 10.605408 7.029419 16.970581l0 0c0 13.254822 -10.745148 24.0 -24.0 24.0l0 0c-13.254822 0 -24.0 -10.745178 -24.0 -24.0z" fill-rule="evenodd"/><path stroke="#111c28" stroke-width="4.0" stroke-linejoin="round" stroke-linecap="butt" d="m384.92905 531.8537l0 0c0 -13.254822 10.745178 -24.0 24.0 -24.0l0 0c6.365204 0 12.469696 2.5285645 16.970581 7.029419c4.5008545 4.5008545 7.029419 10.605408 7.029419 16.970581l0 0c0 13.254822 -10.745148 24.0 -24.0 24.0l0 0c-13.254822 0 -24.0 -10.745178 -24.0 -24.0z" fill-rule="evenodd"/><path fill="#ffab40" d="m209.87798 778.5234l0 0c0 -13.254822 10.745178 -24.0 24.0 -24.0l0 0c6.365204 0 12.469696 2.5285645 16.970566 7.02948c4.5008698 4.5008545 7.0294495 10.605347 7.0294495 16.97052l0 0c0 13.254883 -10.745178 24.0 -24.000015 24.0l0 0c-13.254822 0 -24.0 -10.745117 -24.0 -24.0z" fill-rule="evenodd"/><path stroke="#111c28" stroke-width="4.0" stroke-linejoin="round" stroke-linecap="butt" d="m209.87798 778.5234l0 0c0 -13.254822 10.745178 -24.0 24.0 -24.0l0 0c6.365204 0 12.469696 2.5285645 16.970566 7.02948c4.5008698 4.5008545 7.0294495 10.605347 7.0294495 16.97052l0 0c0 13.254883 -10.745178 24.0 -24.000015 24.0l0 0c-13.254822 0 -24.0 -10.745117 -24.0 -24.0z" fill-rule="evenodd"/><path fill="#29caab" d="m678.06305 314.6582l0 0c0 -4.5923157 3.7227783 -8.3151245 8.3151245 -8.3151245l163.52722 0c2.2053223 0 4.3203125 0.8760376 5.8796997 2.4354248c1.5593872 1.5593872 2.4354248 3.6743774 2.4354248 5.8796997l0 33.25949c0 4.5923157 -3.7228394 8.3151245 -8.3151245 8.3151245l-163.52722 0c-4.592346 0 -8.3151245 -3.7228088 -8.3151245 -8.3151245z" fill-rule="evenodd"/><path fill="#ffffff" d="m733.56946 339.11594q-1.6875 0 -3.125 -0.546875q-1.4375 -0.5625 -2.5 -1.5625q-1.046875 -1.0 -1.625 -2.34375q-0.578125 -1.34375 -0.578125 -2.9375q0 -1.59375 0.578125 -2.9375q0.578125 -1.34375 1.640625 -2.34375q1.0625 -1.0 2.484375 -1.546875q1.4375 -0.546875 3.109375 -0.546875q1.6875 0 3.09375 0.546875q1.421875 0.546875 2.46875 1.546875q1.0625 1.0 1.65625 2.34375q0.59375 1.328125 0.59375 2.9375q0 1.59375 -0.59375 2.953125q-0.59375 1.359375 -1.65625 2.34375q-1.046875 0.984375 -2.46875 1.546875q-1.40625 0.546875 -3.078125 0.546875zm-0.015625 -2.8125q0.953125 0 1.75 -0.328125q0.8125 -0.328125 1.421875 -0.9375q0.609375 -0.609375 0.953125 -1.4375q0.34375 -0.84375 0.34375 -1.875q0 -1.015625 -0.34375 -1.84375q-0.34375 -0.84375 -0.953125 -1.453125q-0.59375 -0.609375 -1.40625 -0.9375q-0.8125 -0.328125 -1.765625 -0.328125q-0.96875 0 -1.78125 0.328125q-0.796875 0.328125 -1.40625 0.9375q-0.609375 0.609375 -0.953125 1.453125q-0.328125 0.828125 -0.328125 1.84375q0 1.0 0.328125 1.859375q0.34375 0.84375 0.9375 1.453125q0.609375 0.609375 1.421875 0.9375q0.8125 0.328125 1.78125 0.328125zm16.553345 2.71875q-1.390625 0 -2.4375 -0.609375q-1.03125 -0.609375 -1.609375 -1.859375q-0.578125 -1.25 -0.578125 -3.171875q0 -1.9375 0.546875 -3.171875q0.546875 -1.25 1.578125 -1.859375q1.046875 -0.625 2.5 -0.625q1.546875 0 2.78125 0.71875q1.234375 0.703125 1.953125 1.96875q0.734375 1.25 0.734375 2.96875q0 1.734375 -0.734375 3.0q-0.71875 1.265625 -1.953125 1.953125q-1.234375 0.6875 -2.78125 0.6875zm-6.484375 3.796875l0 -14.921875l3.03125 0l0 2.234375l-0.0625 3.265625l0.21875 3.25l0 6.171875l-3.1875 0zm5.9375 -6.40625q0.796875 0 1.40625 -0.359375q0.625 -0.375 1.0 -1.046875q0.375 -0.6875 0.375 -1.625q0 -0.953125 -0.375 -1.625q-0.375 -0.6875 -1.0 -1.046875q-0.609375 -0.359375 -1.40625 -0.359375q-0.796875 0 -1.4375 0.359375q-0.625 0.359375 -1.0 1.046875q-0.359375 0.671875 -0.359375 1.625q0 0.9375 0.359375 1.625q0.375 0.671875 1.0 1.046875q0.640625 0.359375 1.4375 0.359375zm12.616333 2.609375q-1.9375 0 -3.015625 -0.984375q-1.078125 -0.984375 -1.078125 -2.9375l0 -9.625l3.171875 0l0 9.578125q0 0.6875 0.359375 1.078125q0.375 0.375 1.015625 0.375q0.75 0 1.28125 -0.40625l0.859375 2.234375q-0.5 0.34375 -1.1875 0.515625q-0.671875 0.171875 -1.40625 0.171875zm-5.796875 -8.671875l0 -2.453125l7.609375 0l0 2.453125l-7.609375 0zm10.182373 8.515625l0 -10.96875l3.1875 0l0 10.96875l-3.1875 0zm1.578125 -12.5q-0.875 0 -1.421875 -0.5q-0.546875 -0.515625 -0.546875 -1.265625q0 -0.765625 0.546875 -1.265625q0.546875 -0.515625 1.421875 -0.515625q0.890625 0 1.4375 0.484375q0.546875 0.46875 0.546875 1.234375q0 0.78125 -0.546875 1.3125q-0.53125 0.515625 -1.4375 0.515625zm4.5594482 12.5l0 -10.96875l3.03125 0l0 3.0l-0.5625 -0.875q0.5625 -1.125 1.609375 -1.703125q1.0625 -0.59375 2.40625 -0.59375q1.515625 0 2.640625 0.765625q1.125 0.765625 1.5 2.34375l-1.125 -0.3125q0.546875 -1.28125 1.765625 -2.03125q1.21875 -0.765625 2.78125 -0.765625q1.3125 0 2.3125 0.53125q1.015625 0.515625 1.59375 1.59375q0.578125 1.0625 0.578125 2.734375l0 6.28125l-3.171875 0l0 -5.796875q0 -1.3125 -0.5625 -1.9375q-0.546875 -0.640625 -1.546875 -0.640625q-0.6875 0 -1.25 0.3125q-0.546875 0.3125 -0.859375 0.953125q-0.296875 0.625 -0.296875 1.609375l0 5.5l-3.171875 0l0 -5.796875q0 -1.3125 -0.546875 -1.9375q-0.546875 -0.640625 -1.53125 -0.640625q-0.703125 0 -1.25 0.3125q-0.546875 0.3125 -0.859375 0.953125q-0.296875 0.625 -0.296875 1.609375l0 5.5l-3.1875 0zm28.124023 0l0 -2.140625l-0.203125 -0.46875l0 -3.828125q0 -1.03125 -0.625 -1.59375q-0.625 -0.578125 -1.90625 -0.578125q-0.875 0 -1.734375 0.28125q-0.84375 0.28125 -1.4375 0.75l-1.140625 -2.234375q0.90625 -0.625 2.171875 -0.96875q1.265625 -0.359375 2.5625 -0.359375q2.515625 0 3.890625 1.1875q1.390625 1.1875 1.390625 3.6875l0 6.265625l-2.96875 0zm-3.34375 0.15625q-1.296875 0 -2.21875 -0.4375q-0.90625 -0.4375 -1.40625 -1.1875q-0.484375 -0.75 -0.484375 -1.6875q0 -0.984375 0.484375 -1.71875q0.484375 -0.734375 1.515625 -1.140625q1.046875 -0.421875 2.71875 -0.421875l2.90625 0l0 1.84375l-2.5625 0q-1.125 0 -1.546875 0.375q-0.40625 0.359375 -0.40625 0.921875q0 0.609375 0.46875 0.96875q0.484375 0.34375 1.3125 0.34375q0.796875 0 1.421875 -0.375q0.640625 -0.375 0.9375 -1.109375l0.484375 1.46875q-0.34375 1.0625 -1.265625 1.609375q-0.921875 0.546875 -2.359375 0.546875zm9.190308 -0.15625l0 -15.125l3.1875 0l0 15.125l-3.1875 0z" fill-rule="nonzero"/><path fill="#000000" fill-opacity="0.0" d="m130.45508 834.52905l595.937 0l0 62.992126l-595.937 0z" fill-rule="evenodd"/><path fill="#595959" d="m388.73074 877.05237q-2.359375 0 -4.515625 -0.765625q-2.140625 -0.78125 -3.3125 -1.984375l0.859375 -1.71875q1.125 1.09375 3.0 1.828125q1.890625 0.734375 3.96875 0.734375q1.984375 0 3.234375 -0.484375q1.25 -0.5 1.828125 -1.34375q0.59375 -0.84375 0.59375 -1.875q0 -1.234375 -0.71875 -1.984375q-0.703125 -0.75 -1.84375 -1.1875q-1.140625 -0.4375 -2.53125 -0.765625q-1.375 -0.328125 -2.765625 -0.703125q-1.390625 -0.390625 -2.546875 -1.015625q-1.15625 -0.640625 -1.875 -1.671875q-0.703125 -1.046875 -0.703125 -2.71875q0 -1.578125 0.828125 -2.875q0.828125 -1.3125 2.546875 -2.109375q1.71875 -0.796875 4.390625 -0.796875q1.78125 0 3.53125 0.5q1.75 0.484375 3.015625 1.359375l-0.765625 1.78125q-1.34375 -0.90625 -2.875 -1.328125q-1.515625 -0.421875 -2.921875 -0.421875q-1.90625 0 -3.140625 0.515625q-1.234375 0.5 -1.828125 1.359375q-0.578125 0.859375 -0.578125 1.953125q0 1.234375 0.703125 1.984375q0.71875 0.75 1.875 1.171875q1.15625 0.421875 2.53125 0.75q1.390625 0.328125 2.765625 0.71875q1.375 0.390625 2.53125 1.015625q1.15625 0.609375 1.859375 1.640625q0.71875 1.03125 0.71875 2.6875q0 1.53125 -0.84375 2.84375q-0.84375 1.296875 -2.578125 2.109375q-1.734375 0.796875 -4.4375 0.796875zm20.407928 -0.03125q-2.046875 0 -3.703125 -0.953125q-1.65625 -0.953125 -2.640625 -2.734375q-0.96875 -1.796875 -0.96875 -4.390625q0 -2.59375 0.953125 -4.375q0.96875 -1.796875 2.625 -2.71875q1.65625 -0.9375 3.734375 -0.9375q2.265625 0 4.046875 1.015625q1.796875 1.0 2.8125 2.828125q1.03125 1.8125 1.03125 4.1875q0 2.40625 -1.03125 4.21875q-1.015625 1.8125 -2.8125 2.84375q-1.78125 1.015625 -4.046875 1.015625zm-8.15625 5.6875l0 -21.65625l2.046875 0l0 4.765625l-0.21875 3.15625l0.3125 3.1875l0 10.546875l-2.140625 0zm8.0 -7.59375q1.6875 0 3.015625 -0.765625q1.328125 -0.765625 2.109375 -2.15625q0.78125 -1.40625 0.78125 -3.25q0 -1.828125 -0.78125 -3.21875q-0.78125 -1.390625 -2.109375 -2.171875q-1.328125 -0.78125 -3.015625 -0.78125q-1.6875 0 -3.03125 0.78125q-1.328125 0.78125 -2.09375 2.171875q-0.765625 1.390625 -0.765625 3.21875q0 1.84375 0.765625 3.25q0.765625 1.390625 2.09375 2.15625q1.34375 0.765625 3.03125 0.765625zm19.11731 1.90625q-2.46875 0 -4.328125 -1.03125q-1.859375 -1.046875 -2.921875 -2.859375q-1.046875 -1.828125 -1.046875 -4.1875q0 -2.34375 1.0 -4.140625q1.015625 -1.8125 2.765625 -2.84375q1.765625 -1.046875 3.96875 -1.046875q2.21875 0 3.953125 1.015625q1.734375 1.0 2.71875 2.828125q1.0 1.8125 1.0 4.1875q0 0.15625 -0.015625 0.328125q-0.015625 0.15625 -0.015625 0.34375l-13.75 0l0 -1.609375l12.609375 0l-0.84375 0.640625q0 -1.71875 -0.734375 -3.046875q-0.734375 -1.34375 -2.0 -2.09375q-1.265625 -0.765625 -2.921875 -0.765625q-1.625 0 -2.921875 0.765625q-1.296875 0.75 -2.015625 2.109375q-0.71875 1.34375 -0.71875 3.09375l0 0.328125q0 1.8125 0.796875 3.1875q0.796875 1.359375 2.21875 2.125q1.4375 0.765625 3.265625 0.765625q1.453125 0 2.703125 -0.5q1.25 -0.515625 2.15625 -1.578125l1.203125 1.390625q-1.0625 1.265625 -2.640625 1.9375q-1.578125 0.65625 -3.484375 0.65625zm11.482941 -0.15625l0 -15.8125l2.046875 0l0 4.34375l-0.328125 -0.8125q0.75 -1.71875 2.40625 -2.6875q1.65625 -0.984375 3.9375 -0.984375q1.9375 0 3.390625 0.734375q1.453125 0.734375 2.28125 2.25q0.828125 1.5 0.828125 3.78125l0 9.1875l-2.125 0l0 -8.96875q0 -2.5 -1.25 -3.78125q-1.25 -1.28125 -3.515625 -1.28125q-1.6875 0 -2.9375 0.6875q-1.25 0.671875 -1.921875 1.953125q-0.671875 1.28125 -0.671875 3.078125l0 8.3125l-2.140625 0zm26.650848 0.15625q-2.265625 0 -4.0625 -1.015625q-1.78125 -1.03125 -2.8125 -2.859375q-1.015625 -1.828125 -1.015625 -4.203125q0 -2.40625 1.015625 -4.203125q1.03125 -1.8125 2.8125 -2.8125q1.796875 -1.015625 4.0625 -1.015625q2.0625 0 3.703125 0.9375q1.65625 0.921875 2.625 2.71875q0.984375 1.78125 0.984375 4.375q0 2.5625 -0.96875 4.375q-0.96875 1.796875 -2.609375 2.75q-1.640625 0.953125 -3.734375 0.953125zm0.140625 -1.90625q1.6875 0 3.03125 -0.765625q1.34375 -0.765625 2.109375 -2.15625q0.765625 -1.40625 0.765625 -3.25q0 -1.859375 -0.765625 -3.25q-0.765625 -1.390625 -2.109375 -2.15625q-1.34375 -0.765625 -3.03125 -0.765625q-1.65625 0 -2.984375 0.765625q-1.3125 0.765625 -2.109375 2.15625q-0.78125 1.390625 -0.78125 3.25q0 1.84375 0.78125 3.25q0.796875 1.390625 2.109375 2.15625q1.328125 0.765625 2.984375 0.765625zm5.96875 1.75l0 -4.75l0.203125 -3.203125l-0.296875 -3.1875l0 -11.203125l2.140625 0l0 22.34375l-2.046875 0z" fill-rule="nonzero"/><path fill="#000000" fill-opacity="0.0" d="m51.13378 837.9346l0 -585.8583l73.35433 0l0 585.8583z" fill-rule="evenodd"/><path fill="#595959" d="m98.65074 607.80865l-21.078125 0l0 -7.890625q0 -4.0 1.921875 -6.296875q1.90625 -2.3125 5.3125 -2.3125q2.21875 0 3.828125 1.046875q1.609375 1.03125 2.46875 2.96875q0.859375 1.921875 0.859375 4.59375l0 6.65625l-1.015625 -0.984375l7.703125 0l0 2.21875zm0 -14.390625l-7.640625 5.421875l0 -2.40625l7.640625 -5.453125l0 2.4375zm-7.53125 12.171875l-1.046875 0.984375l0 -6.59375q0 -3.15625 -1.375 -4.796875q-1.390625 -1.640625 -3.890625 -1.640625q-2.53125 0 -3.921875 1.640625q-1.390625 1.640625 -1.390625 4.796875l0 6.59375l-1.046875 -0.984375l12.671875 0zm7.6875 -25.800354q0 2.46875 -1.03125 4.328125q-1.046875 1.859375 -2.859375 2.921875q-1.828125 1.046875 -4.1875 1.046875q-2.34375 0 -4.140625 -1.0q-1.8125 -1.015625 -2.84375 -2.765625q-1.046875 -1.765625 -1.046875 -3.96875q0 -2.21875 1.015625 -3.953125q1.0 -1.734375 2.828125 -2.71875q1.8125 -1.0 4.1875 -1.0q0.15625 0 0.328125 0.015625q0.15625 0.015625 0.34375 0.015625l0 13.75l-1.609375 0l0 -12.609375l0.640625 0.84375q-1.71875 0 -3.046875 0.734375q-1.34375 0.734375 -2.09375 2.0q-0.765625 1.265625 -0.765625 2.921875q0 1.625 0.765625 2.921875q0.75 1.296875 2.109375 2.015625q1.34375 0.71875 3.09375 0.71875l0.328125 0q1.8125 0 3.1875 -0.796875q1.359375 -0.796875 2.125 -2.21875q0.765625 -1.4375 0.765625 -3.265625q0 -1.453125 -0.5 -2.703125q-0.515625 -1.25 -1.578125 -2.15625l1.390625 -1.203125q1.265625 1.0625 1.9375 2.640625q0.65625 1.578125 0.65625 3.484375zm-0.15625 -15.244385l-15.8125 7.015625l0 -2.234375l14.671875 -6.4375l0 1.0625l-14.671875 -6.546875l0 -2.109375l15.8125 7.046875l0 2.203125zm0.15625 -18.50824q0 2.46875 -1.03125 4.328125q-1.046875 1.859375 -2.859375 2.921875q-1.828125 1.046875 -4.1875 1.046875q-2.34375 0 -4.140625 -1.0q-1.8125 -1.015625 -2.84375 -2.765625q-1.046875 -1.765625 -1.046875 -3.96875q0 -2.21875 1.015625 -3.953125q1.0 -1.734375 2.828125 -2.71875q1.8125 -1.0 4.1875 -1.0q0.15625 0 0.328125 0.015625q0.15625 0.015625 0.34375 0.015625l0 13.75l-1.609375 0l0 -12.609375l0.640625 0.84375q-1.71875 0 -3.046875 0.734375q-1.34375 0.734375 -2.09375 2.0q-0.765625 1.265625 -0.765625 2.921875q0 1.625 0.765625 2.921875q0.75 1.296875 2.109375 2.015625q1.34375 0.71875 3.09375 0.71875l0.328125 0q1.8125 0 3.1875 -0.796875q1.359375 -0.796875 2.125 -2.21875q0.765625 -1.4375 0.765625 -3.265625q0 -1.453125 -0.5 -2.703125q-0.515625 -1.25 -1.578125 -2.15625l1.390625 -1.203125q1.265625 1.0625 1.9375 2.640625q0.65625 1.578125 0.65625 3.484375zm-0.15625 -11.482971l-15.8125 0l0 -2.046875l4.34375 0l-0.8125 0.328125q-1.71875 -0.75 -2.6875 -2.40625q-0.984375 -1.65625 -0.984375 -3.9375q0 -1.9375 0.734375 -3.390625q0.734375 -1.453125 2.25 -2.28125q1.5 -0.828125 3.78125 -0.828125l9.1875 0l0 2.125l-8.96875 0q-2.5 0 -3.78125 1.25q-1.28125 1.25 -1.28125 3.515625q0 1.6875 0.6875 2.9375q0.671875 1.25 1.953125 1.921875q1.28125 0.671875 3.078125 0.671875l8.3125 0l0 2.140625zm0.15625 -26.885223q0 2.015625 -0.75 3.53125q-0.765625 1.5000305 -2.265625 2.3281555q-1.5 0.828125 -3.765625 0.828125l-9.1875 0l0 -2.140625l8.953125 0q2.53125 0 3.8125 -1.2500305q1.265625 -1.25 1.265625 -3.5q0 -1.65625 -0.671875 -2.875q-0.671875 -1.21875 -1.96875 -1.859375q-1.296875 -0.65625 -3.109375 -0.65625l-8.28125 0l0 -2.140625l15.8125 0l0 2.046875l-4.328125 0l0.78125 -0.328125q1.734375 0.75 2.71875 2.328125q0.984375 1.578125 0.984375 3.6875zm0 -20.405396q0 2.46875 -1.03125 4.328125q-1.046875 1.859375 -2.859375 2.921875q-1.828125 1.046875 -4.1875 1.046875q-2.34375 0 -4.140625 -1.0q-1.8125 -1.015625 -2.84375 -2.765625q-1.046875 -1.765625 -1.046875 -3.96875q0 -2.21875 1.015625 -3.953125q1.0 -1.734375 2.828125 -2.71875q1.8125 -1.0 4.1875 -1.0q0.15625 0 0.328125 0.015625q0.15625 0.015625 0.34375 0.015625l0 13.75l-1.609375 0l0 -12.609375l0.640625 0.84375q-1.71875 0 -3.046875 0.734375q-1.34375 0.734375 -2.09375 2.0q-0.765625 1.265625 -0.765625 2.921875q0 1.625 0.765625 2.921875q0.75 1.296875 2.109375 2.015625q1.34375 0.71875 3.09375 0.71875l0.328125 0q1.8125 0 3.1875 -0.796875q1.359375 -0.796875 2.125 -2.21875q0.765625 -1.4375 0.765625 -3.265625q0 -1.453125 -0.5 -2.703125q-0.515625 -1.25 -1.578125 -2.15625l1.390625 -1.203125q1.265625 1.0625 1.9375 2.640625q0.65625 1.578125 0.65625 3.484375z" fill-rule="nonzero"/><path fill="#ffab40" d="m678.06384 255.29144l0 0c0 -4.5923157 3.7227783 -8.3151245 8.3151245 -8.3151245l163.52722 0c2.2052612 0 4.3202515 0.87605286 5.8796387 2.43544c1.5593872 1.5593872 2.4354858 3.6743774 2.4354858 5.8796844l0 33.25949c0 4.592346 -3.7228394 8.315155 -8.3151245 8.315155l-163.52722 0c-4.592346 0 -8.3151245 -3.7228088 -8.3151245 -8.315155z" fill-rule="evenodd"/><path fill="#ffffff" d="m732.3898 280.36642q-1.828125 0 -3.40625 -0.59375q-1.5625 -0.59375 -2.71875 -1.703125q-1.140625 -1.109375 -1.796875 -2.59375q-0.640625 -1.5 -0.640625 -3.28125q0 -1.78125 0.640625 -3.265625q0.65625 -1.5 1.8125 -2.59375q1.171875 -1.109375 2.71875 -1.703125q1.5625 -0.609375 3.40625 -0.609375q2.0625 0 3.71875 0.71875q1.65625 0.703125 2.796875 2.078125l-2.359375 2.171875q-0.8125 -0.921875 -1.8125 -1.375q-0.984375 -0.46875 -2.15625 -0.46875q-1.109375 0 -2.03125 0.359375q-0.921875 0.359375 -1.609375 1.046875q-0.671875 0.671875 -1.046875 1.59375q-0.375 0.921875 -0.375 2.046875q0 1.125 0.375 2.0625q0.375 0.921875 1.046875 1.609375q0.6875 0.671875 1.609375 1.03125q0.921875 0.359375 2.03125 0.359375q1.171875 0 2.15625 -0.453125q1.0 -0.46875 1.8125 -1.421875l2.359375 2.171875q-1.140625 1.375 -2.796875 2.09375q-1.65625 0.71875 -3.734375 0.71875zm13.343018 -0.078125q-1.515625 0 -2.703125 -0.59375q-1.171875 -0.59375 -1.828125 -1.796875q-0.65625 -1.203125 -0.65625 -3.078125l0 -6.859375l3.515625 0l0 6.34375q0 1.5 0.640625 2.21875q0.640625 0.703125 1.828125 0.703125q0.8125 0 1.4375 -0.34375q0.640625 -0.34375 1.0 -1.078125q0.359375 -0.734375 0.359375 -1.84375l0 -6.0l3.515625 0l0 12.140625l-3.34375 0l0 -3.34375l0.609375 0.96875q-0.609375 1.265625 -1.796875 1.921875q-1.171875 0.640625 -2.578125 0.640625zm10.38623 -0.1875l0 -12.140625l3.359375 0l0 3.421875l-0.46875 -0.984375q0.546875 -1.296875 1.734375 -1.953125q1.203125 -0.671875 2.921875 -0.671875l0 3.25q-0.234375 -0.015625 -0.421875 -0.03125q-0.171875 -0.015625 -0.375 -0.015625q-1.4375 0 -2.34375 0.828125q-0.890625 0.828125 -0.890625 2.5625l0 5.734375l-3.515625 0zm9.640869 0l0 -12.140625l3.359375 0l0 3.421875l-0.46875 -0.984375q0.546875 -1.296875 1.734375 -1.953125q1.203125 -0.671875 2.921875 -0.671875l0 3.25q-0.234375 -0.015625 -0.421875 -0.03125q-0.171875 -0.015625 -0.375 -0.015625q-1.4375 0 -2.34375 0.828125q-0.890625 0.828125 -0.890625 2.5625l0 5.734375l-3.515625 0zm15.559204 0.1875q-2.078125 0 -3.65625 -0.8125q-1.5625 -0.8125 -2.421875 -2.21875q-0.859375 -1.421875 -0.859375 -3.234375q0 -1.828125 0.84375 -3.234375q0.859375 -1.40625 2.3125 -2.203125q1.46875 -0.8125 3.328125 -0.8125q1.78125 0 3.21875 0.765625q1.4375 0.75 2.265625 2.15625q0.84375 1.40625 0.84375 3.375q0 0.203125 -0.03125 0.46875q-0.015625 0.25 -0.046875 0.484375l-9.859375 0l0 -2.0625l8.015625 0l-1.359375 0.609375q0 -0.9375 -0.390625 -1.640625q-0.375 -0.703125 -1.0625 -1.09375q-0.671875 -0.390625 -1.578125 -0.390625q-0.890625 0 -1.59375 0.390625q-0.6875 0.390625 -1.078125 1.109375q-0.375 0.703125 -0.375 1.671875l0 0.546875q0 1.0 0.4375 1.75q0.453125 0.75 1.25 1.15625q0.796875 0.390625 1.890625 0.390625q0.96875 0 1.703125 -0.296875q0.734375 -0.296875 1.34375 -0.875l1.875 2.03125q-0.84375 0.953125 -2.109375 1.46875q-1.265625 0.5 -2.90625 0.5zm8.215637 -0.1875l0 -12.140625l3.359375 0l0 3.359375l-0.625 -1.015625q0.65625 -1.21875 1.875 -1.875q1.21875 -0.65625 2.78125 -0.65625q1.4375 0 2.578125 0.578125q1.140625 0.578125 1.796875 1.765625q0.65625 1.171875 0.65625 3.03125l0 6.953125l-3.53125 0l0 -6.40625q0 -1.46875 -0.640625 -2.171875q-0.640625 -0.703125 -1.8125 -0.703125q-0.84375 0 -1.515625 0.359375q-0.65625 0.34375 -1.03125 1.0625q-0.375 0.71875 -0.375 1.859375l0 6.0l-3.515625 0zm20.570312 0.1875q-2.140625 0 -3.34375 -1.09375q-1.203125 -1.109375 -1.203125 -3.265625l0 -10.65625l3.53125 0l0 10.609375q0 0.765625 0.40625 1.1875q0.40625 0.40625 1.109375 0.40625q0.828125 0 1.421875 -0.453125l0.9375 2.484375q-0.53125 0.390625 -1.296875 0.59375q-0.75 0.1875 -1.5625 0.1875zm-6.40625 -9.625l0 -2.703125l8.421875 0l0 2.703125l-8.421875 0z" fill-rule="nonzero"/><path fill="#000000" fill-opacity="0.0" d="m220.23615 736.8301c0 -102.48822 82.346466 -204.97638 164.6929 -204.97638" fill-rule="evenodd"/><path stroke="#ffffff" stroke-width="4.0" stroke-linejoin="round" stroke-linecap="butt" d="m220.23615 736.8301c0 -51.24414 20.586609 -102.48822 51.466522 -140.92126c15.439972 -19.216553 33.453247 -35.230347 52.753204 -46.440002c9.649963 -5.6047974 19.621643 -10.008606 29.75409 -13.011169c5.0662537 -1.5012817 10.172668 -2.6522827 15.299225 -3.4279785c0.32040405 -0.048461914 0.64089966 -0.095458984 0.9614563 -0.14099121l0.78149414 -0.107421875" fill-rule="evenodd"/><path fill="#ffffff" stroke="#ffffff" stroke-width="4.0" stroke-linecap="butt" d="m371.25214 532.78125l-4.183655 4.7924194l12.026367 -5.324341l-12.635132 -3.6517334z" fill-rule="evenodd"/><path fill="#ff0061" d="m678.06384 374.02493l0 0c0 -4.5923157 3.7227783 -8.3151245 8.3151245 -8.3151245l163.52722 0c2.2052612 0 4.3202515 0.8760681 5.8796387 2.4354553c1.5593872 1.5593872 2.4354858 3.6743774 2.4354858 5.879669l0 33.25952c0 4.5923157 -3.7228394 8.3151245 -8.3151245 8.3151245l-163.52722 0c-4.592346 0 -8.3151245 -3.7228088 -8.3151245 -8.3151245z" fill-rule="evenodd"/><path fill="#ffffff" d="m702.60406 399.09995q-3.359375 0 -5.265625 -1.875q-1.890625 -1.875 -1.890625 -5.34375l0 -8.859375l3.65625 0l0 8.71875q0 2.265625 0.921875 3.265625q0.9375 0.984375 2.609375 0.984375q1.671875 0 2.59375 -0.984375q0.921875 -1.0 0.921875 -3.265625l0 -8.71875l3.609375 0l0 8.859375q0 3.46875 -1.890625 5.34375q-1.890625 1.875 -5.265625 1.875zm10.526062 -0.265625l0 -12.140625l3.359375 0l0 3.359375l-0.625 -1.015625q0.65625 -1.21875 1.875 -1.875q1.21875 -0.65625 2.78125 -0.65625q1.4375 0 2.578125 0.578125q1.140625 0.578125 1.796875 1.765625q0.65625 1.171875 0.65625 3.03125l0 6.953125l-3.53125 0l0 -6.40625q0 -1.46875 -0.640625 -2.171875q-0.640625 -0.703125 -1.8125 -0.703125q-0.84375 0 -1.515625 0.359375q-0.65625 0.34375 -1.03125 1.0625q-0.375 0.71875 -0.375 1.859375l0 6.0l-3.515625 0zm22.789062 0.1875q-1.546875 0 -2.703125 -0.671875q-1.140625 -0.6875 -1.78125 -2.078125q-0.640625 -1.390625 -0.640625 -3.515625q0 -2.140625 0.609375 -3.515625q0.609375 -1.375 1.75 -2.046875q1.15625 -0.6875 2.765625 -0.6875q1.703125 0 3.0625 0.78125q1.375 0.78125 2.171875 2.1875q0.8125 1.390625 0.8125 3.28125q0 1.921875 -0.8125 3.328125q-0.796875 1.390625 -2.171875 2.171875q-1.359375 0.765625 -3.0625 0.765625zm-7.1875 4.1875l0 -16.515625l3.359375 0l0 2.484375l-0.0625 3.609375l0.21875 3.578125l0 6.84375l-3.515625 0zm6.578125 -7.078125q0.875 0 1.5625 -0.40625q0.6875 -0.40625 1.109375 -1.15625q0.421875 -0.765625 0.421875 -1.8125q0 -1.0625 -0.421875 -1.796875q-0.421875 -0.75 -1.109375 -1.15625q-0.6875 -0.40625 -1.5625 -0.40625q-0.890625 0 -1.59375 0.40625q-0.6875 0.40625 -1.09375 1.15625q-0.40625 0.734375 -0.40625 1.796875q0 1.046875 0.40625 1.8125q0.40625 0.75 1.09375 1.15625q0.703125 0.40625 1.59375 0.40625zm9.0008545 2.703125l0 -12.140625l3.359375 0l0 3.421875l-0.46875 -0.984375q0.546875 -1.296875 1.734375 -1.953125q1.203125 -0.671875 2.921875 -0.671875l0 3.25q-0.234375 -0.015625 -0.421875 -0.03125q-0.171875 -0.015625 -0.375 -0.015625q-1.4375 0 -2.34375 0.828125q-0.890625 0.828125 -0.890625 2.5625l0 5.734375l-3.515625 0zm15.309204 0.1875q-1.9375 0 -3.4375 -0.8125q-1.5 -0.8125 -2.375 -2.21875q-0.875 -1.421875 -0.875 -3.234375q0 -1.828125 0.875 -3.234375q0.875 -1.40625 2.375 -2.203125q1.5 -0.8125 3.4375 -0.8125q1.921875 0 3.421875 0.8125q1.515625 0.796875 2.375 2.203125q0.859375 1.390625 0.859375 3.234375q0 1.8125 -0.859375 3.234375q-0.859375 1.40625 -2.375 2.21875q-1.5 0.8125 -3.421875 0.8125zm0 -2.890625q0.875 0 1.578125 -0.40625q0.703125 -0.40625 1.109375 -1.15625q0.40625 -0.765625 0.40625 -1.8125q0 -1.0625 -0.40625 -1.796875q-0.40625 -0.75 -1.109375 -1.15625q-0.703125 -0.40625 -1.578125 -0.40625q-0.875 0 -1.578125 0.40625q-0.703125 0.40625 -1.125 1.15625q-0.40625 0.734375 -0.40625 1.796875q0 1.046875 0.40625 1.8125q0.421875 0.75 1.125 1.15625q0.703125 0.40625 1.578125 0.40625zm9.429382 2.703125l0 -12.421875q0 -2.046875 1.21875 -3.28125q1.234375 -1.234375 3.484375 -1.234375q0.765625 0 1.46875 0.15625q0.71875 0.15625 1.21875 0.5l-0.921875 2.546875q-0.296875 -0.203125 -0.65625 -0.3125q-0.359375 -0.109375 -0.765625 -0.109375q-0.765625 0 -1.1875 0.4375q-0.421875 0.4375 -0.421875 1.328125l0 1.125l0.09375 1.515625l0 9.75l-3.53125 0zm-1.859375 -9.171875l0 -2.703125l8.421875 0l0 2.703125l-8.421875 0zm10.265625 9.171875l0 -12.140625l3.515625 0l0 12.140625l-3.515625 0zm1.765625 -13.84375q-0.984375 0 -1.59375 -0.5625q-0.609375 -0.5625 -0.609375 -1.40625q0 -0.828125 0.609375 -1.390625q0.609375 -0.5625 1.59375 -0.5625q0.96875 0 1.578125 0.53125q0.609375 0.53125 0.609375 1.359375q0 0.890625 -0.609375 1.46875q-0.59375 0.5625 -1.578125 0.5625zm9.9765625 14.03125q-2.140625 0 -3.34375 -1.09375q-1.203125 -1.109375 -1.203125 -3.265625l0 -10.65625l3.53125 0l0 10.609375q0 0.765625 0.40625 1.1875q0.40625 0.40625 1.109375 0.40625q0.828125 0 1.421875 -0.453125l0.9375 2.484375q-0.53125 0.390625 -1.296875 0.59375q-0.75 0.1875 -1.5625 0.1875zm-6.40625 -9.625l0 -2.703125l8.421875 0l0 2.703125l-8.421875 0zm18.305664 9.4375l0 -2.375l-0.234375 -0.515625l0 -4.25q0 -1.125 -0.6875 -1.75q-0.6875 -0.640625 -2.109375 -0.640625q-0.96875 0 -1.90625 0.3125q-0.9375 0.296875 -1.59375 0.8125l-1.265625 -2.453125q1.0 -0.703125 2.390625 -1.078125q1.40625 -0.390625 2.859375 -0.390625q2.765625 0 4.296875 1.3125q1.546875 1.3125 1.546875 4.078125l0 6.9375l-3.296875 0zm-3.703125 0.1875q-1.421875 0 -2.4375 -0.484375q-1.015625 -0.5 -1.5625 -1.328125q-0.546875 -0.84375 -0.546875 -1.875q0 -1.078125 0.53125 -1.890625q0.53125 -0.8125 1.6875 -1.28125q1.15625 -0.46875 3.0 -0.46875l3.234375 0l0 2.0625l-2.84375 0q-1.25 0 -1.71875 0.40625q-0.453125 0.40625 -0.453125 1.015625q0 0.671875 0.53125 1.078125q0.53125 0.390625 1.453125 0.390625q0.890625 0 1.578125 -0.421875q0.703125 -0.421875 1.015625 -1.234375l0.546875 1.625q-0.375 1.1875 -1.390625 1.796875q-1.015625 0.609375 -2.625 0.609375zm17.368286 0q-1.609375 0 -2.765625 -0.671875q-1.140625 -0.6875 -1.75 -2.078125q-0.609375 -1.390625 -0.609375 -3.515625q0 -2.140625 0.640625 -3.515625q0.640625 -1.375 1.78125 -2.046875q1.15625 -0.6875 2.703125 -0.6875q1.703125 0 3.0625 0.765625q1.375 0.765625 2.171875 2.171875q0.8125 1.390625 0.8125 3.3125q0 1.90625 -0.8125 3.3125q-0.796875 1.390625 -2.171875 2.171875q-1.359375 0.78125 -3.0625 0.78125zm-7.1875 -0.1875l0 -16.75l3.515625 0l0 7.0625l-0.21875 3.59375l0.0625 3.609375l0 2.484375l-3.359375 0zm6.578125 -2.703125q0.875 0 1.5625 -0.40625q0.6875 -0.40625 1.109375 -1.15625q0.421875 -0.765625 0.421875 -1.8125q0 -1.0625 -0.421875 -1.796875q-0.421875 -0.75 -1.109375 -1.15625q-0.6875 -0.40625 -1.5625 -0.40625q-0.890625 0 -1.59375 0.40625q-0.6875 0.40625 -1.09375 1.15625q-0.40625 0.734375 -0.40625 1.796875q0 1.046875 0.40625 1.8125q0.40625 0.75 1.09375 1.15625q0.703125 0.40625 1.59375 0.40625zm9.0008545 2.703125l0 -16.75l3.515625 0l0 16.75l-3.515625 0zm12.8272705 0.1875q-2.078125 0 -3.65625 -0.8125q-1.5625 -0.8125 -2.421875 -2.21875q-0.859375 -1.421875 -0.859375 -3.234375q0 -1.828125 0.84375 -3.234375q0.859375 -1.40625 2.3125 -2.203125q1.46875 -0.8125 3.328125 -0.8125q1.78125 0 3.21875 0.765625q1.4375 0.75 2.265625 2.15625q0.84375 1.40625 0.84375 3.375q0 0.203125 -0.03125 0.46875q-0.015625 0.25 -0.046875 0.484375l-9.859375 0l0 -2.0625l8.015625 0l-1.359375 0.609375q0 -0.9375 -0.390625 -1.640625q-0.375 -0.703125 -1.0625 -1.09375q-0.671875 -0.390625 -1.578125 -0.390625q-0.890625 0 -1.59375 0.390625q-0.6875 0.390625 -1.078125 1.109375q-0.375 0.703125 -0.375 1.671875l0 0.546875q0 1.0 0.4375 1.75q0.453125 0.75 1.25 1.15625q0.796875 0.390625 1.890625 0.390625q0.96875 0 1.703125 -0.296875q0.734375 -0.296875 1.34375 -0.875l1.875 2.03125q-0.84375 0.953125 -2.109375 1.46875q-1.265625 0.5 -2.90625 0.5z" fill-rule="nonzero"/><path fill="#000000" fill-opacity="0.0" d="m77.83202 55.125984l762.1732 0l0 109.66929l-762.1732 0z" fill-rule="evenodd"/><path fill="#000000" d="m101.86327 110.78411q-3.984375 0 -7.71875 -1.078125q-3.71875 -1.078125 -5.96875 -2.8125l2.640625 -5.859375q2.15625 1.59375 5.125 2.5625q2.984375 0.953125 5.96875 0.953125q3.3125 0 4.890625 -0.984375q1.578125 -0.984375 1.578125 -2.625q0 -1.203125 -0.9375 -1.984375q-0.921875 -0.796875 -2.390625 -1.28125q-1.46875 -0.484375 -3.96875 -1.046875q-3.828125 -0.921875 -6.28125 -1.828125q-2.453125 -0.90625 -4.203125 -2.921875q-1.75 -2.03125 -1.75 -5.390625q0 -2.921875 1.578125 -5.296875q1.59375 -2.375 4.78125 -3.765625q3.1875 -1.390625 7.796875 -1.390625q3.21875 0 6.28125 0.765625q3.078125 0.765625 5.390625 2.203125l-2.40625 5.90625q-4.65625 -2.640625 -9.3125 -2.640625q-3.265625 0 -4.828125 1.0625q-1.546875 1.046875 -1.546875 2.78125q0 1.71875 1.796875 2.5625q1.796875 0.84375 5.5 1.65625q3.828125 0.921875 6.28125 1.828125q2.453125 0.90625 4.203125 2.875q1.75 1.96875 1.75 5.328125q0 2.890625 -1.609375 5.265625q-1.609375 2.375 -4.828125 3.765625q-3.21875 1.390625 -7.8125 1.390625zm31.530312 -0.1875q-4.125 0 -7.4218674 -1.703125q-3.28125 -1.71875 -5.140625 -4.734375q-1.84375 -3.03125 -1.84375 -6.859375q0 -3.84375 1.84375 -6.859375q1.859375 -3.03125 5.140625 -4.734375q3.2968674 -1.703125 7.4218674 -1.703125q4.078125 0 7.125 1.703125q3.046875 1.703125 4.4375 4.875l-5.796875 3.109375q-2.015625 -3.546875 -5.8125 -3.546875q-2.9375 0 -4.859375 1.921875q-1.9062424 1.921875 -1.9062424 5.234375q0 3.3125 1.9062424 5.234375q1.921875 1.90625 4.859375 1.90625q3.84375 0 5.8125 -3.546875l5.796875 3.171875q-1.390625 3.0625 -4.4375 4.796875q-3.046875 1.734375 -7.125 1.734375zm41.75081 -26.21875l0 25.828125l-7.140625 0l0 -2.96875q-2.78125 3.359375 -8.0625 3.359375q-3.65625 0 -6.609375 -1.625q-2.953125 -1.640625 -4.640625 -4.65625q-1.671875 -3.03125 -1.671875 -7.015625q0 -3.984375 1.671875 -7.0q1.6875 -3.03125 4.640625 -4.65625q2.953125 -1.640625 6.609375 -1.640625q4.9375 0 7.71875 3.109375l0 -2.734375l7.484375 0zm-13.90625 20.0625q2.828125 0 4.6875 -1.9375q1.875 -1.9375 1.875 -5.203125q0 -3.265625 -1.875 -5.203125q-1.859375 -1.953125 -4.6875 -1.953125q-2.890625 0 -4.765625 1.953125q-1.859375 1.9375 -1.859375 5.203125q0 3.265625 1.859375 5.203125q1.875 1.9375 4.765625 1.9375zm30.088821 6.15625q-4.359375 0 -6.8125 -2.328125q-2.453125 -2.328125 -2.453125 -6.609375l0 -27.0625l7.484375 0l0 26.640625q0 1.625 0.84375 2.515625q0.84375 0.890625 2.375 0.890625q0.578125 0 1.171875 -0.140625q0.609375 -0.15625 0.9375 -0.34375l0.34375 5.8125q-1.875 0.625 -3.890625 0.625zm20.118042 -6.0q2.015625 0 3.5625 -0.59375q1.5625 -0.609375 2.90625 -1.90625l3.984375 4.3125q-3.640625 4.1875 -10.65625 4.1875q-4.359375 0 -7.71875 -1.703125q-3.359375 -1.71875 -5.1875 -4.734375q-1.828125 -3.03125 -1.828125 -6.859375q0 -3.796875 1.796875 -6.84375q1.8125 -3.046875 4.953125 -4.75q3.140625 -1.703125 7.078125 -1.703125q3.703125 0 6.71875 1.5625q3.03125 1.546875 4.828125 4.5q1.796875 2.953125 1.796875 6.984375l-19.109375 3.703125q0.828125 1.921875 2.578125 2.890625q1.75 0.953125 4.296875 0.953125zm-1.109375 -14.9375q-2.828125 0 -4.609375 1.828125q-1.78125 1.828125 -1.875 5.03125l12.578125 -2.4375q-0.53125 -2.015625 -2.171875 -3.21875q-1.625 -1.203125 -3.921875 -1.203125zm72.8096 -5.28125l0 14.265625q0 5.703125 -3.125 8.828125q-3.109375 3.125 -8.875 3.125q-2.78125 0 -4.921875 -0.859375q-2.125 -0.875 -3.5625 -2.796875q-1.4375 1.921875 -3.5625 2.796875q-2.109375 0.859375 -4.9843903 0.859375q-5.8125 0 -8.890625 -3.125q-3.0625 -3.125 -3.0625 -8.828125l0 -14.265625l7.484375 0l0 13.6875q0 3.21875 1.109375 4.734375q1.109375 1.5 3.453125 1.5q2.4062653 0 3.5468903 -1.53125q1.15625 -1.53125 1.15625 -4.703125l0 -13.6875l7.484375 0l0 13.6875q0 3.171875 1.15625 4.703125q1.15625 1.53125 3.546875 1.53125q2.359375 0 3.453125 -1.5q1.109375 -1.515625 1.109375 -4.734375l0 -13.6875l7.484375 0zm6.7243347 0l7.484375 0l0 25.828125l-7.484375 0l0 -25.828125zm3.734375 -3.59375q-2.0625 0 -3.359375 -1.203125q-1.296875 -1.203125 -1.296875 -2.96875q0 -1.78125 1.296875 -2.984375q1.296875 -1.203125 3.359375 -1.203125q2.0625 0 3.359375 1.15625q1.296875 1.15625 1.296875 2.875q0 1.875 -1.296875 3.109375q-1.296875 1.21875 -3.359375 1.21875zm26.276154 28.171875q-1.109375 0.8125 -2.71875 1.234375q-1.609375 0.40625 -3.34375 0.40625q-4.65625 0 -7.15625 -2.34375q-2.484375 -2.359375 -2.484375 -6.921875l0 -22.65625l7.484375 0l0 6.28125l6.390625 0l0 5.765625l-6.390625 0l0 10.515625q0 1.625 0.8125 2.515625q0.828125 0.890625 2.359375 0.890625q1.734375 0 3.078125 -0.96875l1.96875 5.28125zm19.916687 -24.953125q4.796875 0 7.75 2.875q2.953125 2.875 2.953125 8.546875l0 14.78125l-7.484375 0l0 -13.625q0 -3.078125 -1.34375 -4.59375q-1.34375 -1.515625 -3.890625 -1.515625q-2.84375 0 -4.53125 1.765625q-1.671875 1.75 -1.671875 5.203125l0 12.765625l-7.484375 0l0 -35.609375l7.484375 0l0 12.46875q1.5 -1.484375 3.609375 -2.265625q2.109375 -0.796875 4.609375 -0.796875zm47.658356 26.78125q-5.140625 0 -9.296875 -2.234375q-4.140625 -2.234375 -6.515625 -6.1875q-2.375 -3.96875 -2.375 -8.953125q0 -5.0 2.375 -8.953125q2.375 -3.96875 6.515625 -6.1875q4.15625 -2.234375 9.34375 -2.234375q4.375 0 7.890625 1.53125q3.53125 1.53125 5.9375 4.421875l-5.0 4.609375q-3.40625 -3.9375 -8.4375 -3.9375q-3.125 0 -5.578125 1.375q-2.4375 1.359375 -3.8125 3.8125q-1.359375 2.4375 -1.359375 5.5625q0 3.109375 1.359375 5.5625q1.375 2.453125 3.8125 3.828125q2.453125 1.359375 5.578125 1.359375q5.03125 0 8.4375 -3.984375l5.0 4.609375q-2.40625 2.921875 -5.953125 4.46875q-3.546875 1.53125 -7.921875 1.53125zm29.959564 -0.1875q-4.09375 0 -7.328125 -1.703125q-3.234375 -1.71875 -5.0625 -4.734375q-1.828125 -3.03125 -1.828125 -6.859375q0 -3.84375 1.828125 -6.859375q1.828125 -3.03125 5.0625 -4.734375q3.234375 -1.703125 7.328125 -1.703125q4.078125 0 7.28125 1.703125q3.21875 1.703125 5.046875 4.734375q1.828125 3.015625 1.828125 6.859375q0 3.828125 -1.828125 6.859375q-1.828125 3.015625 -5.046875 4.734375q-3.203125 1.703125 -7.28125 1.703125zm0 -6.15625q2.875 0 4.71875 -1.9375q1.84375 -1.9375 1.84375 -5.203125q0 -3.265625 -1.84375 -5.203125q-1.84375 -1.953125 -4.71875 -1.953125q-2.890625 0 -4.765625 1.953125q-1.859375 1.9375 -1.859375 5.203125q0 3.265625 1.859375 5.203125q1.875 1.9375 4.765625 1.9375zm34.846313 -20.4375q4.796875 0 7.75 2.875q2.953125 2.875 2.953125 8.546875l0 14.78125l-7.484375 0l0 -13.625q0 -3.078125 -1.34375 -4.59375q-1.34375 -1.515625 -3.890625 -1.515625q-2.84375 0 -4.53125 1.765625q-1.671875 1.75 -1.671875 5.203125l0 12.765625l-7.484375 0l0 -25.828125l7.15625 0l0 3.03125q1.484375 -1.640625 3.6875 -2.515625q2.21875 -0.890625 4.859375 -0.890625zm24.76181 0.953125l6.625 0l0 5.765625l-6.4375 0l0 19.484375l-7.484375 0l0 -26.40625q0 -4.40625 2.609375 -7.0q2.625 -2.59375 7.375 -2.59375q1.6875 0 3.1875 0.359375q1.515625 0.359375 2.53125 1.03125l-1.96875 5.421875q-1.296875 -0.90625 -3.03125 -0.90625q-3.40625 0 -3.40625 3.734375l0 1.109375zm14.203125 -0.578125l7.484375 0l0 25.828125l-7.484375 0l0 -25.828125zm3.75 -3.59375q-2.0625 0 -3.359375 -1.203125q-1.296875 -1.203125 -1.296875 -2.96875q0 -1.78125 1.296875 -2.984375q1.296875 -1.203125 3.359375 -1.203125q2.0625 0 3.359375 1.15625q1.296875 1.15625 1.296875 2.875q0 1.875 -1.296875 3.109375q-1.296875 1.21875 -3.359375 1.21875zm37.014587 -6.1875l0 35.609375l-7.15625 0l0 -2.96875q-2.78125 3.359375 -8.0625 3.359375q-3.65625 0 -6.609375 -1.625q-2.953125 -1.640625 -4.640625 -4.65625q-1.671875 -3.03125 -1.671875 -7.015625q0 -3.984375 1.671875 -7.0q1.6875 -3.03125 4.640625 -4.65625q2.953125 -1.640625 6.609375 -1.640625q4.9375 0 7.71875 3.109375l0 -12.515625l7.5 0zm-13.921875 29.84375q2.828125 0 4.703125 -1.9375q1.875 -1.9375 1.875 -5.203125q0 -3.265625 -1.875 -5.203125q-1.875 -1.953125 -4.703125 -1.953125q-2.890625 0 -4.765625 1.953125q-1.859375 1.9375 -1.859375 5.203125q0 3.265625 1.859375 5.203125q1.875 1.9375 4.765625 1.9375zm33.841064 0.15625q2.015625 0 3.5625 -0.59375q1.5625 -0.609375 2.90625 -1.90625l3.984375 4.3125q-3.640625 4.1875 -10.65625 4.1875q-4.359375 0 -7.71875 -1.703125q-3.359375 -1.71875 -5.1875 -4.734375q-1.828125 -3.03125 -1.828125 -6.859375q0 -3.796875 1.796875 -6.84375q1.8125 -3.046875 4.953125 -4.75q3.140625 -1.703125 7.078125 -1.703125q3.703125 0 6.71875 1.5625q3.03125 1.546875 4.828125 4.5q1.796875 2.953125 1.796875 6.984375l-19.109375 3.703125q0.828125 1.921875 2.578125 2.890625q1.75 0.953125 4.296875 0.953125zm-1.109375 -14.9375q-2.828125 0 -4.609375 1.828125q-1.78125 1.828125 -1.875 5.03125l12.578125 -2.4375q-0.53125 -2.015625 -2.171875 -3.21875q-1.625 -1.203125 -3.921875 -1.203125zm34.0849 -5.65625q4.796875 0 7.75 2.875q2.953125 2.875 2.953125 8.546875l0 14.78125l-7.484375 0l0 -13.625q0 -3.078125 -1.34375 -4.59375q-1.34375 -1.515625 -3.890625 -1.515625q-2.84375 0 -4.53125 1.765625q-1.671875 1.75 -1.671875 5.203125l0 12.765625l-7.484375 0l0 -25.828125l7.15625 0l0 3.03125q1.484375 -1.640625 3.6875 -2.515625q2.21875 -0.890625 4.859375 -0.890625zm30.237305 26.59375q-4.125 0 -7.421875 -1.703125q-3.28125 -1.71875 -5.140625 -4.734375q-1.84375 -3.03125 -1.84375 -6.859375q0 -3.84375 1.84375 -6.859375q1.859375 -3.03125 5.140625 -4.734375q3.296875 -1.703125 7.421875 -1.703125q4.078125 0 7.125 1.703125q3.046875 1.703125 4.4375 4.875l-5.796875 3.109375q-2.015625 -3.546875 -5.8125 -3.546875q-2.9375 0 -4.859375 1.921875q-1.90625 1.921875 -1.90625 5.234375q0 3.3125 1.90625 5.234375q1.921875 1.90625 4.859375 1.90625q3.84375 0 5.8125 -3.546875l5.796875 3.171875q-1.390625 3.0625 -4.4375 4.796875q-3.046875 1.734375 -7.125 1.734375zm28.563293 -6.0q2.015625 0 3.5625 -0.59375q1.5625 -0.609375 2.90625 -1.90625l3.984375 4.3125q-3.640625 4.1875 -10.65625 4.1875q-4.359375 0 -7.71875 -1.703125q-3.359375 -1.71875 -5.1875 -4.734375q-1.828125 -3.03125 -1.828125 -6.859375q0 -3.796875 1.796875 -6.84375q1.8125 -3.046875 4.953125 -4.75q3.140625 -1.703125 7.078125 -1.703125q3.703125 0 6.71875 1.5625q3.03125 1.546875 4.828125 4.5q1.796875 2.953125 1.796875 6.984375l-19.109375 3.703125q0.828125 1.921875 2.578125 2.890625q1.75 0.953125 4.296875 0.953125zm-1.109375 -14.9375q-2.828125 0 -4.609375 1.828125q-1.78125 1.828125 -1.875 5.03125l12.578125 -2.4375q-0.53125 -2.015625 -2.171875 -3.21875q-1.625 -1.203125 -3.921875 -1.203125z" fill-rule="nonzero"/></g></svg>