<svg version="1.1" viewBox="0.0 0.0 960.0 720.0" fill="none" stroke="none" stroke-linecap="square" stroke-miterlimit="10" xmlns:xlink="http://www.w3.org/1999/xlink" xmlns="http://www.w3.org/2000/svg"><clipPath id="g38aff997ae8_0_10.0"><path d="m0 0l960.0 0l0 720.0l-960.0 0l0 -720.0z" clip-rule="nonzero"/></clipPath><g clip-path="url(#g38aff997ae8_0_10.0)"><path fill="#ffffff" d="m0 0l960.0 0l0 720.0l-960.0 0z" fill-rule="evenodd"/><path fill="#000000" fill-opacity="0.0" d="m68.650925 41.204723l764.5984 0l0 81.07086l-764.5984 0z" fill-rule="evenodd"/><path fill="#000000" d="m92.682175 96.86285q-3.984375 0 -7.71875 -1.078125q-3.71875 -1.078125 -5.96875 -2.8125l2.640625 -5.859375q2.15625 1.59375 5.125 2.5625q2.984375 0.953125 5.96875 0.953125q3.3125 0 4.890625 -0.984375q1.578125 -0.984375 1.578125 -2.625q0 -1.203125 -0.9375 -1.984375q-0.921875 -0.796875 -2.390625 -1.28125q-1.46875 -0.484375 -3.96875 -1.046875q-3.828125 -0.921875 -6.28125 -1.828125q-2.453125 -0.90625 -4.203125 -2.921875q-1.75 -2.03125 -1.75 -5.390625q0 -2.921875 1.578125 -5.296875q1.59375 -2.375 4.78125 -3.765625q3.1875 -1.390625 7.796875 -1.390625q3.21875 0 6.28125 0.765625q3.078125 0.765625 5.390625 2.203125l-2.40625 5.90625q-4.65625 -2.640625 -9.3125 -2.640625q-3.265625 0 -4.828125 1.0625q-1.546875 1.046875 -1.546875 2.78125q0 1.71875 1.796875 2.5625q1.796875 0.84375 5.5 1.65625q3.828125 0.921875 6.28125 1.828125q2.453125 0.90625 4.203125 2.875q1.75 1.96875 1.75 5.328125q0 2.890625 -1.609375 5.265625q-1.609375 2.375 -4.828125 3.765625q-3.21875 1.390625 -7.8125 1.390625zm31.53032 -0.1875q-4.125 0 -7.421875 -1.703125q-3.28125 -1.71875 -5.140625 -4.734375q-1.84375 -3.03125 -1.84375 -6.859375q0 -3.84375 1.84375 -6.859375q1.859375 -3.03125 5.140625 -4.734375q3.296875 -1.703125 7.421875 -1.703125q4.078125 0 7.125 1.703125q3.046875 1.703125 4.4375 4.875l-5.796875 3.109375q-2.015625 -3.546875 -5.8125 -3.546875q-2.9375 0 -4.859375 1.921875q-1.90625 1.921875 -1.90625 5.234375q0 3.3125 1.90625 5.234375q1.921875 1.90625 4.859375 1.90625q3.84375 0 5.8125 -3.546875l5.796875 3.171875q-1.390625 3.0625 -4.4375 4.796875q-3.046875 1.734375 -7.125 1.734375zm41.75081 -26.21875l0 25.828125l-7.140625 0l0 -2.96875q-2.78125 3.359375 -8.0625 3.359375q-3.65625 0 -6.609375 -1.625q-2.953125 -1.640625 -4.640625 -4.65625q-1.671875 -3.03125 -1.671875 -7.015625q0 -3.984375 1.671875 -7.0q1.6875 -3.03125 4.640625 -4.65625q2.953125 -1.640625 6.609375 -1.640625q4.9375 0 7.71875 3.109375l0 -2.734375l7.484375 0zm-13.90625 20.0625q2.828125 0 4.6875 -1.9375q1.875 -1.9375 1.875 -5.203125q0 -3.265625 -1.875 -5.203125q-1.859375 -1.953125 -4.6875 -1.953125q-2.890625 0 -4.765625 1.953125q-1.859375 1.9375 -1.859375 5.203125q0 3.265625 1.859375 5.203125q1.875 1.9375 4.765625 1.9375zm30.088821 6.15625q-4.359375 0 -6.8125 -2.328125q-2.453125 -2.328125 -2.453125 -6.609375l0 -27.0625l7.484375 0l0 26.640625q0 1.625 0.84375 2.515625q0.84375 0.890625 2.375 0.890625q0.578125 0 1.171875 -0.140625q0.609375 -0.15625 0.9375 -0.34375l0.34375 5.8125q-1.875 0.625 -3.890625 0.625zm20.118042 -6.0q2.015625 0 3.5625 -0.59375q1.5625 -0.609375 2.90625 -1.90625l3.984375 4.3125q-3.640625 4.1875 -10.65625 4.1875q-4.359375 0 -7.71875 -1.703125q-3.359375 -1.71875 -5.1875 -4.734375q-1.828125 -3.03125 -1.828125 -6.859375q0 -3.796875 1.796875 -6.84375q1.8125 -3.046875 4.953125 -4.75q3.140625 -1.703125 7.078125 -1.703125q3.703125 0 6.71875 1.5625q3.03125 1.546875 4.828125 4.5q1.796875 2.953125 1.796875 6.984375l-19.109375 3.703125q0.828125 1.921875 2.578125 2.890625q1.75 0.953125 4.296875 0.953125zm-1.109375 -14.9375q-2.828125 0 -4.609375 1.828125q-1.78125 1.828125 -1.875 5.03125l12.578125 -2.4375q-0.53125 -2.015625 -2.171875 -3.21875q-1.625 -1.203125 -3.921875 -1.203125zm72.80957 -5.28125l0 14.265625q0 5.703125 -3.125 8.828125q-3.109375 3.125 -8.875 3.125q-2.78125 0 -4.921875 -0.859375q-2.1249847 -0.875 -3.5624847 -2.796875q-1.4375 1.921875 -3.5625 2.796875q-2.109375 0.859375 -4.984375 0.859375q-5.8125 0 -8.890625 -3.125q-3.0625 -3.125 -3.0625 -8.828125l0 -14.265625l7.484375 0l0 13.6875q0 3.21875 1.109375 4.734375q1.109375 1.5 3.453125 1.5q2.40625 0 3.546875 -1.53125q1.15625 -1.53125 1.15625 -4.703125l0 -13.6875l7.4843597 0l0 13.6875q0 3.171875 1.15625 4.703125q1.15625 1.53125 3.546875 1.53125q2.359375 0 3.453125 -1.5q1.109375 -1.515625 1.109375 -4.734375l0 -13.6875l7.484375 0zm6.724365 0l7.484375 0l0 25.828125l-7.484375 0l0 -25.828125zm3.734375 -3.59375q-2.0625 0 -3.359375 -1.203125q-1.296875 -1.203125 -1.296875 -2.96875q0 -1.78125 1.296875 -2.984375q1.296875 -1.203125 3.359375 -1.203125q2.0625 0 3.359375 1.15625q1.296875 1.15625 1.296875 2.875q0 1.875 -1.296875 3.109375q-1.296875 1.21875 -3.359375 1.21875zm26.276154 28.171875q-1.109375 0.8125 -2.71875 1.234375q-1.609375 0.40625 -3.34375 0.40625q-4.65625 0 -7.15625 -2.34375q-2.484375 -2.359375 -2.484375 -6.921875l0 -22.65625l7.484375 0l0 6.28125l6.390625 0l0 5.765625l-6.390625 0l0 10.515625q0 1.625 0.8125 2.515625q0.828125 0.890625 2.359375 0.890625q1.734375 0 3.078125 -0.96875l1.96875 5.28125zm19.916656 -24.953125q4.796875 0 7.75 2.875q2.953125 2.875 2.953125 8.546875l0 14.78125l-7.484375 0l0 -13.625q0 -3.078125 -1.34375 -4.59375q-1.34375 -1.515625 -3.890625 -1.515625q-2.84375 0 -4.53125 1.765625q-1.671875 1.75 -1.671875 5.203125l0 12.765625l-7.484375 0l0 -35.609375l7.484375 0l0 12.46875q1.5 -1.484375 3.609375 -2.265625q2.109375 -0.796875 4.609375 -0.796875zm47.658356 26.78125q-5.140625 0 -9.296875 -2.234375q-4.140625 -2.234375 -6.515625 -6.1875q-2.375 -3.96875 -2.375 -8.953125q0 -5.0 2.375 -8.953125q2.375 -3.96875 6.515625 -6.1875q4.15625 -2.234375 9.34375 -2.234375q4.375 0 7.890625 1.53125q3.53125 1.53125 5.9375 4.421875l-5.0 4.609375q-3.40625 -3.9375 -8.4375 -3.9375q-3.125 0 -5.578125 1.375q-2.4375 1.359375 -3.8125 3.8125q-1.359375 2.4375 -1.359375 5.5625q0 3.109375 1.359375 5.5625q1.375 2.453125 3.8125 3.828125q2.453125 1.359375 5.578125 1.359375q5.03125 0 8.4375 -3.984375l5.0 4.609375q-2.40625 2.921875 -5.953125 4.46875q-3.546875 1.53125 -7.921875 1.53125zm29.959564 -0.1875q-4.09375 0 -7.328125 -1.703125q-3.234375 -1.71875 -5.0625 -4.734375q-1.828125 -3.03125 -1.828125 -6.859375q0 -3.84375 1.828125 -6.859375q1.828125 -3.03125 5.0625 -4.734375q3.234375 -1.703125 7.328125 -1.703125q4.078125 0 7.28125 1.703125q3.21875 1.703125 5.046875 4.734375q1.828125 3.015625 1.828125 6.859375q0 3.828125 -1.828125 6.859375q-1.828125 3.015625 -5.046875 4.734375q-3.203125 1.703125 -7.28125 1.703125zm0 -6.15625q2.875 0 4.71875 -1.9375q1.84375 -1.9375 1.84375 -5.203125q0 -3.265625 -1.84375 -5.203125q-1.84375 -1.953125 -4.71875 -1.953125q-2.890625 0 -4.765625 1.953125q-1.859375 1.9375 -1.859375 5.203125q0 3.265625 1.859375 5.203125q1.875 1.9375 4.765625 1.9375zm34.846313 -20.4375q4.796875 0 7.75 2.875q2.953125 2.875 2.953125 8.546875l0 14.78125l-7.484375 0l0 -13.625q0 -3.078125 -1.34375 -4.59375q-1.34375 -1.515625 -3.890625 -1.515625q-2.84375 0 -4.53125 1.765625q-1.671875 1.75 -1.671875 5.203125l0 12.765625l-7.484375 0l0 -25.828125l7.15625 0l0 3.03125q1.484375 -1.640625 3.6875 -2.515625q2.21875 -0.890625 4.859375 -0.890625zm24.76181 0.953125l6.625 0l0 5.765625l-6.4375 0l0 19.484375l-7.484375 0l0 -26.40625q0 -4.40625 2.609375 -7.0q2.625 -2.59375 7.375 -2.59375q1.6875 0 3.1875 0.359375q1.515625 0.359375 2.53125 1.03125l-1.96875 5.421875q-1.296875 -0.90625 -3.03125 -0.90625q-3.40625 0 -3.40625 3.734375l0 1.109375zm14.203125 -0.578125l7.484375 0l0 25.828125l-7.484375 0l0 -25.828125zm3.75 -3.59375q-2.0625 0 -3.359375 -1.203125q-1.296875 -1.203125 -1.296875 -2.96875q0 -1.78125 1.296875 -2.984375q1.296875 -1.203125 3.359375 -1.203125q2.0625 0 3.359375 1.15625q1.296875 1.15625 1.296875 2.875q0 1.875 -1.296875 3.109375q-1.296875 1.21875 -3.359375 1.21875zm37.014618 -6.1875l0 35.609375l-7.15625 0l0 -2.96875q-2.78125 3.359375 -8.0625305 3.359375q-3.65625 0 -6.609375 -1.625q-2.953125 -1.640625 -4.640625 -4.65625q-1.671875 -3.03125 -1.671875 -7.015625q0 -3.984375 1.671875 -7.0q1.6875 -3.03125 4.640625 -4.65625q2.953125 -1.640625 6.609375 -1.640625q4.9375305 0 7.7187805 3.109375l0 -12.515625l7.5 0zm-13.9219055 29.84375q2.828125 0 4.7031555 -1.9375q1.875 -1.9375 1.875 -5.203125q0 -3.265625 -1.875 -5.203125q-1.8750305 -1.953125 -4.7031555 -1.953125q-2.890625 0 -4.765625 1.953125q-1.859375 1.9375 -1.859375 5.203125q0 3.265625 1.859375 5.203125q1.875 1.9375 4.765625 1.9375zm33.841095 0.15625q2.015625 0 3.5625 -0.59375q1.5625 -0.609375 2.90625 -1.90625l3.984375 4.3125q-3.640625 4.1875 -10.65625 4.1875q-4.359375 0 -7.71875 -1.703125q-3.359375 -1.71875 -5.1875 -4.734375q-1.828125 -3.03125 -1.828125 -6.859375q0 -3.796875 1.796875 -6.84375q1.8125 -3.046875 4.953125 -4.75q3.140625 -1.703125 7.078125 -1.703125q3.703125 0 6.71875 1.5625q3.03125 1.546875 4.828125 4.5q1.796875 2.953125 1.796875 6.984375l-19.109375 3.703125q0.828125 1.921875 2.578125 2.890625q1.75 0.953125 4.296875 0.953125zm-1.109375 -14.9375q-2.828125 0 -4.609375 1.828125q-1.78125 1.828125 -1.875 5.03125l12.578125 -2.4375q-0.53125 -2.015625 -2.171875 -3.21875q-1.625 -1.203125 -3.921875 -1.203125zm34.0849 -5.65625q4.796875 0 7.75 2.875q2.953125 2.875 2.953125 8.546875l0 14.78125l-7.484375 0l0 -13.625q0 -3.078125 -1.34375 -4.59375q-1.34375 -1.515625 -3.890625 -1.515625q-2.84375 0 -4.53125 1.765625q-1.671875 1.75 -1.671875 5.203125l0 12.765625l-7.484375 0l0 -25.828125l7.15625 0l0 3.03125q1.484375 -1.640625 3.6875 -2.515625q2.21875 -0.890625 4.859375 -0.890625zm30.237305 26.59375q-4.125 0 -7.421875 -1.703125q-3.28125 -1.71875 -5.140625 -4.734375q-1.84375 -3.03125 -1.84375 -6.859375q0 -3.84375 1.84375 -6.859375q1.859375 -3.03125 5.140625 -4.734375q3.296875 -1.703125 7.421875 -1.703125q4.078125 0 7.125 1.703125q3.046875 1.703125 4.4375 4.875l-5.796875 3.109375q-2.015625 -3.546875 -5.8125 -3.546875q-2.9375 0 -4.859375 1.921875q-1.90625 1.921875 -1.90625 5.234375q0 3.3125 1.90625 5.234375q1.921875 1.90625 4.859375 1.90625q3.84375 0 5.8125 -3.546875l5.796875 3.171875q-1.390625 3.0625 -4.4375 4.796875q-3.046875 1.734375 -7.125 1.734375zm28.563293 -6.0q2.015625 0 3.5625 -0.59375q1.5625 -0.609375 2.90625 -1.90625l3.984375 4.3125q-3.640625 4.1875 -10.65625 4.1875q-4.359375 0 -7.71875 -1.703125q-3.359375 -1.71875 -5.1875 -4.734375q-1.828125 -3.03125 -1.828125 -6.859375q0 -3.796875 1.796875 -6.84375q1.8125 -3.046875 4.953125 -4.75q3.140625 -1.703125 7.078125 -1.703125q3.703125 0 6.71875 1.5625q3.03125 1.546875 4.828125 4.5q1.796875 2.953125 1.796875 6.984375l-19.109375 3.703125q0.828125 1.921875 2.578125 2.890625q1.75 0.953125 4.296875 0.953125zm-1.109375 -14.9375q-2.828125 0 -4.609375 1.828125q-1.78125 1.828125 -1.875 5.03125l12.578125 -2.4375q-0.53125 -2.015625 -2.171875 -3.21875q-1.625 -1.203125 -3.921875 -1.203125z" fill-rule="nonzero"/><path fill="#000000" fill-opacity="0.0" d="m98.81078 642.7848l791.46454 0l0 46.58264l-791.46454 0z" fill-rule="evenodd"/><path fill="#595959" d="m454.85022 677.1034q-2.359375 0 -4.515625 -0.765625q-2.140625 -0.78125 -3.3125 -1.984375l0.859375 -1.71875q1.125 1.09375 3.0 1.828125q1.890625 0.734375 3.96875 0.734375q1.984375 0 3.234375 -0.484375q1.25 -0.5 1.828125 -1.34375q0.59375 -0.84375 0.59375 -1.875q0 -1.234375 -0.71875 -1.984375q-0.703125 -0.75 -1.84375 -1.1875q-1.140625 -0.4375 -2.53125 -0.765625q-1.375 -0.328125 -2.765625 -0.703125q-1.390625 -0.390625 -2.546875 -1.015625q-1.15625 -0.640625 -1.875 -1.671875q-0.703125 -1.046875 -0.703125 -2.71875q0 -1.578125 0.828125 -2.875q0.828125 -1.3125 2.546875 -2.109375q1.71875 -0.796875 4.390625 -0.796875q1.78125 0 3.53125 0.5q1.75 0.484375 3.015625 1.359375l-0.765625 1.78125q-1.34375 -0.90625 -2.875 -1.328125q-1.515625 -0.421875 -2.921875 -0.421875q-1.90625 0 -3.140625 0.515625q-1.234375 0.5 -1.828125 1.359375q-0.578125 0.859375 -0.578125 1.953125q0 1.234375 0.703125 1.984375q0.71875 0.75 1.875 1.171875q1.15625 0.421875 2.53125 0.75q1.390625 0.328125 2.765625 0.71875q1.375 0.390625 2.53125 1.015625q1.15625 0.609375 1.859375 1.640625q0.71875 1.03125 0.71875 2.6875q0 1.53125 -0.84375 2.84375q-0.84375 1.296875 -2.578125 2.109375q-1.734375 0.796875 -4.4375 0.796875zm20.407898 -0.03125q-2.046875 0 -3.703125 -0.953125q-1.65625 -0.953125 -2.640625 -2.734375q-0.96875 -1.796875 -0.96875 -4.390625q0 -2.59375 0.953125 -4.375q0.96875 -1.796875 2.625 -2.71875q1.65625 -0.9375 3.734375 -0.9375q2.265625 0 4.046875 1.015625q1.796875 1.0 2.8125 2.828125q1.03125 1.8125 1.03125 4.1875q0 2.40625 -1.03125 4.21875q-1.015625 1.8125 -2.8125 2.84375q-1.78125 1.015625 -4.046875 1.015625zm-8.15625 5.6875l0 -21.65625l2.046875 0l0 4.765625l-0.21875 3.15625l0.3125 3.1875l0 10.546875l-2.140625 0zm8.0 -7.59375q1.6875 0 3.015625 -0.765625q1.328125 -0.765625 2.109375 -2.15625q0.78125 -1.40625 0.78125 -3.25q0 -1.828125 -0.78125 -3.21875q-0.78125 -1.390625 -2.109375 -2.171875q-1.328125 -0.78125 -3.015625 -0.78125q-1.6875 0 -3.03125 0.78125q-1.328125 0.78125 -2.09375 2.171875q-0.765625 1.390625 -0.765625 3.21875q0 1.84375 0.765625 3.25q0.765625 1.390625 2.09375 2.15625q1.34375 0.765625 3.03125 0.765625zm19.11731 1.90625q-2.46875 0 -4.328125 -1.03125q-1.859375 -1.046875 -2.921875 -2.859375q-1.046875 -1.828125 -1.046875 -4.1875q0 -2.34375 1.0 -4.140625q1.015625 -1.8125 2.765625 -2.84375q1.765625 -1.046875 3.96875 -1.046875q2.21875 0 3.953125 1.015625q1.734375 1.0 2.71875 2.828125q1.0 1.8125 1.0 4.1875q0 0.15625 -0.015625 0.328125q-0.015625 0.15625 -0.015625 0.34375l-13.75 0l0 -1.609375l12.609375 0l-0.84375 0.640625q0 -1.71875 -0.734375 -3.046875q-0.734375 -1.34375 -2.0 -2.09375q-1.265625 -0.765625 -2.921875 -0.765625q-1.625 0 -2.921875 0.765625q-1.296875 0.75 -2.015625 2.109375q-0.71875 1.34375 -0.71875 3.09375l0 0.328125q0 1.8125 0.796875 3.1875q0.796875 1.359375 2.21875 2.125q1.4375 0.765625 3.265625 0.765625q1.453125 0 2.703125 -0.5q1.25 -0.515625 2.15625 -1.578125l1.203125 1.390625q-1.0625 1.265625 -2.640625 1.9375q-1.578125 0.65625 -3.484375 0.65625zm11.482971 -0.15625l0 -15.8125l2.046875 0l0 4.34375l-0.328125 -0.8125q0.75 -1.71875 2.40625 -2.6875q1.65625 -0.984375 3.9375 -0.984375q1.9375 0 3.390625 0.734375q1.453125 0.734375 2.28125 2.25q0.828125 1.5 0.828125 3.78125l0 9.1875l-2.125 0l0 -8.96875q0 -2.5 -1.25 -3.78125q-1.25 -1.28125 -3.515625 -1.28125q-1.6875 0 -2.9375 0.6875q-1.25 0.671875 -1.921875 1.953125q-0.671875 1.28125 -0.671875 3.078125l0 8.3125l-2.140625 0zm26.650818 0.15625q-2.265625 0 -4.0625 -1.015625q-1.78125 -1.03125 -2.8125 -2.859375q-1.015625 -1.828125 -1.015625 -4.203125q0 -2.40625 1.015625 -4.203125q1.03125 -1.8125 2.8125 -2.8125q1.796875 -1.015625 4.0625 -1.015625q2.0625 0 3.703125 0.9375q1.65625 0.921875 2.625 2.71875q0.984375 1.78125 0.984375 4.375q0 2.5625 -0.96875 4.375q-0.96875 1.796875 -2.609375 2.75q-1.640625 0.953125 -3.734375 0.953125zm0.140625 -1.90625q1.6875 0 3.03125 -0.765625q1.34375 -0.765625 2.109375 -2.15625q0.765625 -1.40625 0.765625 -3.25q0 -1.859375 -0.765625 -3.25q-0.765625 -1.390625 -2.109375 -2.15625q-1.34375 -0.765625 -3.03125 -0.765625q-1.65625 0 -2.984375 0.765625q-1.3125 0.765625 -2.109375 2.15625q-0.78125 1.390625 -0.78125 3.25q0 1.84375 0.78125 3.25q0.796875 1.390625 2.109375 2.15625q1.328125 0.765625 2.984375 0.765625zm5.96875 1.75l0 -4.75l0.203125 -3.203125l-0.296875 -3.1875l0 -11.203125l2.140625 0l0 22.34375l-2.046875 0z" fill-rule="nonzero"/><path fill="#000000" fill-opacity="0.0" d="m41.771652 645.30444l0 -476.9449l51.086617 0l0 476.9449z" fill-rule="evenodd"/><path fill="#595959" d="m78.154755 469.63522l-21.078129 0l0 -7.890625q0 -4.0 1.921875 -6.296875q1.90625 -2.3125 5.312504 -2.3125q2.21875 0 3.828125 1.046875q1.609375 1.03125 2.46875 2.96875q0.859375 1.921875 0.859375 4.59375l0 6.65625l-1.015625 -0.984375l7.703125 0l0 2.21875zm0 -14.390625l-7.640625 5.421875l0 -2.40625l7.640625 -5.453125l0 2.4375zm-7.53125 12.171875l-1.046875 0.984375l0 -6.59375q0 -3.15625 -1.375 -4.796875q-1.390625 -1.640625 -3.890625 -1.640625q-2.5312538 0 -3.9218788 1.640625q-1.390625 1.640625 -1.390625 4.796875l0 6.59375l-1.046875 -0.984375l12.671879 0zm7.6875 -25.800354q0 2.46875 -1.03125 4.328125q-1.046875 1.859375 -2.859375 2.921875q-1.828125 1.046875 -4.1875 1.046875q-2.34375 0 -4.140625 -1.0q-1.8125 -1.015625 -2.8437538 -2.765625q-1.046875 -1.765625 -1.046875 -3.96875q0 -2.21875 1.015625 -3.953125q1.0000038 -1.734375 2.8281288 -2.71875q1.8125 -1.0 4.1875 -1.0q0.15625 0 0.328125 0.015625q0.15625 0.015625 0.34375 0.015625l0 13.75l-1.609375 0l0 -12.609375l0.640625 0.84375q-1.71875 0 -3.046875 0.734375q-1.34375 0.734375 -2.09375 2.0q-0.765625 1.265625 -0.765625 2.921875q0 1.625 0.765625 2.921875q0.75 1.296875 2.109375 2.015625q1.34375 0.71875 3.09375 0.71875l0.328125 0q1.8125 0 3.1875 -0.796875q1.359375 -0.796875 2.125 -2.21875q0.765625 -1.4375 0.765625 -3.265625q0 -1.453125 -0.5 -2.703125q-0.515625 -1.25 -1.578125 -2.15625l1.390625 -1.203125q1.265625 1.0625 1.9375 2.640625q0.65625 1.578125 0.65625 3.484375zm-0.15625 -15.244354l-15.812504 7.015625l0 -2.234375l14.671879 -6.4375l0 1.0625l-14.671879 -6.546875l0 -2.109375l15.812504 7.046875l0 2.203125zm0.15625 -18.50827q0 2.46875 -1.03125 4.328125q-1.046875 1.859375 -2.859375 2.921875q-1.828125 1.046875 -4.1875 1.046875q-2.34375 0 -4.140625 -1.0q-1.8125 -1.015625 -2.8437538 -2.765625q-1.046875 -1.765625 -1.046875 -3.96875q0 -2.21875 1.015625 -3.953125q1.0000038 -1.734375 2.8281288 -2.71875q1.8125 -1.0 4.1875 -1.0q0.15625 0 0.328125 0.015625q0.15625 0.015625 0.34375 0.015625l0 13.75l-1.609375 0l0 -12.609375l0.640625 0.84375q-1.71875 0 -3.046875 0.734375q-1.34375 0.734375 -2.09375 2.0q-0.765625 1.265625 -0.765625 2.921875q0 1.625 0.765625 2.921875q0.75 1.296875 2.109375 2.015625q1.34375 0.71875 3.09375 0.71875l0.328125 0q1.8125 0 3.1875 -0.796875q1.359375 -0.796875 2.125 -2.21875q0.765625 -1.4375 0.765625 -3.265625q0 -1.453125 -0.5 -2.703125q-0.515625 -1.25 -1.578125 -2.15625l1.390625 -1.203125q1.265625 1.0625 1.9375 2.640625q0.65625 1.578125 0.65625 3.484375zm-0.15625 -11.482971l-15.812504 0l0 -2.046875l4.343754 0l-0.8125 0.328125q-1.71875 -0.75 -2.6875038 -2.40625q-0.984375 -1.65625 -0.984375 -3.9375q0 -1.9375 0.734375 -3.390625q0.734375 -1.453125 2.2500038 -2.28125q1.5 -0.828125 3.78125 -0.828125l9.1875 0l0 2.125l-8.96875 0q-2.5 0 -3.78125 1.25q-1.28125 1.25 -1.28125 3.515625q0 1.6875 0.6875 2.9375q0.671875 1.25 1.953125 1.921875q1.28125 0.671875 3.078125 0.671875l8.3125 0l0 2.140625zm0.15625 -26.885193q0 2.015625 -0.75 3.53125q-0.765625 1.5 -2.265625 2.328125q-1.5 0.828125 -3.765625 0.828125l-9.187504 0l0 -2.140625l8.953129 0q2.53125 0 3.8125 -1.25q1.265625 -1.25 1.265625 -3.5q0 -1.65625 -0.671875 -2.875q-0.671875 -1.21875 -1.96875 -1.859375q-1.296875 -0.65625 -3.109375 -0.65625l-8.281254 0l0 -2.140625l15.812504 0l0 2.046875l-4.328125 0l0.78125 -0.328125q1.734375 0.75 2.71875 2.328125q0.984375 1.578125 0.984375 3.6875zm0 -20.405396q0 2.46875 -1.03125 4.328125q-1.046875 1.859375 -2.859375 2.921875q-1.828125 1.046875 -4.1875 1.046875q-2.34375 0 -4.140625 -1.0q-1.8125 -1.015625 -2.8437538 -2.765625q-1.046875 -1.765625 -1.046875 -3.96875q0 -2.21875 1.015625 -3.953125q1.0000038 -1.734375 2.8281288 -2.71875q1.8125 -1.0 4.1875 -1.0q0.15625 0 0.328125 0.015625q0.15625 0.015625 0.34375 0.015625l0 13.75l-1.609375 0l0 -12.609375l0.640625 0.84375q-1.71875 0 -3.046875 0.734375q-1.34375 0.734375 -2.09375 2.0q-0.765625 1.265625 -0.765625 2.921875q0 1.625 0.765625 2.921875q0.75 1.296875 2.109375 2.015625q1.34375 0.71875 3.09375 0.71875l0.328125 0q1.8125 0 3.1875 -0.796875q1.359375 -0.796875 2.125 -2.21875q0.765625 -1.4375 0.765625 -3.265625q0 -1.453125 -0.5 -2.703125q-0.515625 -1.25 -1.578125 -2.15625l1.390625 -1.203125q1.265625 1.0625 1.9375 2.640625q0.65625 1.578125 0.65625 3.484375z" fill-rule="nonzero"/><defs><radialGradient id="g38aff997ae8_0_10.1" gradientUnits="userSpaceOnUse" gradientTransform="matrix(27.749252194884964 0.0 0.0 27.749252194884964 0.0 0.0)" spreadMethod="pad" cx="3.5608535656417124" cy="23.14294708035389" fx="3.5608535656417124" fy="23.14294708035389" r="27.749252319335938"><stop offset="0.0" stop-color="#ffab40" stop-opacity="0.5019608"/><stop offset="0.48" stop-color="#21caab" stop-opacity="0.5019608"/><stop offset="0.6" stop-color="#ff0061" stop-opacity="0.5019608"/><stop offset="0.68" stop-color="#ff0061" stop-opacity="0.0"/><stop offset="1.0" stop-color="#ff0061" stop-opacity="0.0"/></radialGradient></defs><path fill="url(#g38aff997ae8_0_10.1)" d="m98.81102 165.82152l366.7874 0l0 0c63.17166 0 123.75595 25.094849 168.42502 69.76395c44.66913 44.669083 69.76398 105.2534 69.76398 168.42503l0 238.18896l-604.9764 0z" fill-rule="evenodd"/><path fill="#000000" fill-opacity="0.0" d="m98.81102 645.30444c89.49255 0 118.567795 -91.747986 178.98512 -183.49603c60.417328 -91.74805 152.17673 -183.49606 304.35345 -183.49606" fill-rule="evenodd"/><path stroke="#111c28" stroke-width="3.6666666666666665" stroke-linejoin="round" stroke-linecap="butt" d="m98.81102 645.30444c89.49255 0 118.567795 -91.747986 178.98512 -183.49603c60.417328 -91.74805 152.17673 -183.49606 304.35345 -183.49606" fill-rule="evenodd"/><path fill="#21caab" d="m337.56732 364.70267l0 0c0 -12.150269 9.849762 -22.0 22.0 -22.0l0 0c5.834778 0 11.4305725 2.3178406 15.556366 6.4436646c4.1257935 4.1257935 6.443634 9.721588 6.443634 15.556335l0 0c0 12.150269 -9.849731 22.0 -22.0 22.0l0 0c-12.150238 0 -22.0 -9.849731 -22.0 -22.0z" fill-rule="evenodd"/><path stroke="#111c28" stroke-width="3.6666666666666665" stroke-linejoin="round" stroke-linecap="butt" d="m337.56732 364.70267l0 0c0 -12.150269 9.849762 -22.0 22.0 -22.0l0 0c5.834778 0 11.4305725 2.3178406 15.556366 6.4436646c4.1257935 4.1257935 6.443634 9.721588 6.443634 15.556335l0 0c0 12.150269 -9.849731 22.0 -22.0 22.0l0 0c-12.150238 0 -22.0 -9.849731 -22.0 -22.0z" fill-rule="evenodd"/><path fill="#ffab40" d="m177.08958 590.83716l0 0c0 -12.150269 9.849731 -22.0 22.0 -22.0l0 0c5.8347626 0 11.430557 2.317871 15.556351 6.4436646c4.1258087 4.1257935 6.4436493 9.721558 6.4436493 15.556335l0 0c0 12.150269 -9.849731 22.0 -22.0 22.0l0 0c-12.150269 0 -22.0 -9.849731 -22.0 -22.0z" fill-rule="evenodd"/><path stroke="#111c28" stroke-width="3.6666666666666665" stroke-linejoin="round" stroke-linecap="butt" d="m177.08958 590.83716l0 0c0 -12.150269 9.849731 -22.0 22.0 -22.0l0 0c5.8347626 0 11.430557 2.317871 15.556351 6.4436646c4.1258087 4.1257935 6.4436493 9.721558 6.4436493 15.556335l0 0c0 12.150269 -9.849731 22.0 -22.0 22.0l0 0c-12.150269 0 -22.0 -9.849731 -22.0 -22.0z" fill-rule="evenodd"/><path fill="#29caab" d="m694.34906 212.19072l0 0c0 -3.98349 3.229248 -7.212738 7.2127686 -7.212738l181.51154 0c1.9129028 0 3.7474976 0.75990295 5.1001587 2.112564c1.3526611 1.3526459 2.1125488 3.1872406 2.1125488 5.100174l0 28.850098c0 3.98349 -3.229248 7.2127533 -7.2127075 7.2127533l-181.51154 0c-3.9835205 0 -7.2127686 -3.2292633 -7.2127686 -7.2127533z" fill-rule="evenodd"/><path fill="#ffffff" d="m754.72125 234.67407q-1.84375 0 -3.40625 -0.59375q-1.5625 -0.609375 -2.703125 -1.6875q-1.140625 -1.09375 -1.78125 -2.546875q-0.625 -1.46875 -0.625 -3.203125q0 -1.71875 0.625 -3.1875q0.640625 -1.46875 1.796875 -2.546875q1.15625 -1.09375 2.703125 -1.6875q1.546875 -0.59375 3.375 -0.59375q1.84375 0 3.375 0.59375q1.546875 0.59375 2.6875 1.6875q1.140625 1.078125 1.78125 2.53125q0.640625 1.453125 0.640625 3.203125q0 1.734375 -0.640625 3.21875q-0.640625 1.46875 -1.78125 2.546875q-1.140625 1.0625 -2.6875 1.671875q-1.53125 0.59375 -3.359375 0.59375zm-0.015625 -3.0625q1.046875 0 1.921875 -0.34375q0.875 -0.359375 1.53125 -1.015625q0.671875 -0.671875 1.03125 -1.578125q0.375 -0.921875 0.375 -2.03125q0 -1.109375 -0.375 -2.015625q-0.359375 -0.90625 -1.015625 -1.5625q-0.65625 -0.671875 -1.546875 -1.03125q-0.875 -0.359375 -1.921875 -0.359375q-1.046875 0 -1.921875 0.359375q-0.875 0.359375 -1.546875 1.03125q-0.65625 0.65625 -1.03125 1.5625q-0.359375 0.90625 -0.359375 2.015625q0 1.09375 0.359375 2.015625q0.375 0.921875 1.03125 1.59375q0.65625 0.65625 1.53125 1.015625q0.890625 0.34375 1.9375 0.34375zm17.994385 2.96875q-1.5 0 -2.640625 -0.65625q-1.125 -0.671875 -1.765625 -2.03125q-0.625 -1.359375 -0.625 -3.453125q0 -2.109375 0.59375 -3.453125q0.609375 -1.359375 1.734375 -2.015625q1.140625 -0.671875 2.703125 -0.671875q1.6875 0 3.03125 0.765625q1.34375 0.765625 2.125 2.140625q0.796875 1.375 0.796875 3.234375q0 1.890625 -0.796875 3.265625q-0.78125 1.375 -2.125 2.125q-1.34375 0.75 -3.03125 0.75zm-7.046875 4.125l0 -16.21875l3.3125 0l0 2.4375l-0.078125 3.546875l0.234375 3.515625l0 6.71875l-3.46875 0zm6.453125 -6.953125q0.859375 0 1.53125 -0.390625q0.6875 -0.40625 1.09375 -1.140625q0.421875 -0.75 0.421875 -1.78125q0 -1.03125 -0.421875 -1.765625q-0.40625 -0.734375 -1.09375 -1.125q-0.671875 -0.40625 -1.53125 -0.40625q-0.859375 0 -1.546875 0.40625q-0.6875 0.390625 -1.09375 1.125q-0.390625 0.734375 -0.390625 1.765625q0 1.03125 0.390625 1.78125q0.40625 0.734375 1.09375 1.140625q0.6875 0.390625 1.546875 0.390625zm13.72052 2.828125q-2.09375 0 -3.28125 -1.0625q-1.171875 -1.078125 -1.171875 -3.21875l0 -10.453125l3.453125 0l0 10.421875q0 0.75 0.40625 1.15625q0.40625 0.40625 1.09375 0.40625q0.8125 0 1.390625 -0.4375l0.9375 2.4375q-0.53125 0.375 -1.28125 0.5625q-0.75 0.1875 -1.546875 0.1875zm-6.296875 -9.4375l0 -2.65625l8.28125 0l0 2.65625l-8.28125 0zm11.066711 9.265625l0 -11.921875l3.46875 0l0 11.921875l-3.46875 0zm1.734375 -13.59375q-0.953125 0 -1.5625 -0.546875q-0.59375 -0.5625 -0.59375 -1.375q0 -0.828125 0.59375 -1.375q0.609375 -0.5625 1.5625 -0.5625q0.953125 0 1.546875 0.53125q0.59375 0.515625 0.59375 1.328125q0 0.875 -0.59375 1.4375q-0.578125 0.5625 -1.546875 0.5625zm4.939392 13.59375l0 -11.921875l3.3125 0l0 3.25l-0.625 -0.953125q0.625 -1.21875 1.765625 -1.84375q1.140625 -0.640625 2.59375 -0.640625q1.640625 0 2.875 0.84375q1.234375 0.828125 1.625 2.53125l-1.21875 -0.328125q0.609375 -1.40625 1.921875 -2.21875q1.328125 -0.828125 3.03125 -0.828125q1.421875 0 2.515625 0.578125q1.09375 0.5625 1.71875 1.734375q0.640625 1.15625 0.640625 2.96875l0 6.828125l-3.453125 0l0 -6.296875q0 -1.4375 -0.609375 -2.125q-0.59375 -0.6875 -1.671875 -0.6875q-0.765625 0 -1.359375 0.34375q-0.59375 0.34375 -0.9375 1.03125q-0.328125 0.6875 -0.328125 1.75l0 5.984375l-3.453125 0l0 -6.296875q0 -1.4375 -0.59375 -2.125q-0.578125 -0.6875 -1.671875 -0.6875q-0.75 0 -1.359375 0.34375q-0.59375 0.34375 -0.921875 1.03125q-0.328125 0.6875 -0.328125 1.75l0 5.984375l-3.46875 0zm30.570923 0l0 -2.328125l-0.21875 -0.515625l0 -4.15625q0 -1.109375 -0.671875 -1.734375q-0.671875 -0.625 -2.078125 -0.625q-0.953125 0 -1.875 0.296875q-0.921875 0.296875 -1.5625 0.8125l-1.234375 -2.421875q0.96875 -0.6875 2.34375 -1.0625q1.375 -0.375 2.796875 -0.375q2.734375 0 4.234375 1.296875q1.515625 1.28125 1.515625 4.0l0 6.8125l-3.25 0zm-3.625 0.171875q-1.40625 0 -2.40625 -0.46875q-0.984375 -0.484375 -1.515625 -1.296875q-0.53125 -0.828125 -0.53125 -1.84375q0 -1.0625 0.515625 -1.859375q0.515625 -0.796875 1.640625 -1.25q1.140625 -0.453125 2.953125 -0.453125l3.171875 0l0 2.015625l-2.796875 0q-1.21875 0 -1.671875 0.40625q-0.453125 0.390625 -0.453125 0.984375q0 0.671875 0.515625 1.0625q0.53125 0.375 1.4375 0.375q0.859375 0 1.546875 -0.40625q0.6875 -0.40625 1.0 -1.203125l0.53125 1.59375q-0.375 1.15625 -1.375 1.75q-1.0 0.59375 -2.5625 0.59375zm9.992615 -0.171875l0 -16.453125l3.46875 0l0 16.453125l-3.46875 0z" fill-rule="nonzero"/><path fill="#ffab40" d="m694.3499 160.6878l0 0c0 -3.98349 3.229248 -7.212738 7.2127686 -7.212738l181.51154 0c1.9129028 0 3.7474976 0.7599182 5.1001587 2.112564c1.3526611 1.3526459 2.1125488 3.1872406 2.1125488 5.100174l0 28.850113c0 3.98349 -3.229248 7.212738 -7.2127075 7.212738l-181.51154 0c-3.9835205 0 -7.2127686 -3.229248 -7.2127686 -7.212738z" fill-rule="evenodd"/><path fill="#ffffff" d="m753.45374 184.4881q-2.0 0 -3.703125 -0.640625q-1.703125 -0.65625 -2.953125 -1.859375q-1.25 -1.203125 -1.953125 -2.828125q-0.703125 -1.625 -0.703125 -3.5625q0 -1.9375 0.703125 -3.546875q0.703125 -1.625 1.96875 -2.828125q1.265625 -1.203125 2.953125 -1.859375q1.6875 -0.65625 3.703125 -0.65625q2.234375 0 4.03125 0.78125q1.8125 0.765625 3.046875 2.265625l-2.5625 2.359375q-0.875 -1.0 -1.953125 -1.5q-1.078125 -0.515625 -2.359375 -0.515625q-1.203125 0 -2.21875 0.40625q-1.0 0.390625 -1.734375 1.125q-0.734375 0.734375 -1.140625 1.75q-0.40625 1.0 -0.40625 2.21875q0 1.234375 0.40625 2.25q0.40625 1.0 1.140625 1.734375q0.734375 0.734375 1.734375 1.125q1.015625 0.390625 2.21875 0.390625q1.28125 0 2.359375 -0.5q1.078125 -0.5 1.953125 -1.53125l2.5625 2.34375q-1.234375 1.5 -3.046875 2.296875q-1.796875 0.78125 -4.046875 0.78125zm14.506165 -0.09375q-1.65625 0 -2.9375 -0.640625q-1.28125 -0.640625 -2.0 -1.953125q-0.71875 -1.3125 -0.71875 -3.359375l0 -7.453125l3.828125 0l0 6.890625q0 1.65625 0.703125 2.421875q0.703125 0.765625 1.984375 0.765625q0.875 0 1.5625 -0.375q0.6875 -0.375 1.078125 -1.171875q0.40625 -0.796875 0.40625 -2.0l0 -6.53125l3.828125 0l0 13.203125l-3.640625 0l0 -3.640625l0.671875 1.0625q-0.671875 1.375 -1.96875 2.078125q-1.28125 0.703125 -2.796875 0.703125zm11.2855835 -0.203125l0 -13.203125l3.65625 0l0 3.734375l-0.515625 -1.09375q0.59375 -1.390625 1.890625 -2.109375q1.296875 -0.734375 3.171875 -0.734375l0 3.53125q-0.25 -0.015625 -0.453125 -0.03125q-0.1875 -0.015625 -0.40625 -0.015625q-1.578125 0 -2.546875 0.90625q-0.96875 0.890625 -0.96875 2.78125l0 6.234375l-3.828125 0zm10.481445 0l0 -13.203125l3.65625 0l0 3.734375l-0.515625 -1.09375q0.59375 -1.390625 1.890625 -2.109375q1.296875 -0.734375 3.171875 -0.734375l0 3.53125q-0.25 -0.015625 -0.453125 -0.03125q-0.1875 -0.015625 -0.40625 -0.015625q-1.578125 0 -2.546875 0.90625q-0.96875 0.890625 -0.96875 2.78125l0 6.234375l-3.828125 0zm16.921143 0.203125q-2.265625 0 -3.96875 -0.890625q-1.703125 -0.890625 -2.640625 -2.421875q-0.9375 -1.53125 -0.9375 -3.5q0 -1.984375 0.921875 -3.515625q0.921875 -1.53125 2.515625 -2.40625q1.59375 -0.875 3.609375 -0.875q1.9375 0 3.5 0.828125q1.5625 0.8125 2.46875 2.359375q0.90625 1.53125 0.90625 3.671875q0 0.21875 -0.03125 0.5q-0.015625 0.28125 -0.046875 0.53125l-10.71875 0l0 -2.234375l8.703125 0l-1.46875 0.65625q0 -1.03125 -0.421875 -1.78125q-0.40625 -0.765625 -1.140625 -1.1875q-0.734375 -0.4375 -1.71875 -0.4375q-0.984375 0 -1.734375 0.4375q-0.75 0.421875 -1.171875 1.203125q-0.40625 0.765625 -0.40625 1.8125l0 0.59375q0 1.078125 0.46875 1.90625q0.484375 0.8125 1.34375 1.25q0.875 0.421875 2.0625 0.421875q1.046875 0 1.84375 -0.3125q0.8125 -0.328125 1.46875 -0.953125l2.03125 2.203125q-0.90625 1.03125 -2.28125 1.59375q-1.375 0.546875 -3.15625 0.546875zm8.926575 -0.203125l0 -13.203125l3.65625 0l0 3.65625l-0.6875 -1.109375q0.71875 -1.328125 2.03125 -2.03125q1.328125 -0.71875 3.03125 -0.71875q1.5625 0 2.796875 0.625q1.25 0.625 1.953125 1.921875q0.71875 1.28125 0.71875 3.296875l0 7.5625l-3.828125 0l0 -6.96875q0 -1.59375 -0.703125 -2.359375q-0.6875 -0.765625 -1.96875 -0.765625q-0.90625 0 -1.640625 0.390625q-0.71875 0.375 -1.125 1.171875q-0.40625 0.78125 -0.40625 2.0l0 6.53125l-3.828125 0zm22.368164 0.203125q-2.34375 0 -3.640625 -1.1875q-1.296875 -1.203125 -1.296875 -3.5625l0 -11.578125l3.828125 0l0 11.53125q0 0.84375 0.4375 1.296875q0.453125 0.453125 1.203125 0.453125q0.90625 0 1.546875 -0.5l1.03125 2.703125q-0.578125 0.421875 -1.40625 0.640625q-0.828125 0.203125 -1.703125 0.203125zm-6.96875 -10.46875l0 -2.9375l9.15625 0l0 2.9375l-9.15625 0z" fill-rule="nonzero"/><path fill="#000000" fill-opacity="0.0" d="m186.57521 552.60815c0 -93.95273 75.49605 -187.90549 150.99211 -187.90549" fill-rule="evenodd"/><path stroke="#ffffff" stroke-width="3.6666666666666665" stroke-linejoin="round" stroke-linecap="butt" d="m186.57521 552.6082c0 -46.97641 18.874023 -93.95279 47.185043 -129.18506c14.155518 -17.61615 30.670288 -32.296265 48.364655 -42.572357c8.8471985 -5.138031 17.989319 -9.175079 27.27887 -11.927582c4.6447754 -1.3762512 9.326416 -2.431427 14.026489 -3.142456c0.2937622 -0.04446411 0.58758545 -0.08755493 0.8814697 -0.12930298l0.7184143 -0.098724365" fill-rule="evenodd"/><path fill="#ffffff" stroke="#ffffff" stroke-width="3.6666666666666665" stroke-linecap="butt" d="m325.03015 365.55273l-3.835083 4.392975l11.024231 -4.880432l-11.582123 -3.3476257z" fill-rule="evenodd"/><path fill="#ff0061" d="m694.3499 263.69363l0 0c0 -3.98349 3.229248 -7.212738 7.2127686 -7.212738l181.51154 0c1.9129028 0 3.7474976 0.7598877 5.1001587 2.1125488c1.3526611 1.3526611 2.1125488 3.1872559 2.1125488 5.100189l0 28.850098c0 3.98349 -3.229248 7.212738 -7.2127075 7.212738l-181.51154 0c-3.9835205 0 -7.2127686 -3.229248 -7.2127686 -7.212738z" fill-rule="evenodd"/><path fill="#ffffff" d="m721.0718 287.49393q-3.65625 0 -5.71875 -2.03125q-2.0625 -2.046875 -2.0625 -5.828125l0 -9.625l3.96875 0l0 9.484375q0 2.453125 1.0 3.53125q1.015625 1.078125 2.84375 1.078125q1.8125 0 2.8125 -1.078125q1.015625 -1.078125 1.015625 -3.53125l0 -9.484375l3.921875 0l0 9.625q0 3.78125 -2.0625 5.828125q-2.0625 2.03125 -5.71875 2.03125zm11.4366455 -0.296875l0 -13.203125l3.65625 0l0 3.65625l-0.6875 -1.109375q0.71875 -1.328125 2.03125 -2.03125q1.328125 -0.71875 3.03125 -0.71875q1.5625 0 2.796875 0.625q1.25 0.625 1.953125 1.921875q0.71875 1.28125 0.71875 3.296875l0 7.5625l-3.828125 0l0 -6.96875q0 -1.59375 -0.703125 -2.359375q-0.6875 -0.765625 -1.96875 -0.765625q-0.90625 0 -1.640625 0.390625q-0.71875 0.375 -1.125 1.171875q-0.40625 0.78125 -0.40625 2.0l0 6.53125l-3.828125 0zm24.774414 0.203125q-1.671875 0 -2.921875 -0.734375q-1.25 -0.75 -1.953125 -2.25q-0.703125 -1.515625 -0.703125 -3.828125q0 -2.328125 0.65625 -3.828125q0.671875 -1.5 1.921875 -2.234375q1.25 -0.734375 3.0 -0.734375q1.859375 0 3.34375 0.859375q1.484375 0.84375 2.359375 2.359375q0.875 1.515625 0.875 3.578125q0 2.09375 -0.875 3.625q-0.875 1.515625 -2.359375 2.359375q-1.484375 0.828125 -3.34375 0.828125zm-7.8125 4.5625l0 -17.96875l3.65625 0l0 2.703125l-0.078125 3.921875l0.25 3.90625l0 7.4375l-3.828125 0zm7.140625 -7.71875q0.96875 0 1.703125 -0.4375q0.75 -0.4375 1.203125 -1.25q0.453125 -0.828125 0.453125 -1.96875q0 -1.140625 -0.453125 -1.953125q-0.453125 -0.8125 -1.203125 -1.25q-0.734375 -0.453125 -1.703125 -0.453125q-0.953125 0 -1.71875 0.453125q-0.75 0.4375 -1.203125 1.25q-0.4375 0.8125 -0.4375 1.953125q0 1.140625 0.4375 1.96875q0.453125 0.8125 1.203125 1.25q0.765625 0.4375 1.71875 0.4375zm9.796692 2.953125l0 -13.203125l3.65625 0l0 3.734375l-0.515625 -1.09375q0.59375 -1.390625 1.890625 -2.109375q1.296875 -0.734375 3.171875 -0.734375l0 3.53125q-0.25 -0.015625 -0.453125 -0.03125q-0.1875 -0.015625 -0.40625 -0.015625q-1.578125 0 -2.546875 0.90625q-0.96875 0.890625 -0.96875 2.78125l0 6.234375l-3.828125 0zm16.639893 0.203125q-2.109375 0 -3.75 -0.890625q-1.625 -0.890625 -2.578125 -2.421875q-0.9375 -1.53125 -0.9375 -3.5q0 -1.984375 0.9375 -3.515625q0.953125 -1.53125 2.578125 -2.40625q1.640625 -0.875 3.75 -0.875q2.09375 0 3.734375 0.875q1.640625 0.875 2.578125 2.40625q0.9375 1.515625 0.9375 3.515625q0 1.96875 -0.9375 3.5q-0.9375 1.53125 -2.578125 2.421875q-1.640625 0.890625 -3.734375 0.890625zm0 -3.15625q0.96875 0 1.71875 -0.4375q0.765625 -0.4375 1.203125 -1.25q0.453125 -0.828125 0.453125 -1.96875q0 -1.140625 -0.453125 -1.953125q-0.4375 -0.8125 -1.203125 -1.25q-0.75 -0.453125 -1.71875 -0.453125q-0.953125 0 -1.71875 0.453125q-0.75 0.4375 -1.21875 1.25q-0.453125 0.8125 -0.453125 1.953125q0 1.140625 0.453125 1.96875q0.46875 0.8125 1.21875 1.25q0.765625 0.4375 1.71875 0.4375zm10.265686 2.953125l0 -13.5q0 -2.234375 1.328125 -3.5625q1.328125 -1.34375 3.78125 -1.34375q0.828125 0 1.59375 0.171875q0.78125 0.171875 1.328125 0.53125l-1.015625 2.78125q-0.3125 -0.21875 -0.703125 -0.34375q-0.390625 -0.125 -0.84375 -0.125q-0.828125 0 -1.28125 0.484375q-0.453125 0.46875 -0.453125 1.4375l0 1.21875l0.09375 1.640625l0 10.609375l-3.828125 0zm-2.03125 -9.96875l0 -2.9375l9.15625 0l0 2.9375l-9.15625 0zm11.15625 9.96875l0 -13.203125l3.828125 0l0 13.203125l-3.828125 0zm1.921875 -15.046875q-1.046875 0 -1.71875 -0.609375q-0.65625 -0.625 -0.65625 -1.53125q0 -0.90625 0.65625 -1.515625q0.671875 -0.609375 1.71875 -0.609375q1.0625 0 1.71875 0.578125q0.671875 0.5625 0.671875 1.484375q0 0.953125 -0.65625 1.578125q-0.65625 0.625 -1.734375 0.625zm10.852539 15.25q-2.34375 0 -3.640625 -1.1875q-1.296875 -1.203125 -1.296875 -3.5625l0 -11.578125l3.828125 0l0 11.53125q0 0.84375 0.4375 1.296875q0.453125 0.453125 1.203125 0.453125q0.90625 0 1.546875 -0.5l1.03125 2.703125q-0.578125 0.421875 -1.40625 0.640625q-0.828125 0.203125 -1.703125 0.203125zm-6.96875 -10.46875l0 -2.9375l9.15625 0l0 2.9375l-9.15625 0zm19.907654 10.265625l0 -2.578125l-0.25 -0.5625l0 -4.609375q0 -1.234375 -0.75 -1.921875q-0.75 -0.6875 -2.296875 -0.6875q-1.0625 0 -2.078125 0.328125q-1.015625 0.328125 -1.71875 0.90625l-1.375 -2.6875q1.078125 -0.75 2.59375 -1.171875q1.515625 -0.421875 3.09375 -0.421875q3.015625 0 4.6875 1.421875q1.671875 1.421875 1.671875 4.453125l0 7.53125l-3.578125 0zm-4.03125 0.203125q-1.546875 0 -2.65625 -0.53125q-1.09375 -0.53125 -1.6875 -1.4375q-0.59375 -0.90625 -0.59375 -2.046875q0 -1.171875 0.578125 -2.046875q0.578125 -0.890625 1.828125 -1.390625q1.25 -0.5 3.265625 -0.5l3.515625 0l0 2.234375l-3.09375 0q-1.359375 0 -1.859375 0.4375q-0.5 0.4375 -0.5 1.09375q0 0.75 0.578125 1.1875q0.578125 0.421875 1.578125 0.421875q0.953125 0 1.71875 -0.453125q0.765625 -0.46875 1.109375 -1.34375l0.59375 1.765625q-0.421875 1.28125 -1.53125 1.953125q-1.109375 0.65625 -2.84375 0.65625zm18.879822 0q-1.75 0 -3.0 -0.734375q-1.25 -0.75 -1.921875 -2.25q-0.65625 -1.515625 -0.65625 -3.828125q0 -2.328125 0.703125 -3.828125q0.703125 -1.5 1.953125 -2.234375q1.25 -0.734375 2.921875 -0.734375q1.859375 0 3.34375 0.84375q1.484375 0.828125 2.359375 2.359375q0.875 1.515625 0.875 3.59375q0 2.0625 -0.875 3.59375q-0.875 1.515625 -2.359375 2.375q-1.484375 0.84375 -3.34375 0.84375zm-7.8125 -0.203125l0 -18.21875l3.828125 0l0 7.6875l-0.25 3.90625l0.078125 3.921875l0 2.703125l-3.65625 0zm7.140625 -2.953125q0.96875 0 1.703125 -0.4375q0.75 -0.4375 1.203125 -1.25q0.453125 -0.828125 0.453125 -1.96875q0 -1.140625 -0.453125 -1.953125q-0.453125 -0.8125 -1.203125 -1.25q-0.734375 -0.453125 -1.703125 -0.453125q-0.953125 0 -1.71875 0.453125q-0.75 0.4375 -1.203125 1.25q-0.4375 0.8125 -0.4375 1.953125q0 1.140625 0.4375 1.96875q0.453125 0.8125 1.203125 1.25q0.765625 0.4375 1.71875 0.4375zm9.796692 2.953125l0 -18.21875l3.828125 0l0 18.21875l-3.828125 0zm13.951111 0.203125q-2.265625 0 -3.96875 -0.890625q-1.703125 -0.890625 -2.640625 -2.421875q-0.9375 -1.53125 -0.9375 -3.5q0 -1.984375 0.921875 -3.515625q0.921875 -1.53125 2.515625 -2.40625q1.59375 -0.875 3.609375 -0.875q1.9375 0 3.5 0.828125q1.5625 0.8125 2.46875 2.359375q0.90625 1.53125 0.90625 3.671875q0 0.21875 -0.03125 0.5q-0.015625 0.28125 -0.046875 0.53125l-10.71875 0l0 -2.234375l8.703125 0l-1.46875 0.65625q0 -1.03125 -0.421875 -1.78125q-0.40625 -0.765625 -1.140625 -1.1875q-0.734375 -0.4375 -1.71875 -0.4375q-0.984375 0 -1.734375 0.4375q-0.75 0.421875 -1.171875 1.203125q-0.40625 0.765625 -0.40625 1.8125l0 0.59375q0 1.078125 0.46875 1.90625q0.484375 0.8125 1.34375 1.25q0.875 0.421875 2.0625 0.421875q1.046875 0 1.84375 -0.3125q0.8125 -0.328125 1.46875 -0.953125l2.03125 2.203125q-0.90625 1.03125 -2.28125 1.59375q-1.375 0.546875 -3.15625 0.546875z" fill-rule="nonzero"/></g></svg>