<svg version="1.1" viewBox="0.0 0.0 960.0 720.0" fill="none" stroke="none" stroke-linecap="square" stroke-miterlimit="10" xmlns:xlink="http://www.w3.org/1999/xlink" xmlns="http://www.w3.org/2000/svg"><clipPath id="g39e32e26ebf_0_0.0"><path d="m0 0l960.0 0l0 720.0l-960.0 0l0 -720.0z" clip-rule="nonzero"/></clipPath><g clip-path="url(#g39e32e26ebf_0_0.0)"><path fill="#000000" fill-opacity="0.0" d="m0 0l960.0 0l0 720.0l-960.0 0z" fill-rule="evenodd"/><path fill="#000000" fill-opacity="0.0" d="m175.32764 42.755905l762.89764 0l0 104.62993l-762.89764 0z" fill-rule="evenodd"/><path fill="#000000" d="m188.68701 106.590866l0 -22.40625l2.625 0l10.046875 16.9375l-1.40625 0l9.921875 -16.9375l2.625 0l0.03125 22.40625l-3.078125 0l-0.03125 -17.5625l0.734375 0l-8.828125 14.84375l-1.46875 0l-8.90625 -14.84375l0.8125 0l0 17.5625l-3.078125 0zm37.37256 0.1875q-2.5625 0 -4.546875 -1.109375q-1.984375 -1.125 -3.140625 -3.09375q-1.140625 -1.96875 -1.140625 -4.46875q0 -2.53125 1.140625 -4.46875q1.15625 -1.953125 3.140625 -3.0625q1.984375 -1.109375 4.546875 -1.109375q2.53125 0 4.53125 1.109375q2.0 1.109375 3.125 3.046875q1.140625 1.921875 1.140625 4.484375q0 2.53125 -1.140625 4.484375q-1.125 1.953125 -3.125 3.078125q-2.0 1.109375 -4.53125 1.109375zm0 -2.6875q1.640625 0 2.9375 -0.734375q1.296875 -0.734375 2.03125 -2.09375q0.734375 -1.359375 0.734375 -3.15625q0 -1.8125 -0.734375 -3.140625q-0.734375 -1.328125 -2.03125 -2.0625q-1.296875 -0.75 -2.9375 -0.75q-1.625 0 -2.90625 0.75q-1.28125 0.734375 -2.046875 2.0625q-0.765625 1.328125 -0.765625 3.140625q0 1.796875 0.765625 3.15625q0.765625 1.359375 2.046875 2.09375q1.28125 0.734375 2.90625 0.734375zm20.070038 2.6875q-2.46875 0 -4.40625 -1.078125q-1.9375 -1.09375 -3.0625 -3.046875q-1.109375 -1.953125 -1.109375 -4.546875q0 -2.59375 1.109375 -4.515625q1.125 -1.9375 3.0625 -3.03125q1.9375 -1.09375 4.40625 -1.09375q2.140625 0 3.859375 0.96875q1.734375 0.953125 2.765625 2.875q1.046875 1.921875 1.046875 4.796875q0 2.890625 -1.015625 4.8125q-1.0 1.90625 -2.734375 2.890625q-1.71875 0.96875 -3.921875 0.96875zm0.25 -2.6875q1.609375 0 2.90625 -0.734375q1.296875 -0.734375 2.046875 -2.09375q0.75 -1.359375 0.75 -3.15625q0 -1.8125 -0.75 -3.140625q-0.75 -1.328125 -2.046875 -2.0625q-1.296875 -0.75 -2.90625 -0.75q-1.625 0 -2.90625 0.75q-1.28125 0.734375 -2.046875 2.0625q-0.765625 1.328125 -0.765625 3.140625q0 1.796875 0.765625 3.15625q0.765625 1.359375 2.046875 2.09375q1.28125 0.734375 2.90625 0.734375zm5.796875 2.5l0 -4.578125l0.1875 -3.9375l-0.3125 -3.9375l0 -11.296875l3.0625 0l0 23.75l-2.9375 0zm16.324066 0.1875q-2.71875 0 -4.796875 -1.109375q-2.0625 -1.125 -3.203125 -3.078125q-1.125 -1.953125 -1.125 -4.484375q0 -2.53125 1.09375 -4.46875q1.109375 -1.953125 3.046875 -3.0625q1.9375 -1.109375 4.375 -1.109375q2.453125 0 4.34375 1.09375q1.890625 1.09375 2.953125 3.0625q1.078125 1.953125 1.078125 4.578125q0 0.203125 -0.015625 0.453125q-0.015625 0.25 -0.046875 0.484375l-14.421875 0l0 -2.203125l12.828125 0l-1.25 0.765625q0.03125 -1.640625 -0.671875 -2.921875q-0.703125 -1.28125 -1.9375 -2.0q-1.234375 -0.71875 -2.859375 -0.71875q-1.609375 0 -2.859375 0.71875q-1.234375 0.71875 -1.9375 2.015625q-0.703125 1.296875 -0.703125 2.96875l0 0.515625q0 1.6875 0.78125 3.015625q0.78125 1.328125 2.1875 2.0625q1.40625 0.734375 3.234375 0.734375q1.5 0 2.734375 -0.5q1.234375 -0.515625 2.15625 -1.546875l1.703125 1.984375q-1.15625 1.34375 -2.875 2.046875q-1.703125 0.703125 -3.8125 0.703125zm12.021545 -0.1875l0 -23.75l3.078125 0l0 23.75l-3.078125 0zm8.928009 0l0 -23.75l3.078125 0l0 23.75l-3.078125 0zm8.92804 0l0 -16.953125l3.078125 0l0 16.953125l-3.078125 0zm1.53125 -20.21875q-0.890625 0 -1.484375 -0.578125q-0.59375 -0.578125 -0.59375 -1.40625q0 -0.875 0.59375 -1.4375q0.59375 -0.578125 1.484375 -0.578125q0.90625 0 1.5 0.5625q0.59375 0.546875 0.59375 1.390625q0 0.859375 -0.578125 1.453125q-0.578125 0.59375 -1.515625 0.59375zm7.396759 20.21875l0 -16.953125l2.953125 0l0 4.5625l-0.484375 -1.203125q0.828125 -1.671875 2.546875 -2.59375q1.734375 -0.9375 4.046875 -0.9375q2.078125 0 3.65625 0.8125q1.59375 0.796875 2.484375 2.4375q0.90625 1.625 0.90625 4.109375l0 9.765625l-3.078125 0l0 -9.40625q0 -2.46875 -1.203125 -3.71875q-1.203125 -1.25 -3.375 -1.25q-1.625 0 -2.84375 0.640625q-1.21875 0.640625 -1.875 1.890625q-0.65625 1.25 -0.65625 3.109375l0 8.734375l-3.078125 0zm29.229553 6.40625q-2.34375 0 -4.546875 -0.65625q-2.1875 -0.65625 -3.5625 -1.875l1.484375 -2.375q1.171875 1.03125 2.90625 1.625q1.734375 0.59375 3.609375 0.59375q3.015625 0 4.421875 -1.421875q1.40625 -1.40625 1.40625 -4.28125l0 -3.578125l0.328125 -3.359375l-0.171875 -3.390625l0 -4.640625l2.921875 0l0 14.65625q0 4.46875 -2.25 6.578125q-2.234375 2.125 -6.546875 2.125zm-0.390625 -7.109375q-2.46875 0 -4.40625 -1.03125q-1.9375 -1.046875 -3.078125 -2.90625q-1.125 -1.859375 -1.125 -4.28125q0 -2.46875 1.125 -4.3125q1.140625 -1.84375 3.078125 -2.859375q1.9375 -1.03125 4.40625 -1.03125q2.171875 0 3.96875 0.890625q1.796875 0.875 2.859375 2.703125q1.078125 1.8125 1.078125 4.609375q0 2.75 -1.078125 4.578125q-1.0625 1.8125 -2.859375 2.734375q-1.796875 0.90625 -3.96875 0.90625zm0.34375 -2.6875q1.703125 0 3.015625 -0.703125q1.3125 -0.703125 2.0625 -1.953125q0.75 -1.25 0.75 -2.875q0 -1.640625 -0.75 -2.890625q-0.75 -1.25 -2.0625 -1.9375q-1.3125 -0.6875 -3.015625 -0.6875q-1.6875 0 -3.015625 0.6875q-1.328125 0.6875 -2.078125 1.9375q-0.75 1.25 -0.75 2.890625q0 1.625 0.75 2.875q0.75 1.25 2.078125 1.953125q1.328125 0.703125 3.015625 0.703125z" fill-rule="nonzero"/><path fill="#000000" d="m366.89563 106.98149q-2.6875 0 -5.15625 -0.71875q-2.453125 -0.734375 -3.96875 -1.875l1.765625 -3.90625q1.4375 1.015625 3.40625 1.671875q1.96875 0.65625 3.984375 0.65625q1.53125 0 2.46875 -0.296875q0.953125 -0.3125 1.40625 -0.84375q0.453125 -0.546875 0.453125 -1.25q0 -0.90625 -0.71875 -1.421875q-0.703125 -0.53125 -1.859375 -0.859375q-1.140625 -0.34375 -2.53125 -0.640625q-1.390625 -0.3125 -2.78125 -0.75q-1.390625 -0.453125 -2.546875 -1.15625q-1.15625 -0.71875 -1.875 -1.859375q-0.71875 -1.15625 -0.71875 -2.953125q0 -1.921875 1.03125 -3.5q1.046875 -1.578125 3.140625 -2.515625q2.09375 -0.953125 5.265625 -0.953125q2.109375 0 4.15625 0.5q2.046875 0.484375 3.625 1.484375l-1.609375 3.9375q-1.5625 -0.90625 -3.140625 -1.328125q-1.5625 -0.4375 -3.0625 -0.4375q-1.5 0 -2.46875 0.359375q-0.953125 0.34375 -1.375 0.90625q-0.40625 0.5625 -0.40625 1.296875q0 0.859375 0.703125 1.390625q0.703125 0.53125 1.84375 0.859375q1.15625 0.3125 2.546875 0.640625q1.390625 0.3125 2.78125 0.734375q1.40625 0.40625 2.546875 1.109375q1.15625 0.703125 1.875 1.859375q0.71875 1.15625 0.71875 2.90625q0 1.890625 -1.0625 3.46875q-1.046875 1.5625 -3.140625 2.53125q-2.09375 0.953125 -5.296875 0.953125zm19.744171 -0.140625q-3.046875 0 -4.75 -1.546875q-1.6875 -1.546875 -1.6875 -4.625l0 -15.109375l5.0 0l0 15.046875q0 1.09375 0.578125 1.6875q0.578125 0.578125 1.5625 0.578125q1.1875 0 2.015625 -0.640625l1.34375 3.53125q-0.765625 0.546875 -1.84375 0.8125q-1.0625 0.265625 -2.21875 0.265625zm-9.09375 -13.625l0 -3.84375l11.9375 0l0 3.84375l-11.9375 0zm15.966919 13.375l0 -17.21875l4.78125 0l0 4.859375l-0.671875 -1.40625q0.765625 -1.8125 2.453125 -2.75q1.703125 -0.953125 4.125 -0.953125l0 4.609375q-0.3125 -0.03125 -0.578125 -0.046875q-0.25 -0.015625 -0.53125 -0.015625q-2.046875 0 -3.3125 1.171875q-1.265625 1.15625 -1.265625 3.625l0 8.125l-5.0 0zm21.057648 0.25q-2.140625 0 -3.828125 -0.828125q-1.671875 -0.828125 -2.609375 -2.53125q-0.921875 -1.71875 -0.921875 -4.375l0 -9.734375l5.0 0l0 9.0q0 2.140625 0.90625 3.15625q0.921875 1.0 2.578125 1.0q1.15625 0 2.046875 -0.5q0.890625 -0.5 1.40625 -1.53125q0.515625 -1.046875 0.515625 -2.609375l0 -8.515625l4.984375 0l0 17.21875l-4.734375 0l0 -4.734375l0.875 1.375q-0.875 1.796875 -2.5625 2.703125q-1.671875 0.90625 -3.65625 0.90625zm23.046509 0q-2.78125 0 -4.96875 -1.125q-2.1718445 -1.140625 -3.4062195 -3.15625q-1.21875 -2.015625 -1.21875 -4.578125q0 -2.59375 1.21875 -4.59375q1.234375 -2.0 3.4062195 -3.125q2.1875 -1.140625 4.96875 -1.140625q2.71875 0 4.734375 1.140625q2.015625 1.125 2.984375 3.234375l-3.875 2.078125q-0.671875 -1.203125 -1.6875 -1.78125q-1.0 -0.578125 -2.1875 -0.578125q-1.28125 0 -2.3125 0.578125q-1.015625 0.578125 -1.609375 1.640625q-0.59375 1.046875 -0.59375 2.546875q0 1.5 0.59375 2.5625q0.59375 1.0625 1.609375 1.640625q1.03125 0.5625 2.3125 0.5625q1.1875 0 2.1875 -0.546875q1.015625 -0.5625 1.6875 -1.8125l3.875 2.109375q-0.96875 2.078125 -2.984375 3.21875q-2.015625 1.125 -4.734375 1.125zm17.88678 0q-3.046875 0 -4.75 -1.546875q-1.6875 -1.546875 -1.6875 -4.625l0 -15.109375l5.0 0l0 15.046875q0 1.09375 0.578125 1.6875q0.578125 0.578125 1.5625 0.578125q1.1875 0 2.015625 -0.640625l1.34375 3.53125q-0.765625 0.546875 -1.84375 0.8125q-1.0625 0.265625 -2.21875 0.265625zm-9.09375 -13.625l0 -3.84375l11.9375 0l0 3.84375l-11.9375 0zm23.232544 13.625q-2.140625 0 -3.828125 -0.828125q-1.671875 -0.828125 -2.609375 -2.53125q-0.921875 -1.71875 -0.921875 -4.375l0 -9.734375l5.0 0l0 9.0q0 2.140625 0.90625 3.15625q0.921875 1.0 2.578125 1.0q1.15625 0 2.046875 -0.5q0.890625 -0.5 1.40625 -1.53125q0.515625 -1.046875 0.515625 -2.609375l0 -8.515625l4.984375 0l0 17.21875l-4.734375 0l0 -4.734375l0.875 1.375q-0.875 1.796875 -2.5625 2.703125q-1.671875 0.90625 -3.65625 0.90625zm14.718414 -0.25l0 -17.21875l4.78125 0l0 4.859375l-0.671875 -1.40625q0.765625 -1.8125 2.453125 -2.75q1.703125 -0.953125 4.125 -0.953125l0 4.609375q-0.3125 -0.03125 -0.578125 -0.046875q-0.25 -0.015625 -0.53125 -0.015625q-2.046875 0 -3.3125 1.171875q-1.265625 1.15625 -1.265625 3.625l0 8.125l-5.0 0zm22.050903 0.25q-2.9375 0 -5.171875 -1.140625q-2.21875 -1.15625 -3.4375 -3.15625q-1.203125 -2.0 -1.203125 -4.5625q0 -2.59375 1.1875 -4.59375q1.203125 -2.0 3.28125 -3.125q2.078125 -1.140625 4.703125 -1.140625q2.53125 0 4.5625 1.078125q2.0312805 1.0625 3.2187805 3.0625q1.1875 2.0 1.1875 4.78125q0 0.296875 -0.03125 0.671875q-0.03125 0.359375 -0.0625 0.671875l-13.9844055 0l0 -2.90625l11.3594055 0l-1.9219055 0.859375q0 -1.34375 -0.546875 -2.328125q-0.546875 -1.0 -1.515625 -1.5625q-0.953125 -0.5625 -2.234375 -0.5625q-1.28125 0 -2.25 0.5625q-0.96875 0.5625 -1.515625 1.578125q-0.546875 1.0 -0.546875 2.375l0 0.765625q0 1.40625 0.625 2.484375q0.625 1.078125 1.75 1.640625q1.140625 0.546875 2.671875 0.546875q1.390625 0 2.421875 -0.40625q1.046875 -0.421875 1.90625 -1.25l2.6562805 2.875q-1.1875 1.34375 -2.9844055 2.0625q-1.78125 0.71875 -4.125 0.71875z" fill-rule="nonzero"/><path fill="#000000" d="m544.56635 106.95024l-12.578125 -12.515625q-1.125 -1.125 -1.765625 -2.0q-0.640625 -0.890625 -0.9375 -1.71875q-0.28125 -0.828125 -0.28125 -1.6875q0 -1.515625 0.75 -2.640625q0.765625 -1.140625 2.125 -1.765625q1.359375 -0.625 3.171875 -0.625q1.703125 0 2.953125 0.5625q1.25 0.5625 1.9375 1.609375q0.6875 1.03125 0.6875 2.5q0 1.28125 -0.625 2.375q-0.625 1.078125 -2.0 2.109375q-1.375 1.015625 -3.71875 2.203125q-1.921875 1.0 -3.015625 1.84375q-1.078125 0.84375 -1.546875 1.6875q-0.453125 0.828125 -0.453125 1.8125q0 1.0625 0.625 1.875q0.625 0.8125 1.75 1.265625q1.140625 0.453125 2.640625 0.453125q2.140625 0 3.875 -0.921875q1.734375 -0.9375 2.890625 -2.796875q1.171875 -1.859375 1.71875 -4.609375l2.46875 0.796875q-0.640625 3.234375 -2.203125 5.484375q-1.546875 2.234375 -3.828125 3.421875q-2.265625 1.171875 -5.109375 1.171875q-2.265625 0 -4.03125 -0.734375q-1.765625 -0.734375 -2.796875 -2.046875q-1.015625 -1.3125 -1.015625 -3.03125q0 -1.515625 0.671875 -2.75q0.671875 -1.25 2.140625 -2.421875q1.484375 -1.171875 3.875 -2.421875q1.953125 -1.015625 3.046875 -1.78125q1.109375 -0.78125 1.578125 -1.46875q0.46875 -0.6875 0.46875 -1.484375q0 -1.078125 -0.765625 -1.765625q-0.765625 -0.703125 -2.21875 -0.703125q-1.5 0 -2.34375 0.765625q-0.84375 0.75 -0.84375 1.96875q0 0.59375 0.203125 1.15625q0.203125 0.5625 0.765625 1.25q0.5625 0.6875 1.609375 1.75l11.84375 11.765625l-1.71875 2.0625zm24.185059 -0.109375q-2.5625 0 -4.71875 -0.84375q-2.15625 -0.84375 -3.75 -2.390625q-1.578125 -1.5625 -2.484375 -3.640625q-0.890625 -2.078125 -0.890625 -4.578125q0 -2.5 0.890625 -4.578125q0.90625 -2.078125 2.5 -3.625q1.609375 -1.546875 3.765625 -2.390625q2.15625 -0.859375 4.71875 -0.859375q2.59375 0 4.78125 0.890625q2.203125 0.875 3.734375 2.59375l-2.078125 2.015625q-1.28125 -1.34375 -2.890625 -2.0q-1.59375 -0.65625 -3.421875 -0.65625q-1.890625 0 -3.5 0.640625q-1.609375 0.640625 -2.796875 1.796875q-1.1875 1.15625 -1.84375 2.734375q-0.65625 1.578125 -0.65625 3.4375q0 1.859375 0.65625 3.453125q0.65625 1.578125 1.84375 2.734375q1.1875 1.140625 2.796875 1.78125q1.609375 0.640625 3.5 0.640625q1.828125 0 3.421875 -0.65625q1.609375 -0.65625 2.890625 -2.03125l2.078125 2.015625q-1.53125 1.734375 -3.734375 2.625q-2.1875 0.890625 -4.8125 0.890625zm12.34729 -0.25l0 -23.75l3.078125 0l0 11.359375l-0.609375 -1.203125q0.828125 -1.671875 2.546875 -2.59375q1.734375 -0.9375 4.046875 -0.9375q2.078125 0 3.65625 0.8125q1.59375 0.796875 2.484375 2.4375q0.90625 1.625 0.90625 4.109375l0 9.765625l-3.078125 0l0 -9.40625q0 -2.46875 -1.203125 -3.71875q-1.203125 -1.25 -3.375 -1.25q-1.625 0 -2.84375 0.640625q-1.21875 0.640625 -1.875 1.890625q-0.65625 1.25 -0.65625 3.109375l0 8.734375l-3.078125 0zm29.057678 0.1875q-2.5625 0 -4.546875 -1.109375q-1.984375 -1.125 -3.140625 -3.09375q-1.140625 -1.96875 -1.140625 -4.46875q0 -2.53125 1.140625 -4.46875q1.15625 -1.953125 3.140625 -3.0625q1.984375 -1.109375 4.546875 -1.109375q2.53125 0 4.53125 1.109375q2.0 1.109375 3.125 3.046875q1.140625 1.921875 1.140625 4.484375q0 2.53125 -1.140625 4.484375q-1.125 1.953125 -3.125 3.078125q-2.0 1.109375 -4.53125 1.109375zm0 -2.6875q1.640625 0 2.9375 -0.734375q1.296875 -0.734375 2.03125 -2.09375q0.734375 -1.359375 0.734375 -3.15625q0 -1.8125 -0.734375 -3.140625q-0.734375 -1.328125 -2.03125 -2.0625q-1.296875 -0.75 -2.9375 -0.75q-1.625 0 -2.90625 0.75q-1.28125 0.734375 -2.046875 2.0625q-0.765625 1.328125 -0.765625 3.140625q0 1.796875 0.765625 3.15625q0.765625 1.359375 2.046875 2.09375q1.28125 0.734375 2.90625 0.734375zm13.054382 2.5l0 -16.953125l3.078125 0l0 16.953125l-3.078125 0zm1.53125 -20.21875q-0.890625 0 -1.484375 -0.578125q-0.59375 -0.578125 -0.59375 -1.40625q0 -0.875 0.59375 -1.4375q0.59375 -0.578125 1.484375 -0.578125q0.90625 0 1.5 0.5625q0.59375 0.546875 0.59375 1.390625q0 0.859375 -0.578125 1.453125q-0.578125 0.59375 -1.515625 0.59375zm14.787415 20.40625q-2.578125 0 -4.625 -1.109375q-2.03125 -1.125 -3.1875 -3.078125q-1.140625 -1.953125 -1.140625 -4.484375q0 -2.53125 1.140625 -4.46875q1.15625 -1.953125 3.1875 -3.0625q2.046875 -1.109375 4.625 -1.109375q2.3125 0 4.109375 0.921875q1.8125 0.90625 2.8125 2.703125l-2.34375 1.5q-0.828125 -1.25 -2.03125 -1.84375q-1.203125 -0.59375 -2.578125 -0.59375q-1.65625 0 -2.96875 0.75q-1.3125 0.734375 -2.078125 2.0625q-0.765625 1.328125 -0.765625 3.140625q0 1.828125 0.765625 3.171875q0.765625 1.34375 2.078125 2.078125q1.3125 0.734375 2.96875 0.734375q1.375 0 2.578125 -0.59375q1.203125 -0.59375 2.03125 -1.828125l2.34375 1.46875q-1.0 1.75 -2.8125 2.703125q-1.796875 0.9375 -4.109375 0.9375zm18.187927 0q-2.71875 0 -4.796875 -1.109375q-2.0625 -1.125 -3.203125 -3.078125q-1.125 -1.953125 -1.125 -4.484375q0 -2.53125 1.09375 -4.46875q1.109375 -1.953125 3.046875 -3.0625q1.9375 -1.109375 4.375 -1.109375q2.453125 0 4.34375 1.09375q1.890625 1.09375 2.953125 3.0625q1.078125 1.953125 1.078125 4.578125q0 0.203125 -0.015625 0.453125q-0.015625 0.25 -0.046875 0.484375l-14.421875 0l0 -2.203125l12.828125 0l-1.25 0.765625q0.03125 -1.640625 -0.671875 -2.921875q-0.703125 -1.28125 -1.9375 -2.0q-1.234375 -0.71875 -2.859375 -0.71875q-1.609375 0 -2.859375 0.71875q-1.234375 0.71875 -1.9375 2.015625q-0.703125 1.296875 -0.703125 2.96875l0 0.515625q0 1.6875 0.78125 3.015625q0.78125 1.328125 2.1875 2.0625q1.40625 0.734375 3.234375 0.734375q1.5 0 2.734375 -0.5q1.234375 -0.515625 2.15625 -1.546875l1.703125 1.984375q-1.15625 1.34375 -2.875 2.046875q-1.703125 0.703125 -3.8125 0.703125zm27.895203 0q-2.5625 0 -4.546875 -1.109375q-1.984375 -1.125 -3.140625 -3.09375q-1.140625 -1.96875 -1.140625 -4.46875q0 -2.53125 1.140625 -4.46875q1.15625 -1.953125 3.140625 -3.0625q1.984375 -1.109375 4.546875 -1.109375q2.53125 0 4.53125 1.109375q2.0 1.109375 3.125 3.046875q1.140625 1.921875 1.140625 4.484375q0 2.53125 -1.140625 4.484375q-1.125 1.953125 -3.125 3.078125q-2.0 1.109375 -4.53125 1.109375zm0 -2.6875q1.640625 0 2.9375 -0.734375q1.296875 -0.734375 2.03125 -2.09375q0.734375 -1.359375 0.734375 -3.15625q0 -1.8125 -0.734375 -3.140625q-0.734375 -1.328125 -2.03125 -2.0625q-1.296875 -0.75 -2.9375 -0.75q-1.625 0 -2.90625 0.75q-1.28125 0.734375 -2.046875 2.0625q-0.765625 1.328125 -0.765625 3.140625q0 1.796875 0.765625 3.15625q0.765625 1.359375 2.046875 2.09375q1.28125 0.734375 2.90625 0.734375zm13.507507 2.5l0 -18.46875q0 -2.484375 1.453125 -3.96875q1.453125 -1.5 4.140625 -1.5q1.0 0 1.90625 0.25q0.921875 0.234375 1.5625 0.75l-0.9375 2.328125q-0.46875 -0.375 -1.078125 -0.578125q-0.609375 -0.21875 -1.28125 -0.21875q-1.34375 0 -2.046875 0.75q-0.703125 0.75 -0.703125 2.21875l0 2.28125l0.0625 1.40625l0 14.75l-3.078125 0zm-2.875 -14.4375l0 -2.515625l10.8125 0l0 2.515625l-10.8125 0z" fill-rule="nonzero"/><path fill="#000000" d="m722.9616 101.465866l-0.28125 -5.984375l10.71875 -11.296875l5.75 0l-9.65625 10.40625l-2.890625 3.078125l-3.640625 3.796875zm-4.640625 5.125l0 -22.40625l5.15625 0l0 22.40625l-5.15625 0zm15.328125 0l-7.96875 -9.765625l3.390625 -3.671875l10.625 13.4375l-6.046875 0zm8.351929 0l0 -22.40625l9.703125 0q3.0 0 5.171875 0.984375q2.1875 0.96875 3.359375 2.796875q1.1875 1.828125 1.1875 4.359375q0 2.484375 -1.1875 4.3125q-1.171875 1.828125 -3.359375 2.8125q-2.171875 0.96875 -5.171875 0.96875l-6.828125 0l2.3125 -2.34375l0 8.515625l-5.1875 0zm5.1875 -7.9375l-2.3125 -2.46875l6.53125 0q2.40625 0 3.578125 -1.015625q1.1875 -1.03125 1.1875 -2.84375q0 -1.859375 -1.1875 -2.875q-1.171875 -1.03125 -3.578125 -1.03125l-6.53125 0l2.3125 -2.46875l0 12.703125zm17.916565 7.9375l0 -22.40625l5.1875 0l0 22.40625l-5.1875 0zm15.933472 0.25q-2.203125 0 -4.234375 -0.515625q-2.03125 -0.53125 -3.21875 -1.328125l1.65625 -3.59375q1.1875 0.734375 2.796875 1.203125q1.625 0.46875 3.1875 0.46875q1.734375 0 2.453125 -0.421875q0.71875 -0.421875 0.71875 -1.15625q0 -0.609375 -0.5625 -0.90625q-0.546875 -0.296875 -1.484375 -0.453125q-0.921875 -0.171875 -2.03125 -0.328125q-1.109375 -0.15625 -2.234375 -0.421875q-1.109375 -0.28125 -2.046875 -0.828125q-0.921875 -0.546875 -1.484375 -1.46875q-0.546875 -0.9375 -0.546875 -2.40625q0 -1.625 0.9375 -2.875q0.9375 -1.25 2.734375 -1.96875q1.796875 -0.71875 4.296875 -0.71875q1.75 0 3.578125 0.390625q1.828125 0.375 3.03125 1.109375l-1.65625 3.546875q-1.25 -0.734375 -2.515625 -1.0q-1.265625 -0.28125 -2.4375 -0.28125q-1.671875 0 -2.4375 0.453125q-0.765625 0.453125 -0.765625 1.15625q0 0.640625 0.546875 0.96875q0.5625 0.3125 1.484375 0.5q0.9375 0.1875 2.046875 0.34375q1.109375 0.140625 2.21875 0.4375q1.125 0.28125 2.03125 0.8125q0.921875 0.515625 1.484375 1.4375q0.578125 0.90625 0.578125 2.375q0 1.609375 -0.96875 2.84375q-0.953125 1.21875 -2.765625 1.921875q-1.796875 0.703125 -4.390625 0.703125z" fill-rule="nonzero"/><path fill="#000000" fill-opacity="0.0" d="m175.32764 175.22047l762.89764 0l0 104.62993l-762.89764 0z" fill-rule="evenodd"/><path fill="#000000" d="m187.98389 239.05544l0 -22.40625l4.28125 0l9.546875 15.8125l-2.28125 0l9.375 -15.8125l4.265625 0l0.0625 22.40625l-4.859375 0l-0.03125 -14.9375l0.890625 0l-7.484375 12.5625l-2.34375 0l-7.640625 -12.5625l1.078125 0l0 14.9375l-4.859375 0zm30.200684 0l0 -17.21875l5.0 0l0 17.21875l-5.0 0zm2.5 -19.609375q-1.375 0 -2.234375 -0.796875q-0.859375 -0.8125 -0.859375 -2.0q0 -1.171875 0.859375 -1.96875q0.859375 -0.8125 2.234375 -0.8125q1.375 0 2.234375 0.75q0.875 0.75 0.875 1.9375q0 1.25 -0.84375 2.078125q-0.84375 0.8125 -2.265625 0.8125zm12.928894 19.859375q-2.203125 0 -4.234375 -0.515625q-2.03125 -0.53125 -3.21875 -1.328125l1.65625 -3.59375q1.1875 0.734375 2.796875 1.203125q1.625 0.46875 3.1875 0.46875q1.734375 0 2.453125 -0.421875q0.71875 -0.421875 0.71875 -1.15625q0 -0.609375 -0.5625 -0.90625q-0.546875 -0.296875 -1.484375 -0.453125q-0.921875 -0.171875 -2.03125 -0.328125q-1.109375 -0.15625 -2.234375 -0.421875q-1.109375 -0.28125 -2.046875 -0.828125q-0.921875 -0.546875 -1.484375 -1.46875q-0.546875 -0.9375 -0.546875 -2.40625q0 -1.625 0.9375 -2.875q0.9375 -1.25 2.734375 -1.96875q1.796875 -0.71875 4.296875 -0.71875q1.75 0 3.578125 0.390625q1.828125 0.375 3.03125 1.109375l-1.65625 3.546875q-1.25 -0.734375 -2.515625 -1.0q-1.265625 -0.28125 -2.4375 -0.28125q-1.671875 0 -2.4375 0.453125q-0.765625 0.453125 -0.765625 1.15625q0 0.640625 0.546875 0.96875q0.5625 0.3125 1.484375 0.5q0.9375 0.1875 2.046875 0.34375q1.109375 0.140625 2.21875 0.4375q1.125 0.28125 2.03125 0.8125q0.921875 0.515625 1.484375 1.4375q0.578125 0.90625 0.578125 2.375q0 1.609375 -0.96875 2.84375q-0.953125 1.21875 -2.765625 1.921875q-1.796875 0.703125 -4.390625 0.703125zm16.992035 0q-2.203125 0 -4.234375 -0.515625q-2.03125 -0.53125 -3.21875 -1.328125l1.65625 -3.59375q1.1875 0.734375 2.796875 1.203125q1.625 0.46875 3.1875 0.46875q1.734375 0 2.453125 -0.421875q0.71875 -0.421875 0.71875 -1.15625q0 -0.609375 -0.5625 -0.90625q-0.546875 -0.296875 -1.484375 -0.453125q-0.921875 -0.171875 -2.03125 -0.328125q-1.109375 -0.15625 -2.234375 -0.421875q-1.109375 -0.28125 -2.046875 -0.828125q-0.921875 -0.546875 -1.484375 -1.46875q-0.546875 -0.9375 -0.546875 -2.40625q0 -1.625 0.9375 -2.875q0.9375 -1.25 2.734375 -1.96875q1.796875 -0.71875 4.296875 -0.71875q1.75 0 3.578125 0.390625q1.828125 0.375 3.03125 1.109375l-1.65625 3.546875q-1.25 -0.734375 -2.515625 -1.0q-1.265625 -0.28125 -2.4375 -0.28125q-1.671875 0 -2.4375 0.453125q-0.765625 0.453125 -0.765625 1.15625q0 0.640625 0.546875 0.96875q0.5625 0.3125 1.484375 0.5q0.9375 0.1875 2.046875 0.34375q1.109375 0.140625 2.21875 0.4375q1.125 0.28125 2.03125 0.8125q0.921875 0.515625 1.484375 1.4375q0.578125 0.90625 0.578125 2.375q0 1.609375 -0.96875 2.84375q-0.953125 1.21875 -2.765625 1.921875q-1.796875 0.703125 -4.390625 0.703125zm11.19516 -0.25l0 -17.21875l5.0 0l0 17.21875l-5.0 0zm2.5 -19.609375q-1.375 0 -2.234375 -0.796875q-0.859375 -0.8125 -0.859375 -2.0q0 -1.171875 0.859375 -1.96875q0.859375 -0.8125 2.234375 -0.8125q1.375 0 2.234375 0.75q0.875 0.75 0.875 1.9375q0 1.25 -0.84375 2.078125q-0.84375 0.8125 -2.265625 0.8125zm7.132019 19.609375l0 -17.21875l4.78125 0l0 4.765625l-0.90625 -1.4375q0.9375 -1.71875 2.65625 -2.640625q1.734375 -0.9375 3.9375 -0.9375q2.046875 0 3.65625 0.8125q1.625 0.8125 2.546875 2.5q0.9375 1.671875 0.9375 4.296875l0 9.859375l-5.0 0l0 -9.09375q0 -2.078125 -0.90625 -3.0625q-0.90625 -1.0 -2.578125 -1.0q-1.1875 0 -2.125 0.5q-0.9375 0.5 -1.46875 1.53125q-0.53125 1.015625 -0.53125 2.609375l0 8.515625l-5.0 0zm30.349426 6.46875q-2.4375 0 -4.703125 -0.59375q-2.25 -0.59375 -3.75 -1.78125l1.984375 -3.578125q1.09375 0.890625 2.765625 1.421875q1.6875 0.53125 3.3125 0.53125q2.65625 0 3.859375 -1.1875q1.203125 -1.1875 1.203125 -3.515625l0 -2.59375l0.3125 -4.328125l-0.0625 -4.34375l0 -3.71875l4.734375 0l0 14.34375q0 4.796875 -2.5 7.0625q-2.484375 2.28125 -7.15625 2.28125zm-0.78125 -7.296875q-2.390625 0 -4.328125 -1.03125q-1.9375 -1.046875 -3.109375 -2.921875q-1.15625 -1.875 -1.15625 -4.375q0 -2.53125 1.15625 -4.390625q1.171875 -1.875 3.109375 -2.890625q1.9375 -1.03125 4.328125 -1.03125q2.1875 0 3.84375 0.875q1.671875 0.875 2.59375 2.71875q0.921875 1.84375 0.921875 4.71875q0 2.859375 -0.921875 4.703125q-0.921875 1.828125 -2.59375 2.734375q-1.65625 0.890625 -3.84375 0.890625zm1.0 -4.09375q1.3125 0 2.328125 -0.53125q1.03125 -0.53125 1.609375 -1.484375q0.578125 -0.96875 0.578125 -2.21875q0 -1.28125 -0.578125 -2.21875q-0.578125 -0.9375 -1.609375 -1.46875q-1.015625 -0.53125 -2.328125 -0.53125q-1.3125 0 -2.34375 0.53125q-1.015625 0.53125 -1.609375 1.46875q-0.59375 0.9375 -0.59375 2.21875q0 1.25 0.59375 2.21875q0.59375 0.953125 1.609375 1.484375q1.03125 0.53125 2.34375 0.53125zm30.206055 4.921875l-9.65625 -22.40625l5.59375 0l8.453125 19.84375l-3.296875 0l8.578125 -19.84375l5.140625 0l-9.6875 22.40625l-5.125 0zm25.596436 0l0 -3.359375l-0.3125 -0.734375l0 -6.015625q0 -1.609375 -0.984375 -2.5q-0.96875 -0.890625 -2.984375 -0.890625q-1.375 0 -2.703125 0.4375q-1.328125 0.421875 -2.265625 1.15625l-1.78125 -3.484375q1.40625 -1.0 3.390625 -1.53125q1.984375 -0.546875 4.03125 -0.546875q3.9375 0 6.109375 1.859375q2.171875 1.84375 2.171875 5.78125l0 9.828125l-4.671875 0zm-5.25 0.25q-2.015625 0 -3.453125 -0.6875q-1.4375 -0.6875 -2.203125 -1.859375q-0.765625 -1.1875 -0.765625 -2.65625q0 -1.546875 0.75 -2.6875q0.75 -1.15625 2.375 -1.8125q1.640625 -0.65625 4.265625 -0.65625l4.578125 0l0 2.90625l-4.03125 0q-1.765625 0 -2.421875 0.578125q-0.65625 0.578125 -0.65625 1.4375q0 0.96875 0.75 1.53125q0.75 0.546875 2.0625 0.546875q1.25 0 2.234375 -0.578125q1.0 -0.59375 1.453125 -1.75l0.765625 2.296875q-0.546875 1.671875 -1.984375 2.53125q-1.4375 0.859375 -3.71875 0.859375zm14.431549 -0.25l0 -17.21875l4.78125 0l0 4.859375l-0.671875 -1.40625q0.765625 -1.8125 2.453125 -2.75q1.703125 -0.953125 4.125 -0.953125l0 4.609375q-0.3125 -0.03125 -0.578125 -0.046875q-0.25 -0.015625 -0.53125 -0.015625q-2.046875 0 -3.3125 1.171875q-1.265625 1.15625 -1.265625 3.625l0 8.125l-5.0 0zm13.664001 0l0 -17.21875l5.0 0l0 17.21875l-5.0 0zm2.5 -19.609375q-1.375 0 -2.234375 -0.796875q-0.859375 -0.8125 -0.859375 -2.0q0 -1.171875 0.859375 -1.96875q0.859375 -0.8125 2.234375 -0.8125q1.375 0 2.234375 0.75q0.875 0.75 0.875 1.9375q0 1.25 -0.84375 2.078125q-0.84375 0.8125 -2.265625 0.8125zm17.694519 19.609375l0 -3.359375l-0.3125 -0.734375l0 -6.015625q0 -1.609375 -0.984375 -2.5q-0.96875 -0.890625 -2.984375 -0.890625q-1.375 0 -2.703125 0.4375q-1.328125 0.421875 -2.265625 1.15625l-1.78125 -3.484375q1.40625 -1.0 3.390625 -1.53125q1.984375 -0.546875 4.03125 -0.546875q3.9375 0 6.109375 1.859375q2.171875 1.84375 2.171875 5.78125l0 9.828125l-4.671875 0zm-5.25 0.25q-2.015625 0 -3.453125 -0.6875q-1.4375 -0.6875 -2.203125 -1.859375q-0.765625 -1.1875 -0.765625 -2.65625q0 -1.546875 0.75 -2.6875q0.75 -1.15625 2.375 -1.8125q1.640625 -0.65625 4.265625 -0.65625l4.578125 0l0 2.90625l-4.03125 0q-1.765625 0 -2.421875 0.578125q-0.65625 0.578125 -0.65625 1.4375q0 0.96875 0.75 1.53125q0.75 0.546875 2.0625 0.546875q1.25 0 2.234375 -0.578125q1.0 -0.59375 1.453125 -1.75l0.765625 2.296875q-0.546875 1.671875 -1.984375 2.53125q-1.4375 0.859375 -3.71875 0.859375zm24.61905 0q-2.28125 0 -3.921875 -0.953125q-1.625 -0.953125 -2.484375 -2.921875q-0.859375 -1.96875 -0.859375 -4.984375q0 -3.03125 0.90625 -4.984375q0.921875 -1.953125 2.546875 -2.90625q1.625 -0.96875 3.8125 -0.96875q2.421875 0 4.359375 1.09375q1.9375 1.078125 3.078125 3.0625q1.140625 1.984375 1.140625 4.703125q0 2.6875 -1.140625 4.671875q-1.140625 1.984375 -3.078125 3.09375q-1.9375 1.09375 -4.359375 1.09375zm-10.1875 -0.25l0 -23.75l5.0 0l0 10.015625l-0.328125 5.09375l0.109375 5.125l0 3.515625l-4.78125 0zm9.3125 -3.84375q1.25 0 2.21875 -0.5625q0.984375 -0.578125 1.578125 -1.65625q0.59375 -1.078125 0.59375 -2.546875q0 -1.5 -0.59375 -2.546875q-0.59375 -1.0625 -1.578125 -1.640625q-0.96875 -0.578125 -2.21875 -0.578125q-1.234375 0 -2.234375 0.578125q-0.984375 0.578125 -1.5625 1.640625q-0.578125 1.046875 -0.578125 2.546875q0 1.46875 0.578125 2.546875q0.578125 1.078125 1.5625 1.65625q1.0 0.5625 2.234375 0.5625zm12.767517 3.84375l0 -23.75l5.0 0l0 23.75l-5.0 0zm18.178894 0.25q-2.9375 0 -5.171875 -1.140625q-2.21875 -1.15625 -3.4375 -3.15625q-1.203125 -2.0 -1.203125 -4.5625q0 -2.59375 1.1875 -4.59375q1.203125 -2.0 3.28125 -3.125q2.078125 -1.140625 4.703125 -1.140625q2.53125 0 4.5625 1.078125q2.03125 1.0625 3.21875 3.0625q1.1875 2.0 1.1875 4.78125q0 0.296875 -0.03125 0.671875q-0.03125 0.359375 -0.0625 0.671875l-13.984375 0l0 -2.90625l11.359375 0l-1.921875 0.859375q0 -1.34375 -0.546875 -2.328125q-0.546875 -1.0 -1.515625 -1.5625q-0.953125 -0.5625 -2.234375 -0.5625q-1.28125 0 -2.25 0.5625q-0.96875 0.5625 -1.515625 1.578125q-0.546875 1.0 -0.546875 2.375l0 0.765625q0 1.40625 0.625 2.484375q0.625 1.078125 1.75 1.640625q1.140625 0.546875 2.671875 0.546875q1.390625 0 2.421875 -0.40625q1.046875 -0.421875 1.90625 -1.25l2.65625 2.875q-1.1875 1.34375 -2.984375 2.0625q-1.78125 0.71875 -4.125 0.71875zm17.442078 0q-2.203125 0 -4.234375 -0.515625q-2.03125 -0.53125 -3.21875 -1.328125l1.65625 -3.59375q1.1875 0.734375 2.796875 1.203125q1.625 0.46875 3.1875 0.46875q1.734375 0 2.453125 -0.421875q0.71875 -0.421875 0.71875 -1.15625q0 -0.609375 -0.5625 -0.90625q-0.546875 -0.296875 -1.484375 -0.453125q-0.921875 -0.171875 -2.03125 -0.328125q-1.109375 -0.15625 -2.234375 -0.421875q-1.109375 -0.28125 -2.046875 -0.828125q-0.921875 -0.546875 -1.484375 -1.46875q-0.546875 -0.9375 -0.546875 -2.40625q0 -1.625 0.9375 -2.875q0.9375 -1.25 2.734375 -1.96875q1.796875 -0.71875 4.296875 -0.71875q1.75 0 3.578125 0.390625q1.828125 0.375 3.03125 1.109375l-1.65625 3.546875q-1.25 -0.734375 -2.515625 -1.0q-1.265625 -0.28125 -2.4375 -0.28125q-1.671875 0 -2.4375 0.453125q-0.765625 0.453125 -0.765625 1.15625q0 0.640625 0.546875 0.96875q0.5625 0.3125 1.484375 0.5q0.9375 0.1875 2.046875 0.34375q1.109375 0.140625 2.21875 0.4375q1.125 0.28125 2.03125 0.8125q0.921875 0.515625 1.484375 1.4375q0.578125 0.90625 0.578125 2.375q0 1.609375 -0.96875 2.84375q-0.953125 1.21875 -2.765625 1.921875q-1.796875 0.703125 -4.390625 0.703125z" fill-rule="nonzero"/><path fill="#000000" d="m489.32086 245.46169q-1.203125 0 -2.359375 -0.40625q-1.15625 -0.40625 -1.984375 -1.171875l1.3125 -2.296875q0.640625 0.609375 1.40625 0.921875q0.765625 0.328125 1.625 0.328125q1.125 0 1.859375 -0.578125q0.734375 -0.578125 1.375 -2.046875l1.0625 -2.34375l0.3125 -0.375l6.65625 -15.390625l3.015625 0l-8.21875 18.65625q-0.75 1.78125 -1.65625 2.796875q-0.90625 1.03125 -2.0 1.46875q-1.09375 0.4375 -2.40625 0.4375zm4.046875 -5.859375l-7.75 -17.5l3.203125 0l6.59375 15.09375l-2.046875 2.40625zm19.892395 -0.359375q-2.5625 0 -4.546875 -1.109375q-1.984375 -1.125 -3.140625 -3.09375q-1.140625 -1.96875 -1.140625 -4.46875q0 -2.53125 1.140625 -4.46875q1.15625 -1.953125 3.140625 -3.0625q1.984375 -1.109375 4.546875 -1.109375q2.53125 0 4.53125 1.109375q2.0 1.109375 3.125 3.046875q1.140625 1.921875 1.140625 4.484375q0 2.53125 -1.140625 4.484375q-1.125 1.953125 -3.125 3.078125q-2.0 1.109375 -4.53125 1.109375zm0 -2.6875q1.640625 0 2.9375 -0.734375q1.296875 -0.734375 2.03125 -2.09375q0.734375 -1.359375 0.734375 -3.15625q0 -1.8125 -0.734375 -3.140625q-0.734375 -1.328125 -2.03125 -2.0625q-1.296875 -0.75 -2.9375 -0.75q-1.625 0 -2.90625 0.75q-1.28125 0.734375 -2.046875 2.0625q-0.765625 1.328125 -0.765625 3.140625q0 1.796875 0.765625 3.15625q0.765625 1.359375 2.046875 2.09375q1.28125 0.734375 2.90625 0.734375zm20.195068 2.6875q-2.171875 0 -3.828125 -0.796875q-1.640625 -0.796875 -2.5625 -2.4375q-0.90625 -1.65625 -0.90625 -4.15625l0 -9.75l3.078125 0l0 9.40625q0 2.484375 1.1875 3.734375q1.203125 1.25 3.390625 1.25q1.59375 0 2.78125 -0.65625q1.1875 -0.65625 1.8125 -1.921875q0.640625 -1.265625 0.640625 -3.046875l0 -8.765625l3.078125 0l0 16.953125l-2.90625 0l0 -4.578125l0.46875 1.21875q-0.828125 1.703125 -2.5 2.625q-1.65625 0.921875 -3.734375 0.921875zm14.5234375 -0.1875l0 -16.953125l2.953125 0l0 4.59375l-0.296875 -1.140625q0.703125 -1.765625 2.359375 -2.6875q1.671875 -0.9375 4.109375 -0.9375l0 2.984375q-0.1875 -0.03125 -0.375 -0.03125q-0.171875 0 -0.328125 0q-2.46875 0 -3.90625 1.46875q-1.4375 1.46875 -1.4375 4.25l0 8.453125l-3.078125 0zm21.728027 0l0 -16.953125l2.953125 0l0 4.5l-0.484375 -1.140625q0.796875 -1.671875 2.453125 -2.59375q1.671875 -0.9375 3.890625 -0.9375q2.421875 0 4.171875 1.203125q1.765625 1.203125 2.3125 3.640625l-1.25 -0.515625q0.78125 -1.953125 2.6875 -3.140625q1.921875 -1.1875 4.484375 -1.1875q2.046875 0 3.609375 0.8125q1.578125 0.796875 2.453125 2.4375q0.890625 1.625 0.890625 4.109375l0 9.765625l-3.078125 0l0 -9.40625q0 -2.46875 -1.15625 -3.71875q-1.140625 -1.25 -3.234375 -1.25q-1.53125 0 -2.6875 0.640625q-1.140625 0.640625 -1.765625 1.890625q-0.625 1.25 -0.625 3.109375l0 8.734375l-3.078125 0l0 -9.40625q0 -2.46875 -1.140625 -3.71875q-1.125 -1.25 -3.234375 -1.25q-1.515625 0 -2.671875 0.640625q-1.140625 0.640625 -1.78125 1.890625q-0.640625 1.25 -0.640625 3.109375l0 8.734375l-3.078125 0zm41.08966 0.1875q-2.5625 0 -4.546875 -1.109375q-1.984375 -1.125 -3.140625 -3.09375q-1.140625 -1.96875 -1.140625 -4.46875q0 -2.53125 1.140625 -4.46875q1.15625 -1.953125 3.140625 -3.0625q1.984375 -1.109375 4.546875 -1.109375q2.53125 0 4.53125 1.109375q2.0 1.109375 3.125 3.046875q1.140625 1.921875 1.140625 4.484375q0 2.53125 -1.140625 4.484375q-1.125 1.953125 -3.125 3.078125q-2.0 1.109375 -4.53125 1.109375zm0 -2.6875q1.640625 0 2.9375 -0.734375q1.296875 -0.734375 2.03125 -2.09375q0.734375 -1.359375 0.734375 -3.15625q0 -1.8125 -0.734375 -3.140625q-0.734375 -1.328125 -2.03125 -2.0625q-1.296875 -0.75 -2.9375 -0.75q-1.625 0 -2.90625 0.75q-1.28125 0.734375 -2.046875 2.0625q-0.765625 1.328125 -0.765625 3.140625q0 1.796875 0.765625 3.15625q0.765625 1.359375 2.046875 2.09375q1.28125 0.734375 2.90625 0.734375zm20.070068 2.6875q-2.46875 0 -4.40625 -1.078125q-1.9375 -1.09375 -3.0625 -3.046875q-1.109375 -1.953125 -1.109375 -4.546875q0 -2.59375 1.109375 -4.515625q1.125 -1.9375 3.0625 -3.03125q1.9375 -1.09375 4.40625 -1.09375q2.140625 0 3.859375 0.96875q1.734375 0.953125 2.765625 2.875q1.046875 1.921875 1.046875 4.796875q0 2.890625 -1.015625 4.8125q-1.0 1.90625 -2.734375 2.890625q-1.71875 0.96875 -3.921875 0.96875zm0.25 -2.6875q1.609375 0 2.90625 -0.734375q1.296875 -0.734375 2.046875 -2.09375q0.75 -1.359375 0.75 -3.15625q0 -1.8125 -0.75 -3.140625q-0.75 -1.328125 -2.046875 -2.0625q-1.296875 -0.75 -2.90625 -0.75q-1.625 0 -2.90625 0.75q-1.28125 0.734375 -2.046875 2.0625q-0.765625 1.328125 -0.765625 3.140625q0 1.796875 0.765625 3.15625q0.765625 1.359375 2.046875 2.09375q1.28125 0.734375 2.90625 0.734375zm5.796875 2.5l0 -4.578125l0.1875 -3.9375l-0.3125 -3.9375l0 -11.296875l3.0625 0l0 23.75l-2.9375 0zm16.324036 0.1875q-2.71875 0 -4.796875 -1.109375q-2.0625 -1.125 -3.203125 -3.078125q-1.125 -1.953125 -1.125 -4.484375q0 -2.53125 1.09375 -4.46875q1.109375 -1.953125 3.046875 -3.0625q1.9375 -1.109375 4.375 -1.109375q2.453125 0 4.34375 1.09375q1.890625 1.09375 2.953125 3.0625q1.078125 1.953125 1.078125 4.578125q0 0.203125 -0.015625 0.453125q-0.015625 0.25 -0.046875 0.484375l-14.421875 0l0 -2.203125l12.828125 0l-1.25 0.765625q0.03125 -1.640625 -0.671875 -2.921875q-0.703125 -1.28125 -1.9375 -2.0q-1.234375 -0.71875 -2.859375 -0.71875q-1.609375 0 -2.859375 0.71875q-1.234375 0.71875 -1.9375 2.015625q-0.703125 1.296875 -0.703125 2.96875l0 0.515625q0 1.6875 0.78125 3.015625q0.78125 1.328125 2.1875 2.0625q1.40625 0.734375 3.234375 0.734375q1.5 0 2.734375 -0.5q1.234375 -0.515625 2.15625 -1.546875l1.703125 1.984375q-1.15625 1.34375 -2.875 2.046875q-1.703125 0.703125 -3.8125 0.703125zm12.021545 -0.1875l0 -23.75l3.078125 0l0 23.75l-3.078125 0zm17.536072 0l0 -16.953125l2.953125 0l0 4.5625l-0.484375 -1.203125q0.828125 -1.671875 2.546875 -2.59375q1.734375 -0.9375 4.046875 -0.9375q2.078125 0 3.65625 0.8125q1.59375 0.796875 2.484375 2.4375q0.90625 1.625 0.90625 4.109375l0 9.765625l-3.078125 0l0 -9.40625q0 -2.46875 -1.203125 -3.71875q-1.203125 -1.25 -3.375 -1.25q-1.625 0 -2.84375 0.640625q-1.21875 0.640625 -1.875 1.890625q-0.65625 1.25 -0.65625 3.109375l0 8.734375l-3.078125 0zm29.354492 0.1875q-2.71875 0 -4.796875 -1.109375q-2.0625 -1.125 -3.203125 -3.078125q-1.125 -1.953125 -1.125 -4.484375q0 -2.53125 1.09375 -4.46875q1.109375 -1.953125 3.046875 -3.0625q1.9375 -1.109375 4.375 -1.109375q2.453125 0 4.34375 1.09375q1.890625 1.09375 2.953125 3.0625q1.078125 1.953125 1.078125 4.578125q0 0.203125 -0.015625 0.453125q-0.015625 0.25 -0.046875 0.484375l-14.421875 0l0 -2.203125l12.828125 0l-1.25 0.765625q0.03125 -1.640625 -0.671875 -2.921875q-0.703125 -1.28125 -1.9375 -2.0q-1.234375 -0.71875 -2.859375 -0.71875q-1.609375 0 -2.859375 0.71875q-1.234375 0.71875 -1.9375 2.015625q-0.703125 1.296875 -0.703125 2.96875l0 0.515625q0 1.6875 0.78125 3.015625q0.78125 1.328125 2.1875 2.0625q1.40625 0.734375 3.234375 0.734375q1.5 0 2.734375 -0.5q1.234375 -0.515625 2.15625 -1.546875l1.703125 1.984375q-1.15625 1.34375 -2.875 2.046875q-1.703125 0.703125 -3.8125 0.703125zm19.584045 0q-2.71875 0 -4.796875 -1.109375q-2.0625 -1.125 -3.203125 -3.078125q-1.125 -1.953125 -1.125 -4.484375q0 -2.53125 1.09375 -4.46875q1.109375 -1.953125 3.046875 -3.0625q1.9375 -1.109375 4.375 -1.109375q2.453125 0 4.34375 1.09375q1.890625 1.09375 2.953125 3.0625q1.078125 1.953125 1.078125 4.578125q0 0.203125 -0.015625 0.453125q-0.015625 0.25 -0.046875 0.484375l-14.421875 0l0 -2.203125l12.828125 0l-1.25 0.765625q0.03125 -1.640625 -0.671875 -2.921875q-0.703125 -1.28125 -1.9375 -2.0q-1.234375 -0.71875 -2.859375 -0.71875q-1.609375 0 -2.859375 0.71875q-1.234375 0.71875 -1.9375 2.015625q-0.703125 1.296875 -0.703125 2.96875l0 0.515625q0 1.6875 0.78125 3.015625q0.78125 1.328125 2.1875 2.0625q1.40625 0.734375 3.234375 0.734375q1.5 0 2.734375 -0.5q1.234375 -0.515625 2.15625 -1.546875l1.703125 1.984375q-1.15625 1.34375 -2.875 2.046875q-1.703125 0.703125 -3.8125 0.703125zm19.03717 0q-2.46875 0 -4.40625 -1.078125q-1.9375 -1.09375 -3.0625 -3.046875q-1.109375 -1.953125 -1.109375 -4.546875q0 -2.59375 1.109375 -4.515625q1.125 -1.9375 3.0625 -3.03125q1.9375 -1.09375 4.40625 -1.09375q2.140625 0 3.859375 0.96875q1.734375 0.953125 2.765625 2.875q1.046875 1.921875 1.046875 4.796875q0 2.890625 -1.015625 4.8125q-1.0 1.90625 -2.734375 2.890625q-1.71875 0.96875 -3.921875 0.96875zm0.25 -2.6875q1.609375 0 2.90625 -0.734375q1.296875 -0.734375 2.046875 -2.09375q0.75 -1.359375 0.75 -3.15625q0 -1.8125 -0.75 -3.140625q-0.75 -1.328125 -2.046875 -2.0625q-1.296875 -0.75 -2.90625 -0.75q-1.625 0 -2.90625 0.75q-1.28125 0.734375 -2.046875 2.0625q-0.765625 1.328125 -0.765625 3.140625q0 1.796875 0.765625 3.15625q0.765625 1.359375 2.046875 2.09375q1.28125 0.734375 2.90625 0.734375zm5.796875 2.5l0 -4.578125l0.1875 -3.9375l-0.3125 -3.9375l0 -11.296875l3.0625 0l0 23.75l-2.9375 0zm13.636597 0.1875q-2.125 0 -4.03125 -0.5625q-1.890625 -0.578125 -2.984375 -1.421875l1.28125 -2.421875q1.09375 0.734375 2.6875 1.25q1.609375 0.5 3.265625 0.5q2.140625 0 3.078125 -0.609375q0.953125 -0.609375 0.953125 -1.6875q0 -0.796875 -0.578125 -1.25q-0.578125 -0.453125 -1.53125 -0.671875q-0.9375 -0.21875 -2.09375 -0.390625q-1.140625 -0.1875 -2.296875 -0.453125q-1.140625 -0.28125 -2.109375 -0.765625q-0.953125 -0.5 -1.53125 -1.375q-0.578125 -0.890625 -0.578125 -2.359375q0 -1.53125 0.859375 -2.6875q0.875 -1.15625 2.453125 -1.78125q1.578125 -0.625 3.765625 -0.625q1.65625 0 3.359375 0.40625q1.71875 0.40625 2.8125 1.140625l-1.3125 2.421875q-1.15625 -0.765625 -2.40625 -1.046875q-1.25 -0.296875 -2.484375 -0.296875q-2.015625 0 -3.015625 0.65625q-0.984375 0.65625 -0.984375 1.6875q0 0.859375 0.578125 1.328125q0.59375 0.453125 1.53125 0.71875q0.953125 0.25 2.109375 0.4375q1.15625 0.171875 2.296875 0.453125q1.15625 0.265625 2.09375 0.75q0.953125 0.46875 1.546875 1.34375q0.59375 0.859375 0.59375 2.296875q0 1.53125 -0.90625 2.65625q-0.890625 1.109375 -2.53125 1.734375q-1.625 0.625 -3.890625 0.625z" fill-rule="nonzero"/><path fill="#000000" fill-opacity="0.0" d="m175.32764 307.68506l762.89764 0l0 104.62991l-762.89764 0z" fill-rule="evenodd"/><path fill="#000000" d="m192.62451 371.52002l0 -18.171875l-7.171875 0l0 -4.234375l19.515625 0l0 4.234375l-7.15625 0l0 18.171875l-5.1875 0zm21.562927 0.25q-2.9375 0 -5.171875 -1.140625q-2.21875 -1.15625 -3.4375 -3.15625q-1.203125 -2.0 -1.203125 -4.5625q0 -2.59375 1.1875 -4.59375q1.203125 -2.0 3.28125 -3.125q2.078125 -1.140625 4.703125 -1.140625q2.53125 0 4.5625 1.078125q2.03125 1.0625 3.21875 3.0625q1.1875 2.0 1.1875 4.78125q0 0.296875 -0.03125 0.671875q-0.03125 0.359375 -0.0625 0.671875l-13.984375 0l0 -2.90625l11.359375 0l-1.921875 0.859375q0 -1.34375 -0.546875 -2.328125q-0.546875 -1.0 -1.515625 -1.5625q-0.953125 -0.5625 -2.234375 -0.5625q-1.28125 0 -2.25 0.5625q-0.96875 0.5625 -1.515625 1.578125q-0.546875 1.0 -0.546875 2.375l0 0.765625q0 1.40625 0.625 2.484375q0.625 1.078125 1.75 1.640625q1.140625 0.546875 2.671875 0.546875q1.390625 0 2.421875 -0.40625q1.046875 -0.421875 1.90625 -1.25l2.65625 2.875q-1.1875 1.34375 -2.984375 2.0625q-1.78125 0.71875 -4.125 0.71875zm17.442047 0q-2.203125 0 -4.234375 -0.515625q-2.03125 -0.53125 -3.21875 -1.328125l1.65625 -3.59375q1.1875 0.734375 2.796875 1.203125q1.625 0.46875 3.1875 0.46875q1.734375 0 2.453125 -0.421875q0.71875 -0.421875 0.71875 -1.15625q0 -0.609375 -0.5625 -0.90625q-0.546875 -0.296875 -1.484375 -0.453125q-0.921875 -0.171875 -2.03125 -0.328125q-1.109375 -0.15625 -2.234375 -0.421875q-1.109375 -0.28125 -2.046875 -0.828125q-0.921875 -0.546875 -1.484375 -1.46875q-0.546875 -0.9375 -0.546875 -2.40625q0 -1.625 0.9375 -2.875q0.9375 -1.25 2.734375 -1.96875q1.796875 -0.71875 4.296875 -0.71875q1.75 0 3.578125 0.390625q1.828125 0.375 3.03125 1.109375l-1.65625 3.546875q-1.25 -0.734375 -2.515625 -1.0q-1.265625 -0.28125 -2.4375 -0.28125q-1.671875 0 -2.4375 0.453125q-0.765625 0.453125 -0.765625 1.15625q0 0.640625 0.546875 0.96875q0.5625 0.3125 1.484375 0.5q0.9375 0.1875 2.046875 0.34375q1.109375 0.140625 2.21875 0.4375q1.125 0.28125 2.03125 0.8125q0.921875 0.515625 1.484375 1.4375q0.578125 0.90625 0.578125 2.375q0 1.609375 -0.96875 2.84375q-0.953125 1.21875 -2.765625 1.921875q-1.796875 0.703125 -4.390625 0.703125zm18.242035 0q-3.046875 0 -4.75 -1.546875q-1.6875 -1.546875 -1.6875 -4.625l0 -15.109375l5.0 0l0 15.046875q0 1.09375 0.578125 1.6875q0.578125 0.578125 1.5625 0.578125q1.1875 0 2.015625 -0.640625l1.34375 3.53125q-0.765625 0.546875 -1.84375 0.8125q-1.0625 0.265625 -2.21875 0.265625zm-9.09375 -13.625l0 -3.84375l11.9375 0l0 3.84375l-11.9375 0zm21.763794 13.625q-2.203125 0 -4.234375 -0.515625q-2.03125 -0.53125 -3.2187653 -1.328125l1.6562653 -3.59375q1.1875 0.734375 2.796875 1.203125q1.625 0.46875 3.1875 0.46875q1.734375 0 2.453125 -0.421875q0.71875 -0.421875 0.71875 -1.15625q0 -0.609375 -0.5625 -0.90625q-0.546875 -0.296875 -1.484375 -0.453125q-0.921875 -0.171875 -2.03125 -0.328125q-1.109375 -0.15625 -2.234375 -0.421875q-1.109375 -0.28125 -2.046875 -0.828125q-0.921875 -0.546875 -1.484375 -1.46875q-0.54689026 -0.9375 -0.54689026 -2.40625q0 -1.625 0.93751526 -2.875q0.9375 -1.25 2.734375 -1.96875q1.796875 -0.71875 4.296875 -0.71875q1.75 0 3.578125 0.390625q1.828125 0.375 3.03125 1.109375l-1.65625 3.546875q-1.25 -0.734375 -2.515625 -1.0q-1.265625 -0.28125 -2.4375 -0.28125q-1.671875 0 -2.4375 0.453125q-0.765625 0.453125 -0.765625 1.15625q0 0.640625 0.546875 0.96875q0.5625 0.3125 1.484375 0.5q0.9375 0.1875 2.046875 0.34375q1.109375 0.140625 2.21875 0.4375q1.125 0.28125 2.03125 0.8125q0.921875 0.515625 1.484375 1.4375q0.578125 0.90625 0.578125 2.375q0 1.609375 -0.96875 2.84375q-0.953125 1.21875 -2.765625 1.921875q-1.796875 0.703125 -4.390625 0.703125z" fill-rule="nonzero"/><path fill="#000000" d="m289.23022 371.70752q-2.5625 0 -3.96875 -1.375q-1.40625 -1.375 -1.40625 -3.9375l0 -15.546875l3.078125 0l0 15.421875q0 1.375 0.6875 2.109375q0.6875 0.734375 1.96875 0.734375q1.4375 0 2.390625 -0.796875l0.96875 2.21875q-0.703125 0.59375 -1.6875 0.890625q-0.96875 0.28125 -2.03125 0.28125zm-8.25 -14.625l0 -2.515625l10.8125 0l0 2.515625l-10.8125 0zm22.359528 14.625q-2.5625 0 -4.546875 -1.109375q-1.984375 -1.125 -3.140625 -3.09375q-1.140625 -1.96875 -1.140625 -4.46875q0 -2.53125 1.140625 -4.46875q1.15625 -1.953125 3.140625 -3.0625q1.984375 -1.109375 4.546875 -1.109375q2.53125 0 4.53125 1.109375q2.0 1.109375 3.125 3.046875q1.140625 1.921875 1.140625 4.484375q0 2.53125 -1.140625 4.484375q-1.125 1.953125 -3.125 3.078125q-2.0 1.109375 -4.53125 1.109375zm0 -2.6875q1.640625 0 2.9375 -0.734375q1.296875 -0.734375 2.03125 -2.09375q0.734375 -1.359375 0.734375 -3.15625q0 -1.8125 -0.734375 -3.140625q-0.734375 -1.328125 -2.03125 -2.0625q-1.296875 -0.75 -2.9375 -0.75q-1.625 0 -2.90625 0.75q-1.28125 0.734375 -2.046875 2.0625q-0.765625 1.328125 -0.765625 3.140625q0 1.796875 0.765625 3.15625q0.765625 1.359375 2.046875 2.09375q1.28125 0.734375 2.90625 0.734375zm22.11557 2.5l0 -22.40625l3.203125 0l0 22.40625l-3.203125 0zm9.466888 0l0 -16.953125l2.953125 0l0 4.5l-0.484375 -1.140625q0.796875 -1.671875 2.453125 -2.59375q1.671875 -0.9375 3.890625 -0.9375q2.421875 0 4.171875 1.203125q1.765625 1.203125 2.3125 3.640625l-1.25 -0.515625q0.78125 -1.953125 2.6875 -3.140625q1.921875 -1.1875 4.484375 -1.1875q2.046875 0 3.609375 0.8125q1.578125 0.796875 2.453125 2.4375q0.890625 1.625 0.890625 4.109375l0 9.765625l-3.078125 0l0 -9.40625q0 -2.46875 -1.15625 -3.71875q-1.140625 -1.25 -3.234375 -1.25q-1.53125 0 -2.6875 0.640625q-1.140625 0.640625 -1.765625 1.890625q-0.625 1.25 -0.625 3.109375l0 8.734375l-3.078125 0l0 -9.40625q0 -2.46875 -1.140625 -3.71875q-1.125 -1.25 -3.234375 -1.25q-1.515625 0 -2.671875 0.640625q-1.140625 0.640625 -1.78125 1.890625q-0.640625 1.25 -0.640625 3.109375l0 8.734375l-3.078125 0zm42.824066 0.1875q-2.109375 0 -3.859375 -0.96875q-1.75 -0.984375 -2.796875 -2.890625q-1.03125 -1.921875 -1.03125 -4.8125q0 -2.875 1.0 -4.796875q1.015625 -1.921875 2.765625 -2.875q1.75 -0.96875 3.921875 -0.96875q2.5 0 4.40625 1.09375q1.921875 1.09375 3.046875 3.03125q1.125 1.921875 1.125 4.515625q0 2.59375 -1.125 4.546875q-1.125 1.953125 -3.046875 3.046875q-1.90625 1.078125 -4.40625 1.078125zm-9.0 6.015625l0 -23.15625l2.953125 0l0 4.5625l-0.203125 3.9375l0.328125 3.9375l0 10.71875l-3.078125 0zm8.734375 -8.703125q1.640625 0 2.9375 -0.734375q1.296875 -0.734375 2.046875 -2.09375q0.75 -1.359375 0.75 -3.15625q0 -1.8125 -0.75 -3.140625q-0.75 -1.328125 -2.046875 -2.0625q-1.296875 -0.75 -2.9375 -0.75q-1.59375 0 -2.890625 0.75q-1.296875 0.734375 -2.046875 2.0625q-0.75 1.328125 -0.75 3.140625q0 1.796875 0.75 3.15625q0.75 1.359375 2.046875 2.09375q1.296875 0.734375 2.890625 0.734375zm13.089661 2.5l0 -16.953125l2.953125 0l0 4.59375l-0.296875 -1.140625q0.703125 -1.765625 2.359375 -2.6875q1.671875 -0.9375 4.109375 -0.9375l0 2.984375q-0.1875 -0.03125 -0.375 -0.03125q-0.171875 0 -0.328125 0q-2.46875 0 -3.90625 1.46875q-1.4375 1.46875 -1.4375 4.25l0 8.453125l-3.078125 0zm20.001648 0.1875q-2.5625 0 -4.546875 -1.109375q-1.984375 -1.125 -3.140625 -3.09375q-1.140625 -1.96875 -1.140625 -4.46875q0 -2.53125 1.140625 -4.46875q1.15625 -1.953125 3.140625 -3.0625q1.984375 -1.109375 4.546875 -1.109375q2.53125 0 4.53125 1.109375q2.0 1.109375 3.125 3.046875q1.140625 1.921875 1.140625 4.484375q0 2.53125 -1.140625 4.484375q-1.125 1.953125 -3.125 3.078125q-2.0 1.109375 -4.53125 1.109375zm0 -2.6875q1.640625 0 2.9375 -0.734375q1.296875 -0.734375 2.03125 -2.09375q0.734375 -1.359375 0.734375 -3.15625q0 -1.8125 -0.734375 -3.140625q-0.734375 -1.328125 -2.03125 -2.0625q-1.296875 -0.75 -2.9375 -0.75q-1.625 0 -2.90625 0.75q-1.28125 0.734375 -2.046875 2.0625q-0.765625 1.328125 -0.765625 3.140625q0 1.796875 0.765625 3.15625q0.765625 1.359375 2.046875 2.09375q1.28125 0.734375 2.90625 0.734375zm17.027557 2.5l-7.421875 -16.953125l3.203125 0l6.59375 15.359375l-1.546875 0l6.7187195 -15.359375l3.015625 0l-7.4218445 16.953125l-3.140625 0zm20.517395 0.1875q-2.71875 0 -4.796875 -1.109375q-2.0625 -1.125 -3.203125 -3.078125q-1.125 -1.953125 -1.125 -4.484375q0 -2.53125 1.09375 -4.46875q1.109375 -1.953125 3.046875 -3.0625q1.9375 -1.109375 4.375 -1.109375q2.453125 0 4.34375 1.09375q1.890625 1.09375 2.953125 3.0625q1.078125 1.953125 1.078125 4.578125q0 0.203125 -0.015625 0.453125q-0.015625 0.25 -0.046875 0.484375l-14.421875 0l0 -2.203125l12.828125 0l-1.25 0.765625q0.03125 -1.640625 -0.671875 -2.921875q-0.703125 -1.28125 -1.9375 -2.0q-1.234375 -0.71875 -2.859375 -0.71875q-1.609375 0 -2.859375 0.71875q-1.234375 0.71875 -1.9375 2.015625q-0.703125 1.296875 -0.703125 2.96875l0 0.515625q0 1.6875 0.78125 3.015625q0.78125 1.328125 2.1875 2.0625q1.40625 0.734375 3.234375 0.734375q1.5 0 2.734375 -0.5q1.234375 -0.515625 2.15625 -1.546875l1.703125 1.984375q-1.15625 1.34375 -2.875 2.046875q-1.703125 0.703125 -3.8125 0.703125zm21.082672 -0.1875l0 -22.40625l2.625 0l10.046875 16.9375l-1.40625 0l9.921875 -16.9375l2.625 0l0.03125 22.40625l-3.078125 0l-0.03125 -17.5625l0.734375 0l-8.828125 14.84375l-1.46875 0l-8.90625 -14.84375l0.8125 0l0 17.5625l-3.078125 0zm37.37256 0.1875q-2.5625 0 -4.546875 -1.109375q-1.984375 -1.125 -3.140625 -3.09375q-1.140625 -1.96875 -1.140625 -4.46875q0 -2.53125 1.140625 -4.46875q1.15625 -1.953125 3.140625 -3.0625q1.984375 -1.109375 4.546875 -1.109375q2.53125 0 4.53125 1.109375q2.0 1.109375 3.125 3.046875q1.140625 1.921875 1.140625 4.484375q0 2.53125 -1.140625 4.484375q-1.125 1.953125 -3.125 3.078125q-2.0 1.109375 -4.53125 1.109375zm0 -2.6875q1.640625 0 2.9375 -0.734375q1.296875 -0.734375 2.03125 -2.09375q0.734375 -1.359375 0.734375 -3.15625q0 -1.8125 -0.734375 -3.140625q-0.734375 -1.328125 -2.03125 -2.0625q-1.296875 -0.75 -2.9375 -0.75q-1.625 0 -2.90625 0.75q-1.28125 0.734375 -2.046875 2.0625q-0.765625 1.328125 -0.765625 3.140625q0 1.796875 0.765625 3.15625q0.765625 1.359375 2.046875 2.09375q1.28125 0.734375 2.90625 0.734375zm20.070068 2.6875q-2.46875 0 -4.40625 -1.078125q-1.9375 -1.09375 -3.0625 -3.046875q-1.109375 -1.953125 -1.109375 -4.546875q0 -2.59375 1.109375 -4.515625q1.125 -1.9375 3.0625 -3.03125q1.9375 -1.09375 4.40625 -1.09375q2.140625 0 3.859375 0.96875q1.734375 0.953125 2.765625 2.875q1.046875 1.921875 1.046875 4.796875q0 2.890625 -1.015625 4.8125q-1.0 1.90625 -2.734375 2.890625q-1.71875 0.96875 -3.921875 0.96875zm0.25 -2.6875q1.609375 0 2.90625 -0.734375q1.296875 -0.734375 2.046875 -2.09375q0.75 -1.359375 0.75 -3.15625q0 -1.8125 -0.75 -3.140625q-0.75 -1.328125 -2.046875 -2.0625q-1.296875 -0.75 -2.90625 -0.75q-1.625 0 -2.90625 0.75q-1.28125 0.734375 -2.046875 2.0625q-0.765625 1.328125 -0.765625 3.140625q0 1.796875 0.765625 3.15625q0.765625 1.359375 2.046875 2.09375q1.28125 0.734375 2.90625 0.734375zm5.796875 2.5l0 -4.578125l0.1875 -3.9375l-0.3125 -3.9375l0 -11.296875l3.0625 0l0 23.75l-2.9375 0zm16.324036 0.1875q-2.71875 0 -4.796875 -1.109375q-2.0625 -1.125 -3.203125 -3.078125q-1.125 -1.953125 -1.125 -4.484375q0 -2.53125 1.09375 -4.46875q1.109375 -1.953125 3.046875 -3.0625q1.9375 -1.109375 4.375 -1.109375q2.453125 0 4.34375 1.09375q1.890625 1.09375 2.953125 3.0625q1.078125 1.953125 1.078125 4.578125q0 0.203125 -0.015625 0.453125q-0.015625 0.25 -0.046875 0.484375l-14.421875 0l0 -2.203125l12.828125 0l-1.25 0.765625q0.03125 -1.640625 -0.671875 -2.921875q-0.703125 -1.28125 -1.9375 -2.0q-1.234375 -0.71875 -2.859375 -0.71875q-1.609375 0 -2.859375 0.71875q-1.234375 0.71875 -1.9375 2.015625q-0.703125 1.296875 -0.703125 2.96875l0 0.515625q0 1.6875 0.78125 3.015625q0.78125 1.328125 2.1875 2.0625q1.40625 0.734375 3.234375 0.734375q1.5 0 2.734375 -0.5q1.234375 -0.515625 2.15625 -1.546875l1.703125 1.984375q-1.15625 1.34375 -2.875 2.046875q-1.703125 0.703125 -3.8125 0.703125zm12.021545 -0.1875l0 -23.75l3.078125 0l0 23.75l-3.078125 0zm13.80304 0.1875q-2.125 0 -4.03125 -0.5625q-1.890625 -0.578125 -2.984375 -1.421875l1.28125 -2.421875q1.09375 0.734375 2.6875 1.25q1.609375 0.5 3.265625 0.5q2.140625 0 3.078125 -0.609375q0.953125 -0.609375 0.953125 -1.6875q0 -0.796875 -0.578125 -1.25q-0.578125 -0.453125 -1.53125 -0.671875q-0.9375 -0.21875 -2.09375 -0.390625q-1.140625 -0.1875 -2.296875 -0.453125q-1.140625 -0.28125 -2.109375 -0.765625q-0.953125 -0.5 -1.53125 -1.375q-0.578125 -0.890625 -0.578125 -2.359375q0 -1.53125 0.859375 -2.6875q0.875 -1.15625 2.453125 -1.78125q1.578125 -0.625 3.765625 -0.625q1.65625 0 3.359375 0.40625q1.71875 0.40625 2.8125 1.140625l-1.3125 2.421875q-1.15625 -0.765625 -2.40625 -1.046875q-1.25 -0.296875 -2.484375 -0.296875q-2.015625 0 -3.015625 0.65625q-0.984375 0.65625 -0.984375 1.6875q0 0.859375 0.578125 1.328125q0.59375 0.453125 1.53125 0.71875q0.953125 0.25 2.109375 0.4375q1.15625 0.171875 2.296875 0.453125q1.15625 0.265625 2.09375 0.75q0.953125 0.46875 1.546875 1.34375q0.59375 0.859375 0.59375 2.296875q0 1.53125 -0.90625 2.65625q-0.890625 1.109375 -2.53125 1.734375q-1.625 0.625 -3.890625 0.625z" fill-rule="nonzero"/><path fill="#000000" fill-opacity="0.0" d="m175.32764 440.14963l762.89764 0l0 104.62991l-762.89764 0z" fill-rule="evenodd"/><path fill="#000000" d="m187.98389 503.9846l0 -22.40625l10.9375 0q4.234375 0 6.359375 1.609375q2.125 1.59375 2.125 4.21875q0 1.765625 -0.859375 3.0625q-0.859375 1.296875 -2.375 2.0q-1.5 0.703125 -3.453125 0.703125l0.609375 -1.3125q2.109375 0 3.734375 0.6875q1.640625 0.6875 2.546875 2.03125q0.921875 1.34375 0.921875 3.296875q0 2.875 -2.28125 4.5q-2.265625 1.609375 -6.6875 1.609375l-11.578125 0zm5.15625 -3.90625l6.046875 0q2.015625 0 3.046875 -0.65625q1.046875 -0.65625 1.046875 -2.09375q0 -1.40625 -1.046875 -2.09375q-1.03125 -0.6875 -3.046875 -0.6875l-6.4375 0l0 -3.78125l5.53125 0q1.890625 0 2.890625 -0.65625q1.015625 -0.65625 1.015625 -2.0q0 -1.3125 -1.015625 -1.96875q-1.0 -0.65625 -2.890625 -0.65625l-5.140625 0l0 14.59375zm27.511307 4.15625q-2.9375 0 -5.171875 -1.140625q-2.21875 -1.15625 -3.4375 -3.15625q-1.203125 -2.0 -1.203125 -4.5625q0 -2.59375 1.1875 -4.59375q1.203125 -2.0 3.28125 -3.125q2.078125 -1.140625 4.703125 -1.140625q2.53125 0 4.5625 1.078125q2.03125 1.0625 3.21875 3.0625q1.1875 2.0 1.1875 4.78125q0 0.296875 -0.03125 0.671875q-0.03125 0.359375 -0.0625 0.671875l-13.984375 0l0 -2.90625l11.359375 0l-1.921875 0.859375q0 -1.34375 -0.546875 -2.328125q-0.546875 -1.0 -1.515625 -1.5625q-0.953125 -0.5625 -2.234375 -0.5625q-1.28125 0 -2.25 0.5625q-0.96875 0.5625 -1.515625 1.578125q-0.546875 1.0 -0.546875 2.375l0 0.765625q0 1.40625 0.625 2.484375q0.625 1.078125 1.75 1.640625q1.140625 0.546875 2.671875 0.546875q1.390625 0 2.421875 -0.40625q1.046875 -0.421875 1.90625 -1.25l2.65625 2.875q-1.1875 1.34375 -2.984375 2.0625q-1.78125 0.71875 -4.125 0.71875zm11.645172 -0.25l0 -17.21875l4.78125 0l0 4.765625l-0.90625 -1.4375q0.9375 -1.71875 2.65625 -2.640625q1.734375 -0.9375 3.9375 -0.9375q2.046875 0 3.65625 0.8125q1.625 0.8125 2.546875 2.5q0.9375 1.671875 0.9375 4.296875l0 9.859375l-5.0 0l0 -9.09375q0 -2.078125 -0.90625 -3.0625q-0.90625 -1.0 -2.578125 -1.0q-1.1875 0 -2.125 0.5q-0.9375 0.5 -1.46875 1.53125q-0.53125 1.015625 -0.53125 2.609375l0 8.515625l-5.0 0zm30.568192 0.25q-2.78125 0 -4.96875 -1.125q-2.1718903 -1.140625 -3.4062653 -3.15625q-1.21875 -2.015625 -1.21875 -4.578125q0 -2.59375 1.21875 -4.59375q1.234375 -2.0 3.4062653 -3.125q2.1875 -1.140625 4.96875 -1.140625q2.71875 0 4.734375 1.140625q2.015625 1.125 2.984375 3.234375l-3.875 2.078125q-0.671875 -1.203125 -1.6875 -1.78125q-1.0 -0.578125 -2.1875 -0.578125q-1.28125 0 -2.3125 0.578125q-1.015625 0.578125 -1.609375 1.640625q-0.59375 1.046875 -0.59375 2.546875q0 1.5 0.59375 2.5625q0.59375 1.0625 1.609375 1.640625q1.03125 0.5625 2.3125 0.5625q1.1875 0 2.1875 -0.546875q1.015625 -0.5625 1.6875 -1.8125l3.875 2.109375q-0.96875 2.078125 -2.984375 3.21875q-2.015625 1.125 -4.734375 1.125zm10.455902 -0.25l0 -23.75l5.0 0l0 11.296875l-1.125 -1.4375q0.9375 -1.71875 2.65625 -2.640625q1.734375 -0.9375 3.9375 -0.9375q2.046875 0 3.65625 0.8125q1.625 0.8125 2.546875 2.5q0.9375 1.671875 0.9375 4.296875l0 9.859375l-5.0 0l0 -9.09375q0 -2.078125 -0.90625 -3.0625q-0.90625 -1.0 -2.578125 -1.0q-1.1875 0 -2.125 0.5q-0.9375 0.5 -1.46875 1.53125q-0.53125 1.015625 -0.53125 2.609375l0 8.515625l-5.0 0zm22.11203 0l0 -17.21875l4.78125 0l0 4.703125l-0.90625 -1.375q0.90625 -1.75 2.546875 -2.65625q1.65625 -0.921875 3.765625 -0.921875q2.359375 0 4.140625 1.203125q1.78125 1.1875 2.34375 3.65625l-1.75 -0.484375q0.859375 -2.015625 2.765625 -3.1875q1.90625 -1.1875 4.375 -1.1875q2.046875 0 3.625 0.8125q1.578125 0.8125 2.484375 2.5q0.921875 1.671875 0.921875 4.296875l0 9.859375l-4.984375 0l0 -9.09375q0 -2.078125 -0.875 -3.0625q-0.859375 -1.0 -2.421875 -1.0q-1.09375 0 -1.96875 0.5q-0.859375 0.5 -1.34375 1.5q-0.46875 0.984375 -0.46875 2.515625l0 8.640625l-4.984375 0l0 -9.09375q0 -2.078125 -0.859375 -3.0625q-0.84375 -1.0 -2.40625 -1.0q-1.09375 0 -1.96875 0.5q-0.859375 0.5 -1.34375 1.5q-0.46875 0.984375 -0.46875 2.515625l0 8.640625l-5.0 0zm44.130585 0l0 -3.359375l-0.3125 -0.734375l0 -6.015625q0 -1.609375 -0.984375 -2.5q-0.96875 -0.890625 -2.984375 -0.890625q-1.375 0 -2.703125 0.4375q-1.328125 0.421875 -2.265625 1.15625l-1.78125 -3.484375q1.40625 -1.0 3.390625 -1.53125q1.984375 -0.546875 4.03125 -0.546875q3.9375 0 6.109375 1.859375q2.171875 1.84375 2.171875 5.78125l0 9.828125l-4.671875 0zm-5.25 0.25q-2.015625 0 -3.453125 -0.6875q-1.4375 -0.6875 -2.203125 -1.859375q-0.765625 -1.1875 -0.765625 -2.65625q0 -1.546875 0.75 -2.6875q0.75 -1.15625 2.375 -1.8125q1.640625 -0.65625 4.265625 -0.65625l4.578125 0l0 2.90625l-4.03125 0q-1.765625 0 -2.421875 0.578125q-0.65625 0.578125 -0.65625 1.4375q0 0.96875 0.75 1.53125q0.75 0.546875 2.0625 0.546875q1.25 0 2.234375 -0.578125q1.0 -0.59375 1.453125 -1.75l0.765625 2.296875q-0.546875 1.671875 -1.984375 2.53125q-1.4375 0.859375 -3.71875 0.859375zm14.431519 -0.25l0 -17.21875l4.78125 0l0 4.859375l-0.671875 -1.40625q0.765625 -1.8125 2.453125 -2.75q1.703125 -0.953125 4.125 -0.953125l0 4.609375q-0.3125 -0.03125 -0.578125 -0.046875q-0.25 -0.015625 -0.53125 -0.015625q-2.046875 0 -3.3125 1.171875q-1.265625 1.15625 -1.265625 3.625l0 8.125l-5.0 0zm17.804657 -3.515625l0.125 -6.078125l8.03125 -7.625l5.953125 0l-7.71875 7.84375l-2.59375 2.109375l-3.796875 3.75zm-4.140625 3.515625l0 -23.75l5.0 0l0 23.75l-5.0 0zm12.84375 0l-5.828125 -7.234375l3.140625 -3.875l8.734375 11.109375l-6.046875 0z" fill-rule="nonzero"/><path fill="#000000" d="m390.0968 503.9846l10.140625 -22.40625l3.171875 0l10.171875 22.40625l-3.359375 0l-9.046875 -20.609375l1.265625 0l-9.046875 20.609375l-3.296875 0zm4.3125 -5.59375l0.875 -2.5625l12.609375 0l0.921875 2.5625l-14.40625 0zm28.904663 5.78125q-2.46875 0 -4.40625 -1.078125q-1.9375 -1.09375 -3.0625 -3.046875q-1.109375 -1.953125 -1.109375 -4.546875q0 -2.59375 1.109375 -4.515625q1.125 -1.9375 3.0625 -3.03125q1.9375 -1.09375 4.40625 -1.09375q2.140625 0 3.859375 0.96875q1.734375 0.953125 2.765625 2.875q1.046875 1.921875 1.046875 4.796875q0 2.890625 -1.015625 4.8125q-1.0 1.90625 -2.734375 2.890625q-1.71875 0.96875 -3.921875 0.96875zm0.25 -2.6875q1.609375 0 2.90625 -0.734375q1.296875 -0.734375 2.046875 -2.09375q0.75 -1.359375 0.75 -3.15625q0 -1.8125 -0.75 -3.140625q-0.75 -1.328125 -2.046875 -2.0625q-1.296875 -0.75 -2.90625 -0.75q-1.625 0 -2.90625 0.75q-1.28125 0.734375 -2.046875 2.0625q-0.765625 1.328125 -0.765625 3.140625q0 1.796875 0.765625 3.15625q0.765625 1.359375 2.046875 2.09375q1.28125 0.734375 2.90625 0.734375zm5.796875 2.5l0 -4.578125l0.1875 -3.9375l-0.3125 -3.9375l0 -11.296875l3.0625 0l0 23.75l-2.9375 0zm13.636536 0.1875q-2.125 0 -4.03125 -0.5625q-1.890625 -0.578125 -2.984375 -1.421875l1.28125 -2.421875q1.09375 0.734375 2.6875 1.25q1.609375 0.5 3.265625 0.5q2.140625 0 3.078125 -0.609375q0.953125 -0.609375 0.953125 -1.6875q0 -0.796875 -0.578125 -1.25q-0.578125 -0.453125 -1.53125 -0.671875q-0.9375 -0.21875 -2.09375 -0.390625q-1.140625 -0.1875 -2.296875 -0.453125q-1.140625 -0.28125 -2.109375 -0.765625q-0.953125 -0.5 -1.53125 -1.375q-0.578125 -0.890625 -0.578125 -2.359375q0 -1.53125 0.859375 -2.6875q0.875 -1.15625 2.453125 -1.78125q1.578125 -0.625 3.765625 -0.625q1.65625 0 3.359375 0.40625q1.71875 0.40625 2.8125 1.140625l-1.3125 2.421875q-1.15625 -0.765625 -2.40625 -1.046875q-1.25 -0.296875 -2.484375 -0.296875q-2.015625 0 -3.015625 0.65625q-0.984375 0.65625 -0.984375 1.6875q0 0.859375 0.578125 1.328125q0.59375 0.453125 1.53125 0.71875q0.953125 0.25 2.109375 0.4375q1.15625 0.171875 2.296875 0.453125q1.15625 0.265625 2.09375 0.75q0.953125 0.46875 1.546875 1.34375q0.59375 0.859375 0.59375 2.296875q0 1.53125 -0.90625 2.65625q-0.890625 1.109375 -2.53125 1.734375q-1.625 0.625 -3.890625 0.625zm16.985168 0q-2.5625 0 -3.96875 -1.375q-1.40625 -1.375 -1.40625 -3.9375l0 -15.546875l3.078125 0l0 15.421875q0 1.375 0.6875 2.109375q0.6875 0.734375 1.96875 0.734375q1.4375 0 2.390625 -0.796875l0.96875 2.21875q-0.703125 0.59375 -1.6875 0.890625q-0.96875 0.28125 -2.03125 0.28125zm-8.25 -14.625l0 -2.515625l10.8125 0l0 2.515625l-10.8125 0zm22.359497 14.625q-2.5625 0 -4.546875 -1.109375q-1.984375 -1.125 -3.140625 -3.09375q-1.140625 -1.96875 -1.140625 -4.46875q0 -2.53125 1.140625 -4.46875q1.15625 -1.953125 3.140625 -3.0625q1.984375 -1.109375 4.546875 -1.109375q2.53125 0 4.53125 1.109375q2.0 1.109375 3.125 3.046875q1.140625 1.921875 1.140625 4.484375q0 2.53125 -1.140625 4.484375q-1.125 1.953125 -3.125 3.078125q-2.0 1.109375 -4.53125 1.109375zm0 -2.6875q1.640625 0 2.9375 -0.734375q1.296875 -0.734375 2.03125 -2.09375q0.734375 -1.359375 0.734375 -3.15625q0 -1.8125 -0.734375 -3.140625q-0.734375 -1.328125 -2.03125 -2.0625q-1.296875 -0.75 -2.9375 -0.75q-1.625 0 -2.90625 0.75q-1.28125 0.734375 -2.046875 2.0625q-0.765625 1.328125 -0.765625 3.140625q0 1.796875 0.765625 3.15625q0.765625 1.359375 2.046875 2.09375q1.28125 0.734375 2.90625 0.734375zm20.445068 2.6875q-2.578125 0 -4.625 -1.109375q-2.03125 -1.125 -3.1875 -3.078125q-1.140625 -1.953125 -1.140625 -4.484375q0 -2.53125 1.140625 -4.46875q1.15625 -1.953125 3.1875 -3.0625q2.046875 -1.109375 4.625 -1.109375q2.3125 0 4.109375 0.921875q1.8125 0.90625 2.8125 2.703125l-2.34375 1.5q-0.828125 -1.25 -2.03125 -1.84375q-1.203125 -0.59375 -2.578125 -0.59375q-1.65625 0 -2.96875 0.75q-1.3125 0.734375 -2.078125 2.0625q-0.765625 1.328125 -0.765625 3.140625q0 1.828125 0.765625 3.171875q0.765625 1.34375 2.078125 2.078125q1.3125 0.734375 2.96875 0.734375q1.375 0 2.578125 -0.59375q1.203125 -0.59375 2.03125 -1.828125l2.34375 1.46875q-1.0 1.75 -2.8125 2.703125q-1.796875 0.9375 -4.109375 0.9375zm13.15741 -4.28125l0.0625 -3.9375l9.765625 -8.921875l3.703125 0l-7.484375 7.359375l-1.65625 1.40625l-4.390625 4.09375zm-2.5 4.09375l0 -23.75l3.078125 0l0 23.75l-3.078125 0zm12.96875 0l-6.65625 -8.25l1.984375 -2.46875l8.4375 10.71875l-3.765625 0zm32.163025 0.359375l-12.578125 -12.515625q-1.125 -1.125 -1.765625 -2.0q-0.640625 -0.890625 -0.9375 -1.71875q-0.28125 -0.828125 -0.28125 -1.6875q0 -1.515625 0.75 -2.640625q0.765625 -1.140625 2.125 -1.765625q1.359375 -0.625 3.171875 -0.625q1.703125 0 2.953125 0.5625q1.25 0.5625 1.9375 1.609375q0.6875 1.03125 0.6875 2.5q0 1.28125 -0.625 2.375q-0.625 1.078125 -2.0 2.109375q-1.375 1.015625 -3.71875 2.203125q-1.921875 1.0 -3.015625 1.84375q-1.078125 0.84375 -1.546875 1.6875q-0.453125 0.828125 -0.453125 1.8125q0 1.0625 0.625 1.875q0.625 0.8125 1.75 1.265625q1.140625 0.453125 2.640625 0.453125q2.140625 0 3.875 -0.921875q1.734375 -0.9375 2.890625 -2.796875q1.171875 -1.859375 1.71875 -4.609375l2.46875 0.796875q-0.640625 3.234375 -2.203125 5.484375q-1.546875 2.234375 -3.828125 3.421875q-2.265625 1.171875 -5.109375 1.171875q-2.265625 0 -4.03125 -0.734375q-1.765625 -0.734375 -2.796875 -2.046875q-1.015625 -1.3125 -1.015625 -3.03125q0 -1.515625 0.671875 -2.75q0.671875 -1.25 2.140625 -2.421875q1.484375 -1.171875 3.875 -2.421875q1.953125 -1.015625 3.046875 -1.78125q1.109375 -0.78125 1.578125 -1.46875q0.46875 -0.6875 0.46875 -1.484375q0 -1.078125 -0.765625 -1.765625q-0.765625 -0.703125 -2.21875 -0.703125q-1.5 0 -2.34375 0.765625q-0.84375 0.75 -0.84375 1.96875q0 0.59375 0.203125 1.15625q0.203125 0.5625 0.765625 1.25q0.5625 0.6875 1.609375 1.75l11.84375 11.765625l-1.71875 2.0625zm14.169434 -0.359375l0 -22.40625l9.4375 0q3.59375 0 6.328125 1.421875q2.734375 1.40625 4.25 3.9375q1.515625 2.515625 1.515625 5.84375q0 3.328125 -1.515625 5.859375q-1.515625 2.53125 -4.25 3.9375q-2.734375 1.40625 -6.328125 1.40625l-9.4375 0zm3.203125 -2.78125l6.046875 0q2.78125 0 4.8125 -1.046875q2.03125 -1.0625 3.15625 -2.96875q1.125 -1.90625 1.125 -4.40625q0 -2.53125 -1.125 -4.40625q-1.125 -1.890625 -3.15625 -2.9375q-2.03125 -1.0625 -4.8125 -1.0625l-6.046875 0l0 16.828125zm22.775818 2.78125l0 -16.953125l3.078125 0l0 16.953125l-3.078125 0zm1.53125 -20.21875q-0.890625 0 -1.484375 -0.578125q-0.59375 -0.578125 -0.59375 -1.40625q0 -0.875 0.59375 -1.4375q0.59375 -0.578125 1.484375 -0.578125q0.90625 0 1.5 0.5625q0.59375 0.546875 0.59375 1.390625q0 0.859375 -0.578125 1.453125q-0.578125 0.59375 -1.515625 0.59375zm7.3967896 20.21875l0 -16.953125l2.953125 0l0 4.5l-0.484375 -1.140625q0.796875 -1.671875 2.453125 -2.59375q1.671875 -0.9375 3.890625 -0.9375q2.421875 0 4.171875 1.203125q1.765625 1.203125 2.3125 3.640625l-1.25 -0.515625q0.78125 -1.953125 2.6875 -3.140625q1.921875 -1.1875 4.484375 -1.1875q2.046875 0 3.609375 0.8125q1.578125 0.796875 2.453125 2.4375q0.890625 1.625 0.890625 4.109375l0 9.765625l-3.078125 0l0 -9.40625q0 -2.46875 -1.15625 -3.71875q-1.140625 -1.25 -3.234375 -1.25q-1.53125 0 -2.6875 0.640625q-1.140625 0.640625 -1.765625 1.890625q-0.625 1.25 -0.625 3.109375l0 8.734375l-3.078125 0l0 -9.40625q0 -2.46875 -1.140625 -3.71875q-1.125 -1.25 -3.234375 -1.25q-1.515625 0 -2.671875 0.640625q-1.140625 0.640625 -1.78125 1.890625q-0.640625 1.25 -0.640625 3.109375l0 8.734375l-3.078125 0zm33.824036 0l0 -16.953125l3.078125 0l0 16.953125l-3.078125 0zm1.53125 -20.21875q-0.890625 0 -1.484375 -0.578125q-0.59375 -0.578125 -0.59375 -1.40625q0 -0.875 0.59375 -1.4375q0.59375 -0.578125 1.484375 -0.578125q0.90625 0 1.5 0.5625q0.59375 0.546875 0.59375 1.390625q0 0.859375 -0.578125 1.453125q-0.578125 0.59375 -1.515625 0.59375zm7.3967896 20.21875l0 -16.953125l2.953125 0l0 4.5625l-0.484375 -1.203125q0.828125 -1.671875 2.546875 -2.59375q1.734375 -0.9375 4.046875 -0.9375q2.078125 0 3.65625 0.8125q1.59375 0.796875 2.484375 2.4375q0.90625 1.625 0.90625 4.109375l0 9.765625l-3.078125 0l0 -9.40625q0 -2.46875 -1.203125 -3.71875q-1.203125 -1.25 -3.375 -1.25q-1.625 0 -2.84375 0.640625q-1.21875 0.640625 -1.875 1.890625q-0.65625 1.25 -0.65625 3.109375l0 8.734375l-3.078125 0zm21.792053 0l0 -16.953125l3.078125 0l0 16.953125l-3.078125 0zm1.53125 -20.21875q-0.890625 0 -1.484375 -0.578125q-0.59375 -0.578125 -0.59375 -1.40625q0 -0.875 0.59375 -1.4375q0.59375 -0.578125 1.484375 -0.578125q0.90625 0 1.5 0.5625q0.59375 0.546875 0.59375 1.390625q0 0.859375 -0.578125 1.453125q-0.578125 0.59375 -1.515625 0.59375zm12.27179 20.40625q-2.125 0 -4.03125 -0.5625q-1.890625 -0.578125 -2.984375 -1.421875l1.28125 -2.421875q1.09375 0.734375 2.6875 1.25q1.609375 0.5 3.265625 0.5q2.140625 0 3.078125 -0.609375q0.953125 -0.609375 0.953125 -1.6875q0 -0.796875 -0.578125 -1.25q-0.578125 -0.453125 -1.53125 -0.671875q-0.9375 -0.21875 -2.09375 -0.390625q-1.140625 -0.1875 -2.296875 -0.453125q-1.140625 -0.28125 -2.109375 -0.765625q-0.953125 -0.5 -1.53125 -1.375q-0.578125 -0.890625 -0.578125 -2.359375q0 -1.53125 0.859375 -2.6875q0.875 -1.15625 2.453125 -1.78125q1.578125 -0.625 3.765625 -0.625q1.65625 0 3.359375 0.40625q1.71875 0.40625 2.8125 1.140625l-1.3125 2.421875q-1.15625 -0.765625 -2.40625 -1.046875q-1.25 -0.296875 -2.484375 -0.296875q-2.015625 0 -3.015625 0.65625q-0.984375 0.65625 -0.984375 1.6875q0 0.859375 0.578125 1.328125q0.59375 0.453125 1.53125 0.71875q0.953125 0.25 2.109375 0.4375q1.15625 0.171875 2.296875 0.453125q1.15625 0.265625 2.09375 0.75q0.953125 0.46875 1.546875 1.34375q0.59375 0.859375 0.59375 2.296875q0 1.53125 -0.90625 2.65625q-0.890625 1.109375 -2.53125 1.734375q-1.625 0.625 -3.890625 0.625zm11.157043 -0.1875l0 -23.75l3.078125 0l0 11.359375l-0.609375 -1.203125q0.828125 -1.671875 2.546875 -2.59375q1.734375 -0.9375 4.046875 -0.9375q2.078125 0 3.65625 0.8125q1.59375 0.796875 2.484375 2.4375q0.90625 1.625 0.90625 4.109375l0 9.765625l-3.078125 0l0 -9.40625q0 -2.46875 -1.203125 -3.71875q-1.203125 -1.25 -3.375 -1.25q-1.625 0 -2.84375 0.640625q-1.21875 0.640625 -1.875 1.890625q-0.65625 1.25 -0.65625 3.109375l0 8.734375l-3.078125 0zm21.792053 0l0 -16.953125l3.078125 0l0 16.953125l-3.078125 0zm1.53125 -20.21875q-0.890625 0 -1.484375 -0.578125q-0.59375 -0.578125 -0.59375 -1.40625q0 -0.875 0.59375 -1.4375q0.59375 -0.578125 1.484375 -0.578125q0.90625 0 1.5 0.5625q0.59375 0.546875 0.59375 1.390625q0 0.859375 -0.578125 1.453125q-0.578125 0.59375 -1.515625 0.59375zm7.3967896 20.21875l0 -16.953125l2.953125 0l0 4.5625l-0.484375 -1.203125q0.828125 -1.671875 2.546875 -2.59375q1.734375 -0.9375 4.046875 -0.9375q2.078125 0 3.65625 0.8125q1.59375 0.796875 2.484375 2.4375q0.90625 1.625 0.90625 4.109375l0 9.765625l-3.078125 0l0 -9.40625q0 -2.46875 -1.203125 -3.71875q-1.203125 -1.25 -3.375 -1.25q-1.625 0 -2.84375 0.640625q-1.21875 0.640625 -1.875 1.890625q-0.65625 1.25 -0.65625 3.109375l0 8.734375l-3.078125 0zm29.229553 6.40625q-2.34375 0 -4.546875 -0.65625q-2.1875 -0.65625 -3.5625 -1.875l1.484375 -2.375q1.171875 1.03125 2.90625 1.625q1.734375 0.59375 3.609375 0.59375q3.015625 0 4.421875 -1.421875q1.40625 -1.40625 1.40625 -4.28125l0 -3.578125l0.328125 -3.359375l-0.171875 -3.390625l0 -4.640625l2.921875 0l0 14.65625q0 4.46875 -2.25 6.578125q-2.234375 2.125 -6.546875 2.125zm-0.390625 -7.109375q-2.46875 0 -4.40625 -1.03125q-1.9375 -1.046875 -3.078125 -2.90625q-1.125 -1.859375 -1.125 -4.28125q0 -2.46875 1.125 -4.3125q1.140625 -1.84375 3.078125 -2.859375q1.9375 -1.03125 4.40625 -1.03125q2.171875 0 3.96875 0.890625q1.796875 0.875 2.859375 2.703125q1.078125 1.8125 1.078125 4.609375q0 2.75 -1.078125 4.578125q-1.0625 1.8125 -2.859375 2.734375q-1.796875 0.90625 -3.96875 0.90625zm0.34375 -2.6875q1.703125 0 3.015625 -0.703125q1.3125 -0.703125 2.0625 -1.953125q0.75 -1.25 0.75 -2.875q0 -1.640625 -0.75 -2.890625q-0.75 -1.25 -2.0625 -1.9375q-1.3125 -0.6875 -3.015625 -0.6875q-1.6875 0 -3.015625 0.6875q-1.328125 0.6875 -2.078125 1.9375q-0.75 1.25 -0.75 2.890625q0 1.625 0.75 2.875q0.75 1.25 2.078125 1.953125q1.328125 0.703125 3.015625 0.703125zm23.75055 3.390625l0 -22.40625l8.734375 0q4.359375 0 6.84375 2.078125q2.5 2.0625 2.5 5.734375q0 2.4375 -1.125 4.1875q-1.109375 1.734375 -3.1875 2.671875q-2.078125 0.921875 -5.03125 0.921875l-6.96875 0l1.4375 -1.46875l0 8.28125l-3.203125 0zm14.984375 0l-5.703125 -8.125l3.421875 0l5.765625 8.125l-3.484375 0zm-11.78125 -7.96875l-1.4375 -1.5625l6.875 0q3.078125 0 4.65625 -1.328125q1.578125 -1.328125 1.578125 -3.734375q0 -2.390625 -1.578125 -3.703125q-1.578125 -1.3125 -4.65625 -1.3125l-6.875 0l1.4375 -1.609375l0 13.25zm27.170288 8.15625q-2.71875 0 -4.796875 -1.109375q-2.0625 -1.125 -3.203125 -3.078125q-1.125 -1.953125 -1.125 -4.484375q0 -2.53125 1.09375 -4.46875q1.109375 -1.953125 3.046875 -3.0625q1.9375 -1.109375 4.375 -1.109375q2.453125 0 4.34375 1.09375q1.890625 1.09375 2.953125 3.0625q1.078125 1.953125 1.078125 4.578125q0 0.203125 -0.015625 0.453125q-0.015625 0.25 -0.046875 0.484375l-14.421875 0l0 -2.203125l12.828125 0l-1.25 0.765625q0.03125 -1.640625 -0.671875 -2.921875q-0.703125 -1.28125 -1.9375 -2.0q-1.234375 -0.71875 -2.859375 -0.71875q-1.609375 0 -2.859375 0.71875q-1.234375 0.71875 -1.9375 2.015625q-0.703125 1.296875 -0.703125 2.96875l0 0.515625q0 1.6875 0.78125 3.015625q0.78125 1.328125 2.1875 2.0625q1.40625 0.734375 3.234375 0.734375q1.5 0 2.734375 -0.5q1.234375 -0.515625 2.15625 -1.546875l1.703125 1.984375q-1.15625 1.34375 -2.875 2.046875q-1.703125 0.703125 -3.8125 0.703125zm17.84967 0q-2.5625 0 -3.96875 -1.375q-1.40625 -1.375 -1.40625 -3.9375l0 -15.546875l3.078125 0l0 15.421875q0 1.375 0.6875 2.109375q0.6875 0.734375 1.96875 0.734375q1.4375 0 2.390625 -0.796875l0.96875 2.21875q-0.703125 0.59375 -1.6875 0.890625q-0.96875 0.28125 -2.03125 0.28125zm-8.25 -14.625l0 -2.515625l10.8125 0l0 2.515625l-10.8125 0zm22.810547 14.625q-2.171875 0 -3.828125 -0.796875q-1.640625 -0.796875 -2.5625 -2.4375q-0.90625 -1.65625 -0.90625 -4.15625l0 -9.75l3.078125 0l0 9.40625q0 2.484375 1.1875 3.734375q1.203125 1.25 3.390625 1.25q1.59375 0 2.78125 -0.65625q1.1875 -0.65625 1.8125 -1.921875q0.640625 -1.265625 0.640625 -3.046875l0 -8.765625l3.078125 0l0 16.953125l-2.90625 0l0 -4.578125l0.46875 1.21875q-0.828125 1.703125 -2.5 2.625q-1.65625 0.921875 -3.734375 0.921875zm14.5234375 -0.1875l0 -16.953125l2.953125 0l0 4.59375l-0.296875 -1.140625q0.703125 -1.765625 2.359375 -2.6875q1.671875 -0.9375 4.109375 -0.9375l0 2.984375q-0.1875 -0.03125 -0.375 -0.03125q-0.171875 0 -0.328125 0q-2.46875 0 -3.90625 1.46875q-1.4375 1.46875 -1.4375 4.25l0 8.453125l-3.078125 0zm12.895996 0l0 -16.953125l2.953125 0l0 4.5625l-0.484375 -1.203125q0.828125 -1.671875 2.546875 -2.59375q1.734375 -0.9375 4.046875 -0.9375q2.078125 0 3.65625 0.8125q1.59375 0.796875 2.484375 2.4375q0.90625 1.625 0.90625 4.109375l0 9.765625l-3.078125 0l0 -9.40625q0 -2.46875 -1.203125 -3.71875q-1.203125 -1.25 -3.375 -1.25q-1.625 0 -2.84375 0.640625q-1.21875 0.640625 -1.875 1.890625q-0.65625 1.25 -0.65625 3.109375l0 8.734375l-3.078125 0zm26.667053 0.1875q-2.125 0 -4.03125 -0.5625q-1.890625 -0.578125 -2.984375 -1.421875l1.28125 -2.421875q1.09375 0.734375 2.6875 1.25q1.609375 0.5 3.265625 0.5q2.140625 0 3.078125 -0.609375q0.953125 -0.609375 0.953125 -1.6875q0 -0.796875 -0.578125 -1.25q-0.578125 -0.453125 -1.53125 -0.671875q-0.9375 -0.21875 -2.09375 -0.390625q-1.140625 -0.1875 -2.296875 -0.453125q-1.140625 -0.28125 -2.109375 -0.765625q-0.953125 -0.5 -1.53125 -1.375q-0.578125 -0.890625 -0.578125 -2.359375q0 -1.53125 0.859375 -2.6875q0.875 -1.15625 2.453125 -1.78125q1.578125 -0.625 3.765625 -0.625q1.65625 0 3.359375 0.40625q1.71875 0.40625 2.8125 1.140625l-1.3125 2.421875q-1.15625 -0.765625 -2.40625 -1.046875q-1.25 -0.296875 -2.484375 -0.296875q-2.015625 0 -3.015625 0.65625q-0.984375 0.65625 -0.984375 1.6875q0 0.859375 0.578125 1.328125q0.59375 0.453125 1.53125 0.71875q0.953125 0.25 2.109375 0.4375q1.15625 0.171875 2.296875 0.453125q1.15625 0.265625 2.09375 0.75q0.953125 0.46875 1.546875 1.34375q0.59375 0.859375 0.59375 2.296875q0 1.53125 -0.90625 2.65625q-0.890625 1.109375 -2.53125 1.734375q-1.625 0.625 -3.890625 0.625z" fill-rule="nonzero"/><path fill="#000000" fill-opacity="0.0" d="m171.62468 572.6142l762.89764 0l0 104.62988l-762.89764 0z" fill-rule="evenodd"/><path fill="#000000" d="m184.28093 636.44916l0 -22.40625l4.28125 0l13.21875 16.140625l-2.078125 0l0 -16.140625l5.125 0l0 22.40625l-4.265625 0l-13.234375 -16.125l2.078125 0l0 16.125l-5.125 0zm34.04355 0.25q-2.9375 0 -5.171875 -1.140625q-2.21875 -1.15625 -3.4375 -3.15625q-1.203125 -2.0 -1.203125 -4.5625q0 -2.59375 1.1875 -4.59375q1.203125 -2.0 3.28125 -3.125q2.078125 -1.140625 4.703125 -1.140625q2.53125 0 4.5625 1.078125q2.03125 1.0625 3.21875 3.0625q1.1875 2.0 1.1875 4.78125q0 0.296875 -0.03125 0.671875q-0.03125 0.359375 -0.0625 0.671875l-13.984375 0l0 -2.90625l11.359375 0l-1.921875 0.859375q0 -1.34375 -0.546875 -2.328125q-0.546875 -1.0 -1.515625 -1.5625q-0.953125 -0.5625 -2.234375 -0.5625q-1.28125 0 -2.25 0.5625q-0.96875 0.5625 -1.515625 1.578125q-0.546875 1.0 -0.546875 2.375l0 0.765625q0 1.40625 0.625 2.484375q0.625 1.078125 1.75 1.640625q1.140625 0.546875 2.671875 0.546875q1.390625 0 2.421875 -0.40625q1.046875 -0.421875 1.90625 -1.25l2.65625 2.875q-1.1875 1.34375 -2.984375 2.0625q-1.78125 0.71875 -4.125 0.71875zm15.262665 -0.25l-6.203125 -17.21875l4.703125 0l5.15625 14.8125l-2.25 0l5.390625 -14.8125l4.21875 0l5.21875 14.8125l-2.25 0l5.3125 -14.8125l4.4218903 0l-6.2343903 17.21875l-4.84375 0l-4.578125 -12.703125l1.484375 0l-4.734375 12.703125l-4.8125 0zm35.102585 0l0 -17.21875l5.0 0l0 17.21875l-5.0 0zm2.5 -19.609375q-1.375 0 -2.234375 -0.796875q-0.859375 -0.8125 -0.859375 -2.0q0 -1.171875 0.859375 -1.96875q0.859375 -0.8125 2.234375 -0.8125q1.375 0 2.234375 0.75q0.875 0.75 0.875 1.9375q0 1.25 -0.84375 2.078125q-0.84375 0.8125 -2.265625 0.8125zm7.132019 19.609375l0 -17.21875l4.78125 0l0 4.765625l-0.90625 -1.4375q0.9375 -1.71875 2.65625 -2.640625q1.734375 -0.9375 3.9375 -0.9375q2.046875 0 3.65625 0.8125q1.625 0.8125 2.546875 2.5q0.9375 1.671875 0.9375 4.296875l0 9.859375l-5.0 0l0 -9.09375q0 -2.078125 -0.90625 -3.0625q-0.90625 -1.0 -2.578125 -1.0q-1.1875 0 -2.125 0.5q-0.9375 0.5 -1.46875 1.53125q-0.53125 1.015625 -0.53125 2.609375l0 8.515625l-5.0 0zm27.908905 0.25q-2.203125 0 -4.234375 -0.515625q-2.03125 -0.53125 -3.21875 -1.328125l1.65625 -3.59375q1.1875 0.734375 2.796875 1.203125q1.625 0.46875 3.1875 0.46875q1.734375 0 2.453125 -0.421875q0.71875 -0.421875 0.71875 -1.15625q0 -0.609375 -0.5625 -0.90625q-0.546875 -0.296875 -1.484375 -0.453125q-0.921875 -0.171875 -2.03125 -0.328125q-1.109375 -0.15625 -2.234375 -0.421875q-1.109375 -0.28125 -2.046875 -0.828125q-0.921875 -0.546875 -1.484375 -1.46875q-0.546875 -0.9375 -0.546875 -2.40625q0 -1.625 0.9375 -2.875q0.9375 -1.25 2.734375 -1.96875q1.796875 -0.71875 4.296875 -0.71875q1.75 0 3.578125 0.390625q1.828125 0.375 3.03125 1.109375l-1.65625 3.546875q-1.25 -0.734375 -2.515625 -1.0q-1.265625 -0.28125 -2.4375 -0.28125q-1.671875 0 -2.4375 0.453125q-0.765625 0.453125 -0.765625 1.15625q0 0.640625 0.546875 0.96875q0.5625 0.3125 1.484375 0.5q0.9375 0.1875 2.046875 0.34375q1.109375 0.140625 2.21875 0.4375q1.125 0.28125 2.03125 0.8125q0.921875 0.515625 1.484375 1.4375q0.578125 0.90625 0.578125 2.375q0 1.609375 -0.96875 2.84375q-0.953125 1.21875 -2.765625 1.921875q-1.796875 0.703125 -4.390625 0.703125zm11.19516 -0.25l0 -17.21875l5.0 0l0 17.21875l-5.0 0zm2.5 -19.609375q-1.375 0 -2.234375 -0.796875q-0.859375 -0.8125 -0.859375 -2.0q0 -1.171875 0.859375 -1.96875q0.859375 -0.8125 2.234375 -0.8125q1.375 0 2.234375 0.75q0.875 0.75 0.875 1.9375q0 1.25 -0.84375 2.078125q-0.84375 0.8125 -2.265625 0.8125zm15.241394 26.078125q-2.4375 0 -4.703125 -0.59375q-2.25 -0.59375 -3.75 -1.78125l1.984375 -3.578125q1.09375 0.890625 2.765625 1.421875q1.6875 0.53125 3.3125 0.53125q2.65625 0 3.859375 -1.1875q1.203125 -1.1875 1.203125 -3.515625l0 -2.59375l0.3125 -4.328125l-0.0625 -4.34375l0 -3.71875l4.734375 0l0 14.34375q0 4.796875 -2.5 7.0625q-2.484375 2.28125 -7.15625 2.28125zm-0.78125 -7.296875q-2.390625 0 -4.328125 -1.03125q-1.9375 -1.046875 -3.109375 -2.921875q-1.15625 -1.875 -1.15625 -4.375q0 -2.53125 1.15625 -4.390625q1.171875 -1.875 3.109375 -2.890625q1.9375 -1.03125 4.328125 -1.03125q2.1875 0 3.84375 0.875q1.671875 0.875 2.59375 2.71875q0.921875 1.84375 0.921875 4.71875q0 2.859375 -0.921875 4.703125q-0.921875 1.828125 -2.59375 2.734375q-1.65625 0.890625 -3.84375 0.890625zm1.0 -4.09375q1.3125 0 2.328125 -0.53125q1.03125 -0.53125 1.609375 -1.484375q0.578125 -0.96875 0.578125 -2.21875q0 -1.28125 -0.578125 -2.21875q-0.578125 -0.9375 -1.609375 -1.46875q-1.015625 -0.53125 -2.328125 -0.53125q-1.3125 0 -2.34375 0.53125q-1.015625 0.53125 -1.609375 1.46875q-0.59375 0.9375 -0.59375 2.21875q0 1.25 0.59375 2.21875q0.59375 0.953125 1.609375 1.484375q1.03125 0.53125 2.34375 0.53125zm14.07193 4.921875l0 -23.75l5.0 0l0 11.296875l-1.125 -1.4375q0.9375 -1.71875 2.65625 -2.640625q1.734375 -0.9375 3.9375 -0.9375q2.046875 0 3.65625 0.8125q1.625 0.8125 2.546875 2.5q0.9375 1.671875 0.9375 4.296875l0 9.859375l-5.0 0l0 -9.09375q0 -2.078125 -0.90625 -3.0625q-0.90625 -1.0 -2.578125 -1.0q-1.1875 0 -2.125 0.5q-0.9375 0.5 -1.46875 1.53125q-0.53125 1.015625 -0.53125 2.609375l0 8.515625l-5.0 0zm29.158905 0.25q-3.046875 0 -4.75 -1.546875q-1.6875 -1.546875 -1.6875 -4.625l0 -15.109375l5.0 0l0 15.046875q0 1.09375 0.578125 1.6875q0.578125 0.578125 1.5625 0.578125q1.1875 0 2.015625 -0.640625l1.34375 3.53125q-0.765625 0.546875 -1.84375 0.8125q-1.0625 0.265625 -2.21875 0.265625zm-9.09375 -13.625l0 -3.84375l11.9375 0l0 3.84375l-11.9375 0zm21.763794 13.625q-2.203125 0 -4.234375 -0.515625q-2.03125 -0.53125 -3.21875 -1.328125l1.65625 -3.59375q1.1875 0.734375 2.796875 1.203125q1.625 0.46875 3.1875 0.46875q1.734375 0 2.453125 -0.421875q0.71875 -0.421875 0.71875 -1.15625q0 -0.609375 -0.5625 -0.90625q-0.546875 -0.296875 -1.484375 -0.453125q-0.921875 -0.171875 -2.03125 -0.328125q-1.109375 -0.15625 -2.234375 -0.421875q-1.109375 -0.28125 -2.046875 -0.828125q-0.921875 -0.546875 -1.484375 -1.46875q-0.546875 -0.9375 -0.546875 -2.40625q0 -1.625 0.9375 -2.875q0.9375 -1.25 2.734375 -1.96875q1.796875 -0.71875 4.296875 -0.71875q1.75 0 3.578125 0.390625q1.828125 0.375 3.03125 1.109375l-1.65625 3.546875q-1.25 -0.734375 -2.515625 -1.0q-1.265625 -0.28125 -2.4375 -0.28125q-1.671875 0 -2.4375 0.453125q-0.765625 0.453125 -0.765625 1.15625q0 0.640625 0.546875 0.96875q0.5625 0.3125 1.484375 0.5q0.9375 0.1875 2.046875 0.34375q1.109375 0.140625 2.21875 0.4375q1.125 0.28125 2.03125 0.8125q0.921875 0.515625 1.484375 1.4375q0.578125 0.90625 0.578125 2.375q0 1.609375 -0.96875 2.84375q-0.953125 1.21875 -2.765625 1.921875q-1.796875 0.703125 -4.390625 0.703125z" fill-rule="nonzero"/><path fill="#000000" d="m412.43375 642.8554q-1.203125 0 -2.359375 -0.40625q-1.15625 -0.40625 -1.984375 -1.171875l1.3125 -2.296875q0.640625 0.609375 1.40625 0.921875q0.765625 0.328125 1.625 0.328125q1.125 0 1.859375 -0.578125q0.734375 -0.578125 1.375 -2.046875l1.0625 -2.34375l0.3125 -0.375l6.65625 -15.390625l3.015625 0l-8.21875 18.65625q-0.75 1.78125 -1.65625 2.796875q-0.90625 1.03125 -2.0 1.46875q-1.09375 0.4375 -2.40625 0.4375zm4.046875 -5.859375l-7.75 -17.5l3.203125 0l6.59375 15.09375l-2.046875 2.40625zm19.892426 -0.359375q-2.5625 0 -4.546875 -1.109375q-1.984375 -1.125 -3.140625 -3.09375q-1.140625 -1.96875 -1.140625 -4.46875q0 -2.53125 1.140625 -4.46875q1.15625 -1.953125 3.140625 -3.0625q1.984375 -1.109375 4.546875 -1.109375q2.53125 0 4.53125 1.109375q2.0 1.109375 3.125 3.046875q1.140625 1.921875 1.140625 4.484375q0 2.53125 -1.140625 4.484375q-1.125 1.953125 -3.125 3.078125q-2.0 1.109375 -4.53125 1.109375zm0 -2.6875q1.640625 0 2.9375 -0.734375q1.296875 -0.734375 2.03125 -2.09375q0.734375 -1.359375 0.734375 -3.15625q0 -1.8125 -0.734375 -3.140625q-0.734375 -1.328125 -2.03125 -2.0625q-1.296875 -0.75 -2.9375 -0.75q-1.625 0 -2.90625 0.75q-1.28125 0.734375 -2.046875 2.0625q-0.765625 1.328125 -0.765625 3.140625q0 1.796875 0.765625 3.15625q0.765625 1.359375 2.046875 2.09375q1.28125 0.734375 2.90625 0.734375zm20.195038 2.6875q-2.171875 0 -3.828125 -0.796875q-1.640625 -0.796875 -2.5625 -2.4375q-0.90625 -1.65625 -0.90625 -4.15625l0 -9.75l3.078125 0l0 9.40625q0 2.484375 1.1875 3.734375q1.203125 1.25 3.390625 1.25q1.59375 0 2.78125 -0.65625q1.1875 -0.65625 1.8125 -1.921875q0.640625 -1.265625 0.640625 -3.046875l0 -8.765625l3.078125 0l0 16.953125l-2.90625 0l0 -4.578125l0.46875 1.21875q-0.828125 1.703125 -2.5 2.625q-1.65625 0.921875 -3.734375 0.921875zm14.523407 -0.1875l0 -16.953125l2.953125 0l0 4.59375l-0.296875 -1.140625q0.703125 -1.765625 2.359375 -2.6875q1.671875 -0.9375 4.109375 -0.9375l0 2.984375q-0.1875 -0.03125 -0.375 -0.03125q-0.171875 0 -0.328125 0q-2.46875 0 -3.90625 1.46875q-1.4375 1.46875 -1.4375 4.25l0 8.453125l-3.078125 0zm21.728058 0l0 -16.953125l2.953125 0l0 4.5l-0.484375 -1.140625q0.796875 -1.671875 2.453125 -2.59375q1.671875 -0.9375 3.890625 -0.9375q2.421875 0 4.171875 1.203125q1.765625 1.203125 2.3125 3.640625l-1.25 -0.515625q0.78125 -1.953125 2.6875 -3.140625q1.921875 -1.1875 4.4843445 -1.1875q2.046875 0 3.609375 0.8125q1.578125 0.796875 2.453125 2.4375q0.890625 1.625 0.890625 4.109375l0 9.765625l-3.078125 0l0 -9.40625q0 -2.46875 -1.15625 -3.71875q-1.140625 -1.25 -3.234375 -1.25q-1.5312195 0 -2.6874695 0.640625q-1.140625 0.640625 -1.765625 1.890625q-0.625 1.25 -0.625 3.109375l0 8.734375l-3.078125 0l0 -9.40625q0 -2.46875 -1.140625 -3.71875q-1.125 -1.25 -3.234375 -1.25q-1.515625 0 -2.671875 0.640625q-1.140625 0.640625 -1.78125 1.890625q-0.640625 1.25 -0.640625 3.109375l0 8.734375l-3.078125 0zm41.08969 0.1875q-2.5625 0 -4.546875 -1.109375q-1.984375 -1.125 -3.140625 -3.09375q-1.140625 -1.96875 -1.140625 -4.46875q0 -2.53125 1.140625 -4.46875q1.15625 -1.953125 3.140625 -3.0625q1.984375 -1.109375 4.546875 -1.109375q2.53125 0 4.53125 1.109375q2.0 1.109375 3.125 3.046875q1.140625 1.921875 1.140625 4.484375q0 2.53125 -1.140625 4.484375q-1.125 1.953125 -3.125 3.078125q-2.0 1.109375 -4.53125 1.109375zm0 -2.6875q1.640625 0 2.9375 -0.734375q1.296875 -0.734375 2.03125 -2.09375q0.734375 -1.359375 0.734375 -3.15625q0 -1.8125 -0.734375 -3.140625q-0.734375 -1.328125 -2.03125 -2.0625q-1.296875 -0.75 -2.9375 -0.75q-1.625 0 -2.90625 0.75q-1.28125 0.734375 -2.046875 2.0625q-0.765625 1.328125 -0.765625 3.140625q0 1.796875 0.765625 3.15625q0.765625 1.359375 2.046875 2.09375q1.28125 0.734375 2.90625 0.734375zm20.070007 2.6875q-2.46875 0 -4.40625 -1.078125q-1.9375 -1.09375 -3.0625 -3.046875q-1.109375 -1.953125 -1.109375 -4.546875q0 -2.59375 1.109375 -4.515625q1.125 -1.9375 3.0625 -3.03125q1.9375 -1.09375 4.40625 -1.09375q2.140625 0 3.859375 0.96875q1.734375 0.953125 2.765625 2.875q1.046875 1.921875 1.046875 4.796875q0 2.890625 -1.015625 4.8125q-1.0 1.90625 -2.734375 2.890625q-1.71875 0.96875 -3.921875 0.96875zm0.25 -2.6875q1.609375 0 2.90625 -0.734375q1.296875 -0.734375 2.046875 -2.09375q0.75 -1.359375 0.75 -3.15625q0 -1.8125 -0.75 -3.140625q-0.75 -1.328125 -2.046875 -2.0625q-1.296875 -0.75 -2.90625 -0.75q-1.625 0 -2.90625 0.75q-1.28125 0.734375 -2.046875 2.0625q-0.765625 1.328125 -0.765625 3.140625q0 1.796875 0.765625 3.15625q0.765625 1.359375 2.046875 2.09375q1.28125 0.734375 2.90625 0.734375zm5.796875 2.5l0 -4.578125l0.1875 -3.9375l-0.3125 -3.9375l0 -11.296875l3.0625 0l0 23.75l-2.9375 0zm16.324097 0.1875q-2.71875 0 -4.796875 -1.109375q-2.0625 -1.125 -3.203125 -3.078125q-1.125 -1.953125 -1.125 -4.484375q0 -2.53125 1.09375 -4.46875q1.109375 -1.953125 3.046875 -3.0625q1.9375 -1.109375 4.375 -1.109375q2.453125 0 4.34375 1.09375q1.890625 1.09375 2.953125 3.0625q1.078125 1.953125 1.078125 4.578125q0 0.203125 -0.015625 0.453125q-0.015625 0.25 -0.046875 0.484375l-14.421875 0l0 -2.203125l12.828125 0l-1.25 0.765625q0.03125 -1.640625 -0.671875 -2.921875q-0.703125 -1.28125 -1.9375 -2.0q-1.234375 -0.71875 -2.859375 -0.71875q-1.609375 0 -2.859375 0.71875q-1.234375 0.71875 -1.9375 2.015625q-0.703125 1.296875 -0.703125 2.96875l0 0.515625q0 1.6875 0.78125 3.015625q0.78125 1.328125 2.1875 2.0625q1.40625 0.734375 3.234375 0.734375q1.5 0 2.734375 -0.5q1.234375 -0.515625 2.15625 -1.546875l1.703125 1.984375q-1.15625 1.34375 -2.875 2.046875q-1.703125 0.703125 -3.8125 0.703125zm12.021545 -0.1875l0 -23.75l3.078125 0l0 23.75l-3.078125 0zm24.926636 0.1875q-2.578125 0 -4.625 -1.109375q-2.03125 -1.125 -3.1875 -3.078125q-1.140625 -1.953125 -1.140625 -4.484375q0 -2.53125 1.140625 -4.46875q1.15625 -1.953125 3.1875 -3.0625q2.046875 -1.109375 4.625 -1.109375q2.3125 0 4.109375 0.921875q1.8125 0.90625 2.8125 2.703125l-2.34375 1.5q-0.828125 -1.25 -2.03125 -1.84375q-1.203125 -0.59375 -2.578125 -0.59375q-1.65625 0 -2.96875 0.75q-1.3125 0.734375 -2.078125 2.0625q-0.765625 1.328125 -0.765625 3.140625q0 1.828125 0.765625 3.171875q0.765625 1.34375 2.078125 2.078125q1.3125 0.734375 2.96875 0.734375q1.375 0 2.578125 -0.59375q1.203125 -0.59375 2.03125 -1.828125l2.34375 1.46875q-1.0 1.75 -2.8125 2.703125q-1.796875 0.9375 -4.109375 0.9375zm17.891052 0q-2.5625 0 -4.546875 -1.109375q-1.984375 -1.125 -3.140625 -3.09375q-1.140625 -1.96875 -1.140625 -4.46875q0 -2.53125 1.140625 -4.46875q1.15625 -1.953125 3.140625 -3.0625q1.984375 -1.109375 4.546875 -1.109375q2.53125 0 4.53125 1.109375q2.0 1.109375 3.125 3.046875q1.140625 1.921875 1.140625 4.484375q0 2.53125 -1.140625 4.484375q-1.125 1.953125 -3.125 3.078125q-2.0 1.109375 -4.53125 1.109375zm0 -2.6875q1.640625 0 2.9375 -0.734375q1.296875 -0.734375 2.03125 -2.09375q0.734375 -1.359375 0.734375 -3.15625q0 -1.8125 -0.734375 -3.140625q-0.734375 -1.328125 -2.03125 -2.0625q-1.296875 -0.75 -2.9375 -0.75q-1.625 0 -2.90625 0.75q-1.28125 0.734375 -2.046875 2.0625q-0.765625 1.328125 -0.765625 3.140625q0 1.796875 0.765625 3.15625q0.765625 1.359375 2.046875 2.09375q1.28125 0.734375 2.90625 0.734375zm20.195007 2.6875q-2.171875 0 -3.828125 -0.796875q-1.640625 -0.796875 -2.5625 -2.4375q-0.90625 -1.65625 -0.90625 -4.15625l0 -9.75l3.078125 0l0 9.40625q0 2.484375 1.1875 3.734375q1.203125 1.25 3.390625 1.25q1.59375 0 2.78125 -0.65625q1.1875 -0.65625 1.8125 -1.921875q0.640625 -1.265625 0.640625 -3.046875l0 -8.765625l3.078125 0l0 16.953125l-2.90625 0l0 -4.578125l0.46875 1.21875q-0.828125 1.703125 -2.5 2.625q-1.65625 0.921875 -3.734375 0.921875zm14.5234375 -0.1875l0 -23.75l3.078125 0l0 23.75l-3.078125 0zm15.943665 0.1875q-2.46875 0 -4.40625 -1.078125q-1.9375 -1.09375 -3.0625 -3.046875q-1.109375 -1.953125 -1.109375 -4.546875q0 -2.59375 1.109375 -4.515625q1.125 -1.9375 3.0625 -3.03125q1.9375 -1.09375 4.40625 -1.09375q2.140625 0 3.859375 0.96875q1.734375 0.953125 2.765625 2.875q1.046875 1.921875 1.046875 4.796875q0 2.890625 -1.015625 4.8125q-1.0 1.90625 -2.734375 2.890625q-1.71875 0.96875 -3.921875 0.96875zm0.25 -2.6875q1.609375 0 2.90625 -0.734375q1.296875 -0.734375 2.046875 -2.09375q0.75 -1.359375 0.75 -3.15625q0 -1.8125 -0.75 -3.140625q-0.75 -1.328125 -2.046875 -2.0625q-1.296875 -0.75 -2.90625 -0.75q-1.625 0 -2.90625 0.75q-1.28125 0.734375 -2.046875 2.0625q-0.765625 1.328125 -0.765625 3.140625q0 1.796875 0.765625 3.15625q0.765625 1.359375 2.046875 2.09375q1.28125 0.734375 2.90625 0.734375zm5.796875 2.5l0 -4.578125l0.1875 -3.9375l-0.3125 -3.9375l0 -11.296875l3.0625 0l0 23.75l-2.9375 0zm24.510193 0.1875q-2.171875 0 -3.828125 -0.796875q-1.640625 -0.796875 -2.5625 -2.4375q-0.90625 -1.65625 -0.90625 -4.15625l0 -9.75l3.078125 0l0 9.40625q0 2.484375 1.1875 3.734375q1.203125 1.25 3.390625 1.25q1.59375 0 2.78125 -0.65625q1.1875 -0.65625 1.8125 -1.921875q0.640625 -1.265625 0.640625 -3.046875l0 -8.765625l3.078125 0l0 16.953125l-2.90625 0l0 -4.578125l0.46875 1.21875q-0.828125 1.703125 -2.5 2.625q-1.65625 0.921875 -3.734375 0.921875zm14.5234375 -0.1875l0 -16.953125l2.953125 0l0 4.5625l-0.484375 -1.203125q0.828125 -1.671875 2.546875 -2.59375q1.734375 -0.9375 4.046875 -0.9375q2.078125 0 3.65625 0.8125q1.59375 0.796875 2.484375 2.4375q0.90625 1.625 0.90625 4.109375l0 9.765625l-3.078125 0l0 -9.40625q0 -2.46875 -1.203125 -3.71875q-1.203125 -1.25 -3.375 -1.25q-1.625 0 -2.84375 0.640625q-1.21875 0.640625 -1.875 1.890625q-0.65625 1.25 -0.65625 3.109375l0 8.734375l-3.078125 0zm29.182678 0.1875q-2.578125 0 -4.625 -1.109375q-2.03125 -1.125 -3.1875 -3.078125q-1.140625 -1.953125 -1.140625 -4.484375q0 -2.53125 1.140625 -4.46875q1.15625 -1.953125 3.1875 -3.0625q2.046875 -1.109375 4.625 -1.109375q2.3125 0 4.109375 0.921875q1.8125 0.90625 2.8125 2.703125l-2.34375 1.5q-0.828125 -1.25 -2.03125 -1.84375q-1.203125 -0.59375 -2.578125 -0.59375q-1.65625 0 -2.96875 0.75q-1.3125 0.734375 -2.078125 2.0625q-0.765625 1.328125 -0.765625 3.140625q0 1.828125 0.765625 3.171875q0.765625 1.34375 2.078125 2.078125q1.3125 0.734375 2.96875 0.734375q1.375 0 2.578125 -0.59375q1.203125 -0.59375 2.03125 -1.828125l2.34375 1.46875q-1.0 1.75 -2.8125 2.703125q-1.796875 0.9375 -4.109375 0.9375zm17.891052 0q-2.5625 0 -4.546875 -1.109375q-1.984375 -1.125 -3.140625 -3.09375q-1.140625 -1.96875 -1.140625 -4.46875q0 -2.53125 1.140625 -4.46875q1.15625 -1.953125 3.140625 -3.0625q1.984375 -1.109375 4.546875 -1.109375q2.53125 0 4.53125 1.109375q2.0 1.109375 3.125 3.046875q1.140625 1.921875 1.140625 4.484375q0 2.53125 -1.140625 4.484375q-1.125 1.953125 -3.125 3.078125q-2.0 1.109375 -4.53125 1.109375zm0 -2.6875q1.640625 0 2.9375 -0.734375q1.296875 -0.734375 2.03125 -2.09375q0.734375 -1.359375 0.734375 -3.15625q0 -1.8125 -0.734375 -3.140625q-0.734375 -1.328125 -2.03125 -2.0625q-1.296875 -0.75 -2.9375 -0.75q-1.625 0 -2.90625 0.75q-1.28125 0.734375 -2.046875 2.0625q-0.765625 1.328125 -0.765625 3.140625q0 1.796875 0.765625 3.15625q0.765625 1.359375 2.046875 2.09375q1.28125 0.734375 2.90625 0.734375zm17.027527 2.5l-7.421875 -16.953125l3.203125 0l6.59375 15.359375l-1.546875 0l6.71875 -15.359375l3.015625 0l-7.421875 16.953125l-3.140625 0zm20.517395 0.1875q-2.71875 0 -4.796875 -1.109375q-2.0625 -1.125 -3.203125 -3.078125q-1.125 -1.953125 -1.125 -4.484375q0 -2.53125 1.09375 -4.46875q1.109375 -1.953125 3.046875 -3.0625q1.9375 -1.109375 4.375 -1.109375q2.453125 0 4.34375 1.09375q1.890625 1.09375 2.953125 3.0625q1.078125 1.953125 1.078125 4.578125q0 0.203125 -0.015625 0.453125q-0.015625 0.25 -0.046875 0.484375l-14.421875 0l0 -2.203125l12.828125 0l-1.25 0.765625q0.03125 -1.640625 -0.671875 -2.921875q-0.703125 -1.28125 -1.9375 -2.0q-1.234375 -0.71875 -2.859375 -0.71875q-1.609375 0 -2.859375 0.71875q-1.234375 0.71875 -1.9375 2.015625q-0.703125 1.296875 -0.703125 2.96875l0 0.515625q0 1.6875 0.78125 3.015625q0.78125 1.328125 2.1875 2.0625q1.40625 0.734375 3.234375 0.734375q1.5 0 2.734375 -0.5q1.234375 -0.515625 2.15625 -1.546875l1.703125 1.984375q-1.15625 1.34375 -2.875 2.046875q-1.703125 0.703125 -3.8125 0.703125zm12.021545 -0.1875l0 -16.953125l2.953125 0l0 4.59375l-0.296875 -1.140625q0.703125 -1.765625 2.359375 -2.6875q1.671875 -0.9375 4.109375 -0.9375l0 2.984375q-0.1875 -0.03125 -0.375 -0.03125q-0.171875 0 -0.328125 0q-2.46875 0 -3.90625 1.46875q-1.4375 1.46875 -1.4375 4.25l0 8.453125l-3.078125 0z" fill-rule="nonzero"/><path fill="#000000" fill-opacity="0.0" d="m38.622044 425.4449l889.95276 1.5747986" fill-rule="evenodd"/><path stroke="#111c28" stroke-width="0.7690288713910761" stroke-linejoin="round" stroke-linecap="butt" stroke-dasharray="0.7690288713910761,2.3070866141732282" d="m38.622044 425.4449l889.95276 1.5747986" fill-rule="evenodd"/><path fill="#000000" fill-opacity="0.0" d="m38.622044 292.98032l889.95276 1.5747986" fill-rule="evenodd"/><path stroke="#111c28" stroke-width="0.7690288713910761" stroke-linejoin="round" stroke-linecap="butt" stroke-dasharray="0.7690288713910761,2.3070866141732282" d="m38.622044 292.98032l889.95276 1.5747986" fill-rule="evenodd"/><path fill="#000000" fill-opacity="0.0" d="m38.622044 160.51443l889.95276 1.5747986" fill-rule="evenodd"/><path stroke="#111c28" stroke-width="0.7690288713910761" stroke-linejoin="round" stroke-linecap="butt" stroke-dasharray="0.7690288713910761,2.3070866141732282" d="m38.622044 160.51443l889.95276 1.5747986" fill-rule="evenodd"/><path fill="#000000" fill-opacity="0.0" d="m35.02362 560.60895l889.95276 1.5747681" fill-rule="evenodd"/><path stroke="#111c28" stroke-width="0.7690288713910761" stroke-linejoin="round" stroke-linecap="butt" stroke-dasharray="0.7690288713910761,2.3070866141732282" d="m35.02362 560.60895l889.95276 1.5747681" fill-rule="evenodd"/><path fill="#000000" fill-opacity="0.0" d="m161.09776 29.92651l0 668.8504" fill-rule="evenodd"/><path stroke="#111c28" stroke-width="0.7690288713910761" stroke-linejoin="round" stroke-linecap="butt" stroke-dasharray="0.7690288713910761,2.3070866141732282" d="m161.09776 29.92651l0 668.8504" fill-rule="evenodd"/><path fill="#29caab" d="m39.78478 61.611874l0 0c0 -9.01358 7.3069496 -16.320534 16.320534 -16.320534l65.28018 0l0 0c4.328476 0 8.479675 1.7194786 11.5403595 4.7801743c3.0606995 3.0606918 4.780182 7.2118874 4.780182 11.5403595l0 66.917984c0 9.01358 -7.306961 16.320526 -16.320541 16.320526l-65.28018 0l0 0c-9.013584 0 -16.320534 -7.306946 -16.320534 -16.320526z" fill-rule="evenodd"/><path fill="#ffffff" d="m54.187023 105.25866l0 0c-2.3683662 -2.36837 -2.3683662 -6.208252 0 -8.576622l0 0l0 0c1.1373329 -1.1373291 2.679882 -1.7762756 4.288311 -1.7762756c1.608429 0 3.150982 0.63894653 4.288311 1.7762756l16.25748 16.257484c2.36837 2.36837 2.36837 6.208252 0 8.576622l0 0l0 0c-2.3683624 2.36837 -6.208252 2.36837 -8.576614 0z" fill-rule="evenodd"/><path fill="#ffffff" d="m114.72825 68.62488l0 0c2.3683624 -2.3683624 6.208252 -2.3683624 8.576614 0l0 0l0 0c1.1373367 1.1373367 1.7762833 2.6798859 1.7762833 4.288315c0 1.608429 -0.63894653 3.150978 -1.7762833 4.288307l-44.314255 44.314255c-2.3683624 2.36837 -6.208252 2.36837 -8.576614 0l0 0l0 0c-2.36837 -2.3683624 -2.36837 -6.208252 0 -8.576614z" fill-rule="evenodd"/><path fill="#29caab" d="m39.78478 194.07645l0 0c0 -9.013596 7.3069496 -16.320541 16.320534 -16.320541l65.28018 0l0 0c4.328476 0 8.479675 1.7194824 11.5403595 4.780182c3.0606995 3.0606842 4.780182 7.2118835 4.780182 11.5403595l0 66.91797c0 9.01358 -7.306961 16.320557 -16.320541 16.320557l-65.28018 0l0 0c-9.013584 0 -16.320534 -7.3069763 -16.320534 -16.320557z" fill-rule="evenodd"/><path fill="#ffffff" d="m54.187023 237.72322l0 0c-2.3683662 -2.3683624 -2.3683662 -6.208252 0 -8.576614l0 0l0 0c1.1373329 -1.1373291 2.679882 -1.7762756 4.288311 -1.7762756c1.608429 0 3.150982 0.63894653 4.288311 1.7762756l16.25748 16.257477c2.36837 2.3683777 2.36837 6.208267 0 8.57663l0 0l0 0c-2.3683624 2.3683777 -6.208252 2.3683777 -8.576614 0z" fill-rule="evenodd"/><path fill="#ffffff" d="m114.72825 201.08945l0 0c2.3683624 -2.3683624 6.208252 -2.3683624 8.576614 0l0 0l0 0c1.1373367 1.1373291 1.7762833 2.6798859 1.7762833 4.288315c0 1.608429 -0.63894653 3.1509705 -1.7762833 4.2882996l-44.314255 44.31427c-2.3683624 2.3683624 -6.208252 2.3683624 -8.576614 0l0 0l0 0c-2.36837 -2.3683777 -2.36837 -6.208252 0 -8.57663z" fill-rule="evenodd"/><path fill="#29caab" d="m39.78478 326.54233l0 0c0 -9.01358 7.3069496 -16.320557 16.320534 -16.320557l65.28018 0l0 0c4.328476 0 8.479675 1.7194824 11.5403595 4.780182c3.0606995 3.0606995 4.780182 7.2118835 4.780182 11.540375l0 66.91797c0 9.01358 -7.306961 16.320557 -16.320541 16.320557l-65.28018 0l0 0c-9.013584 0 -16.320534 -7.3069763 -16.320534 -16.320557z" fill-rule="evenodd"/><path fill="#ffffff" d="m54.187023 370.18912l0 0c-2.3683662 -2.3683777 -2.3683662 -6.208252 0 -8.57663l0 0l0 0c1.1373329 -1.1373291 2.679882 -1.7762756 4.288311 -1.7762756c1.608429 0 3.150982 0.63894653 4.288311 1.7762756l16.25748 16.257477c2.36837 2.3683777 2.36837 6.208252 0 8.57663l0 0l0 0c-2.3683624 2.3683777 -6.208252 2.3683777 -8.576614 0z" fill-rule="evenodd"/><path fill="#ffffff" d="m114.72825 333.55533l0 0c2.3683624 -2.3683777 6.208252 -2.3683777 8.576614 0l0 0l0 0c1.1373367 1.1373291 1.7762833 2.6798706 1.7762833 4.2882996c0 1.608429 -0.63894653 3.151001 -1.7762833 4.28833l-44.314255 44.31424c-2.3683624 2.3683777 -6.208252 2.3683777 -8.576614 0l0 0l0 0c-2.36837 -2.3683777 -2.36837 -6.208252 0 -8.57663z" fill-rule="evenodd"/><path fill="#29caab" d="m39.78478 464.40057l0 0c0 -9.01358 7.3069496 -16.320526 16.320534 -16.320526l65.28018 0l0 0c4.328476 0 8.479675 1.7194824 11.5403595 4.780182c3.0606995 3.0606995 4.780182 7.2118835 4.780182 11.540344l0 66.91797c0 9.013611 -7.306961 16.320557 -16.320541 16.320557l-65.28018 0l0 0c-9.013584 0 -16.320534 -7.306946 -16.320534 -16.320557z" fill-rule="evenodd"/><path fill="#ffffff" d="m54.187023 508.04736l0 0c-2.3683662 -2.3683472 -2.3683662 -6.208252 0 -8.576599l0 0l0 0c1.1373329 -1.1373291 2.679882 -1.7762756 4.288311 -1.7762756c1.608429 0 3.150982 0.63894653 4.288311 1.7762756l16.25748 16.257446c2.36837 2.3684082 2.36837 6.208252 0 8.57666l0 0l0 0c-2.3683624 2.3683472 -6.208252 2.3683472 -8.576614 0z" fill-rule="evenodd"/><path fill="#ffffff" d="m114.72825 471.4136l0 0c2.3683624 -2.3683777 6.208252 -2.3683777 8.576614 0l0 0l0 0c1.1373367 1.1373291 1.7762833 2.6798706 1.7762833 4.2882996c0 1.608429 -0.63894653 3.1509705 -1.7762833 4.2882996l-44.314255 44.31424c-2.3683624 2.3684082 -6.208252 2.3684082 -8.576614 0l0 0l0 0c-2.36837 -2.3683472 -2.36837 -6.208252 0 -8.576599z" fill-rule="evenodd"/><path fill="#29caab" d="m38.622047 591.47144l0 0c0 -9.01355 7.3069534 -16.320496 16.320538 -16.320496l65.28018 0l0 0c4.328476 0 8.479668 1.7194824 11.540367 4.7801514c3.0606842 3.060669 4.7801666 7.211914 4.7801666 11.540344l0 66.91803c0 9.01355 -7.306946 16.320496 -16.320534 16.320496l-65.28018 0l0 0c-9.013584 0 -16.320538 -7.306946 -16.320538 -16.320496z" fill-rule="evenodd"/><path fill="#ffffff" d="m53.024296 635.1182l0 0c-2.36837 -2.3683472 -2.36837 -6.208252 0 -8.576599l0 0l0 0c1.1373291 -1.1373291 2.679882 -1.7763062 4.288311 -1.7763062c1.6084251 0 3.150978 0.63897705 4.288307 1.7763062l16.257484 16.257507c2.36837 2.3683472 2.36837 6.208252 0 8.576599l0 0l0 0c-2.36837 2.3683472 -6.208252 2.3683472 -8.576622 0z" fill-rule="evenodd"/><path fill="#ffffff" d="m113.56551 598.48444l0 0c2.36837 -2.3683472 6.208252 -2.3683472 8.576622 0l0 0l0 0c1.1373291 1.1373291 1.7762756 2.6799316 1.7762756 4.28833c0 1.6084595 -0.63894653 3.151001 -1.7762756 4.28833l-44.314255 44.31427c-2.36837 2.3683472 -6.208252 2.3683472 -8.576622 0l0 0l0 0c-2.3683624 -2.3684082 -2.3683624 -6.208252 0 -8.57666z" fill-rule="evenodd"/></g></svg>